<svg xmlns="http://www.w3.org/2000/svg" width="1271.38" height="1272.27" viewBox="0 0 1271.38 1272.27">
  <title>background</title>
  <g>
    <rect width="1271.38" height="1272.27" fill="none"/>
    <polygon points="680.78 435.93 667.37 420.22 664.97 419.81 626.91 441.63 650.92 402.39 650.74 400.16 646.33 394.99 644.13 394.47 601.88 412.31 629.4 378.15 629.37 375.71 615.7 359.71 612.7 359.83 555.59 438.8 555.67 441.13 560.57 447.07 562.71 447.65 610.6 429.59 585.79 474.71 586.03 476.89 591.21 482.76 593.51 483.2 680.2 438.87 680.78 435.93" fill="#231f20"/>
    <polygon points="698 140.44 678.74 147.91 677.56 150.04 685.59 193.17 656.49 157.55 654.32 156.98 647.98 159.44 646.76 161.34 649.65 207.12 626.5 169.86 624.18 169.09 604.57 176.7 603.69 179.57 659.37 259.56 661.6 260.26 668.82 257.59 670.07 255.75 668.84 204.59 703.24 242.91 705.37 243.41 712.62 240.45 713.79 238.43 700.59 141.96 698 140.44" fill="#231f20"/>
    <polygon points="893.47 168.53 892.61 147.89 890.98 146.08 847.58 139.76 890.68 123.71 891.92 121.84 891.64 115.05 890.23 113.28 845.97 101.23 888.71 91.35 890.19 89.41 889.31 68.39 886.88 66.63 793.21 93.51 791.82 95.39 792.01 103.09 793.35 104.87 842.17 120.22 794.8 140.4 793.64 142.27 794.09 150.08 795.63 151.84 891.2 170.48 893.47 168.53" fill="#231f20"/>
    <polygon points="367.38 310.38 387.41 305.33 388.85 303.36 386.17 259.58 410.68 298.49 412.76 299.33 419.36 297.66 420.8 295.93 423.55 250.14 441.95 289.96 444.15 291.01 464.56 285.86 465.78 283.12 420.33 196.91 418.21 195.94 410.71 197.7 409.25 199.37 404.19 250.3 374.76 208.04 372.69 207.29 365.14 209.33 363.73 211.2 365 308.56 367.38 310.38" fill="#231f20"/>
    <polygon points="968.44 555.66 988.47 550.61 989.91 548.64 987.23 504.86 1011.74 543.77 1013.83 544.6 1020.42 542.94 1021.86 541.21 1024.61 495.42 1043.02 535.24 1045.21 536.28 1065.62 531.13 1066.84 528.39 1021.39 442.19 1019.27 441.22 1011.77 442.98 1010.31 444.64 1005.25 495.57 975.82 453.32 973.76 452.57 966.2 454.61 964.79 456.48 966.06 553.84 968.44 555.66" fill="#231f20"/>
    <polygon points="6.64 262.45 20.97 277.33 23.39 277.6 60.07 253.54 38.45 294.14 38.76 296.36 43.48 301.26 45.7 301.65 86.82 281.31 61.39 317.05 61.57 319.48 76.16 334.64 79.15 334.34 131.43 252.1 131.22 249.77 125.97 244.14 123.8 243.69 77.07 264.58 99.14 218.06 98.77 215.9 93.25 210.35 90.93 210.05 7.04 259.48 6.64 262.45" fill="#231f20"/>
    <polygon points="145.69 496.18 128.15 485.26 125.73 485.59 96.06 517.89 107.08 473.24 106.23 471.16 100.46 467.57 98.21 467.74 63.33 497.52 79.23 456.64 78.46 454.33 60.6 443.21 57.78 444.23 27.23 536.77 28 538.98 34.47 543.15 36.69 543.05 76.87 511.36 66.87 561.87 67.76 563.87 74.47 567.9 76.79 567.62 146.02 499.15 145.69 496.18" fill="#231f20"/>
    <polygon points="349.15 657.2 328.58 659.07 326.85 660.79 322.67 704.45 304.52 662.19 302.6 661.04 295.82 661.66 294.13 663.15 284.27 707.95 272.3 665.74 270.3 664.36 249.34 666.27 247.7 668.78 279.15 761.03 281.09 762.32 288.77 761.75 290.48 760.33 303.42 710.81 325.9 757.14 327.82 758.2 335.6 757.37 337.29 755.74 351.21 659.38 349.15 657.2" fill="#231f20"/>
    <polygon points="343.73 850.74 332.8 868.27 333.13 870.68 365.43 900.37 320.78 889.33 318.7 890.18 315.1 895.95 315.27 898.2 345.04 933.09 304.17 917.17 301.85 917.94 290.72 935.8 291.74 938.62 384.27 969.21 386.48 968.44 390.66 961.97 390.56 959.75 358.88 919.55 409.39 929.58 411.39 928.7 415.42 921.99 415.14 919.66 346.71 850.4 343.73 850.74" fill="#231f20"/>
    <polygon points="104.95 1128.33 85.39 1134.97 84.11 1137.05 90.28 1180.47 62.73 1143.64 60.59 1142.98 54.15 1145.17 52.86 1147.01 53.78 1192.87 32.24 1154.66 29.97 1153.79 10.04 1160.55 9.04 1163.38 61.24 1245.68 63.44 1246.47 70.77 1244.12 72.1 1242.34 73.06 1191.17 105.78 1230.93 107.9 1231.51 115.27 1228.88 116.53 1226.9 107.46 1129.96 104.95 1128.33" fill="#231f20"/>
    <polygon points="568.16 841.27 547.72 838.25 545.64 839.51 531.3 880.96 523.61 835.62 522.01 834.05 515.28 833.05 513.29 834.11 493.16 875.32 491.46 831.49 489.83 829.68 469.01 826.6 466.83 828.66 475.69 925.71 477.28 927.42 484.88 928.67 486.87 927.7 511.1 882.62 522.05 932.93 523.66 934.41 531.42 935.43 533.44 934.25 569.65 843.87 568.16 841.27" fill="#231f20"/>
    <polygon points="945.67 1018.98 944.02 998.38 942.32 996.64 898.7 992.01 941.15 974.3 942.31 972.38 941.77 965.61 940.3 963.9 895.6 953.58 937.92 942.04 939.33 940.05 937.64 919.07 935.14 917.41 842.58 947.9 841.27 949.84 841.76 957.52 843.16 959.24 892.54 972.69 845.99 994.7 844.9 996.6 845.66 1004.39 847.26 1006.1 943.48 1021.02 945.67 1018.98" fill="#231f20"/>
    <polygon points="938.97 1213.18 949.47 1195.38 949.08 1192.98 916.07 1164.09 960.98 1174.03 963.03 1173.13 966.49 1167.28 966.26 1165.03 935.65 1130.88 976.9 1145.79 979.19 1144.97 989.88 1126.84 988.79 1124.05 895.54 1095.73 893.36 1096.56 889.34 1103.12 889.49 1105.34 922.14 1144.75 871.41 1135.96 869.42 1136.9 865.56 1143.7 865.89 1146.02 936 1213.58 938.97 1213.18" fill="#231f20"/>
    <polygon points="991.23 850.15 1008.58 838.93 1009.31 836.61 992.73 796 1028.43 824.99 1030.67 825.11 1036.38 821.42 1037.19 819.31 1025.1 775.07 1055.31 806.87 1057.73 807.16 1075.4 795.74 1075.68 792.75 1004.97 725.68 1002.65 725.44 996.12 729.52 995.26 731.57 1006.81 781.42 965.38 750.85 963.19 750.8 956.69 755.16 955.95 757.38 988.4 849.18 991.23 850.15" fill="#231f20"/>
    <polygon points="6.64 757.77 10.88 777.99 12.79 779.51 56.64 778.6 16.77 801.52 15.85 803.57 17.24 810.22 18.92 811.73 64.56 816.34 24.03 833.11 22.89 835.27 27.21 855.86 29.9 857.2 117.88 815.28 118.93 813.19 117.48 805.63 115.87 804.1 65.19 796.98 108.59 769.29 109.43 767.26 107.7 759.63 105.89 758.14 8.56 755.47 6.64 757.77" fill="#231f20"/>
    <polygon points="328.55 106.84 348.64 111.66 350.83 110.58 368.77 70.56 372.43 116.4 373.89 118.11 380.5 119.69 382.58 118.82 406.26 79.54 404.1 123.35 405.56 125.3 426.02 130.21 428.38 128.35 428.11 30.89 426.68 29.05 419.22 27.13 417.15 27.93 389.04 70.69 382.57 19.61 381.09 17.99 373.45 16.29 371.34 17.29 327.3 104.13 328.55 106.84" fill="#231f20"/>
    <polygon points="429.61 640.92 440.35 623.27 439.99 620.87 407.39 591.52 452.15 602.09 454.22 601.22 457.76 595.41 457.57 593.16 427.43 558.58 468.47 574.07 470.77 573.28 481.71 555.3 480.66 552.49 387.81 522.88 385.62 523.68 381.51 530.19 381.63 532.41 413.73 572.27 363.12 562.77 361.13 563.68 357.17 570.44 357.47 572.76 426.63 641.29 429.61 640.92" fill="#231f20"/>
    <polygon points="775.74 453.45 793.39 464.19 795.8 463.84 825.14 431.23 814.58 476 815.45 478.06 821.26 481.6 823.5 481.41 858.08 451.27 842.59 492.31 843.39 494.62 861.36 505.56 864.17 504.51 893.79 411.66 892.99 409.46 886.48 405.35 884.26 405.48 844.4 437.57 853.89 386.97 852.98 384.97 846.23 381.01 843.91 381.31 775.38 450.48 775.74 453.45" fill="#231f20"/>
    <polygon points="300.48 529.71 303.77 509.31 302.53 507.21 261.27 492.32 306.72 485.23 308.31 483.65 309.39 476.94 308.37 474.93 267.42 454.26 311.27 453.14 313.1 451.53 316.46 430.76 314.42 428.55 217.26 436.13 215.53 437.7 214.18 445.28 215.13 447.28 259.89 472.1 209.44 482.39 207.93 483.98 206.81 491.73 207.96 493.77 297.86 531.16 300.48 529.71" fill="#231f20"/>
    <polygon points="958.39 331.88 964.02 312 963.03 309.77 923.77 290.21 969.73 288.42 971.49 287.04 973.34 280.49 972.56 278.38 934.27 253.12 977.96 257.07 979.97 255.69 985.7 235.44 983.94 233.01 886.55 229.31 884.65 230.66 882.43 238.03 883.14 240.14 924.73 269.97 873.43 274.35 871.75 275.76 869.74 283.32 870.65 285.48 955.62 333.02 958.39 331.88" fill="#231f20"/>
    <polygon points="1027.67 268.12 1048.33 267.78 1050.18 266.19 1057.58 222.95 1072.55 266.44 1074.39 267.73 1081.19 267.61 1082.98 266.25 1096.13 222.31 1104.95 265.28 1106.85 266.8 1127.89 266.45 1129.71 264.06 1105.16 169.75 1103.31 168.32 1095.61 168.32 1093.8 169.61 1077.24 218.03 1058.24 170.18 1056.41 168.97 1048.59 169.23 1046.78 170.73 1025.78 265.8 1027.67 268.12" fill="#231f20"/>
    <polygon points="1110.66 56.08 1121.58 73.62 1123.89 74.38 1164.77 58.48 1135.19 93.69 1135.03 95.93 1138.63 101.7 1140.72 102.54 1185.16 91.2 1152.86 120.87 1152.53 123.28 1163.66 141.15 1166.64 141.47 1234.88 71.89 1235.15 69.57 1231.19 62.97 1229.15 62.08 1179.11 72.8 1210.37 31.89 1210.45 29.69 1206.21 23.12 1204 22.34 1111.67 53.26 1110.66 56.08" fill="#231f20"/>
    <polygon points="904.93 587.89 884.41 590.28 882.73 592.04 879.64 635.79 860.44 594 858.48 592.9 851.73 593.69 850.08 595.22 841.35 640.25 828.32 598.37 826.27 597.04 805.37 599.47 803.8 602.02 837.56 693.45 839.54 694.69 847.2 693.92 848.87 692.46 860.56 642.63 884.2 688.38 886.15 689.39 893.91 688.36 895.55 686.7 907.04 590.01 904.93 587.89" fill="#231f20"/>
    <polygon points="1250.37 627.44 1232.23 617.55 1229.84 618.02 1202.07 651.97 1210.51 606.76 1209.55 604.74 1203.58 601.48 1201.34 601.77 1168.22 633.51 1181.76 591.79 1180.86 589.52 1162.38 579.45 1159.62 580.63 1134.43 674.77 1135.33 676.93 1142.03 680.73 1144.24 680.5 1182.54 646.55 1175.45 697.55 1176.45 699.5 1183.38 703.14 1185.69 702.73 1250.87 630.4 1250.37 627.44" fill="#231f20"/>
    <polygon points="1133.16 971.47 1140.21 990.89 1142.31 992.12 1185.6 985.03 1149.36 1013.35 1148.74 1015.51 1151.06 1021.9 1152.93 1023.15 1198.77 1021.27 1161.01 1043.6 1160.19 1045.9 1167.37 1065.68 1170.22 1066.62 1251.4 1012.69 1252.15 1010.48 1249.64 1003.2 1247.83 1001.91 1196.65 1002.02 1235.72 968.48 1236.26 966.35 1233.46 959.04 1231.46 957.82 1134.73 968.92 1133.16 971.47" fill="#231f20"/>
    <polygon points="769.77 736.65 757.89 719.75 755.53 719.12 715.61 737.28 743.18 700.47 743.21 698.23 739.3 692.66 737.16 691.94 693.42 705.75 724.02 674.32 724.21 671.89 712.11 654.68 709.11 654.52 644.86 727.8 644.72 730.13 649.04 736.5 651.13 737.27 700.49 723.77 671.57 766.37 671.6 768.57 676.21 774.89 678.46 775.54 768.92 739.52 769.77 736.65" fill="#231f20"/>
    <polygon points="737.36 565.52 713.75 555.4 743.06 487.1 742.06 484.59 724.13 476.9 721.63 477.9 684.53 564.35 685.53 566.86 728.82 585.43 731.32 584.42 738.36 568.03 737.36 565.52" fill="#231f20"/>
    <polygon points="1075.19 624.72 1062.84 647.24 997.67 611.51 995.08 612.27 985.7 629.37 986.46 631.96 1068.95 677.18 1071.54 676.43 1094.18 635.13 1093.42 632.54 1077.78 623.96 1075.19 624.72" fill="#231f20"/>
    <polygon points="751.1 281.57 775.53 289.49 752.62 360.2 753.85 362.6 772.41 368.61 774.81 367.38 803.8 277.89 802.57 275.49 757.77 260.97 755.37 262.2 749.87 279.17 751.1 281.57" fill="#231f20"/>
    <polygon points="1055.26 347.32 1080.92 346.11 1084.42 420.36 1086.41 422.17 1105.9 421.25 1107.71 419.26 1103.28 325.29 1101.29 323.47 1054.24 325.69 1052.43 327.69 1053.27 345.51 1055.26 347.32" fill="#231f20"/>
    <polygon points="1194.31 235.91 1215.29 250.73 1172.41 311.43 1172.87 314.09 1188.8 325.35 1191.46 324.89 1245.73 248.05 1245.28 245.39 1206.81 218.22 1204.15 218.68 1193.86 233.25 1194.31 235.91" fill="#231f20"/>
    <polygon points="1240.86 455.5 1235.23 480.56 1162.71 464.25 1160.43 465.7 1156.15 484.73 1157.6 487.01 1249.38 507.64 1251.66 506.2 1261.99 460.25 1260.55 457.97 1243.14 454.06 1240.86 455.5" fill="#231f20"/>
    <polygon points="1184.34 859.67 1173.16 836.55 1240.08 804.21 1240.96 801.66 1232.47 784.1 1229.93 783.21 1145.23 824.15 1144.34 826.7 1164.84 869.1 1167.39 869.99 1183.45 862.22 1184.34 859.67" fill="#231f20"/>
    <polygon points="665.66 77.73 675.33 53.94 744.19 81.91 746.68 80.86 754.02 62.79 752.97 60.3 665.81 24.9 663.33 25.95 645.6 69.58 646.65 72.07 663.18 78.78 665.66 77.73" fill="#231f20"/>
    <polygon points="1017.2 70.87 993.08 79.7 967.52 9.91 965.07 8.78 946.76 15.48 945.62 17.93 977.97 106.27 980.42 107.4 1024.64 91.21 1025.78 88.76 1019.64 72.01 1017.2 70.87" fill="#231f20"/>
    <polygon points="608.31 591.55 584.91 602.14 554.27 534.42 551.74 533.47 533.97 541.51 533.02 544.04 571.8 629.74 574.33 630.7 617.24 611.28 618.19 608.75 610.83 592.5 608.31 591.55" fill="#231f20"/>
    <polygon points="535.54 761.91 526.07 738.03 595.16 710.64 596.23 708.16 589.05 690.03 586.57 688.96 499.12 723.63 498.05 726.11 515.41 769.89 517.88 770.96 534.47 764.38 535.54 761.91" fill="#231f20"/>
    <polygon points="665.25 881.48 686.07 866.44 729.59 926.69 732.25 927.12 748.07 915.7 748.5 913.03 693.41 836.77 690.75 836.35 652.57 863.92 652.14 866.59 662.59 881.05 665.25 881.48" fill="#231f20"/>
    <polygon points="853.14 798.64 853.14 824.32 778.81 824.32 776.9 826.23 776.9 845.74 778.81 847.64 872.88 847.64 874.79 845.74 874.79 798.64 872.88 796.73 855.04 796.73 853.14 798.64" fill="#231f20"/>
    <polygon points="398.56 742.54 424.22 743.81 420.54 818.04 422.36 820.04 441.84 821.01 443.84 819.2 448.49 725.24 446.67 723.24 399.63 720.91 397.63 722.72 396.75 740.54 398.56 742.54" fill="#231f20"/>
    <polygon points="793.51 1100.78 772.63 1085.83 815.9 1025.4 815.46 1022.74 799.6 1011.38 796.94 1011.82 742.17 1088.31 742.61 1090.97 780.9 1118.39 783.57 1117.95 793.95 1103.44 793.51 1100.78" fill="#231f20"/>
    <polygon points="1081.81 1189.12 1079.39 1214.69 1005.4 1207.7 1003.32 1209.42 1001.48 1228.84 1003.2 1230.91 1096.86 1239.77 1098.94 1238.05 1103.37 1191.16 1101.65 1189.08 1083.89 1187.4 1081.81 1189.12" fill="#231f20"/>
    <polygon points="466.58 1008.89 473.47 1033.63 401.87 1053.56 400.54 1055.91 405.77 1074.7 408.12 1076.03 498.75 1050.8 500.07 1048.45 487.44 1003.08 485.09 1001.75 467.9 1006.54 466.58 1008.89" fill="#231f20"/>
    <polygon points="530.55 1174.93 537.34 1150.15 609.02 1169.78 611.37 1168.44 616.52 1149.63 615.18 1147.29 524.45 1122.45 522.1 1123.78 509.67 1169.21 511 1171.55 528.21 1176.26 530.55 1174.93" fill="#231f20"/>
    <polygon points="389.79 443.19 397.05 418.55 468.34 439.54 470.71 438.25 476.22 419.54 474.93 417.17 384.69 390.6 382.32 391.89 369.02 437.07 370.31 439.44 387.42 444.48 389.79 443.19" fill="#231f20"/>
    <polygon points="315.44 348.32 290.14 352.74 277.36 279.52 275.15 277.97 255.94 281.32 254.38 283.53 270.56 376.2 272.77 377.75 319.17 369.65 320.72 367.45 317.65 349.87 315.44 348.32" fill="#231f20"/>
    <polygon points="113.39 1034.8 128.57 1020.78 128.89 1018.37 105.62 981.19 145.75 1003.65 147.98 1003.39 152.97 998.78 153.41 996.57 133.94 955.03 169.14 981.21 171.57 981.08 187.03 966.81 186.8 963.82 105.68 909.81 103.35 909.97 97.6 915.1 97.11 917.27 117.01 964.42 70.97 941.37 68.8 941.7 63.13 947.1 62.78 949.41 110.43 1034.33 113.39 1034.8" fill="#231f20"/>
    <polygon points="332.69 1221.13 353.29 1222.76 355.28 1221.36 366.78 1179.03 377.52 1223.75 379.23 1225.21 386.01 1225.74 387.92 1224.56 405.21 1182.08 409.88 1225.69 411.63 1227.39 432.6 1229.06 434.64 1226.85 419.23 1130.62 417.53 1129.02 409.87 1128.29 407.94 1129.4 386.82 1176.02 372.49 1126.56 370.78 1125.18 362.97 1124.69 361.03 1126.01 331.03 1218.64 332.69 1221.13" fill="#231f20"/>
    <polygon points="781.06 1263.89 782.42 1243.27 781 1241.3 738.52 1230.35 783.1 1219.03 784.53 1217.3 784.98 1210.52 783.77 1208.61 741.07 1191.88 784.62 1186.65 786.29 1184.88 787.69 1163.88 785.46 1161.87 689.43 1178.53 687.86 1180.25 687.22 1187.92 688.36 1189.83 735.25 1210.35 685.98 1225.32 684.63 1227.05 684.24 1234.86 685.58 1236.78 778.59 1265.59 781.06 1263.89" fill="#231f20"/>
    <polygon points="1231.72 1123.55 1211.91 1129.44 1210.56 1131.46 1215.07 1175.1 1188.95 1137.24 1186.83 1136.49 1180.31 1138.43 1178.95 1140.23 1178.11 1186.09 1158.06 1147.08 1155.82 1146.12 1135.65 1152.12 1134.54 1154.9 1183.55 1239.14 1185.71 1240.02 1193.13 1237.95 1194.53 1236.22 1197.45 1185.12 1228.62 1226.11 1230.71 1226.77 1238.18 1224.42 1239.51 1222.49 1234.17 1125.28 1231.72 1123.55" fill="#231f20"/>
    <polygon points="563.03 1042.64 582.89 1048.34 585.12 1047.36 604.81 1008.16 606.45 1054.13 607.83 1055.89 614.36 1057.77 616.48 1056.99 641.87 1018.79 637.77 1062.46 639.14 1064.48 659.37 1070.28 661.8 1068.53 665.85 971.15 664.5 969.25 657.13 967 655.03 967.71 625.06 1009.19 620.85 957.87 619.45 956.19 611.89 954.15 609.73 955.06 561.9 1039.86 563.03 1042.64" fill="#231f20"/>
    <polygon points="238.08 872.95 213.12 866.92 230.55 794.67 229.15 792.37 210.19 787.8 207.88 789.2 185.81 880.65 187.22 882.95 233 894 235.31 892.59 239.49 875.25 238.08 872.95" fill="#231f20"/>
    <polygon points="1052.27 966.2 1044.42 941.74 1115.19 919.03 1116.42 916.63 1110.46 898.06 1108.07 896.82 1018.49 925.57 1017.26 927.97 1031.65 972.81 1034.05 974.05 1051.04 968.6 1052.27 966.2" fill="#231f20"/>
    <polygon points="1030.96 1094.51 1049.51 1076.75 1100.91 1130.44 1103.61 1130.5 1117.7 1117.01 1117.76 1114.31 1052.71 1046.36 1050.01 1046.3 1015.99 1078.86 1015.93 1081.56 1028.26 1094.45 1030.96 1094.51" fill="#231f20"/>
    <polygon points="294.09 1037.97 277.82 1057.84 220.32 1010.75 217.63 1011.01 205.27 1026.11 205.54 1028.79 278.32 1088.4 281 1088.13 310.85 1051.69 310.58 1049.01 296.78 1037.7 294.09 1037.97" fill="#231f20"/>
    <polygon points="202.26 1182.23 227.41 1187.44 212.32 1260.22 213.8 1262.47 232.9 1266.43 235.16 1264.95 254.25 1172.84 252.77 1170.58 206.65 1161.02 204.4 1162.51 200.78 1179.97 202.26 1182.23" fill="#231f20"/>
    <polygon points="550.01 326.74 527.19 314.96 561.26 248.91 560.44 246.34 543.11 237.4 540.54 238.22 497.41 321.82 498.23 324.39 540.08 345.98 542.65 345.16 550.83 329.31 550.01 326.74" fill="#231f20"/>
    <polygon points="233.97 562.63 240.49 587.48 168.61 606.36 167.25 608.69 172.2 627.55 174.53 628.91 265.52 605.02 266.88 602.69 254.91 557.13 252.58 555.77 235.33 560.3 233.97 562.63" fill="#231f20"/>
    <polygon points="112.35 93 88.59 102.74 60.4 33.97 57.91 32.92 39.86 40.32 38.82 42.81 74.5 129.85 76.99 130.9 120.57 113.03 121.61 110.54 114.84 94.04 112.35 93" fill="#231f20"/>
    <polygon points="116.03 419.92 109.96 394.96 182.19 377.42 183.59 375.12 178.99 356.16 176.68 354.76 85.27 376.96 83.87 379.26 94.98 425.03 97.29 426.44 114.62 422.23 116.03 419.92" fill="#231f20"/>
    <polygon points="67.61 679.07 84.21 659.47 140.92 707.52 143.61 707.3 156.22 692.42 156 689.73 84.22 628.91 81.53 629.14 51.09 665.07 51.31 667.76 64.92 679.29 67.61 679.07" fill="#231f20"/>
    <polygon points="244.84 38.55 252.32 63.12 181.21 84.76 179.94 87.14 185.62 105.81 188 107.08 278 79.68 279.27 77.3 265.56 32.24 263.17 30.98 246.11 36.17 244.84 38.55" fill="#231f20"/>
    <polygon points="535.89 74.82 545.81 98.51 477.25 127.2 476.22 129.7 483.75 147.69 486.25 148.72 573.03 112.4 574.05 109.9 555.87 66.46 553.37 65.43 536.91 72.32 535.89 74.82" fill="#231f20"/>
    <polygon points="215.11 141.35 207.86 160.7 208.66 163 246.18 185.73 200.23 183.72 198.36 184.96 195.97 191.33 196.58 193.5 232.65 221.83 189.44 214.29 187.33 215.5 179.94 235.21 181.5 237.77 278.25 249.49 280.25 248.3 283.08 241.13 282.54 238.98 243.55 205.83 295.04 205.69 296.83 204.42 299.46 197.05 298.73 194.82 217.96 140.44 215.11 141.35" fill="#231f20"/>
  </g>
</svg>
