<svg xmlns="http://www.w3.org/2000/svg" width="2035.33" height="153.64" viewBox="0 0 2035.33 153.64">
  <title>Lauren Whybrow Logo</title>
  <g>
    <polygon points="35.58 118.45 35.58 5.07 32.67 2.15 2.91 2.15 0 5.07 0 148.57 2.91 151.48 74.76 151.48 77.67 148.57 77.67 121.36 74.76 118.45 35.58 118.45" fill="#231f20"/>
    <path d="M183.57,1.37h-13.9l-2.76,2L118.75,147.65l2.76,3.83h29.37l2.78-2,7-22.81h31.15l7,22.81,2.78,2h30l2.76-3.83-48-144.29Zm-.83,95h-13l6.55-24.5Z" fill="#231f20"/>
    <path d="M342.27,2.15l-2.91,2.92v96.71c0,19.21-11.21,19.21-14.9,19.21-10.28,0-15.49-6.46-15.49-19.21V5.07l-2.92-2.92H276.3l-2.91,2.92v96.52c0,33.08,18.25,52,50.09,52,32.71,0,51.47-19,51.47-52V5.07L372,2.15Z" fill="#231f20"/>
    <path d="M523.66,50.49C523.66,26.55,508.49,1,465.93,1a255.32,255.32,0,0,0-33.28,2.18L430.13,6V148.57l2.91,2.91h29.75l2.92-2.91V102.18a63.13,63.13,0,0,0,7.05.13L490,149.57l2.73,1.91h32.5l2.67-4.06-24.12-56C517.16,81.55,523.66,68.13,523.66,50.49Zm-36.17,1.76c0,13.27-6.2,20-18.43,20-1.42,0-2.37,0-3.35-.06V34.05a38.89,38.89,0,0,1,4.53-.23C484.49,33.82,487.49,43.84,487.49,52.25Z" fill="#231f20"/>
    <polygon points="578.46 2.15 575.55 5.07 575.55 148.57 578.46 151.48 652.86 151.48 655.77 148.57 655.77 121.17 652.86 118.25 611.13 118.25 611.13 91.18 647.77 91.18 650.68 88.27 650.68 62.04 647.77 59.13 611.13 59.13 611.13 35.38 652.86 35.38 655.77 32.47 655.77 5.07 652.86 2.15 578.46 2.15" fill="#231f20"/>
    <polygon points="779.27 2.15 776.36 5.07 776.36 68.55 723.6 1.89 721.14 0.79 711.55 1.38 708.81 4.28 708.81 148.57 711.73 151.48 740.89 151.48 743.81 148.57 743.81 83.42 797.14 151.73 799.62 152.85 808.82 152.26 811.54 149.36 811.54 5.07 808.63 2.15 779.27 2.15" fill="#231f20"/>
    <polygon points="1053.78 2.15 1050.92 4.53 1038.54 70.29 1016.81 3.58 1014.04 1.57 1003.66 1.57 1000.89 3.6 979.72 70.29 967.37 4.53 964.51 2.15 932.4 2.15 929.57 5.75 964.61 150.24 967.39 152.46 979.14 152.66 981.93 150.74 1008.43 77.29 1036.18 150.78 1038.95 152.66 1050.89 152.46 1053.68 150.23 1088.13 5.74 1085.3 2.15 1053.78 2.15" fill="#231f20"/>
    <polygon points="1203.34 2.15 1200.43 5.07 1200.43 59.52 1169.44 59.52 1169.44 5.07 1166.53 2.15 1136.78 2.15 1133.87 5.07 1133.87 148.57 1136.78 151.48 1166.53 151.48 1169.44 148.57 1169.44 92.55 1200.43 92.55 1200.43 148.57 1203.34 151.48 1233.1 151.48 1236.01 148.57 1236.01 5.07 1233.1 2.15 1203.34 2.15" fill="#231f20"/>
    <polygon points="1359.18 2.15 1356.46 4.03 1337.65 53.6 1319.03 4.04 1316.3 2.15 1284 2.15 1281.33 6.22 1319.86 95.72 1319.86 148.57 1322.77 151.48 1352.52 151.48 1355.43 148.57 1355.43 95.92 1393.77 6.21 1391.09 2.15 1359.18 2.15" fill="#231f20"/>
    <path d="M1512.84,74c10.85-7.63,16.55-18.57,16.55-31.91,0-19-14.56-41.09-55.58-41.09-8.35,0-24.31,1-32.39,2.39L1439,6.24V147.6l2.5,2.88a265.17,265.17,0,0,0,33.69,2.18c35.91,0,57.34-16.61,57.34-44.42C1532.52,92.78,1525.58,80.79,1512.84,74Zm-39.25,15.07c1.47-.14,3.33-.22,5.11-.22,10.56,0,16.87,6,16.87,16.08,0,11-5.39,16.28-16.47,16.28a51.32,51.32,0,0,1-5.51-.22Zm4.14-26.6c-1.59,0-2.93-.06-4.14-.14V33.47a31.63,31.63,0,0,1,5.31-.43c9.62,0,14.71,5,14.71,14.31C1493.61,57.66,1488.56,62.45,1477.73,62.45Z" fill="#231f20"/>
    <path d="M1676.71,50.49C1676.71,26.55,1661.54,1,1619,1a255,255,0,0,0-33.27,2.18L1583.17,6V148.57l2.91,2.91h29.76l2.91-2.91V102.18a63.37,63.37,0,0,0,7.06.13l17.25,47.26,2.74,1.91h32.5l2.67-4.06-24.13-56C1670.2,81.55,1676.71,68.13,1676.71,50.49Zm-36.17,1.76c0,13.27-6.21,20-18.43,20-1.43,0-2.37,0-3.36-.06V34.05a39.13,39.13,0,0,1,4.53-.23C1637.54,33.82,1640.54,43.84,1640.54,52.25Z" fill="#231f20"/>
    <path d="M1781.88,0c-36,0-59.29,30.19-59.29,76.92s22.73,76.72,57.92,76.72c36,0,59.3-30.27,59.3-77.11C1839.81,30,1817.07,0,1781.88,0Zm-.78,121.78c-13.3,0-21.56-17.27-21.56-45.06,0-28,8.06-44.66,21.56-44.66s21.76,16.69,21.76,44.66C1802.86,104.51,1794.52,121.78,1781.1,121.78Z" fill="#231f20"/>
    <polygon points="2032.5 2.15 2000.98 2.15 1998.12 4.53 1985.74 70.29 1964.01 3.58 1961.24 1.57 1950.86 1.57 1948.09 3.6 1926.92 70.29 1914.56 4.53 1911.7 2.15 1879.6 2.15 1876.77 5.75 1911.81 150.24 1914.59 152.46 1926.34 152.66 1929.13 150.73 1955.62 77.29 1983.38 150.78 1986.15 152.66 1998.09 152.46 2000.87 150.23 2035.33 5.74 2032.5 2.15" fill="#231f20"/>
  </g>
</svg>
