<svg xmlns="http://www.w3.org/2000/svg">
<defs>
<font id="381b6f5ecb26bdb11dfcd84cf898dafb" horiz-adv-x='1024' >
  <font-face 
    font-family="GTSectraFine-RegularItalic"
    font-weight="450"
    font-style="italic"
    font-stretch="normal"
    units-per-em="2048"
    panose-1="2 0 5 3 7 0 0 2 0 3"
    ascent="1536"
    descent="-512"
    x-height="983"
    cap-height="1436"
    bbox="-381 -506 3291 2015"
    underline-thickness="102"
    underline-position="-102"
    unicode-range="U+000D-FB04"
  />
<missing-glyph horiz-adv-x="1361" 
d="M1120 791h10l11 14v14l-21 -8v-20zM981 1085l-16 -8v-18l16 -6l4 14zM823 1315l-16 -19v-39l24 -12l7 35zM414 1020l121 24l-9 25zM694 1065l-8 -25l100 -34l7 8zM932 735v-26l90 8l8 18h-98zM623 512h139v12l-139 8v-20zM782 639h-149v-21h149v21zM397 416l-151 102
l41 -47l102 -84zM782 575l-147 15l-12 -27l159 -8v20zM475 930l2 8l29 4l-27 12l4 15l-41 -2l7 -39l28 -31l25 -12l22 10l33 25l12 24l4 27l-45 -8l13 -21l-25 -27l-29 -2zM1182 639l-13 -6l-67 -55l80 -99v160zM725 932l-14 -23h-25l-10 15l22 16l-30 4v12l-47 9l6 -35
l16 -29l41 -18l27 -2l37 20l12 19l10 41l-61 4l14 -11zM862 688l8 62l-110 10l-6 -72h108zM852 1198l10 -12l39 22l17 -4l12 -49h26l13 12l-19 37l35 58l-31 18v10l-51 15v-41l-26 -11v-18l-19 -12zM1049 639l32 -25l17 4l41 31l26 27l23 37l-14 10h-29l-21 6l-28 14l-35 -6
q-4 -27 -7 -46q-3 -18 -5 -52zM754 438l-131 8v-104l131 -12v108zM397 678l-135 80v-15l-4 -26l2 -55v-99l131 -90l-2 123zM1022 678l-111 2l-2 -49v-13l-4 -63l39 -6l-16 -125l-99 6l-16 -12l105 -10l-5 -19h-100l-8 -10l108 -14l-12 -72l55 -2l25 162l8 73l-31 6l-2 17
l41 2l11 6l-58 33l4 10l62 -12l-62 30l11 11l43 -11l8 21zM170 831h-43l39 -28l2 -23l-41 15l37 -37l-8 -15l6 -198l22 -25v369l117 -66l14 21l-139 78v36l121 -69l88 -58l57 -28l7 20l-211 131l-27 15l-84 67l4 -159l39 -35v-11zM1237 952l-16 76l-39 102l-41 74l-47 58

<glyph glyph-name="ff" unicode="ff" horiz-adv-x="1155" 
d="M438 881l-159 -926q-34 -180 -168 -272l-248 -164h-125l35 174h235q50 64 74 186l174 1002h-164l6 30l39 33h131l15 90q34 189 170 275l243 155h320l-248 -164h-209q-55 -58 -80 -192l-28 -166h356l18 92q34 186 168 275l244 155h149l-30 -164h-256q-56 -63 -80 -192
l-29 -166h215l-12 -61h-213l-160 -926q-33 -177 -170 -272l-245 -164h-117l35 174h225q47 60 74 186l174 1002h-359z" />
    <glyph glyph-name="fi" unicode="fi" horiz-adv-x="1089" 
d="M559 1300q-55 -58 -80 -192l-28 -166h346l145 49l43 -41l-151 -862l182 125l24 -33l-276 -213l-123 68l150 852l-54 -6h-299l-159 -926q-34 -180 -168 -272l-248 -164h-125l35 174h235q50 64 74 186l174 1002h-164l6 30l39 33h131l15 90q34 189 170 275l243 155h391
l-32 -164h-496z" />
    <glyph glyph-name="fl" unicode="fl" horiz-adv-x="1091" 
d="M641 35l150 846h-353l-159 -926q-34 -180 -168 -272l-248 -164h-125l35 174h235q50 64 74 186l174 1002h-164l6 30l39 33h131l15 90q34 189 170 275l243 155h355l24 -22l-237 -1354l180 125l24 -33l-276 -213zM803 942l65 379l-77 -21h-232q-55 -58 -80 -192l-28 -166
h352z" />
    <glyph glyph-name="ffi" unicode="ffi" horiz-adv-x="1628" 
d="M1372 88l182 125l25 -33l-276 -213l-123 68l149 852l-53 -6h-295l-160 -926q-33 -177 -170 -272l-245 -164h-117l35 174h225q47 60 74 186l174 1002h-359l-159 -926q-34 -180 -168 -272l-248 -164h-125l35 174h235q50 64 74 186l174 1002h-164l6 30l39 33h131l15 90
q34 189 170 275l243 155h320l-248 -164h-209q-55 -58 -80 -192l-28 -166h356l18 92q34 186 168 275l244 155h389l-33 -164h-493q-56 -63 -80 -192l-29 -166h342l148 49l43 -41z" />
    <glyph glyph-name="ffl" unicode="ffl" horiz-adv-x="1634" 
d="M1343 942l68 379l-76 -21h-235q-56 -63 -80 -192l-29 -166h352zM-227 -307h235q50 64 74 186l174 1002h-164l6 30l39 33h131l15 90q34 189 170 275l243 155h320l-248 -164h-209q-55 -58 -80 -192l-28 -166h356l18 92q34 186 168 275l244 155h354l25 -22l-238 -1354
l183 125l22 -33l-274 -213l-125 68l149 846h-352l-160 -926q-33 -177 -170 -272l-245 -164h-117l35 174h225q47 60 74 186l174 1002h-359l-159 -926q-34 -180 -168 -272l-248 -164h-125z" />
    <glyph glyph-name="Th" unicode="Th" horiz-adv-x="1990" 
d="M1690 709q22 135 -70 135q-71 0 -193 -82l-81 -55l-123 -707h-185l240 1358l16 20l-84 -8l-381 2l-200 -1306l182 -19l-12 -49l-285 4l-276 -4l2 49l178 19l200 1306l-276 -2l-162 -303h-51l57 369l547 -4l551 4l152 30l41 -34l-113 -639l-16 -31l340 229
q123 0 168 -64.5t28 -162.5l-121 -676l183 125l22 -33l-276 -213l-123 68z" />
    <glyph glyph-name="fb" unicode="fb" horiz-adv-x="1525" 
d="M1286 541q0 243 -145 305l-201 -156l-96 -534q47 -39 109.5 -62.5t105.5 -23.5q118 54 172.5 184.5t54.5 286.5zM1233 991q254 -58 254 -365q0 -183 -99.5 -345t-275.5 -240l-168 -72q-136 10 -297 99l219 1253l-80 -21h-227q-55 -58 -80 -192l-28 -166h208l-14 -61h-207
l-159 -926q-34 -180 -168 -272l-248 -164h-125l35 174h235q50 64 74 186l174 1002h-164l6 30l39 33h131l15 90q34 189 170 275l243 155h351l24 -22l-115 -654l-18 -45z" />
    <glyph glyph-name="ffb" unicode="ffb" horiz-adv-x="2066" 
d="M1774 991q254 -58 254 -365q0 -185 -100.5 -347.5t-274.5 -237.5l-166 -72q-139 11 -299 99l219 1253l-76 -21h-231q-56 -63 -80 -192l-29 -166h209l-12 -61h-207l-160 -926q-33 -177 -170 -272l-245 -164h-117l35 174h225q47 60 74 186l174 1002h-359l-159 -926
q-34 -180 -168 -272l-248 -164h-125l35 174h235q50 64 74 186l174 1002h-164l6 30l39 33h131l15 90q34 189 170 275l243 155h320l-248 -164h-209q-55 -58 -80 -192l-28 -166h356l18 92q34 186 168 275l244 155h350l25 -22l-113 -654l-18 -45zM1829 541q0 244 -148 305
l-198 -156l-97 -534q47 -39 108.5 -62.5t109.5 -23.5q168 80 196.5 242.5t28.5 228.5z" />
    <glyph glyph-name="ffh" unicode="ffh" horiz-adv-x="2134" 
d="M1831 709q27 135 -81 135q-60 0 -179 -82l-82 -55l-125 -707h-182l233 1321l-78 -21h-237q-56 -63 -80 -192l-29 -166h209l-12 -61h-207l-160 -926q-33 -177 -170 -272l-245 -164h-117l35 174h225q47 60 74 186l174 1002h-359l-159 -926q-34 -180 -168 -272l-248 -164
h-125l35 174h235q50 64 74 186l174 1002h-164l6 30l39 33h131l15 90q34 189 170 275l243 155h320l-248 -164h-209q-55 -58 -80 -192l-28 -166h356l18 92q34 186 168 275l244 155h356l27 -22l-115 -649l-14 -31l338 229q123 0 169 -64.5t27 -162.5l-120 -676l182 125l24 -33
l-276 -213l-123 68z" />
    <glyph glyph-name="ffj" unicode="ffj" horiz-adv-x="1605" 
d="M-227 -307h235q50 64 74 186l174 1002h-164l6 30l39 33h131l15 90q34 189 170 275l243 155h320l-248 -164h-209q-55 -58 -80 -192l-28 -166h356l18 92q34 186 168 275l244 155h403l-32 -164h-508q-56 -63 -80 -192l-29 -166h350l148 49l41 -41l-174 -985
q-30 -181 -174 -276l-246 -170h-90l31 176h215q51 82 67 184l178 1008l-53 -6h-303l-160 -926q-33 -177 -170 -272l-245 -164h-117l35 174h225q47 60 74 186l174 1002h-359l-159 -926q-34 -180 -168 -272l-248 -164h-125z" />
    <glyph glyph-name="ffk" unicode="ffk" horiz-adv-x="2076" 
d="M-227 -307h235q50 64 74 186l174 1002h-164l6 30l39 33h131l15 90q34 189 170 275l243 155h320l-248 -164h-209q-55 -58 -80 -192l-28 -166h356l18 92q34 186 168 275l244 155h352l27 -22l-154 -867l21 7l395 389h176l-41 -199h-201q-35 -12 -117.5 -75.5t-95.5 -73.5
l-71 -60l131 -39l201 -432l174 119l22 -35l-274 -209l-107 51l-219 525l-94 -543h-184l231 1321l-76 -21h-233q-56 -63 -80 -192l-29 -166h209l-12 -61h-207l-160 -926q-33 -177 -170 -272l-245 -164h-117l35 174h225q47 60 74 186l174 1002h-359l-159 -926
q-34 -180 -168 -272l-248 -164h-125z" />
    <glyph glyph-name="fh" unicode="fh" horiz-adv-x="1593" 
d="M1290 709q22 135 -70 135q-48 0 -93.5 -23.5t-98.5 -58.5l-80 -55l-125 -707h-184l233 1321l-77 -21h-236q-55 -58 -80 -192l-28 -166h208l-14 -61h-207l-159 -926q-34 -180 -168 -272l-248 -164h-125l35 174h235q50 64 74 186l174 1002h-164l6 30l39 33h131l15 90
q34 189 170 275l243 155h357l24 -22l-112 -649l-17 -31l340 229q123 0 168 -64.5t29 -162.5l-119 -676l182 125l23 -33l-279 -213l-121 68z" />
    <glyph glyph-name="fj" unicode="fj" horiz-adv-x="1060" 
d="M-227 -307h235q50 64 74 186l174 1002h-164l6 30l39 33h131l15 90q34 189 170 275l243 155h391l-30 -164h-498q-55 -58 -80 -192l-28 -166h346l147 49l41 -41l-172 -985q-34 -181 -176 -276l-244 -170h-92l31 176h217q41 63 65 184l179 1008l-54 -6h-301l-159 -926
q-34 -180 -168 -272l-248 -164h-125z" />
    <glyph glyph-name="fk" unicode="fk" horiz-adv-x="1533" 
d="M-227 -307h235q50 64 74 186l174 1002h-164l6 30l39 33h131l15 90q34 189 170 275l243 155h353l24 -22l-151 -867l20 7l395 389h174l-41 -199h-200q-57 -19 -213 -149l-72 -60l131 -39l203 -432l172 119l22 -35l-272 -209l-106 51l-220 525l-96 -543h-182l231 1321
l-77 -21h-232q-55 -58 -80 -192l-28 -166h208l-14 -61h-207l-159 -926q-34 -180 -168 -272l-248 -164h-125z" />
    <glyph glyph-name="ft" unicode="ft" horiz-adv-x="1185" 
d="M-227 -307h235q50 64 74 186l174 1002h-164l6 30l39 33h131l15 90q34 189 170 275l243 155h226l-109 -164h-254q-55 -58 -80 -192l-28 -166h348l26 131l168 148h39l-51 -279h233l-12 -59h-229l-139 -797l258 129l22 -37l-350 -211l-125 64l149 850h-350l-159 -926
q-34 -180 -168 -272l-248 -164h-125z" />
    <glyph glyph-name="fu" unicode="fu" horiz-adv-x="1576" 
d="M848 242q-18 -125 70 -125q40 0 87.5 27.5t100.5 62.5l80 55l121 699h184l-152 -871l185 119l24 -33l-286 -209l-111 66l25 141l14 33l-338 -238q-115 0 -163.5 64t-31.5 164l123 690l-55 -6h-287l-159 -926q-34 -180 -168 -272l-248 -164h-125l35 174h235q50 64 74 186
l174 1002h-164l6 30l39 33h131l15 90q34 189 170 275l243 155h148l-31 -164h-254q-55 -58 -80 -192l-28 -166h333l146 49l43 -41z" />
    <glyph glyph-name="fy" unicode="fy" horiz-adv-x="1429" 
d="M-227 -307h235q50 64 74 186l174 1002h-164l6 30l39 33h131l15 90q34 189 170 275l243 155h148l-31 -164h-254q-55 -58 -80 -192l-28 -166h194l148 51l79 -28l107 -887l344 635l-147 174l170 104l73 -88l-30 -221l-351 -621l-327 -542h-238l39 190h190l250 324l-147 -29
l-117 887l-45 -10h-205l-159 -926q-34 -180 -168 -272l-248 -164h-125z" />
    <glyph glyph-name="ky" unicode="ky" horiz-adv-x="1832" 
d="M915 -291h191l252 324l-150 -29l-131 914h-55l-133 -146h-170q-30 -10 -114 -73t-99 -76l-72 -60l129 -39l205 -432l170 119l23 -35l-271 -209l-106 51l-219 525l-97 -543h-182l238 1364l-195 -51l-14 39l366 114l39 -32l-149 -859l18 7l395 389h461l33 -17l104 -876
l347 635l-150 174l170 104l74 -88l-31 -221l-346 -616l-330 -547h-235z" />
    <glyph glyph-name="tt" unicode="tt" horiz-adv-x="1224" 
d="M109 31l149 852h-160l6 28l39 35h125l23 127l170 148h41l-51 -279h387l24 131l168 148h39l-47 -279h231l-14 -59h-229l-138 -797l256 129l23 -37l-348 -211l-123 64l145 852h-385l-139 -797l225 117l23 -37l-318 -199z" />
    <glyph glyph-name="ty" unicode="ty" horiz-adv-x="1495" 
d="M580 -291h188l252 324l-148 -29l-129 883l-65 -4h-238l-139 -797l229 115l23 -39l-322 -195l-122 64l149 852h-160l6 28l39 35h125l23 127l170 148h41l-51 -279h280l143 49l68 -41l105 -872l346 635l-154 174l172 104l74 -88l-29 -221l-350 -616l-328 -549l-235 2z" />
    <glyph glyph-name="www" unicode="www" horiz-adv-x="3301" 
d="M217 18l-22 822l14 34l-199 -71l-16 39l352 149l41 -41l8 -825l-8 -45l297 471l-8 346l192 72l9 -842l-9 -47l299 473l-8 350l176 66l17 -21l8 -823l-8 -45l299 473l-11 344l193 72l8 -842l-8 -47l301 473l-10 354l174 64l18 -19l8 -827l-8 -45l299 473l-10 344l193 72
l8 -842l-8 -47l399 627l-145 180l167 104l72 -90l-35 -223l-456 -701l-170 41l-11 394l9 61l-312 -496l-166 41l-14 426l-301 -467l-170 41l-10 394l8 61l-309 -496l-170 41l-13 424l-303 -465l-170 41l-10 392l8 63l-309 -496z" />
    <glyph glyph-name=".notdef" horiz-adv-x="1361" 
d="M1120 791h10l11 14v14l-21 -8v-20zM981 1085l-16 -8v-18l16 -6l4 14zM823 1315l-16 -19v-39l24 -12l7 35zM414 1020l121 24l-9 25zM694 1065l-8 -25l100 -34l7 8zM932 735v-26l90 8l8 18h-98zM623 512h139v12l-139 8v-20zM782 639h-149v-21h149v21zM397 416l-151 102
l41 -47l102 -84zM782 575l-147 15l-12 -27l159 -8v20zM475 930l2 8l29 4l-27 12l4 15l-41 -2l7 -39l28 -31l25 -12l22 10l33 25l12 24l4 27l-45 -8l13 -21l-25 -27l-29 -2zM1182 639l-13 -6l-67 -55l80 -99v160zM725 932l-14 -23h-25l-10 15l22 16l-30 4v12l-47 9l6 -35
l16 -29l41 -18l27 -2l37 20l12 19l10 41l-61 4l14 -11zM862 688l8 62l-110 10l-6 -72h108zM852 1198l10 -12l39 22l17 -4l12 -49h26l13 12l-19 37l35 58l-31 18v10l-51 15v-41l-26 -11v-18l-19 -12zM1049 639l32 -25l17 4l41 31l26 27l23 37l-14 10h-29l-21 6l-28 14l-35 -6
q-4 -27 -7 -46q-3 -18 -5 -52zM754 438l-131 8v-104l131 -12v108zM397 678l-135 80v-15l-4 -26l2 -55v-99l131 -90l-2 123zM1022 678l-111 2l-2 -49v-13l-4 -63l39 -6l-16 -125l-99 6l-16 -12l105 -10l-5 -19h-100l-8 -10l108 -14l-12 -72l55 -2l25 162l8 73l-31 6l-2 17
l41 2l11 6l-58 33l4 10l62 -12l-62 30l11 11l43 -11l8 21zM170 831h-43l39 -28l2 -23l-41 15l37 -37l-8 -15l6 -198l22 -25v369l117 -66l14 21l-139 78v36l121 -69l88 -58l57 -28l7 20l-211 131l-27 15l-84 67l4 -159l39 -35v-11zM1237 952l-16 76l-39 102l-41 74l-47 58
l-70 43h-23l35 -39l51 -21l23 -22l6 -68l-51 27l-31 -60l25 -16v-39l31 6l-25 53l31 -10l20 -41l-10 -24l-16 -15h-48l-6 23l-24 4l2 -45h-29l29 -37l-15 -20l-43 10l-6 -56l84 13l17 35l45 -5l12 -57l-33 -27v-30l17 -13l36 25h48l12 23l-37 12l-10 18l18 86h15l28 -41z
M709 1130h16l20 46l23 16l-10 12l-6 17l2 43l-62 -21l-20 -16l-17 10l9 43l28 20l23 23l78 -4l24 27l-8 16h-100l-93 -27l-108 -53l-59 -47l-52 -70l60 25l26 -31l-34 -41l-21 -6l35 -6h10l74 49h65l37 -25l17 7l8 28l14 11l21 -9v-37zM1051 817l-9 14h-419l-136 -6l-14 -18
l-12 -90l-99 41l-22 -8l117 -56l2 -92l-10 -149v-187l36 8l4 82l84 -6l7 19l-91 12v33l99 -13l2 19l-96 14l2 45l88 -6l6 12l-92 19l6 192h151l23 21h-162l4 18h152l16 15h-168l4 45l240 8l287 -8v22zM922 -57l-50 37h-28l-17 16l15 156l-8 96l-125 2l-7 -107l-4 -114v-41
l-30 -13l-17 13l-61 -21h-66l-2 23l23 22l102 43l-12 197l-201 -12l-301 286l-8 236l-27 20l-20 74v53l31 17l-7 159l189 -127l18 97l21 73l45 72l57 72l80 59l160 60h45l-139 45l8 34h14l162 -40l-8 104l32 25h66l39 -11l59 -51l66 -16l65 -21l31 -26v-41l-41 -64l62 -57
l57 -66l37 -69l30 -84l19 -111l-6 -84l-17 -72l-24 -63l-6 -320l-43 -14l-103 143l-55 -14l-39 -287l-65 9l-15 -9l-8 -192l61 -39l33 -29l-6 -30z" />
    <glyph glyph-name=".null" horiz-adv-x="0" 
 />
    <glyph glyph-name=".null" horiz-adv-x="0" 
 />
    <glyph glyph-name="nonmarkingreturn" unicode="&#xd;" horiz-adv-x="737" 
 />
    <glyph glyph-name="space" unicode=" " horiz-adv-x="491" 
 />
    <glyph glyph-name="exclam" unicode="!" horiz-adv-x="643" 
d="M305 211l55 -10l-10 -105l-28 -94l-146 -12l-51 12l8 109l29 90zM461 858l-133 -409h-58l11 407l92 598h209z" />
    <glyph glyph-name="quotedbl" unicode="&#x22;" horiz-adv-x="815" 
d="M539 940q13 25 75 131.5t78 155.5l-110 6l10 117l37 96l139 10l68 -10l-11 -113l-30 -100l-215 -311zM207 940q150 263 155 287l-112 6l10 117l35 96l141 10l68 -10l-10 -113l-33 -100l-213 -311z" />
    <glyph glyph-name="numbersign" unicode="#" horiz-adv-x="1245" 
d="M1102 1341l-123 -413h274l-22 -76h-273l-110 -365h272l-22 -75h-275l-121 -412h-81l120 412h-327l-121 -412h-82l121 412h-275l25 75h272l111 365h-272l22 76h272l123 413h82l-123 -413h328l123 413h82zM438 487h326l110 365h-325z" />
    <glyph glyph-name="dollar" unicode="$" horiz-adv-x="1101" 
d="M438 1167q0 -119 66.5 -177t105.5 -91l84 487q-30 5 -51 5q-205 -63 -205 -224zM791 311q0 131 -77 203t-102 86l-94 -545q31 -8 72 -8q201 66 201 264zM911 177.5q-80 -100.5 -219 -146.5l-190 -66l-23 -129h-55l22 129q-225 11 -372 125l65 316h78l4 -197
q35 -39 100.5 -79t143.5 -62l100 571l-145 115q-74 57 -125 129.5t-51 181.5q0 230 295 338l170 63l24 133h55l-22 -131q199 -7 326 -94l-58 -317h-65l-29 217q-78 74 -190 102l-91 -514l158 -125q84 -66 129 -140.5t45 -196.5t-80 -222.5z" />
    <glyph glyph-name="percent" unicode="%" horiz-adv-x="1652" 
d="M983 264q0 -80 35 -137t98 -68q131 35 159 173t27 220t-35 138.5t-93 64.5q-93 -23 -142 -130.5t-49 -260.5zM1448 475q0 -374 -328 -463l-39 -12q-106 0 -175.5 70.5t-67.5 191.5q0 165 75.5 276.5t251.5 166.5l39 12q115 0 179.5 -75t64.5 -167zM676 1170q0 80 -34 137
t-93 65q-93 -23 -142 -129.5t-50 -223.5q-2 -219 132 -241q90 23 138.5 131.5t48.5 260.5zM211 979q0 342 330 442l39 13q115 0 179 -75t64 -188q0 -246 -117.5 -330.5t-209.5 -109.5l-41 -14q-104 0 -174 70.5t-70 191.5zM1462 1444h105l-1374 -1454h-107z" />
    <glyph glyph-name="ampersand" unicode="&#x26;" horiz-adv-x="1191" 
d="M481 1128q0 -131 63.5 -210.5t125.5 -83.5l-8 -50q-150 -4 -266.5 -124.5t-116.5 -272.5q0 -151 72.5 -247.5t221.5 -100.5q120 53 178 136t89 235l24 147h-119l-30 -47h-31l35 190h440l31 45h31l-37 -188h-131l-29 -168q-26 -146 -108 -236t-227.5 -131.5t-168 -49
t-35.5 -9.5q-202 0 -312 104.5t-110 259.5q0 302 353 437l94 37q-87 18 -157 95.5t-70 180.5q0 238 403 348l162 45q90 -12 248 -112l-111 -152q-95 83 -180.5 123.5t-116.5 50.5q-94 -45 -150.5 -109.5t-56.5 -142.5z" />
    <glyph glyph-name="quotesingle" unicode="'" horiz-adv-x="479" 
d="M203 938q151 264 155 287l-112 8l10 115l37 98l141 8l66 -8l-11 -115l-30 -98l-215 -313z" />
    <glyph glyph-name="parenleft" unicode="(" horiz-adv-x="708" 
d="M287 219q0 -401 164 -668l-33 -34q-214 292 -245.5 460.5t-31.5 310.5t30 292.5t100.5 294t190.5 289t302 317.5l29 -23q-506 -506 -506 -1239z" />
    <glyph glyph-name="parenright" unicode=")" horiz-adv-x="708" 
d="M379 786q0 399 -164 662l33 33q219 -304 248.5 -466.5t29.5 -303.5q0 -328 -133 -591.5t-491 -602.5l-29 22q242 242 374 545t132 702z" />
    <glyph glyph-name="asterisk" unicode="*" horiz-adv-x="708" 
d="M313 842l-131 100l232 191l-287 32l70 164l231 -143l-31 278h172l-84 -278l260 141l39 -162l-284 -32l192 -189l-147 -102l-92 256z" />
    <glyph glyph-name="plus" unicode="+" 
d="M590 0v475h-484v92h484v488h90v-488h481v-92h-481v-475h-90z" />
    <glyph glyph-name="comma" unicode="," horiz-adv-x="481" 
d="M61 -276q36 54 91 156t57 112l-105 8l9 119l37 100l143 10l65 -10l-8 -115l-33 -104l-213 -297z" />
    <glyph glyph-name="hyphen" unicode="-" horiz-adv-x="794" 
d="M119 614h624l-16 -98h-625z" />
    <glyph glyph-name="period" unicode="." horiz-adv-x="499" 
d="M283 229l57 -10l-10 -117l-31 -104l-158 -10l-59 10l10 121l33 100z" />
    <glyph glyph-name="slash" unicode="/" horiz-adv-x="983" 
d="M-180 -471h-88l1267 1941h86z" />
    <glyph glyph-name="zero" unicode="0" horiz-adv-x="1122" 
d="M850 526q0 168 -71.5 267.5t-188.5 128.5q-135 -59 -214 -187.5t-79 -297.5t69.5 -268t190.5 -128q135 61 214 189t79 296zM964.5 249.5q-96.5 -139.5 -325.5 -229.5l-135 -51q-187 0 -301.5 120t-114.5 300q0 389 420 551l137 51q187 0 301.5 -118t114.5 -301
t-96.5 -322.5z" />
    <glyph glyph-name="one" unicode="1" horiz-adv-x="917" 
d="M12 47l320 23l131 741l10 23l-41 -17l-319 -98l-13 45l527 215h59l-162 -909l312 -23l-13 -49l-403 4l-410 -4z" />
    <glyph glyph-name="two" unicode="2" horiz-adv-x="1021" 
d="M729 750q0 155 -160 163l-129 -39l-106 -237h-137l20 221l436 133q143 0 218 -60t75 -147q0 -150 -136.5 -260t-373.5 -239l-241 -133l184 26h598v-43l-66 -135h-895l-30 57l354 240q193 135 291 238.5t98 214.5z" />
    <glyph glyph-name="three" unicode="3" horiz-adv-x="919" 
d="M584 -2q0 113 -81 187.5t-263 78.5l-9 37l115 59q141 66 219 148t78 205q0 78 -45 134t-123 66l-119 -41l-104 -239h-133l18 223l418 135q215 0 255 -100t40 -159q0 -115 -106.5 -212t-276.5 -151q164 -10 247 -95.5t83 -197.5t-45 -183t-115 -124.5t-155 -92t-165 -71.5
l-215 -90h-188l33 180h448q189 125 189 303z" />
    <glyph glyph-name="four" unicode="4" horiz-adv-x="1142" 
d="M598 -6h-551l-37 59l791 914h225l-8 -47l-909 -854l53 14h450l47 268l183 117h32l-69 -385h280l-14 -86h-280l-84 -461h-191z" />
    <glyph glyph-name="five" unicode="5" horiz-adv-x="964" 
d="M618 63q0 117 -57 197t-167 80t-226 -59l-74 -52l-31 33l216 705h688l-6 -31l-64 -150h-606l-150 -471l303 177q213 0 300 -99t87 -219q0 -208 -143 -343t-352 -216l-211 -92h-195l35 182h443q210 154 210 358z" />
    <glyph glyph-name="six" unicode="6" horiz-adv-x="1093" 
d="M98 411q0 378 272 670t699 387l16 -53q-277 -65 -476.5 -276t-246.5 -418l340 207q128 -4 219 -115t91 -273q0 -163 -88 -302.5t-277 -206.5l-166 -62q-168 0 -275.5 121.5t-107.5 320.5zM561 49q113 48 174.5 165t61.5 262t-51.5 223.5t-124.5 78.5t-195 -76l-76 -45
q-35 -108 -35 -239q0 -132 62.5 -240t183.5 -129z" />
    <glyph glyph-name="seven" unicode="7" horiz-adv-x="987" 
d="M113 961h876l25 -31l-826 -1405h-174l6 43l846 1227l-30 -17h-756z" />
    <glyph glyph-name="eight" unicode="8" horiz-adv-x="1083" 
d="M194 555q112 103 295 176q-115 90 -170 162.5t-55 187.5t92.5 207t243.5 139l123 39q158 0 257 -68t99 -186q0 -215 -148.5 -298t-213.5 -113q145 -117 209.5 -188t64.5 -187q0 -150 -109.5 -252t-308.5 -170l-104 -39q-153 0 -270 88t-117 243q0 156 112 259zM768 360
q0 134 -98.5 221t-139.5 121q-104 -66 -170.5 -150.5t-66.5 -208.5t76 -211t176 -91q223 115 223 319zM874 1163q0 92 -52 156.5t-171 75.5q-100 -45 -139 -109.5t-39 -148.5q0 -138 205 -306q196 131 196 332z" />
    <glyph glyph-name="nine" unicode="9" horiz-adv-x="1075" 
d="M1006 551q0 -198 -73 -367.5t-202 -307.5t-307 -237.5t-387 -144.5l-17 49q277 66 475.5 277.5t247.5 419.5l-337 -205q-130 4 -222 114.5t-92 272.5t88 302t279 208l168 59q173 0 276 -121t103 -319zM307 520q0 -181 52.5 -259.5t123.5 -78.5q45 0 87 18.5t108 57.5
l76 45q34 105 34 241t-62.5 241.5t-182.5 125.5q-114 -45 -175 -163t-61 -228z" />
    <glyph glyph-name="colon" unicode=":" horiz-adv-x="542" 
d="M293 229l57 -10l-10 -117l-31 -104l-157 -10l-60 10l10 121l33 100zM412 993l59 -10l-10 -117l-33 -102l-156 -10l-59 10l10 119l31 100z" />
    <glyph glyph-name="semicolon" unicode=";" horiz-adv-x="544" 
d="M416 993l57 -10l-10 -117l-33 -102l-156 -10l-59 10l10 119l31 100zM53 -276q27 40 88.5 149t63.5 119l-111 8l10 119l37 100l142 10l69 -10l-10 -115l-33 -104l-211 -297z" />
    <glyph glyph-name="less" unicode="&#x3c;" 
d="M1167 1108v-107l-934 -413l934 -412v-110l-1065 483v78z" />
    <glyph glyph-name="equal" unicode="=" 
d="M1163 260h-1057v90h1057v-90zM1163 655h-1057v93h1057v-93z" />
    <glyph glyph-name="greater" unicode="&#x3e;" 
d="M1167 627v-78l-1065 -483v110l936 412l-936 413v107z" />
    <glyph glyph-name="question" unicode="?" horiz-adv-x="825" 
d="M676 1126q0 158 -62.5 207t-109.5 58l-49 -19l-86 -209h-119l14 193l289 98q153 0 243.5 -88.5t90.5 -220.5q0 -246 -303 -367l-148 -63l-94 -279h-74l41 254l150 90q104 63 160.5 152.5t56.5 193.5zM315 211l56 -10l-11 -105l-28 -94l-144 -12l-53 12l8 109l29 90z" />
    <glyph glyph-name="at" unicode="@" horiz-adv-x="1898" 
d="M1051 1001q-289 -139 -289 -467q0 -72 43 -129t121 -69l225 250l74 305zM860 176q-108 4 -190 90t-82 235t97 286t263 212l221 101l230 -129l-164 -742q70 2 147.5 43t183 167.5t105.5 366.5q0 241 -164 395.5t-366.5 154.5t-336.5 -57.5t-239.5 -163t-170 -253
t-64.5 -325.5q0 -333 209 -510.5t505 -177.5q181 0 396 111l20 -37q-173 -97 -307.5 -132.5t-183.5 -43.5q-365 0 -590 208t-225 520q0 311 192.5 542t507.5 335l197 60q370 0 578 -164t208 -428q0 -135 -51 -254t-138 -208t-201 -141.5t-237 -56.5l-118 131l69 230
q-182 -225 -301 -365z" />
    <glyph glyph-name="A" unicode="A" horiz-adv-x="1374" 
d="M367 -2l-211 4l-205 -4l2 49l160 16l759 1352l158 49l135 -1401l154 -16l-10 -49l-273 4l-270 -4l2 49l174 19l-37 428h-467l-233 -428l174 -19zM471 557h428l-51 617v75z" />
    <glyph glyph-name="B" unicode="B" horiz-adv-x="1185" 
d="M590 786q129 0 235.5 104.5t106.5 246.5q0 104 -54.5 171.5t-172.5 67.5h-134l-92 -590h111zM205 1436q152 -4 171 -4h112q92 0 154 1t150 2q174 2 271.5 -78.5t97.5 -198.5t-82 -213t-248 -142l-100 -29q203 -8 314.5 -100t111.5 -228q0 -211 -149.5 -288.5
t-225.5 -104.5l-153 -55l-367 4l-278 -4v49l172 19l202 1308l-163 15zM920 430q0 126 -74 210.5t-223 84.5h-154l-98 -645h327q222 125 222 350z" />
    <glyph glyph-name="C" unicode="C" horiz-adv-x="1253" 
d="M445.5 1107.5q-107.5 -192.5 -107.5 -457.5t117 -418.5t309 -182.5q148 59 233 127l150 273h67l-71 -345l-463 -141q-258 0 -417 169.5t-159 444.5q0 274 140.5 503.5t443.5 332.5l182 60q223 0 400 -127l-17 -332h-65l-70 241q-120 101 -356 129q-209 -84 -316.5 -276.5
z" />
    <glyph glyph-name="D" unicode="D" horiz-adv-x="1357" 
d="M1001 1228q-109 142 -278 146h-154l-200 -1288h319q186 97 304 301t118 452q0 247 -109 389zM1201.5 369q-144.5 -219 -425.5 -312l-180 -59l-328 4l-282 -4l-2 49l170 19l202 1308l-166 15l11 47l272 -4l311 4q249 4 405.5 -161t156.5 -426t-144.5 -480z" />
    <glyph glyph-name="E" unicode="E" horiz-adv-x="1183" 
d="M-16 47l172 19l202 1304l-163 19l10 47l274 -4l750 4l-29 -363h-45l-88 295l-498 4l-90 -592l269 4l129 230h41l-58 -262l-29 -263h-40l-56 230l-266 4l-102 -660l530 3l172 317h51l-76 -385l-790 4l-270 -4v49z" />
    <glyph glyph-name="F" unicode="F" horiz-adv-x="1126" 
d="M604 47l-10 -49l-340 4l-270 -4v49l172 19l202 1304l-163 19l10 47l268 -4l756 4l-29 -363h-45l-88 295l-498 4l-94 -616l268 4l129 229h41l-57 -264l-29 -260h-41l-53 229l-266 4l-100 -635z" />
    <glyph glyph-name="G" unicode="G" horiz-adv-x="1339" 
d="M236 1082.5q152 235.5 462 334.5l183 53q135 0 237.5 -45t155.5 -94l-19 -311h-65l-64 219q-51 53 -143 97t-219 48q-323 -145 -385 -369.5t-62 -364.5q0 -269 113.5 -422t304.5 -183q131 44 207 102l68 447l-158 20l10 43l256 2l225 3v-48l-122 -20l-74 -483l-506 -148
q-250 0 -403.5 169t-153.5 442t152 508.5z" />
    <glyph glyph-name="H" unicode="H" horiz-adv-x="1409" 
d="M254 2l-270 -4v49l172 19l200 1304l-163 19l12 47l264 -4l262 4v-47l-162 -19l-94 -592h567l91 592l-160 19l10 47l266 -4l260 4l-2 -47l-161 -19l-201 -1304l160 -19l-11 -49l-262 4l-270 -4l-2 49l172 19l100 645h-565l-98 -645l159 -19l-10 -49z" />
    <glyph glyph-name="I" unicode="I" horiz-adv-x="634" 
d="M731 1389l-162 -19l-200 -1304l159 -19l-10 -49l-266 4l-268 -4v49l172 19l202 1304l-163 19l8 47l266 -4l264 4z" />
    <glyph glyph-name="J" unicode="J" horiz-adv-x="624" 
d="M367 1370l-162 19l10 47l266 -4l262 4v-47l-161 -19l-183 -1173q-35 -236 -192 -365l-244 -190h-133l35 180h223q39 76 58.5 152.5t35.5 187.5z" />
    <glyph glyph-name="K" unicode="K" horiz-adv-x="1388" 
d="M569 1370l-88 -584l25 17l637 567l-156 19l6 47l232 -4l194 4v-47l-176 -19l-655 -579l117 -27l493 -696l111 -21l-11 -49l-176 4l-151 -4l-482 729l-14 31l-106 -692l151 -19l-10 -49l-258 4l-268 -4v49l174 19l198 1304l-161 19l10 47l262 -4l254 4l2 -47z" />
    <glyph glyph-name="L" unicode="L" horiz-adv-x="1107" 
d="M367 63l454 3l211 319h49l-100 -387l-729 4l-268 -4v49l170 19l202 1304l-163 19l12 47l264 -4l268 4v-47l-168 -19z" />
    <glyph glyph-name="M" unicode="M" horiz-adv-x="1769" 
d="M1468 1436l158 -4l242 4l2 -47l-164 -19l-203 -1304l158 -19l-12 -49l-250 4l-275 -4v49l172 19l183 1177l32 115l-684 -1360h-122l-263 1264l-10 94l-196 -1290l163 -19l-10 -49l-201 4l-204 -4v49l161 19l205 1296l-168 27l13 47l225 -4l198 4l238 -1162v-61z" />
    <glyph glyph-name="N" unicode="N" horiz-adv-x="1400" 
d="M1257 1370l-165 19l10 47l203 -4l208 4v-47l-172 -19l-215 -1370h-127l-555 1229l-10 82l-194 -1245l163 -19l-10 -49l-200 4l-209 -4v49l170 19l206 1296l-159 27l10 47l192 -4l168 4l504 -1084l17 -78z" />
    <glyph glyph-name="O" unicode="O" horiz-adv-x="1398" 
d="M1241 346.5q-141 -233.5 -432 -330.5l-160 -53q-245 0 -395 169t-150 445q0 277 141 514t431 328l160 51q242 0 394 -165.5t152 -444.5q0 -280 -141 -513.5zM446.5 203.5q108.5 -145.5 276.5 -162.5q197 74 310.5 292t113.5 483t-105.5 412.5t-277.5 166.5
q-191 -65 -308.5 -287t-117.5 -490.5t108.5 -414z" />
    <glyph glyph-name="P" unicode="P" horiz-adv-x="1132" 
d="M1217 1124q0 -156 -105.5 -262t-325.5 -184l-135 -49h-198l-86 -563l233 -19l-8 -49l-346 4l-262 -4v49l170 19l204 1308l-165 15l12 47l266 -4l348 4q284 0 341 -121t57 -191zM983 1094q0 272 -256 280h-158l-102 -659h270q246 131 246 379z" />
    <glyph glyph-name="Q" unicode="Q" horiz-adv-x="1398" 
d="M446.5 203.5q108.5 -145.5 276.5 -162.5q197 74 310.5 292t113.5 483t-105.5 412.5t-277.5 166.5q-191 -65 -308.5 -287t-117.5 -490.5t108.5 -414zM1241 346.5q-141 -233.5 -432 -330.5l-123 -43l78 -14l229 -127l160 -106l70 -31l-97 -39l-299 111l-211 198
q-230 12 -371 179t-141 438q0 272 141 509t431 328l160 51q242 0 394 -165.5t152 -444.5q0 -280 -141 -513.5z" />
    <glyph glyph-name="R" unicode="R" horiz-adv-x="1304" 
d="M1116 889q-103 -95 -293 -158l-129 -41l193 -80l256 -544l92 -21l-6 -47l-170 4l-133 -4l-291 668l-10 10h-164l-94 -610l186 -19l-12 -49l-295 4l-262 -4v49l170 19l204 1308l-165 15l12 47l268 -4l346 4q188 0 294 -85t106 -226t-103 -236zM983 1110q0 258 -254 266
h-160l-96 -618h258q252 123 252 352z" />
    <glyph glyph-name="S" unicode="S" horiz-adv-x="1005" 
d="M395 1167q0 -115 67.5 -176t108.5 -94l203 -160q81 -64 127.5 -139t46.5 -195q0 -191 -113.5 -269.5t-185.5 -102.5l-194 -68q-259 0 -424 127l65 316h78l4 -197q90 -97 203 -128.5t166 -33.5q201 66 201 264q0 132 -65 192t-103 91l-203 160q-74 57 -125 129.5
t-51 181.5q0 230 295 338l180 67q233 0 373 -96l-58 -317h-65l-29 217q-53 53 -132 84t-165 33q-205 -63 -205 -224z" />
    <glyph glyph-name="T" unicode="T" horiz-adv-x="1171" 
d="M623 1372l-279 -2l-160 -303h-51l57 369l549 -4l549 4l-57 -369h-51l-66 303l-280 2l-201 -1306l180 -19l-10 -49l-289 4l-270 -4v49l176 19z" />
    <glyph glyph-name="U" unicode="U" horiz-adv-x="1308" 
d="M391 465q-39 -275 91 -338.5t227 -63.5q143 57 214.5 144t102.5 274l143 889l-165 19l10 47l205 -4l219 4l2 -47l-170 -19l-142 -885q-32 -194 -115.5 -305t-271.5 -164l-163 -53q-242 0 -338.5 132.5t-59.5 375.5l137 899l-161 19l10 47l264 -4l268 4l2 -47l-163 -19z
" />
    <glyph glyph-name="V" unicode="V" horiz-adv-x="1308" 
d="M551 -31l-244 1403l-153 17l8 47l268 -4l268 4v-47l-174 -19l187 -1128l-11 -62l517 1190l-173 19l9 47l223 -4l168 4v-47l-129 -17l-615 -1358z" />
    <glyph glyph-name="W" unicode="W" horiz-adv-x="1898" 
d="M1044 901l3 55l-371 -940l-154 -47l-215 1403l-155 17l12 47l266 -4l246 4v-47l-156 -19l164 -1128l-12 -58l346 877l-45 311l-117 17l10 47l230 -4l274 4v-47l-184 -19l164 -1128l-11 -58l471 1186l-172 19l11 47l217 -4l170 4v-47l-129 -17l-564 -1356l-155 -47z" />
    <glyph glyph-name="X" unicode="X" horiz-adv-x="1353" 
d="M135 2l-178 -4v49l135 19l531 626l-342 680l-115 17l10 47l234 -4l276 4l-2 -47l-164 -19l242 -500l2 -36l450 536l-167 19l10 47l221 -4l162 4v-47l-121 -17l-510 -600l356 -706l105 -19l-10 -49l-220 4l-286 -4v49l168 19l-254 532v39l-465 -571l166 -19l-11 -49z" />
    <glyph glyph-name="Y" unicode="Y" horiz-adv-x="1259" 
d="M762 702v-40l436 708l-174 19l8 47l215 -4l150 4v-47l-109 -17l-491 -782l-80 -524l201 -19l-13 -49l-305 4l-307 -4v49l211 19l80 522l-314 784l-116 17l8 47l235 -4l281 4v-47l-170 -19z" />
    <glyph glyph-name="Z" unicode="Z" horiz-adv-x="1105" 
d="M-10 0l-8 53l921 1284l62 41l-570 -10l-178 -315h-47l63 381h924l27 -54l-916 -1282l-57 -37l606 7l213 348h47l-96 -416h-991z" />
    <glyph glyph-name="bracketleft" unicode="[" horiz-adv-x="669" 
d="M20 -471q326 1850 340 1935l166 -2l246 2l-8 -47l-277 -14q-35 -188 -56 -304t-34.5 -185.5t-32.5 -172t-26 -141.5q-6 -39 -16.5 -99.5t-45 -264.5t-108.5 -646l270 -14l-8 -47l-237 2z" />
    <glyph glyph-name="backslash" unicode="\" horiz-adv-x="849" 
d="M195 1470h79l586 -1941h-82z" />
    <glyph glyph-name="bracketright" unicode="]" horiz-adv-x="669" 
d="M598 1464q-314 -1768 -342 -1935l-180 2l-230 -2l7 47l278 14q76 428 97.5 543t34.5 188.5t24.5 132t16.5 88.5t14.5 81t32.5 189t44 263t56 328l-273 14l8 47l230 -2z" />
    <glyph glyph-name="asciicircum" unicode="^" horiz-adv-x="761" 
d="M262 942h-104l336 502h57l174 -502h-104l-113 389z" />
    <glyph glyph-name="underscore" unicode="_" horiz-adv-x="1216" 
d="M-43 -131h1139l-13 -80h-1138z" />
    <glyph glyph-name="grave" unicode="`" horiz-adv-x="993" 
d="M559 1118l-192 357h200l41 -357h-49z" />
    <glyph glyph-name="a" unicode="a" horiz-adv-x="983" 
d="M76 336q0 199 106.5 347t290.5 241l141 67q79 0 168.5 -32.5t124.5 -49.5l-145 -819l184 123l23 -33l-277 -213l-123 70l31 174l16 45l-305 -287q-235 86 -235 367zM270 444q0 -234 136 -321l210 182l91 516q-61 43 -127 54.5t-88 11.5q-100 -68 -161 -190.5t-61 -252.5z
" />
    <glyph glyph-name="b" unicode="b" horiz-adv-x="956" 
d="M494 70q225 104 225 506q0 100 -38 171.5t-97 98.5l-209 -156l-96 -534q47 -39 108.5 -62.5t106.5 -23.5zM920 626q0 -185 -100 -346.5t-277 -238.5l-164 -72q-144 11 -299 99l227 1294l-196 -53l-15 41l367 116l39 -34l-113 -644l-18 -45l305 248q170 -40 207 -159
t37 -206z" />
    <glyph glyph-name="c" unicode="c" horiz-adv-x="843" 
d="M78 367q0 183 106.5 326t311.5 233l141 65q41 -4 100.5 -26.5t102.5 -49.5l-101 -157q-86 64 -237 125q-119 -68 -172.5 -180.5t-53.5 -218.5q0 -174 64 -260.5t158 -112.5q77 31 247 139l27 -33q-51 -41 -116.5 -84t-135.5 -90l-110 -74q-137 0 -234.5 107.5
t-97.5 290.5z" />
    <glyph glyph-name="d" unicode="d" horiz-adv-x="1030" 
d="M276 394q0 -176 144 -267l211 182l90 514q-71 43 -140 54.5t-92 11.5q-100 -66 -156.5 -192.5t-56.5 -302.5zM78 348q0 186 100.5 339t286.5 237l151 67q51 -4 129 -30l72 401l-194 -53l-15 41l365 116l41 -34l-238 -1342l180 123l25 -33l-274 -213l-125 70l30 176l19 43
l-301 -287q-174 55 -213 175t-39 204z" />
    <glyph glyph-name="e" unicode="e" horiz-adv-x="872" 
d="M633 750q0 67 -33 104t-80 47q-109 -53 -171 -158.5t-73 -240.5l3 -10l329 129q25 62 25 129zM410 -31q-139 4 -235.5 111.5t-96.5 285.5t106 335t301 233l148 57q88 -16 144.5 -65t56.5 -141t-37 -177l-523 -162q-2 -6 -2 -8v-18q4 -131 71.5 -211.5t160.5 -97.5
q141 68 246 139l26 -35q-143 -107 -256 -174z" />
    <glyph glyph-name="f" unicode="f" horiz-adv-x="614" 
d="M98 911l39 33h131l15 90q34 189 170 275l243 155h148l-31 -164h-254q-55 -58 -80 -192l-28 -166h215l-15 -61h-213l-159 -926q-34 -180 -168 -272l-248 -164h-125l35 174h235q50 64 74 186l174 1002h-164z" />
    <glyph glyph-name="g" unicode="g" horiz-adv-x="974" 
d="M289 439q0 -223 141 -312l211 178l94 512q-41 29 -107.5 48.5t-121.5 21.5q-106 -72 -161.5 -197t-55.5 -251zM90 346q0 186 101.5 338t293.5 238l154 69q87 0 173.5 -32.5t121.5 -51.5l-172 -954q-12 -70 -87 -140.5t-181 -148.5l-207 -145h-258l30 174h383
q43 35 84 110.5t56 159.5l43 248l18 45l-301 -287q-175 62 -213.5 177.5t-38.5 199.5z" />
    <glyph glyph-name="h" unicode="h" horiz-adv-x="1038" 
d="M735 709q22 135 -67 135q-71 0 -195 -82l-80 -55l-125 -707h-182l240 1362l-195 -53l-16 41l368 116l39 -34l-112 -639l-17 -31l340 229q123 0 169 -64.5t28 -162.5l-119 -676l182 125l25 -33l-279 -213l-123 68z" />
    <glyph glyph-name="i" unicode="i" horiz-adv-x="571" 
d="M82 803l-12 37l354 151l43 -41l-152 -862l183 125l22 -33l-276 -213l-123 68l147 833zM369 1411l63 12l117 -12v-102l-37 -88l-59 -13l-129 13l8 104z" />
    <glyph glyph-name="j" unicode="j" horiz-adv-x="555" 
d="M383 1411l61 12l117 -12v-102l-37 -88l-57 -13l-131 13l8 104zM-233 -481l32 176h244q39 59 66 184l176 989l-187 -65l-16 37l356 151l41 -41l-172 -985q-35 -183 -174 -276l-248 -170h-118z" />
    <glyph glyph-name="k" unicode="k" horiz-adv-x="980" 
d="M584 18l-219 525l-97 -543h-182l238 1364l-195 -51l-14 39l366 114l39 -32l-149 -859l18 7l395 389h174l-38 -199h-201q-30 -10 -114 -73t-99 -76l-72 -60l129 -39l205 -432l170 119l23 -35l-271 -209z" />
    <glyph glyph-name="l" unicode="l" horiz-adv-x="550" 
d="M143 1309l-14 41l367 116l39 -34l-238 -1344l182 125l25 -33l-277 -213l-123 68l234 1327z" />
    <glyph glyph-name="m" unicode="m" horiz-adv-x="1556" 
d="M1193 842q-72 0 -177 -78l-82 -59l-127 -705h-184l125 709q10 61 -6.5 98t-55.5 37q-66 0 -176 -82l-86 -57l-125 -705h-182l151 868l-184 -65l-14 37l354 151l43 -43l-29 -157l-14 -31l324 231q117 0 160.5 -59.5t33.5 -153.5l-4 -14l317 227q121 0 165 -64.5t28 -162.5
l-119 -674l182 123l23 -33l-279 -213l-120 68l118 674q12 63 -4 98t-56 35z" />
    <glyph glyph-name="n" unicode="n" horiz-adv-x="1069" 
d="M761.5 807q-16.5 37 -77.5 37t-180 -82l-80 -55l-125 -707h-182l151 868l-184 -65l-14 37l354 151l43 -43l-27 -155l-16 -31l338 229q123 0 169 -64.5t30 -162.5l-121 -676l182 125l25 -33l-277 -213l-123 68l119 674q12 61 -4.5 98z" />
    <glyph glyph-name="o" unicode="o" horiz-adv-x="966" 
d="M338.5 158q62.5 -90 155.5 -107q120 44 177.5 190.5t57.5 273.5q0 128 -17.5 192.5t-58.5 122.5t-143 81q-121 -48 -177.5 -192.5t-56.5 -307.5t62.5 -253zM827 251q-101 -154 -280 -224l-139 -58q-138 0 -234 106.5t-96 292.5q0 187 98 338.5t285 229.5l137 55
q139 0 234.5 -104t95.5 -293t-101 -343z" />
    <glyph glyph-name="p" unicode="p" horiz-adv-x="1009" 
d="M973 631q0 -296 -137.5 -422.5t-225.5 -165.5l-161 -74q-81 13 -144 49l-6 -63l-76 -426h-184l233 1339l-184 -65l-14 37l356 151l41 -41l-27 -159l-18 -46l297 246q104 -16 177 -104t73 -256zM549 68q223 104 223 506q0 100 -41 174.5t-102 95.5l-203 -152l-94 -540
q47 -41 109.5 -62.5t107.5 -21.5z" />
    <glyph glyph-name="q" unicode="q" horiz-adv-x="952" 
d="M78 354q0 174 107.5 337.5t289.5 240.5l146 59q170 -10 301 -78l-246 -1384h-184l118 674l19 45l-297 -279q-111 35 -182.5 123t-71.5 262zM276 404q0 -92 41 -166t105 -105l209 168l92 530q-74 42 -139.5 51t-85.5 9q-106 -58 -164 -187t-58 -300z" />
    <glyph glyph-name="r" unicode="r" horiz-adv-x="784" 
d="M115 0l155 868l-188 -65l-12 37l354 151l37 -37l-49 -297l-33 -110l278 424h150l-41 -203h-148q-19 -11 -99.5 -109t-90.5 -112l-41 -51l-88 -496h-184z" />
    <glyph glyph-name="s" unicode="s" horiz-adv-x="747" 
d="M381 66q102 31 102 124t-75 164l-172 150q-91 78 -91 184q0 160 242 252l137 51q92 -14 215 -84l-96 -145q-96 69 -250 135q-90 -33 -90 -116t72 -148l168 -144q57 -53 80.5 -100t23.5 -110q0 -170 -205 -240l-204 -70q-83 29 -147 66t-81 47l101 143q180 -115 270 -159z
" />
    <glyph glyph-name="t" unicode="t" horiz-adv-x="653" 
d="M109 31l149 852h-160l6 28l39 35h125l23 127l170 148h41l-51 -279h231l-12 -59h-230l-139 -797l258 129l23 -37l-351 -211z" />
    <glyph glyph-name="u" unicode="u" horiz-adv-x="1060" 
d="M401 117q39 0 87.5 27.5t101.5 62.5l80 55l121 699h184l-152 -871l185 119l24 -33l-287 -209l-110 66l22 141l17 33l-338 -238q-114 0 -163 63t-32 165l121 673l-186 -61l-17 37l355 145l43 -41l-125 -708q-12 -68 9 -96.5t60 -28.5z" />
    <glyph glyph-name="v" unicode="v" horiz-adv-x="897" 
d="M10 803l-16 39l352 149l41 -41l4 -841l-8 -46l405 642l-149 182l174 104l74 -90l-39 -229l-455 -699l-176 41l-22 854z" />
    <glyph glyph-name="w" unicode="w" horiz-adv-x="1363" 
d="M694 14l-10 385l8 64l-305 -490l-170 41l-22 854l-185 -65l-16 39l352 149l41 -41l8 -829l-8 -47l291 467l-10 356l192 72l8 -848l-8 -47l400 633l-148 180l170 104l72 -90l-35 -223l-457 -705z" />
    <glyph glyph-name="x" unicode="x" horiz-adv-x="980" 
d="M561 25l-102 329v45l-283 -409h-182l43 192h168q18 4 82.5 79t95.5 116l49 65l-131 437l-190 -68l-15 39l330 141l49 -35l98 -333v-50l248 398h180l-40 -191h-152q-24 -8 -61 -55t-60.5 -77t-38.5 -48l-51 -63l135 -445l187 117l22 -33l-283 -207z" />
    <glyph glyph-name="y" unicode="y" horiz-adv-x="937" 
d="M461 33l-148 -29l-123 862l-182 -65l-18 35l323 157l70 -35l104 -880l344 635l-149 174l172 104l74 -88l-31 -221l-350 -621l-328 -542h-237l38 190h191z" />
    <glyph glyph-name="z" unicode="z" horiz-adv-x="843" 
d="M104 51l-84 -63l-38 26l675 768l-69 -26l-371 47l-59 -80l-35 12l115 248l542 -59l62 43l35 -25l-656 -752l64 25l411 -55l72 84l33 -13l-121 -260z" />
    <glyph glyph-name="braceleft" unicode="{" horiz-adv-x="653" 
d="M655 1464h99l-9 -47h-94q-64 0 -117 -53t-67 -166l-66 -403q-15 -90 -59 -153.5t-141 -102.5l137 -107l-121 -637q-22 -115 13.5 -167t101.5 -52h94l-8 -47h-103q-123 0 -188.5 78t-42.5 209l104 585l-114 111l2 20q98 33 132 96t48 160l68 390q36 198 153 242t178 44z
" />
    <glyph glyph-name="bar" unicode="|" horiz-adv-x="794" 
d="M547 1470h84l-346 -1972h-86z" />
    <glyph glyph-name="braceright" unicode="}" horiz-adv-x="653" 
d="M-45 -471h-98l10 47h92q149 0 184 219l80 477q10 59 57.5 129t139.5 111q-33 11 -83 64t-50 59l104 563q33 172 -24.5 195.5t-83.5 23.5h-97l9 47h100q125 0 189.5 -77.5t41.5 -208.5l-92 -523q0 -22 53.5 -72.5t59.5 -54.5l-2 -18q-122 -38 -147 -121.5t-31 -120.5
l-80 -452q-36 -199 -153.5 -243t-178.5 -44z" />
    <glyph glyph-name="asciitilde" unicode="~" horiz-adv-x="1421" 
d="M1278 651h47l-113 -180l-200 -45l-731 121l-117 -139h-47l110 180l203 47l733 -121z" />
    <glyph glyph-name="nonbreakingspace" unicode="&#xa0;" horiz-adv-x="0" 
 />
    <glyph glyph-name="exclamdown" unicode="&#xa1;" horiz-adv-x="643" 
d="M352 743l-53 11l8 104l29 94l145 11l54 -11l-11 -110l-26 -88zM197 96l135 410h55l-10 -410l-92 -598h-211z" />
    <glyph glyph-name="cent" unicode="&#xa2;" horiz-adv-x="884" 
d="M92 376q0 174 106.5 317t311.5 233l49 22l33 172h67l-24 -137l16 8q41 -4 100.5 -26.5t102.5 -49.5l-100 -157q-85 63 -238 125q-119 -68 -172 -180.5t-53 -218.5q0 -174 63 -260t158 -113q57 23 248 139l26 -33q-51 -41 -116.5 -84t-134.5 -90l-91 -59l-26 -148h-66
l19 137q-118 22 -198.5 125.5t-80.5 277.5z" />
    <glyph glyph-name="sterling" unicode="&#xa3;" horiz-adv-x="1126" 
d="M997 1221q-112 104 -247 153q-132 -67 -162 -252l-64 -362h361l-13 -66l-362 2l-72 -413q-18 -108 -59 -157.5t-55 -59.5l499 2l152 262h72l-86 -330l-691 4l-250 -4l5 47l192 57l102 592h-167l4 27l39 37h137l45 268q29 160 112 249t271 144q4 0 83.5 16.5t100.5 0.5
q73 -22 162 -78z" />
    <glyph glyph-name="currency" unicode="&#xa4;" 
d="M856 476q125 114 137 262t-75 241.5t-233 93.5t-268 -113t-134 -262t72.5 -242.5t230.5 -93.5q145 0 270 114zM705 1145q150 0 253 -90l160 135l49 -62l-155 -133q73 -108 57 -250q-12 -167 -135 -290l102 -123l-73 -62l-99 121q-143 -102 -303 -102t-260 104l-147 -127
l-52 64l150 127q-57 98 -45 231q12 178 143 305l-112 137l71 62l115 -139q131 92 281 92z" />
    <glyph glyph-name="yen" unicode="&#xa5;" horiz-adv-x="1247" 
d="M735 702v-40l428 708l-174 19l10 47l215 -4l150 4v-47l-109 -17l-485 -782l-6 -31h283l-11 -57h-280l-21 -135h275l-9 -60h-274l-37 -241l201 -19l-10 -49l-308 4l-307 -4v49l211 19l37 241h-264l10 60h262l21 135h-256l8 57h258l4 29l-305 784l-117 17l8 47l248 -4
l268 4v-47l-172 -19z" />
    <glyph glyph-name="brokenbar" unicode="&#xa6;" horiz-adv-x="794" 
d="M354 379h84l-155 -881h-84zM547 1470h84l-156 -880h-84z" />
    <glyph glyph-name="section" unicode="&#xa7;" horiz-adv-x="1091" 
d="M803 403v62l-211 188q-69 60 -117.5 113t-58.5 68q-121 -70 -121 -195q0 -82 48 -145.5t99 -112.5t78 -74.5t56.5 -53.5t54 -53.5t33.5 -33.5q139 74 139 237zM608 -207q0 99 -45.5 173.5t-140.5 162.5t-146 139t-98 119t-47 169q0 102 71.5 181.5t188.5 126.5
q-74 87 -74 201q0 115 77 213t249 145l162 45q104 -33 229 -147l-131 -115q-75 82 -151 124t-107 54l-16 -10q-140 -68 -140 -217q0 -76 35 -144.5t125 -146.5l322 -293v-84q0 -204 -114 -269.5t-167 -86.5q96 -104 96 -228t-62 -207t-204 -130l-235 -70q-95 40 -174.5 105
t-100.5 88l123 133q166 -166 307 -238l13 11q72 33 113.5 87t41.5 109z" />
    <glyph glyph-name="dieresis" unicode="&#xa8;" horiz-adv-x="1026" 
d="M696 1389l92 -13v-90l-34 -82l-60 -12l-102 12l4 96l37 76zM352 1389l92 -13v-90l-34 -82l-60 -12l-102 12l6 96l35 76z" />
    <glyph glyph-name="copyright" unicode="&#xa9;" horiz-adv-x="1714" 
d="M1229 881h-45l-66 145q-76 76 -192 76t-194.5 -93.5t-78.5 -269.5t79 -289.5t218 -113.5q89 0 162 65l80 164h47l-16 -192q-168 -69 -303 -84q-185 0 -314 109t-129 302q0 294 178.5 363.5t282.5 81.5q159 0 291 -78v-186zM141 720q0 322 200.5 508.5t551.5 235.5
q320 -4 538 -209.5t218 -534.5t-201 -514t-551 -237q-318 4 -475.5 151.5t-219 288t-61.5 311.5zM908 31q110 0 225.5 46t255 184t139.5 444q0 225 -99 382t-246 237.5t-279 80.5q-269 0 -456.5 -183.5t-187.5 -492.5q0 -180 62.5 -311t157.5 -217t206.5 -128t221.5 -42z
" />
    <glyph glyph-name="ordfeminine" unicode="&#xaa;" horiz-adv-x="858" 
d="M104 948q0 146 92.5 265.5t252.5 191.5l108 55q95 0 252 -65l-127 -652l143 93l21 -29l-223 -172l-113 53l27 143l16 39l-256 -233q-82 29 -137.5 97t-55.5 214zM268 1024q0 -180 99 -252l184 146l78 403q-33 25 -82 40t-90 15q-80 -53 -134.5 -151.5t-54.5 -200.5z" />
    <glyph glyph-name="guillemotleft" unicode="&#xab;" horiz-adv-x="964" 
d="M362 31l-290 450l452 451h64l-344 -451l186 -450h-68zM731 31l-291 450l453 451h61l-342 -451l185 -450h-66z" />
    <glyph glyph-name="logicalnot" unicode="&#xac;" 
d="M1161 369h-92v286h-963v93h1055v-379z" />
    <glyph glyph-name="softhyphen" unicode="&#xad;" horiz-adv-x="743" 
d="M88 614h604l-16 -92h-604z" />
    <glyph glyph-name="registered" unicode="&#xae;" horiz-adv-x="1202" 
d="M586 907h47q57 0 90 32t33 89t-30 87t-77 30l-63 -4v-234zM889 1036q0 -123 -211 -151l113 -33l133 -199l39 -8v-27h-164l-160 252l-4 4h-49v-223l61 -6l-2 -27h-244l-2 27l64 6v488l-64 6l2 26h306q74 0 128 -32.5t54 -102.5zM999.5 576q94.5 93 94.5 315t-137 346.5
t-301 124.5q-74 0 -152 -31t-172 -124t-94 -314t138 -346t298 -125q76 0 153.5 30.5t172 123.5zM289 1241q137 127 375 162q212 0 364 -140t152 -380q0 -319 -198.5 -403.5t-313.5 -100.5q-215 0 -365.5 142t-150.5 368q0 225 137 352z" />
    <glyph glyph-name="macron" unicode="&#xaf;" horiz-adv-x="1013" 
d="M227 1346h578l-14 -95h-580z" />
    <glyph glyph-name="degree" unicode="&#xb0;" horiz-adv-x="782" 
d="M380 1066q67 -67 158 -67t154.5 67t63.5 160q0 94 -65 161t-157 67t-156.5 -66t-64.5 -160q0 -95 67 -162zM300 1425q81 72 237 117q129 0 221 -92t92 -222t-72.5 -205t-240.5 -112q-131 0 -224.5 93.5t-93.5 221t81 199.5z" />
    <glyph glyph-name="plusminus" unicode="&#xb1;" 
d="M98 92h1076v-92h-1076v92zM580 285v473h-482v92h482v489h90v-489h483v-92h-483v-473h-90z" />
    <glyph glyph-name="twosuperior" unicode="&#xb2;" horiz-adv-x="698" 
d="M614 1434q0 59 -25.5 98t-74.5 45l-61 -18l-74 -154h-100l12 139l276 84q115 0 167 -50t52 -118q0 -116 -88 -209.5t-225 -177.5l-225 -147l102 22h383v-35l-55 -92h-555l-14 35l256 211q117 94 183 181t66 186z" />
    <glyph glyph-name="threesuperior" unicode="&#xb3;" horiz-adv-x="610" 
d="M537 1479q0 39 -24 64.5t-58 29.5l-64 -17l-69 -147h-105l14 137l281 82q102 0 145 -39t43 -92q0 -80 -71.5 -131t-169.5 -74q109 -8 158 -51t49 -101q0 -103 -84 -158.5t-211 -98.5l-166 -66h-105l25 127h278q88 61 89 150q0 49 -42 84.5t-139 38.5l-8 26l74 37
q160 72 160 199z" />
    <glyph glyph-name="acute" unicode="&#xb4;" horiz-adv-x="1019" 
d="M322 1118l180 357h203l-332 -357h-51z" />
    <glyph glyph-name="uni00B5" unicode="&#xb5;" 
d="M449 242q-18 -125 70 -125q40 0 88 27.5t102 62.5l77 55l123 699h185l-154 -873l186 121l23 -33l-287 -209l-110 66l24 143l15 31l-338 -238q-111 0 -154 66l-14 -96l63 -410h-207l252 1432h182z" />
    <glyph glyph-name="paragraph" unicode="&#xb6;" horiz-adv-x="1050" 
d="M958 1434v-62l-104 -16v-1682h-84v1684h-260v-1684h-86v1153q-133 0 -227.5 75t-94.5 206t124 211t186 115h546z" />
    <glyph glyph-name="periodcentered" unicode="&#xb7;" horiz-adv-x="882" 
d="M582 942l55 -10l-8 -113l-31 -98l-152 -10l-57 10l10 115l31 96z" />
    <glyph glyph-name="cedilla" unicode="&#xb8;" horiz-adv-x="1122" 
d="M760 -228q0 -89 -59.5 -136.5t-153.5 -84.5l-131 -47h-86l59 82h168q74 45 74 128t-58.5 99.5t-85.5 16.5l156 190l37 -18l-80 -96q68 -6 114 -43t46 -91z" />
    <glyph glyph-name="onesuperior" unicode="&#xb9;" horiz-adv-x="616" 
d="M401 821l-260 -2l4 37l183 14l121 627l10 16l-31 -14l-166 -43l-10 35l323 125h58l-146 -746l177 -14l-9 -37z" />
    <glyph glyph-name="ordmasculine" unicode="&#xba;" horiz-adv-x="845" 
d="M301 993q0 -143 51 -208.5t119 -79.5q94 37 139 154.5t45 219.5q0 164 -46.5 231.5t-125.5 80.5q-139 -52 -160.5 -198t-21.5 -200zM123 958q0 150 82 273t239 184l111 45q118 0 199.5 -83.5t81.5 -233.5q0 -149 -83 -275.5t-239 -187.5l-111 -43q-118 0 -199 85.5
t-81 235.5z" />
    <glyph glyph-name="guillemotright" unicode="&#xbb;" horiz-adv-x="1011" 
d="M432 31l342 450l-184 451h61l295 -451l-450 -450h-64zM63 31l343 450l-185 451h64l295 -451l-451 -450h-66z" />
    <glyph glyph-name="onequarter" unicode="&#xbc;" horiz-adv-x="1634" 
d="M1350 313h155l-12 -69h-156l-47 -244h-149l47 244h-316l-22 49l461 504h180l-6 -41l-570 -457l39 14h246l27 131l139 88h29zM469 696l176 -12l-8 -39l-254 2l-260 -2l4 39l182 12l121 629l10 14l-30 -14l-166 -43l-11 35l322 123h59zM344 -102h-94l1067 1556h90z" />
    <glyph glyph-name="onehalf" unicode="&#xbd;" horiz-adv-x="1644" 
d="M1526 642q0 -117 -87 -210t-227 -178l-227 -148l105 23h383v-37l-56 -92h-555l-14 35l254 215q117 92 184.5 180t67.5 186q0 59 -27 97.5t-74 44.5l-61 -19l-74 -153h-100l12 139l277 84q115 0 167 -50.5t52 -116.5zM469 696l176 -12l-8 -39l-254 2l-260 -2l4 39l182 12
l121 629l10 14l-30 -14l-166 -43l-11 35l322 123h59zM346 -102h-96l1067 1556h90z" />
    <glyph glyph-name="threequarters" unicode="&#xbe;" horiz-adv-x="1574" 
d="M514 920q0 49 -42 85.5t-136 38.5l-8 27l71 35q158 72 158 197q0 41 -22.5 66.5t-57.5 29.5l-61 -17l-72 -147h-104l14 137l278 82q102 0 146.5 -39t43.5 -86q-2 -80 -68.5 -132.5t-172.5 -78.5q111 -8 159 -52t48 -101q0 -103 -84.5 -157.5t-212.5 -98.5l-164 -68h-104
l24 131h281q86 59 86 148zM1292 313h154l-14 -69h-156l-45 -244h-150l45 244h-315l-20 49l460 504h181l-7 -41l-571 -457l39 14h246l26 131l144 88h24zM291 -102h-94l1065 1556h90z" />
    <glyph glyph-name="questiondown" unicode="&#xbf;" horiz-adv-x="825" 
d="M152 -172q0 -159 62 -207.5t110 -56.5l49 18l86 209h119l-15 -192l-289 -99q-152 0 -242.5 88.5t-90.5 221.5q0 249 303 366l147 64l94 278h74l-41 -254l-149 -90q-104 -63 -160.5 -152.5t-56.5 -193.5zM512 743l-55 11l10 104l29 94l143 13l53 -13l-8 -108l-29 -90z" />
    <glyph glyph-name="Agrave" unicode="&#xc0;" horiz-adv-x="1374" 
d="M367 -2l-211 4l-205 -4l2 49l160 16l759 1352l158 49l135 -1401l154 -16l-10 -49l-273 4l-270 -4l2 49l174 19l-37 428h-467l-233 -428l174 -19zM471 557h428l-51 617v75zM948 1561l-209 284h205l62 -284h-58z" />
    <glyph glyph-name="Aacute" unicode="&#xc1;" horiz-adv-x="1374" 
d="M367 -2l-211 4l-205 -4l2 49l160 16l759 1352l158 49l135 -1401l154 -16l-10 -49l-273 4l-270 -4l2 49l174 19l-37 428h-467l-233 -428l174 -19zM471 557h428l-51 617v75zM930 1561l114 284h216l-273 -284h-57z" />
    <glyph glyph-name="Acircumflex" unicode="&#xc2;" horiz-adv-x="1374" 
d="M367 -2l-211 4l-205 -4l2 49l160 16l759 1352l158 49l135 -1401l154 -16l-10 -49l-273 4l-270 -4l2 49l174 19l-37 428h-467l-233 -428l174 -19zM471 557h428l-51 617v75zM705 1561l270 294h110l162 -294h-65l-172 172h-4l-240 -172h-61z" />
    <glyph glyph-name="Atilde" unicode="&#xc3;" horiz-adv-x="1374" 
d="M367 -2l-211 4l-205 -4l2 49l160 16l759 1352l158 49l135 -1401l154 -16l-10 -49l-273 4l-270 -4l2 49l174 19l-37 428h-467l-233 -428l174 -19zM471 557h428l-51 617v75zM768 1790l127 43l315 -147l103 143h30l-98 -215l-125 -37l-315 147l-100 -143h-31z" />
    <glyph glyph-name="Adieresis" unicode="&#xc4;" horiz-adv-x="1374" 
d="M367 -2l-211 4l-205 -4l2 49l160 16l759 1352l158 49l135 -1401l154 -16l-10 -49l-273 4l-270 -4l2 49l174 19l-37 428h-467l-233 -428l174 -19zM471 557h428l-51 617v75zM1212 1786l97 -8l-2 -92l-33 -89l-64 -10l-102 10l4 101l37 80zM815 1786l98 -8l-2 -92l-34 -89
l-66 -10l-102 10l6 101l37 80z" />
    <glyph glyph-name="Aring" unicode="&#xc5;" horiz-adv-x="1374" 
d="M367 -2l-211 4l-205 -4l2 49l160 16l759 1352l158 49l135 -1401l154 -16l-10 -49l-273 4l-270 -4l2 49l174 19l-37 428h-467l-233 -428l174 -19zM471 557h428l-51 617v75zM848 1716.5q0 -59.5 38 -95.5t96 -36t96 36t38 95.5t-38 98t-96 38.5t-96 -38.5t-38 -98z
M1194 1721q0 -89 -49.5 -125t-161.5 -72q-146 0 -180.5 69.5t-34.5 120.5q0 89 56.5 130.5t156.5 70.5q148 0 180.5 -71t32.5 -123z" />
    <glyph glyph-name="AE" unicode="&#xc6;" horiz-adv-x="1808" 
d="M-45 47l160 16l864 1373l143 -4l731 4l-30 -363h-45l-88 295l-469 4l-99 -647l242 4l133 244h35l-59 -277l-31 -282h-35l-55 243l-240 5l-92 -599l491 3l177 327h51l-78 -395l-754 4l-266 -4v49l172 19l90 593h-325l-367 -593l172 -19l-14 -49l-215 4l-203 -4zM614 725
h299l101 641z" />
    <glyph glyph-name="Ccedilla" unicode="&#xc7;" horiz-adv-x="1253" 
d="M447.5 1107.5q-107.5 -192.5 -107.5 -457.5t117 -418.5t307 -182.5q148 57 235 127l150 273h68l-74 -345l-463 -141l-49 -57q68 -6 114 -43t46 -91q0 -89 -58 -135t-155 -86l-132 -47h-86l60 82h168q74 45 74 128t-58.5 99.5t-85.5 16.5l111 135q-238 16 -381.5 184.5
t-143.5 435.5t142 496t442 332l182 60q223 0 400 -127l-17 -332h-63l-70 241q-119 101 -358 129q-207 -84 -314.5 -276.5z" />
    <glyph glyph-name="Egrave" unicode="&#xc8;" horiz-adv-x="1183" 
d="M-16 47l172 19l202 1304l-163 19l10 47l274 -4l750 4l-29 -363h-45l-88 295l-498 4l-90 -592l269 4l129 230h41l-58 -262l-29 -263h-40l-56 230l-266 4l-102 -660l530 3l172 317h51l-76 -385l-790 4l-270 -4v49zM797 1561l-209 284h205l61 -284h-57z" />
    <glyph glyph-name="Eacute" unicode="&#xc9;" horiz-adv-x="1183" 
d="M-16 47l172 19l202 1304l-163 19l10 47l274 -4l750 4l-29 -363h-45l-88 295l-498 4l-90 -592l269 4l129 230h41l-58 -262l-29 -263h-40l-56 230l-266 4l-102 -660l530 3l172 317h51l-76 -385l-790 4l-270 -4v49zM743 1561l115 284h217l-272 -284h-60z" />
    <glyph glyph-name="Ecircumflex" unicode="&#xca;" horiz-adv-x="1183" 
d="M-16 47l172 19l202 1304l-163 19l10 47l274 -4l750 4l-29 -363h-45l-88 295l-498 4l-90 -592l269 4l129 230h41l-58 -262l-29 -263h-40l-56 230l-266 4l-102 -660l530 3l172 317h51l-76 -385l-790 4l-270 -4v49zM512 1561l272 294h111l160 -294h-64l-174 172h-4
l-238 -172h-63z" />
    <glyph glyph-name="Edieresis" unicode="&#xcb;" horiz-adv-x="1183" 
d="M-16 47l172 19l202 1304l-163 19l10 47l274 -4l750 4l-29 -363h-45l-88 295l-498 4l-90 -592l269 4l129 230h41l-58 -262l-29 -263h-40l-56 230l-266 4l-102 -660l530 3l172 317h51l-76 -385l-790 4l-270 -4v49zM1012 1786l96 -8l2 -92l-35 -89l-65 -10l-103 10l4 101
l37 80zM614 1786l99 -8v-92l-35 -89l-66 -10l-102 10l6 101l37 80z" />
    <glyph glyph-name="Igrave" unicode="&#xcc;" horiz-adv-x="634" 
d="M731 1389l-162 -19l-200 -1304l159 -19l-10 -49l-266 4l-268 -4v49l172 19l202 1304l-163 19l8 47l266 -4l264 4zM492 1561l-209 284h206l60 -284h-57z" />
    <glyph glyph-name="Iacute" unicode="&#xcd;" horiz-adv-x="634" 
d="M731 1389l-162 -19l-200 -1304l159 -19l-10 -49l-266 4l-268 -4v49l172 19l202 1304l-163 19l8 47l266 -4l264 4zM567 1845h219l-272 -284h-59z" />
    <glyph glyph-name="Icircumflex" unicode="&#xce;" horiz-adv-x="634" 
d="M731 1389l-162 -19l-200 -1304l159 -19l-10 -49l-266 4l-268 -4v49l172 19l202 1304l-163 19l8 47l266 -4l264 4zM217 1561l272 294h111l160 -294h-64l-172 172h-4l-241 -172h-62z" />
    <glyph glyph-name="Idieresis" unicode="&#xcf;" horiz-adv-x="634" 
d="M731 1389l-162 -19l-200 -1304l159 -19l-10 -49l-266 4l-268 -4v49l172 19l202 1304l-163 19l8 47l266 -4l264 4zM705 1786l92 -8l-2 -92l-35 -82l-58 -11l-104 11l6 94l37 80zM334 1786l92 -8v-92l-37 -82l-57 -11l-103 11l7 94l34 80z" />
    <glyph glyph-name="Eth" unicode="&#xd0;" horiz-adv-x="1357" 
d="M1001 1228q-109 142 -278 146h-154l-94 -596h254l-10 -61h-252l-98 -631h319q186 97 304 301t118 452q0 247 -109 389zM1201.5 369q-144.5 -219 -425.5 -312l-180 -59l-328 4l-282 -4l-2 49l170 19l100 651h-170l10 61h170l92 596l-166 15l11 47l272 -4l311 4
q249 4 405.5 -161t156.5 -426t-144.5 -480z" />
    <glyph glyph-name="Ntilde" unicode="&#xd1;" horiz-adv-x="1400" 
d="M1257 1370l-165 19l10 47l203 -4l208 4v-47l-172 -19l-215 -1370h-127l-555 1229l-10 82l-194 -1245l163 -19l-10 -49l-200 4l-209 -4v49l170 19l206 1296l-159 27l10 47l192 -4l168 4l504 -1084l17 -78zM670 1790l125 43l315 -147l104 143h31l-98 -215l-125 -37
l-317 147l-101 -143h-31z" />
    <glyph glyph-name="Ograve" unicode="&#xd2;" horiz-adv-x="1398" 
d="M1241 346.5q-141 -233.5 -432 -330.5l-160 -53q-245 0 -395 169t-150 445q0 277 141 514t431 328l160 51q242 0 394 -165.5t152 -444.5q0 -280 -141 -513.5zM446.5 203.5q108.5 -145.5 276.5 -162.5q197 74 310.5 292t113.5 483t-105.5 412.5t-277.5 166.5
q-191 -65 -308.5 -287t-117.5 -490.5t108.5 -414zM858 1561l-209 284h205l59 -284h-55z" />
    <glyph glyph-name="Oacute" unicode="&#xd3;" horiz-adv-x="1398" 
d="M1241 346.5q-141 -233.5 -432 -330.5l-160 -53q-245 0 -395 169t-150 445q0 277 141 514t431 328l160 51q242 0 394 -165.5t152 -444.5q0 -280 -141 -513.5zM446.5 203.5q108.5 -145.5 276.5 -162.5q197 74 310.5 292t113.5 483t-105.5 412.5t-277.5 166.5
q-191 -65 -308.5 -287t-117.5 -490.5t108.5 -414zM801 1561l112 284h217l-272 -284h-57z" />
    <glyph glyph-name="Ocircumflex" unicode="&#xd4;" horiz-adv-x="1398" 
d="M1241 346.5q-141 -233.5 -432 -330.5l-160 -53q-245 0 -395 169t-150 445q0 277 141 514t431 328l160 51q242 0 394 -165.5t152 -444.5q0 -280 -141 -513.5zM446.5 203.5q108.5 -145.5 276.5 -162.5q197 74 310.5 292t113.5 483t-105.5 412.5t-277.5 166.5
q-191 -65 -308.5 -287t-117.5 -490.5t108.5 -414zM608 1561l273 294h110l160 -294h-61l-177 172h-4l-239 -172h-62z" />
    <glyph glyph-name="Otilde" unicode="&#xd5;" horiz-adv-x="1398" 
d="M1241 346.5q-141 -233.5 -432 -330.5l-160 -53q-245 0 -395 169t-150 445q0 277 141 514t431 328l160 51q242 0 394 -165.5t152 -444.5q0 -280 -141 -513.5zM446.5 203.5q108.5 -145.5 276.5 -162.5q197 74 310.5 292t113.5 483t-105.5 412.5t-277.5 166.5
q-191 -65 -308.5 -287t-117.5 -490.5t108.5 -414zM672 1790l125 43l315 -147l107 143h28l-98 -215l-125 -37l-315 147l-103 -143h-31z" />
    <glyph glyph-name="Odieresis" unicode="&#xd6;" horiz-adv-x="1398" 
d="M1241 346.5q-141 -233.5 -432 -330.5l-160 -53q-245 0 -395 169t-150 445q0 277 141 514t431 328l160 51q242 0 394 -165.5t152 -444.5q0 -280 -141 -513.5zM446.5 203.5q108.5 -145.5 276.5 -162.5q197 74 310.5 292t113.5 483t-105.5 412.5t-277.5 166.5
q-191 -65 -308.5 -287t-117.5 -490.5t108.5 -414zM1108 1786l98 -8v-92l-35 -89l-63 -10l-104 10l6 101l37 80zM711 1786l98 -8v-92l-35 -89l-65 -10l-101 10l6 101l33 80z" />
    <glyph glyph-name="multiply" unicode="&#xd7;" 
d="M989 47l-354 352l-354 -354l-64 66l354 352l-356 356l66 66l354 -359l352 355l66 -64l-355 -354l355 -352z" />
    <glyph glyph-name="Oslash" unicode="&#xd8;" horiz-adv-x="1398" 
d="M338 612q0 -143 35 -254l704 809q-104 205 -313 228q-191 -65 -308.5 -287t-117.5 -496zM1147 838q0 150 -47 274l-707 -813q51 -119 137 -183.5t193 -74.5q197 74 310.5 291.5t113.5 505.5zM1382 856q0 -438 -208.5 -613t-364.5 -227l-160 -53q-246 0 -397 172
l-146 -166h-73l184 211q-113 166 -113 420t141 491t431 328l160 51q231 0 376 -147l121 137h70l-156 -178q135 -164 135 -426z" />
    <glyph glyph-name="Ugrave" unicode="&#xd9;" horiz-adv-x="1308" 
d="M391 465q-39 -275 91 -338.5t227 -63.5q143 57 214.5 144t102.5 274l143 889l-165 19l10 47l205 -4l219 4l2 -47l-170 -19l-142 -885q-32 -194 -115.5 -305t-271.5 -164l-163 -53q-242 0 -338.5 132.5t-59.5 375.5l137 899l-161 19l10 47l264 -4l268 4l2 -47l-163 -19z
M854 1561l-207 284h205l59 -284h-57z" />
    <glyph glyph-name="Uacute" unicode="&#xda;" horiz-adv-x="1308" 
d="M391 465q-39 -275 91 -338.5t227 -63.5q143 57 214.5 144t102.5 274l143 889l-165 19l10 47l205 -4l219 4l2 -47l-170 -19l-142 -885q-32 -194 -115.5 -305t-271.5 -164l-163 -53q-242 0 -338.5 132.5t-59.5 375.5l137 899l-161 19l10 47l264 -4l268 4l2 -47l-163 -19z
M807 1561l111 284h219l-273 -284h-57z" />
    <glyph glyph-name="Ucircumflex" unicode="&#xdb;" horiz-adv-x="1308" 
d="M391 465q-39 -275 91 -338.5t227 -63.5q143 57 214.5 144t102.5 274l143 889l-165 19l10 47l205 -4l219 4l2 -47l-170 -19l-142 -885q-32 -194 -115.5 -305t-271.5 -164l-163 -53q-242 0 -338.5 132.5t-59.5 375.5l137 899l-161 19l10 47l264 -4l268 4l2 -47l-163 -19z
M602 1561l275 294h110l160 -294h-64l-174 172h-4l-239 -172h-64z" />
    <glyph glyph-name="Udieresis" unicode="&#xdc;" horiz-adv-x="1308" 
d="M391 465q-39 -275 91 -338.5t227 -63.5q143 57 214.5 144t102.5 274l143 889l-165 19l10 47l205 -4l219 4l2 -47l-170 -19l-142 -885q-32 -194 -115.5 -305t-271.5 -164l-163 -53q-242 0 -338.5 132.5t-59.5 375.5l137 899l-161 19l10 47l264 -4l268 4l2 -47l-163 -19z
M1094 1786l98 -8v-92l-35 -89l-65 -10l-103 10l4 101l37 80zM696 1786l99 -8v-92l-35 -89l-66 -10l-102 10l6 101l35 80z" />
    <glyph glyph-name="Yacute" unicode="&#xdd;" horiz-adv-x="1259" 
d="M762 702v-40l436 708l-174 19l8 47l215 -4l150 4v-47l-109 -17l-491 -782l-80 -524l201 -19l-13 -49l-305 4l-307 -4v49l211 19l80 522l-314 784l-116 17l8 47l235 -4l281 4v-47l-170 -19zM807 1561l115 284h215l-271 -284h-59z" />
    <glyph glyph-name="Thorn" unicode="&#xde;" horiz-adv-x="1124" 
d="M936 795q0 129 -62.5 202.5t-191.5 77.5h-160l-102 -659h272q244 136 244 379zM1171 820q0 -149 -105 -255t-325 -184l-135 -49h-198l-41 -266l219 -19l-13 -49l-325 4l-264 -4v49l172 19l200 1304l-163 19l12 47l264 -4l262 4l2 -47l-166 -19l-35 -235l242 2
q187 4 292 -82t105 -235z" />
    <glyph glyph-name="germandbls" unicode="&#xdf;" horiz-adv-x="1067" 
d="M711 1464q309 0 309 -222q0 -104 -59.5 -174t-157.5 -128l-115 -78q-18 -22 -18 -68t18.5 -78t36.5 -50q27 -28 109 -103t129 -134.5t47 -147.5q0 -174 -215 -246l-199 -70q-95 33 -207 113l100 141q112 -87 244 -156q109 31 109 138q0 72 -37 120.5t-69 76.5t-57.5 51.5
t-89 78.5t-67.5 168q-3 52 23 107l133 119q149 130 149 252q0 111 -47 155.5t-108 44.5q-103 -60 -140.5 -123t-54.5 -145l-203 -1149q-26 -178 -151 -262l-260 -176h-101l37 174h211q50 72 72 184l172 1006h-168l8 28l39 35h133l8 49q44 229 179 310z" />
    <glyph glyph-name="agrave" unicode="&#xe0;" horiz-adv-x="983" 
d="M76 336q0 199 106.5 347t290.5 241l141 67q79 0 168.5 -32.5t124.5 -49.5l-145 -819l184 123l23 -33l-277 -213l-123 70l31 174l16 45l-305 -287q-235 86 -235 367zM270 444q0 -234 136 -321l210 182l91 516q-61 43 -127 54.5t-88 11.5q-100 -68 -161 -190.5t-61 -252.5z
M702 1118l-192 357h201l41 -357h-50z" />
    <glyph glyph-name="aacute" unicode="&#xe1;" horiz-adv-x="983" 
d="M76 336q0 199 106.5 347t290.5 241l141 67q79 0 168.5 -32.5t124.5 -49.5l-145 -819l184 123l23 -33l-277 -213l-123 70l31 174l16 45l-305 -287q-235 86 -235 367zM270 444q0 -234 136 -321l210 182l91 516q-61 43 -127 54.5t-88 11.5q-100 -68 -161 -190.5t-61 -252.5z
M586 1118l180 357h203l-332 -357h-51z" />
    <glyph glyph-name="acircumflex" unicode="&#xe2;" horiz-adv-x="983" 
d="M76 336q0 199 106.5 347t290.5 241l141 67q79 0 168.5 -32.5t124.5 -49.5l-145 -819l184 123l23 -33l-277 -213l-123 70l31 174l16 45l-305 -287q-235 86 -235 367zM270 444q0 -234 136 -321l210 182l91 516q-61 43 -127 54.5t-88 11.5q-100 -68 -161 -190.5t-61 -252.5z
M424 1118l276 365h93l145 -365h-51l-168 211h-2l-240 -211h-53z" />
    <glyph glyph-name="atilde" unicode="&#xe3;" horiz-adv-x="983" 
d="M76 336q0 199 106.5 347t290.5 241l141 67q79 0 168.5 -32.5t124.5 -49.5l-145 -819l184 123l23 -33l-277 -213l-123 70l31 174l16 45l-305 -287q-235 86 -235 367zM270 444q0 -234 136 -321l210 182l91 516q-61 43 -127 54.5t-88 11.5q-100 -68 -161 -190.5t-61 -252.5z
M473 1403l129 43l313 -148l103 144h31l-99 -217l-125 -37l-315 149l-100 -145h-31z" />
    <glyph glyph-name="adieresis" unicode="&#xe4;" horiz-adv-x="983" 
d="M76 336q0 199 106.5 347t290.5 241l141 67q79 0 168.5 -32.5t124.5 -49.5l-145 -819l184 123l23 -33l-277 -213l-123 70l31 174l16 45l-305 -287q-235 86 -235 367zM270 444q0 -234 136 -321l210 182l91 516q-61 43 -127 54.5t-88 11.5q-100 -68 -161 -190.5t-61 -252.5z
M899 1389l92 -13l-2 -90l-35 -82l-59 -12l-102 12l6 96l37 76zM553 1389l94 -13v-90l-37 -82l-59 -12l-100 12l6 96l35 76z" />
    <glyph glyph-name="aring" unicode="&#xe5;" horiz-adv-x="983" 
d="M76 336q0 199 106.5 347t290.5 241l141 67q79 0 168.5 -32.5t124.5 -49.5l-145 -819l184 123l23 -33l-277 -213l-123 70l31 174l16 45l-305 -287q-235 86 -235 367zM270 444q0 -234 136 -321l210 182l91 516q-61 43 -127 54.5t-88 11.5q-100 -68 -161 -190.5t-61 -252.5z
M616 1302.5q0 -59.5 37 -96.5t95 -37t97.5 37t39.5 96.5t-39 97.5t-97 38t-95.5 -38t-37.5 -97.5zM963 1306q0 -95 -53.5 -129.5t-157.5 -68.5q-148 0 -181.5 68.5t-33.5 120.5q0 92 57.5 133t153.5 69q150 0 182.5 -70.5t32.5 -122.5z" />
    <glyph glyph-name="ae" unicode="&#xe6;" horiz-adv-x="1353" 
d="M1114 744q0 73 -31.5 110t-78.5 47q-151 -72 -209 -291q-33 -52 -33 -116l330 122q22 55 22 128zM266 444q0 -234 140 -321l163 145q-4 10 -4 12v27q-10 133 36 262t149 228q-59 39 -134 64.5t-131 25.5q-98 -68 -158.5 -190.5t-60.5 -252.5zM70 336q0 199 107.5 347
t291.5 241l141 67q87 0 172.5 -35.5t120.5 -54.5q8 6 17.5 10t19.5 9l176 71q201 -37 201 -217q0 -84 -37 -166l-522 -159v-27q4 -136 68.5 -214.5t158.5 -96.5q148 71 248 139l24 -35q-114 -88 -251 -174l-115 -72q-109 6 -194 75t-117 185l-269 -260q-241 85 -241 367z
" />
    <glyph glyph-name="ccedilla" unicode="&#xe7;" horiz-adv-x="843" 
d="M315 -414q76 50 76 132t-59.5 97t-85.5 15l119 143q-119 17 -203 120.5t-84 279.5q0 177 106.5 320t311.5 233l141 65q41 -4 100.5 -26.5t102.5 -49.5l-101 -157q-86 64 -237 125q-119 -68 -172.5 -180.5t-53.5 -218.5q0 -174 64 -260.5t158 -112.5q77 31 247 139l27 -33
q-51 -41 -116.5 -84t-135.5 -90l-106 -74l-56 -63q68 -6 114 -43t46 -91q0 -88 -58 -135.5t-155 -85.5l-131 -47h-86l62 82h165z" />
    <glyph glyph-name="egrave" unicode="&#xe8;" horiz-adv-x="872" 
d="M604 1118l-192 357h200l41 -357h-49zM633 750q0 67 -33 104t-80 47q-109 -53 -171 -158.5t-73 -240.5l3 -10l329 129q25 62 25 129zM410 -31q-139 4 -235.5 111.5t-96.5 285.5t106 335t301 233l148 57q88 -16 144.5 -65t56.5 -141t-37 -177l-523 -162q-2 -6 -2 -8v-18
q4 -131 71.5 -211.5t160.5 -97.5q141 68 246 139l26 -35q-143 -107 -256 -174z" />
    <glyph glyph-name="eacute" unicode="&#xe9;" horiz-adv-x="872" 
d="M524 1118l181 357h202l-332 -357h-51zM633 750q0 67 -33 104t-80 47q-109 -53 -171 -158.5t-73 -240.5l3 -10l329 129q25 62 25 129zM410 -31q-139 4 -235.5 111.5t-96.5 285.5t106 335t301 233l148 57q88 -16 144.5 -65t56.5 -141t-37 -177l-523 -162q-2 -6 -2 -8v-18
q4 -131 71.5 -211.5t160.5 -97.5q141 68 246 139l26 -35q-143 -107 -256 -174z" />
    <glyph glyph-name="ecircumflex" unicode="&#xea;" horiz-adv-x="872" 
d="M358 1118l277 365h92l145 -365h-51l-168 211h-2l-241 -211h-52zM633 750q0 67 -33 104t-80 47q-109 -53 -171 -158.5t-73 -240.5l3 -10l329 129q25 62 25 129zM410 -31q-139 4 -235.5 111.5t-96.5 285.5t106 335t301 233l148 57q88 -16 144.5 -65t56.5 -141t-37 -177
l-523 -162q-2 -6 -2 -8v-18q4 -131 71.5 -211.5t160.5 -97.5q141 68 246 139l26 -35q-143 -107 -256 -174z" />
    <glyph glyph-name="edieresis" unicode="&#xeb;" horiz-adv-x="872" 
d="M815 1389l90 -13l-2 -90l-33 -82l-59 -12l-100 12l4 96l37 76zM471 1389l92 -13l-2 -90l-33 -82l-61 -12l-100 12l4 96l37 76zM633 750q0 67 -33 104t-80 47q-109 -53 -171 -158.5t-73 -240.5l3 -10l329 129q25 62 25 129zM410 -31q-139 4 -235.5 111.5t-96.5 285.5
t106 335t301 233l148 57q88 -16 144.5 -65t56.5 -141t-37 -177l-523 -162q-2 -6 -2 -8v-18q4 -131 71.5 -211.5t160.5 -97.5q141 68 246 139l26 -35q-143 -107 -256 -174z" />
    <glyph glyph-name="igrave" unicode="&#xec;" horiz-adv-x="571" 
d="M82 803l-12 37l354 151l43 -41l-152 -862l183 125l22 -33l-276 -213l-123 68l147 833zM430 1118l-194 357h200l41 -357h-47z" />
    <glyph glyph-name="iacute" unicode="&#xed;" horiz-adv-x="571" 
d="M82 803l-12 37l354 151l43 -41l-152 -862l183 125l22 -33l-276 -213l-123 68l147 833zM317 1118l183 357h205l-334 -357h-54z" />
    <glyph glyph-name="icircumflex" unicode="&#xee;" horiz-adv-x="571" 
d="M82 803l-12 37l354 151l43 -41l-152 -862l183 125l22 -33l-276 -213l-123 68l147 833zM139 1118l277 365h94l143 -365h-51l-168 211h-2l-242 -211h-51z" />
    <glyph glyph-name="idieresis" unicode="&#xef;" horiz-adv-x="571" 
d="M82 803l-12 37l354 151l43 -41l-152 -862l183 125l22 -33l-276 -213l-123 68l147 833zM602 1389l92 -13l-2 -90l-33 -82l-61 -12l-100 12l4 96l37 76zM258 1389l92 -13l-2 -90l-33 -82l-59 -12l-102 12l6 96l33 76z" />
    <glyph glyph-name="eth" unicode="&#xf0;" horiz-adv-x="1005" 
d="M285 414q0 -232 82 -293.5t120 -73.5q275 100 275 604l-10 150q-57 33 -121 51t-101 20q-118 -34 -181.5 -161.5t-63.5 -296.5zM696 1296q271 -231 271 -659q0 -102 -31 -207.5t-107.5 -219t-273.5 -194.5l-127 -47q-158 15 -254 140t-96 302q0 178 100 326.5t285 214.5
l121 43q10 -3 67.5 -37t82 -51.5t30.5 -19.5q-2 86 -44 184t-114 176l-250 -121v60l207 100q-96 92 -217 129l21 55q172 -53 282 -137l240 115v-59z" />
    <glyph glyph-name="ntilde" unicode="&#xf1;" horiz-adv-x="1069" 
d="M761.5 807q-16.5 37 -77.5 37t-180 -82l-80 -55l-125 -707h-182l151 868l-184 -65l-14 37l354 151l43 -43l-27 -155l-16 -31l338 229q123 0 169 -64.5t30 -162.5l-121 -676l182 125l25 -33l-277 -213l-123 68l119 674q12 61 -4.5 98zM475 1403l127 43l313 -148l105 144
h31l-99 -217l-125 -37l-317 149l-100 -145h-29z" />
    <glyph glyph-name="ograve" unicode="&#xf2;" horiz-adv-x="966" 
d="M338.5 158q62.5 -90 155.5 -107q120 44 177.5 190.5t57.5 273.5q0 128 -17.5 192.5t-58.5 122.5t-143 81q-121 -48 -177.5 -192.5t-56.5 -307.5t62.5 -253zM827 251q-101 -154 -280 -224l-139 -58q-138 0 -234 106.5t-96 292.5q0 187 98 338.5t285 229.5l137 55
q139 0 234.5 -104t95.5 -293t-101 -343zM621 1118l-193 357h199l43 -357h-49z" />
    <glyph glyph-name="oacute" unicode="&#xf3;" horiz-adv-x="966" 
d="M338.5 158q62.5 -90 155.5 -107q120 44 177.5 190.5t57.5 273.5q0 128 -17.5 192.5t-58.5 122.5t-143 81q-121 -48 -177.5 -192.5t-56.5 -307.5t62.5 -253zM827 251q-101 -154 -280 -224l-139 -58q-138 0 -234 106.5t-96 292.5q0 187 98 338.5t285 229.5l137 55
q139 0 234.5 -104t95.5 -293t-101 -343zM555 1118l182 357h205l-334 -357h-53z" />
    <glyph glyph-name="ocircumflex" unicode="&#xf4;" horiz-adv-x="966" 
d="M338.5 158q62.5 -90 155.5 -107q120 44 177.5 190.5t57.5 273.5q0 128 -17.5 192.5t-58.5 122.5t-143 81q-121 -48 -177.5 -192.5t-56.5 -307.5t62.5 -253zM827 251q-101 -154 -280 -224l-139 -58q-138 0 -234 106.5t-96 292.5q0 187 98 338.5t285 229.5l137 55
q139 0 234.5 -104t95.5 -293t-101 -343zM375 1118l276 365h92l146 -365h-51l-168 211h-2l-242 -211h-51z" />
    <glyph glyph-name="otilde" unicode="&#xf5;" horiz-adv-x="966" 
d="M338.5 158q62.5 -90 155.5 -107q120 44 177.5 190.5t57.5 273.5q0 128 -17.5 192.5t-58.5 122.5t-143 81q-121 -48 -177.5 -192.5t-56.5 -307.5t62.5 -253zM827 251q-101 -154 -280 -224l-139 -58q-138 0 -234 106.5t-96 292.5q0 187 98 338.5t285 229.5l137 55
q139 0 234.5 -104t95.5 -293t-101 -343zM449 1403l124 43l314 -148l106 144h31l-98 -217l-125 -37l-318 149l-100 -145h-31z" />
    <glyph glyph-name="odieresis" unicode="&#xf6;" horiz-adv-x="966" 
d="M338.5 158q62.5 -90 155.5 -107q120 44 177.5 190.5t57.5 273.5q0 128 -17.5 192.5t-58.5 122.5t-143 81q-121 -48 -177.5 -192.5t-56.5 -307.5t62.5 -253zM827 251q-101 -154 -280 -224l-139 -58q-138 0 -234 106.5t-96 292.5q0 187 98 338.5t285 229.5l137 55
q139 0 234.5 -104t95.5 -293t-101 -343zM868 1389l93 -13l-3 -90l-34 -82l-60 -12l-102 12l6 96l35 76zM524 1389l92 -13l-2 -90l-34 -82l-58 -12l-102 12l4 96l37 76z" />
    <glyph glyph-name="divide" unicode="&#xf7;" 
d="M682 983l55 -10l13 -107l-15 -92l-141 -10l-55 10l-11 109l11 90zM96 551h1075v-90h-1075v90zM682 231l55 -8l13 -106l-15 -94l-141 -11l-55 11l-11 108l11 92z" />
    <glyph glyph-name="oslash" unicode="&#xf8;" horiz-adv-x="966" 
d="M276 412q0 -73 11 -121l415 444q-51 144 -192 176q-121 -48 -177.5 -192.5t-56.5 -306.5zM729 553q0 74 -12 129l-416 -446q53 -157 193 -185q120 44 177.5 190.5t57.5 311.5zM928 623q0 -218 -101 -372t-280 -224l-139 -58q-151 0 -246 119l-96 -102h-66l135 143
q-57 98 -57 262t98 315.5t285 229.5l137 55q142 0 240 -110l100 106h63l-135 -145q62 -100 62 -219z" />
    <glyph glyph-name="ugrave" unicode="&#xf9;" horiz-adv-x="1060" 
d="M401 117q39 0 87.5 27.5t101.5 62.5l80 55l121 699h184l-152 -871l185 119l24 -33l-287 -209l-110 66l22 141l17 33l-338 -238q-114 0 -163 63t-32 165l121 673l-186 -61l-17 37l355 145l43 -41l-125 -708q-12 -68 9 -96.5t60 -28.5zM655 1118l-194 357h201l43 -357h-50z
" />
    <glyph glyph-name="uacute" unicode="&#xfa;" horiz-adv-x="1060" 
d="M401 117q39 0 87.5 27.5t101.5 62.5l80 55l121 699h184l-152 -871l185 119l24 -33l-287 -209l-110 66l22 141l17 33l-338 -238q-114 0 -163 63t-32 165l121 673l-186 -61l-17 37l355 145l43 -41l-125 -708q-12 -68 9 -96.5t60 -28.5zM553 1118l180 357h205l-332 -357h-53
z" />
    <glyph glyph-name="ucircumflex" unicode="&#xfb;" horiz-adv-x="1060" 
d="M401 117q39 0 87.5 27.5t101.5 62.5l80 55l121 699h184l-152 -871l185 119l24 -33l-287 -209l-110 66l22 141l17 33l-338 -238q-114 0 -163 63t-32 165l121 673l-186 -61l-17 37l355 145l43 -41l-125 -708q-12 -68 9 -96.5t60 -28.5zM403 1118l277 365h94l144 -365h-52
l-168 211h-2l-241 -211h-52z" />
    <glyph glyph-name="udieresis" unicode="&#xfc;" horiz-adv-x="1060" 
d="M401 117q39 0 87.5 27.5t101.5 62.5l80 55l121 699h184l-152 -871l185 119l24 -33l-287 -209l-110 66l22 141l17 33l-338 -238q-114 0 -163 63t-32 165l121 673l-186 -61l-17 37l355 145l43 -41l-125 -708q-12 -68 9 -96.5t60 -28.5zM881 1391l90 -13l2 -92l-35 -82
l-59 -10l-103 10l4 96l37 78zM537 1391l92 -13l-2 -92l-33 -82l-59 -10l-103 10l4 96l35 78z" />
    <glyph glyph-name="yacute" unicode="&#xfd;" horiz-adv-x="937" 
d="M461 33l-148 -29l-123 862l-182 -65l-18 35l323 157l70 -35l104 -880l344 635l-149 174l172 104l74 -88l-31 -221l-350 -621l-328 -542h-237l38 190h191zM504 1118l180 357h205l-332 -357h-53z" />
    <glyph glyph-name="thorn" unicode="&#xfe;" horiz-adv-x="1011" 
d="M774 528q0 146 -45 219.5t-111 96.5l-192 -152l-94 -540q49 -39 110.5 -61.5t106.5 -24.5q116 54 170.5 185t54.5 277zM973 626q0 -185 -96 -346.5t-269 -236.5l-159 -74q-68 8 -144 47l-6 -61l-78 -426h-182l321 1833l-196 -53l-12 41l364 116l41 -34l-113 -641l-18 -46
l287 246q181 -33 220.5 -155.5t39.5 -209.5z" />
    <glyph glyph-name="ydieresis" unicode="&#xff;" horiz-adv-x="937" 
d="M461 33l-148 -29l-123 862l-182 -65l-18 35l323 157l70 -35l104 -880l344 635l-149 174l172 104l74 -88l-31 -221l-350 -621l-328 -542h-237l38 190h191zM836 1389l92 -13l-2 -90l-35 -82l-60 -12l-102 12l6 96l37 76zM492 1389l92 -13v-90l-35 -82l-60 -12l-102 12l6 96
l35 76z" />
    <glyph glyph-name="Amacron" unicode="&#x100;" horiz-adv-x="1374" 
d="M367 -2l-211 4l-205 -4l2 49l160 16l759 1352l158 49l135 -1401l154 -16l-10 -49l-273 4l-270 -4l2 49l174 19l-37 428h-467l-233 -428l174 -19zM471 557h428l-51 617v75zM715 1739h579l-14 -94h-580z" />
    <glyph glyph-name="amacron" unicode="&#x101;" horiz-adv-x="983" 
d="M76 336q0 199 106.5 347t290.5 241l141 67q79 0 168.5 -32.5t124.5 -49.5l-145 -819l184 123l23 -33l-277 -213l-123 70l31 174l16 45l-305 -287q-235 86 -235 367zM270 444q0 -234 136 -321l210 182l91 516q-61 43 -127 54.5t-88 11.5q-100 -68 -161 -190.5t-61 -252.5z
M451 1346h579l-16 -95h-580z" />
    <glyph glyph-name="Abreve" unicode="&#x102;" horiz-adv-x="1374" 
d="M367 -2l-211 4l-205 -4l2 49l160 16l759 1352l158 49l135 -1401l154 -16l-10 -49l-273 4l-270 -4l2 49l174 19l-37 428h-467l-233 -428l174 -19zM471 557h428l-51 617v75zM974 1679q146 0 271 146l29 -29q-76 -122 -153 -170.5t-144 -77.5q-158 0 -209 102.5t-63 143.5
l38 27q85 -142 231 -142z" />
    <glyph glyph-name="abreve" unicode="&#x103;" horiz-adv-x="983" 
d="M76 336q0 199 106.5 347t290.5 241l141 67q79 0 168.5 -32.5t124.5 -49.5l-145 -819l184 123l23 -33l-277 -213l-123 70l31 174l16 45l-305 -287q-235 86 -235 367zM270 444q0 -234 136 -321l210 182l91 516q-61 43 -127 54.5t-88 11.5q-100 -68 -161 -190.5t-61 -252.5z
M734 1262q151 0 253 172l35 -29q-90 -174 -297 -272q-109 0 -175 81.5t-91 188.5l43 27q81 -168 232 -168z" />
    <glyph glyph-name="Aogonek" unicode="&#x104;" horiz-adv-x="1374" 
d="M477 557h426l-45 617v75zM997 -496q-199 0 -272.5 51.5t-54.5 155.5l18 103l258 221l-37 459h-467l-237 -428l172 -19l-10 -49l-209 4l-207 -4l2 49l160 16l770 1352l151 49l127 -1401l152 -16l-8 -49l-338 4l-146 -240l-14 -77q-12 -72 39 -106t160 -34z" />
    <glyph glyph-name="aogonek" unicode="&#x105;" horiz-adv-x="983" 
d="M270 444q0 -233 136 -321l210 182l91 516q-61 43 -127 54.5t-88 11.5q-100 -68 -161 -190.5t-61 -252.5zM76 336q0 199 106.5 347t290.5 241l141 67q79 0 168.5 -32.5t124.5 -49.5l-145 -819l184 123l23 -33l-193 -149l-178 -248l-18 -98q-14 -72 38 -106t160 -34l-6 -41
q-284 0 -311 78t-17 129l19 103l209 163l-103 60l31 174l16 45l-305 -287q-235 86 -235 367z" />
    <glyph glyph-name="Cacute" unicode="&#x106;" horiz-adv-x="1253" 
d="M445.5 1107.5q-107.5 -192.5 -107.5 -457.5t117 -418.5t309 -182.5q148 59 233 127l150 273h67l-71 -345l-463 -141q-258 0 -417 169.5t-159 444.5q0 274 140.5 503.5t443.5 332.5l182 60q223 0 400 -127l-17 -332h-65l-70 241q-120 101 -356 129q-209 -84 -316.5 -276.5
zM971 1845h207l-263 -284h-57z" />
    <glyph glyph-name="cacute" unicode="&#x107;" horiz-adv-x="843" 
d="M78 367q0 183 106.5 326t311.5 233l141 65q41 -4 100.5 -26.5t102.5 -49.5l-101 -157q-86 64 -237 125q-119 -68 -172.5 -180.5t-53.5 -218.5q0 -174 64 -260.5t158 -112.5q77 31 247 139l27 -33q-51 -41 -116.5 -84t-135.5 -90l-110 -74q-137 0 -234.5 107.5
t-97.5 290.5zM532 1118l181 357h202l-331 -357h-52z" />
    <glyph glyph-name="Ccircumflex" unicode="&#x108;" horiz-adv-x="1253" 
d="M445.5 1107.5q-107.5 -192.5 -107.5 -457.5t117 -418.5t309 -182.5q148 59 233 127l150 273h67l-71 -345l-463 -141q-258 0 -417 169.5t-159 444.5q0 274 140.5 503.5t443.5 332.5l182 60q223 0 400 -127l-17 -332h-65l-70 241q-120 101 -356 129q-209 -84 -316.5 -276.5
zM645 1561l270 294h113l160 -294h-64l-174 172h-4l-239 -172h-62z" />
    <glyph glyph-name="ccircumflex" unicode="&#x109;" horiz-adv-x="843" 
d="M78 367q0 183 106.5 326t311.5 233l141 65q41 -4 100.5 -26.5t102.5 -49.5l-101 -157q-86 64 -237 125q-119 -68 -172.5 -180.5t-53.5 -218.5q0 -174 64 -260.5t158 -112.5q77 31 247 139l27 -33q-51 -41 -116.5 -84t-135.5 -90l-110 -74q-137 0 -234.5 107.5
t-97.5 290.5zM369 1118l276 365h92l146 -365h-52l-165 211h-4l-240 -211h-53z" />
    <glyph glyph-name="Cdotaccent" unicode="&#x10a;" horiz-adv-x="1253" 
d="M445.5 1107.5q-107.5 -192.5 -107.5 -457.5t117 -418.5t309 -182.5q148 59 233 127l150 273h67l-71 -345l-463 -141q-258 0 -417 169.5t-159 444.5q0 274 140.5 503.5t443.5 332.5l182 60q223 0 400 -127l-17 -332h-65l-70 241q-120 101 -356 129q-209 -84 -316.5 -276.5
zM870 1790l68 8l109 -10v-100l-37 -91l-66 -8l-119 8l6 105z" />
    <glyph glyph-name="cdotaccent" unicode="&#x10b;" horiz-adv-x="843" 
d="M78 367q0 183 106.5 326t311.5 233l141 65q41 -4 100.5 -26.5t102.5 -49.5l-101 -157q-86 64 -237 125q-119 -68 -172.5 -180.5t-53.5 -218.5q0 -174 64 -260.5t158 -112.5q77 31 247 139l27 -33q-51 -41 -116.5 -84t-135.5 -90l-110 -74q-137 0 -234.5 107.5
t-97.5 290.5zM604 1421l70 11l108 -11l-2 -100l-35 -90l-65 -12l-121 12l10 102z" />
    <glyph glyph-name="Ccaron" unicode="&#x10c;" horiz-adv-x="1253" 
d="M445.5 1107.5q-107.5 -192.5 -107.5 -457.5t117 -418.5t309 -182.5q148 59 233 127l150 273h67l-71 -345l-463 -141q-258 0 -417 169.5t-159 444.5q0 274 140.5 503.5t443.5 332.5l182 60q223 0 400 -127l-17 -332h-65l-70 241q-120 101 -356 129q-209 -84 -316.5 -276.5
zM1219 1855l-273 -294h-112l-158 294h61l174 -169h7l237 169h64z" />
    <glyph glyph-name="ccaron" unicode="&#x10d;" horiz-adv-x="843" 
d="M78 367q0 183 106.5 326t311.5 233l141 65q41 -4 100.5 -26.5t102.5 -49.5l-101 -157q-86 64 -237 125q-119 -68 -172.5 -180.5t-53.5 -218.5q0 -174 64 -260.5t158 -112.5q77 31 247 139l27 -33q-51 -41 -116.5 -84t-135.5 -90l-110 -74q-137 0 -234.5 107.5
t-97.5 290.5zM936 1493l-277 -365h-92l-147 365h51l170 -211h2l244 211h49z" />
    <glyph glyph-name="Dcaron" unicode="&#x10e;" horiz-adv-x="1357" 
d="M1001 1228q-109 142 -278 146h-154l-200 -1288h319q186 97 304 301t118 452q0 247 -109 389zM1201.5 369q-144.5 -219 -425.5 -312l-180 -59l-328 4l-282 -4l-2 49l170 19l202 1308l-166 15l11 47l272 -4l311 4q249 4 405.5 -161t156.5 -426t-144.5 -480zM1098 1855
l-273 -294h-110l-160 294h63l173 -169h4l239 169h64z" />
    <glyph glyph-name="dcaron" unicode="&#x10f;" horiz-adv-x="1239" 
d="M276 394q0 -176 144 -267l211 182l90 514q-71 43 -140 54.5t-92 11.5q-100 -66 -156.5 -192.5t-56.5 -302.5zM78 348q0 186 100.5 339t286.5 237l151 67q51 -4 129 -30l72 401l-194 -53l-15 41l365 116l41 -34l-238 -1342l180 123l25 -33l-274 -213l-125 70l30 176l19 43
l-301 -287q-174 55 -213 175t-39 204zM1108 1378l14 80h219l-28 -158l-221 -274l-45 14l131 258z" />
    <glyph glyph-name="Dcroat" unicode="&#x110;" horiz-adv-x="1357" 
d="M1001 1228q-109 142 -278 146h-154l-94 -596h254l-10 -61h-252l-98 -631h319q186 97 304 301t118 452q0 247 -109 389zM1201.5 369q-144.5 -219 -425.5 -312l-180 -59l-328 4l-282 -4l-2 49l170 19l100 651h-170l10 61h170l92 596l-166 15l11 47l272 -4l311 4
q249 4 405.5 -161t156.5 -426t-144.5 -480z" />
    <glyph glyph-name="dcroat" unicode="&#x111;" horiz-adv-x="1030" 
d="M276 394q0 -176 144 -267l211 182l90 514q-71 43 -140 54.5t-92 11.5q-100 -66 -156.5 -192.5t-56.5 -302.5zM78 348q0 186 100.5 339t286.5 237l151 67q51 -4 129 -30l33 184h-258l12 51h254l31 166l-194 -53l-15 41l365 116l41 -34l-43 -236h162l-13 -51h-157
l-187 -1055l180 123l25 -33l-274 -213l-125 70l30 176l19 43l-301 -287q-174 55 -213 175t-39 204z" />
    <glyph glyph-name="Emacron" unicode="&#x112;" horiz-adv-x="1183" 
d="M-16 47l172 19l202 1304l-163 19l10 47l274 -4l750 4l-29 -363h-45l-88 295l-498 4l-90 -592l269 4l129 230h41l-58 -262l-29 -263h-40l-56 230l-266 4l-102 -660l530 3l172 317h51l-76 -385l-790 4l-270 -4v49zM516 1739h580l-17 -94h-579z" />
    <glyph glyph-name="emacron" unicode="&#x113;" horiz-adv-x="872" 
d="M367 1346h579l-16 -95h-580zM633 750q0 67 -33 104t-80 47q-109 -53 -171 -158.5t-73 -240.5l3 -10l329 129q25 62 25 129zM410 -31q-139 4 -235.5 111.5t-96.5 285.5t106 335t301 233l148 57q88 -16 144.5 -65t56.5 -141t-37 -177l-523 -162q-2 -6 -2 -8v-18
q4 -131 71.5 -211.5t160.5 -97.5q141 68 246 139l26 -35q-143 -107 -256 -174z" />
    <glyph glyph-name="Ebreve" unicode="&#x114;" horiz-adv-x="1183" 
d="M-16 47l172 19l202 1304l-163 19l10 47l274 -4l750 4l-29 -363h-45l-88 295l-498 4l-90 -592l269 4l129 230h41l-58 -262l-29 -263h-40l-56 230l-266 4l-102 -660l530 3l172 317h51l-76 -385l-790 4l-270 -4v49zM794 1679q146 0 271 146l29 -29q-76 -122 -153 -170.5
t-144 -77.5q-112 0 -173.5 68.5t-101.5 177.5l41 27q85 -142 231 -142z" />
    <glyph glyph-name="ebreve" unicode="&#x115;" horiz-adv-x="872" 
d="M627 1262q123 0 181 72.5t77 99.5l33 -29q-89 -174 -295 -272q-156 0 -207 113.5t-62 156.5l43 27q81 -168 230 -168zM633 750q0 67 -33 104t-80 47q-109 -53 -171 -158.5t-73 -240.5l3 -10l329 129q25 62 25 129zM410 -31q-139 4 -235.5 111.5t-96.5 285.5t106 335
t301 233l148 57q88 -16 144.5 -65t56.5 -141t-37 -177l-523 -162q-2 -6 -2 -8v-18q4 -131 71.5 -211.5t160.5 -97.5q141 68 246 139l26 -35q-143 -107 -256 -174z" />
    <glyph glyph-name="Edotaccent" unicode="&#x116;" horiz-adv-x="1183" 
d="M-16 47l172 19l202 1304l-163 19l10 47l274 -4l750 4l-29 -363h-45l-88 295l-498 4l-90 -592l269 4l129 230h41l-58 -262l-29 -263h-40l-56 230l-266 4l-102 -660l530 3l172 317h51l-76 -385l-790 4l-270 -4v49zM731 1786l72 10l108 -12l-2 -101l-35 -88l-63 -10l-123 10
l8 103z" />
    <glyph glyph-name="edotaccent" unicode="&#x117;" horiz-adv-x="872" 
d="M561 1421l70 11l106 -11v-100l-35 -90l-65 -12l-121 12l8 102zM633 750q0 67 -33 104t-80 47q-109 -53 -171 -158.5t-73 -240.5l3 -10l329 129q25 62 25 129zM410 -31q-139 4 -235.5 111.5t-96.5 285.5t106 335t301 233l148 57q88 -16 144.5 -65t56.5 -141t-37 -177
l-523 -162q-2 -6 -2 -8v-18q4 -131 71.5 -211.5t160.5 -97.5q141 68 246 139l26 -35q-143 -107 -256 -174z" />
    <glyph glyph-name="Eogonek" unicode="&#x118;" horiz-adv-x="1183" 
d="M958 -496q-199 0 -272.5 51.5t-54.5 155.5l18 103l223 186l-620 2l-268 -4v49l172 19l202 1304l-163 19l10 47l270 -4l754 4l-29 -363h-45l-88 295l-498 4l-90 -592l269 4l129 230h41l-58 -262l-29 -263h-40l-56 230l-266 4l-102 -660l530 3l172 317h51l-76 -385h-110
l-152 -236l-16 -77q-10 -72 41 -106t160 -34z" />
    <glyph glyph-name="eogonek" unicode="&#x119;" horiz-adv-x="872" 
d="M633 750q0 67 -33 104t-80 47q-109 -53 -171 -156.5t-73 -236.5q0 -10 3 -14l329 127q25 62 25 129zM383 -29q-130 16 -217.5 118.5t-87.5 278.5t106 333t301 233l148 57q88 -16 144.5 -65t56.5 -141t-37 -177l-521 -159q-2 -8 -2 -9v-20q5 -202 97 -251.5t133 -57.5
q141 68 246 139l26 -35q-111 -87 -256 -174l-20 -14l-166 -265l-12 -77q-14 -72 39 -106t161 -34l-10 -41q-199 0 -271.5 51.5t-54.5 155.5l17 103z" />
    <glyph glyph-name="Ecaron" unicode="&#x11a;" horiz-adv-x="1183" 
d="M-16 47l172 19l202 1304l-163 19l10 47l274 -4l750 4l-29 -363h-45l-88 295l-498 4l-90 -592l269 4l129 230h41l-58 -262l-29 -263h-40l-56 230l-266 4l-102 -660l530 3l172 317h51l-76 -385l-790 4l-270 -4v49zM1096 1855l-273 -294h-110l-160 294h61l177 -169h2
l241 169h62z" />
    <glyph glyph-name="ecaron" unicode="&#x11b;" horiz-adv-x="872" 
d="M924 1495l-277 -365h-92l-147 365h51l168 -211h4l241 211h52zM633 750q0 67 -33 104t-80 47q-109 -53 -171 -158.5t-73 -240.5l3 -10l329 129q25 62 25 129zM410 -31q-139 4 -235.5 111.5t-96.5 285.5t106 335t301 233l148 57q88 -16 144.5 -65t56.5 -141t-37 -177
l-523 -162q-2 -6 -2 -8v-18q4 -131 71.5 -211.5t160.5 -97.5q141 68 246 139l26 -35q-143 -107 -256 -174z" />
    <glyph glyph-name="Gcircumflex" unicode="&#x11c;" horiz-adv-x="1339" 
d="M236 1082.5q152 235.5 462 334.5l183 53q135 0 237.5 -45t155.5 -94l-19 -311h-65l-64 219q-51 53 -143 97t-219 48q-323 -145 -385 -369.5t-62 -364.5q0 -269 113.5 -422t304.5 -183q131 44 207 102l68 447l-158 20l10 43l256 2l225 3v-48l-122 -20l-74 -483l-506 -148
q-250 0 -403.5 169t-153.5 442t152 508.5zM625 1561l274 294h111l159 -294h-63l-174 172h-6l-238 -172h-63z" />
    <glyph glyph-name="gcircumflex" unicode="&#x11d;" horiz-adv-x="974" 
d="M289 439q0 -223 141 -312l211 178l94 512q-41 29 -107.5 48.5t-121.5 21.5q-106 -72 -161.5 -197t-55.5 -251zM90 346q0 186 101.5 338t293.5 238l154 69q87 0 173.5 -32.5t121.5 -51.5l-172 -954q-12 -70 -87 -140.5t-181 -148.5l-207 -145h-258l30 174h383
q43 35 84 110.5t56 159.5l43 248l18 45l-301 -287q-175 62 -213.5 177.5t-38.5 199.5zM416 1120l276 365h92l146 -365h-51l-168 211h-2l-242 -211h-51z" />
    <glyph glyph-name="Gbreve" unicode="&#x11e;" horiz-adv-x="1339" 
d="M236 1082.5q152 235.5 462 334.5l183 53q135 0 237.5 -45t155.5 -94l-19 -311h-65l-64 219q-51 53 -143 97t-219 48q-323 -145 -385 -369.5t-62 -364.5q0 -269 113.5 -422t304.5 -183q131 44 207 102l68 447l-158 20l10 43l256 2l225 3v-48l-122 -20l-74 -483l-506 -148
q-250 0 -403.5 169t-153.5 442t152 508.5zM867 1679q114 0 184 44.5t114 101.5l29 -29q-76 -122 -150.5 -170.5t-142.5 -77.5q-164 0 -213 102.5t-63 143.5l43 27q85 -142 199 -142z" />
    <glyph glyph-name="gbreve" unicode="&#x11f;" horiz-adv-x="974" 
d="M289 439q0 -223 141 -312l211 178l94 512q-41 29 -107.5 48.5t-121.5 21.5q-106 -72 -161.5 -197t-55.5 -251zM90 346q0 186 101.5 338t293.5 238l154 69q87 0 173.5 -32.5t121.5 -51.5l-172 -954q-12 -70 -87 -140.5t-181 -148.5l-207 -145h-258l30 174h383
q43 35 84 110.5t56 159.5l43 248l18 45l-301 -287q-175 62 -213.5 177.5t-38.5 199.5zM678 1262q121 0 180.5 72.5t75.5 99.5l35 -29q-89 -174 -295 -272q-111 0 -177 81.5t-91 188.5l45 27q81 -168 227 -168z" />
    <glyph glyph-name="Gdotaccent" unicode="&#x120;" horiz-adv-x="1339" 
d="M236 1082.5q152 235.5 462 334.5l183 53q135 0 237.5 -45t155.5 -94l-19 -311h-65l-64 219q-51 53 -143 97t-219 48q-323 -145 -385 -369.5t-62 -364.5q0 -269 113.5 -422t304.5 -183q131 44 207 102l68 447l-158 20l10 43l256 2l225 3v-48l-122 -20l-74 -483l-506 -148
q-250 0 -403.5 169t-153.5 442t152 508.5zM856 1790l72 8l108 -10l-2 -100l-35 -91l-65 -8l-121 8l6 105z" />
    <glyph glyph-name="gdotaccent" unicode="&#x121;" horiz-adv-x="974" 
d="M289 439q0 -223 141 -312l211 178l94 512q-41 29 -107.5 48.5t-121.5 21.5q-106 -72 -161.5 -197t-55.5 -251zM90 346q0 186 101.5 338t293.5 238l154 69q87 0 173.5 -32.5t121.5 -51.5l-172 -954q-12 -70 -87 -140.5t-181 -148.5l-207 -145h-258l30 174h383
q43 35 84 110.5t56 159.5l43 248l18 45l-301 -287q-175 62 -213.5 177.5t-38.5 199.5zM627 1421l71 11l107 -11l-2 -100l-33 -90l-65 -12l-121 12l6 102z" />
    <glyph glyph-name="Gcommaaccent" unicode="&#x122;" horiz-adv-x="1339" 
d="M236 1082.5q152 235.5 462 334.5l183 53q135 0 237.5 -45t155.5 -94l-19 -311h-65l-64 219q-51 53 -143 97t-219 48q-323 -145 -385 -369.5t-62 -364.5q0 -269 113.5 -422t304.5 -183q131 44 207 102l68 447l-158 20l10 43l256 2l225 3v-48l-122 -20l-74 -483l-506 -148
q-250 0 -403.5 169t-153.5 442t152 508.5zM514 -195l14 86h203l-26 -155l-205 -228l-45 13l112 217z" />
    <glyph glyph-name="gcommaaccent" unicode="&#x123;" horiz-adv-x="974" 
d="M289 439q0 -223 141 -312l211 178l94 512q-41 29 -107.5 48.5t-121.5 21.5q-106 -72 -161.5 -197t-55.5 -251zM90 346q0 186 101.5 338t293.5 238l154 69q87 0 173.5 -32.5t121.5 -51.5l-172 -954q-12 -70 -87 -140.5t-181 -148.5l-207 -145h-258l30 174h383
q43 35 84 110.5t56 159.5l43 248l18 45l-301 -287q-175 62 -213.5 177.5t-38.5 199.5zM578 1282l204 234l45 -15l-110 -221l51 -70l-16 -88h-203z" />
    <glyph glyph-name="Hcircumflex" unicode="&#x124;" horiz-adv-x="1409" 
d="M254 2l-270 -4v49l172 19l200 1304l-163 19l12 47l264 -4l262 4v-47l-162 -19l-94 -592h567l91 592l-160 19l10 47l266 -4l260 4l-2 -47l-161 -19l-201 -1304l160 -19l-11 -49l-262 4l-270 -4l-2 49l172 19l100 645h-565l-98 -645l159 -19l-10 -49zM618 1561l273 294h110
l158 -294h-61l-174 172h-4l-240 -172h-62z" />
    <glyph glyph-name="hcircumflex" unicode="&#x125;" horiz-adv-x="1038" 
d="M735 709q22 135 -67 135q-71 0 -195 -82l-80 -55l-125 -707h-182l240 1362l-195 -53l-16 41l368 116l39 -34l-112 -639l-17 -31l340 229q123 0 169 -64.5t28 -162.5l-119 -676l182 125l25 -33l-279 -213l-123 68zM176 1554l273 312h110l158 -312h-62l-174 183h-6
l-235 -183h-64z" />
    <glyph glyph-name="Hbar" unicode="&#x126;" horiz-adv-x="1409" 
d="M1042 778l33 217h-565l-35 -217h567zM254 2l-270 -4v49l172 19l200 1304l-163 19l12 47l264 -4l262 4v-47l-162 -19l-51 -323h565l50 323l-160 19l10 47l266 -4l260 4l-2 -47l-161 -19l-201 -1304l160 -19l-11 -49l-262 4l-270 -4l-2 49l172 19l100 645h-565l-98 -645
l159 -19l-10 -49z" />
    <glyph glyph-name="hbar" unicode="&#x127;" horiz-adv-x="1038" 
d="M735 709q22 135 -67 135q-71 0 -195 -82l-80 -55l-125 -707h-182l201 1145h-154l10 51h154l29 166l-195 -53l-16 41l368 116l39 -34l-41 -236h260l-8 -51h-262l-61 -352l-17 -31l340 229q123 0 169 -64.5t28 -162.5l-119 -676l182 125l25 -33l-279 -213l-123 68z" />
    <glyph glyph-name="Itilde" unicode="&#x128;" horiz-adv-x="634" 
d="M731 1389l-162 -19l-200 -1304l159 -19l-10 -49l-266 4l-268 -4v49l172 19l202 1304l-163 19l8 47l266 -4l264 4zM289 1790l127 43l313 -147l107 143h28l-98 -215l-125 -37l-315 147l-101 -143h-30z" />
    <glyph glyph-name="itilde" unicode="&#x129;" horiz-adv-x="571" 
d="M82 803l-12 37l354 151l43 -41l-152 -862l183 125l22 -33l-276 -213l-123 68l147 833zM180 1403l127 43l314 -148l104 144h31l-99 -217l-125 -37l-317 149l-98 -145h-31z" />
    <glyph glyph-name="Imacron" unicode="&#x12a;" horiz-adv-x="634" 
d="M731 1389l-162 -19l-200 -1304l159 -19l-10 -49l-266 4l-268 -4v49l172 19l202 1304l-163 19l8 47l266 -4l264 4zM233 1739h580l-16 -94h-580z" />
    <glyph glyph-name="imacron" unicode="&#x12b;" horiz-adv-x="571" 
d="M82 803l-12 37l354 151l43 -41l-152 -862l183 125l22 -33l-276 -213l-123 68l147 833zM139 1346h580l-14 -95h-580z" />
    <glyph glyph-name="Ibreve" unicode="&#x12c;" horiz-adv-x="634" 
d="M731 1389l-162 -19l-200 -1304l159 -19l-10 -49l-266 4l-268 -4v49l172 19l202 1304l-163 19l8 47l266 -4l264 4zM518.5 1679q142.5 0 274.5 146l28 -29q-75 -121 -152 -170t-145 -78q-190 0 -274 246l41 27q85 -142 227.5 -142z" />
    <glyph glyph-name="ibreve" unicode="&#x12d;" horiz-adv-x="571" 
d="M82 803l-12 37l354 151l43 -41l-152 -862l183 125l22 -33l-276 -213l-123 68l147 833zM417 1262q149 0 257 172l35 -29q-89 -173 -297 -272q-159 0 -207.5 113.5t-61.5 156.5l45 27q80 -168 229 -168z" />
    <glyph glyph-name="Iogonek" unicode="&#x12e;" horiz-adv-x="634" 
d="M731 1389l-162 -19l-200 -1304l159 -19l-10 -49l-223 2l-135 -238l-15 -77q-12 -74 39.5 -107t159.5 -33l-8 -41q-199 0 -272.5 51.5t-53.5 155.5l17 101l209 190l-252 -4v49l172 19l202 1304l-163 19l8 47l266 -4l264 4z" />
    <glyph glyph-name="iogonek" unicode="&#x12f;" horiz-adv-x="571" 
d="M336 -496q-199 0 -272.5 51.5t-55.5 155.5l19 103l198 163l-104 58l147 833l-186 -65l-12 37l354 151l43 -41l-152 -862l183 125l22 -33l-184 -141l-176 -277l-15 -77q-12 -72 39.5 -106t159.5 -34zM369 1411l63 12l117 -12v-102l-37 -88l-59 -13l-129 13l8 104z" />
    <glyph glyph-name="Idotaccent" unicode="&#x130;" horiz-adv-x="634" 
d="M731 1389l-162 -19l-200 -1304l159 -19l-10 -49l-266 4l-268 -4v49l172 19l202 1304l-163 19l8 47l266 -4l264 4zM451 1786l69 10l107 -12v-101l-37 -88l-64 -10l-120 10l8 103z" />
    <glyph glyph-name="dotlessi" unicode="&#x131;" horiz-adv-x="571" 
d="M82 803l-12 37l354 151l43 -41l-152 -862l183 125l22 -33l-276 -213l-123 68l147 833z" />
    <glyph glyph-name="IJ" unicode="&#x132;" horiz-adv-x="1189" 
d="M932 1370l-131 19l10 47l236 -4l264 4l-2 -47l-162 -19l-182 -1173q-34 -229 -191 -365l-242 -190h-135l35 180h215q43 76 63.5 153.5t37.5 186.5zM567 1370l-200 -1304l161 -19l-10 -49l-268 4l-266 -4v49l172 19l200 1304l-163 19l12 47l262 -4l233 4l2 -47z" />
    <glyph glyph-name="ij" unicode="&#x133;" horiz-adv-x="1009" 
d="M838 1411l61 12l119 -12v-102l-39 -88l-57 -13l-131 13l8 104zM223 -481l33 176h242q47 78 65 184l174 989l-159 -55l-15 37l328 141l45 -41l-174 -985q-35 -183 -176 -276l-246 -170h-117zM82 803l-12 37l354 151l43 -41l-152 -862l158 111l23 -33l-252 -199l-123 68
l147 833zM369 1411l63 12l117 -12v-102l-37 -88l-59 -13l-129 13l8 104z" />
    <glyph glyph-name="Jcircumflex" unicode="&#x134;" horiz-adv-x="634" 
d="M367 1370l-162 19l10 47l266 -4l262 4v-47l-161 -19l-183 -1173q-35 -236 -192 -365l-244 -190h-133l35 180h223q39 76 58.5 152.5t35.5 187.5zM217 1561l272 294h111l162 -294h-66l-174 172h-2l-239 -172h-64z" />
    <glyph glyph-name="jcircumflex" unicode="&#x135;" horiz-adv-x="555" 
d="M-233 -481l32 176h244q39 59 66 184l176 989l-187 -65l-16 37l356 151l41 -41l-172 -985q-35 -183 -174 -276l-248 -170h-118zM150 1118l276 365h94l144 -365h-52l-168 211h-2l-241 -211h-51z" />
    <glyph glyph-name="Kcommaaccent" unicode="&#x136;" horiz-adv-x="1388" 
d="M569 1370l-88 -584l25 17l637 567l-156 19l6 47l232 -4l194 4v-47l-176 -19l-655 -579l117 -27l493 -696l111 -21l-11 -49l-176 4l-151 -4l-482 729l-14 31l-106 -692l151 -19l-10 -49l-258 4l-268 -4v49l174 19l198 1304l-161 19l10 47l262 -4l254 4l2 -47zM547 -195
l14 86h205l-27 -155l-204 -228l-48 13l113 217z" />
    <glyph glyph-name="kcommaaccent" unicode="&#x137;" horiz-adv-x="980" 
d="M584 18l-219 525l-97 -543h-182l238 1364l-195 -51l-14 39l366 114l39 -32l-149 -859l18 7l395 389h174l-38 -199h-201q-30 -10 -114 -73t-99 -76l-72 -60l129 -39l205 -432l170 119l23 -35l-271 -209zM281 -195l14 86h205l-29 -155l-203 -228l-45 13l111 217z" />
    <glyph glyph-name="kgreenlandic" unicode="&#x138;" horiz-adv-x="989" 
d="M391 567l19 4l397 400h174l-41 -199h-201q-43 -14 -213 -158l-71 -59l129 -39l207 -424l170 119l22 -35l-272 -209l-105 51l-221 517l-94 -535h-185l152 870l-184 -59l-15 39l351 141l45 -43z" />
    <glyph glyph-name="Lacute" unicode="&#x139;" horiz-adv-x="1107" 
d="M367 63l454 3l211 319h49l-100 -387l-729 4l-268 -4v49l170 19l202 1304l-163 19l12 47l264 -4l268 4v-47l-168 -19zM565 1845h215l-270 -284h-59z" />
    <glyph glyph-name="lacute" unicode="&#x13a;" horiz-adv-x="550" 
d="M143 1309l-14 41l367 116l39 -34l-238 -1344l182 125l25 -33l-277 -213l-123 68l234 1327zM403 1561l115 284h217l-272 -284h-60z" />
    <glyph glyph-name="Lcommaaccent" unicode="&#x13b;" horiz-adv-x="1107" 
d="M367 63l454 3l211 319h49l-100 -387l-729 4l-268 -4v49l170 19l202 1304l-163 19l12 47l264 -4l268 4v-47l-168 -19zM410 -195l14 86h203l-27 -155l-205 -228l-45 13l113 217z" />
    <glyph glyph-name="lcommaaccent" unicode="&#x13c;" horiz-adv-x="550" 
d="M143 1309l-14 41l367 116l39 -34l-238 -1344l182 125l25 -33l-277 -213l-123 68l234 1327zM70 -195l14 86h205l-29 -155l-205 -228l-45 13l113 217z" />
    <glyph glyph-name="Lcaron" unicode="&#x13d;" horiz-adv-x="1214" 
d="M367 63l454 3l211 319h49l-100 -387l-729 4l-268 -4v49l170 19l202 1304l-163 19l12 47l264 -4l268 4v-47l-168 -19zM1120 1454l68 -10l-10 -113l-35 -100l-211 -309l-43 18q8 14 79 135.5t76 149.5l-112 6l10 119l37 94z" />
    <glyph glyph-name="lcaron" unicode="&#x13e;" horiz-adv-x="843" 
d="M143 1309l-14 41l367 116l39 -34l-238 -1344l182 125l25 -33l-277 -213l-123 68l234 1327zM657 1378l15 80h219l-31 -166l-217 -266l-47 14l133 246z" />
    <glyph glyph-name="Ldot" unicode="&#x13f;" horiz-adv-x="1107" 
d="M367 63l454 3l211 319h49l-100 -387l-729 4l-268 -4v49l170 19l202 1304l-163 19l12 47l264 -4l268 4v-47l-168 -19zM846 940l74 -10l-7 -111l-30 -96l-125 -12l-82 12l12 111l29 96z" />
    <glyph glyph-name="ldot" unicode="&#x140;" horiz-adv-x="765" 
d="M143 1309l-14 41l367 116l39 -34l-238 -1344l182 125l25 -33l-277 -213l-123 68l234 1327zM690 940l76 -12l-6 -111l-33 -94l-123 -12l-80 12l8 111l31 94z" />
    <glyph glyph-name="Lslash" unicode="&#x141;" horiz-adv-x="1107" 
d="M489 854l238 109l-12 -66l-236 -109l-112 -725l454 3l211 319h49l-100 -387l-729 4l-268 -4v49l170 19l96 618l-176 -80l10 66l176 80l96 620l-163 19l12 47l264 -4l268 4v-47l-168 -19z" />
    <glyph glyph-name="lslash" unicode="&#x142;" horiz-adv-x="550" 
d="M143 1309l-14 41l367 116l39 -34l-103 -576l189 88l-11 -65l-188 -86l-125 -705l182 125l25 -33l-277 -213l-123 68l117 667l-153 -69l12 61l153 70l105 598z" />
    <glyph glyph-name="Nacute" unicode="&#x143;" horiz-adv-x="1400" 
d="M1257 1370l-165 19l10 47l203 -4l208 4v-47l-172 -19l-215 -1370h-127l-555 1229l-10 82l-194 -1245l163 -19l-10 -49l-200 4l-209 -4v49l170 19l206 1296l-159 27l10 47l192 -4l168 4l504 -1084l17 -78zM827 1561l111 284h219l-272 -284h-58z" />
    <glyph glyph-name="nacute" unicode="&#x144;" horiz-adv-x="1069" 
d="M761.5 807q-16.5 37 -77.5 37t-180 -82l-80 -55l-125 -707h-182l151 868l-184 -65l-14 37l354 151l43 -43l-27 -155l-16 -31l338 229q123 0 169 -64.5t30 -162.5l-121 -676l182 125l25 -33l-277 -213l-123 68l119 674q12 61 -4.5 98zM571 1118l181 357h202l-331 -357h-52
z" />
    <glyph glyph-name="Ncommaaccent" unicode="&#x145;" horiz-adv-x="1400" 
d="M1257 1370l-165 19l10 47l203 -4l208 4v-47l-172 -19l-215 -1370h-127l-555 1229l-10 82l-194 -1245l163 -19l-10 -49l-200 4l-209 -4v49l170 19l206 1296l-159 27l10 47l192 -4l168 4l504 -1084l17 -78zM518 -195l14 86h203l-26 -155l-205 -228l-45 13l112 217z" />
    <glyph glyph-name="ncommaaccent" unicode="&#x146;" horiz-adv-x="1069" 
d="M761.5 807q-16.5 37 -77.5 37t-180 -82l-80 -55l-125 -707h-182l151 868l-184 -65l-14 37l354 151l43 -43l-27 -155l-16 -31l338 229q123 0 169 -64.5t30 -162.5l-121 -676l182 125l25 -33l-277 -213l-123 68l119 674q12 61 -4.5 98zM350 -195l15 86h202l-28 -155
l-203 -228l-45 13l110 217z" />
    <glyph glyph-name="Ncaron" unicode="&#x147;" horiz-adv-x="1400" 
d="M1257 1370l-165 19l10 47l203 -4l208 4v-47l-172 -19l-215 -1370h-127l-555 1229l-10 82l-194 -1245l163 -19l-10 -49l-200 4l-209 -4v49l170 19l206 1296l-159 27l10 47l192 -4l168 4l504 -1084l17 -78zM1188 1855l-273 -294h-110l-160 294h62l174 -169h4l239 169h64z
" />
    <glyph glyph-name="ncaron" unicode="&#x148;" horiz-adv-x="1069" 
d="M761.5 807q-16.5 37 -77.5 37t-180 -82l-80 -55l-125 -707h-182l151 868l-184 -65l-14 37l354 151l43 -43l-27 -155l-16 -31l338 229q123 0 169 -64.5t30 -162.5l-121 -676l182 125l25 -33l-277 -213l-123 68l119 674q12 61 -4.5 98zM983 1493l-278 -365h-93l-147 365h53
l168 -211h2l244 211h51z" />
    <glyph glyph-name="napostrophe" unicode="&#x149;" horiz-adv-x="1069" 
d="M761.5 807q-16.5 37 -77.5 37t-180 -82l-80 -55l-125 -707h-182l151 868l-184 -65l-14 37l354 151l43 -43l-27 -155l-16 -31l338 229q123 0 169 -64.5t30 -162.5l-121 -676l182 125l25 -33l-277 -213l-123 68l119 674q12 61 -4.5 98zM287 1378l14 80h219l-31 -166
l-219 -252l-45 15l133 231z" />
    <glyph glyph-name="Eng" unicode="&#x14a;" horiz-adv-x="1400" 
d="M1257 1370l-165 19l10 47l203 -4l208 4v-47l-172 -19l-215 -1370h2l-258 -483h-247l34 178h177l204 278l49 27h-88l-555 1229l-10 82l-194 -1245l163 -19l-10 -49l-200 4l-209 -4v49l170 19l206 1296l-159 27l10 47l192 -4l168 4l504 -1084l17 -78z" />
    <glyph glyph-name="eng" unicode="&#x14b;" horiz-adv-x="1069" 
d="M768 717q22 127 -71 127q-74 0 -193 -82l-80 -55l-125 -707h-182l151 868l-184 -65l-14 37l354 151l43 -43l-27 -155l-16 -31l338 229q123 0 170 -64.5t29 -162.5l-144 -801q-35 -180 -168 -272l-254 -172h-116l32 162h226q58 68 81 198z" />
    <glyph glyph-name="Omacron" unicode="&#x14c;" horiz-adv-x="1398" 
d="M1241 346.5q-141 -233.5 -432 -330.5l-160 -53q-245 0 -395 169t-150 445q0 277 141 514t431 328l160 51q242 0 394 -165.5t152 -444.5q0 -280 -141 -513.5zM446.5 203.5q108.5 -145.5 276.5 -162.5q197 74 310.5 292t113.5 483t-105.5 412.5t-277.5 166.5
q-191 -65 -308.5 -287t-117.5 -490.5t108.5 -414zM614 1739h580l-14 -94h-580z" />
    <glyph glyph-name="omacron" unicode="&#x14d;" horiz-adv-x="966" 
d="M338.5 158q62.5 -90 155.5 -107q120 44 177.5 190.5t57.5 273.5q0 128 -17.5 192.5t-58.5 122.5t-143 81q-121 -48 -177.5 -192.5t-56.5 -307.5t62.5 -253zM827 251q-101 -154 -280 -224l-139 -58q-138 0 -234 106.5t-96 292.5q0 187 98 338.5t285 229.5l137 55
q139 0 234.5 -104t95.5 -293t-101 -343zM403 1346h578l-16 -95h-580z" />
    <glyph glyph-name="Obreve" unicode="&#x14e;" horiz-adv-x="1398" 
d="M1241 346.5q-141 -233.5 -432 -330.5l-160 -53q-245 0 -395 169t-150 445q0 277 141 514t431 328l160 51q242 0 394 -165.5t152 -444.5q0 -280 -141 -513.5zM446.5 203.5q108.5 -145.5 276.5 -162.5q197 74 310.5 292t113.5 483t-105.5 412.5t-277.5 166.5
q-191 -65 -308.5 -287t-117.5 -490.5t108.5 -414zM651 1821q85 -142 236 -142t262 146l31 -29q-75 -121 -151.5 -170t-143.5 -78q-199 0 -277 246z" />
    <glyph glyph-name="obreve" unicode="&#x14f;" horiz-adv-x="966" 
d="M338.5 158q62.5 -90 155.5 -107q120 44 177.5 190.5t57.5 273.5q0 128 -17.5 192.5t-58.5 122.5t-143 81q-121 -48 -177.5 -192.5t-56.5 -307.5t62.5 -253zM827 251q-101 -154 -280 -224l-139 -58q-138 0 -234 106.5t-96 292.5q0 187 98 338.5t285 229.5l137 55
q139 0 234.5 -104t95.5 -293t-101 -343zM446 1430q81 -168 218 -168t193 72.5t75 99.5l33 -29q-89 -174 -295 -272q-111 0 -176 80.5t-93 189.5z" />
    <glyph glyph-name="Ohungarumlaut" unicode="&#x150;" horiz-adv-x="1398" 
d="M1241 346.5q-141 -233.5 -432 -330.5l-160 -53q-245 0 -395 169t-150 445q0 277 141 514t431 328l160 51q242 0 394 -165.5t152 -444.5q0 -280 -141 -513.5zM446.5 203.5q108.5 -145.5 276.5 -162.5q197 74 310.5 292t113.5 483t-105.5 412.5t-277.5 166.5
q-191 -65 -308.5 -287t-117.5 -490.5t108.5 -414zM979 1561l117 284h229l-289 -284h-57zM639 1561l117 284h231l-291 -284h-57z" />
    <glyph glyph-name="ohungarumlaut" unicode="&#x151;" horiz-adv-x="966" 
d="M338.5 158q62.5 -90 155.5 -107q120 44 177.5 190.5t57.5 273.5q0 128 -17.5 192.5t-58.5 122.5t-143 81q-121 -48 -177.5 -192.5t-56.5 -307.5t62.5 -253zM827 251q-101 -154 -280 -224l-139 -58q-138 0 -234 106.5t-96 292.5q0 187 98 338.5t285 229.5l137 55
q139 0 234.5 -104t95.5 -293t-101 -343zM758 1118l157 352h220l-324 -352h-53zM412 1118l153 352h221l-321 -352h-53z" />
    <glyph glyph-name="OE" unicode="&#x152;" horiz-adv-x="1900" 
d="M653 -37q-245 0 -394.5 168.5t-149.5 444.5t147 512t453 331l159 51q65 0 312 -38l766 4l-29 -363h-45l-88 295l-471 4l-92 -600l247 4l129 232h39l-55 -265l-31 -262h-39l-53 230l-248 4l-100 -652l504 3l174 317h49l-76 -385l-817 4zM452 206.5q108 -144.5 275 -161.5
l172 21l199 1292q-35 12 -162 24.5t-141 12.5q-102 -33 -186.5 -109t-174.5 -238t-90 -429.5t108 -412z" />
    <glyph glyph-name="oe" unicode="&#x153;" horiz-adv-x="1519" 
d="M1278 748q0 69 -32 106t-81 47q-106 -53 -168.5 -156.5t-74.5 -236.5q0 -6 4 -14l329 127q23 58 23 127zM338 159.5q62 -88.5 156 -106.5q126 45 183.5 195.5t57.5 276.5t-30.5 241.5t-190.5 142.5q-124 -46 -181 -190t-57 -308q0 -163 62 -251.5zM78 367
q0 286 146.5 407t240.5 162l131 55q98 0 181 -55t122 -166q94 111 264 174l117 47q201 -37 201 -217q0 -76 -39 -166l-518 -159q-2 -8 -2 -9v-20q4 -138 69 -214.5t158 -94.5q165 79 246 139l26 -35q-151 -113 -254 -174l-112 -72q-96 4 -175 60.5t-120 154.5
q-82 -102 -213 -159l-133 -56q-145 0 -240.5 105t-95.5 293z" />
    <glyph glyph-name="Racute" unicode="&#x154;" horiz-adv-x="1304" 
d="M1116 889q-103 -95 -293 -158l-129 -41l193 -80l256 -544l92 -21l-6 -47l-170 4l-133 -4l-291 668l-10 10h-164l-94 -610l186 -19l-12 -49l-295 4l-262 -4v49l170 19l204 1308l-165 15l12 47l268 -4l346 4q188 0 294 -85t106 -226t-103 -236zM983 1110q0 258 -254 266
h-160l-96 -618h258q252 123 252 352zM682 1561l113 284h217l-273 -284h-57z" />
    <glyph glyph-name="racute" unicode="&#x155;" horiz-adv-x="784" 
d="M115 0l155 868l-188 -65l-12 37l354 151l37 -37l-49 -297l-33 -110l278 424h150l-41 -203h-148q-19 -11 -99.5 -109t-90.5 -112l-41 -51l-88 -496h-184zM467 1118l180 357h203l-332 -357h-51z" />
    <glyph glyph-name="Rcommaaccent" unicode="&#x156;" horiz-adv-x="1304" 
d="M1116 889q-103 -95 -293 -158l-129 -41l193 -80l256 -544l92 -21l-6 -47l-170 4l-133 -4l-291 668l-10 10h-164l-94 -610l186 -19l-12 -49l-295 4l-262 -4v49l170 19l204 1308l-165 15l12 47l268 -4l346 4q188 0 294 -85t106 -226t-103 -236zM983 1110q0 258 -254 266
h-160l-96 -618h258q252 123 252 352zM485 -195l15 86h202l-26 -155l-205 -228l-45 13l113 217z" />
    <glyph glyph-name="rcommaaccent" unicode="&#x157;" horiz-adv-x="784" 
d="M115 0l155 868l-188 -65l-12 37l354 151l37 -37l-49 -297l-33 -110l278 424h150l-41 -203h-148q-19 -11 -99.5 -109t-90.5 -112l-41 -51l-88 -496h-184zM80 -195l14 86h205l-27 -155l-204 -228l-48 13l113 217z" />
    <glyph glyph-name="Rcaron" unicode="&#x158;" horiz-adv-x="1304" 
d="M1116 889q-103 -95 -293 -158l-129 -41l193 -80l256 -544l92 -21l-6 -47l-170 4l-133 -4l-291 668l-10 10h-164l-94 -610l186 -19l-12 -49l-295 4l-262 -4v49l170 19l204 1308l-165 15l12 47l268 -4l346 4q188 0 294 -85t106 -226t-103 -236zM983 1110q0 258 -254 266
h-160l-96 -618h258q252 123 252 352zM1065 1855l-272 -294h-111l-160 294h64l174 -169h2l242 169h61z" />
    <glyph glyph-name="rcaron" unicode="&#x159;" horiz-adv-x="784" 
d="M115 0l155 868l-188 -65l-12 37l354 151l37 -37l-49 -297l-33 -110l278 424h150l-41 -203h-148q-19 -11 -99.5 -109t-90.5 -112l-41 -51l-88 -496h-184zM864 1493l-276 -365h-94l-146 365h51l168 -211h4l242 211h51z" />
    <glyph glyph-name="Sacute" unicode="&#x15a;" horiz-adv-x="1005" 
d="M395 1167q0 -115 67.5 -176t108.5 -94l203 -160q81 -64 127.5 -139t46.5 -195q0 -191 -113.5 -269.5t-185.5 -102.5l-194 -68q-259 0 -424 127l65 316h78l4 -197q90 -97 203 -128.5t166 -33.5q201 66 201 264q0 132 -65 192t-103 91l-203 160q-74 57 -125 129.5
t-51 181.5q0 230 295 338l180 67q233 0 373 -96l-58 -317h-65l-29 217q-53 53 -132 84t-165 33q-205 -63 -205 -224zM653 1561l113 284h217l-272 -284h-58z" />
    <glyph glyph-name="sacute" unicode="&#x15b;" horiz-adv-x="747" 
d="M381 66q102 31 102 124t-75 164l-172 150q-91 78 -91 184q0 160 242 252l137 51q92 -14 215 -84l-96 -145q-96 69 -250 135q-90 -33 -90 -116t72 -148l168 -144q57 -53 80.5 -100t23.5 -110q0 -170 -205 -240l-204 -70q-83 29 -147 66t-81 47l101 143q180 -115 270 -159z
M420 1118l180 357h205l-332 -357h-53z" />
    <glyph glyph-name="Scircumflex" unicode="&#x15c;" horiz-adv-x="1005" 
d="M395 1167q0 -115 67.5 -176t108.5 -94l203 -160q81 -64 127.5 -139t46.5 -195q0 -191 -113.5 -269.5t-185.5 -102.5l-194 -68q-259 0 -424 127l65 316h78l4 -197q90 -97 203 -128.5t166 -33.5q201 66 201 264q0 132 -65 192t-103 91l-203 160q-74 57 -125 129.5
t-51 181.5q0 230 295 338l180 67q233 0 373 -96l-58 -317h-65l-29 217q-53 53 -132 84t-165 33q-205 -63 -205 -224zM453 1561l270 294h113l159 -294h-63l-176 172h-2l-240 -172h-61z" />
    <glyph glyph-name="scircumflex" unicode="&#x15d;" horiz-adv-x="747" 
d="M381 66q102 31 102 124t-75 164l-172 150q-91 78 -91 184q0 160 242 252l137 51q92 -14 215 -84l-96 -145q-96 69 -250 135q-90 -33 -90 -116t72 -148l168 -144q57 -53 80.5 -100t23.5 -110q0 -170 -205 -240l-204 -70q-83 29 -147 66t-81 47l101 143q180 -115 270 -159z
M252 1118l276 365h95l143 -365h-49l-170 211h-2l-242 -211h-51z" />
    <glyph glyph-name="Scedilla" unicode="&#x15e;" horiz-adv-x="1005" 
d="M360 -414q76 50 76 132t-59.5 97t-85.5 15l112 135q-224 11 -372 125l65 316h78l4 -197q90 -97 203 -128.5t166 -33.5q201 66 201 264q0 132 -65 192t-103 91l-203 160q-74 57 -125 129.5t-51 181.5q0 230 295 338l180 67q233 0 373 -96l-58 -317h-65l-29 217
q-53 53 -132 84t-165 33q-205 -63 -205 -224q0 -115 67.5 -176t108.5 -94l203 -160q81 -64 127.5 -139t46.5 -195q0 -191 -113.5 -269.5t-185.5 -102.5l-196 -68l-50 -57q68 -6 114 -43t46 -91q0 -88 -58 -135.5t-155 -85.5l-131 -47h-86l60 82h167z" />
    <glyph glyph-name="scedilla" unicode="&#x15f;" horiz-adv-x="747" 
d="M217 -294q0 71 -45 96.5t-100 27.5l129 154q-155 73 -191 98l101 143q180 -115 270 -159q102 31 102 124t-75 164l-172 150q-91 78 -91 184q0 160 242 252l137 51q92 -14 215 -84l-96 -145q-96 69 -250 135q-90 -33 -90 -116t72 -148l168 -144q57 -53 80.5 -100
t23.5 -110q0 -170 -205 -240l-202 -70l-54 -63q66 -6 112 -43t46 -91q0 -88 -58 -135.5t-155 -85.5l-131 -47h-88l63 82h168q74 49 74 120z" />
    <glyph glyph-name="Scaron" unicode="&#x160;" horiz-adv-x="1005" 
d="M395 1167q0 -115 67.5 -176t108.5 -94l203 -160q81 -64 127.5 -139t46.5 -195q0 -191 -113.5 -269.5t-185.5 -102.5l-194 -68q-259 0 -424 127l65 316h78l4 -197q90 -97 203 -128.5t166 -33.5q201 66 201 264q0 132 -65 192t-103 91l-203 160q-74 57 -125 129.5
t-51 181.5q0 230 295 338l180 67q233 0 373 -96l-58 -317h-65l-29 217q-53 53 -132 84t-165 33q-205 -63 -205 -224zM1047 1855l-273 -294h-112l-160 294h63l174 -169h4l242 169h62z" />
    <glyph glyph-name="scaron" unicode="&#x161;" horiz-adv-x="747" 
d="M381 66q102 31 102 124t-75 164l-172 150q-91 78 -91 184q0 160 242 252l137 51q92 -14 215 -84l-96 -145q-96 69 -250 135q-90 -33 -90 -116t72 -148l168 -144q57 -53 80.5 -100t23.5 -110q0 -170 -205 -240l-204 -70q-83 29 -147 66t-81 47l101 143q180 -115 270 -159z
M829 1493l-276 -365h-92l-150 365h56l165 -211h5l239 211h53z" />
    <glyph glyph-name="Tcommaaccent" unicode="&#x162;" horiz-adv-x="1171" 
d="M623 1372l-279 -2l-160 -303h-51l57 369l549 -4l549 4l-57 -369h-51l-66 303l-280 2l-201 -1306l180 -19l-10 -49l-289 4l-270 -4v49l176 19zM397 -195l15 86h202l-26 -155l-205 -228l-45 13l113 217z" />
    <glyph glyph-name="tcommaaccent" unicode="&#x163;" horiz-adv-x="653" 
d="M109 31l149 852h-160l6 28l39 35h125l23 127l170 148h41l-51 -279h231l-12 -59h-230l-139 -797l258 129l23 -37l-351 -211zM90 -195l14 86h205l-26 -155l-205 -228l-45 13l110 217z" />
    <glyph glyph-name="Tcaron" unicode="&#x164;" horiz-adv-x="1171" 
d="M623 1372l-279 -2l-160 -303h-51l57 369l549 -4l549 4l-57 -369h-51l-66 303l-280 2l-201 -1306l180 -19l-10 -49l-289 4l-270 -4v49l176 19zM1087 1855l-270 -294h-112l-160 294h63l172 -169h4l240 169h63z" />
    <glyph glyph-name="tcaron" unicode="&#x165;" horiz-adv-x="688" 
d="M109 31l149 852h-160l6 28l39 35h125l23 127l170 148h41l-51 -279h231l-12 -59h-230l-139 -797l258 129l23 -37l-351 -211zM680 1378l14 80h219l-28 -166l-221 -266l-46 14l134 246z" />
    <glyph glyph-name="Tbar" unicode="&#x166;" horiz-adv-x="1171" 
d="M348 922h203l72 450l-279 -2l-160 -303h-51l57 369l549 -4l549 4l-57 -369h-51l-66 303l-280 2l-70 -450h223l-12 -62h-221l-121 -794l180 -19l-10 -49l-289 4l-270 -4v49l176 19l123 794h-205z" />
    <glyph glyph-name="tbar" unicode="&#x167;" horiz-adv-x="653" 
d="M109 31l100 569h-121l8 51h121l41 232h-160l6 28l39 35h125l23 127l170 148h41l-51 -279h231l-12 -59h-230l-41 -232h207l-8 -51h-207l-90 -514l258 129l23 -37l-351 -211z" />
    <glyph glyph-name="Utilde" unicode="&#x168;" horiz-adv-x="1308" 
d="M391 465q-39 -275 91 -338.5t227 -63.5q143 57 214.5 144t102.5 274l143 889l-165 19l10 47l205 -4l219 4l2 -47l-170 -19l-142 -885q-32 -194 -115.5 -305t-271.5 -164l-163 -53q-242 0 -338.5 132.5t-59.5 375.5l137 899l-161 19l10 47l264 -4l268 4l2 -47l-163 -19z
M674 1790l127 43l313 -147l105 143h30l-98 -215l-125 -37l-317 147l-101 -143h-30z" />
    <glyph glyph-name="utilde" unicode="&#x169;" horiz-adv-x="1060" 
d="M401 117q39 0 87.5 27.5t101.5 62.5l80 55l121 699h184l-152 -871l185 119l24 -33l-287 -209l-110 66l22 141l17 33l-338 -238q-114 0 -163 63t-32 165l121 673l-186 -61l-17 37l355 145l43 -41l-125 -708q-12 -68 9 -96.5t60 -28.5zM477 1403l127 43l314 -148l104 144
h31l-97 -217l-127 -37l-315 149l-102 -145h-29z" />
    <glyph glyph-name="Umacron" unicode="&#x16a;" horiz-adv-x="1308" 
d="M391 465q-39 -275 91 -338.5t227 -63.5q143 57 214.5 144t102.5 274l143 889l-165 19l10 47l205 -4l219 4l2 -47l-170 -19l-142 -885q-32 -194 -115.5 -305t-271.5 -164l-163 -53q-242 0 -338.5 132.5t-59.5 375.5l137 899l-161 19l10 47l264 -4l268 4l2 -47l-163 -19z
M616 1739h580l-16 -94h-580z" />
    <glyph glyph-name="umacron" unicode="&#x16b;" horiz-adv-x="1060" 
d="M401 117q39 0 87.5 27.5t101.5 62.5l80 55l121 699h184l-152 -871l185 119l24 -33l-287 -209l-110 66l22 141l17 33l-338 -238q-114 0 -163 63t-32 165l121 673l-186 -61l-17 37l355 145l43 -41l-125 -708q-12 -68 9 -96.5t60 -28.5zM428 1346h580l-17 -95h-579z" />
    <glyph glyph-name="Ubreve" unicode="&#x16c;" horiz-adv-x="1308" 
d="M391 465q-39 -275 91 -338.5t227 -63.5q143 57 214.5 144t102.5 274l143 889l-165 19l10 47l205 -4l219 4l2 -47l-170 -19l-142 -885q-32 -194 -115.5 -305t-271.5 -164l-163 -53q-242 0 -338.5 132.5t-59.5 375.5l137 899l-161 19l10 47l264 -4l268 4l2 -47l-163 -19z
M643 1821q85 -142 227.5 -142t274.5 146l29 -29q-74 -119 -151 -169t-144 -79q-193 0 -277 246z" />
    <glyph glyph-name="ubreve" unicode="&#x16d;" horiz-adv-x="1060" 
d="M401 117q39 0 87.5 27.5t101.5 62.5l80 55l121 699h184l-152 -871l185 119l24 -33l-287 -209l-110 66l22 141l17 33l-338 -238q-114 0 -163 63t-32 165l121 673l-186 -61l-17 37l355 145l43 -41l-125 -708q-12 -68 9 -96.5t60 -28.5zM709 1262q123 0 181 72.5t77 99.5
l32 -29q-90 -174 -294 -272q-110 0 -174.5 78.5t-96.5 191.5l47 27q35 -73 86 -120.5t142 -47.5z" />
    <glyph glyph-name="Uring" unicode="&#x16e;" horiz-adv-x="1308" 
d="M391 465q-39 -275 91 -338.5t227 -63.5q143 57 214.5 144t102.5 274l143 889l-165 19l10 47l205 -4l219 4l2 -47l-170 -19l-142 -885q-32 -194 -115.5 -305t-271.5 -164l-163 -53q-242 0 -338.5 132.5t-59.5 375.5l137 899l-161 19l10 47l264 -4l268 4l2 -47l-163 -19z
M741 1716.5q0 -59.5 38 -95.5t96 -36t96.5 36t38.5 95.5t-38 98t-96 38.5t-96.5 -38.5t-38.5 -98zM1087 1721q0 -91 -52.5 -127t-157.5 -70q-145 0 -179 69.5t-34 120.5q0 90 54.5 130.5t155.5 70.5q149 0 181 -71t32 -123z" />
    <glyph glyph-name="uring" unicode="&#x16f;" horiz-adv-x="1060" 
d="M401 117q39 0 87.5 27.5t101.5 62.5l80 55l121 699h184l-152 -871l185 119l24 -33l-287 -209l-110 66l22 141l17 33l-338 -238q-114 0 -163 63t-32 165l121 673l-186 -61l-17 37l355 145l43 -41l-125 -708q-12 -68 9 -96.5t60 -28.5zM549 1302.5q0 -59.5 38 -96.5t96 -37
t96 37t38 96.5t-38 97.5t-96 38t-96 -38t-38 -97.5zM895 1306q0 -93 -51 -128t-158 -70q-95 0 -156 45t-61 155t85 144.5t126 46.5q150 0 182.5 -70.5t32.5 -122.5z" />
    <glyph glyph-name="Uhungarumlaut" unicode="&#x170;" horiz-adv-x="1308" 
d="M391 465q-39 -275 91 -338.5t227 -63.5q143 57 214.5 144t102.5 274l143 889l-165 19l10 47l205 -4l219 4l2 -47l-170 -19l-142 -885q-32 -194 -115.5 -305t-271.5 -164l-163 -53q-242 0 -338.5 132.5t-59.5 375.5l137 899l-161 19l10 47l264 -4l268 4l2 -47l-163 -19z
M969 1561l116 284h230l-289 -284h-57zM629 1561l116 284h232l-289 -284h-59z" />
    <glyph glyph-name="uhungarumlaut" unicode="&#x171;" horiz-adv-x="1060" 
d="M401 117q39 0 87.5 27.5t101.5 62.5l80 55l121 699h184l-152 -871l185 119l24 -33l-287 -209l-110 66l22 141l17 33l-338 -238q-114 0 -163 63t-32 165l121 673l-186 -61l-17 37l355 145l43 -41l-125 -708q-12 -68 9 -96.5t60 -28.5zM788 1118l156 352h219l-321 -352h-54
zM442 1118l154 352h221l-323 -352h-52z" />
    <glyph glyph-name="Uogonek" unicode="&#x172;" horiz-adv-x="1308" 
d="M391 465q-39 -275 91 -338.5t227 -63.5q143 57 214.5 144t102.5 274l143 889l-165 19l10 47l205 -4l219 4l2 -47l-170 -19l-142 -885q-26 -173 -97.5 -281.5t-225.5 -166.5l-172 -270l-15 -82q-12 -72 40.5 -104t160.5 -32l-8 -43q-199 0 -272.5 51.5t-55.5 155.5l15 94
l235 207l-155 -51q-242 0 -338.5 132.5t-59.5 375.5l137 899l-161 19l10 47l264 -4l268 4l2 -47l-163 -19z" />
    <glyph glyph-name="uogonek" unicode="&#x173;" horiz-adv-x="1060" 
d="M401 117q39 0 87.5 27.5t101.5 62.5l80 55l121 699h184l-152 -871l185 119l24 -33l-190 -137l-178 -277l-15 -77q-10 -72 41 -106t160 -34l-8 -41q-199 0 -272.5 51.5t-55.5 155.5l16 103l199 163l-94 56l22 141l17 33l-338 -238q-114 0 -163 63t-32 165l121 673
l-186 -61l-17 37l355 145l43 -41l-125 -708q-12 -68 9 -96.5t60 -28.5z" />
    <glyph glyph-name="Wcircumflex" unicode="&#x174;" horiz-adv-x="1898" 
d="M1044 901l3 55l-371 -940l-154 -47l-215 1403l-155 17l12 47l266 -4l246 4v-47l-156 -19l164 -1128l-12 -58l346 877l-45 311l-117 17l10 47l230 -4l274 4v-47l-184 -19l164 -1128l-11 -58l471 1186l-172 19l11 47l217 -4l170 4v-47l-129 -17l-564 -1356l-155 -47z
M864 1561l271 294h112l160 -294h-64l-174 172h-4l-239 -172h-62z" />
    <glyph glyph-name="wcircumflex" unicode="&#x175;" horiz-adv-x="1363" 
d="M694 14l-10 385l8 64l-305 -490l-170 41l-22 854l-185 -65l-16 39l352 149l41 -41l8 -829l-8 -47l291 467l-10 356l192 72l8 -848l-8 -47l400 633l-148 180l170 104l72 -90l-35 -223l-457 -705zM535 1118l276 365h94l144 -365h-52l-166 211h-4l-239 -211h-53z" />
    <glyph glyph-name="Ycircumflex" unicode="&#x176;" horiz-adv-x="1259" 
d="M762 702v-40l436 708l-174 19l8 47l215 -4l150 4v-47l-109 -17l-491 -782l-80 -524l201 -19l-13 -49l-305 4l-307 -4v49l211 19l80 522l-314 784l-116 17l8 47l235 -4l281 4v-47l-170 -19zM592 1561l274 294h111l160 -294h-64l-174 172h-4l-240 -172h-63z" />
    <glyph glyph-name="ycircumflex" unicode="&#x177;" horiz-adv-x="937" 
d="M461 33l-148 -29l-123 862l-182 -65l-18 35l323 157l70 -35l104 -880l344 635l-149 174l172 104l74 -88l-31 -221l-350 -621l-328 -542h-237l38 190h191zM340 1118l274 365h95l145 -365h-51l-168 211h-4l-240 -211h-51z" />
    <glyph glyph-name="Ydieresis" unicode="&#x178;" horiz-adv-x="1259" 
d="M762 702v-40l436 708l-174 19l8 47l215 -4l150 4v-47l-109 -17l-491 -782l-80 -524l201 -19l-13 -49l-305 4l-307 -4v49l211 19l80 522l-314 784l-116 17l8 47l235 -4l281 4v-47l-170 -19zM1087 1786l97 -8l-2 -92l-35 -89l-64 -10l-102 10l4 101l39 80zM690 1786l98 -8
l-2 -92l-34 -89l-66 -10l-102 10l6 101l37 80z" />
    <glyph glyph-name="Zacute" unicode="&#x179;" horiz-adv-x="1105" 
d="M-10 0l-8 53l921 1284l62 41l-570 -10l-178 -315h-47l63 381h924l27 -54l-916 -1282l-57 -37l606 7l213 348h47l-96 -416h-991zM649 1561l113 284h217l-272 -284h-58z" />
    <glyph glyph-name="zacute" unicode="&#x17a;" horiz-adv-x="843" 
d="M104 51l-84 -63l-38 26l675 768l-69 -26l-371 47l-59 -80l-35 12l115 248l542 -59l62 43l35 -25l-656 -752l64 25l411 -55l72 84l33 -13l-121 -260zM481 1118l181 357h202l-332 -357h-51z" />
    <glyph glyph-name="Zdotaccent" unicode="&#x17b;" horiz-adv-x="1105" 
d="M-10 0l-8 53l921 1284l62 41l-570 -10l-178 -315h-47l63 381h924l27 -54l-916 -1282l-57 -37l606 7l213 348h47l-96 -416h-991zM659 1786l70 10l107 -12v-101l-37 -88l-64 -10l-123 10l11 103z" />
    <glyph glyph-name="zdotaccent" unicode="&#x17c;" horiz-adv-x="843" 
d="M104 51l-84 -63l-38 26l675 768l-69 -26l-371 47l-59 -80l-35 12l115 248l542 -59l62 43l35 -25l-656 -752l64 25l411 -55l72 84l33 -13l-121 -260zM522 1421l68 11l108 -11l-2 -100l-34 -90l-66 -12l-121 12l10 102z" />
    <glyph glyph-name="Zcaron" unicode="&#x17d;" horiz-adv-x="1105" 
d="M-10 0l-8 53l921 1284l62 41l-570 -10l-178 -315h-47l63 381h924l27 -54l-916 -1282l-57 -37l606 7l213 348h47l-96 -416h-991zM500 1855h63l172 -169h6l238 169h65l-274 -294h-113z" />
    <glyph glyph-name="zcaron" unicode="&#x17e;" horiz-adv-x="843" 
d="M104 51l-84 -63l-38 26l675 768l-69 -26l-371 47l-59 -80l-35 12l115 248l542 -59l62 43l35 -25l-656 -752l64 25l411 -55l72 84l33 -13l-121 -260zM887 1493l-277 -367h-94l-145 367h51l168 -213h2l244 213h51z" />
    <glyph glyph-name="longs" unicode="&#x17f;" horiz-adv-x="620" 
d="M92 881l8 30l37 33h131l15 90q34 186 170 275l243 155h156l-33 -164h-260q-55 -58 -80 -192l-200 -1153q-33 -180 -175 -277l-241 -161h-125l35 176h233q53 67 76 184l174 1004h-164z" />
    <glyph glyph-name="florin" unicode="&#x192;" horiz-adv-x="708" 
d="M-195 -307h234q49 66 74 186l176 1004h-166l8 28l39 35h129l16 88q33 186 168 277l244 155h150l-31 -166h-256q-57 -68 -80 -192l-29 -166h217l-14 -59h-213l-162 -928q-29 -176 -168 -272l-245 -164h-125z" />
    <glyph glyph-name="Aringacute" unicode="&#x1fa;" horiz-adv-x="1374" 
d="M367 -2l-211 4l-205 -4l2 49l160 16l759 1352l158 49l135 -1401l154 -16l-10 -49l-273 4l-270 -4l2 49l174 19l-37 428h-467l-233 -428l174 -19zM471 557h428l-51 617v75zM848 1716.5q0 -59.5 38 -95.5t95 -36t96 36t39 95.5t-39 98t-96 38.5t-95 -38.5t-38 -98z
M1194 1718q0 -87 -52 -123t-159 -71q-146 0 -180.5 69.5t-34.5 120.5q0 89 55 130t156 71l53 96l195 4l-146 -117q113 -42 113 -180z" />
    <glyph glyph-name="aringacute" unicode="&#x1fb;" horiz-adv-x="983" 
d="M76 336q0 199 106.5 347t290.5 241l141 67q79 0 168.5 -32.5t124.5 -49.5l-145 -819l184 123l23 -33l-277 -213l-123 70l31 174l16 45l-305 -287q-235 86 -235 367zM270 444q0 -234 136 -321l210 182l91 516q-61 43 -127 54.5t-88 11.5q-100 -68 -161 -190.5t-61 -252.5z
M616 1302.5q0 -59.5 38 -96.5t95.5 -37t95.5 37t38 96.5t-38 97.5t-95.5 38t-95.5 -38t-38 -97.5zM963 1303q0 -92 -53.5 -126.5t-157.5 -68.5q-148 0 -181.5 68.5t-33.5 120.5q0 92 57.5 133t150.5 69l56 96l194 4l-145 -116q113 -42 113 -180z" />
    <glyph glyph-name="AEacute" unicode="&#x1fc;" horiz-adv-x="1808" 
d="M-45 47l160 16l864 1373l143 -4l731 4l-30 -363h-45l-88 295l-469 4l-99 -647l242 4l133 244h35l-59 -277l-31 -282h-35l-55 243l-240 5l-92 -599l491 3l177 327h51l-78 -395l-754 4l-266 -4v49l172 19l90 593h-325l-367 -593l172 -19l-14 -49l-215 4l-203 -4zM614 725
h299l101 641zM1194 1561l113 284h217l-273 -284h-57z" />
    <glyph glyph-name="aeacute" unicode="&#x1fd;" horiz-adv-x="1353" 
d="M795 1118l180 357h205l-332 -357h-53zM1114 744q0 73 -31.5 110t-78.5 47q-151 -72 -209 -291q-33 -52 -33 -116l330 122q22 55 22 128zM266 444q0 -234 140 -321l163 145q-4 10 -4 12v27q-10 133 36 262t149 228q-59 39 -134 64.5t-131 25.5q-98 -68 -158.5 -190.5
t-60.5 -252.5zM70 336q0 199 107.5 347t291.5 241l141 67q87 0 172.5 -35.5t120.5 -54.5q8 6 17.5 10t19.5 9l176 71q201 -37 201 -217q0 -84 -37 -166l-522 -159v-27q4 -136 68.5 -214.5t158.5 -96.5q148 71 248 139l24 -35q-114 -88 -251 -174l-115 -72q-109 6 -194 75
t-117 185l-269 -260q-241 85 -241 367z" />
    <glyph glyph-name="Oslashacute" unicode="&#x1fe;" horiz-adv-x="1398" 
d="M799 1561l114 284h215l-270 -284h-59zM338 612q0 -143 35 -254l704 809q-104 205 -313 228q-191 -65 -308.5 -287t-117.5 -496zM1147 838q0 150 -47 274l-707 -813q51 -119 137 -183.5t193 -74.5q197 74 310.5 291.5t113.5 505.5zM1382 856q0 -438 -208.5 -613
t-364.5 -227l-160 -53q-246 0 -397 172l-146 -166h-73l184 211q-113 166 -113 420t141 491t431 328l160 51q231 0 376 -147l121 137h70l-156 -178q135 -164 135 -426z" />
    <glyph glyph-name="oslashacute" unicode="&#x1ff;" horiz-adv-x="966" 
d="M535 1118l180 357h205l-332 -357h-53zM276 412q0 -73 11 -121l415 444q-51 144 -192 176q-121 -48 -177.5 -192.5t-56.5 -306.5zM729 553q0 74 -12 129l-416 -446q53 -157 193 -185q120 44 177.5 190.5t57.5 311.5zM928 623q0 -218 -101 -372t-280 -224l-139 -58
q-151 0 -246 119l-96 -102h-66l135 143q-57 98 -57 262t98 315.5t285 229.5l137 55q142 0 240 -110l100 106h63l-135 -145q62 -100 62 -219z" />
    <glyph glyph-name="Scommaaccent" unicode="&#x218;" horiz-adv-x="1005" 
d="M395 1167q0 -115 67.5 -176t108.5 -94l203 -160q81 -64 127.5 -139t46.5 -195q0 -191 -113.5 -269.5t-185.5 -102.5l-194 -68q-259 0 -424 127l65 316h78l4 -197q90 -97 203 -128.5t166 -33.5q201 66 201 264q0 132 -65 192t-103 91l-203 160q-74 57 -125 129.5
t-51 181.5q0 230 295 338l180 67q233 0 373 -96l-58 -317h-65l-29 217q-53 53 -132 84t-165 33q-205 -63 -205 -224zM326 -195l14 86h203l-27 -155l-205 -228l-45 13l113 217z" />
    <glyph glyph-name="scommaaccent" unicode="&#x219;" horiz-adv-x="747" 
d="M381 66q102 31 102 124t-75 164l-172 150q-91 78 -91 184q0 160 242 252l137 51q92 -14 215 -84l-96 -145q-96 69 -250 135q-90 -33 -90 -116t72 -148l168 -144q57 -53 80.5 -100t23.5 -110q0 -170 -205 -240l-204 -70q-83 29 -147 66t-81 47l101 143q180 -115 270 -159z
M129 -193l14 84h203l-27 -155l-204 -228l-45 15l112 215z" />
    <glyph glyph-name="uni021A" unicode="&#x21a;" horiz-adv-x="1171" 
d="M623 1372l-279 -2l-160 -303h-51l57 369l549 -4l549 4l-57 -369h-51l-66 303l-280 2l-201 -1306l180 -19l-10 -49l-289 4l-270 -4v49l176 19zM389 -195l14 86h203l-26 -155l-205 -228l-45 13l112 217z" />
    <glyph glyph-name="uni021B" unicode="&#x21b;" horiz-adv-x="653" 
d="M109 31l149 852h-160l6 28l39 35h125l23 127l170 148h41l-51 -279h231l-12 -59h-230l-139 -797l258 129l23 -37l-351 -211zM90 -195l14 86h205l-26 -155l-205 -228l-45 13l110 217z" />
    <glyph glyph-name="hsuperior" unicode="&#x2b0;" horiz-adv-x="686" 
d="M557 1204q9 60 -39 60q-39 0 -94 -35l-43 -23l-76 -387h-151l143 735l-109 -24l-12 24l242 72l39 -31l-66 -333l-10 -23l207 135q80 0 109.5 -34.5t19.5 -108.5l-74 -352l109 65l16 -20l-176 -121l-107 43z" />
    <glyph glyph-name="jsuperior" unicode="&#x2b2;" horiz-adv-x="327" 
d="M307 1602l45 8l86 -8v-74l-24 -62l-43 -8l-97 8l5 70zM-74 555l27 129h147q23 37 39 117l97 493l-101 -30l-12 24l231 84l43 -37l-96 -493q-21 -97 -149 -189l-152 -98h-74z" />
    <glyph glyph-name="wsuperior" unicode="&#x2b7;" horiz-adv-x="858" 
d="M772 1300l127 74l51 -49l-22 -141l-273 -379l-137 24l-6 181l8 41l-170 -246l-137 24l-16 467l-103 -32l-10 26l225 84l45 -41l6 -415l-4 -33l154 219l-8 207l157 49l7 -447l-7 -32l213 305z" />
    <glyph glyph-name="ysuperior" unicode="&#x2b8;" horiz-adv-x="581" 
d="M109 698h141l139 150l-129 -27l-74 475l-100 -34l-12 26l217 86l49 -33l68 -460l192 309l-104 110l125 74l53 -49l-21 -143l-209 -330l-200 -297h-162z" />
    <glyph glyph-name="apostrophemod" unicode="&#x2bc;" horiz-adv-x="473" 
d="M197 938q151 264 155 287l-112 8l10 115l37 98l141 8l66 -8l-11 -115l-30 -98l-213 -313z" />
    <glyph glyph-name="circumflex" unicode="&#x2c6;" horiz-adv-x="1017" 
d="M252 1118l278 365h93l145 -365h-51l-168 211h-4l-240 -211h-53z" />
    <glyph glyph-name="caron" unicode="&#x2c7;" horiz-adv-x="1019" 
d="M778 1493l-278 -365h-92l-148 365h53l168 -211h2l242 211h53z" />
    <glyph glyph-name="breve" unicode="&#x2d8;" horiz-adv-x="1019" 
d="M506 1262q123 0 181 72.5t77 99.5l33 -29q-89 -174 -295 -272q-111 0 -176 80.5t-93 189.5l46 27q81 -168 227 -168z" />
    <glyph glyph-name="dotaccent" unicode="&#x2d9;" horiz-adv-x="962" 
d="M424 1421l68 11l108 -11l-2 -100l-35 -90l-63 -12l-123 12l10 102z" />
    <glyph glyph-name="ring" unicode="&#x2da;" horiz-adv-x="995" 
d="M365 1302.5q0 -59.5 37.5 -96.5t95 -37t96.5 37t39 96.5t-39 97.5t-96.5 38t-95 -38t-37.5 -97.5zM711 1306q0 -93 -51 -128t-158 -70q-95 0 -156 45t-61 140t56.5 136t156.5 70q148 0 180.5 -70.5t32.5 -122.5z" />
    <glyph glyph-name="ogonek" unicode="&#x2db;" horiz-adv-x="1122" 
d="M553 -238l-16 -77q-19 -140 200 -140l-8 -41q-199 0 -272.5 51.5t-55.5 155.5l19 103l287 239h32z" />
    <glyph glyph-name="tilde" unicode="&#x2dc;" horiz-adv-x="1028" 
d="M270 1403l127 43l314 -148l106 144h29l-98 -217l-123 -37l-318 149l-100 -145h-31z" />
    <glyph glyph-name="hungarumlaut" unicode="&#x2dd;" horiz-adv-x="1067" 
d="M520 1118l154 352h221l-324 -352h-51zM172 1118l154 352h223l-324 -352h-53z" />
    <glyph glyph-name="xsuperior" unicode="&#x2e3;" horiz-adv-x="589" 
d="M395 844l-57 168v20l-152 -217h-123l33 146h113q12 4 32.5 25.5t33 33.5t18.5 18l29 27l-78 235l-109 -34l-10 26l221 82l45 -35l53 -163v-27l142 213h127l-31 -145h-111q-6 -2 -27.5 -22.5t-32.5 -31t-17 -16.5l-31 -27l80 -243l114 65l15 -20l-178 -119z" />
    <glyph glyph-name="Delta" unicode="&#x394;" horiz-adv-x="1406" 
d="M1114 72l-461 1104l-6 55l-514 -1159h981zM41 0v63l625 1364l96 35l604 -1396v-66h-1325z" />
    <glyph glyph-name="Omega" unicode="&#x3a9;" horiz-adv-x="1449" 
d="M229 1229q157 153 516 235q279 0 456 -165.5t177 -414.5q0 -356 -187 -459t-296 -146v-148l379 35l61 176h45v-342h-565v328q121 10 219.5 134.5t98.5 370.5t-124.5 396.5t-316.5 150.5q-163 0 -268 -140.5t-105 -360.5t72 -340.5t129.5 -162.5t116.5 -46v-330h-567v342
h45l61 -176l379 -35v139q-198 30 -340.5 179t-142.5 388t157 392z" />
    <glyph glyph-name="mu" unicode="&#x3bc;" 
d="M449 242q-18 -125 70 -125q40 0 88 27.5t102 62.5l77 55l123 699h185l-154 -873l186 121l23 -33l-287 -209l-110 66l24 143l15 31l-338 -238q-111 0 -154 66l-14 -96l63 -410h-207l252 1432h182z" />
    <glyph glyph-name="pi" unicode="&#x3c0;" 
d="M1030 127l17 -37l-269 -106l-86 116l139 791h-282l-156 -891h-190l157 891h-102l-135 -236h-43l51 299h1120l-12 -63h-217l-141 -813z" />
    <glyph glyph-name="Wgrave" unicode="&#x1e80;" horiz-adv-x="1898" 
d="M1044 901l3 55l-371 -940l-154 -47l-215 1403l-155 17l12 47l266 -4l246 4v-47l-156 -19l164 -1128l-12 -58l346 877l-45 311l-117 17l10 47l230 -4l274 4v-47l-184 -19l164 -1128l-11 -58l471 1186l-172 19l11 47l217 -4l170 4v-47l-129 -17l-564 -1356l-155 -47z
M1110 1561l-207 284h205l59 -284h-57z" />
    <glyph glyph-name="wgrave" unicode="&#x1e81;" horiz-adv-x="1363" 
d="M694 14l-10 385l8 64l-305 -490l-170 41l-22 854l-185 -65l-16 39l352 149l41 -41l8 -829l-8 -47l291 467l-10 356l192 72l8 -848l-8 -47l400 633l-148 180l170 104l72 -90l-35 -223l-457 -705zM778 1118l-194 357h200l43 -357h-49z" />
    <glyph glyph-name="Wacute" unicode="&#x1e82;" horiz-adv-x="1898" 
d="M1044 901l3 55l-371 -940l-154 -47l-215 1403l-155 17l12 47l266 -4l246 4v-47l-156 -19l164 -1128l-12 -58l346 877l-45 311l-117 17l10 47l230 -4l274 4v-47l-184 -19l164 -1128l-11 -58l471 1186l-172 19l11 47l217 -4l170 4v-47l-129 -17l-564 -1356l-155 -47z
M1069 1561l113 284h219l-275 -284h-57z" />
    <glyph glyph-name="wacute" unicode="&#x1e83;" horiz-adv-x="1363" 
d="M694 14l-10 385l8 64l-305 -490l-170 41l-22 854l-185 -65l-16 39l352 149l41 -41l8 -829l-8 -47l291 467l-10 356l192 72l8 -848l-8 -47l400 633l-148 180l170 104l72 -90l-35 -223l-457 -705zM682 1118l180 357h203l-332 -357h-51z" />
    <glyph glyph-name="Wdieresis" unicode="&#x1e84;" horiz-adv-x="1898" 
d="M1044 901l3 55l-371 -940l-154 -47l-215 1403l-155 17l12 47l266 -4l246 4v-47l-156 -19l164 -1128l-12 -58l346 877l-45 311l-117 17l10 47l230 -4l274 4v-47l-184 -19l164 -1128l-11 -58l471 1186l-172 19l11 47l217 -4l170 4v-47l-129 -17l-564 -1356l-155 -47z
M1366 1786l98 -8l-2 -92l-35 -89l-63 -10l-102 10l6 101l37 80zM969 1786l98 -8l-2 -92l-35 -89l-63 -10l-103 10l6 101l35 80z" />
    <glyph glyph-name="wdieresis" unicode="&#x1e85;" horiz-adv-x="1363" 
d="M694 14l-10 385l8 64l-305 -490l-170 41l-22 854l-185 -65l-16 39l352 149l41 -41l8 -829l-8 -47l291 467l-10 356l192 72l8 -848l-8 -47l400 633l-148 180l170 104l72 -90l-35 -223l-457 -705zM1032 1389l92 -13l-2 -90l-35 -82l-59 -12l-100 12l6 96l35 76zM688 1389
l92 -13v-90l-35 -82l-59 -12l-102 12l4 96l37 76z" />
    <glyph glyph-name="Ygrave" unicode="&#x1ef2;" horiz-adv-x="1259" 
d="M762 702v-40l436 708l-174 19l8 47l215 -4l150 4v-47l-109 -17l-491 -782l-80 -524l201 -19l-13 -49l-305 4l-307 -4v49l211 19l80 522l-314 784l-116 17l8 47l235 -4l281 4v-47l-170 -19zM815 1561l-209 284h205l59 -284h-55z" />
    <glyph glyph-name="ygrave" unicode="&#x1ef3;" horiz-adv-x="937" 
d="M461 33l-148 -29l-123 862l-182 -65l-18 35l323 157l70 -35l104 -880l344 635l-149 174l172 104l74 -88l-31 -221l-350 -621l-328 -542h-237l38 190h191zM575 1118l-192 357h201l41 -357h-50z" />
    <glyph glyph-name="endash" unicode="&#x2013;" horiz-adv-x="1241" 
d="M139 612h1020l-12 -82h-1024z" />
    <glyph glyph-name="emdash" unicode="&#x2014;" horiz-adv-x="1822" 
d="M160 612h1581l-15 -82h-1583z" />
    <glyph glyph-name="quoteleft" unicode="&#x2018;" horiz-adv-x="452" 
d="M481 1446q-51 -76 -103 -175.5t-54 -109.5l114 -8l-12 -117l-35 -96l-143 -8l-66 8l11 115l32 98l211 311z" />
    <glyph glyph-name="quoteright" unicode="&#x2019;" horiz-adv-x="475" 
d="M207 938q151 264 155 287l-112 8l10 115l35 98l143 8l66 -8l-10 -115l-33 -98l-213 -313z" />
    <glyph glyph-name="quotesinglbase" unicode="&#x201a;" horiz-adv-x="493" 
d="M35 -276q8 14 78.5 135t76.5 151l-112 6l10 119l37 94l141 13l66 -13l-8 -110l-35 -103l-213 -311z" />
    <glyph glyph-name="quotedblleft" unicode="&#x201c;" horiz-adv-x="786" 
d="M481 1446q-8 -14 -79 -134t-78 -153l114 -6l-12 -117l-35 -96l-143 -8l-66 8l11 113l32 100l211 311zM811 1446q-6 -10 -18.5 -32.5t-30 -52.5t-34.5 -62.5t-32.5 -61.5t-27 -50.5t-11.5 -27.5l111 -6l-8 -117l-39 -96l-139 -8l-68 8l10 113l33 100l213 311z" />
    <glyph glyph-name="quotedblright" unicode="&#x201d;" horiz-adv-x="815" 
d="M539 940q13 25 75 131.5t78 155.5l-110 6l10 117l37 96l139 10l68 -10l-11 -113l-30 -100l-215 -311zM207 940q150 263 155 287l-112 6l10 117l35 96l141 10l68 -10l-10 -113l-33 -100l-213 -311z" />
    <glyph glyph-name="quotedblbase" unicode="&#x201e;" horiz-adv-x="827" 
d="M35 -276q8 14 78.5 135t76.5 151l-112 6l10 119l37 94l141 13l66 -13l-8 -110l-35 -103l-213 -311zM367 -276q8 14 78.5 135t76.5 151l-112 6l10 119l37 94l141 13l66 -13l-11 -110l-30 -103l-215 -311z" />
    <glyph glyph-name="dagger" unicode="&#x2020;" horiz-adv-x="899" 
d="M162 1124l350 -77l-16 407h219l-160 -407l385 77l-37 -206l-358 79l-2 -239l59 -86l-117 -211l-143 -584h-25l58 584l-39 211l86 86l82 239l-379 -79z" />
    <glyph glyph-name="daggerdbl" unicode="&#x2021;" horiz-adv-x="1028" 
d="M489 758l82 239l-381 -79l37 206l353 -77l-17 407h217l-159 -407l387 77l-37 -206l-359 79l-2 -239l58 -84l-88 -86l-82 -240l381 84l-35 -209l-357 78l19 -410h-217l157 410l-383 -78l35 209l359 -84l2 240l-56 86z" />
    <glyph glyph-name="bullet" unicode="&#x2022;" horiz-adv-x="550" 
d="M344 752l74 -11l-12 -125l-35 -114l-166 -10l-72 10l14 131l35 108z" />
    <glyph glyph-name="ellipsis" unicode="&#x2026;" horiz-adv-x="1536" 
d="M1303 229l57 -10l-10 -117l-33 -104l-156 -10l-59 10l12 121l31 100zM811 229l59 -10l-10 -117l-33 -104l-155 -10l-60 10l11 121l32 100zM324 229l57 -10l-10 -117l-31 -104l-158 -10l-59 10l10 121l33 100z" />
    <glyph glyph-name="perthousand" unicode="&#x2030;" horiz-adv-x="2238" 
d="M983 264q0 -80 35 -137t98 -68q90 24 137 131.5t48 225.5q2 221 -127 239q-93 -23 -142 -130.5t-49 -260.5zM1688 264q0 -80 34.5 -137t98.5 -68q87 23 137.5 132t50.5 226t-36 173.5t-95 64.5q-91 -22 -140.5 -131.5t-49.5 -259.5zM836 262q0 339 329 443l39 12
q115 0 179.5 -75t64.5 -167q0 -374 -328 -463l-39 -12q-106 0 -175.5 70.5t-69.5 191.5zM1542 262q0 339 330 443l39 12q113 0 178 -75t65 -187q0 -245 -117.5 -331.5t-209.5 -111.5l-39 -12q-106 0 -176 70.5t-70 191.5zM358 981q0 -80 35 -136.5t99 -66.5
q132 35 158 173.5t26 218.5t-34 137t-93 65q-93 -23 -142 -129.5t-49 -261.5zM211 979q0 342 330 442l39 13q115 0 179 -75t64 -188q0 -246 -117.5 -330.5t-209.5 -109.5l-41 -14q-104 0 -174 70.5t-70 191.5zM193 -10h-107l1376 1454h105z" />
    <glyph glyph-name="guilsinglleft" unicode="&#x2039;" horiz-adv-x="598" 
d="M362 31l-290 450l452 451h64l-344 -451l186 -450h-68z" />
    <glyph glyph-name="guilsinglright" unicode="&#x203a;" horiz-adv-x="641" 
d="M63 31l343 450l-185 451h64l295 -451l-451 -450h-66z" />
    <glyph glyph-name="fraction" unicode="&#x2044;" horiz-adv-x="333" 
d="M-287 -102h-94l1067 1556h90z" />
    <glyph glyph-name="zerosuperior" unicode="&#x2070;" horiz-adv-x="759" 
d="M682 1316q0 102 -36 170t-91 87q-94 -47 -150.5 -165t-56.5 -258t36 -209t89 -87q146 81 177.5 220.5t31.5 241.5zM178 1116q0 253 123 353t213 128l90 31q113 0 181.5 -83t68.5 -235t-85 -287.5t-257 -193.5l-88 -28q-111 0 -178.5 82.5t-67.5 232.5z" />
    <glyph glyph-name="foursuperior" unicode="&#x2074;" horiz-adv-x="688" 
d="M633 1133h153l-12 -72h-156l-45 -240h-151l47 240h-315l-23 51l461 504h182l-10 -41l-567 -455l39 15h245l27 129l141 88h27z" />
    <glyph glyph-name="fivesuperior" unicode="&#x2075;" horiz-adv-x="657" 
d="M711 1166q0 -166 -295 -281l-164 -72h-111l25 131h272q98 70 99 172q0 53 -30 91t-92 38t-128 -31l-47 -20l-17 16l125 400h440l-6 -27l-47 -100h-375l-79 -240l198 103q117 0 174.5 -47.5t57.5 -132.5z" />
    <glyph glyph-name="sixsuperior" unicode="&#x2076;" horiz-adv-x="688" 
d="M586 1084q0 70 -24.5 110.5t-60.5 40.5t-91 -35l-41 -22q-12 -59 -13 -113q0 -180 113 -213q59 31 88 96.5t29 135.5zM760 1124q0 -94 -62.5 -173t-177.5 -115l-102 -35q-104 0 -171 70.5t-67 180.5q0 205 169.5 368t424.5 210l10 -31q-173 -53 -277.5 -155.5
t-131.5 -226.5l200 120q86 -4 135.5 -61.5t49.5 -151.5z" />
    <glyph glyph-name="sevensuperior" unicode="&#x2077;" horiz-adv-x="610" 
d="M211 1608h539l20 -27l-494 -762h-114l2 45l489 619l-24 -10h-443z" />
    <glyph glyph-name="eightsuperior" unicode="&#x2078;" horiz-adv-x="696" 
d="M451 848q108 47 108 155q0 51 -39 92.5t-92 88.5q-102 -75 -102 -155q0 -81 38.5 -127t86.5 -54zM158 978q0 84 61.5 134.5t173.5 97.5q-57 41 -95 84t-38 111t62.5 118t150.5 76l98 29q98 0 162 -39t64 -94q0 -92 -59.5 -139.5t-166.5 -89.5q72 -55 118 -98.5t46 -121.5
q0 -145 -252 -219l-82 -28q-161 0 -202 67.5t-41 111.5zM633 1428.5q0 74.5 -26.5 111.5t-86.5 43q-88 -29 -88 -116.5t107 -170.5q94 58 94 132.5z" />
    <glyph glyph-name="ninesuperior" unicode="&#x2079;" horiz-adv-x="681" 
d="M180 1310q0 94 62.5 171.5t179.5 113.5l106 33q102 0 168 -69t66 -179q0 -212 -173.5 -373t-420.5 -204l-12 26q268 83 334.5 207.5t76.5 180.5l-198 -121q-88 4 -138.5 62t-50.5 152zM584 1385q0 69 -29 122.5t-82 69.5q-61 -29 -90 -92t-29 -135t27 -112t64 -40t90 33
l40 24q9 61 9 130z" />
    <glyph glyph-name="plussuperior" unicode="&#x207a;" horiz-adv-x="837" 
d="M518 922v256h-285v61h285v262h62v-262h286v-61h-286v-256h-62z" />
    <glyph glyph-name="minussuperior" unicode="&#x207b;" horiz-adv-x="851" 
d="M233 1268h646v-62h-646v62z" />
    <glyph glyph-name="equalsuperior" unicode="&#x207c;" horiz-adv-x="841" 
d="M860 1059h-637v61h637v-61zM860 1276h-637v63h637v-63z" />
    <glyph glyph-name="parenleftsuperior" unicode="&#x207d;" horiz-adv-x="526" 
d="M414 1036q0 -212 90 -358l-25 -23q-135 165 -154.5 255.5t-19.5 169.5q0 180 81.5 325t299.5 334l25 -21q-297 -284 -297 -682z" />
    <glyph glyph-name="parenrightsuperior" unicode="&#x207e;" horiz-adv-x="526" 
d="M385 1356q0 218 -90 360l27 23q88 -109 131 -200t43 -199q0 -209 -80 -349t-303 -336l-23 21q295 282 295 680z" />
    <glyph glyph-name="nsuperior" unicode="&#x207f;" horiz-adv-x="684" 
d="M553 1204q13 60 -35 60q-42 0 -92 -35l-45 -23l-74 -387h-153l94 473l-105 -28l-10 24l232 84l43 -35l-15 -75l-10 -21l203 133q152 0 125 -143l-68 -354l107 65l16 -20l-174 -119l-107 41z" />
    <glyph glyph-name="zeroinferior" unicode="&#x2080;" horiz-adv-x="757" 
d="M485 190q0 102 -35.5 170t-91.5 86q-94 -47 -149 -164.5t-55 -259.5q0 -249 125 -296q144 80 175 221t31 243zM-20 -12q0 255 123.5 354.5t213.5 128.5l91 31q111 0 180 -83t69 -233q0 -255 -123.5 -354.5t-216.5 -128.5l-88 -31q-113 0 -181 84.5t-68 231.5z" />
    <glyph glyph-name="oneinferior" unicode="&#x2081;" horiz-adv-x="616" 
d="M293 -258l174 -14l-8 -37l-252 2l-264 -2l2 37l186 14l123 631l8 14l-33 -14l-163 -43l-11 35l324 122h57z" />
    <glyph glyph-name="twoinferior" unicode="&#x2082;" horiz-adv-x="698" 
d="M420 309q0 59 -26.5 97t-76.5 45l-61 -19l-74 -153h-100l14 139l275 84q115 0 168 -50.5t53 -116.5q0 -115 -80 -202.5t-236 -187.5l-225 -148l103 23h385v-37l-56 -90h-557l-14 35l256 211q117 96 184.5 184t67.5 186z" />
    <glyph glyph-name="threeinferior" unicode="&#x2083;" horiz-adv-x="610" 
d="M504 377q0 -81 -67.5 -133t-172.5 -78q109 -8 158 -52t49 -102t-28.5 -98.5t-72.5 -70t-96.5 -50t-99.5 -39.5l-166 -65h-106l24 127h283q86 61 86 149q0 51 -42 87t-136 38l-8 27l71 37q158 72 158 198q0 39 -22.5 64.5t-57.5 29.5l-61 -16l-72 -147h-105l15 137l280 82
q100 0 144.5 -39t44.5 -86z" />
    <glyph glyph-name="fourinferior" unicode="&#x2084;" horiz-adv-x="688" 
d="M436 6h154l-10 -74h-156l-47 -239h-152l47 239h-315l-25 52l465 505h181l-7 -40l-571 -457l41 14h244l26 131l144 88h26z" />
    <glyph glyph-name="fiveinferior" unicode="&#x2085;" horiz-adv-x="657" 
d="M340 -10q0 55 -28 93t-80 38t-79.5 -9.5t-62.5 -25.5l-45 -16l-18 12l127 401h438l-6 -26l-47 -101h-375l-80 -239l199 102q116 0 173.5 -47t57.5 -114q0 -114 -77.5 -179t-219.5 -123l-162 -69h-112l26 129h275q96 71 96 174z" />
    <glyph glyph-name="sixinferior" unicode="&#x2086;" horiz-adv-x="686" 
d="M389 -45q0 70 -24.5 110.5t-58.5 40.5t-93 -32l-41 -25q-12 -81 -11 -141t29.5 -114t81.5 -70q63 31 90 96t27 135zM563 -4q0 -94 -62.5 -173t-176.5 -114l-103 -37q-104 0 -170.5 71t-66.5 181q0 206 170 369t426 209l10 -29q-178 -55 -282 -159t-130 -224l203 121
q86 -4 134 -62.5t48 -152.5z" />
    <glyph glyph-name="seveninferior" unicode="&#x2087;" horiz-adv-x="610" 
d="M14 483h539l22 -28l-493 -764h-117l2 43l490 622l-25 -12h-442z" />
    <glyph glyph-name="eightinferior" unicode="&#x2088;" horiz-adv-x="696" 
d="M129 -111q0 -70 40 -115.5t87 -56.5q53 23 79.5 66t26.5 93t-37.5 93t-91.5 88q-104 -73 -104 -168zM-39 -149q0 143 236 231q-59 45 -96.5 88.5t-37.5 109.5t61.5 116t151.5 75l99 31q98 0 162.5 -40t64.5 -94q0 -87 -59.5 -137t-167.5 -90q72 -55 119 -100t47 -99
q0 -92 -68 -150.5t-186 -92.5l-84 -29q-102 0 -172 50t-70 131zM438 328q0 51 -27.5 87t-86.5 42q-88 -29 -88 -133q0 -68 108 -156q94 61 94 160z" />
    <glyph glyph-name="nineinferior" unicode="&#x2089;" horiz-adv-x="681" 
d="M-16 184q0 94 63.5 171t177.5 114l107 33q102 0 167.5 -69t65.5 -179q0 -209 -169.5 -371.5t-426.5 -208.5l-10 29q181 56 283 158t131 229l-201 -123q-86 4 -137 63.5t-51 153.5zM389 238q0 180 -113 213q-61 -29 -88.5 -92.5t-27.5 -135.5t25.5 -111.5t61.5 -39.5
t91 32l41 25q10 57 10 109z" />
    <glyph glyph-name="parenleftinferior" unicode="&#x208d;" horiz-adv-x="528" 
d="M217 -92q0 -207 90 -359l-24 -22q-92 112 -133 202t-41 195q0 212 83 357t297 331l25 -20q-297 -284 -297 -684z" />
    <glyph glyph-name="parenrightinferior" unicode="&#x208e;" horiz-adv-x="528" 
d="M190 229q0 216 -92 361l27 22q88 -109 131 -199.5t43 -198.5q0 -208 -81.5 -353t-301.5 -334l-22 20q296 283 296 682z" />
    <glyph glyph-name="Euro" unicode="&#x20ac;" horiz-adv-x="1275" 
d="M1159 193q-190 -126 -430 -232q-231 4 -387 160t-168 420q0 14 2 22h-145l14 68h129q10 114 29 178h-127l14 70h133q153 382 635 534l178 57q125 -27 281 -133l-105 -147q-89 77 -191.5 122.5t-139.5 57.5q-180 -70 -294 -201t-161 -290h659l-49 -70h-626
q-16 -121 -11 -178h523l-48 -68h-471q20 -199 124 -323.5t264 -153.5q120 21 216.5 73t127.5 68z" />
    <glyph glyph-name="afii61289" unicode="&#x2113;" horiz-adv-x="950" 
d="M729 1194q0 154 -78 154q-6 0 -18 -4.5t-34.5 -11t-29.5 -13.5l-118 -676q129 78 203.5 217t74.5 334zM930 1215q0 -207 -137.5 -374.5t-358.5 -277.5l-82 -477l353 131l24 -39l-422 -211l-147 49l78 465q-43 -20 -97.5 -40.5t-103.5 -41.5l16 72q41 16 96.5 37.5
t102.5 42.5l125 717l348 207q100 0 152.5 -76.5t52.5 -183.5z" />
    <glyph glyph-name="afii61352" unicode="&#x2116;" horiz-adv-x="1988" 
d="M1143 117h719l-15 -78h-717zM1395 542q0 -86 42 -156.5t122 -74.5q152 33 182.5 166t30.5 219t-44 154t-122 72q-105 -23 -158 -123.5t-53 -256.5zM-20 0v43l192 45l225 1274l-172 24l13 48l198 -2l172 2l334 -1088l6 -113l213 1201h238l-2 -41l-185 -47l-235 -1346h-152
l-362 1196l-8 113l-230 -1309h-245zM1212 544q0 148 86 254.5t240 153.5l123 41q139 0 216 -77.5t77 -225.5t-87 -255t-247 -154l-119 -39q-137 0 -213 77t-76 225z" />
    <glyph glyph-name="trademark" unicode="&#x2122;" horiz-adv-x="2004" 
d="M979 684l88 10v692l-88 13l2 37l125 -2l168 2l250 -588l2 -51l254 639l127 -2l151 2l4 -37l-90 -13v-692l88 -10l-4 -39l-170 2l-172 -2l-4 39l84 10v606l10 70l-288 -727h-99l-274 662l-17 69v-680l88 -10l-2 -39l-116 2l-115 -2zM215 1202v234l360 -2l353 2v-234h-41
l-80 187l-145 2v-697l118 -10l-4 -39l-205 2l-209 -2l-2 39l123 10v697l-147 -2l-80 -187h-41z" />
    <glyph glyph-name="uni2126" unicode="&#x2126;" horiz-adv-x="1449" 
d="M229 1229q157 153 516 235q279 0 456 -165.5t177 -414.5q0 -356 -187 -459t-296 -146v-148l379 35l61 176h45v-342h-565v328q121 10 219.5 134.5t98.5 370.5t-124.5 396.5t-316.5 150.5q-163 0 -268 -140.5t-105 -360.5t72 -340.5t129.5 -162.5t116.5 -46v-330h-567v342
h45l61 -176l379 -35v139q-198 30 -340.5 179t-142.5 388t157 392z" />
    <glyph glyph-name="estimated" unicode="&#x212e;" horiz-adv-x="1744" 
d="M970 1376q-350 0 -546 -346l-43 -246h991l27 148q-16 205 -131 324.5t-298 119.5zM1099.5 164q138.5 107 213.5 287h217q-99 -215 -271 -311t-505 -171q-297 0 -463 170t-158 443q8 382 215 589t666 293q310 0 474 -189t128 -493l-21 -102h-1233l-26 -178
q20 -199 137.5 -322t302.5 -123t323.5 107z" />
    <glyph glyph-name="arrowleft" unicode="&#x2190;" horiz-adv-x="1249" 
d="M1147 651v-94h-887l37 -18l358 -338v-129l-553 532l553 535v-131l-358 -336l-37 -21h887z" />
    <glyph glyph-name="arrowup" unicode="&#x2191;" horiz-adv-x="1271" 
d="M682 82h-92v887l-21 -35l-336 -361h-131l535 553l532 -553h-129l-338 361l-20 35v-887z" />
    <glyph glyph-name="arrowright" unicode="&#x2192;" horiz-adv-x="1249" 
d="M102 651h887l-35 21l-360 336v131l553 -535l-553 -532v129l360 338l35 18h-887v94z" />
    <glyph glyph-name="arrowdown" unicode="&#x2193;" horiz-adv-x="1271" 
d="M682 1126v-886l20 36l338 359h129l-532 -553l-535 553h131l336 -359l21 -36v886h92z" />
    <glyph glyph-name="uni2196" unicode="&#x2196;" horiz-adv-x="976" 
d="M102 973h770l-92 -90l-493 4l-41 10l628 -629l-65 -65l-631 628l12 -40l3 -494l-91 -92v768z" />
    <glyph glyph-name="uni2197" unicode="&#x2197;" horiz-adv-x="976" 
d="M874 973v-768l-90 92l2 494l13 40l-631 -628l-66 65l629 629l-41 -10l-491 -4l-95 90h770z" />
    <glyph glyph-name="uni2198" unicode="&#x2198;" horiz-adv-x="976" 
d="M874 188h-770l95 91l491 -5l41 -10l-629 629l66 65l631 -628l-13 39l-2 495l90 92v-768z" />
    <glyph glyph-name="uni2199" unicode="&#x2199;" horiz-adv-x="976" 
d="M102 188v768l91 -92l-3 -495l-12 -39l631 628l65 -65l-628 -629l41 10l493 5l92 -91h-770z" />
    <glyph glyph-name="partialdiff" unicode="&#x2202;" 
d="M868 610v144l-26 14q-119 71 -240 78q-97 -23 -150 -138t-53 -294t59.5 -269t157.5 -98q118 23 185 185t67 378zM288.5 132q-110.5 128 -110.5 317t98 329.5t283 175.5l232 -75q41 -10 75 -27q-13 171 -139 333t-332 232l21 53q365 -106 521.5 -346.5t156.5 -498.5
q0 -257 -110 -423.5t-325 -211.5l-57 -21q-203 35 -313.5 163z" />
    <glyph glyph-name="uni2206" unicode="&#x2206;" horiz-adv-x="1406" 
d="M1114 72l-461 1104l-6 55l-514 -1159h981zM41 0v63l625 1364l96 35l604 -1396v-66h-1325z" />
    <glyph glyph-name="product" unicode="&#x220f;" horiz-adv-x="1566" 
d="M1100 1364h-637v-1626l168 -19l-6 -47l-271 2l-276 -2l-6 47l172 19v1630l-172 18l6 48l276 -2h856l279 2l6 -48l-174 -18v-1630l168 -19l-6 -47l-271 2l-276 -2l-6 47l170 19v1626z" />
    <glyph glyph-name="summation" unicode="&#x2211;" 
d="M1128 1434v-351h-45l-125 285l-559 4l500 -729v-39l-606 -764l711 15l106 206h51l-37 -389h-987l-28 52l616 780l-592 872l29 58h966z" />
    <glyph glyph-name="minus" unicode="&#x2212;" 
d="M96 612h1075v-92h-1075v92z" />
    <glyph glyph-name="radical" unicode="&#x221a;" 
d="M-35 897l-119 18l7 41h319l268 -741l9 -72l561 1659h413l-26 -80h-324l-588 -1689l-166 -66z" />
    <glyph glyph-name="infinity" unicode="&#x221e;" horiz-adv-x="1634" 
d="M1248 444q83 0 142.5 47t59.5 136q0 186 -225 186q-59 0 -126 -25.5t-120 -78.5l-66 -66l82 -72q82 -72 148.5 -99.5t104.5 -27.5zM729 578q-184 206 -329 206t-179.5 -68.5t-34.5 -115.5q0 -82 60.5 -137t183.5 -55t227 100l74 70h-2zM409 264q-141 0 -224 94t-83 232
q0 239 326 373q160 0 253.5 -87.5t174.5 -168.5l92 98q59 66 135 112t150 46q139 0 219 -92.5t80 -229.5t-74.5 -221t-249.5 -156q-161 0 -264.5 96.5t-140.5 133.5l-19 22l-96 -106q-55 -59 -130.5 -102.5t-148.5 -43.5z" />
    <glyph glyph-name="integral" unicode="&#x222b;" 
d="M614 1028q16 88 60.5 161t109.5 116l240 155h158l-27 -155h-254q-67 -67 -90 -203l-199 -1137q-34 -182 -168 -272l-245 -164h-125l32 162h224q69 77 86 198z" />
    <glyph glyph-name="approxequal" unicode="&#x2248;" 
d="M1169 430h48l-78 -182l-193 -45l-753 123l-93 -140h-47l76 179l199 47l751 -119zM1171 803h48l-78 -178l-193 -45l-755 120l-93 -139h-47l76 180l199 47l753 -120z" />
    <glyph glyph-name="notequal" unicode="&#x2260;" 
d="M106 260v90h375l256 305h-631v93h709l199 235h104l-198 -235h243v-93h-321l-254 -305h575v-90h-651l-215 -260h-109l218 260h-300z" />
    <glyph glyph-name="lessequal" unicode="&#x2264;" 
d="M1167 1255v-108l-934 -412l934 -411v-109l-1065 479v78zM102 92h1065v-92h-1065v92z" />
    <glyph glyph-name="greaterequal" unicode="&#x2265;" 
d="M1167 772v-78l-1065 -479v109l934 411l-934 412v108zM1167 0h-1065v92h1065v-92z" />
    <glyph glyph-name="lozenge" unicode="&#x25ca;" 
d="M602 1430l88 36l484 -712l-500 -752l-92 -39l-486 713zM664 156l8 -35l348 524l-412 631l-8 37l-344 -529z" />
    <glyph glyph-name="commaaccent" unicode="&#xf6c3;" horiz-adv-x="948" 
d="M446 -262l-53 67l15 86h204l-26 -155l-205 -228l-47 13z" />
    <glyph glyph-name="asuperior" unicode="&#xf6e9;" horiz-adv-x="638" 
d="M145 1006q0 104 65.5 184t180.5 131l111 53q91 0 192 -45l-88 -452l107 67l18 -22l-176 -119l-106 41l18 90l12 29l-196 -160q-138 52 -138 203zM303 1075q0 -100 64 -155l110 75l55 273q-51 30 -124 30q-105 -84 -105 -223z" />
    <glyph glyph-name="bsuperior" unicode="&#xf6ea;" horiz-adv-x="638" 
d="M537 1106q0 121 -70 160l-105 -56l-55 -292q63 -44 123 -44q81 47 94 124t13 108zM700 1165q0 -92 -59 -177t-166 -130l-125 -55q-113 2 -207 57l136 692l-113 -22l-10 24l243 72l39 -31l-63 -327l-15 -29l195 135q145 -35 145 -209z" />
    <glyph glyph-name="dsuperior" unicode="&#xf6eb;" horiz-adv-x="667" 
d="M305 1084q0 -101 72 -162l106 75l56 279q-70 29 -131 29q-51 -39 -77 -101t-26 -120zM145 1016q0 100 59.5 177t170.5 124l117 57q46 -6 63 -10l35 190l-109 -24l-10 24l244 72l37 -31l-140 -721l107 70l20 -20l-176 -121l-108 43l18 90l14 29l-192 -162
q-150 55 -150 213z" />
    <glyph glyph-name="esuperior" unicode="&#xf6ec;" horiz-adv-x="573" 
d="M414 1305q-109 -59 -113 -201q0 -4 2 -5t2 -5l25 8q50 16 106 37l25 8q12 34 11 73q-1 38 -18.5 59t-39.5 26zM145 1022q0 96 59.5 178t180.5 123l133 49q51 -10 85 -42t34 -72t-4 -58t-19 -47l-311 -86v-2q20 -119 133 -164q6 2 158 76l16 -25q-78 -49 -176 -96l-94 -53
q-78 12 -136.5 67.5t-58.5 151.5z" />
    <glyph glyph-name="isuperior" unicode="&#xf6ed;" horiz-adv-x="389" 
d="M145 1264l-10 24l230 84l43 -37l-91 -456l109 65l16 -20l-176 -121l-106 43l86 448zM317 1602l48 8l86 -8v-74l-25 -62l-45 -8l-96 8l4 70z" />
    <glyph glyph-name="lsuperior" unicode="&#xf6ee;" horiz-adv-x="389" 
d="M201 1530l-11 24l242 72l39 -31l-139 -718l108 67l17 -20l-174 -121l-109 43l135 706z" />
    <glyph glyph-name="msuperior" unicode="&#xf6ef;" horiz-adv-x="991" 
d="M858 1202q14 60 -30 60q-25 0 -83 -33l-47 -27l-75 -383h-152l74 387q10 57 -37 58q-24 0 -78 -33l-49 -27l-74 -385h-153l94 473l-105 -28l-10 24l232 84l43 -35l-17 -77l-10 -23l197 137q141 0 127 -127v-6l190 133q147 0 123 -143l-70 -357l109 68l16 -20l-176 -119
l-106 41z" />
    <glyph glyph-name="osuperior" unicode="&#xf6f0;" horiz-adv-x="641" 
d="M305 1054q0 -83 35 -131.5t86 -60.5q61 31 88 104.5t27 156.5t-35 130.5t-88 59.5q-61 -31 -87 -103.5t-26 -155.5zM702 1158q0 -220 -237 -318l-92 -37q-94 0 -161 54t-67 165q0 211 238 313l92 39q92 0 159.5 -55t67.5 -161z" />
    <glyph glyph-name="rsuperior" unicode="&#xf6f1;" horiz-adv-x="501" 
d="M371 1178l-23 -68l176 252h101l-31 -154h-107q-22 -15 -60 -55.5t-46 -48.5l-25 -25l-49 -260h-153l92 473l-103 -28l-10 24l232 84l34 -31z" />
    <glyph glyph-name="ssuperior" unicode="&#xf6f2;" horiz-adv-x="464" 
d="M352 868q41 7 41 44q0 36 -53 77l-113 82q-66 45 -65 111q0 90 139 143l105 49q61 -6 151 -45l-65 -110q-96 59 -183 90q-33 -11 -33 -35t11.5 -38.5t40.5 -35.5l112 -82q70 -50 70 -112t-34 -95.5t-93 -54.5l-141 -53q-91 21 -150 49l64 113q88 -52 196 -97z" />
    <glyph glyph-name="tsuperior" unicode="&#xf6f3;" horiz-adv-x="405" 
d="M473 944l14 -22l-221 -119l-104 41l86 452h-96l6 23l28 24h72l10 54l135 110h35l-30 -166h133l-11 -45h-131l-82 -419z" />
    <glyph glyph-name="apple" unicode="&#xf8ff;" horiz-adv-x="1402" 
d="M1145 791h10l10 14v14l-20 -8v-20zM1006 1085l-17 -8v-18l17 -6l4 14zM848 1315l-17 -19v-39l25 -12l6 35zM438 1020l121 24l-8 25zM719 1065l-8 -25l100 -34l6 8zM956 735v-26l91 8l8 18h-99zM647 512h139v12l-139 8v-20zM807 639h-150v-21h150v21zM422 416l-152 102
l41 -47l103 -84zM807 575l-148 15l-12 -27l160 -8v20zM500 930l2 8l28 4l-26 12l4 15l-41 -2l6 -39l29 -31l24 -12l23 10l33 25l12 24l4 27l-45 -8l12 -21l-24 -27l-29 -2zM1206 639l-12 -6l-68 -55l80 -99v160zM750 932l-15 -23h-24l-11 15l23 16l-31 4v12l-47 9l6 -35
l17 -29l41 -18l26 -2l37 20l12 19l11 41l-62 4l15 -11zM887 688l8 62l-111 10l-6 -72h109zM877 1198l10 -12l39 22l16 -4l12 -49h27l12 12l-18 37l35 58l-31 18v10l-51 15v-41l-27 -11v-18l-18 -12zM1090 627l16 -13l16 4l41 31l27 27l22 37l-14 10h-29l-20 6l-29 14l-35 -6
q-4 -27 -7 -46t-5 -52zM778 438l-131 8v-104l131 -12v108zM422 678l-135 80v-15l-4 -26l2 -55v-99l131 -90l-2 123zM1047 678l-111 2l-2 -49v-13l-4 -63l39 -6l-17 -125l-98 6l-16 -12l104 -10l-4 -19h-100l-9 -10l109 -14l-12 -72l55 -2l25 162l8 73l-31 6l-2 17l41 2l10 6
l-57 33l4 10l61 -12l-61 30l10 11l43 -11l8 21zM195 831h-43l38 -28l3 -23l-41 15l36 -37l-8 -15l6 -198l23 -25v369l117 -66l14 21l-139 78v36l121 -69l88 -58l57 -28l6 20l-211 131l-26 15l-84 67l4 -159l39 -35v-11zM1262 952l-17 76l-39 102l-41 74l-47 58l-69 43h-23
l35 -39l51 -21l23 -22l6 -68l-51 27l-31 -60l24 -16v-39l31 6l-24 53l30 -10l21 -41l-11 -24l-16 -15h-47l-6 23l-25 4l2 -45h-28l28 -37l-14 -20l-43 10l-6 -56l84 13l16 35l45 -5l13 -57l-33 -27v-30l16 -13l37 25h47l12 23l-36 12l-11 18l19 86h14l29 -41zM733 1130h17
l20 46l23 16l-11 12l-6 17l2 43l-61 -21l-21 -16l-16 10l8 43l29 20l22 23l78 -4l25 27l-8 16h-101l-92 -27l-109 -53l-59 -47l-51 -70l59 25l27 -31l-35 -41l-20 -6l34 -6h11l73 49h66l37 -25l16 7l8 28l15 11l20 -9v-37zM1075 817l-8 14h-420l-135 -6l-14 -18l-13 -90
l-98 41l-22 -8l116 -56l2 -92l-10 -149v-187l37 8l4 82l84 -6l6 19l-90 12v33l98 -13l2 19l-96 14l2 45l88 -6l6 12l-92 19l6 192h152l22 21h-161l4 18h151l17 15h-168l4 45l239 8l287 -8v22zM1300 942l-6 -84l-16 -72l-25 -63l-6 -320l-43 -14l-102 143l-55 -14l-39 -287
l-66 9l-14 -9l-8 -192l61 -39l33 -29l-6 -30l-62 2l-49 37h-29l-16 16l14 156l-8 96l-125 2l-6 -107l-4 -114v-41l-31 -13l-16 13l-62 -21h-65l-2 23l22 22l103 43l-13 197l-200 -12l-301 286l-8 236l-27 20l-21 74v53l31 17l-6 159l188 -127l19 97l20 73l45 72l58 72l80 59
l159 60h45l-139 45l8 34h15l161 -40l-8 104l33 25h66l38 -11l60 -51l65 -16l66 -21l31 -26v-41l-41 -64l61 -57l57 -66l37 -69l31 -84z" />
    <glyph glyph-name="AE.sc" horiz-adv-x="1503" 
d="M760 2l-217 -4v49l131 16l74 416h-269l-293 -416l133 -16l-10 -49l-174 4l-155 -4l2 49l120 14l703 986l131 -3l590 3l-23 -275h-43l-71 215l-361 2l-80 -452l185 2l108 176h33l-49 -205l-23 -211h-33l-45 176l-184 2l-74 -418l383 2l146 228h43l-64 -291zM512 532h244
l82 463z" />
    <glyph glyph-name="AEacute.002" horiz-adv-x="1808" 
d="M-45 47l160 16l864 1373l143 -4l731 4l-30 -363h-45l-88 295l-469 4l-99 -647l242 4l133 244h35l-59 -277l-31 -282h-35l-55 243l-240 5l-92 -599l491 3l177 327h51l-78 -395l-754 4l-266 -4v49l172 19l90 593h-325l-367 -593l172 -19l-14 -49l-215 4l-203 -4zM614 725
h299l101 641zM1120 1530l164 211h211l-299 -211h-76z" />
    <glyph glyph-name="AEacute.sc" horiz-adv-x="1503" 
d="M760 2l-217 -4v49l131 16l74 416h-269l-293 -416l133 -16l-10 -49l-172 4l-157 -4l2 49l120 14l703 986l131 -3l590 3l-23 -275h-43l-71 215l-361 2l-80 -452l185 2l108 176h33l-47 -205l-25 -211h-33l-45 176l-184 2l-74 -418l383 2l146 228h43l-64 -291zM512 532h244
l82 463zM985 1145l94 209h187l-226 -209h-55z" />
    <glyph glyph-name="Aacute.002" horiz-adv-x="1374" 
d="M367 -2l-211 4l-205 -4l2 49l160 16l759 1352l158 49l135 -1401l154 -16l-10 -49l-273 4l-270 -4l2 49l174 19l-37 428h-467l-233 -428l174 -19zM471 557h428l-51 617v75zM1057 1741h211l-299 -211h-78z" />
    <glyph glyph-name="Aacute.sc" horiz-adv-x="1161" 
d="M397 410h340l-39 440v53zM862 2l-233 -4l4 49l137 16l-29 287h-374l-187 -287l135 -16l-8 -49l-164 4l-163 -4l2 49l120 14l611 957l155 53l111 -1010l115 -14l-9 -49zM762 1143l92 209h190l-225 -209h-57z" />
    <glyph glyph-name="Abreve.002" horiz-adv-x="1374" 
d="M367 -2l-211 4l-205 -4l2 49l160 16l759 1352l158 49l135 -1401l154 -16l-10 -49l-273 4l-270 -4l2 49l174 19l-37 428h-467l-233 -428l174 -19zM471 557h428l-51 617v75zM950 1630q144 0 275 123l30 -14q-97 -156 -299 -228q-160 0 -209 95.5t-63 132.5l39 16
q83 -125 227 -125z" />
    <glyph glyph-name="Abreve.sc" horiz-adv-x="1161" 
d="M397 410h340l-39 440v53zM862 2l-233 -4l4 49l137 16l-29 287h-374l-187 -287l135 -16l-8 -49l-164 4l-163 -4l2 49l120 14l611 957l155 53l111 -1010l115 -14l-9 -49zM828 1253q91 0 200 90l27 -26q-31 -57 -86 -100t-158 -80q-132 0 -174.5 72.5t-52.5 105.5l34 26
q46 -56 98 -72t112 -16z" />
    <glyph glyph-name="Acircumflex.002" horiz-adv-x="1374" 
d="M367 -2l-211 4l-205 -4l2 49l160 16l759 1352l158 49l135 -1401l154 -16l-10 -49l-273 4l-270 -4l2 49l174 19l-37 428h-467l-233 -428l174 -19zM471 557h428l-51 617v75zM688 1530l281 221h110l185 -221h-78l-178 115h-4l-240 -115h-76z" />
    <glyph glyph-name="Acircumflex.sc" horiz-adv-x="1161" 
d="M397 410h340l-39 440v53zM862 2l-233 -4l4 49l137 16l-29 287h-374l-187 -287l135 -16l-8 -49l-164 4l-163 -4l2 49l120 14l611 957l155 53l111 -1010l115 -14l-9 -49zM578 1145l225 213h104l131 -213h-59l-143 110h-5l-192 -110h-61z" />
    <glyph glyph-name="Adieresis.002" horiz-adv-x="1374" 
d="M367 -2l-211 4l-205 -4l2 49l160 16l759 1352l158 49l135 -1401l154 -16l-10 -49l-273 4l-270 -4l2 49l174 19l-37 428h-467l-233 -428l174 -19zM471 557h428l-51 617v75zM1204 1747l96 -12v-88l-34 -84l-66 -11l-100 11l4 98l37 74zM807 1747l98 -12l-2 -88l-35 -84
l-63 -11l-103 11l5 98l38 74z" />
    <glyph glyph-name="Adieresis.sc" horiz-adv-x="1165" 
d="M397 410h340l-39 440v53zM862 2l-233 -4l4 49l137 16l-29 287h-374l-187 -287l135 -16l-8 -49l-164 4l-163 -4l2 49l120 14l611 957l155 53l111 -1010l115 -14l-9 -49zM1016 1323l74 -10l-3 -82l-28 -72l-66 -10l-80 10l5 86l32 68zM682 1323l76 -10l-2 -82l-29 -72
l-68 -10l-77 10l4 86l30 68z" />
    <glyph glyph-name="Agrave.002" horiz-adv-x="1374" 
d="M367 -2l-211 4l-205 -4l2 49l160 16l759 1352l158 49l135 -1401l154 -16l-10 -49l-273 4l-270 -4l2 49l174 19l-37 428h-467l-233 -428l174 -19zM471 557h428l-51 617v75zM942 1530l-182 211h186l58 -211h-62z" />
    <glyph glyph-name="Agrave.sc" horiz-adv-x="1161" 
d="M784 1145l-172 209h179l45 -209h-52zM737 410l-39 440v53l-301 -493h340zM307 -2l-164 4l-163 -4l2 49l120 14l611 957l155 53l111 -1010l115 -14l-9 -49l-223 4l-233 -4l4 49l137 16l-29 287h-374l-187 -287l135 -16z" />
    <glyph glyph-name="Amacron.002" horiz-adv-x="1374" 
d="M367 -2l-211 4l-205 -4l2 49l160 16l759 1352l158 49l135 -1401l154 -16l-10 -49l-273 4l-270 -4l2 49l174 19l-37 428h-467l-233 -428l174 -19zM471 557h428l-51 617v75zM711 1673h579l-14 -86h-580z" />
    <glyph glyph-name="Amacron.sc" horiz-adv-x="1161" 
d="M397 410h340l-39 440v53zM862 2l-233 -4l4 49l137 16l-29 287h-374l-187 -287l135 -16l-8 -49l-164 4l-163 -4l2 49l120 14l611 957l155 53l111 -1010l115 -14l-9 -49zM598 1282h473l-16 -92h-471z" />
    <glyph glyph-name="Aogonek.001" horiz-adv-x="1374" 
d="M905 557l-47 617v75l-381 -692h428zM1016 -373q-193 0 -269.5 49.5t-54.5 141.5l10 45l244 170l-35 461h-469l-237 -428l174 -19l-12 -49l-207 4l-209 -4l2 49l160 16l770 1352l153 49l125 -1401l152 -16l-8 -49l-336 4l-129 -162l-11 -33q-16 -76 41.5 -106.5
t151.5 -30.5z" />
    <glyph glyph-name="Aogonek.sc" horiz-adv-x="1157" 
d="M739 410l-37 440l3 53l-304 -493h338zM823 -367q-168 0 -229.5 37t-44.5 113l14 90l209 164l-29 313h-374l-189 -287l133 -16l-6 -49l-164 4l-163 -4v49l120 14l619 957l153 53l103 -1010l117 -14l-11 -49l-284 4l-117 -164l-12 -59q-8 -45 29.5 -77t129.5 -32z" />
    <glyph glyph-name="Aring.002" horiz-adv-x="1374" 
d="M367 -2l-211 4l-205 -4l2 49l160 16l759 1352l158 49l135 -1401l154 -16l-10 -49l-273 4l-270 -4l2 49l174 19l-37 428h-467l-233 -428l174 -19zM471 557h428l-51 617v75zM799 1605q0 64 38 89t124 53q110 0 136.5 -50t26.5 -86q0 -65 -43 -94.5t-120 -48.5
q-107 0 -134.5 50.5t-27.5 86.5zM864 1607q0 -40 28 -65.5t68.5 -25.5t68.5 25.5t28 65.5t-28 67.5t-68.5 27.5t-68.5 -27.5t-28 -67.5z" />
    <glyph glyph-name="Aring.sc" horiz-adv-x="1161" 
d="M397 410h340l-39 440v53zM862 2l-233 -4l4 49l137 16l-29 287h-374l-187 -287l135 -16l-8 -49l-164 4l-163 -4l2 49l120 14l611 957l155 53l111 -1010l115 -14l-9 -49zM707 1265q0 -44 29.5 -72t76.5 -28t79 28t32 72t-32 72.5t-79 28.5t-76.5 -28.5t-29.5 -72.5z
M991 1264q0 -96 -69.5 -119t-104.5 -35q-123 0 -151.5 55.5t-28.5 95.5q0 71 47.5 104t128.5 56q178 0 178 -157z" />
    <glyph glyph-name="Aringacute.002" horiz-adv-x="1374" 
d="M367 -2l-211 4l-205 -4l2 49l160 16l759 1352l158 49l135 -1401l154 -16l-10 -49l-273 4l-270 -4l2 49l174 19l-37 428h-467l-233 -428l174 -19zM471 557h428l-51 617v75zM866 1607q0 -40 28 -65.5t69 -25.5t68.5 25.5t27.5 65.5t-27.5 67.5t-68.5 27.5t-69 -27.5
t-28 -67.5zM963 1468q-64 0 -113 33.5t-49 101.5t46 96.5t120 47.5q51 0 90 -21l18 23l154 4l-121 -74q20 -35 20 -83q0 -88 -165 -128z" />
    <glyph glyph-name="Aringacute.sc" horiz-adv-x="1161" 
d="M397 410h340l-39 440v53zM862 2l-233 -4l4 49l137 16l-29 287h-374l-187 -287l135 -16l-8 -49l-164 4l-163 -4l2 49l120 14l611 957l155 53l111 -1010l115 -14l-9 -49zM707 1265q0 -44 29.5 -72t76.5 -28t79 28t32 72t-32 72.5t-79 28.5t-76.5 -28.5t-29.5 -72.5z
M899 1405q90 -31 90 -134t-69.5 -126t-104.5 -35q-123 0 -151.5 55.5t-28.5 95.5q0 71 47.5 104t128.5 56l43 68l166 4z" />
    <glyph glyph-name="Atilde.002" horiz-adv-x="1374" 
d="M367 -2l-211 4l-205 -4l2 49l160 16l759 1352l158 49l135 -1401l154 -16l-10 -49l-273 4l-270 -4l2 49l174 19l-37 428h-467l-233 -428l174 -19zM471 557h428l-51 617v75zM774 1708l129 37l307 -133l103 131h30l-104 -189l-127 -30l-309 133l-98 -133h-31z" />
    <glyph glyph-name="Atilde.sc" horiz-adv-x="1177" 
d="M397 410h340l-39 440v53zM862 2l-233 -4l4 49l137 16l-29 287h-374l-187 -287l135 -16l-8 -49l-164 4l-163 -4l2 49l120 14l611 957l155 53l111 -1010l115 -14l-9 -49zM635 1321l102 29l267 -97l81 95h31l-84 -181l-100 -24l-268 100l-80 -96h-29z" />
    <glyph glyph-name="B.sc" horiz-adv-x="1026" 
d="M520 580q103 0 184.5 71.5t80.5 160.5q-2 181 -179 181h-94l-72 -413h80zM573 1044q53 0 111 3q152 2 229.5 -60.5t77.5 -149.5t-67.5 -154t-200.5 -97l-86 -21q170 -10 258 -74.5t88 -156.5q0 -165 -125 -218t-186 -71l-131 -47l-285 4l-233 -4v49l133 16l161 924
l-124 14l8 46q47 -2 90 -3h282zM766 319q0 84 -54.5 145.5t-170.5 61.5h-111l-78 -454h244q170 85 170 247z" />
    <glyph glyph-name="C.sc" horiz-adv-x="1077" 
d="M409.5 801q-83.5 -133 -83.5 -312t92 -292t241 -140q129 49 185 95l121 204h59l-59 -278l-381 -105q-217 0 -345 124t-128 322t117 360.5t362 240.5l160 55q186 0 313 -82l-14 -278h-56l-57 186q-103 73 -283 90q-160 -57 -243.5 -190z" />
    <glyph glyph-name="Cacute.002" horiz-adv-x="1253" 
d="M445.5 1107.5q-107.5 -192.5 -107.5 -457.5t117 -418.5t309 -182.5q148 59 233 127l150 273h67l-71 -345l-463 -141q-258 0 -417 169.5t-159 444.5q0 274 140.5 503.5t443.5 332.5l182 60q223 0 400 -127l-17 -332h-65l-70 241q-120 101 -356 129q-209 -84 -316.5 -276.5
zM811 1530l164 211h211l-297 -211h-78z" />
    <glyph glyph-name="Cacute.sc" horiz-adv-x="1077" 
d="M409.5 801q-83.5 -133 -83.5 -312t92 -292t241 -140q129 49 185 95l121 204h59l-59 -278l-381 -105q-217 0 -345 124t-128 322t117 360.5t362 240.5l160 55q186 0 313 -82l-14 -278h-56l-57 186q-103 73 -283 90q-160 -57 -243.5 -190zM715 1145l92 209h184l-219 -209
h-57z" />
    <glyph glyph-name="Ccaron.002" horiz-adv-x="1253" 
d="M445.5 1107.5q-107.5 -192.5 -107.5 -457.5t117 -418.5t309 -182.5q148 59 233 127l150 273h67l-71 -345l-463 -141q-258 0 -417 169.5t-159 444.5q0 274 140.5 503.5t443.5 332.5l182 60q223 0 400 -127l-17 -332h-65l-70 241q-120 101 -356 129q-209 -84 -316.5 -276.5
zM1227 1749l-279 -223h-114l-183 223h76l180 -119h4l238 119h78z" />
    <glyph glyph-name="Ccaron.sc" horiz-adv-x="1077" 
d="M409.5 801q-83.5 -133 -83.5 -312t92 -292t241 -140q129 49 185 95l121 204h59l-59 -278l-381 -105q-217 0 -345 124t-128 322t117 360.5t362 240.5l160 55q186 0 313 -82l-14 -278h-56l-57 186q-103 73 -283 90q-160 -57 -243.5 -190zM1026 1358l-227 -213h-101
l-135 213h62l141 -111h4l193 111h63z" />
    <glyph glyph-name="Ccedilla.001" horiz-adv-x="1253" 
d="M445.5 1107.5q-107.5 -192.5 -107.5 -457.5t117 -418.5t309 -182.5q148 59 233 127l150 273h67l-71 -345l-459 -139l-33 -39q59 -4 102.5 -30.5t43.5 -65.5q0 -63 -50 -96t-131 -58l-131 -38h-88l66 77h170q47 27 47 70q0 71 -152 76l101 104q-238 16 -381.5 184.5
t-143.5 434.5t140.5 496t443.5 333l182 60q223 0 400 -127l-17 -332h-65l-70 241q-120 101 -356 129q-209 -84 -316.5 -276.5z" />
    <glyph glyph-name="Ccedilla.sc" horiz-adv-x="1077" 
d="M409.5 801q-83.5 -133 -83.5 -312t91.5 -291.5t239.5 -140.5q131 48 185 95l123 204h59l-59 -278l-381 -105h-9l-34 -39q57 -4 93 -33.5t36 -68.5q0 -65 -46.5 -98.5t-129.5 -65.5l-107 -35h-70l50 70h133q55 33 55 84q0 81 -111 86l86 102q-193 16 -305 136t-112 313
q0 308 174 431.5t303 164.5l160 55q182 0 315 -82l-16 -278h-56l-57 186q-103 73 -283 90q-160 -57 -243.5 -190z" />
    <glyph glyph-name="Ccircumflex.002" horiz-adv-x="1253" 
d="M445.5 1107.5q-107.5 -192.5 -107.5 -457.5t117 -418.5t309 -182.5q148 59 233 127l150 273h67l-71 -345l-463 -141q-258 0 -417 169.5t-159 444.5q0 274 140.5 503.5t443.5 332.5l182 60q223 0 400 -127l-17 -332h-65l-70 241q-120 101 -356 129q-209 -84 -316.5 -276.5
zM616 1530l279 221h111l184 -221h-78l-178 115h-4l-238 -115h-76z" />
    <glyph glyph-name="Ccircumflex.sc" horiz-adv-x="1077" 
d="M409.5 801q-83.5 -133 -83.5 -312t92 -292t241 -140q129 49 185 95l121 204h59l-59 -278l-381 -105q-217 0 -345 124t-128 322t117 360.5t362 240.5l160 55q186 0 313 -82l-14 -278h-56l-57 186q-103 73 -283 90q-160 -57 -243.5 -190zM541 1145l225 213h102l133 -213
h-61l-141 110h-4l-193 -110h-61z" />
    <glyph glyph-name="Cdotaccent.002" horiz-adv-x="1253" 
d="M445.5 1107.5q-107.5 -192.5 -107.5 -457.5t117 -418.5t309 -182.5q148 59 233 127l150 273h67l-71 -345l-463 -141q-258 0 -417 169.5t-159 444.5q0 274 140.5 503.5t443.5 332.5l182 60q223 0 400 -127l-17 -332h-65l-70 241q-120 101 -356 129q-209 -84 -316.5 -276.5
zM932 1747l102 -10l-2 -97l-35 -84l-69 -10l-113 10l6 99l37 82z" />
    <glyph glyph-name="Cdotaccent.sc" horiz-adv-x="1077" 
d="M409.5 801q-83.5 -133 -83.5 -312t92 -292t241 -140q129 49 185 95l121 204h59l-59 -278l-381 -105q-217 0 -345 124t-128 322t117 360.5t362 240.5l160 55q186 0 313 -82l-14 -278h-56l-57 186q-103 73 -283 90q-160 -57 -243.5 -190zM729 1327l68 8l86 -8v-90l-31 -80
l-64 -8l-98 8l10 92z" />
    <glyph glyph-name="D.sc" horiz-adv-x="1146" 
d="M1016.5 276q-116.5 -154 -348.5 -231l-148 -47l-268 4l-229 -4v49l131 16l159 924l-125 14l9 46l227 -3l252 3q207 0 332 -115.5t125 -308.5t-116.5 -347zM834 887q-84 104 -209 104h-115l-160 -917h240q144 72 236 217.5t92 318.5t-84 277z" />
    <glyph glyph-name="Dcaron.002" horiz-adv-x="1386" 
d="M1001 1228q-109 142 -278 146h-154l-200 -1288h319q186 97 304 301t118 452q0 247 -109 389zM1201.5 369q-144.5 -219 -425.5 -312l-180 -59l-328 4l-282 -4l-2 49l170 19l202 1308l-166 15l11 47l272 -4l311 4q249 4 405.5 -161t156.5 -426t-144.5 -480zM1106 1749
l-279 -223h-112l-183 223h76l180 -119h5l237 119h76z" />
    <glyph glyph-name="Dcaron.sc" horiz-adv-x="1146" 
d="M801 888q-84 103 -209 103h-115l-158 -917h240q142 71 234 216t92 320t-84 278zM985 276.5q-115 -155.5 -348 -231.5l-150 -47l-272 4l-225 -4v49l131 16l160 924l-125 14l10 46l225 -3l254 3q205 0 330 -115.5t125 -307.5t-115 -347.5zM569 1145l-131 213h60l141 -111h6
l191 111h61l-225 -213h-103z" />
    <glyph glyph-name="Dcroat.sc" horiz-adv-x="1146" 
d="M801 888q-84 103 -209 103h-115l-71 -416h188l-10 -55h-189l-76 -446h240q142 71 234 216t92 320t-84 278zM985 276.5q-115 -155.5 -348 -231.5l-150 -47l-280 4l-217 -4v49l131 16l78 457h-133l10 55h133l72 412l-125 14l10 46l219 -3l260 3q205 0 330 -115.5
t125 -307.5t-115 -347.5z" />
    <glyph glyph-name="E.sc" horiz-adv-x="1013" 
d="M25 47l129 16l161 924l-125 12l9 48l223 -3l614 3l-22 -283h-45l-74 223l-385 2l-72 -411l205 4l107 172h38l-47 -205l-24 -203h-37l-47 172l-203 2l-80 -461l414 2l143 232h47l-63 -295l-651 4l-217 -4z" />
    <glyph glyph-name="Eacute.002" horiz-adv-x="1183" 
d="M-16 47l172 19l202 1304l-163 19l10 47l274 -4l750 4l-29 -363h-45l-88 295l-498 4l-90 -592l269 4l129 230h41l-58 -262l-29 -263h-40l-56 230l-266 4l-102 -660l530 3l172 317h51l-76 -385l-790 4l-270 -4v49zM696 1530l164 211h213l-299 -211h-78z" />
    <glyph glyph-name="Eacute.sc" horiz-adv-x="1013" 
d="M25 47l129 16l161 924l-125 12l9 48l221 -3l616 3l-22 -283h-45l-74 223l-385 2l-72 -411l205 4l107 172h38l-47 -205l-24 -203h-37l-47 172l-203 2l-80 -461l414 2l143 232h47l-63 -295l-653 4l-215 -4zM721 1354h188l-227 -209h-57z" />
    <glyph glyph-name="Ebreve.002" horiz-adv-x="1183" 
d="M-16 47l172 19l202 1304l-163 19l10 47l274 -4l750 4l-29 -363h-45l-88 295l-498 4l-90 -592l269 4l129 230h41l-58 -262l-29 -263h-40l-56 230l-266 4l-102 -660l530 3l172 317h51l-76 -385l-790 4l-270 -4v49zM789 1655q145 0 274 129l29 -25q-95 -152 -297 -231
q-112 0 -179 68.5t-98 162.5l39 27q87 -131 232 -131z" />
    <glyph glyph-name="Ebreve.sc" horiz-adv-x="1013" 
d="M25 47l129 16l161 924l-125 12l9 48l221 -3l616 3l-22 -283h-45l-74 223l-385 2l-72 -411l205 4l107 172h38l-47 -205l-24 -203h-37l-47 172l-203 2l-80 -461l414 2l143 232h47l-63 -295l-651 4l-217 -4zM676 1253q78 0 133 33t84 57l27 -26q-63 -115 -242 -180
q-173 0 -227 178l34 26q73 -88 191 -88z" />
    <glyph glyph-name="Ecaron.002" horiz-adv-x="1183" 
d="M-16 47l172 19l202 1304l-163 19l10 47l274 -4l750 4l-29 -363h-45l-88 295l-498 4l-90 -592l269 4l129 230h41l-58 -262l-29 -263h-40l-56 230l-266 4l-102 -660l530 3l172 317h51l-76 -385l-790 4l-270 -4v49zM1114 1749l-280 -223h-113l-182 223h75l183 -119h2
l239 119h76z" />
    <glyph glyph-name="Ecaron.sc" horiz-adv-x="1013" 
d="M25 47l129 16l161 924l-125 12l9 48l223 -3l614 3l-22 -283h-45l-74 223l-385 2l-72 -411l205 4l107 172h38l-47 -205l-24 -203h-37l-47 172l-203 2l-80 -461l414 2l143 232h47l-63 -295l-651 4l-217 -4zM672 1249h2l192 109h64l-225 -213h-103l-135 213h63z" />
    <glyph glyph-name="Ecircumflex.002" horiz-adv-x="1183" 
d="M-16 47l172 19l202 1304l-163 19l10 47l274 -4l750 4l-29 -363h-45l-88 295l-498 4l-90 -592l269 4l129 230h41l-58 -262l-29 -263h-40l-56 230l-266 4l-102 -660l530 3l172 317h51l-76 -385l-790 4l-270 -4v49zM492 1530l278 221h111l184 -221h-76l-180 115h-4
l-238 -115h-75z" />
    <glyph glyph-name="Ecircumflex.sc" horiz-adv-x="1013" 
d="M1036 1047l-22 -283h-45l-74 223l-385 2l-72 -411l205 4l107 172h38l-47 -205l-24 -203h-37l-47 172l-203 2l-80 -461l414 2l143 232h47l-63 -295l-649 4l-219 -4l2 49l129 16l161 924l-125 12l9 48l221 -3zM657 1358h105l131 -213h-59l-142 110h-4l-194 -110h-60z" />
    <glyph glyph-name="Edieresis.002" horiz-adv-x="1183" 
d="M-16 47l172 19l202 1304l-163 19l10 47l274 -4l750 4l-29 -363h-45l-88 295l-498 4l-90 -592l269 4l129 230h41l-58 -262l-29 -263h-40l-56 230l-266 4l-102 -660l530 3l172 317h51l-76 -385l-790 4l-270 -4v49zM1014 1747l98 -12l-2 -88l-35 -84l-63 -11l-105 11l6 98
l39 74zM616 1747l99 -12v-88l-37 -84l-64 -11l-102 11l4 98l37 74z" />
    <glyph glyph-name="Edieresis.sc" horiz-adv-x="1013" 
d="M25 47l129 16l161 924l-125 12l9 48l219 -3l618 3l-22 -283h-45l-74 223l-385 2l-72 -411l205 4l107 172h38l-47 -205l-24 -203h-37l-47 172l-203 2l-80 -461l414 2l143 232h47l-63 -295l-649 4l-219 -4zM866 1323l76 -10l-6 -82l-27 -72l-67 -10l-76 10l4 86l31 68z
M535 1323l73 -10l-2 -82l-28 -72l-68 -10l-76 10l6 86l29 68z" />
    <glyph glyph-name="Edotaccent.002" horiz-adv-x="1183" 
d="M-16 47l172 19l202 1304l-163 19l10 47l274 -4l750 4l-29 -363h-45l-88 295l-498 4l-90 -592l269 4l129 230h41l-58 -262l-29 -263h-40l-56 230l-266 4l-102 -660l530 3l172 317h51l-76 -385l-790 4l-270 -4v49zM823 1747l103 -10l-4 -97l-35 -84l-68 -10l-114 10l6 99
l39 82z" />
    <glyph glyph-name="Edotaccent.sc" horiz-adv-x="1013" 
d="M25 47l129 16l161 924l-125 12l9 48l221 -3l616 3l-22 -283h-45l-74 223l-385 2l-72 -411l205 4l107 172h38l-47 -205l-24 -203h-37l-47 172l-203 2l-80 -461l414 2l143 232h47l-63 -295l-651 4l-217 -4zM621 1319l67 6l86 -8l-2 -90l-31 -78l-61 -10l-96 10l6 92z" />
    <glyph glyph-name="Egrave.002" horiz-adv-x="1183" 
d="M-16 47l172 19l202 1304l-163 19l10 47l274 -4l750 4l-29 -363h-45l-88 295l-498 4l-90 -592l269 4l129 230h41l-58 -262l-29 -263h-40l-56 230l-266 4l-102 -660l530 3l172 317h51l-76 -385l-790 4l-270 -4v49zM803 1530l-180 211h188l55 -211h-63z" />
    <glyph glyph-name="Egrave.sc" horiz-adv-x="1013" 
d="M25 47l129 16l161 924l-125 12l9 48l217 -3l620 3l-22 -283h-45l-74 223l-385 2l-72 -411l205 4l107 172h38l-47 -205l-24 -203h-37l-47 172l-203 2l-80 -461l414 2l143 232h47l-63 -295l-651 4l-217 -4zM672 1145l-170 209h178l47 -209h-55z" />
    <glyph glyph-name="Emacron.002" horiz-adv-x="1183" 
d="M-16 47l172 19l202 1304l-163 19l10 47l274 -4l750 4l-29 -363h-45l-88 295l-498 4l-90 -592l269 4l129 230h41l-58 -262l-29 -263h-40l-56 230l-266 4l-102 -660l530 3l172 317h51l-76 -385l-790 4l-270 -4v49zM537 1673h579l-16 -86h-578z" />
    <glyph glyph-name="Emacron.sc" horiz-adv-x="1013" 
d="M25 47l129 16l161 924l-125 12l9 48l221 -3l616 3l-22 -283h-45l-74 223l-385 2l-72 -411l205 4l107 172h38l-47 -205l-24 -203h-37l-47 172l-203 2l-80 -461l414 2l143 232h47l-63 -295l-653 4l-215 -4zM449 1282h475l-15 -92h-475z" />
    <glyph glyph-name="Eng.001" horiz-adv-x="1400" 
d="M1257 1370l-165 19l10 47l203 -4l208 4v-47l-172 -19l-215 -1370h2l-219 -350h-245l32 168h195l147 145l52 37h-91l-555 1229l-10 82l-194 -1245l163 -19l-10 -49l-200 4l-209 -4v49l170 19l206 1296l-159 27l10 47l192 -4l168 4l504 -1084l17 -78z" />
    <glyph glyph-name="Eng.sc" horiz-adv-x="1175" 
d="M907 328l13 -76l129 733l-127 14l6 48l162 -3l163 3l2 -48l-135 -14l-172 -985h-6l-209 -356h-207l31 155h148l163 181l43 20h-84l-438 848l-10 76l-154 -861l133 -16l-10 -49l-166 4l-159 -4l2 49l131 16l161 922l-122 14l10 48l157 -3l150 3z" />
    <glyph glyph-name="Eogonek.001" horiz-adv-x="1183" 
d="M-16 47l172 19l202 1304l-163 19l10 47l274 -4l750 4l-29 -363h-45l-88 295l-498 4l-90 -592l269 4l129 230h41l-58 -262l-29 -263h-40l-56 230l-266 4l-102 -660l530 3l172 317h51l-76 -385l-122 2l-121 -160l-8 -33q-28 -104 59.5 -120.5t134.5 -16.5l-8 -43
q-193 0 -268.5 49.5t-53.5 141.5l11 39l188 143l-602 2l-270 -4v49z" />
    <glyph glyph-name="Eogonek.sc" horiz-adv-x="1013" 
d="M815 -367q-168 0 -229.5 37t-44.5 113l14 90l178 127l-495 2l-215 -4l2 49l129 16l161 924l-125 12l9 48l219 -3l618 3l-22 -283h-45l-74 223l-385 2l-72 -411l205 4l107 172h38l-47 -205l-24 -203h-37l-47 172l-203 2l-80 -461l414 2l143 232h47l-63 -295l-103 2
l-114 -162l-12 -59q-10 -45 27.5 -77t129.5 -32z" />
    <glyph glyph-name="Eth.sc" horiz-adv-x="1146" 
d="M881 613q0 172 -84 275t-209 103h-115l-74 -416h197l-12 -53h-193l-78 -448h240q222 111 275 280.5t53 258.5zM978 274.5q-116 -153.5 -347 -229.5l-150 -47l-264 4l-233 -4v49l133 16l78 459h-129l10 53h129l71 412l-124 14l8 46l227 -3l252 3q205 0 330 -115.5
t125 -309.5t-116 -347.5z" />
    <glyph glyph-name="Euro.sc" horiz-adv-x="1077" 
d="M170 406h-115l11 61h106q4 63 21 115h-103l12 65h111q124 267 506 379l153 47q97 -13 238 -98l-86 -127q-147 106 -283 139q-135 -49 -221 -138t-121 -202h514l-43 -65h-485q-9 -66 -6 -115h403l-43 -61h-356q18 -139 99 -221.5t204 -104.5q105 11 277 94l20 -39
q-108 -71 -354 -162q-190 0 -320.5 115t-138.5 305v13z" />
    <glyph glyph-name="Euro.tlf" 
d="M119 563h-146l13 68h131q10 116 30 178h-127l11 70h135q152 381 635 534l178 57q125 -27 281 -133l-103 -147q-99 80 -198 124t-136 56q-180 -70 -292.5 -201t-161.5 -290h659l-47 -70h-627q-16 -86 -12 -178h524l-49 -68h-471q18 -199 122.5 -323.5t264.5 -153.5
q122 22 218 73.5t126 67.5l25 -34q-190 -126 -430 -232q-229 4 -385 160t-168 420v22z" />
    <glyph glyph-name="Euro.tlf.sc" 
d="M233 406h-116l12 61h104q4 59 23 115h-104l10 65h112q57 123 181.5 221.5t324.5 157.5l154 47q90 -12 240 -98l-89 -127q-148 106 -282 139q-135 -49 -220 -138t-120 -202h512l-43 -65h-481q-14 -68 -11 -115h406l-45 -61h-357q18 -139 100.5 -221.5t205.5 -104.5
q103 12 274 94l23 -39q-115 -73 -357 -162q-188 0 -317.5 114t-139.5 306v13z" />
    <glyph glyph-name="F.sc" horiz-adv-x="952" 
d="M537 47l-11 -49l-280 4l-223 -4l2 49l129 16l161 924l-125 12l9 48l221 -3l616 3l-22 -287h-45l-74 227l-385 2l-74 -432l203 4l106 170h39l-45 -203l-24 -202h-39l-45 172l-205 4l-76 -441z" />
    <glyph glyph-name="G.sc" horiz-adv-x="1118" 
d="M328 492q0 -281 125 -352.5t192 -86.5q80 18 152 49l55 322l-125 14l10 49l211 -2l189 2v-49l-93 -14l-59 -336l-422 -115q-200 0 -326 126t-126 319q0 311 184 438t319 168l154 49q176 0 315 -86l-14 -268h-59l-54 172q-99 94 -290 102q-154 -61 -246 -193t-92 -308z
" />
    <glyph glyph-name="Gbreve.002" horiz-adv-x="1339" 
d="M236 1082.5q152 235.5 462 334.5l183 53q135 0 237.5 -45t155.5 -94l-19 -311h-65l-64 219q-51 53 -143 97t-219 48q-323 -145 -385 -369.5t-62 -364.5q0 -269 113.5 -422t304.5 -183q131 44 207 102l68 447l-158 20l10 43l256 2l225 3v-48l-122 -20l-74 -483l-506 -148
q-250 0 -403.5 169t-153.5 442t152 508.5zM1042 1667.5q71 37.5 119 85.5l31 -14q-111 -161 -299 -228q-198 0 -272 228l36 16q52 -79 117.5 -102t131 -23t136.5 37.5z" />
    <glyph glyph-name="Gbreve.sc" horiz-adv-x="1118" 
d="M328 492q0 -281 125 -352.5t192 -86.5q80 18 152 49l55 322l-125 14l10 49l211 -2l189 2v-49l-93 -14l-59 -336l-422 -115q-200 0 -326 126t-126 319q0 311 184 438t319 168l154 49q176 0 315 -86l-14 -268h-59l-54 172q-99 94 -290 102q-154 -61 -246 -193t-92 -308z
M768 1253q80 0 134 33t83 57l27 -26q-63 -115 -242 -180q-175 0 -229 178l37 26q73 -88 190 -88z" />
    <glyph glyph-name="Gcircumflex.002" horiz-adv-x="1339" 
d="M236 1082.5q152 235.5 462 334.5l183 53q135 0 237.5 -45t155.5 -94l-19 -311h-65l-64 219q-51 53 -143 97t-219 48q-323 -145 -385 -369.5t-62 -364.5q0 -269 113.5 -422t304.5 -183q131 44 207 102l68 447l-158 20l10 43l256 2l225 3v-48l-122 -20l-74 -483l-506 -148
q-250 0 -403.5 169t-153.5 442t152 508.5zM623 1530l280 221h111l184 -221h-78l-178 115h-4l-238 -115h-77z" />
    <glyph glyph-name="Gcircumflex.sc" horiz-adv-x="1118" 
d="M328 492q0 -281 125 -352.5t192 -86.5q80 18 152 49l55 322l-125 14l10 49l213 -2l187 2v-49l-93 -14l-59 -336l-422 -115q-200 0 -326 126t-126 319q0 311 184 438t319 168l154 49q176 0 315 -86l-14 -268h-59l-54 172q-99 94 -290 102q-154 -61 -246 -193t-92 -308z
M602 1145h-61l225 213h102l133 -213h-61l-141 110h-4z" />
    <glyph glyph-name="Gcommaaccent.001" horiz-adv-x="1339" 
d="M236 1082.5q152 235.5 462 334.5l183 53q135 0 237.5 -45t155.5 -94l-19 -311h-65l-64 219q-51 53 -143 97t-219 48q-323 -145 -385 -369.5t-62 -364.5q0 -269 113.5 -422t304.5 -183q131 44 207 102l68 447l-158 20l10 43l256 2l225 3v-48l-122 -20l-74 -483l-506 -148
q-250 0 -403.5 169t-153.5 442t152 508.5zM600 -211l-76 51l13 70h204l-22 -123l-182 -152l-39 19z" />
    <glyph glyph-name="Gcommaaccent.sc" horiz-adv-x="1118" 
d="M328 492q0 -281 125 -352.5t192 -86.5q80 18 152 49l55 322l-125 14l10 49l211 -2l189 2v-49l-93 -14l-59 -336l-422 -115q-200 0 -326 126t-126 319q0 311 184 438t319 168l154 49q176 0 315 -86l-14 -268h-59l-54 172q-99 94 -290 102q-154 -61 -246 -193t-92 -308z
M498 -197l-45 58l10 63h178l-23 -119l-174 -178l-41 11z" />
    <glyph glyph-name="Gdotaccent.002" horiz-adv-x="1339" 
d="M236 1082.5q152 235.5 462 334.5l183 53q135 0 237.5 -45t155.5 -94l-19 -311h-65l-64 219q-51 53 -143 97t-219 48q-323 -145 -385 -369.5t-62 -364.5q0 -269 113.5 -422t304.5 -183q131 44 207 102l68 447l-158 20l10 43l256 2l225 3v-48l-122 -20l-74 -483l-506 -148
q-250 0 -403.5 169t-153.5 442t152 508.5zM936 1747l102 -10l-2 -97l-35 -84l-69 -10l-115 10l8 99l37 82z" />
    <glyph glyph-name="Gdotaccent.sc" horiz-adv-x="1118" 
d="M328 492q0 -281 125 -352.5t192 -86.5q80 18 152 49l55 322l-125 14l10 49l211 -2l189 2v-49l-93 -14l-59 -336l-422 -115q-200 0 -326 126t-126 319q0 311 184 438t319 168l154 49q176 0 315 -86l-14 -268h-59l-54 172q-99 94 -290 102q-154 -61 -246 -193t-92 -308z
M729 1327l68 8l86 -8v-90l-33 -80l-62 -8l-98 8l8 92z" />
    <glyph glyph-name="H.sc" horiz-adv-x="1196" 
d="M246 2l-223 -4l2 49l131 16l159 922l-125 14l11 48l219 -3l217 3v-48l-125 -14l-74 -414h434l72 414l-123 14l10 48l222 -3l215 3v-48l-127 -14l-162 -922l125 -16l-8 -49l-219 4l-226 -4l4 49l127 16l80 451h-432l-80 -451l125 -16l-12 -49z" />
    <glyph glyph-name="Hbar.sc" horiz-adv-x="1196" 
d="M872 571l27 158h-434l-27 -158h434zM190 999l11 48l219 -3l217 3v-48l-125 -14l-39 -209h434l37 209l-123 14l10 48l222 -3l215 3v-48l-127 -14l-162 -922l125 -16l-8 -49l-219 4l-226 -4l4 49l127 16l80 451h-432l-80 -451l125 -16l-12 -49l-217 4l-223 -4l2 49l131 16
l159 922z" />
    <glyph glyph-name="Hcircumflex.002" horiz-adv-x="1409" 
d="M254 2l-270 -4v49l172 19l200 1304l-163 19l12 47l264 -4l262 4v-47l-162 -19l-94 -592h567l91 592l-160 19l10 47l266 -4l260 4l-2 -47l-161 -19l-201 -1304l160 -19l-11 -49l-262 4l-270 -4l-2 49l172 19l100 645h-565l-98 -645l159 -19l-10 -49zM594 1530l278 221h113
l182 -221h-75l-181 115h-4l-237 -115h-76z" />
    <glyph glyph-name="Hcircumflex.sc" horiz-adv-x="1196" 
d="M190 999l11 48l219 -3l217 3v-48l-125 -14l-74 -414h434l72 414l-123 14l10 48l222 -3l215 3v-48l-127 -14l-162 -922l125 -16l-8 -49l-219 4l-226 -4l4 49l127 16l80 451h-432l-80 -451l125 -16l-12 -49l-217 4l-223 -4l2 49l131 16l159 922zM532 1145l224 213h100
l135 -213h-59l-144 110h-6l-190 -110h-60z" />
    <glyph glyph-name="I.sc" horiz-adv-x="565" 
d="M25 47l131 16l159 922l-125 14l9 48l221 -3l219 3l-2 -48l-125 -14l-162 -922l125 -16l-8 -49l-223 4l-221 -4z" />
    <glyph glyph-name="IJ.sc" horiz-adv-x="1024" 
d="M350 63l121 -16l-8 -49l-219 4l-221 -4v49l133 16l159 924l-125 14l11 48l221 -2l194 2v-48l-106 -14zM383 -258l31 162h164q43 61 67 188l160 895l-105 14l9 48l196 -2l221 2l-2 -48l-125 -14l-145 -815q-16 -102 -61 -166.5t-111 -124.5l-190 -139h-109z" />
    <glyph glyph-name="Iacute.002" horiz-adv-x="634" 
d="M731 1389l-162 -19l-200 -1304l159 -19l-10 -49l-266 4l-268 -4v49l172 19l202 1304l-163 19l8 47l266 -4l264 4zM575 1741h213l-301 -211h-77z" />
    <glyph glyph-name="Iacute.sc" horiz-adv-x="565" 
d="M25 47l131 16l159 922l-125 14l9 48l221 -3l219 3l-2 -48l-125 -14l-162 -922l125 -16l-8 -49l-223 4l-221 -4zM494 1354h188l-225 -209h-58z" />
    <glyph glyph-name="Ibreve.002" horiz-adv-x="634" 
d="M731 1389l-162 -19l-200 -1304l159 -19l-10 -49l-266 4l-268 -4v49l172 19l202 1304l-163 19l8 47l266 -4l264 4zM477 1630q115 0 178.5 33.5t126.5 89.5l29 -14q-97 -156 -299 -228q-196 0 -270 228l37 16q83 -125 198 -125z" />
    <glyph glyph-name="Ibreve.sc" horiz-adv-x="565" 
d="M350 63l125 -16l-8 -49l-223 4l-221 -4l2 49l131 16l159 922l-125 14l9 48l221 -3l219 3l-2 -48l-125 -14zM465 1253q78 0 133 33t84 57l29 -26q-37 -60 -90 -101.5t-156 -78.5q-171 0 -225 178l34 26q73 -88 191 -88z" />
    <glyph glyph-name="Icircumflex.002" horiz-adv-x="634" 
d="M731 1389l-162 -19l-200 -1304l159 -19l-10 -49l-266 4l-268 -4v49l172 19l202 1304l-163 19l8 47l266 -4l264 4zM190 1530l281 221h113l182 -221h-76l-182 115h-2l-238 -115h-78z" />
    <glyph glyph-name="Icircumflex.sc" horiz-adv-x="565" 
d="M350 63l125 -16l-8 -49l-223 4l-221 -4l2 49l131 16l159 922l-125 14l9 48l221 -3l219 3l-2 -48l-125 -14zM207 1145l225 213h103l133 -213h-60l-143 110h-4l-193 -110h-61z" />
    <glyph glyph-name="Idieresis.002" horiz-adv-x="634" 
d="M731 1389l-162 -19l-200 -1304l159 -19l-10 -49l-266 4l-268 -4v49l172 19l202 1304l-163 19l8 47l266 -4l264 4zM700 1747l95 -12l-2 -88l-37 -78l-58 -13l-104 13l6 92l37 74zM330 1747l92 -12v-88l-35 -78l-61 -13l-101 13l6 92l35 74z" />
    <glyph glyph-name="Idieresis.sc" horiz-adv-x="565" 
d="M512 985l-162 -922l125 -16l-8 -49l-223 4l-221 -4l2 49l131 16l159 922l-125 14l9 48l221 -3l219 3l-2 -48zM664 1319l34 -39l-12 -78l-33 -47h-88l-33 39l11 78l37 45zM317 1323l72 -10v-82l-31 -70l-63 -10l-78 10l4 84l33 68z" />
    <glyph glyph-name="Idotaccent.002" horiz-adv-x="634" 
d="M731 1389l-162 -19l-200 -1304l159 -19l-10 -49l-266 4l-268 -4v49l172 19l202 1304l-163 19l8 47l266 -4l264 4zM526 1747l103 -10l-2 -97l-35 -84l-70 -10l-112 10l6 99l37 82z" />
    <glyph glyph-name="Idotaccent.sc" horiz-adv-x="565" 
d="M512 985l-162 -922l125 -16l-8 -49l-223 4l-221 -4l2 49l131 16l159 922l-125 14l9 48l221 -3l219 3l-2 -48zM399 1319l68 6l86 -8v-90l-31 -78l-63 -10l-97 10l5 92z" />
    <glyph glyph-name="Igrave.002" horiz-adv-x="634" 
d="M731 1389l-162 -19l-200 -1304l159 -19l-10 -49l-266 4l-268 -4v49l172 19l202 1304l-163 19l8 47l266 -4l264 4zM489 1530l-182 211h189l57 -211h-64z" />
    <glyph glyph-name="Igrave.sc" horiz-adv-x="565" 
d="M25 47l131 16l159 922l-125 14l9 48l221 -3l219 3l-2 -48l-125 -14l-162 -922l125 -16l-8 -49l-223 4l-221 -4zM432 1145l-170 209h178l45 -209h-53z" />
    <glyph glyph-name="Imacron.002" horiz-adv-x="634" 
d="M731 1389l-162 -19l-200 -1304l159 -19l-10 -49l-266 4l-268 -4v49l172 19l202 1304l-163 19l8 47l266 -4l264 4zM221 1673h580l-15 -86h-579z" />
    <glyph glyph-name="Imacron.sc" horiz-adv-x="565" 
d="M512 985l-162 -922l125 -16l-8 -49l-223 4l-221 -4l2 49l131 16l159 922l-125 14l9 48l221 -3l219 3l-2 -48zM233 1282h472l-13 -92h-473z" />
    <glyph glyph-name="Iogonek.001" horiz-adv-x="634" 
d="M731 1389l-162 -19l-200 -1304l159 -19l-10 -49l-217 2l-123 -160l-8 -33q-16 -76 43 -106.5t154 -30.5l-11 -43q-193 0 -268.5 49.5t-50.5 141.5l10 39l193 145l-256 -4v49l172 19l202 1304l-163 19l8 47l266 -4l264 4z" />
    <glyph glyph-name="Iogonek.sc" horiz-adv-x="565" 
d="M512 985l-162 -922l125 -16l-8 -49l-188 2l-105 -164l-12 -59q-10 -43 28.5 -75t131.5 -32l-7 -39q-166 0 -227 38t-47 114l16 90l162 129l-196 -4l2 49l131 16l159 922l-125 14l9 48l221 -3l219 3l-2 -48z" />
    <glyph glyph-name="Itilde.002" horiz-adv-x="634" 
d="M731 1389l-162 -19l-200 -1304l159 -19l-10 -49l-266 4l-268 -4v49l172 19l202 1304l-163 19l8 47l266 -4l264 4zM276 1708l125 37l312 -133l102 131h31l-105 -189l-127 -30l-309 133l-102 -133h-27z" />
    <glyph glyph-name="Itilde.sc" horiz-adv-x="565" 
d="M512 985l-162 -922l125 -16l-8 -49l-223 4l-221 -4l2 49l131 16l159 922l-125 14l9 48l221 -3l219 3l-2 -48zM270 1321l103 29l266 -97l84 95h27l-82 -181l-101 -24l-266 100l-80 -96h-28z" />
    <glyph glyph-name="J.sc" horiz-adv-x="542" 
d="M-82 -96h178q44 63 68 188l158 893l-127 14l8 48l223 -3l219 3l-2 -48l-125 -14l-145 -813q-16 -100 -61.5 -164.5t-110.5 -122.5l-205 -143h-113z" />
    <glyph glyph-name="Jcircumflex.002" horiz-adv-x="634" 
d="M367 1370l-162 19l10 47l266 -4l262 4v-47l-161 -19l-183 -1173q-35 -236 -192 -365l-244 -190h-133l35 180h223q39 76 58.5 152.5t35.5 187.5zM203 1530l278 221h113l182 -221h-76l-180 115h-4l-235 -115h-78z" />
    <glyph glyph-name="Jcircumflex.sc" horiz-adv-x="542" 
d="M-117 -258l35 162h178q44 63 68 188l158 893l-127 14l8 48l223 -3l219 3l-2 -48l-125 -14l-145 -813q-16 -100 -61.5 -164.5t-110.5 -122.5l-205 -143h-113zM197 1145l225 213h100l135 -213h-59l-143 110h-4l-193 -110h-61z" />
    <glyph glyph-name="K.sc" horiz-adv-x="1177" 
d="M440 571l21 13l510 401l-127 19l4 43l186 -3l170 3l-2 -41l-141 -25l-526 -403l106 -23l385 -494l86 -14l-8 -49l-154 4l-133 -4l-371 516l-10 29l-86 -480l117 -16l-8 -49l-215 4l-221 -4l2 49l131 16l159 922l-122 14l10 48l219 -3l209 3l-2 -48l-117 -14z" />
    <glyph glyph-name="Kcommaaccent.001" horiz-adv-x="1388" 
d="M569 1370l-88 -584l25 17l637 567l-156 19l6 47l232 -4l194 4v-47l-176 -19l-655 -579l117 -27l493 -696l111 -21l-11 -49l-176 4l-151 -4l-482 729l-14 31l-106 -692l151 -19l-10 -49l-258 4l-268 -4v49l174 19l198 1304l-161 19l10 47l262 -4l254 4l2 -47zM608 -211
l-73 51l12 80h205l-25 -133l-184 -152l-35 19z" />
    <glyph glyph-name="Kcommaaccent.sc" horiz-adv-x="1177" 
d="M440 571l21 13l510 401l-127 19l4 43l186 -3l170 3l-2 -41l-141 -25l-526 -403l106 -23l385 -494l86 -14l-8 -49l-154 4l-133 -4l-371 516l-10 29l-86 -480l117 -16l-8 -49l-215 4l-221 -4l2 49l131 16l159 922l-122 14l10 48l219 -3l209 3l-2 -48l-117 -14zM524 -197
l-43 58l13 63h176l-23 -119l-174 -178l-41 11z" />
    <glyph glyph-name="L.sc" horiz-adv-x="940" 
d="M348 59l357 2l169 242h46l-80 -305l-598 4l-219 -4l2 49l129 16l161 922l-125 14l9 48l217 -3l225 3v-48l-129 -14z" />
    <glyph glyph-name="Lacute.002" horiz-adv-x="1107" 
d="M367 63l454 3l211 319h49l-100 -387l-729 4l-268 -4v49l170 19l202 1304l-163 19l12 47l264 -4l268 4v-47l-168 -19zM412 1530l166 211h210l-301 -211h-75z" />
    <glyph glyph-name="Lacute.sc" horiz-adv-x="940" 
d="M348 59l357 2l169 242h46l-80 -305l-598 4l-219 -4l2 49l129 16l161 922l-125 14l9 48l217 -3l225 3v-48l-129 -14zM492 1354h188l-225 -209h-56z" />
    <glyph glyph-name="Lcaron.sc" horiz-adv-x="940" 
d="M348 59l357 2l169 242h46l-80 -305l-600 4l-217 -4l2 49l129 16l161 922l-125 14l9 48l217 -3l225 3v-48l-129 -14zM760 653q6 8 25.5 40t57 90.5t44.5 78.5l-94 6l6 103l32 82l121 8l56 -8l-9 -99l-26 -86l-176 -233z" />
    <glyph glyph-name="Lcommaaccent.001" horiz-adv-x="1107" 
d="M367 63l454 3l211 319h49l-100 -387l-729 4l-268 -4v49l170 19l202 1304l-163 19l12 47l264 -4l268 4v-47l-168 -19zM473 -211l-74 51l11 80h204l-22 -133l-186 -152l-35 19z" />
    <glyph glyph-name="Lcommaaccent.sc" horiz-adv-x="940" 
d="M348 59l357 2l169 242h46l-80 -305l-598 4l-219 -4l2 49l129 16l161 922l-125 14l9 48l217 -3l225 3v-48l-129 -14zM403 -197l-45 58l11 63h180l-23 -119l-174 -178l-43 11z" />
    <glyph glyph-name="Ldot.sc" horiz-adv-x="940" 
d="M348 59l357 2l169 242h46l-80 -305l-598 4l-219 -4l2 49l129 16l161 922l-125 14l9 48l217 -3l225 3v-48l-129 -14zM748 705l63 -13l-4 -96l-29 -82l-110 -10l-66 10l8 96l27 82z" />
    <glyph glyph-name="Lslash.sc" horiz-adv-x="948" 
d="M457 639l186 80l-10 -66l-187 -82l-90 -512l357 2l170 242h47l-80 -305l-600 4l-219 -4v49l131 16l74 418l-134 -57l11 65l133 58l78 438l-125 14l8 48l217 -3l227 3l-2 -48l-131 -14z" />
    <glyph glyph-name="M.sc" horiz-adv-x="1482" 
d="M1210 1047l168 -3l178 3l-2 -48l-122 -16l-164 -920l121 -16l-11 -49l-209 4l-225 -4v49l133 16l144 834l24 84l-536 -983h-117l-201 879l-10 98l-156 -912l125 -16l-8 -49l-158 4l-161 -4l2 49l122 16l164 920l-127 16l11 48l178 -3l180 3l184 -789l-4 -61z" />
    <glyph glyph-name="N.sc" horiz-adv-x="1175" 
d="M1049 985l-127 14l6 48l159 -3l166 3l2 -48l-135 -14l-172 -985h-121l-438 848l-10 76l-154 -861l133 -16l-10 -49l-162 4l-163 -4l2 49l131 16l161 922l-122 14l10 48l157 -3l150 3l395 -719l13 -76z" />
    <glyph glyph-name="Nacute.002" horiz-adv-x="1400" 
d="M1257 1370l-165 19l10 47l203 -4l208 4v-47l-172 -19l-215 -1370h-127l-555 1229l-10 82l-194 -1245l163 -19l-10 -49l-200 4l-209 -4v49l170 19l206 1296l-159 27l10 47l192 -4l168 4l504 -1084l17 -78zM786 1530l164 211h211l-299 -211h-76z" />
    <glyph glyph-name="Nacute.sc" horiz-adv-x="1175" 
d="M1049 985l-127 14l6 48l159 -3l166 3l2 -48l-135 -14l-172 -985h-121l-438 848l-10 76l-154 -861l133 -16l-10 -49l-166 4l-159 -4l2 49l131 16l161 922l-122 14l10 48l157 -3l150 3l395 -719l13 -76zM782 1354h189l-228 -209h-55z" />
    <glyph glyph-name="Ncaron.002" horiz-adv-x="1400" 
d="M1257 1370l-165 19l10 47l203 -4l208 4v-47l-172 -19l-215 -1370h-127l-555 1229l-10 82l-194 -1245l163 -19l-10 -49l-200 4l-209 -4v49l170 19l206 1296l-159 27l10 47l192 -4l168 4l504 -1084l17 -78zM1202 1749l-278 -223h-113l-182 223h76l180 -119h4l237 119h76z
" />
    <glyph glyph-name="Ncaron.sc" horiz-adv-x="1175" 
d="M225 63l133 -16l-10 -49l-162 4l-163 -4l2 49l131 16l161 922l-122 14l10 48l157 -3l150 3l395 -719l13 -76l129 733l-127 14l6 48l162 -3l163 3l2 -48l-135 -14l-172 -985h-121l-438 848l-10 76zM997 1358l-225 -213h-102l-133 213h61l141 -109h4l195 109h59z" />
    <glyph glyph-name="Ncommaaccent.001" horiz-adv-x="1400" 
d="M1257 1370l-165 19l10 47l203 -4l208 4v-47l-172 -19l-215 -1370h-127l-555 1229l-10 82l-194 -1245l163 -19l-10 -49l-200 4l-209 -4v49l170 19l206 1296l-159 27l10 47l192 -4l168 4l504 -1084l17 -78zM596 -211l-74 51l15 80h202l-24 -133l-185 -152l-34 19z" />
    <glyph glyph-name="Ncommaaccent.sc" horiz-adv-x="1175" 
d="M1049 985l-127 14l6 48l159 -3l166 3l2 -48l-135 -14l-172 -985h-121l-438 848l-10 76l-154 -861l133 -16l-10 -49l-162 4l-163 -4l2 49l131 16l161 922l-122 14l10 48l157 -3l150 3l395 -719l13 -76zM481 -197l-45 58l13 63h178l-21 -119l-174 -178l-43 11z" />
    <glyph glyph-name="Ntilde.002" horiz-adv-x="1400" 
d="M1257 1370l-165 19l10 47l203 -4l208 4v-47l-172 -19l-215 -1370h-127l-555 1229l-10 82l-194 -1245l163 -19l-10 -49l-200 4l-209 -4v49l170 19l206 1296l-159 27l10 47l192 -4l168 4l504 -1084l17 -78zM678 1708l125 37l311 -133l103 131h28l-104 -189l-125 -30
l-311 133l-101 -133h-29z" />
    <glyph glyph-name="Ntilde.sc" horiz-adv-x="1175" 
d="M1049 985l-127 14l6 48l159 -3l166 3l2 -48l-135 -14l-172 -985h-121l-438 848l-10 76l-154 -861l133 -16l-10 -49l-162 4l-163 -4l2 49l131 16l161 922l-122 14l10 48l157 -3l150 3l395 -719l13 -76zM567 1321l103 29l264 -97l86 95h27l-82 -181l-101 -24l-266 100
l-84 -96h-27z" />
    <glyph glyph-name="O.sc" horiz-adv-x="1177" 
d="M411 171.5q85 -114.5 210 -130.5q152 61 239.5 207.5t87.5 329.5q0 184 -83.5 298t-213.5 130q-150 -53 -237.5 -202.5t-87.5 -333.5t85 -298.5zM225 799.5q114 164.5 353 234.5l133 39q203 0 327.5 -128.5t124.5 -340.5q0 -303 -171 -427t-298 -163l-131 -41
q-202 0 -327 129t-125 331t114 366.5z" />
    <glyph glyph-name="OE.sc" horiz-adv-x="1591" 
d="M232 800q121 162 366 234l135 39q13 0 88.5 -9t112.5 -13t47 -7l635 3l-27 -283h-43l-73 223l-361 2l-76 -422l189 4l106 170h37l-45 -204l-25 -201h-36l-48 172l-186 4l-80 -453l393 2l144 232h45l-64 -295l-678 4l-229 -29q-200 0 -324 128t-124 332q0 205 121 367z
M410 175q84 -116 208 -132l136 20l159 918q-50 10 -103.5 14t-88.5 7.5t-47 3.5q-159 -52 -253.5 -200.5t-94.5 -331.5t84 -299z" />
    <glyph glyph-name="Oacute.002" horiz-adv-x="1398" 
d="M1241 346.5q-141 -233.5 -432 -330.5l-160 -53q-245 0 -395 169t-150 445q0 277 141 514t431 328l160 51q242 0 394 -165.5t152 -444.5q0 -280 -141 -513.5zM446.5 203.5q108.5 -145.5 276.5 -162.5q197 74 310.5 292t113.5 483t-105.5 412.5t-277.5 166.5
q-191 -65 -308.5 -287t-117.5 -490.5t108.5 -414zM782 1530l164 211h213l-301 -211h-76z" />
    <glyph glyph-name="Oacute.sc" horiz-adv-x="1177" 
d="M346 466q0 -180 84.5 -294.5t210.5 -130.5q154 61 241 207.5t87 329.5q0 184 -83.5 298t-213.5 130q-231 -80 -278.5 -264.5t-47.5 -275.5zM245 802q114 163 353 232l131 39q203 0 328 -129t125 -329t-114 -364t-353 -237l-131 -41q-206 0 -329.5 129t-123.5 333t114 367
zM684 1145l94 209h189l-226 -209h-57z" />
    <glyph glyph-name="Obreve.002" horiz-adv-x="1398" 
d="M1241 346.5q-141 -233.5 -432 -330.5l-160 -53q-245 0 -395 169t-150 445q0 277 141 514t431 328l160 51q242 0 394 -165.5t152 -444.5q0 -280 -141 -513.5zM446.5 203.5q108.5 -145.5 276.5 -162.5q197 74 310.5 292t113.5 483t-105.5 412.5t-277.5 166.5
q-191 -65 -308.5 -287t-117.5 -490.5t108.5 -414zM842 1630q116 0 175.5 32t85 53.5t44.5 37.5l29 -14q-95 -152 -297 -228q-160 0 -209 95.5t-62 132.5l35 16q83 -125 199 -125z" />
    <glyph glyph-name="Obreve.sc" horiz-adv-x="1177" 
d="M346 466q0 -180 84.5 -294.5t210.5 -130.5q154 61 241 207.5t87 329.5q0 184 -83.5 298t-213.5 130q-231 -80 -278.5 -264.5t-47.5 -275.5zM245 802q114 163 353 232l131 39q203 0 328 -129t125 -329t-114 -364t-353 -237l-131 -41q-206 0 -329.5 129t-123.5 333t114 367
zM758 1253q114 0 223 90l25 -26q-31 -57 -86 -100t-158 -80q-173 0 -227 178l36 26q73 -88 187 -88z" />
    <glyph glyph-name="Ocircumflex.002" horiz-adv-x="1398" 
d="M1241 346.5q-141 -233.5 -432 -330.5l-160 -53q-245 0 -395 169t-150 445q0 277 141 514t431 328l160 51q242 0 394 -165.5t152 -444.5q0 -280 -141 -513.5zM446.5 203.5q108.5 -145.5 276.5 -162.5q197 74 310.5 292t113.5 483t-105.5 412.5t-277.5 166.5
q-191 -65 -308.5 -287t-117.5 -490.5t108.5 -414zM586 1530l276 221h113l182 -221h-76l-178 115h-4l-237 -115h-76z" />
    <glyph glyph-name="Ocircumflex.sc" horiz-adv-x="1177" 
d="M346 466q0 -180 84.5 -294.5t210.5 -130.5q154 61 241 207.5t87 329.5q0 184 -83.5 298t-213.5 130q-231 -80 -278.5 -264.5t-47.5 -275.5zM245 802q114 163 353 232l131 39q203 0 328 -129t125 -329t-114 -364t-353 -237l-131 -41q-206 0 -329.5 129t-123.5 333t114 367
zM524 1145l228 213h100l135 -213h-61l-144 110h-2l-194 -110h-62z" />
    <glyph glyph-name="Odieresis.002" horiz-adv-x="1398" 
d="M1241 346.5q-141 -233.5 -432 -330.5l-160 -53q-245 0 -395 169t-150 445q0 277 141 514t431 328l160 51q242 0 394 -165.5t152 -444.5q0 -280 -141 -513.5zM446.5 203.5q108.5 -145.5 276.5 -162.5q197 74 310.5 292t113.5 483t-105.5 412.5t-277.5 166.5
q-191 -65 -308.5 -287t-117.5 -490.5t108.5 -414zM1102 1747l98 -12l-2 -88l-33 -84l-67 -11l-101 11l7 98l36 74zM707 1747l96 -12v-88l-35 -84l-63 -11l-103 11l4 98l37 74z" />
    <glyph glyph-name="Odieresis.sc" horiz-adv-x="1177" 
d="M346 466q0 -180 84.5 -294.5t210.5 -130.5q154 61 241 207.5t87 329.5q0 184 -83.5 298t-213.5 130q-231 -80 -278.5 -264.5t-47.5 -275.5zM245 802q114 163 353 232l131 39q203 0 328 -129t125 -329t-114 -364t-353 -237l-131 -41q-206 0 -329.5 129t-123.5 333t114 367
zM958 1323l72 -10v-82l-31 -72l-63 -10l-78 10l4 86l31 68zM625 1323l73 -10v-82l-30 -72l-66 -10l-78 10l4 86l31 68z" />
    <glyph glyph-name="Ograve.002" horiz-adv-x="1398" 
d="M1241 346.5q-141 -233.5 -432 -330.5l-160 -53q-245 0 -395 169t-150 445q0 277 141 514t431 328l160 51q242 0 394 -165.5t152 -444.5q0 -280 -141 -513.5zM446.5 203.5q108.5 -145.5 276.5 -162.5q197 74 310.5 292t113.5 483t-105.5 412.5t-277.5 166.5
q-191 -65 -308.5 -287t-117.5 -490.5t108.5 -414zM846 1530l-182 211h188l57 -211h-63z" />
    <glyph glyph-name="Ograve.sc" horiz-adv-x="1177" 
d="M346 466q0 -180 84.5 -294.5t210.5 -130.5q154 61 241 207.5t87 329.5q0 184 -83.5 298t-213.5 130q-231 -80 -278.5 -264.5t-47.5 -275.5zM245 802q114 163 353 232l131 39q203 0 328 -129t125 -329t-114 -364t-353 -237l-131 -41q-206 0 -329.5 129t-123.5 333t114 367
zM735 1145l-170 209h178l48 -209h-56z" />
    <glyph glyph-name="Ohungarumlaut.002" horiz-adv-x="1398" 
d="M1241 346.5q-141 -233.5 -432 -330.5l-160 -53q-245 0 -395 169t-150 445q0 277 141 514t431 328l160 51q242 0 394 -165.5t152 -444.5q0 -280 -141 -513.5zM446.5 203.5q108.5 -145.5 276.5 -162.5q197 74 310.5 292t113.5 483t-105.5 412.5t-277.5 166.5
q-191 -65 -308.5 -287t-117.5 -490.5t108.5 -414zM963 1538l145 203h217l-285 -203h-77zM623 1538l145 203h219l-285 -203h-79z" />
    <glyph glyph-name="Ohungarumlaut.sc" horiz-adv-x="1177" 
d="M346 466q0 -180 84.5 -294.5t210.5 -130.5q154 61 241 207.5t87 329.5q0 184 -83.5 298t-213.5 130q-231 -80 -278.5 -264.5t-47.5 -275.5zM245 802q114 163 353 232l131 39q203 0 328 -129t125 -329t-114 -364t-353 -237l-131 -41q-206 0 -329.5 129t-123.5 333t114 367
zM836 1145l98 209h199l-238 -209h-59zM553 1145l98 209h197l-238 -209h-57z" />
    <glyph glyph-name="Omacron.002" horiz-adv-x="1398" 
d="M1241 346.5q-141 -233.5 -432 -330.5l-160 -53q-245 0 -395 169t-150 445q0 277 141 514t431 328l160 51q242 0 394 -165.5t152 -444.5q0 -280 -141 -513.5zM446.5 203.5q108.5 -145.5 276.5 -162.5q197 74 310.5 292t113.5 483t-105.5 412.5t-277.5 166.5
q-191 -65 -308.5 -287t-117.5 -490.5t108.5 -414zM641 1673h578l-15 -86h-579z" />
    <glyph glyph-name="Omacron.sc" horiz-adv-x="1177" 
d="M346 466q0 -180 84.5 -294.5t210.5 -130.5q154 61 241 207.5t87 329.5q0 184 -83.5 298t-213.5 130q-231 -80 -278.5 -264.5t-47.5 -275.5zM245 802q114 163 353 232l131 39q203 0 328 -129t125 -329t-114 -364t-353 -237l-131 -41q-206 0 -329.5 129t-123.5 333t114 367
zM541 1282h473l-15 -92h-473z" />
    <glyph glyph-name="Oslash.sc" horiz-adv-x="1177" 
d="M373 465q0 -100 24 -176l535 553q-84 143 -234 164q-150 -53 -237.5 -202.5t-87.5 -338.5zM995 598q0 106 -41 201l-536 -561q39 -84 103.5 -135.5t146.5 -61.5q152 61 239.5 207t87.5 350zM252 135q-94 123 -94 312t114 353t353 234l133 39q176 0 297 -102l94 98h63
l-122 -129q118 -126 118 -336q0 -305 -169 -428t-296 -162l-133 -41q-200 0 -325 125l-117 -121h-68z" />
    <glyph glyph-name="Oslashacute.002" horiz-adv-x="1398" 
d="M780 1530l164 211h213l-299 -211h-78zM336 607q0 -140 35 -251l704 809q-51 104 -133 161.5t-180 68.5q-191 -65 -308.5 -287t-117.5 -501zM721 41q197 74 310.5 292t113.5 506q0 151 -45 271l-709 -813q51 -119 137 -182.5t193 -73.5zM1380 856q0 -438 -208.5 -613
t-364.5 -227l-160 -53q-250 0 -397 172l-144 -166h-73l182 209q-113 166 -113 421t141 492t431 328l160 51q231 0 378 -149l121 139h70l-156 -180q133 -165 133 -424z" />
    <glyph glyph-name="Oslashacute.sc" horiz-adv-x="1177" 
d="M713 1145l94 209h188l-227 -209h-55zM373 465q0 -98 24 -178l535 555q-84 143 -234 164q-150 -53 -237.5 -202.5t-87.5 -338.5zM995 598q0 106 -41 201l-536 -561q39 -84 104.5 -135.5t147.5 -61.5q151 62 238 207.5t87 349.5zM252 135q-96 121 -96 310q0 190 114 355
t355 234l133 39q176 0 297 -102l94 98h63l-122 -129q118 -126 118 -327q0 -200 -113.5 -362.5t-353.5 -236.5l-131 -41q-202 0 -327 125l-115 -121h-68z" />
    <glyph glyph-name="Otilde.002" horiz-adv-x="1398" 
d="M1241 346.5q-141 -233.5 -432 -330.5l-160 -53q-245 0 -395 169t-150 445q0 277 141 514t431 328l160 51q242 0 394 -165.5t152 -444.5q0 -280 -141 -513.5zM446.5 203.5q108.5 -145.5 276.5 -162.5q197 74 310.5 292t113.5 483t-105.5 412.5t-277.5 166.5
q-191 -65 -308.5 -287t-117.5 -490.5t108.5 -414zM674 1708l129 37l309 -133l102 131h29l-102 -189l-127 -30l-309 133l-101 -133h-29z" />
    <glyph glyph-name="Otilde.sc" horiz-adv-x="1177" 
d="M346 466q0 -180 84.5 -294.5t210.5 -130.5q154 61 241 207.5t87 329.5q0 184 -83.5 298t-213.5 130q-231 -80 -278.5 -264.5t-47.5 -275.5zM245 802q114 163 353 232l131 39q203 0 328 -129t125 -329t-114 -364t-353 -237l-131 -41q-206 0 -329.5 129t-123.5 333t114 367
zM584 1321l104 29l264 -97l84 95h29l-82 -181l-100 -24l-269 100l-79 -96h-29z" />
    <glyph glyph-name="P.sc" horiz-adv-x="974" 
d="M1036 812q0 -114 -89 -187.5t-263 -126.5l-117 -47h-149l-68 -388l185 -16l-9 -49l-286 4l-217 -4l2 49l129 16l161 922l-125 16l11 46l225 -3l287 5q154 0 238.5 -61.5t84.5 -175.5zM821 805q0 188 -192 188h-117l-82 -465h207q72 43 128 111t56 166z" />
    <glyph glyph-name="Q.sc" horiz-adv-x="1177" 
d="M1047 249q-116 -162 -353 -235l-94 -28l137 -33l189 -117l104 -41l8 -39l-202 -6l-127 74l-166 149q-192 4 -312 132t-120 329t114 365.5t353 234.5l133 39q203 0 327.5 -128.5t124.5 -330.5q0 -203 -116 -365zM411 171.5q85 -114.5 210 -130.5q152 61 239.5 207.5
t87.5 329.5q0 184 -83 297t-214 131q-150 -53 -237.5 -202.5t-87.5 -333.5t85 -298.5z" />
    <glyph glyph-name="R.sc" horiz-adv-x="1112" 
d="M1038 825q0 -105 -86.5 -177t-236.5 -111l-109 -33l172 -55l199 -383l72 -19l-7 -49l-147 4l-117 -4l-227 481l-10 6h-117l-74 -422l139 -16l-8 -49l-239 4l-219 -4l2 49l129 16l161 922l-125 16l11 46l217 -3l295 3q154 2 239.5 -57.5t85.5 -164.5zM823 821
q0 174 -192 174h-119l-76 -436h193q132 61 163 138t31 124z" />
    <glyph glyph-name="Racute.002" horiz-adv-x="1304" 
d="M1116 889q-103 -95 -293 -158l-129 -41l193 -80l256 -544l92 -21l-6 -47l-170 4l-133 -4l-291 668l-10 10h-164l-94 -610l186 -19l-12 -49l-295 4l-262 -4v49l170 19l204 1308l-165 15l12 47l268 -4l346 4q188 0 294 -85t106 -226t-103 -236zM983 1110q0 258 -254 266
h-160l-96 -618h258q252 123 252 352zM649 1530l166 211h213l-301 -211h-78z" />
    <glyph glyph-name="Racute.sc" horiz-adv-x="1112" 
d="M823 821q0 174 -192 174h-119l-76 -436h193q132 61 163 138t31 124zM1038 825q0 -105 -86.5 -177t-236.5 -111l-109 -33l172 -55l199 -383l72 -19l-7 -49l-147 4l-117 -4l-227 481l-10 6h-117l-74 -422l139 -16l-8 -49l-239 4l-219 -4l2 49l129 16l161 922l-125 16l11 46
l219 -3l293 3q154 2 239.5 -57.5t85.5 -164.5zM582 1145l94 209h186l-225 -209h-55z" />
    <glyph glyph-name="Rcaron.002" horiz-adv-x="1304" 
d="M1116 889q-103 -95 -293 -158l-129 -41l193 -80l256 -544l92 -21l-6 -47l-170 4l-133 -4l-291 668l-10 10h-164l-94 -610l186 -19l-12 -49l-295 4l-262 -4v49l170 19l204 1308l-165 15l12 47l268 -4l346 4q188 0 294 -85t106 -226t-103 -236zM983 1110q0 258 -254 266
h-160l-96 -618h258q252 123 252 352zM1065 1749l-279 -223h-110l-184 223h77l179 -119h6l235 119h76z" />
    <glyph glyph-name="Rcaron.sc" horiz-adv-x="1112" 
d="M823 821q0 174 -192 174h-119l-76 -436h193q132 61 163 138t31 124zM1038 825q0 -105 -86.5 -177t-236.5 -111l-109 -33l172 -55l199 -383l72 -19l-7 -49l-147 4l-117 -4l-227 481l-10 6h-117l-74 -422l139 -16l-8 -49l-239 4l-219 -4l2 49l129 16l161 922l-125 16l11 46
l219 -3l293 3q154 2 239.5 -57.5t85.5 -164.5zM909 1358l-225 -213h-100l-135 213h61l143 -109h4l191 109h61z" />
    <glyph glyph-name="Rcommaaccent.001" horiz-adv-x="1304" 
d="M1116 889q-103 -95 -293 -158l-129 -41l193 -80l256 -544l92 -21l-6 -47l-170 4l-133 -4l-291 668l-10 10h-164l-94 -610l186 -19l-12 -49l-295 4l-262 -4v49l170 19l204 1308l-165 15l12 47l268 -4l346 4q188 0 294 -85t106 -226t-103 -236zM983 1110q0 258 -254 266
h-160l-96 -618h258q252 123 252 352zM569 -211l-73 51l14 80h205l-25 -133l-184 -152l-39 19z" />
    <glyph glyph-name="Rcommaaccent.sc" horiz-adv-x="1112" 
d="M463 -197l-45 58l12 63h178l-22 -119l-174 -178l-43 11zM1038 825q0 -105 -86.5 -177t-236.5 -111l-109 -33l172 -55l199 -383l72 -19l-7 -49l-147 4l-117 -4l-227 481l-10 6h-117l-74 -422l139 -16l-8 -49l-239 4l-219 -4l2 49l129 16l161 922l-125 16l11 46l219 -3
l293 3q154 2 239.5 -57.5t85.5 -164.5zM823 821q0 174 -192 174h-119l-76 -436h193q132 61 163 138t31 124z" />
    <glyph glyph-name="S.sc" horiz-adv-x="835" 
d="M356 864q0 -57 37 -96t103 -86l168 -129q72 -57 107.5 -107t35.5 -135q0 -84 -65.5 -163.5t-184.5 -120.5l-160 -54q-220 0 -348 90l57 259h66l2 -154q49 -47 135 -78t178 -35q138 44 138 160q0 66 -36 105.5t-95 85.5l-162 122q-66 47 -108 99.5t-42 128.5
q0 168 246 264l145 53q203 0 312 -72l-47 -249h-58l-24 161q-103 91 -258 91q-142 -42 -142 -140z" />
    <glyph glyph-name="Sacute.002" horiz-adv-x="1005" 
d="M395 1167q0 -115 67.5 -176t108.5 -94l203 -160q81 -64 127.5 -139t46.5 -195q0 -191 -113.5 -269.5t-185.5 -102.5l-194 -68q-259 0 -424 127l65 316h78l4 -197q90 -97 203 -128.5t166 -33.5q201 66 201 264q0 132 -65 192t-103 91l-203 160q-74 57 -125 129.5
t-51 181.5q0 230 295 338l180 67q233 0 373 -96l-58 -317h-65l-29 217q-53 53 -132 84t-165 33q-205 -63 -205 -224zM633 1530l166 211h211l-301 -211h-76z" />
    <glyph glyph-name="Sacute.sc" horiz-adv-x="835" 
d="M553 1145l94 209h189l-228 -209h-55zM356 864q0 -57 37 -96t103 -86l168 -129q104 -77 123.5 -135t19.5 -103q0 -88 -65.5 -167.5t-184.5 -120.5l-160 -54q-220 0 -348 90l57 259h66l2 -154q49 -47 135 -78t178 -35q138 44 138 160q0 66 -36 105.5t-95 85.5l-162 122
q-66 47 -108 99.5t-42 128.5q0 168 246 264l145 53q203 0 312 -72l-47 -249h-58l-24 161q-103 91 -258 91q-142 -42 -142 -140z" />
    <glyph glyph-name="Scaron.002" horiz-adv-x="1005" 
d="M395 1167q0 -115 67.5 -176t108.5 -94l203 -160q81 -64 127.5 -139t46.5 -195q0 -191 -113.5 -269.5t-185.5 -102.5l-194 -68q-259 0 -424 127l65 316h78l4 -197q90 -97 203 -128.5t166 -33.5q201 66 201 264q0 132 -65 192t-103 91l-203 160q-74 57 -125 129.5
t-51 181.5q0 230 295 338l180 67q233 0 373 -96l-58 -317h-65l-29 217q-53 53 -132 84t-165 33q-205 -63 -205 -224zM1042 1749l-278 -223h-115l-182 223h76l182 -119h4l238 119h75z" />
    </font>
</defs>
</svg>
