<svg xmlns="http://www.w3.org/2000/svg">
<defs>
<font id="8af30f781f9a1c547e233369e4a20818" horiz-adv-x='1024' >
  <font-face 
    font-family="GTSectraFine-MediumItalic"
    font-weight="550"
    font-style="italic"
    font-stretch="normal"
    units-per-em="2048"
    panose-1="2 0 5 3 7 0 0 2 0 3"
    ascent="1536"
    descent="-512"
    x-height="989"
    cap-height="1436"
    bbox="-381 -502 3420 2028"
    underline-thickness="102"
    underline-position="-102"
    slope="-12"
    unicode-range="U+000D-FB04"
  />
<missing-glyph horiz-adv-x="1355" 
d="M1118 791h10l11 14v14l-21 -8v-20zM979 1085l-16 -8v-18l16 -6l4 14zM821 1315l-16 -19v-39l24 -12l7 35zM412 1020l120 24l-8 25zM692 1065l-8 -25l100 -34l7 8zM930 735v-26l90 8l8 18h-98zM621 512h139v12l-139 8v-20zM780 639h-149v-21h149v21zM395 416l-151 102
l41 -47l102 -84zM780 575l-147 15l-12 -27l159 -8v20zM473 930l2 8l29 4l-27 12l4 15l-41 -2l6 -39l29 -31l25 -12l22 10l33 25l12 24l4 27l-45 -8l13 -21l-25 -27l-29 -2zM1180 639l-13 -6l-67 -55l80 -99v160zM723 932l-14 -23h-25l-10 15l22 16l-30 4v12l-48 9l7 -35
l16 -29l41 -18l27 -2l36 20l13 19l10 41l-61 4l14 -11zM860 688l8 62l-110 10l-6 -72h108zM850 1198l10 -12l39 22l16 -4l13 -49h26l13 12l-19 37l35 58l-31 18v10l-51 15v-41l-27 -11v-18l-18 -12zM1047 639l32 -25l17 4l41 31l26 27l23 37l-15 10h-28l-21 6l-28 14l-35 -6
q-4 -27 -7 -46q-3 -18 -5 -52zM752 438l-131 8v-104l131 -12v108zM395 678l-135 80v-15l-4 -26l2 -55v-99l131 -90l-2 123zM1020 678l-111 2l-2 -49v-13l-4 -63l39 -6l-16 -125l-99 6l-16 -12l104 -10l-4 -19h-100l-8 -10l108 -14l-12 -72l55 -2l25 162l8 73l-31 6l-2 17
l41 2l11 6l-58 33l4 10l62 -12l-62 30l11 11l43 -11l8 21zM168 831h-43l39 -28l2 -23l-41 15l37 -37l-8 -15l6 -198l22 -25v369l117 -66l14 21l-139 78v36l121 -69l88 -58l57 -28l6 20l-210 131l-27 15l-84 67l4 -159l39 -35v-11zM1235 952l-16 76l-39 102l-41 74l-47 58

<glyph glyph-name="ff" unicode="ff" horiz-adv-x="1210" 
d="M469 877l-156 -897q-32 -175 -200 -291l-250 -170h-129l39 202h237q45 59 70 185l170 971h-166l8 32l43 39h127l12 74q16 92 66.5 167t122.5 122l248 153h348l-279 -182h-196q-49 -52 -74 -180l-29 -158h344l15 78q16 92 66 167t122 122l248 153h164l-35 -182h-256
q-52 -55 -76 -180l-26 -158h213l-15 -67h-211l-155 -897q-32 -175 -201 -291l-250 -170h-117l39 202h223q47 56 72 185l168 971h-344z" />
    <glyph glyph-name="fi" unicode="fi" horiz-adv-x="1140" 
d="M584 1282q-49 -52 -74 -180l-29 -158h332l170 53l57 -51l-149 -850l180 123l27 -35l-287 -217l-152 74l148 844l-53 -8h-285l-156 -897q-32 -175 -200 -291l-250 -170h-129l39 202h237q45 59 70 185l170 971h-166l8 32l43 39h127l12 74q16 92 66.5 167t122.5 122l248 153
h430l-35 -182h-522z" />
    <glyph glyph-name="fl" unicode="fl" horiz-adv-x="1148" 
d="M659 41l148 836h-338l-156 -897q-32 -175 -200 -291l-250 -170h-129l39 202h237q45 59 70 185l170 971h-166l8 32l43 39h127l12 74q16 92 66.5 167t122.5 122l248 153h387l32 -26l-235 -1342l178 123l29 -35l-287 -217zM821 944l62 361l-76 -23h-223q-49 -52 -74 -180
l-29 -158h340z" />
    <glyph glyph-name="ffi" unicode="ffi" horiz-adv-x="1703" 
d="M1454 96l180 123l27 -35l-287 -217l-151 74l147 844l-53 -8h-283l-155 -897q-32 -175 -201 -291l-250 -170h-117l39 202h223q47 56 72 185l168 971h-344l-156 -897q-32 -175 -200 -291l-250 -170h-129l39 202h237q45 59 70 185l170 971h-166l8 32l43 39h127l12 74
q16 92 66.5 167t122.5 122l248 153h348l-279 -182h-196q-49 -52 -74 -180l-29 -158h344l15 78q16 92 66 167t122 122l248 153h428l-35 -182h-520q-52 -55 -76 -180l-26 -158h329l170 53l58 -51z" />
    <glyph glyph-name="ffl" unicode="ffl" horiz-adv-x="1714" 
d="M1384 944l66 361l-76 -23h-225q-52 -55 -76 -180l-26 -158h337zM-227 -279h237q45 59 70 185l170 971h-166l8 32l43 39h127l12 74q16 92 66.5 167t122.5 122l248 153h348l-279 -182h-196q-49 -52 -74 -180l-29 -158h344l15 78q16 92 66 167t122 122l248 153h385l33 -26
l-236 -1342l182 123l25 -35l-285 -217l-153 74l147 836h-340l-155 -897q-32 -175 -201 -291l-250 -170h-117l39 202h223q47 56 72 185l168 971h-344l-156 -897q-32 -175 -200 -291l-250 -170h-129z" />
    <glyph glyph-name="Th" unicode="Th" horiz-adv-x="2052" 
d="M1712 705q22 122 -64 122q-73 0 -173 -71l-76 -49l-125 -707h-221l237 1346l17 26l-82 -8l-367 2l-199 -1290l181 -21l-13 -57l-305 4l-297 -4l2 57l179 21l198 1290l-252 -2l-168 -315h-59l57 387l559 -4l574 4l160 28l51 -41l-111 -624l-16 -33l342 233
q129 0 177 -65.5t26 -175.5l-117 -660l178 121l27 -35l-285 -217l-152 74z" />
    <glyph glyph-name="fb" unicode="fb" horiz-adv-x="1585" 
d="M1313 561q0 92 -37 166t-96 104l-183 -133l-94 -536q41 -35 100.5 -57.5t106.5 -22.5q203 110 203 479zM1550 624q0 -173 -99.5 -333t-276.5 -238l-191 -84q-168 10 -317 103l215 1233l-76 -23h-221q-49 -52 -74 -180l-29 -158h203l-12 -67h-203l-156 -897
q-32 -175 -200 -291l-250 -170h-129l39 202h237q45 59 70 185l170 971h-166l8 32l43 39h127l12 74q16 92 66.5 167t122.5 122l248 153h383l32 -26l-112 -639l-21 -47l310 247q109 -27 178 -114.5t69 -260.5z" />
    <glyph glyph-name="ffb" unicode="ffb" horiz-adv-x="2150" 
d="M2116 624q0 -173 -102 -334t-275 -237l-191 -84q-170 10 -319 103l217 1233l-74 -23h-223q-52 -55 -76 -180l-26 -158h202l-12 -67h-203l-155 -897q-32 -175 -201 -291l-250 -170h-117l39 202h223q47 56 72 185l168 971h-344l-156 -897q-32 -175 -200 -291l-250 -170
h-129l39 202h237q45 59 70 185l170 971h-166l8 32l43 39h127l12 74q16 92 66.5 167t122.5 122l248 153h348l-279 -182h-196q-49 -52 -74 -180l-29 -158h344l15 78q16 92 66 167t122 122l248 153h383l33 -26l-111 -639l-20 -47l307 247q109 -27 178.5 -114.5t69.5 -260.5z
M1878 561q0 92 -37 166t-96 104l-182 -133l-95 -536q41 -35 101.5 -57.5t107.5 -22.5q201 113 201 479z" />
    <glyph glyph-name="ffh" unicode="ffh" horiz-adv-x="2222" 
d="M1882 705q20 122 -66 122q-72 0 -171 -71l-76 -49l-125 -707h-221l229 1305l-76 -23h-227q-52 -55 -76 -180l-26 -158h202l-12 -67h-203l-155 -897q-32 -175 -201 -291l-250 -170h-117l39 202h223q47 56 72 185l168 971h-344l-156 -897q-32 -175 -200 -291l-250 -170
h-129l39 202h237q45 59 70 185l170 971h-166l8 32l43 39h127l12 74q16 92 66.5 167t122.5 122l248 153h348l-279 -182h-196q-49 -52 -74 -180l-29 -158h344l15 78q16 92 66 167t122 122l248 153h387l35 -26l-113 -639l-16 -33l340 233q129 0 177 -65.5t28 -175.5l-117 -660
l178 121l29 -35l-287 -217l-152 74z" />
    <glyph glyph-name="ffj" unicode="ffj" horiz-adv-x="1679" 
d="M-227 -279h237q45 59 70 185l170 971h-166l8 32l43 39h127l12 74q16 92 66.5 167t122.5 122l248 153h348l-279 -182h-196q-49 -52 -74 -180l-29 -158h344l15 78q16 92 66 167t122 122l248 153h438l-35 -182h-530q-52 -55 -76 -180l-26 -158h335l170 53l56 -51l-166 -946
q-31 -175 -213 -303l-250 -178h-98l34 202h224q44 70 67 193l170 971l-53 -8h-289l-155 -897q-32 -175 -201 -291l-250 -170h-117l39 202h223q47 56 72 185l168 971h-344l-156 -897q-32 -175 -200 -291l-250 -170h-129z" />
    <glyph glyph-name="ffk" unicode="ffk" horiz-adv-x="2172" 
d="M-227 -279h237q45 59 70 185l170 971h-166l8 32l43 39h127l12 74q16 92 66.5 167t122.5 122l248 153h348l-279 -182h-196q-49 -52 -74 -180l-29 -158h344l15 78q16 92 66 167t122 122l248 153h385l33 -26l-152 -860l21 6l387 395h194l-47 -229h-227q-31 -5 -109 -65
t-90 -69l-59 -49l168 -49l190 -414l160 109l24 -37l-278 -209l-135 58l-205 518l-94 -543h-223l229 1305l-76 -23h-223q-52 -55 -76 -180l-26 -158h202l-12 -67h-203l-155 -897q-32 -175 -201 -291l-250 -170h-117l39 202h223q47 56 72 185l168 971h-344l-156 -897
q-32 -175 -200 -291l-250 -170h-129z" />
    <glyph glyph-name="fh" unicode="fh" horiz-adv-x="1656" 
d="M1252 827q-73 0 -173 -71l-75 -49l-125 -707h-222l230 1305l-76 -23h-227q-49 -52 -74 -180l-29 -158h203l-12 -67h-203l-156 -897q-32 -175 -200 -291l-250 -170h-129l39 202h237q45 59 70 185l170 971h-166l8 32l43 39h127l12 74q16 92 66.5 167t122.5 122l248 153h389
l33 -26l-113 -639l-16 -33l342 233q129 0 177 -65.5t27 -175.5l-118 -660l180 121l24 -35l-284 -217l-154 74l119 664q10 57 -6.5 89.5t-58.5 32.5z" />
    <glyph glyph-name="fj" unicode="fj" horiz-adv-x="1112" 
d="M-227 -279h237q45 59 70 185l170 971h-166l8 32l43 39h127l12 74q16 92 66.5 167t122.5 122l248 153h430l-35 -182h-522q-49 -52 -74 -180l-29 -158h332l172 53l55 -51l-166 -946q-31 -174 -212 -303l-250 -178h-101l37 202h223q41 61 66 193l172 971l-53 -8h-287
l-156 -897q-32 -175 -200 -291l-250 -170h-129z" />
    <glyph glyph-name="fk" unicode="fk" horiz-adv-x="1607" 
d="M-227 -279h237q45 59 70 185l170 971h-166l8 32l43 39h127l12 74q16 92 66.5 167t122.5 122l248 153h385l32 -26l-149 -860l20 6l385 395h195l-49 -229h-225q-31 -5 -109 -65t-90 -69l-59 -49l167 -49l191 -414l160 109l24 -37l-280 -209l-131 58l-205 518l-99 -543h-221
l230 1305l-76 -23h-223q-49 -52 -74 -180l-29 -158h203l-12 -67h-203l-156 -897q-32 -175 -200 -291l-250 -170h-129z" />
    <glyph glyph-name="ft" unicode="ft" horiz-adv-x="1236" 
d="M-227 -279h237q45 59 70 185l170 971h-166l8 32l43 39h127l12 74q16 92 66.5 167t122.5 122l248 153h245l-131 -182h-241q-49 -52 -74 -180l-29 -158h330l23 119l200 170h49l-51 -289h228l-15 -67h-223l-137 -783l258 123l22 -37l-360 -213l-154 70l148 840h-330
l-156 -897q-32 -175 -200 -291l-250 -170h-129z" />
    <glyph glyph-name="fu" unicode="fu" horiz-adv-x="1640" 
d="M957 139q69 0 182 78l75 51l121 701h224l-154 -873l182 119l27 -35l-295 -213l-141 68l24 139l15 37l-334 -242q-129 0 -176.5 66.5t-26.5 175.5l119 674l-56 -8h-274l-156 -897q-32 -175 -200 -291l-250 -170h-129l39 202h237q45 59 70 185l170 971h-166l8 32l43 39h127
l12 74q16 92 66.5 167t122.5 122l248 153h163l-32 -182h-258q-49 -52 -74 -180l-29 -158h322l172 53l55 -51l-123 -690q-19 -117 50 -117z" />
    <glyph glyph-name="fy" unicode="fy" horiz-adv-x="1486" 
d="M1008 41l-187 -37l-129 885l-49 -12h-170l-156 -897q-32 -175 -200 -291l-250 -170h-129l39 202h237q45 59 70 185l170 971h-166l8 32l43 39h127l13 74q16 92 66 167t122 122l248 153h164l-33 -182h-258q-49 -52 -74 -180l-29 -158h195l168 55l78 -45l108 -864l334 604
l-164 185l193 120l80 -88l-35 -241l-344 -609l-336 -544l-256 2l41 221h217z" />
    <glyph glyph-name="ky" unicode="ky" horiz-adv-x="1931" 
d="M993 -260h215l244 301l-184 -37l-135 918h-58l-166 -172h-176q-33 -6 -109.5 -65.5t-88.5 -68.5l-60 -49l166 -49l190 -414l160 109l25 -37l-279 -209l-133 58l-205 518l-98 -543h-219l235 1352l-190 -49l-14 43l389 118l51 -41l-147 -845l18 6l387 395h522l37 -25
l109 -864l333 604l-163 185l194 120l78 -88l-33 -241l-344 -604l-338 -547h-252z" />
    <glyph glyph-name="tt" unicode="tt" horiz-adv-x="1284" 
d="M104 37l148 840h-162l8 32l43 39h123l21 115l202 170h50l-54 -289h375l23 119l200 170h49l-51 -289h228l-15 -67h-225l-135 -783l258 123l22 -37l-360 -213l-152 70l146 840h-375l-135 -783l227 111l23 -39l-330 -199z" />
    <glyph glyph-name="ty" unicode="ty" horiz-adv-x="1556" 
d="M618 -260h216l243 301l-184 -37l-129 881l-64 -8h-229l-135 -783l225 109l25 -41l-330 -195l-152 70l148 840h-162l8 32l43 39h123l21 115l202 170h50l-54 -289h273l166 55l75 -51l109 -858l334 604l-166 185l192 120l80 -88l-33 -241l-346 -604l-333 -549l-256 2z" />
    <glyph glyph-name="www" unicode="www" horiz-adv-x="3430" 
d="M213 20l-25 816l17 36l-195 -67l-16 41l368 153l56 -55l10 -797l-8 -51l278 443l-10 354l230 82l10 -828l-6 -51l282 449l-10 358l211 76l20 -25l11 -807l-9 -51l279 445l-10 352l231 82l10 -828l-10 -51l283 447l-8 362l206 74l23 -21l10 -811l-8 -51l279 445l-11 352
l232 82l10 -828l-10 -51l377 592l-158 191l190 120l78 -90l-35 -237l-456 -697l-203 45l-10 369l12 64l-301 -478l-201 45l-12 404l-291 -449l-201 45l-10 369l8 64l-297 -478l-202 45l-13 404l-293 -449l-202 45l-11 367l13 66l-299 -478z" />
    <glyph glyph-name=".notdef" horiz-adv-x="1355" 
d="M1118 791h10l11 14v14l-21 -8v-20zM979 1085l-16 -8v-18l16 -6l4 14zM821 1315l-16 -19v-39l24 -12l7 35zM412 1020l120 24l-8 25zM692 1065l-8 -25l100 -34l7 8zM930 735v-26l90 8l8 18h-98zM621 512h139v12l-139 8v-20zM780 639h-149v-21h149v21zM395 416l-151 102
l41 -47l102 -84zM780 575l-147 15l-12 -27l159 -8v20zM473 930l2 8l29 4l-27 12l4 15l-41 -2l6 -39l29 -31l25 -12l22 10l33 25l12 24l4 27l-45 -8l13 -21l-25 -27l-29 -2zM1180 639l-13 -6l-67 -55l80 -99v160zM723 932l-14 -23h-25l-10 15l22 16l-30 4v12l-48 9l7 -35
l16 -29l41 -18l27 -2l36 20l13 19l10 41l-61 4l14 -11zM860 688l8 62l-110 10l-6 -72h108zM850 1198l10 -12l39 22l16 -4l13 -49h26l13 12l-19 37l35 58l-31 18v10l-51 15v-41l-27 -11v-18l-18 -12zM1047 639l32 -25l17 4l41 31l26 27l23 37l-15 10h-28l-21 6l-28 14l-35 -6
q-4 -27 -7 -46q-3 -18 -5 -52zM752 438l-131 8v-104l131 -12v108zM395 678l-135 80v-15l-4 -26l2 -55v-99l131 -90l-2 123zM1020 678l-111 2l-2 -49v-13l-4 -63l39 -6l-16 -125l-99 6l-16 -12l104 -10l-4 -19h-100l-8 -10l108 -14l-12 -72l55 -2l25 162l8 73l-31 6l-2 17
l41 2l11 6l-58 33l4 10l62 -12l-62 30l11 11l43 -11l8 21zM168 831h-43l39 -28l2 -23l-41 15l37 -37l-8 -15l6 -198l22 -25v369l117 -66l14 21l-139 78v36l121 -69l88 -58l57 -28l6 20l-210 131l-27 15l-84 67l4 -159l39 -35v-11zM1235 952l-16 76l-39 102l-41 74l-47 58
l-70 43h-23l35 -39l51 -21l23 -22l6 -68l-51 27l-31 -60l25 -16v-39l30 6l-24 53l31 -10l20 -41l-10 -24l-17 -15h-47l-6 23l-24 4l2 -45h-29l29 -37l-15 -20l-43 10l-6 -56l84 13l17 35l45 -5l12 -57l-33 -27v-30l17 -13l36 25h48l12 23l-37 12l-10 18l18 86h14l29 -41z
M707 1130h16l20 46l23 16l-10 12l-6 17l2 43l-62 -21l-20 -16l-17 10l9 43l28 20l23 23l78 -4l24 27l-8 16h-100l-93 -27l-108 -53l-60 -47l-51 -70l60 25l26 -31l-35 -41l-20 -6l35 -6h10l74 49h65l37 -25l17 7l8 28l14 11l21 -9v-37zM1049 817l-9 14h-419l-136 -6l-14 -18
l-12 -90l-99 41l-22 -8l117 -56l2 -92l-11 -149v-187l37 8l4 82l84 -6l7 19l-91 12v33l99 -13l2 19l-96 14l2 45l88 -6l6 12l-92 19l6 192h151l23 21h-162l4 18h152l16 15h-168l4 45l240 8l287 -8v22zM920 -57l-50 37h-28l-17 16l15 156l-9 96l-124 2l-7 -107l-4 -114v-41
l-30 -13l-17 13l-61 -21h-66l-2 23l23 22l102 43l-12 197l-201 -12l-301 286l-8 236l-27 20l-20 74v53l30 17l-6 159l189 -127l18 97l21 73l45 72l57 72l80 59l160 60h45l-140 45l9 34h14l162 -40l-8 104l32 25h66l39 -11l59 -51l66 -16l65 -21l31 -26v-41l-41 -64l61 -57
l58 -66l37 -69l30 -84l19 -111l-6 -84l-17 -72l-24 -63l-6 -320l-43 -14l-103 143l-55 -14l-39 -287l-66 9l-14 -9l-8 -192l61 -39l33 -29l-6 -30z" />
    <glyph glyph-name=".null" horiz-adv-x="0" 
 />
    <glyph glyph-name=".null" horiz-adv-x="0" 
 />
    <glyph glyph-name="nonmarkingreturn" unicode="&#xd;" horiz-adv-x="737" 
 />
    <glyph glyph-name="space" unicode=" " horiz-adv-x="491" 
 />
    <glyph glyph-name="exclam" unicode="!" horiz-adv-x="673" 
d="M326 233l59 -12l-8 -115l-33 -104l-158 -12l-59 12l10 119l31 100zM279 455v395l90 604h247l-124 -602l-142 -397h-71z" />
    <glyph glyph-name="quotedbl" unicode="&#x22;" horiz-adv-x="856" 
d="M561 918q8 12 32.5 55t74.5 130.5t53 102.5l-121 6l12 127l37 105l158 12l70 -12l-11 -121l-35 -111l-223 -317zM205 918q26 38 93 158t69 130l-121 6l10 127l37 105l160 12l69 -12l-10 -121l-37 -111l-223 -317z" />
    <glyph glyph-name="numbersign" unicode="#" horiz-adv-x="1249" 
d="M1112 1341l-123 -413h268l-24 -82h-268l-107 -352h268l-24 -82h-268l-121 -412h-95l121 412h-319l-121 -412h-92l121 412h-271l27 82h268l107 352h-269l25 82h268l123 413h92l-123 -413h320l123 413h94zM446 494h318l106 352h-317z" />
    <glyph glyph-name="dollar" unicode="$" horiz-adv-x="1134" 
d="M467 1176q0 -82 41 -133.5t117 -114.5l80 450q-28 4 -56 4q-182 -60 -182 -206zM788 303q0 88 -48 156t-117 114l-88 -505q33 -8 77 -9q176 63 176 244zM240 1049q0 233 309 352l170 65l24 133h60l-23 -131q208 -7 340 -96l-61 -328h-74l-35 220q-76 76 -188 104
l-84 -481l164 -131q87 -73 133.5 -148t46.5 -194t-82 -224.5t-229 -156.5l-195 -68l-22 -129h-60l23 129q-233 11 -381 123l71 334h86l5 -203q83 -92 239 -137l92 532l-143 115q-78 63 -132 139t-54 181z" />
    <glyph glyph-name="percent" unicode="%" horiz-adv-x="1656" 
d="M1184 653q-123 -34 -149.5 -160.5t-28.5 -212.5t29.5 -146t90.5 -71q164 47 175 373q3 86 -29.5 146.5t-87.5 70.5zM1083 0q-111 0 -179 73t-64 211t82.5 252.5t259.5 168.5l41 14q117 0 183.5 -77t61.5 -198q-6 -239 -130 -323t-214 -109zM541 1370
q-126 -35 -162.5 -227.5t4.5 -271t100 -89.5q79 23 124.5 118t49.5 218q8 230 -116 252zM440 717q-111 0 -179 73.5t-65 210.5t83.5 252t261.5 168l41 15q117 0 183 -77t62 -198q-7 -241 -131.5 -324t-212.5 -106zM1452 1444h117l-1360 -1454h-119z" />
    <glyph glyph-name="ampersand" unicode="&#x26;" horiz-adv-x="1232" 
d="M526 1114q0 -110 56.5 -188.5t115.5 -83.5l-10 -56q-146 -4 -255 -125t-109 -284q0 -227 101 -281.5t169 -56.5q113 52 166.5 131.5t85.5 239.5l24 135h-114l-33 -47h-31l37 204h467l31 48h30l-38 -205h-125l-27 -156q-26 -146 -105.5 -230.5t-285.5 -146.5
q-17 -8 -64 -20t-72.5 -19.5t-35.5 -9.5q-211 0 -324.5 104t-113.5 261q0 300 360 436l98 39q-147 29 -192 125t-45 158q0 226 411 335l185 49q95 -7 250 -110l-123 -164q-84 73 -178.5 121.5t-126.5 58.5q-179 -96 -179 -262z" />
    <glyph glyph-name="quotesingle" unicode="'" horiz-adv-x="497" 
d="M201 915q8 14 82.5 141t78.5 148l-120 8l10 125l39 107l160 10l67 -10l-10 -123l-35 -109l-223 -319z" />
    <glyph glyph-name="parenleft" unicode="(" horiz-adv-x="712" 
d="M303 206q0 -392 156 -652l-37 -39q-218 289 -251.5 459t-33.5 314t32 297.5t105.5 297t194.5 287t299 313.5l35 -29q-240 -248 -370 -552t-130 -696z" />
    <glyph glyph-name="parenright" unicode=")" horiz-adv-x="712" 
d="M360 788q0 399 -155 658l37 37q223 -301 254.5 -465t31.5 -307q0 -329 -137 -594.5t-497 -601.5l-33 28q499 507 499 1245z" />
    <glyph glyph-name="asterisk" unicode="*" horiz-adv-x="733" 
d="M322 817l-150 121l244 184l-291 23l88 194l225 -155l-37 280h205l-102 -280l264 151l39 -190l-289 -23l201 -182l-180 -123l-78 268z" />
    <glyph glyph-name="plus" unicode="+" 
d="M586 0v471h-480v98h480v486h98v-486h477v-98h-477v-471h-98z" />
    <glyph glyph-name="comma" unicode="," horiz-adv-x="501" 
d="M59 -281q41 61 96.5 162t57.5 111l-113 8l9 131l38 109l162 12l70 -12l-8 -125l-39 -115l-221 -305z" />
    <glyph glyph-name="hyphen" unicode="-" horiz-adv-x="798" 
d="M121 625h624l-20 -111h-625z" />
    <glyph glyph-name="period" unicode="." horiz-adv-x="522" 
d="M301 252l61 -12l-10 -127l-35 -113l-172 -12l-63 12l10 131l37 109z" />
    <glyph glyph-name="slash" unicode="/" horiz-adv-x="987" 
d="M-172 -471h-96l1267 1941h93z" />
    <glyph glyph-name="zero" unicode="0" horiz-adv-x="1159" 
d="M848 531q0 166 -66.5 265t-173.5 126q-125 -57 -197.5 -185.5t-72.5 -294.5t64 -265t173 -128q129 59 201 187.5t72 294.5zM993.5 244q-106.5 -146 -336.5 -226l-135 -49q-191 0 -312.5 119.5t-121.5 302.5q0 289 157.5 402.5t280.5 156.5l140 49q196 0 315 -120.5
t119 -304.5t-106.5 -330z" />
    <glyph glyph-name="one" unicode="1" horiz-adv-x="929" 
d="M12 55l305 23l127 719l11 22l-43 -18l-299 -88l-15 53l539 219h74l-160 -907l297 -23l-12 -57l-410 4l-416 -4z" />
    <glyph glyph-name="two" unicode="2" horiz-adv-x="1052" 
d="M725 756q0 72 -39 112.5t-111 42.5l-116 -32l-113 -252h-164l23 231l463 141q162 0 236.5 -63.5t74.5 -150.5q0 -149 -134 -253.5t-374 -230.5l-254 -131l195 31h592v-51l-78 -150h-914l-26 61l366 254q176 123 274.5 225.5t98.5 215.5z" />
    <glyph glyph-name="three" unicode="3" horiz-adv-x="950" 
d="M578 10q0 106 -76 177t-244 75l-12 43l121 66q278 130 278 352q0 76 -41 127t-108 61l-109 -34l-113 -254h-155l18 233l445 141q152 0 229.5 -68.5t77.5 -186.5q0 -119 -107 -212t-284 -147q174 -14 255 -97.5t81 -191.5t-46.5 -180t-117 -125t-156.5 -92t-166 -72
l-250 -108h-182l37 207h459q166 115 166 286z" />
    <glyph glyph-name="four" unicode="4" horiz-adv-x="1161" 
d="M586 -12h-537l-39 71l778 914h269l-10 -58l-932 -843l59 18h428l43 246l215 139h37l-68 -385h269l-19 -102h-268l-82 -453h-225z" />
    <glyph glyph-name="five" unicode="5" horiz-adv-x="987" 
d="M420 -268q184 142 184 330t-82 228t-157 40t-193 -58l-74 -47l-32 33l215 715h710l-8 -35l-72 -170h-616l-141 -453l319 183q205 0 296 -95.5t91 -214.5q0 -120 -44 -204t-137 -170.5t-312 -178.5l-244 -110h-191l39 207h449z" />
    <glyph glyph-name="six" unicode="6" horiz-adv-x="1110" 
d="M96 416q0 376 276 667.5t705 386.5l19 -55q-282 -75 -470 -282.5t-231 -411.5l338 211q130 -8 217.5 -117t87.5 -274q0 -164 -95 -302.5t-288 -205.5l-170 -66q-172 0 -280.5 126.5t-108.5 322.5zM354 457q0 -164 54.5 -270t160.5 -132q157 71 186 209.5t29 200.5
q0 154 -48 227.5t-108 73.5q-61 0 -175 -70l-68 -41q-31 -105 -31 -198z" />
    <glyph glyph-name="seven" unicode="7" horiz-adv-x="1009" 
d="M109 969h890l29 -39l-823 -1401h-189l7 55l833 1190l-35 -18h-749z" />
    <glyph glyph-name="eight" unicode="8" horiz-adv-x="1114" 
d="M193 547.5q111 101.5 288 173.5q-116 96 -170.5 166.5t-54.5 169.5q2 135 100.5 227t249.5 139l142 43q166 0 266 -69.5t100 -184.5q0 -213 -150.5 -294.5t-215.5 -110.5q55 -47 104 -89t108.5 -109.5t59.5 -178.5q0 -154 -114.5 -256t-303.5 -166l-123 -43
q-164 0 -280.5 88t-116.5 241q0 152 111 253.5zM330 354q0 -124 67.5 -210t161.5 -99q199 101 199 301q0 129 -91.5 214t-134.5 124q-202 -137 -202 -330zM508 1143q0 -136 192 -297q174 123 174 315q0 92 -49 156.5t-157 75.5q-160 -75 -160 -250z" />
    <glyph glyph-name="nine" unicode="9" horiz-adv-x="1097" 
d="M1030 552q0 -197 -73.5 -364.5t-203.5 -305.5t-310.5 -238.5t-393.5 -145.5l-18 53q279 74 467.5 280.5t234.5 414.5l-334 -209q-129 4 -220 113.5t-91 274.5t96.5 305t286.5 206l174 63q176 0 280.5 -125t104.5 -322zM772 517q0 161 -55.5 266t-159.5 130
q-152 -69 -182.5 -207.5t-30.5 -199.5q0 -154 49 -228.5t99 -74.5t87 16.5t97 50.5l67 43q29 119 29 204z" />
    <glyph glyph-name="colon" unicode=":" horiz-adv-x="565" 
d="M311 252l62 -12l-11 -127l-34 -113l-172 -12l-64 12l10 131l37 109zM430 993l64 -12l-11 -127l-37 -111l-172 -12l-61 12l10 129l35 109z" />
    <glyph glyph-name="semicolon" unicode=";" horiz-adv-x="563" 
d="M430 993l62 -12l-11 -127l-35 -111l-172 -12l-63 12l12 129l35 109zM53 -281q8 12 33 53.5t73 120t52 99.5l-119 8l10 131l39 109l160 12l72 -12l-11 -125l-36 -115l-220 -305z" />
    <glyph glyph-name="less" unicode="&#x3c;" 
d="M1167 1110v-113l-927 -409l927 -410v-115l-1065 484v80z" />
    <glyph glyph-name="equal" unicode="=" 
d="M1163 256h-1059v98h1059v-98zM1163 651h-1059v99h1059v-99z" />
    <glyph glyph-name="greater" unicode="&#x3e;" 
d="M1167 627v-80l-1065 -484v115l928 410l-928 409v113z" />
    <glyph glyph-name="question" unicode="?" horiz-adv-x="862" 
d="M924 1142q0 -251 -330 -368l-137 -55l-101 -281h-77l36 254l148 88q98 59 153.5 148.5t55.5 187.5t-30 153.5t-60.5 80t-71.5 30.5l-47 -16l-96 -223h-123l10 207l321 106q153 0 251 -89t98 -223zM332 233l59 -12l-10 -115l-31 -104l-160 -12l-57 12l8 119l33 100z" />
    <glyph glyph-name="at" unicode="@" horiz-adv-x="1912" 
d="M780 538q0 -72 41 -126t113 -68l219 244l72 297l-170 108q-146 -71 -210.5 -191t-64.5 -264zM1147 1352q-201 0 -333 -56.5t-235.5 -161t-168 -251t-64.5 -324.5q0 -332 208.5 -508t502.5 -176q127 0 226 38t165 71l20 -41q-95 -53 -238 -105.5t-253 -70.5
q-371 0 -597 209t-226 519t194.5 543.5t515.5 333.5l197 60q373 0 581.5 -163t208.5 -427q0 -135 -51 -254t-139 -208t-203 -142.5t-239 -59.5l-125 131l69 223l-30 -36q-31 -37 -76 -90.5t-97.5 -117t-97.5 -114.5q-108 4 -190 90t-82 237t99.5 289t266.5 211l220 99
l241 -127l-164 -742q153 13 285.5 173.5t132.5 400.5q0 239 -161.5 393t-362.5 154z" />
    <glyph glyph-name="A" unicode="A" horiz-adv-x="1392" 
d="M352 -2l-205 4l-198 -4l4 57l145 19l756 1333l205 59l135 -1392l141 -19l-12 -57l-297 4l-272 -4l2 57l168 21l-35 411h-463l-227 -411l166 -21zM463 559h420l-47 610l2 72z" />
    <glyph glyph-name="B" unicode="B" horiz-adv-x="1216" 
d="M608 788q118 0 219 101t101 244q0 106 -52.5 170.5t-162.5 64.5h-113l-90 -580h98zM207 1436q140 -4 161 -4h123q103 0 167 1t156 2q178 2 279 -80t101 -201q0 -120 -84 -213t-250 -138l-110 -29q209 -12 321.5 -102t112.5 -221q0 -216 -158 -291.5t-231 -102.5l-170 -59
l-367 4l-272 -4v57l159 21l201 1288l-151 16zM903 432q0 125 -69.5 208t-202.5 83h-131l-97 -635h293q207 123 207 344z" />
    <glyph glyph-name="C" unicode="C" horiz-adv-x="1282" 
d="M381 664q0 -387 157.5 -485.5t245.5 -115.5q139 53 228 123l153 281h78l-76 -361l-477 -143q-267 0 -427.5 170.5t-160.5 442.5t147.5 499.5t450.5 331.5l203 66q216 0 387 -119l-16 -355h-74l-74 250q-119 96 -346 125q-197 -84 -298 -271.5t-101 -438.5z" />
    <glyph glyph-name="D" unicode="D" horiz-adv-x="1378" 
d="M1090 837q0 243 -102.5 384t-254.5 145h-133l-199 -1274h289q274 156 337 387.5t63 357.5zM1220.5 371.5q-147.5 -215.5 -432.5 -310.5l-186 -63l-328 4l-286 -4v57l157 21l199 1288l-151 16l10 56l284 -4l314 4q258 0 412.5 -162t154.5 -424q0 -263 -147.5 -478.5z" />
    <glyph glyph-name="E" unicode="E" horiz-adv-x="1202" 
d="M-12 55l157 21l201 1284l-151 20l10 56l276 -4l766 4l-30 -373h-56l-94 299l-467 4l-90 -582l248 4l133 234h49l-57 -270l-31 -269h-49l-60 232l-243 4l-101 -649l508 4l176 317h62l-80 -393l-809 4l-270 -4z" />
    <glyph glyph-name="F" unicode="F" horiz-adv-x="1144" 
d="M627 55l-11 -57l-352 4l-278 -4l2 57l157 21l201 1284l-151 20l10 56l270 -4l772 4l-30 -377h-56l-94 303l-467 4l-94 -608l248 4l133 233h49l-57 -272l-31 -268h-49l-58 233l-245 4l-97 -618z" />
    <glyph glyph-name="G" unicode="G" horiz-adv-x="1361" 
d="M242.5 1077q156.5 234 468.5 334l198 59q135 0 232.5 -40.5t154.5 -86.5l-18 -339h-74l-69 231q-55 53 -144.5 94t-210.5 45q-197 -92 -305 -274t-108 -442t103 -410t284 -191q94 30 176 84l67 447l-149 20l10 54h268l236 2v-56l-113 -20l-73 -475l-531 -150
q-254 0 -406.5 172t-152.5 440t156.5 502z" />
    <glyph glyph-name="H" unicode="H" horiz-adv-x="1435" 
d="M264 2l-278 -4l2 57l159 21l197 1284l-151 20l12 56l276 -4l271 4l-2 -56l-150 -20l-90 -580h526l88 580l-145 20l10 56l275 -4l270 4l-2 -56l-152 -20l-198 -1284l149 -21l-10 -57l-274 4l-277 -4v57l156 21l98 631h-524l-99 -631l148 -21l-10 -57z" />
    <glyph glyph-name="I" unicode="I" horiz-adv-x="657" 
d="M754 1380l-152 -20l-199 -1284l150 -21l-12 -57l-277 4l-276 -4v57l159 21l201 1284l-151 20l10 56l278 -4l271 4z" />
    <glyph glyph-name="J" unicode="J" horiz-adv-x="657" 
d="M362 1360l-157 20l12 56l281 -4l272 4v-56l-154 -20l-176 -1143q-23 -135 -79 -224t-142 -155l-262 -194h-135l41 200h227q58 130 90 332z" />
    <glyph glyph-name="K" unicode="K" horiz-adv-x="1425" 
d="M600 1360l-88 -576l27 17l624 559l-155 20l8 56l231 -4l211 4l-2 -56l-176 -20l-647 -569l139 -29l469 -686l102 -21l-10 -57l-182 4l-178 -4l-453 719l-14 35l-105 -676l142 -21l-13 -57l-266 4l-278 -4l2 57l162 21l196 1284l-151 20l12 56l274 -4l262 4v-56z" />
    <glyph glyph-name="L" unicode="L" horiz-adv-x="1124" 
d="M399 70l432 4l213 323h60l-100 -399l-748 4l-270 -4l2 57l157 21l201 1284l-153 20l14 56l268 -4l283 4l-2 -56l-156 -20z" />
    <glyph glyph-name="M" unicode="M" horiz-adv-x="1789" 
d="M1450 1436l190 -4l248 4v-56l-153 -20l-201 -1284l147 -21l-12 -57l-264 4l-281 -4v57l162 21l180 1157l31 115l-661 -1350h-148l-250 1235l-10 110l-192 -1267l153 -21l-10 -57l-195 4l-198 -4l2 57l151 21l201 1280l-154 24l13 56l221 -4l233 4l221 -1114l-4 -72z" />
    <glyph glyph-name="N" unicode="N" horiz-adv-x="1394" 
d="M1255 1360l-155 20l10 56l195 -4l202 4v-56l-159 -20l-213 -1360h-158l-541 1200l-10 92l-188 -1216l161 -21l-12 -57l-201 4l-200 -4l2 57l157 21l203 1280l-149 24l12 56l197 -4l192 4l481 -1039l17 -92z" />
    <glyph glyph-name="O" unicode="O" horiz-adv-x="1425" 
d="M1413 854q0 -279 -142.5 -509t-439.5 -327l-163 -55q-255 0 -410.5 172.5t-155.5 456.5q0 432 211 604t369 221l166 53q257 0 371 -126.5t154 -242.5t40 -247zM480.5 220q99.5 -154 258.5 -171q185 73 289.5 282t104.5 471t-98.5 413t-258.5 174q-180 -68 -287.5 -280
t-107.5 -474q0 -261 99.5 -415z" />
    <glyph glyph-name="P" unicode="P" horiz-adv-x="1165" 
d="M1251 1113q0 -151 -114.5 -254t-325.5 -179l-149 -57h-179l-84 -547l226 -21l-11 -57l-358 4l-270 -4l2 57l157 21l201 1288l-153 16l14 56l274 -4l365 4q193 2 299 -85t106 -238zM973 1098q0 266 -234 270h-139l-100 -649h250q223 140 223 379z" />
    <glyph glyph-name="Q" unicode="Q" horiz-adv-x="1425" 
d="M480.5 220q99.5 -154 258.5 -171q185 73 289.5 282t104.5 471t-98.5 413t-258.5 174q-180 -68 -287.5 -280t-107.5 -474q0 -261 99.5 -415zM1413 854q0 -279 -142.5 -509t-439.5 -327l-118 -41l63 -10l244 -114l160 -117l80 -31l-82 -47l-318 88l-219 219
q-246 8 -392.5 178t-146.5 449q0 432 211 604t369 221l166 53q257 0 371 -126.5t154 -242.5t40 -247z" />
    <glyph glyph-name="R" unicode="R" horiz-adv-x="1335" 
d="M1144.5 887.5q-106.5 -94.5 -296.5 -154.5l-137 -43l221 -78l244 -536l90 -23l-11 -55l-184 4l-153 -4l-279 664l-12 10h-135l-93 -596l168 -21l-12 -57l-299 4l-270 -4l2 57l157 21l201 1288l-153 16l14 56l274 -4l365 4q188 0 296.5 -83.5t108.5 -227.5
q0 -143 -106.5 -237.5zM973 1116q0 117 -57.5 184.5t-174.5 71.5h-141l-94 -610h233q234 115 234 354z" />
    <glyph glyph-name="S" unicode="S" horiz-adv-x="1024" 
d="M420 1176q0 -105 63.5 -162.5t102.5 -89.5l209 -168q87 -73 133.5 -148t46.5 -194t-82 -224.5t-229 -156.5l-201 -70q-141 0 -252 36t-182 89l71 334h86l4 -203q53 -57 163 -108.5t212 -51.5q176 63 176 244q0 88 -42.5 148.5t-116.5 117.5l-203 160q-78 63 -132 139
t-54 181q0 233 309 352l180 69q245 0 391 -98l-61 -328h-74l-35 220q-114 114 -301 118q-182 -60 -182 -206z" />
    <glyph glyph-name="T" unicode="T" horiz-adv-x="1189" 
d="M612 1366l-252 -2l-170 -315h-59l57 387l562 -4l559 4l-58 -387h-61l-72 315l-254 2l-198 -1290l180 -21l-10 -57l-310 4l-293 -4l3 57l176 21z" />
    <glyph glyph-name="U" unicode="U" horiz-adv-x="1323" 
d="M426 471q-25 -174 54 -282.5t257 -108.5q141 56 210 139.5t95 259.5l142 883l-160 18l12 56l205 -4l211 4l-2 -56l-160 -18l-139 -870q-31 -191 -113 -302.5t-266 -164.5l-182 -62q-495 0 -416 514l135 885l-151 18l10 56l272 -4l281 4l-2 -56l-152 -18z" />
    <glyph glyph-name="V" unicode="V" horiz-adv-x="1331" 
d="M543 -31l-246 1395l-141 16l10 56l287 -4l272 4v-56l-168 -18l184 -1102l-12 -72l510 1174l-168 18l12 56l217 -4l168 4l-2 -56l-125 -16l-604 -1341z" />
    <glyph glyph-name="W" unicode="W" horiz-adv-x="1939" 
d="M1065 881l4 57l-362 -915l-195 -56l-217 1395l-141 18l12 56l283 -4l256 4l-3 -56l-151 -20l158 -1100l-13 -63l338 854l-47 311l-113 18l11 56l258 -4l278 4l-2 -56l-176 -20l158 -1100l-10 -63l460 1163l-170 20l11 56l215 -4l170 4l-2 -56l-121 -18l-555 -1339
l-195 -56z" />
    <glyph glyph-name="X" unicode="X" horiz-adv-x="1388" 
d="M141 2l-184 -4v57l143 19l521 614l-345 674l-110 18l10 56l242 -4l295 4v-56l-154 -20l234 -475l2 -41l434 516l-160 20l12 56l226 -4l166 4v-56l-127 -18l-500 -582l360 -706l103 -19l-11 -57l-231 4l-303 -4l2 57l154 21l-246 508v43l-451 -553l156 -19l-10 -57z" />
    <glyph glyph-name="Y" unicode="Y" horiz-adv-x="1298" 
d="M797 711v-52l432 701l-168 20l10 56l213 -4l154 4l-2 -56l-109 -18l-491 -780l-78 -506l194 -21l-10 -57l-324 4l-319 -4v57l205 21l80 508l-316 778l-112 18l10 56l250 -4l293 4v-56l-162 -20z" />
    <glyph glyph-name="Z" unicode="Z" horiz-adv-x="1148" 
d="M-6 0l-8 57l913 1272l59 41l-538 -10l-184 -320h-58l66 394h962l21 -56l-910 -1274l-53 -34l574 4l223 348h55l-100 -422h-1022z" />
    <glyph glyph-name="bracketleft" unicode="[" horiz-adv-x="673" 
d="M442 -416l-10 -55l-237 2l-177 -2q48 259 74 413t43 246.5t30 171t24.5 138.5t14.5 80t11 65t19.5 109.5t24.5 142.5t37 211t62 358l166 -2l250 2l-10 -55l-262 -16q-54 -283 -76.5 -409t-49 -264.5t-56 -323t-134.5 -795.5z" />
    <glyph glyph-name="backslash" unicode="\" horiz-adv-x="847" 
d="M199 1470h86l585 -1941h-90z" />
    <glyph glyph-name="bracketright" unicode="]" horiz-adv-x="673" 
d="M606 1464q-61 -339 -342 -1935l-182 2l-232 -2l9 55l264 17q54 315 97.5 545.5t55 293t18.5 101.5t16 94t25 145t43 257q28 167 60 356l-256 16l8 55l232 -2z" />
    <glyph glyph-name="asciicircum" unicode="^" horiz-adv-x="768" 
d="M272 942h-116l340 502h59l172 -502h-117l-104 369z" />
    <glyph glyph-name="underscore" unicode="_" horiz-adv-x="1210" 
d="M-43 -133h1139l-15 -88h-1136z" />
    <glyph glyph-name="grave" unicode="`" horiz-adv-x="978" 
d="M541 1128l-195 357h225l35 -357h-65z" />
    <glyph glyph-name="a" unicode="a" horiz-adv-x="1024" 
d="M70 338q0 195 109.5 342t295.5 240l164 79q86 0 178 -32.5t129 -51.5l-145 -819l180 123l27 -37l-285 -215l-154 72l31 170l18 47l-315 -287q-233 82 -233 369zM303 456q0 -120 31 -190.5t88 -118.5l194 162l91 512q-41 27 -100.5 43.5t-106.5 16.5
q-92 -70 -144.5 -187.5t-52.5 -237.5z" />
    <glyph glyph-name="b" unicode="b" horiz-adv-x="995" 
d="M723 561q0 92 -33 166t-92 104l-188 -133l-97 -536q41 -35 100.5 -57.5t106.5 -22.5q203 110 203 479zM961 625q0 -172 -100.5 -333.5t-278.5 -238.5l-187 -84q-172 10 -319 103l225 1278l-192 -50l-15 46l387 118l54 -41l-109 -624l-20 -47l315 247q104 -27 172 -114.5
t68 -259.5z" />
    <glyph glyph-name="c" unicode="c" horiz-adv-x="870" 
d="M311 475q0 -143 62.5 -228t154.5 -118q25 10 55.5 27.5t75 42t109.5 65.5l29 -37q-53 -41 -117 -83t-135 -89l-129 -86q-141 4 -241.5 108.5t-100.5 287.5q0 360 415 553l168 81q99 -9 213 -77l-116 -183q-104 72 -248 129q-195 -124 -195 -393z" />
    <glyph glyph-name="d" unicode="d" horiz-adv-x="1069" 
d="M311 456q0 -118 33 -186.5t94 -115.5l193 157l92 514q-119 62 -223 62q-94 -70 -141.5 -191.5t-47.5 -239.5zM74 352q0 186 101 334t284 232l172 81q49 -4 117 -28l67 379l-188 -50l-17 46l387 118l52 -41l-234 -1327l180 123l27 -35l-285 -217l-153 76l30 168l19 47
l-309 -289q-176 60 -213 180.5t-37 202.5z" />
    <glyph glyph-name="e" unicode="e" horiz-adv-x="899" 
d="M625 738q0 67 -31 108t-76 51q-96 -53 -150.5 -154.5t-60.5 -228.5q0 -8 2 -18l291 112q25 63 25 130zM74 358q0 288 150.5 409.5t250.5 160.5l187 69q90 -16 146 -69.5t56 -146.5t-37 -175l-520 -157v-21q10 -129 74.5 -201.5t148.5 -97.5q154 69 254 135l27 -37
q-116 -85 -270 -176l-135 -82q-143 13 -237.5 118t-94.5 271z" />
    <glyph glyph-name="f" unicode="f" horiz-adv-x="645" 
d="M92 909l43 39h127l12 74q16 92 66.5 167t122.5 122l248 153h163l-32 -182h-258q-49 -52 -74 -180l-29 -158h211l-12 -67h-211l-156 -897q-32 -175 -200 -291l-250 -170h-129l39 202h237q45 59 70 185l170 971h-166z" />
    <glyph glyph-name="g" unicode="g" horiz-adv-x="1013" 
d="M322 454q0 -211 127 -302l194 157l90 510q-41 29 -101.5 46.5t-113.5 17.5q-98 -72 -147 -192.5t-49 -236.5zM84 348q0 186 106.5 333.5t298.5 236.5l170 81q63 -2 152.5 -24.5t161.5 -59.5l-166 -927q-14 -78 -99 -154t-204 -160l-228 -155h-249l36 202h400
q37 35 72.5 104t48.5 144l41 240l20 47l-309 -285q-178 61 -215 179t-37 198z" />
    <glyph glyph-name="h" unicode="h" horiz-adv-x="1081" 
d="M741 705q21 122 -65 122q-70 0 -174 -71l-74 -49l-125 -707h-221l237 1350l-190 -50l-16 46l391 118l51 -41l-111 -624l-16 -33l340 233q129 0 178 -65.5t27 -175.5l-117 -660l180 121l27 -35l-289 -217l-151 74z" />
    <glyph glyph-name="i" unicode="i" horiz-adv-x="593" 
d="M80 803l-14 41l372 153l56 -51l-148 -850l178 123l27 -35l-287 -217l-151 74l145 823zM367 1415l71 12l133 -12v-117l-39 -96l-67 -14l-146 14l7 113z" />
    <glyph glyph-name="j" unicode="j" horiz-adv-x="579" 
d="M381 1415l70 12l133 -12v-117l-41 -96l-66 -14l-147 14l8 113zM-244 -481l37 202h246q41 65 65 193l168 950l-178 -61l-16 41l373 153l55 -51l-166 -946q-31 -173 -211 -303l-254 -178h-119z" />
    <glyph glyph-name="k" unicode="k" horiz-adv-x="1034" 
d="M604 25l-205 518l-98 -543h-219l235 1352l-190 -49l-14 43l389 118l51 -41l-147 -845l18 6l387 395h195l-48 -229h-225q-33 -6 -109.5 -65.5t-88.5 -68.5l-60 -49l166 -49l190 -414l160 109l25 -37l-279 -209z" />
    <glyph glyph-name="l" unicode="l" horiz-adv-x="583" 
d="M139 1300l-16 46l391 118l49 -41l-233 -1327l180 123l27 -35l-287 -217l-152 74l230 1309z" />
    <glyph glyph-name="m" unicode="m" horiz-adv-x="1603" 
d="M1262 705q21 120 -56 120q-57 0 -155 -67l-80 -56l-127 -702h-221l122 705q21 122 -59 122q-52 0 -151 -69l-82 -56l-125 -702h-222l150 864l-174 -61l-16 41l372 153l56 -51l-27 -151l-14 -33l323 237q226 0 205 -221l-4 -12l317 233q125 0 173.5 -65.5t27.5 -175.5
l-117 -662l181 123l24 -37l-285 -215l-153 74z" />
    <glyph glyph-name="n" unicode="n" horiz-adv-x="1105" 
d="M764 705q21 122 -64 122q-74 0 -174 -71l-73 -49l-125 -707h-222l152 864l-176 -61l-16 41l372 153l56 -51l-25 -147l-16 -33l338 233q129 0 177 -65.5t27 -175.5l-116 -662l180 123l26 -37l-286 -215l-154 74z" />
    <glyph glyph-name="o" unicode="o" horiz-adv-x="1001" 
d="M369 171.5q58 -87.5 149 -110.5q107 47 159 187.5t52 263.5t-31.5 242t-177.5 153q-109 -50 -159 -188t-50 -299t58 -248.5zM74 369q0 186 98 335.5t291 231.5l145 63q153 0 256 -105t103 -292q0 -186 -99.5 -338.5t-292.5 -232.5l-145 -62q-152 0 -254 107t-102 293z
" />
    <glyph glyph-name="p" unicode="p" horiz-adv-x="1048" 
d="M1012 635q0 -286 -136.5 -414.5t-224.5 -167.5l-180 -84q-68 8 -139 43l-2 -59l-76 -424h-221l233 1335l-178 -61l-14 41l372 153l56 -49l-25 -147l-18 -47l307 245q109 -23 177.5 -112.5t68.5 -251.5zM772 530q0 240 -129 297l-184 -129l-94 -540q95 -75 210 -80
q197 114 197 452z" />
    <glyph glyph-name="q" unicode="q" horiz-adv-x="991" 
d="M74 356q0 170 105.5 329.5t291.5 242.5l162 71q121 -7 209 -35t119 -44l-246 -1391h-221l116 670l23 53l-305 -283q-115 37 -184.5 127t-69.5 260zM506 889q-195 -127 -195 -467q0 -88 36 -157.5t95 -104.5l189 147l94 527q-98 55 -219 55z" />
    <glyph glyph-name="r" unicode="r" horiz-adv-x="819" 
d="M104 0l154 864l-178 -61l-14 41l372 153l49 -45l-51 -295l-33 -114l285 436h158l-47 -238h-164q-22 -13 -70.5 -71t-74 -88.5t-37.5 -44.5l-39 -50l-86 -487h-224z" />
    <glyph glyph-name="s" unicode="s" horiz-adv-x="774" 
d="M414 76q84 27 84 108t-80 150l-185 149q-98 81 -98 193q0 76 54.5 139.5t183.5 116.5l157 67q81 -11 234 -86l-102 -170q-124 82 -279 150q-72 -29 -72 -99t78 -137l178 -145q61 -53 86 -102.5t25 -125.5t-53.5 -137t-155.5 -98l-221 -80q-58 14 -139.5 54t-98.5 51
l105 168q158 -101 299 -166z" />
    <glyph glyph-name="t" unicode="t" horiz-adv-x="688" 
d="M104 37l148 840h-162l8 32l43 39h123l21 115l202 170h50l-54 -289h228l-15 -67h-225l-135 -783l258 123l22 -37l-360 -213z" />
    <glyph glyph-name="u" unicode="u" horiz-adv-x="1097" 
d="M430 139q37 0 78 23.5t88 54.5l74 51l123 701h223l-154 -873l182 119l27 -35l-295 -213l-141 68l22 139l17 37l-334 -242q-129 0 -176 66.5t-29 175.5l119 655l-180 -59l-17 41l375 149l55 -51l-122 -690q-10 -61 9 -89t56 -28z" />
    <glyph glyph-name="v" unicode="v" horiz-adv-x="933" 
d="M10 805l-16 41l371 153l55 -55l6 -817l-10 -53l393 610l-164 197l199 118l80 -90l-41 -247l-455 -691l-215 45l-25 850z" />
    <glyph glyph-name="w" unicode="w" horiz-adv-x="1411" 
d="M709 16l-11 363l13 65l-295 -473l-203 45l-25 850l-178 -61l-16 41l368 153l56 -55l10 -799l-8 -53l272 438l-10 363l231 82l11 -832l-11 -51l377 596l-160 191l193 120l78 -90l-35 -237l-457 -701z" />
    <glyph glyph-name="x" unicode="x" horiz-adv-x="1017" 
d="M555 33l-98 317v43l-267 -401h-196l47 225h182q27 5 86.5 76.5t71.5 87.5l47 61l-129 435l-188 -66l-15 41l353 149l61 -49l94 -317v-49l242 393h196l-47 -225h-170q-36 -15 -141 -154l-53 -57l135 -445l186 117l27 -37l-293 -209z" />
    <glyph glyph-name="y" unicode="y" horiz-adv-x="968" 
d="M489 41l-186 -37l-123 860l-176 -61l-18 39l344 157l78 -45l108 -864l334 604l-164 185l193 120l79 -88l-34 -241l-344 -609l-336 -544l-256 2l41 221h217z" />
    <glyph glyph-name="z" unicode="z" horiz-adv-x="880" 
d="M115 55l-88 -67l-45 30l684 756l-84 -39l-367 45l-59 -78l-39 15l133 272l559 -57l59 41l41 -29l-655 -729l72 31l407 -60l74 82l37 -14l-139 -283z" />
    <glyph glyph-name="braceleft" unicode="{" horiz-adv-x="661" 
d="M668 1464h98l-10 -55h-86q-100 0 -136 -78t-45 -139l-65 -395q-14 -86 -57.5 -151.5t-141.5 -104.5l135 -109l-118 -631q-33 -169 24.5 -193t85.5 -24h84l-8 -55h-106q-127 0 -194 78t-44 209l104 585l-114 115l2 21q131 43 152.5 125.5t27.5 125.5l68 390
q24 132 122 209t222 77z" />
    <glyph glyph-name="bar" unicode="|" horiz-adv-x="798" 
d="M543 1470h92l-346 -1972h-92z" />
    <glyph glyph-name="braceright" unicode="}" horiz-adv-x="661" 
d="M-59 -416q144 0 180 217l80 484q14 94 82.5 153.5t111.5 77.5q-17 7 -75 62t-54 73l101 541q22 112 -9.5 164.5t-97.5 52.5h-86l8 55h107q127 0 193.5 -77.5t43.5 -208.5l-90 -512q-3 -17 39 -66t72 -70l-2 -20q-140 -39 -176 -231l-82 -463q-24 -130 -121.5 -208.5
t-222.5 -78.5h-99l13 55h84z" />
    <glyph glyph-name="asciitilde" unicode="~" horiz-adv-x="1419" 
d="M1268 649h55l-111 -176l-202 -53l-721 125l-117 -133h-55l108 174l207 57l721 -125z" />
    <glyph glyph-name="nonbreakingspace" unicode="&#xa0;" horiz-adv-x="0" 
 />
    <glyph glyph-name="exclamdown" unicode="&#xa1;" horiz-adv-x="673" 
d="M289 721l-60 12l11 115l30 102l160 13l57 -13l-10 -119l-31 -98zM338 500v-398l-90 -604h-252l127 604l143 398h72z" />
    <glyph glyph-name="cent" unicode="&#xa2;" horiz-adv-x="913" 
d="M326 475q0 -143 62.5 -228t154.5 -118q25 10 55.5 27.5t83 46.5t100.5 61l29 -37q-62 -48 -252 -172l-100 -65l-27 -154h-80l23 139q-121 21 -204 123.5t-83 275.5q0 351 416 544l57 26l33 176h80l-23 -131l21 10q99 -9 213 -77l-117 -183q-107 74 -248 129
q-194 -123 -194 -393z" />
    <glyph glyph-name="sterling" unicode="&#xa3;" horiz-adv-x="1150" 
d="M1018 1208q-124 115 -252 154q-118 -62 -148 -246l-63 -352h336l-12 -74l-338 2l-68 -391q-19 -105 -66 -161t-63 -66l487 2l154 260h78l-88 -336l-703 4l-249 -4l6 49l178 57l102 586h-162l7 35l41 37h127l45 260q28 152 115 239t270 146q4 0 32.5 7t92 22.5t73.5 5.5
q93 -21 183 -84z" />
    <glyph glyph-name="currency" unicode="&#xa4;" 
d="M856 476q125 114 137 262t-75 241.5t-233 93.5t-268 -113t-134 -262t72.5 -242.5t230.5 -93.5q145 0 270 114zM705 1145q150 0 253 -90l160 135l49 -62l-155 -133q73 -108 57 -250q-12 -167 -135 -290l102 -123l-73 -62l-99 121q-143 -102 -303 -102t-260 104l-147 -127
l-52 64l150 127q-57 98 -45 231q12 178 143 305l-112 137l71 62l115 -139q131 92 281 92z" />
    <glyph glyph-name="yen" unicode="&#xa5;" horiz-adv-x="1296" 
d="M782 711v-52l424 701l-168 20l13 56l213 -4l153 4l-2 -56l-106 -18l-488 -780l-4 -19h281l-13 -63h-276l-21 -131h271l-10 -66h-271l-35 -227l197 -21l-12 -57l-322 4l-321 -4v57l204 21l35 227h-260l12 66h259l20 131h-254l10 63h252l4 21l-309 778l-113 18l11 56
l260 -4l284 4l-2 -56l-161 -20z" />
    <glyph glyph-name="brokenbar" unicode="&#xa6;" horiz-adv-x="798" 
d="M350 379h92l-155 -881h-90zM543 1470h92l-156 -880h-90z" />
    <glyph glyph-name="section" unicode="&#xa7;" horiz-adv-x="1124" 
d="M311 643q0 -82 51.5 -145.5t104.5 -111.5t106 -95t117 -111q123 76 123 219v58l-215 190q-20 18 -87.5 78.5t-92.5 97.5q-107 -63 -107 -180zM819 -94q0 -178 -102.5 -243.5t-181.5 -92.5l-232 -72q-89 27 -177.5 99.5t-111.5 95.5l131 147q92 -100 182.5 -162.5
t129.5 -80.5l14 10q135 68 135 190q0 97 -48 167t-138 152q-91 82 -142 131.5t-102 119.5t-51 178q0 107 72.5 190.5t189.5 126.5q-74 82 -74 201t86 216t256 142l168 45q76 -18 150 -72.5t96 -76.5l-139 -123q-76 82 -153 127t-109 57l-19 -12q-131 -68 -131 -205
q0 -74 35 -137t121 -137l334 -297v-94q0 -240 -283 -357q94 -98 94 -233z" />
    <glyph glyph-name="dieresis" unicode="&#xa8;" horiz-adv-x="1026" 
d="M723 1409l86 -12l-2 -101l-37 -90l-84 -10l-94 10l6 105l39 86zM365 1409l86 -12l-5 -101l-36 -90l-82 -10l-95 10l7 105l36 86z" />
    <glyph glyph-name="copyright" unicode="&#xa9;" horiz-adv-x="1720" 
d="M1233 870h-49l-70 152q-76 76 -184 76t-183 -92.5t-75 -268.5t73 -286.5t205 -110.5q89 0 160 66l82 172h49l-12 -207q-163 -67 -307 -82q-188 0 -318.5 108t-130.5 301q0 297 181.5 366t289.5 81q155 0 289 -76v-199zM139 720q0 323 202.5 509t551.5 235
q319 -4 538.5 -209t219.5 -534t-200 -514.5t-554 -237.5q-317 4 -476 151.5t-220.5 288t-61.5 311.5zM908 37q110 0 223.5 45t251 182.5t137.5 440.5q0 178 -61.5 309t-155 217t-203.5 127t-218 41t-221.5 -45t-252 -182t-138.5 -443q0 -178 61.5 -308t155 -216t202.5 -127
t219 -41z" />
    <glyph glyph-name="ordfeminine" unicode="&#xaa;" horiz-adv-x="868" 
d="M94 932q0 156 92.5 274.5t249.5 190.5l127 63q116 -4 258 -65l-125 -650l144 93l20 -31l-227 -172l-133 57l26 135l17 41l-258 -231q-191 66 -191 295zM285 1032q0 -168 88 -244l168 127l75 402q-70 49 -163 49q-76 -53 -122 -146.5t-46 -187.5z" />
    <glyph glyph-name="guillemotleft" unicode="&#xab;" horiz-adv-x="1001" 
d="M362 31l-290 450l452 451h82l-342 -451l185 -450h-87zM748 31l-291 450l452 451h82l-342 -451l182 -450h-83z" />
    <glyph glyph-name="logicalnot" unicode="&#xac;" 
d="M1161 369h-98v278h-957v98h1055v-376z" />
    <glyph glyph-name="softhyphen" unicode="&#xad;" horiz-adv-x="749" 
d="M88 625h610l-18 -107h-610z" />
    <glyph glyph-name="registered" unicode="&#xae;" horiz-adv-x="1204" 
d="M592 907h43q53 0 84 32t31 88t-29 86t-72 30l-57 -4v-232zM891 1008.5q0 -95.5 -211 -123.5l119 -35l127 -195l37 -10v-27h-170l-152 252l-6 4h-43v-221l57 -8l-2 -27h-244l-2 27l60 8v484l-60 6l2 28h310q72 0 125 -33.5t53 -129zM967.5 546.5q124.5 122.5 124.5 343.5
t-136 345.5t-300 124.5q-74 0 -151 -31t-171 -122.5t-94 -312.5t135.5 -345.5t301.5 -124.5t290.5 122.5zM286.5 1240.5q136.5 126.5 377.5 162.5q211 0 364.5 -139.5t153.5 -380.5q0 -320 -199.5 -404t-314.5 -100q-213 0 -365.5 141t-152.5 368q0 226 136.5 352.5z" />
    <glyph glyph-name="macron" unicode="&#xaf;" horiz-adv-x="1009" 
d="M223 1356h586l-18 -109h-588z" />
    <glyph glyph-name="degree" unicode="&#xb0;" horiz-adv-x="778" 
d="M381.5 1071q62.5 -65 150.5 -65t149.5 63.5t61.5 155.5t-64 154.5t-149 62.5q-86 0 -148.5 -64t-62.5 -153t62.5 -154zM291 1420.5q78 69.5 241 121.5q130 0 224 -94t94 -224t-74 -206t-244 -113q-131 0 -225 94t-94 223t78 198.5z" />
    <glyph glyph-name="plusminus" unicode="&#xb1;" 
d="M98 100h1071v-100h-1071v100zM578 281v469h-478v100h478v485h98v-485h479v-100h-479v-469h-98z" />
    <glyph glyph-name="twosuperior" unicode="&#xb2;" horiz-adv-x="718" 
d="M606 1432q0 59 -24.5 97t-71.5 44l-57 -17l-76 -157h-109l13 141l286 88q119 0 173.5 -50t54.5 -118q0 -115 -84.5 -204t-231.5 -179l-227 -143l106 22h383v-36l-61 -101h-563l-13 37l254 215q109 88 178.5 175t69.5 186z" />
    <glyph glyph-name="threesuperior" unicode="&#xb3;" horiz-adv-x="628" 
d="M487 1094q0 47 -39.5 81.5t-130.5 36.5l-8 29l76 39q152 72 152 197q0 39 -21.5 63.5t-54.5 28.5l-58 -15l-73 -151h-115l14 139l293 86q106 0 150.5 -39t44.5 -86q0 -80 -70.5 -131.5t-175.5 -75.5q111 -10 160 -54t49 -100q0 -98 -83 -153t-216 -100l-178 -74h-103
l27 141h283q77 54 77 138z" />
    <glyph glyph-name="acute" unicode="&#xb4;" horiz-adv-x="1017" 
d="M313 1128l172 357h228l-332 -357h-68z" />
    <glyph glyph-name="uni00B5" unicode="&#xb5;" 
d="M530.5 139q36.5 0 77.5 23.5t88 54.5l76 51l123 701h221l-151 -869l182 115l27 -35l-295 -213l-144 70l23 139l16 35l-334 -244q-119 0 -164 70l-8 -100l78 -408h-227l252 1440h221l-127 -713q-10 -61 9.5 -89t56 -28z" />
    <glyph glyph-name="paragraph" unicode="&#xb6;" horiz-adv-x="1085" 
d="M989 1434v-68l-102 -16v-1676h-94v1680h-252v-1680h-95v1133q-143 0 -242.5 78.5t-99.5 216.5q0 139 129 219t193 113h563z" />
    <glyph glyph-name="periodcentered" unicode="&#xb7;" horiz-adv-x="903" 
d="M594 952l61 -12l-8 -121l-35 -108l-163 -11l-62 11l10 125l33 104z" />
    <glyph glyph-name="cedilla" unicode="&#xb8;" horiz-adv-x="1167" 
d="M633 -289q0 112 -135 117l157 201l43 -19l-80 -102q72 -6 116 -44t44 -92q0 -87 -60.5 -136t-156.5 -87l-135 -47h-86l61 88h164q68 44 68 121z" />
    <glyph glyph-name="onesuperior" unicode="&#xb9;" horiz-adv-x="620" 
d="M397 819l-260 -2l4 43l174 12l119 615l12 18l-32 -18l-158 -41l-10 43l327 125h64l-143 -742l168 -12l-9 -43z" />
    <glyph glyph-name="ordmasculine" unicode="&#xba;" horiz-adv-x="851" 
d="M643 1106q0 131 -48 195.5t-118 80.5q-83 -37 -123.5 -148.5t-40.5 -242.5t48.5 -197.5t115.5 -82.5q83 37 124.5 150.5t41.5 244.5zM111 953q0 150 81.5 271.5t241.5 186.5l117 49q127 0 211 -84t84 -233t-82 -271t-242 -188l-116 -47q-124 0 -209.5 83t-85.5 233z" />
    <glyph glyph-name="guillemotright" unicode="&#xbb;" horiz-adv-x="1038" 
d="M440 31l340 450l-182 451h82l295 -451l-451 -450h-84zM55 31l340 450l-182 451h84l293 -451l-451 -450h-84z" />
    <glyph glyph-name="onequarter" unicode="&#xbc;" horiz-adv-x="1636" 
d="M1360 317h147l-12 -75h-149l-48 -242h-163l47 242h-310l-24 53l457 504h198l-8 -43l-577 -457l47 18h229l25 119l153 96h31zM475 700l168 -12l-8 -43l-256 2l-260 -2l4 43l174 12l119 615l12 16l-35 -16l-155 -41l-13 41l328 125h65zM352 -102h-100l1067 1556h96z" />
    <glyph glyph-name="onehalf" unicode="&#xbd;" horiz-adv-x="1660" 
d="M1542 642q0 -119 -83 -204t-232 -178l-228 -143l107 22h383v-39l-59 -100h-566l-12 37l254 215q111 90 179.5 176t68.5 186q0 57 -24.5 95.5t-72.5 44.5l-55 -17l-76 -157h-110l12 141l287 88q119 0 173 -49.5t54 -117.5zM475 700l168 -12l-8 -43l-256 2l-260 -2l4 43
l174 12l119 615l12 16l-35 -16l-155 -41l-13 41l328 125h65zM352 -102h-100l1067 1556h96z" />
    <glyph glyph-name="threequarters" unicode="&#xbe;" horiz-adv-x="1581" 
d="M700 970q0 -102 -84.5 -157t-214.5 -98l-176 -74h-104l26 141h283q80 55 80 140q0 47 -41 81.5t-129 36.5l-10 29l76 39q149 70 149 195q0 41 -20.5 64.5t-51.5 27.5l-57 -15l-74 -149h-116l14 137l293 86q104 0 149 -38t43 -91q0 -139 -243 -203q113 -10 160.5 -53
t47.5 -99zM1307 317h149l-16 -75h-150l-45 -242h-164l45 242h-309l-22 53l456 504h197l-6 -43l-580 -457l47 18h232l22 119l156 96h29zM305 -102h-100l1067 1556h96z" />
    <glyph glyph-name="questiondown" unicode="&#xbf;" horiz-adv-x="860" 
d="M-66 -187q0 250 330 367l137 56l101 280h78l-37 -254l-148 -88q-98 -59 -153.5 -148t-55.5 -188t30 -154t60.5 -79.5t71.5 -30.5l47 16l97 224h122l-10 -207l-321 -107q-153 0 -251 89.5t-98 223.5zM526 721l-59 12l10 115l31 104l160 13l57 -13l-8 -118l-33 -101z" />
    <glyph glyph-name="Agrave" unicode="&#xc0;" horiz-adv-x="1392" 
d="M352 -2l-205 4l-198 -4l4 57l145 19l756 1333l205 59l135 -1392l141 -19l-12 -57l-297 4l-272 -4l2 57l168 21l-35 411h-463l-227 -411l166 -21zM463 559h420l-47 610l2 72zM950 1565l-213 284h228l55 -284h-70z" />
    <glyph glyph-name="Aacute" unicode="&#xc1;" horiz-adv-x="1392" 
d="M352 -2l-205 4l-198 -4l4 57l145 19l756 1333l205 59l135 -1392l141 -19l-12 -57l-297 4l-272 -4l2 57l168 21l-35 411h-463l-227 -411l166 -21zM463 559h420l-47 610l2 72zM922 1565l118 284h238l-283 -284h-73z" />
    <glyph glyph-name="Acircumflex" unicode="&#xc2;" horiz-adv-x="1392" 
d="M352 -2l-205 4l-198 -4l4 57l145 19l756 1333l205 59l135 -1392l141 -19l-12 -57l-297 4l-272 -4l2 57l168 21l-35 411h-463l-227 -411l166 -21zM463 559h420l-47 610l2 72zM694 1565l279 293h133l168 -293h-82l-174 161h-4l-238 -161h-82z" />
    <glyph glyph-name="Atilde" unicode="&#xc3;" horiz-adv-x="1396" 
d="M352 -2l-205 4l-198 -4l4 57l145 19l756 1333l205 59l135 -1392l141 -19l-12 -57l-297 4l-272 -4l2 57l168 21l-35 411h-463l-227 -411l166 -21zM463 559h420l-47 610l2 72zM766 1800l125 39l336 -139l100 137h39l-104 -231l-123 -33l-336 139l-101 -135h-36z" />
    <glyph glyph-name="Adieresis" unicode="&#xc4;" horiz-adv-x="1392" 
d="M352 -2l-205 4l-198 -4l4 57l145 19l756 1333l205 59l135 -1392l141 -19l-12 -57l-297 4l-272 -4l2 57l168 21l-35 411h-463l-227 -411l166 -21zM463 559h420l-47 610l2 72zM1245 1798l90 -10l-2 -102l-37 -93l-88 -12l-92 12l4 107l39 88zM829 1798l91 -10l-5 -102
l-36 -93l-88 -12l-95 12l6 107l39 88z" />
    <glyph glyph-name="Aring" unicode="&#xc5;" horiz-adv-x="1392" 
d="M352 -2l-205 4l-198 -4l4 57l145 19l756 1333l205 59l135 -1392l141 -19l-12 -57l-297 4l-272 -4l2 57l168 21l-35 411h-463l-227 -411l166 -21zM463 559h420l-47 610l2 72zM854 1722.5q0 -59.5 39 -96.5t97 -37t97 37t39 96.5t-39 99.5t-97 40t-97 -40t-39 -99.5z
M1210 1724q0 -92 -52 -129t-167 -73q-152 0 -188.5 72.5t-36.5 124.5q0 92 59.5 136.5t163.5 73.5q221 0 221 -205z" />
    <glyph glyph-name="AE" unicode="&#xc6;" horiz-adv-x="1822" 
d="M-49 55l145 19l871 1362l161 -4l740 4l-31 -369h-53l-92 295l-439 2l-98 -637l223 4l138 246h43l-60 -281l-31 -284h-43l-59 241l-223 4l-86 -587l467 4l178 321h57l-80 -397l-766 4l-266 -4v57l160 21l88 581h-330l-364 -581l166 -21l-15 -57l-211 4l-194 -4zM606 727
h301l99 637z" />
    <glyph glyph-name="Ccedilla" unicode="&#xc7;" horiz-adv-x="1284" 
d="M631 -35q-236 16 -382.5 183.5t-146.5 433.5t147.5 493.5t450.5 331.5l203 66q216 0 387 -119l-16 -355h-74l-74 250q-114 96 -346 125q-197 -84 -297 -271.5t-100 -438.5q0 -387 157.5 -485.5t243.5 -115.5q137 53 230 123l153 281h76l-76 -361l-477 -143l-47 -55
q74 -6 118 -44t44 -92q0 -88 -61.5 -136t-157.5 -87l-133 -47h-88l61 88h166q66 43 65 121q0 112 -135 117z" />
    <glyph glyph-name="Egrave" unicode="&#xc8;" horiz-adv-x="1202" 
d="M-12 55l157 21l201 1284l-151 20l10 56l276 -4l766 4l-30 -373h-56l-94 299l-467 4l-90 -582l248 4l133 234h49l-57 -270l-31 -269h-49l-60 232l-243 4l-101 -649l508 4l176 317h62l-80 -393l-809 4l-270 -4zM799 1565l-213 284h227l55 -284h-69z" />
    <glyph glyph-name="Eacute" unicode="&#xc9;" horiz-adv-x="1202" 
d="M-12 55l157 21l201 1284l-151 20l10 56l276 -4l766 4l-30 -373h-56l-94 299l-467 4l-90 -582l248 4l133 234h49l-57 -270l-31 -269h-49l-60 232l-243 4l-101 -649l508 4l176 317h62l-80 -393l-809 4l-270 -4zM737 1565l119 284h238l-283 -284h-74z" />
    <glyph glyph-name="Ecircumflex" unicode="&#xca;" horiz-adv-x="1202" 
d="M-12 55l157 21l201 1284l-151 20l10 56l276 -4l766 4l-30 -373h-56l-94 299l-467 4l-90 -582l248 4l133 234h49l-57 -270l-31 -269h-49l-60 232l-243 4l-101 -649l508 4l176 317h62l-80 -393l-809 4l-270 -4zM498 1565l280 293h131l168 -293h-80l-178 161h-4l-237 -161
h-80z" />
    <glyph glyph-name="Edieresis" unicode="&#xcb;" horiz-adv-x="1202" 
d="M-12 55l157 21l201 1284l-151 20l10 56l276 -4l766 4l-30 -373h-56l-94 299l-467 4l-90 -582l248 4l133 234h49l-57 -270l-31 -269h-49l-60 232l-243 4l-101 -649l508 4l176 317h62l-80 -393l-809 4l-270 -4zM1047 1798l90 -10l-2 -102l-37 -93l-88 -12l-95 12l7 107
l39 88zM629 1798l90 -10v-102l-39 -93l-88 -12l-94 12l6 107l39 88z" />
    <glyph glyph-name="Igrave" unicode="&#xcc;" horiz-adv-x="657" 
d="M754 1380l-152 -20l-199 -1284l150 -21l-12 -57l-277 4l-276 -4v57l159 21l201 1284l-151 20l10 56l278 -4l271 4zM500 1565l-213 284h227l55 -284h-69z" />
    <glyph glyph-name="Iacute" unicode="&#xcd;" horiz-adv-x="657" 
d="M754 1380l-152 -20l-199 -1284l150 -21l-12 -57l-277 4l-276 -4v57l159 21l201 1284l-151 20l10 56l278 -4l271 4zM578 1849h239l-285 -284h-75z" />
    <glyph glyph-name="Icircumflex" unicode="&#xce;" horiz-adv-x="657" 
d="M754 1380l-152 -20l-199 -1284l150 -21l-12 -57l-277 4l-276 -4v57l159 21l201 1284l-151 20l10 56l278 -4l271 4zM211 1565l278 293h134l168 -293h-80l-176 161h-5l-239 -161h-80z" />
    <glyph glyph-name="Idieresis" unicode="&#xcf;" horiz-adv-x="657" 
d="M754 1380l-152 -20l-199 -1284l150 -21l-12 -57l-277 4l-276 -4v57l159 21l201 1284l-151 20l10 56l278 -4l271 4zM745 1798l86 -10l-4 -102l-36 -89l-84 -12l-95 12l6 103l39 88zM356 1798l86 -10l-2 -102l-39 -89l-82 -12l-94 12l6 103l37 88z" />
    <glyph glyph-name="Eth" unicode="&#xd0;" horiz-adv-x="1378" 
d="M1090 837q0 243 -102.5 384t-254.5 145h-133l-92 -584h237l-12 -67h-235l-97 -623h289q274 156 337 387.5t63 357.5zM1220.5 371.5q-147.5 -215.5 -432.5 -310.5l-186 -63l-328 4l-286 -4v57l157 21l99 639h-158l12 67h156l90 582l-151 16l10 56l284 -4l314 4
q258 0 412.5 -162t154.5 -424q0 -263 -147.5 -478.5z" />
    <glyph glyph-name="Ntilde" unicode="&#xd1;" horiz-adv-x="1394" 
d="M1255 1360l-155 20l10 56l195 -4l202 4v-56l-159 -20l-213 -1360h-158l-541 1200l-10 92l-188 -1216l161 -21l-12 -57l-201 4l-200 -4l2 57l157 21l203 1280l-149 24l12 56l197 -4l192 4l481 -1039l17 -92zM664 1800l124 39l332 -139l105 137h39l-105 -231l-125 -33
l-336 139l-98 -135h-39z" />
    <glyph glyph-name="Ograve" unicode="&#xd2;" horiz-adv-x="1425" 
d="M1413 854q0 -279 -142.5 -509t-439.5 -327l-163 -55q-255 0 -410.5 172.5t-155.5 456.5q0 432 211 604t369 221l166 53q257 0 371 -126.5t154 -242.5t40 -247zM480.5 220q99.5 -154 258.5 -171q185 73 289.5 282t104.5 471t-98.5 413t-258.5 174q-180 -68 -287.5 -280
t-107.5 -474q0 -261 99.5 -415zM860 1565l-211 284h228l53 -284h-70z" />
    <glyph glyph-name="Oacute" unicode="&#xd3;" horiz-adv-x="1425" 
d="M1413 854q0 -279 -142.5 -509t-439.5 -327l-163 -55q-255 0 -410.5 172.5t-155.5 456.5q0 432 211 604t369 221l166 53q257 0 371 -126.5t154 -242.5t40 -247zM480.5 220q99.5 -154 258.5 -171q185 73 289.5 282t104.5 471t-98.5 413t-258.5 174q-180 -68 -287.5 -280
t-107.5 -474q0 -261 99.5 -415zM797 1565l116 284h240l-283 -284h-73z" />
    <glyph glyph-name="Ocircumflex" unicode="&#xd4;" horiz-adv-x="1425" 
d="M1413 854q0 -279 -142.5 -509t-439.5 -327l-163 -55q-255 0 -410.5 172.5t-155.5 456.5q0 432 211 604t369 221l166 53q257 0 371 -126.5t154 -242.5t40 -247zM480.5 220q99.5 -154 258.5 -171q185 73 289.5 282t104.5 471t-98.5 413t-258.5 174q-180 -68 -287.5 -280
t-107.5 -474q0 -261 99.5 -415zM596 1565l281 293h131l170 -293h-80l-178 161h-7l-237 -161h-80z" />
    <glyph glyph-name="Otilde" unicode="&#xd5;" horiz-adv-x="1425" 
d="M1413 854q0 -279 -142.5 -509t-439.5 -327l-163 -55q-255 0 -410.5 172.5t-155.5 456.5q0 432 211 604t369 221l166 53q257 0 371 -126.5t154 -242.5t40 -247zM480.5 220q99.5 -154 258.5 -171q185 73 289.5 282t104.5 471t-98.5 413t-258.5 174q-180 -68 -287.5 -280
t-107.5 -474q0 -261 99.5 -415zM674 1800l127 39l334 -139l104 137h35l-103 -231l-122 -33l-338 139l-99 -135h-39z" />
    <glyph glyph-name="Odieresis" unicode="&#xd6;" horiz-adv-x="1425" 
d="M1413 854q0 -279 -142.5 -509t-439.5 -327l-163 -55q-255 0 -410.5 172.5t-155.5 456.5q0 432 211 604t369 221l166 53q257 0 371 -126.5t154 -242.5t40 -247zM480.5 220q99.5 -154 258.5 -171q185 73 289.5 282t104.5 471t-98.5 413t-258.5 174q-180 -68 -287.5 -280
t-107.5 -474q0 -261 99.5 -415zM1143 1798l92 -10l-4 -102l-37 -93l-86 -12l-96 12l6 107l39 88zM725 1798l90 -10l-2 -102l-37 -93l-88 -12l-92 12l6 107l35 88z" />
    <glyph glyph-name="multiply" unicode="&#xd7;" 
d="M983 41l-348 346l-348 -348l-70 70l350 348l-352 350l70 70l350 -353l348 350l70 -69l-348 -348l348 -346z" />
    <glyph glyph-name="Oslash" unicode="&#xd8;" horiz-adv-x="1425" 
d="M782 1389q-180 -68 -287.5 -280t-107.5 -480q0 -127 27 -238l659 760q-47 104 -123 164.5t-168 73.5zM745 49q185 73 289.5 282t104.5 487q0 138 -39 265l-664 -766q47 -121 127 -188.5t182 -79.5zM1274 1286q145 -170 145 -440t-141.5 -500t-439.5 -328l-164 -55
q-248 0 -404 164l-135 -158h-88l182 209q-120 163 -120 414q0 433 210.5 604.5t368.5 220.5l166 53q225 0 377 -139l112 131h84z" />
    <glyph glyph-name="Ugrave" unicode="&#xd9;" horiz-adv-x="1323" 
d="M426 471q-25 -174 54 -282.5t257 -108.5q141 56 210 139.5t95 259.5l142 883l-160 18l12 56l205 -4l211 4l-2 -56l-160 -18l-139 -870q-31 -191 -113 -302.5t-266 -164.5l-182 -62q-495 0 -416 514l135 885l-151 18l10 56l272 -4l281 4l-2 -56l-152 -18zM862 1565
l-213 284h230l53 -284h-70z" />
    <glyph glyph-name="Uacute" unicode="&#xda;" horiz-adv-x="1323" 
d="M426 471q-25 -174 54 -282.5t257 -108.5q141 56 210 139.5t95 259.5l142 883l-160 18l12 56l205 -4l211 4l-2 -56l-160 -18l-139 -870q-31 -191 -113 -302.5t-266 -164.5l-182 -62q-495 0 -416 514l135 885l-151 18l10 56l272 -4l281 4l-2 -56l-152 -18zM817 1565
l119 284h240l-285 -284h-74z" />
    <glyph glyph-name="Ucircumflex" unicode="&#xdb;" horiz-adv-x="1323" 
d="M426 471q-25 -174 54 -282.5t257 -108.5q141 56 210 139.5t95 259.5l142 883l-160 18l12 56l205 -4l211 4l-2 -56l-160 -18l-139 -870q-31 -191 -113 -302.5t-266 -164.5l-182 -62q-495 0 -416 514l135 885l-151 18l10 56l272 -4l281 4l-2 -56l-152 -18zM596 1565
l281 293h133l168 -293h-80l-178 161h-5l-237 -161h-82z" />
    <glyph glyph-name="Udieresis" unicode="&#xdc;" horiz-adv-x="1323" 
d="M426 471q-25 -174 54 -282.5t257 -108.5q141 56 210 139.5t95 259.5l142 883l-160 18l12 56l205 -4l211 4l-2 -56l-160 -18l-139 -870q-31 -191 -113 -302.5t-266 -164.5l-182 -62q-495 0 -416 514l135 885l-151 18l10 56l272 -4l281 4l-2 -56l-152 -18zM1139 1798
l92 -10l-4 -102l-37 -93l-88 -12l-92 12l4 107l39 88zM723 1798l90 -10l-2 -102l-39 -93l-88 -12l-94 12l6 107l39 88z" />
    <glyph glyph-name="Yacute" unicode="&#xdd;" horiz-adv-x="1298" 
d="M797 711v-52l432 701l-168 20l10 56l213 -4l154 4l-2 -56l-109 -18l-491 -780l-78 -506l194 -21l-10 -57l-324 4l-319 -4v57l205 21l80 508l-316 778l-112 18l10 56l250 -4l293 4v-56l-162 -20zM836 1565l118 284h238l-283 -284h-73z" />
    <glyph glyph-name="Thorn" unicode="&#xde;" horiz-adv-x="1157" 
d="M928 801q0 264 -234 272h-141l-100 -651h249q226 136 226 379zM1204 818q0 -151 -114.5 -256t-323.5 -179l-150 -55h-178l-39 -252l195 -21l-12 -57l-322 4l-274 -4l2 57l159 21l199 1286l-151 18l12 56l274 -4l273 4v-56l-156 -18l-33 -223h236q188 4 295.5 -83
t107.5 -238z" />
    <glyph glyph-name="germandbls" unicode="&#xdf;" horiz-adv-x="1116" 
d="M784 74q95 28 95 132q0 82 -110 177q-55 47 -77 68.5t-79.5 71.5t-64.5 154q-4 66 19 120l133 121q142 128 142 254q0 110 -47.5 155t-104.5 45l-12 -6q-84 -55 -120 -121.5t-52 -152.5l-195 -1108q-29 -172 -182 -279l-268 -186h-107l39 200h215q48 66 72 187l168 971
h-170l8 32l43 39h131l6 43q45 229 195 314l276 161q332 0 332 -235q0 -138 -91 -203t-132 -88l-111 -68q-16 -32 -16 -70q0 -70 72 -132q5 -9 55.5 -54t88.5 -80q128 -118 128 -224q0 -107 -53.5 -168.5t-163.5 -102.5l-207 -74q-122 43 -221 113l106 160q132 -95 260 -166z
" />
    <glyph glyph-name="agrave" unicode="&#xe0;" horiz-adv-x="1024" 
d="M70 338q0 195 109.5 342t295.5 240l164 79q86 0 178 -32.5t129 -51.5l-145 -819l180 123l27 -37l-285 -215l-154 72l31 170l18 47l-315 -287q-233 82 -233 369zM303 456q0 -120 31 -190.5t88 -118.5l194 162l91 512q-41 27 -100.5 43.5t-106.5 16.5
q-92 -70 -144.5 -187.5t-52.5 -237.5zM717 1128l-195 357h223l35 -357h-63z" />
    <glyph glyph-name="aacute" unicode="&#xe1;" horiz-adv-x="1024" 
d="M70 338q0 195 109.5 342t295.5 240l164 79q86 0 178 -32.5t129 -51.5l-145 -819l180 123l27 -37l-285 -215l-154 72l31 170l18 47l-315 -287q-233 82 -233 369zM303 456q0 -120 31 -190.5t88 -118.5l194 162l91 512q-41 27 -100.5 43.5t-106.5 16.5
q-92 -70 -144.5 -187.5t-52.5 -237.5zM604 1128l172 357h228l-332 -357h-68z" />
    <glyph glyph-name="acircumflex" unicode="&#xe2;" horiz-adv-x="1024" 
d="M70 338q0 195 109.5 342t295.5 240l164 79q86 0 178 -32.5t129 -51.5l-145 -819l180 123l27 -37l-285 -215l-154 72l31 170l18 47l-315 -287q-233 82 -233 369zM303 456q0 -120 31 -190.5t88 -118.5l194 162l91 512q-41 27 -100.5 43.5t-106.5 16.5
q-92 -70 -144.5 -187.5t-52.5 -237.5zM430 1128l281 365h110l148 -365h-64l-168 203h-4l-237 -203h-66z" />
    <glyph glyph-name="atilde" unicode="&#xe3;" horiz-adv-x="1024" 
d="M70 338q0 195 109.5 342t295.5 240l164 79q86 0 178 -32.5t129 -51.5l-145 -819l180 123l27 -37l-285 -215l-154 72l31 170l18 47l-315 -287q-233 82 -233 369zM303 456q0 -120 31 -190.5t88 -118.5l194 162l91 512q-41 27 -100.5 43.5t-106.5 16.5
q-92 -70 -144.5 -187.5t-52.5 -237.5zM479 1415l125 39l336 -139l100 137h39l-104 -231l-123 -35l-336 141l-100 -137h-37z" />
    <glyph glyph-name="adieresis" unicode="&#xe4;" horiz-adv-x="1024" 
d="M70 338q0 195 109.5 342t295.5 240l164 79q86 0 178 -32.5t129 -51.5l-145 -819l180 123l27 -37l-285 -215l-154 72l31 170l18 47l-315 -287q-233 82 -233 369zM303 456q0 -120 31 -190.5t88 -118.5l194 162l91 512q-41 27 -100.5 43.5t-106.5 16.5
q-92 -70 -144.5 -187.5t-52.5 -237.5zM942 1409l86 -12l-4 -101l-37 -90l-84 -10l-92 10l4 105l41 86zM582 1409l86 -12l-2 -101l-37 -90l-84 -10l-94 10l8 105l35 86z" />
    <glyph glyph-name="aring" unicode="&#xe5;" horiz-adv-x="1024" 
d="M70 338q0 195 109.5 342t295.5 240l164 79q86 0 178 -32.5t129 -51.5l-145 -819l180 123l27 -37l-285 -215l-154 72l31 170l18 47l-315 -287q-233 82 -233 369zM303 456q0 -120 31 -190.5t88 -118.5l194 162l91 512q-41 27 -100.5 43.5t-106.5 16.5
q-92 -70 -144.5 -187.5t-52.5 -237.5zM625 1312.5q0 -59.5 37.5 -96t95.5 -36.5t98.5 36.5t40.5 96t-40 99.5t-98 40t-96 -40t-38 -99.5zM981 1315q0 -124 -87 -155.5t-132 -47.5q-153 0 -189 71t-36 125q0 94 55.5 136.5t165.5 75.5q223 0 223 -205z" />
    <glyph glyph-name="ae" unicode="&#xe6;" horiz-adv-x="1400" 
d="M1126 734q0 71 -29.5 112t-74.5 51q-135 -74 -184 -295q-25 -45 -27 -106l293 108q22 59 22 130zM301 456q0 -120 30.5 -190.5t90.5 -118.5l160 136q-2 10 -2 13v28q-8 129 37 251.5t143 215.5q-144 90 -264 90q-92 -70 -143.5 -187.5t-51.5 -237.5zM66 354
q0 178 109.5 325.5t295.5 240.5l164 79q63 -2 149 -28.5t158 -63.5l29 15l194 75q88 -16 144.5 -69.5t56.5 -145.5t-35 -176l-520 -155v-21q10 -135 74.5 -206.5t148.5 -94.5q62 27 146 73t108 62l27 -37q-120 -88 -271 -176l-137 -82q-111 10 -196.5 80t-116.5 191
l-291 -271q-102 37 -169.5 122t-67.5 263z" />
    <glyph glyph-name="ccedilla" unicode="&#xe7;" horiz-adv-x="870" 
d="M385 -289q0 112 -137 117l117 147q-125 22 -208 124t-83 275q0 350 415 544l168 81q99 -9 213 -77l-116 -183q-104 72 -248 129q-195 -124 -195 -393q0 -143 62.5 -228t154.5 -118q25 10 55.5 27.5t75 42t109.5 65.5l29 -37q-53 -41 -117 -83t-135 -89l-123 -84l-51 -63
q72 -6 115.5 -44t43.5 -92q0 -87 -62 -137.5t-157 -85.5l-133 -47h-88l64 88h161q70 42 70 121z" />
    <glyph glyph-name="egrave" unicode="&#xe8;" horiz-adv-x="899" 
d="M602 1128l-194 357h223l37 -357h-66zM625 738q0 67 -31 108t-76 51q-96 -53 -150.5 -154.5t-60.5 -228.5q0 -8 2 -18l291 112q25 63 25 130zM74 358q0 288 150.5 409.5t250.5 160.5l187 69q90 -16 146 -69.5t56 -146.5t-37 -175l-520 -157v-21q10 -129 74.5 -201.5
t148.5 -97.5q154 69 254 135l27 -37q-116 -85 -270 -176l-135 -82q-143 13 -237.5 118t-94.5 271z" />
    <glyph glyph-name="eacute" unicode="&#xe9;" horiz-adv-x="899" 
d="M532 1128l173 357h225l-332 -357h-66zM625 738q0 67 -31 108t-76 51q-96 -53 -150.5 -154.5t-60.5 -228.5q0 -8 2 -18l291 112q25 63 25 130zM74 358q0 288 150.5 409.5t250.5 160.5l187 69q90 -16 146 -69.5t56 -146.5t-37 -175l-520 -157v-21q10 -129 74.5 -201.5
t148.5 -97.5q154 69 254 135l27 -37q-116 -85 -270 -176l-135 -82q-143 13 -237.5 118t-94.5 271z" />
    <glyph glyph-name="ecircumflex" unicode="&#xea;" horiz-adv-x="899" 
d="M354 1128l279 365h112l150 -365h-68l-165 203h-5l-237 -203h-66zM625 738q0 67 -31 108t-76 51q-96 -53 -150.5 -154.5t-60.5 -228.5q0 -8 2 -18l291 112q25 63 25 130zM74 358q0 288 150.5 409.5t250.5 160.5l187 69q90 -16 146 -69.5t56 -146.5t-37 -175l-520 -157v-21
q10 -129 74.5 -201.5t148.5 -97.5q154 69 254 135l27 -37q-116 -85 -270 -176l-135 -82q-143 13 -237.5 118t-94.5 271z" />
    <glyph glyph-name="edieresis" unicode="&#xeb;" horiz-adv-x="899" 
d="M485 1409l86 -12l-2 -101l-39 -90l-84 -10l-92 10l6 105l37 86zM846 1409l84 -12l-4 -101l-35 -90l-84 -10l-94 10l4 105l41 86zM625 738q0 67 -31 108t-76 51q-96 -53 -150.5 -154.5t-60.5 -228.5q0 -8 2 -18l291 112q25 63 25 130zM74 358q0 288 150.5 409.5
t250.5 160.5l187 69q90 -16 146 -69.5t56 -146.5t-37 -175l-520 -157v-21q10 -129 74.5 -201.5t148.5 -97.5q154 69 254 135l27 -37q-116 -85 -270 -176l-135 -82q-143 13 -237.5 118t-94.5 271z" />
    <glyph glyph-name="igrave" unicode="&#xec;" horiz-adv-x="593" 
d="M80 803l-14 41l372 153l56 -51l-148 -850l178 123l27 -35l-287 -217l-151 74l145 823zM430 1128l-197 357h226l35 -357h-64z" />
    <glyph glyph-name="iacute" unicode="&#xed;" horiz-adv-x="593" 
d="M80 803l-14 41l372 153l56 -51l-148 -850l178 123l27 -35l-287 -217l-151 74l145 823zM328 1128l172 357h227l-332 -357h-67z" />
    <glyph glyph-name="icircumflex" unicode="&#xee;" horiz-adv-x="593" 
d="M80 803l-14 41l372 153l56 -51l-148 -850l178 123l27 -35l-287 -217l-151 74l145 823zM135 1128l281 365h112l148 -365h-66l-168 203h-2l-239 -203h-66z" />
    <glyph glyph-name="idieresis" unicode="&#xef;" horiz-adv-x="593" 
d="M80 803l-14 41l372 153l56 -51l-148 -850l178 123l27 -35l-287 -217l-151 74l145 823zM637 1409l86 -12l-4 -101l-37 -90l-84 -10l-92 10l4 105l39 86zM276 1409l86 -12l-2 -101l-36 -90l-84 -10l-95 10l7 105l36 86z" />
    <glyph glyph-name="eth" unicode="&#xf0;" horiz-adv-x="1032" 
d="M317 408q0 -281 189 -351q184 75 215 275t31 307l-9 164q-69 42 -130.5 56.5t-75.5 14.5q-159 -52 -189.5 -219t-30.5 -247zM709 1298q286 -228 286 -670q0 -104 -58.5 -296t-365.5 -314l-131 -49q-169 16 -267.5 138t-98.5 303q0 281 145.5 397.5t241.5 150.5l121 43
q19 -6 94.5 -53t79.5 -49q-4 86 -45 178t-107 166l-246 -121v66l199 96q-92 90 -209 123l21 63q174 -53 286 -133l232 115v-66z" />
    <glyph glyph-name="ntilde" unicode="&#xf1;" horiz-adv-x="1105" 
d="M764 705q21 122 -64 122q-74 0 -174 -71l-73 -49l-125 -707h-222l152 864l-176 -61l-16 41l372 153l56 -51l-25 -147l-16 -33l338 233q129 0 177 -65.5t27 -175.5l-116 -662l180 123l26 -37l-286 -215l-154 74zM471 1415l127 39l332 -139l104 137h37l-102 -231l-125 -35
l-338 141l-98 -137h-37z" />
    <glyph glyph-name="ograve" unicode="&#xf2;" horiz-adv-x="1001" 
d="M369 171.5q58 -87.5 149 -110.5q107 47 159 187.5t52 263.5t-31.5 242t-177.5 153q-109 -50 -159 -188t-50 -299t58 -248.5zM74 369q0 186 98 335.5t291 231.5l145 63q153 0 256 -105t103 -292q0 -186 -99.5 -338.5t-292.5 -232.5l-145 -62q-152 0 -254 107t-102 293z
M612 1128l-194 357h223l37 -357h-66z" />
    <glyph glyph-name="oacute" unicode="&#xf3;" horiz-adv-x="1001" 
d="M369 171.5q58 -87.5 149 -110.5q107 47 159 187.5t52 263.5t-31.5 242t-177.5 153q-109 -50 -159 -188t-50 -299t58 -248.5zM74 369q0 186 98 335.5t291 231.5l145 63q153 0 256 -105t103 -292q0 -186 -99.5 -338.5t-292.5 -232.5l-145 -62q-152 0 -254 107t-102 293z
M563 1128l174 357h228l-334 -357h-68z" />
    <glyph glyph-name="ocircumflex" unicode="&#xf4;" horiz-adv-x="1001" 
d="M369 171.5q58 -87.5 149 -110.5q107 47 159 187.5t52 263.5t-31.5 242t-177.5 153q-109 -50 -159 -188t-50 -299t58 -248.5zM74 369q0 186 98 335.5t291 231.5l145 63q153 0 256 -105t103 -292q0 -186 -99.5 -338.5t-292.5 -232.5l-145 -62q-152 0 -254 107t-102 293z
M377 1128l278 365h111l149 -365h-65l-166 203h-4l-238 -203h-65z" />
    <glyph glyph-name="otilde" unicode="&#xf5;" horiz-adv-x="1001" 
d="M369 171.5q58 -87.5 149 -110.5q107 47 159 187.5t52 263.5t-31.5 242t-177.5 153q-109 -50 -159 -188t-50 -299t58 -248.5zM74 369q0 186 98 335.5t291 231.5l145 63q153 0 256 -105t103 -292q0 -186 -99.5 -338.5t-292.5 -232.5l-145 -62q-152 0 -254 107t-102 293z
M446 1415l125 39l334 -139l103 137h39l-105 -231l-123 -35l-338 141l-98 -137h-39z" />
    <glyph glyph-name="odieresis" unicode="&#xf6;" horiz-adv-x="1001" 
d="M369 171.5q58 -87.5 149 -110.5q107 47 159 187.5t52 263.5t-31.5 242t-177.5 153q-109 -50 -159 -188t-50 -299t58 -248.5zM74 369q0 186 98 335.5t291 231.5l145 63q153 0 256 -105t103 -292q0 -186 -99.5 -338.5t-292.5 -232.5l-145 -62q-152 0 -254 107t-102 293z
M901 1409l86 -12l-4 -101l-37 -90l-84 -10l-94 10l6 105l39 86zM541 1409l86 -12l-2 -101l-39 -90l-82 -10l-94 10l6 105l37 86z" />
    <glyph glyph-name="divide" unicode="&#xf7;" 
d="M686 1004l62 -13l12 -117l-15 -100l-155 -12l-62 12l-12 119l12 98zM96 563h1075v-98h-1075v98zM686 248l62 -10l12 -117l-15 -103l-155 -12l-62 12l-12 119l12 101z" />
    <glyph glyph-name="oslash" unicode="&#xf8;" horiz-adv-x="1001" 
d="M311 472q0 -109 8 -159l386 414q-48 143 -185 180q-109 -50 -159 -188t-50 -247zM729 542q0 64 -10 122l-385 -414q49 -155 184 -189q107 47 159 187.5t52 293.5zM967 585q0 -169 -99.5 -321.5t-292.5 -232.5l-145 -62q-155 0 -256 109l-88 -94h-76l129 137
q-65 99 -65 266q0 168 98 317.5t291 231.5l145 63q158 0 254 -104l86 94h74l-127 -135q72 -100 72 -269z" />
    <glyph glyph-name="ugrave" unicode="&#xf9;" horiz-adv-x="1097" 
d="M430 139q37 0 78 23.5t88 54.5l74 51l123 701h223l-154 -873l182 119l27 -35l-295 -213l-141 68l22 139l17 37l-334 -242q-129 0 -176 66.5t-29 175.5l119 655l-180 -59l-17 41l375 149l55 -51l-122 -690q-10 -61 9 -89t56 -28zM659 1128l-196 357h225l35 -357h-64z" />
    <glyph glyph-name="uacute" unicode="&#xfa;" horiz-adv-x="1097" 
d="M430 139q37 0 78 23.5t88 54.5l74 51l123 701h223l-154 -873l182 119l27 -35l-295 -213l-141 68l22 139l17 37l-334 -242q-129 0 -176 66.5t-29 175.5l119 655l-180 -59l-17 41l375 149l55 -51l-122 -690q-10 -61 9 -89t56 -28zM575 1128l173 357h227l-332 -357h-68z" />
    <glyph glyph-name="ucircumflex" unicode="&#xfb;" horiz-adv-x="1097" 
d="M430 139q37 0 78 23.5t88 54.5l74 51l123 701h223l-154 -873l182 119l27 -35l-295 -213l-141 68l22 139l17 37l-334 -242q-129 0 -176 66.5t-29 175.5l119 655l-180 -59l-17 41l375 149l55 -51l-122 -690q-10 -61 9 -89t56 -28zM416 1128l278 365h113l147 -365h-65
l-166 203h-4l-238 -203h-65z" />
    <glyph glyph-name="udieresis" unicode="&#xfc;" horiz-adv-x="1097" 
d="M430 139q37 0 78 23.5t88 54.5l74 51l123 701h223l-154 -873l182 119l27 -35l-295 -213l-141 68l22 139l17 37l-334 -242q-129 0 -176 66.5t-29 175.5l119 655l-180 -59l-17 41l375 149l55 -51l-122 -690q-10 -61 9 -89t56 -28zM924 1409l86 -10l-2 -103l-37 -88l-84 -10
l-92 10l4 105l39 86zM565 1409l86 -10l-2 -103l-37 -88l-84 -10l-94 10l6 105l37 86z" />
    <glyph glyph-name="yacute" unicode="&#xfd;" horiz-adv-x="968" 
d="M489 41l-186 -37l-123 860l-176 -61l-18 39l344 157l78 -45l108 -864l334 604l-164 185l193 120l79 -88l-34 -241l-344 -609l-336 -544l-256 2l41 221h217zM516 1128l172 357h227l-331 -357h-68z" />
    <glyph glyph-name="thorn" unicode="&#xfe;" horiz-adv-x="1048" 
d="M573 78q199 108 199 483q0 92 -39 165t-100 99l-176 -131l-95 -536q95 -75 211 -80zM937.5 886.5q72.5 -89.5 72.5 -263.5t-95.5 -332t-267.5 -238l-174 -84q-66 8 -141 43l-4 -59l-76 -424h-219l317 1821l-190 -50l-15 46l390 118l51 -41l-111 -624l-18 -47l297 247
q111 -23 183.5 -112.5z" />
    <glyph glyph-name="ydieresis" unicode="&#xff;" horiz-adv-x="968" 
d="M489 41l-186 -37l-123 860l-176 -61l-18 39l344 157l78 -45l108 -864l334 604l-164 185l193 120l79 -88l-34 -241l-344 -609l-336 -544l-256 2l41 221h217zM870 1409l86 -12l-2 -101l-39 -90l-84 -10l-92 10l6 105l39 86zM510 1409l88 -12l-4 -101l-37 -90l-84 -10
l-94 10l8 105l37 86z" />
    <glyph glyph-name="Amacron" unicode="&#x100;" horiz-adv-x="1392" 
d="M352 -2l-205 4l-198 -4l4 57l145 19l756 1333l205 59l135 -1392l141 -19l-12 -57l-297 4l-272 -4l2 57l168 21l-35 411h-463l-227 -411l166 -21zM463 559h420l-47 610l2 72zM723 1747h586l-19 -109h-588z" />
    <glyph glyph-name="amacron" unicode="&#x101;" horiz-adv-x="1024" 
d="M70 338q0 195 109.5 342t295.5 240l164 79q86 0 178 -32.5t129 -51.5l-145 -819l180 123l27 -37l-285 -215l-154 72l31 170l18 47l-315 -287q-233 82 -233 369zM303 456q0 -120 31 -190.5t88 -118.5l194 162l91 512q-41 27 -100.5 43.5t-106.5 16.5
q-92 -70 -144.5 -187.5t-52.5 -237.5zM471 1356h588l-21 -109h-587z" />
    <glyph glyph-name="Abreve" unicode="&#x102;" horiz-adv-x="1392" 
d="M352 -2l-205 4l-198 -4l4 57l145 19l756 1333l205 59l135 -1392l141 -19l-12 -57l-297 4l-272 -4l2 57l168 21l-35 411h-463l-227 -411l166 -21zM463 559h420l-47 610l2 72zM750 1829q89 -133 240 -133t265 135l37 -31q-23 -33 -73 -104t-232 -146q-165 0 -217.5 102.5
t-64.5 145.5z" />
    <glyph glyph-name="abreve" unicode="&#x103;" horiz-adv-x="1024" 
d="M70 338q0 195 109.5 342t295.5 240l164 79q86 0 178 -32.5t129 -51.5l-145 -819l180 123l27 -37l-285 -215l-154 72l31 170l18 47l-315 -287q-233 82 -233 369zM303 456q0 -120 31 -190.5t88 -118.5l194 162l91 512q-41 27 -100.5 43.5t-106.5 16.5
q-92 -70 -144.5 -187.5t-52.5 -237.5zM896.5 1333q68.5 51 109.5 111l38 -33q-61 -98 -117.5 -153t-187.5 -117q-112 0 -180 78t-98 190l51 33q49 -102 115.5 -131t133.5 -29t135.5 51z" />
    <glyph glyph-name="Aogonek" unicode="&#x104;" horiz-adv-x="1388" 
d="M467 559h420l-45 610l4 72zM989 -498q-207 0 -284.5 52.5t-59.5 154.5l19 111l262 221l-33 446h-463l-233 -411l165 -21l-12 -57l-203 4l-198 -4l4 57l145 19l764 1333l199 59l129 -1392l141 -19l-12 -57l-367 4l-135 -231l-14 -80q-12 -68 33 -106t161 -38z" />
    <glyph glyph-name="aogonek" unicode="&#x105;" horiz-adv-x="1024" 
d="M303 456q0 -120 31 -190.5t88 -118.5l194 162l91 512q-41 27 -100.5 43.5t-106.5 16.5q-92 -70 -144.5 -187.5t-52.5 -237.5zM70 338q0 195 109.5 342t295.5 240l164 79q86 0 178 -32.5t129 -51.5l-145 -819l180 123l27 -37l-195 -147l-170 -250l-18 -94
q-12 -68 32.5 -106t163.5 -38l-8 -45q-209 0 -285.5 52.5t-58.5 154.5l18 111l209 160l-127 59l31 170l18 47l-315 -287q-233 82 -233 369z" />
    <glyph glyph-name="Cacute" unicode="&#x106;" horiz-adv-x="1282" 
d="M381 664q0 -387 157.5 -485.5t245.5 -115.5q139 53 228 123l153 281h78l-76 -361l-477 -143q-267 0 -427.5 170.5t-160.5 442.5t147.5 499.5t450.5 331.5l203 66q216 0 387 -119l-16 -355h-74l-74 250q-119 96 -346 125q-197 -84 -298 -271.5t-101 -438.5zM971 1849h233
l-276 -284h-74z" />
    <glyph glyph-name="cacute" unicode="&#x107;" horiz-adv-x="870" 
d="M311 475q0 -143 62.5 -228t154.5 -118q25 10 55.5 27.5t75 42t109.5 65.5l29 -37q-53 -41 -117 -83t-135 -89l-129 -86q-141 4 -241.5 108.5t-100.5 287.5q0 360 415 553l168 81q99 -9 213 -77l-116 -183q-104 72 -248 129q-195 -124 -195 -393zM543 1128l172 357h227
l-332 -357h-67z" />
    <glyph glyph-name="Ccircumflex" unicode="&#x108;" horiz-adv-x="1282" 
d="M381 664q0 -387 157.5 -485.5t245.5 -115.5q139 53 228 123l153 281h78l-76 -361l-477 -143q-267 0 -427.5 170.5t-160.5 442.5t147.5 499.5t450.5 331.5l203 66q216 0 387 -119l-16 -355h-74l-74 250q-119 96 -346 125q-197 -84 -298 -271.5t-101 -438.5zM641 1565
l279 293h133l168 -293h-80l-176 161h-7l-237 -161h-80z" />
    <glyph glyph-name="ccircumflex" unicode="&#x109;" horiz-adv-x="870" 
d="M311 475q0 -143 62.5 -228t154.5 -118q25 10 55.5 27.5t75 42t109.5 65.5l29 -37q-53 -41 -117 -83t-135 -89l-129 -86q-141 4 -241.5 108.5t-100.5 287.5q0 360 415 553l168 81q99 -9 213 -77l-116 -183q-104 72 -248 129q-195 -124 -195 -393zM373 1128l278 365h113
l147 -365h-65l-164 203h-6l-236 -203h-67z" />
    <glyph glyph-name="Cdotaccent" unicode="&#x10a;" horiz-adv-x="1282" 
d="M381 664q0 -387 157.5 -485.5t245.5 -115.5q139 53 228 123l153 281h78l-76 -361l-477 -143q-267 0 -427.5 170.5t-160.5 442.5t147.5 499.5t450.5 331.5l203 66q216 0 387 -119l-16 -355h-74l-74 250q-119 96 -346 125q-197 -84 -298 -271.5t-101 -438.5zM877 1802
l86 10l108 -12l-2 -110l-39 -97l-82 -10l-121 10l9 113z" />
    <glyph glyph-name="cdotaccent" unicode="&#x10b;" horiz-adv-x="870" 
d="M311 475q0 -143 62.5 -228t154.5 -118q25 10 55.5 27.5t75 42t109.5 65.5l29 -37q-53 -41 -117 -83t-135 -89l-129 -86q-141 4 -241.5 108.5t-100.5 287.5q0 360 415 553l168 81q99 -9 213 -77l-116 -183q-104 72 -248 129q-195 -124 -195 -393zM614 1436l86 10l109 -10
l-4 -113l-39 -96l-80 -13l-121 13l10 112z" />
    <glyph glyph-name="Ccaron" unicode="&#x10c;" horiz-adv-x="1282" 
d="M381 664q0 -387 157.5 -485.5t245.5 -115.5q139 53 228 123l153 281h78l-76 -361l-477 -143q-267 0 -427.5 170.5t-160.5 442.5t147.5 499.5t450.5 331.5l203 66q216 0 387 -119l-16 -355h-74l-74 250q-119 96 -346 125q-197 -84 -298 -271.5t-101 -438.5zM1247 1858
l-278 -293h-135l-166 293h80l176 -160h4l237 160h82z" />
    <glyph glyph-name="ccaron" unicode="&#x10d;" horiz-adv-x="870" 
d="M311 475q0 -143 62.5 -228t154.5 -118q25 10 55.5 27.5t75 42t109.5 65.5l29 -37q-53 -41 -117 -83t-135 -89l-129 -86q-141 4 -241.5 108.5t-100.5 287.5q0 360 415 553l168 81q99 -9 213 -77l-116 -183q-104 72 -248 129q-195 -124 -195 -393zM961 1497l-279 -360h-111
l-151 360h65l170 -201h2l240 201h64z" />
    <glyph glyph-name="Dcaron" unicode="&#x10e;" horiz-adv-x="1378" 
d="M1090 837q0 243 -102.5 384t-254.5 145h-133l-199 -1274h289q274 156 337 387.5t63 357.5zM1220.5 371.5q-147.5 -215.5 -432.5 -310.5l-186 -63l-328 4l-286 -4v57l157 21l199 1288l-151 16l10 56l284 -4l314 4q258 0 412.5 -162t154.5 -424q0 -263 -147.5 -478.5z
M1124 1858l-280 -293h-133l-168 293h82l174 -160h6l237 160h82z" />
    <glyph glyph-name="dcaron" unicode="&#x10f;" horiz-adv-x="1304" 
d="M311 456q0 -118 33 -186.5t94 -115.5l193 157l92 514q-119 62 -223 62q-94 -70 -141.5 -191.5t-47.5 -239.5zM74 352q0 186 101 334t284 232l172 81q49 -4 117 -28l67 379l-188 -50l-17 46l387 118l52 -41l-234 -1327l180 123l27 -35l-285 -217l-153 76l30 168l19 47
l-309 -289q-176 60 -213 180.5t-37 202.5zM1139 1380l14 78h240l-27 -158l-233 -272l-56 12l131 256z" />
    <glyph glyph-name="Dcroat" unicode="&#x110;" horiz-adv-x="1378" 
d="M1090 837q0 243 -102.5 384t-254.5 145h-133l-92 -584h237l-12 -67h-235l-97 -623h289q274 156 337 387.5t63 357.5zM1220.5 371.5q-147.5 -215.5 -432.5 -310.5l-186 -63l-328 4l-286 -4v57l157 21l99 639h-158l12 67h156l90 582l-151 16l10 56l284 -4l314 4
q258 0 412.5 -162t154.5 -424q0 -263 -147.5 -478.5z" />
    <glyph glyph-name="dcroat" unicode="&#x111;" horiz-adv-x="1069" 
d="M311 456q0 -118 33 -186.5t94 -115.5l193 157l92 514q-119 62 -223 62q-94 -70 -141.5 -191.5t-47.5 -239.5zM74 352q0 186 101 334t284 232l172 81q49 -4 117 -28l28 168h-241l12 55h239l29 156l-188 -50l-17 46l387 118l52 -41l-41 -229h155l-12 -55h-154l-182 -1043
l180 123l27 -35l-285 -217l-153 76l30 168l19 47l-309 -289q-176 60 -213 180.5t-37 202.5z" />
    <glyph glyph-name="Emacron" unicode="&#x112;" horiz-adv-x="1202" 
d="M-12 55l157 21l201 1284l-151 20l10 56l276 -4l766 4l-30 -373h-56l-94 299l-467 4l-90 -582l248 4l133 234h49l-57 -270l-31 -269h-49l-60 232l-243 4l-101 -649l508 4l176 317h62l-80 -393l-809 4l-270 -4zM524 1747h588l-20 -109h-586z" />
    <glyph glyph-name="emacron" unicode="&#x113;" horiz-adv-x="899" 
d="M373 1356h588l-19 -109h-588zM625 738q0 67 -31 108t-76 51q-96 -53 -150.5 -154.5t-60.5 -228.5q0 -8 2 -18l291 112q25 63 25 130zM74 358q0 288 150.5 409.5t250.5 160.5l187 69q90 -16 146 -69.5t56 -146.5t-37 -175l-520 -157v-21q10 -129 74.5 -201.5t148.5 -97.5
q154 69 254 135l27 -37q-116 -85 -270 -176l-135 -82q-143 13 -237.5 118t-94.5 271z" />
    <glyph glyph-name="Ebreve" unicode="&#x114;" horiz-adv-x="1202" 
d="M-12 55l157 21l201 1284l-151 20l10 56l276 -4l766 4l-30 -373h-56l-94 299l-467 4l-90 -582l248 4l133 234h49l-57 -270l-31 -269h-49l-60 232l-243 4l-101 -649l508 4l176 317h62l-80 -393l-809 4l-270 -4zM801.5 1696q145.5 0 273.5 135l33 -31q-65 -94 -123 -146
t-182 -104q-164 0 -217.5 102.5t-65.5 145.5l47 31q89 -133 234.5 -133z" />
    <glyph glyph-name="ebreve" unicode="&#x115;" horiz-adv-x="899" 
d="M685 1282q97 0 214 162l39 -33q-59 -96 -115.5 -151t-189.5 -119q-163 0 -215.5 111.5t-63.5 156.5l49 33q49 -103 117 -131.5t165 -28.5zM625 738q0 67 -31 108t-76 51q-96 -53 -150.5 -154.5t-60.5 -228.5q0 -8 2 -18l291 112q25 63 25 130zM74 358q0 288 150.5 409.5
t250.5 160.5l187 69q90 -16 146 -69.5t56 -146.5t-37 -175l-520 -157v-21q10 -129 74.5 -201.5t148.5 -97.5q154 69 254 135l27 -37q-116 -85 -270 -176l-135 -82q-143 13 -237.5 118t-94.5 271z" />
    <glyph glyph-name="Edotaccent" unicode="&#x116;" horiz-adv-x="1202" 
d="M-12 55l157 21l201 1284l-151 20l10 56l276 -4l766 4l-30 -373h-56l-94 299l-467 4l-90 -582l248 4l133 234h49l-57 -270l-31 -269h-49l-60 232l-243 4l-101 -649l508 4l176 317h62l-80 -393l-809 4l-270 -4zM733 1794l88 10l109 -12l-4 -111l-39 -96l-80 -10l-121 10
l8 115z" />
    <glyph glyph-name="edotaccent" unicode="&#x117;" horiz-adv-x="899" 
d="M567 1436l88 10l109 -10l-4 -113l-39 -96l-80 -13l-123 13l10 112zM625 738q0 67 -31 108t-76 51q-96 -53 -150.5 -154.5t-60.5 -228.5q0 -8 2 -18l291 112q25 63 25 130zM74 358q0 288 150.5 409.5t250.5 160.5l187 69q90 -16 146 -69.5t56 -146.5t-37 -175l-520 -157
v-21q10 -129 74.5 -201.5t148.5 -97.5q154 69 254 135l27 -37q-116 -85 -270 -176l-135 -82q-143 13 -237.5 118t-94.5 271z" />
    <glyph glyph-name="Eogonek" unicode="&#x118;" horiz-adv-x="1202" 
d="M979 -498q-209 0 -287 52.5t-59 154.5l20 111l219 180l-618 2l-268 -4l2 57l157 21l201 1284l-151 20l10 56l272 -4l770 4l-30 -373h-56l-94 299l-467 4l-90 -582l248 4l133 234h49l-57 -270l-31 -269h-49l-60 232l-243 4l-101 -649l508 4l176 317h62l-80 -393h-117
l-141 -227l-16 -80q-21 -144 196 -144z" />
    <glyph glyph-name="eogonek" unicode="&#x119;" horiz-adv-x="899" 
d="M625 738q0 67 -31 108t-76 51q-96 -53 -149.5 -153.5t-61.5 -225.5q0 -14 2 -22l291 112q25 63 25 130zM74 358q0 288 150.5 409.5t250.5 160.5l187 69q90 -16 146 -69.5t56 -146.5t-37 -175l-518 -157v-21q14 -239 221 -299q154 69 254 135l27 -37q-120 -90 -256 -168
l-27 -18l-157 -266l-15 -84q-12 -68 33 -106t164 -38l-10 -45q-207 0 -285 52.5t-59 154.5l18 107l193 166l-23 -11q-131 17 -222 120.5t-91 266.5z" />
    <glyph glyph-name="Ecaron" unicode="&#x11a;" horiz-adv-x="1202" 
d="M-12 55l157 21l201 1284l-151 20l10 56l276 -4l766 4l-30 -373h-56l-94 299l-467 4l-90 -582l248 4l133 234h49l-57 -270l-31 -269h-49l-60 232l-243 4l-101 -649l508 4l176 317h62l-80 -393l-809 4l-270 -4zM1120 1858l-278 -293h-133l-168 293h80l176 -160h4l239 160
h80z" />
    <glyph glyph-name="ecaron" unicode="&#x11b;" horiz-adv-x="899" 
d="M940 1499l-278 -362h-111l-152 362h66l166 -201h6l237 201h66zM625 738q0 67 -31 108t-76 51q-96 -53 -150.5 -154.5t-60.5 -228.5q0 -8 2 -18l291 112q25 63 25 130zM74 358q0 288 150.5 409.5t250.5 160.5l187 69q90 -16 146 -69.5t56 -146.5t-37 -175l-520 -157v-21
q10 -129 74.5 -201.5t148.5 -97.5q154 69 254 135l27 -37q-116 -85 -270 -176l-135 -82q-143 13 -237.5 118t-94.5 271z" />
    <glyph glyph-name="Gcircumflex" unicode="&#x11c;" horiz-adv-x="1355" 
d="M242.5 1077q156.5 234 468.5 334l198 59q135 0 232.5 -40.5t154.5 -86.5l-18 -339h-74l-69 231q-55 53 -144.5 94t-210.5 45q-197 -92 -305 -274t-108 -442t103 -410t284 -191q94 30 176 84l67 447l-149 20l10 54h268l236 2v-56l-113 -20l-73 -475l-531 -150
q-254 0 -406.5 172t-152.5 440t156.5 502zM623 1565l278 293h135l168 -293h-82l-176 161h-6l-238 -161h-79z" />
    <glyph glyph-name="gcircumflex" unicode="&#x11d;" horiz-adv-x="1013" 
d="M322 454q0 -211 127 -302l194 157l90 510q-41 29 -101.5 46.5t-113.5 17.5q-98 -72 -147 -192.5t-49 -236.5zM84 348q0 186 106.5 333.5t298.5 236.5l170 81q63 -2 152.5 -24.5t161.5 -59.5l-166 -927q-14 -78 -99 -154t-204 -160l-228 -155h-249l36 202h400
q37 35 72.5 104t48.5 144l41 240l20 47l-309 -285q-178 61 -215 179t-37 198zM426 1130l281 365h110l150 -365h-66l-168 203h-2l-239 -203h-66z" />
    <glyph glyph-name="Gbreve" unicode="&#x11e;" horiz-adv-x="1355" 
d="M242.5 1077q156.5 234 468.5 334l198 59q135 0 232.5 -40.5t154.5 -86.5l-18 -339h-74l-69 231q-55 53 -144.5 94t-210.5 45q-197 -92 -305 -274t-108 -442t103 -410t284 -191q94 30 176 84l67 447l-149 20l10 54h268l236 2v-56l-113 -20l-73 -475l-531 -150
q-254 0 -406.5 172t-152.5 440t156.5 502zM907 1696q148 0 269 135l34 -31q-48 -78 -114 -138.5t-189 -111.5q-203 0 -284 248l47 31q89 -133 237 -133z" />
    <glyph glyph-name="gbreve" unicode="&#x11f;" horiz-adv-x="1013" 
d="M322 454q0 -211 127 -302l194 157l90 510q-41 29 -101.5 46.5t-113.5 17.5q-98 -72 -147 -192.5t-49 -236.5zM84 348q0 186 106.5 333.5t298.5 236.5l170 81q63 -2 152.5 -24.5t161.5 -59.5l-166 -927q-14 -78 -99 -154t-204 -160l-228 -155h-249l36 202h400
q37 35 72.5 104t48.5 144l41 240l20 47l-309 -285q-178 61 -215 179t-37 198zM461 1442q77 -160 227 -160t266 162l37 -33q-70 -130 -151.5 -183.5t-151.5 -86.5q-114 0 -181 78t-97 190z" />
    <glyph glyph-name="Gdotaccent" unicode="&#x120;" horiz-adv-x="1355" 
d="M242.5 1077q156.5 234 468.5 334l198 59q135 0 232.5 -40.5t154.5 -86.5l-18 -339h-74l-69 231q-55 53 -144.5 94t-210.5 45q-197 -92 -305 -274t-108 -442t103 -410t284 -191q94 30 176 84l67 447l-149 20l10 54h268l236 2v-56l-113 -20l-73 -475l-531 -150
q-254 0 -406.5 172t-152.5 440t156.5 502zM858 1802l88 10l109 -12l-4 -110l-39 -97l-82 -10l-119 10l6 113z" />
    <glyph glyph-name="gdotaccent" unicode="&#x121;" horiz-adv-x="1013" 
d="M322 454q0 -211 127 -302l194 157l90 510q-41 29 -101.5 46.5t-113.5 17.5q-98 -72 -147 -192.5t-49 -236.5zM84 348q0 186 106.5 333.5t298.5 236.5l170 81q63 -2 152.5 -24.5t161.5 -59.5l-166 -927q-14 -78 -99 -154t-204 -160l-228 -155h-249l36 202h400
q37 35 72.5 104t48.5 144l41 240l20 47l-309 -285q-178 61 -215 179t-37 198zM637 1436l88 10l106 -10l-4 -113l-36 -96l-82 -13l-119 13l6 112z" />
    <glyph glyph-name="Gcommaaccent" unicode="&#x122;" horiz-adv-x="1355" 
d="M242.5 1077q156.5 234 468.5 334l198 59q135 0 232.5 -40.5t154.5 -86.5l-18 -339h-74l-69 231q-55 53 -144.5 94t-210.5 45q-197 -92 -305 -274t-108 -442t103 -410t284 -191q94 30 176 84l67 447l-149 20l10 54h268l236 2v-56l-113 -20l-73 -475l-531 -150
q-254 0 -406.5 172t-152.5 440t156.5 502zM512 -193l14 87h228l-27 -158l-221 -236l-53 13l116 223z" />
    <glyph glyph-name="gcommaaccent" unicode="&#x123;" horiz-adv-x="1013" 
d="M322 454q0 -211 127 -302l194 157l90 510q-41 29 -101.5 46.5t-113.5 17.5q-98 -72 -147 -192.5t-49 -236.5zM84 348q0 186 106.5 333.5t298.5 236.5l170 81q63 -2 152.5 -24.5t161.5 -59.5l-166 -927q-14 -78 -99 -154t-204 -160l-228 -155h-249l36 202h400
q37 35 72.5 104t48.5 144l41 240l20 47l-309 -285q-178 61 -215 179t-37 198zM592 1292l221 242l53 -14l-114 -228l55 -75l-16 -89h-228z" />
    <glyph glyph-name="Hcircumflex" unicode="&#x124;" horiz-adv-x="1435" 
d="M264 2l-278 -4l2 57l159 21l197 1284l-151 20l12 56l276 -4l271 4l-2 -56l-150 -20l-90 -580h526l88 580l-145 20l10 56l275 -4l270 4l-2 -56l-152 -20l-198 -1284l149 -21l-10 -57l-274 4l-277 -4v57l156 21l98 631h-524l-99 -631l148 -21l-10 -57zM614 1565l279 293
h133l166 -293h-80l-174 161h-8l-236 -161h-80z" />
    <glyph glyph-name="hcircumflex" unicode="&#x125;" horiz-adv-x="1081" 
d="M741 705q21 122 -65 122q-70 0 -174 -71l-74 -49l-125 -707h-221l237 1350l-190 -50l-16 46l391 118l51 -41l-111 -624l-16 -33l340 233q129 0 178 -65.5t27 -175.5l-117 -660l180 121l27 -35l-289 -217l-151 74zM174 1559l279 307h133l166 -307h-80l-176 172h-7
l-235 -172h-80z" />
    <glyph glyph-name="Hbar" unicode="&#x126;" horiz-adv-x="1435" 
d="M1036 780l33 219h-526l-33 -219h526zM264 2l-278 -4l2 57l159 21l197 1284l-151 20l12 56l276 -4l271 4l-2 -56l-150 -20l-47 -303h524l47 303l-145 20l10 56l275 -4l270 4l-2 -56l-152 -20l-198 -1284l149 -21l-10 -57l-274 4l-277 -4v57l156 21l98 631h-524l-99 -631
l148 -21l-10 -57z" />
    <glyph glyph-name="hbar" unicode="&#x127;" horiz-adv-x="1081" 
d="M741 705q21 122 -65 122q-70 0 -174 -71l-74 -49l-125 -707h-221l201 1139h-156l12 55h152l28 156l-190 -50l-16 46l391 118l51 -41l-41 -229h240l-11 -55h-239l-60 -340l-16 -33l340 233q129 0 178 -65.5t27 -175.5l-117 -660l180 121l27 -35l-289 -217l-151 74z" />
    <glyph glyph-name="Itilde" unicode="&#x128;" horiz-adv-x="657" 
d="M754 1380l-152 -20l-199 -1284l150 -21l-12 -57l-277 4l-276 -4v57l159 21l201 1284l-151 20l10 56l278 -4l271 4zM291 1800l127 39l334 -139l104 137h37l-105 -231l-122 -33l-338 139l-97 -135h-38z" />
    <glyph glyph-name="itilde" unicode="&#x129;" horiz-adv-x="593" 
d="M80 803l-14 41l372 153l56 -51l-148 -850l178 123l27 -35l-287 -217l-151 74l145 823zM176 1415l125 39l334 -139l102 137h39l-104 -231l-125 -35l-336 141l-98 -137h-39z" />
    <glyph glyph-name="Imacron" unicode="&#x12a;" horiz-adv-x="657" 
d="M754 1380l-152 -20l-199 -1284l150 -21l-12 -57l-277 4l-276 -4v57l159 21l201 1284l-151 20l10 56l278 -4l271 4zM242 1747h587l-18 -109h-588z" />
    <glyph glyph-name="imacron" unicode="&#x12b;" horiz-adv-x="593" 
d="M80 803l-14 41l372 153l56 -51l-148 -850l178 123l27 -35l-287 -217l-151 74l145 823zM145 1356h588l-18 -109h-588z" />
    <glyph glyph-name="Ibreve" unicode="&#x12c;" horiz-adv-x="657" 
d="M754 1380l-152 -20l-199 -1284l150 -21l-12 -57l-277 4l-276 -4v57l159 21l201 1284l-151 20l10 56l278 -4l271 4zM536.5 1696q144.5 0 272.5 135l35 -31q-65 -94 -123 -146t-182 -104q-166 0 -218.5 102.5t-64.5 145.5l47 31q89 -133 233.5 -133z" />
    <glyph glyph-name="ibreve" unicode="&#x12d;" horiz-adv-x="593" 
d="M80 803l-14 41l372 153l56 -51l-148 -850l178 123l27 -35l-287 -217l-151 74l145 823zM474 1282q97 0 214 162l39 -33q-56 -90 -114 -147t-191 -123q-202 0 -279 268l50 33q49 -103 116.5 -131.5t164.5 -28.5z" />
    <glyph glyph-name="Iogonek" unicode="&#x12e;" horiz-adv-x="657" 
d="M754 1380l-152 -20l-199 -1284l150 -21l-12 -57l-224 2l-129 -231l-16 -78q-10 -70 35 -107t162 -37l-9 -47q-207 0 -284.5 52.5t-59.5 154.5l19 113l211 182l-258 -4v57l159 21l201 1284l-151 20l10 56l278 -4l271 4z" />
    <glyph glyph-name="iogonek" unicode="&#x12f;" horiz-adv-x="593" 
d="M369 -498q-207 0 -285 52.5t-59 154.5l20 111l195 160l-127 61l145 823l-178 -61l-14 41l372 153l56 -51l-148 -850l178 123l27 -35l-189 -143l-165 -270l-15 -80q-21 -144 197 -144zM367 1415l71 12l133 -12v-117l-39 -96l-67 -14l-146 14l7 113z" />
    <glyph glyph-name="Idotaccent" unicode="&#x130;" horiz-adv-x="657" 
d="M754 1380l-152 -20l-199 -1284l150 -21l-12 -57l-277 4l-276 -4v57l159 21l201 1284l-151 20l10 56l278 -4l271 4zM457 1794l88 10l108 -12l-4 -111l-39 -96l-80 -10l-120 10l8 115z" />
    <glyph glyph-name="dotlessi" unicode="&#x131;" horiz-adv-x="593" 
d="M80 803l-14 41l372 153l56 -51l-148 -850l178 123l27 -35l-287 -217l-151 74l145 823z" />
    <glyph glyph-name="IJ" unicode="&#x132;" horiz-adv-x="1214" 
d="M950 1362l-127 18l13 56l249 -2l275 2l-2 -56l-154 -18l-176 -1145q-23 -137 -80 -224t-139 -153l-262 -196h-137l41 200h223q61 122 94 332zM598 1362l-199 -1286l146 -21l-10 -57l-273 4l-276 -4l2 57l159 21l199 1286l-151 18l12 56l274 -4l248 4v-56z" />
    <glyph glyph-name="ij" unicode="&#x133;" horiz-adv-x="1067" 
d="M868 1415l72 12l133 -12v-117l-41 -96l-65 -14l-148 14l8 113zM248 -481l35 202h243q42 67 66 193l168 950l-160 -53l-14 41l352 145l57 -51l-166 -946q-31 -175 -213 -303l-249 -178h-119zM80 803l-14 41l372 153l56 -51l-148 -850l160 113l26 -37l-268 -205l-151 74
l145 823zM367 1415l71 12l133 -12v-117l-39 -96l-67 -14l-146 14l7 113z" />
    <glyph glyph-name="Jcircumflex" unicode="&#x134;" horiz-adv-x="665" 
d="M362 1360l-157 20l12 56l281 -4l272 4v-56l-154 -20l-176 -1143q-23 -135 -79 -224t-142 -155l-262 -194h-135l41 200h227q58 130 90 332zM217 1565l279 293h133l168 -293h-80l-176 161h-4l-238 -161h-82z" />
    <glyph glyph-name="jcircumflex" unicode="&#x135;" horiz-adv-x="579" 
d="M-244 -481l37 202h246q41 65 65 193l168 950l-178 -61l-16 41l373 153l55 -51l-166 -946q-31 -173 -211 -303l-254 -178h-119zM143 1128l279 365h113l147 -365h-66l-165 203h-5l-237 -203h-66z" />
    <glyph glyph-name="Kcommaaccent" unicode="&#x136;" horiz-adv-x="1425" 
d="M600 1360l-88 -576l27 17l624 559l-155 20l8 56l231 -4l211 4l-2 -56l-176 -20l-647 -569l139 -29l469 -686l102 -21l-10 -57l-182 4l-178 -4l-453 719l-14 35l-105 -676l142 -21l-13 -57l-266 4l-278 -4l2 57l162 21l196 1284l-151 20l12 56l274 -4l262 4v-56zM551 -193
l14 87h230l-27 -158l-221 -236l-53 13l114 223z" />
    <glyph glyph-name="kcommaaccent" unicode="&#x137;" horiz-adv-x="1034" 
d="M604 25l-205 518l-98 -543h-219l235 1352l-190 -49l-14 43l389 118l51 -41l-147 -845l18 6l387 395h195l-48 -229h-225q-33 -6 -109.5 -65.5t-88.5 -68.5l-60 -49l166 -49l190 -414l160 109l25 -37l-279 -209zM295 -193l14 87h230l-29 -158l-219 -236l-53 13l114 223z
" />
    <glyph glyph-name="kgreenlandic" unicode="&#x138;" horiz-adv-x="1038" 
d="M420 569l20 6l385 404h197l-47 -229h-227q-36 -6 -111.5 -69t-87.5 -73l-60 -47l166 -49l193 -408l160 109l24 -37l-278 -209l-133 58l-207 512l-95 -537h-223l152 866l-178 -57l-15 43l369 145l59 -53z" />
    <glyph glyph-name="Lacute" unicode="&#x139;" horiz-adv-x="1124" 
d="M399 70l432 4l213 323h60l-100 -399l-748 4l-270 -4l2 57l157 21l201 1284l-153 20l14 56l268 -4l283 4l-2 -56l-156 -20zM571 1849h240l-283 -284h-75z" />
    <glyph glyph-name="lacute" unicode="&#x13a;" horiz-adv-x="583" 
d="M139 1300l-16 46l391 118l49 -41l-233 -1327l180 123l27 -35l-287 -217l-152 74l230 1309zM410 1565l118 284h240l-283 -284h-75z" />
    <glyph glyph-name="Lcommaaccent" unicode="&#x13b;" horiz-adv-x="1124" 
d="M399 70l432 4l213 323h60l-100 -399l-748 4l-270 -4l2 57l157 21l201 1284l-153 20l14 56l268 -4l283 4l-2 -56l-156 -20zM401 -193l15 87h227l-27 -158l-221 -236l-53 13l115 223z" />
    <glyph glyph-name="lcommaaccent" unicode="&#x13c;" horiz-adv-x="583" 
d="M139 1300l-16 46l391 118l49 -41l-233 -1327l180 123l27 -35l-287 -217l-152 74l230 1309zM66 -193l14 87h229l-28 -158l-220 -236l-55 13l117 223z" />
    <glyph glyph-name="Lcaron" unicode="&#x13d;" horiz-adv-x="1236" 
d="M399 70l432 4l213 323h60l-100 -399l-748 4l-270 -4l2 57l157 21l201 1284l-153 20l14 56l268 -4l283 4l-2 -56l-156 -20zM1149 1454l68 -12l-11 -121l-35 -109l-221 -313l-47 21q21 37 88.5 152.5t71.5 133.5l-121 6l10 127l39 103z" />
    <glyph glyph-name="lcaron" unicode="&#x13e;" horiz-adv-x="890" 
d="M139 1300l-16 46l391 118l49 -41l-233 -1327l180 123l27 -35l-287 -217l-152 74l230 1309zM682 1380l14 78h240l-31 -164l-229 -266l-55 12l131 248z" />
    <glyph glyph-name="Ldot" unicode="&#x13f;" horiz-adv-x="1124" 
d="M399 70l432 4l213 323h60l-100 -399l-748 4l-270 -4l2 57l157 21l201 1284l-153 20l14 56l268 -4l283 4l-2 -56l-156 -20zM897 950l76 -12l-6 -119l-33 -106l-143 -13l-82 13l12 121l31 104z" />
    <glyph glyph-name="ldot" unicode="&#x140;" horiz-adv-x="808" 
d="M139 1300l-16 46l391 118l49 -41l-233 -1327l180 123l27 -35l-287 -217l-152 74l230 1309zM739 950l76 -14l-6 -119l-35 -104l-141 -13l-82 13l10 121l33 102z" />
    <glyph glyph-name="Lslash" unicode="&#x141;" horiz-adv-x="1124" 
d="M524 870l224 103l-15 -78l-221 -100l-113 -725l432 4l213 323h60l-100 -399l-748 4l-270 -4l2 57l157 21l93 594l-166 -76l12 76l166 75l96 615l-153 20l14 56l268 -4l283 4l-2 -56l-156 -20z" />
    <glyph glyph-name="lslash" unicode="&#x142;" horiz-adv-x="583" 
d="M139 1300l-16 46l391 118l49 -41l-100 -561l184 84l-12 -72l-184 -83l-121 -695l180 123l27 -35l-287 -217l-152 74l113 639l-148 -66l15 70l145 66l105 600z" />
    <glyph glyph-name="Nacute" unicode="&#x143;" horiz-adv-x="1394" 
d="M1255 1360l-155 20l10 56l195 -4l202 4v-56l-159 -20l-213 -1360h-158l-541 1200l-10 92l-188 -1216l161 -21l-12 -57l-201 4l-200 -4l2 57l157 21l203 1280l-149 24l12 56l197 -4l192 4l481 -1039l17 -92zM817 1565l117 284h242l-285 -284h-74z" />
    <glyph glyph-name="nacute" unicode="&#x144;" horiz-adv-x="1105" 
d="M764 705q21 122 -64 122q-74 0 -174 -71l-73 -49l-125 -707h-222l152 864l-176 -61l-16 41l372 153l56 -51l-25 -147l-16 -33l338 233q129 0 177 -65.5t27 -175.5l-116 -662l180 123l26 -37l-286 -215l-154 74zM575 1128l173 357h227l-332 -357h-68z" />
    <glyph glyph-name="Ncommaaccent" unicode="&#x145;" horiz-adv-x="1394" 
d="M1255 1360l-155 20l10 56l195 -4l202 4v-56l-159 -20l-213 -1360h-158l-541 1200l-10 92l-188 -1216l161 -21l-12 -57l-201 4l-200 -4l2 57l157 21l203 1280l-149 24l12 56l197 -4l192 4l481 -1039l17 -92zM504 -193l14 87h227l-26 -158l-221 -236l-54 13l117 223z" />
    <glyph glyph-name="ncommaaccent" unicode="&#x146;" horiz-adv-x="1105" 
d="M764 705q21 122 -64 122q-74 0 -174 -71l-73 -49l-125 -707h-222l152 864l-176 -61l-16 41l372 153l56 -51l-25 -147l-16 -33l338 233q129 0 177 -65.5t27 -175.5l-116 -662l180 123l26 -37l-286 -215l-154 74zM356 -193l15 87h227l-29 -158l-219 -236l-53 13l115 223z
" />
    <glyph glyph-name="Ncaron" unicode="&#x147;" horiz-adv-x="1394" 
d="M1255 1360l-155 20l10 56l195 -4l202 4v-56l-159 -20l-213 -1360h-158l-541 1200l-10 92l-188 -1216l161 -21l-12 -57l-201 4l-200 -4l2 57l157 21l203 1280l-149 24l12 56l197 -4l192 4l481 -1039l17 -92zM1206 1858l-280 -293h-131l-168 293h80l176 -160h6l237 160h80z
" />
    <glyph glyph-name="ncaron" unicode="&#x148;" horiz-adv-x="1105" 
d="M764 705q21 122 -64 122q-74 0 -174 -71l-73 -49l-125 -707h-222l152 864l-176 -61l-16 41l372 153l56 -51l-25 -147l-16 -33l338 233q129 0 177 -65.5t27 -175.5l-116 -662l180 123l26 -37l-286 -215l-154 74zM1014 1497l-281 -360h-110l-152 360h66l168 -201h4l237 201
h68z" />
    <glyph glyph-name="napostrophe" unicode="&#x149;" horiz-adv-x="1105" 
d="M764 705q21 122 -64 122q-74 0 -174 -71l-73 -49l-125 -707h-222l152 864l-176 -61l-16 41l372 153l56 -51l-25 -147l-16 -33l338 233q129 0 177 -65.5t27 -175.5l-116 -662l180 123l26 -37l-286 -215l-154 74zM283 1380l14 78h242l-31 -164l-234 -256l-53 15l133 235z
" />
    <glyph glyph-name="Eng" unicode="&#x14a;" horiz-adv-x="1394" 
d="M1255 1360l-155 20l10 56l195 -4l202 4v-56l-159 -20l-213 -1360h2l-263 -485l-258 2l39 192h185l202 262l54 29h-119l-541 1200l-10 92l-188 -1216l161 -21l-12 -57l-201 4l-200 -4l2 57l157 21l203 1280l-149 24l12 56l197 -4l192 4l481 -1039l17 -92z" />
    <glyph glyph-name="eng" unicode="&#x14b;" horiz-adv-x="1103" 
d="M699 827q-73 0 -173 -71l-73 -49l-125 -707h-222l152 864l-176 -61l-16 41l372 153l56 -51l-25 -147l-16 -33l338 233q129 0 177 -65.5t27 -175.5l-137 -766q-30 -162 -205 -291l-258 -182h-119l37 196h232q51 65 78 193l141 803q10 53 -6.5 84.5t-58.5 31.5z" />
    <glyph glyph-name="Omacron" unicode="&#x14c;" horiz-adv-x="1425" 
d="M1413 854q0 -279 -142.5 -509t-439.5 -327l-163 -55q-255 0 -410.5 172.5t-155.5 456.5q0 432 211 604t369 221l166 53q257 0 371 -126.5t154 -242.5t40 -247zM480.5 220q99.5 -154 258.5 -171q185 73 289.5 282t104.5 471t-98.5 413t-258.5 174q-180 -68 -287.5 -280
t-107.5 -474q0 -261 99.5 -415zM618 1747h588l-18 -109h-588z" />
    <glyph glyph-name="omacron" unicode="&#x14d;" horiz-adv-x="1001" 
d="M369 171.5q58 -87.5 149 -110.5q107 47 159 187.5t52 263.5t-31.5 242t-177.5 153q-109 -50 -159 -188t-50 -299t58 -248.5zM74 369q0 186 98 335.5t291 231.5l145 63q153 0 256 -105t103 -292q0 -186 -99.5 -338.5t-292.5 -232.5l-145 -62q-152 0 -254 107t-102 293z
M406 1356h587l-18 -109h-588z" />
    <glyph glyph-name="Obreve" unicode="&#x14e;" horiz-adv-x="1425" 
d="M1413 854q0 -279 -142.5 -509t-439.5 -327l-163 -55q-255 0 -410.5 172.5t-155.5 456.5q0 432 211 604t369 221l166 53q257 0 371 -126.5t154 -242.5t40 -247zM480.5 220q99.5 -154 258.5 -171q185 73 289.5 282t104.5 471t-98.5 413t-258.5 174q-180 -68 -287.5 -280
t-107.5 -474q0 -261 99.5 -415zM1052.5 1738.5q70.5 42.5 112.5 92.5l37 -31q-23 -33 -73 -104t-232 -146q-167 0 -219.5 102.5t-65.5 145.5l50 31q40 -60 93.5 -96.5t140 -36.5t157 42.5z" />
    <glyph glyph-name="obreve" unicode="&#x14f;" horiz-adv-x="1001" 
d="M369 171.5q58 -87.5 149 -110.5q107 47 159 187.5t52 263.5t-31.5 242t-177.5 153q-109 -50 -159 -188t-50 -299t58 -248.5zM74 369q0 186 98 335.5t291 231.5l145 63q153 0 256 -105t103 -292q0 -186 -99.5 -338.5t-292.5 -232.5l-145 -62q-152 0 -254 107t-102 293z
M726 1282q97 0 214 162l37 -33q-72 -132 -154 -184.5t-151 -85.5q-161 0 -213.5 111.5t-63.5 156.5l51 33q50 -104 116.5 -132t163.5 -28z" />
    <glyph glyph-name="Ohungarumlaut" unicode="&#x150;" horiz-adv-x="1425" 
d="M1413 854q0 -279 -142.5 -509t-439.5 -327l-163 -55q-255 0 -410.5 172.5t-155.5 456.5q0 432 211 604t369 221l166 53q257 0 371 -126.5t154 -242.5t40 -247zM480.5 220q99.5 -154 258.5 -171q185 73 289.5 282t104.5 471t-98.5 413t-258.5 174q-180 -68 -287.5 -280
t-107.5 -474q0 -261 99.5 -415zM989 1565l121 284h250l-297 -284h-74zM633 1565l121 284h252l-299 -284h-74z" />
    <glyph glyph-name="ohungarumlaut" unicode="&#x151;" horiz-adv-x="1001" 
d="M369 171.5q58 -87.5 149 -110.5q107 47 159 187.5t52 263.5t-31.5 242t-177.5 153q-109 -50 -159 -188t-50 -299t58 -248.5zM74 369q0 186 98 335.5t291 231.5l145 63q153 0 256 -105t103 -292q0 -186 -99.5 -338.5t-292.5 -232.5l-145 -62q-152 0 -254 107t-102 293z
M764 1128l151 351h242l-326 -351h-67zM408 1128l149 351h242l-324 -351h-67z" />
    <glyph glyph-name="OE" unicode="&#x152;" horiz-adv-x="1937" 
d="M104 582q0 279 150 510t457 325l166 53q28 0 117 -12t134.5 -18t57.5 -8l788 4l-30 -373h-54l-94 299l-440 4l-92 -592l227 4l133 234h49l-57 -273l-31 -268h-49l-55 231l-228 5l-98 -637l479 4l178 317h60l-80 -393l-848 4l-278 -39q-253 0 -367.5 127t-154.5 244
t-40 248zM482 222.5q97 -150.5 255 -171.5l166 25l197 1276q-27 11 -155 24t-140 13q-191 -68 -305.5 -281t-114.5 -474t97 -411.5z" />
    <glyph glyph-name="oe" unicode="&#x153;" horiz-adv-x="1552" 
d="M1276 735q0 70 -30 111t-77 51q-94 -53 -147 -153.5t-64 -225.5q0 -4 1.5 -10t1.5 -12l292 112q23 57 23 127zM311 415q0 -156 58.5 -244.5t148.5 -107.5q107 46 161 187.5t54 264.5q0 124 -29 240t-182 150q-158 -72 -184.5 -242.5t-26.5 -247.5zM74 366
q0 187 100 336.5t293 235.5l141 61q104 0 189.5 -52t128.5 -159q88 97 245 156l144 53q88 -16 144.5 -69.5t56.5 -142.5t-35 -179l-518 -157q-2 -8 -2 -21q10 -133 74.5 -204.5t148.5 -94.5q134 60 252 135l28 -37q-123 -91 -270 -176l-137 -82q-92 8 -168 59.5t-117 141.5
q-80 -90 -197 -139l-143 -62q-154 0 -256 105t-102 292z" />
    <glyph glyph-name="Racute" unicode="&#x154;" horiz-adv-x="1335" 
d="M1144.5 887.5q-106.5 -94.5 -296.5 -154.5l-137 -43l221 -78l244 -536l90 -23l-11 -55l-184 4l-153 -4l-279 664l-12 10h-135l-93 -596l168 -21l-12 -57l-299 4l-270 -4l2 57l157 21l201 1288l-153 16l14 56l274 -4l365 4q188 0 296.5 -83.5t108.5 -227.5
q0 -143 -106.5 -237.5zM973 1116q0 117 -57.5 184.5t-174.5 71.5h-141l-94 -610h233q234 115 234 354zM684 1565l119 284h239l-284 -284h-74z" />
    <glyph glyph-name="racute" unicode="&#x155;" horiz-adv-x="819" 
d="M104 0l154 864l-178 -61l-14 41l372 153l49 -45l-51 -295l-33 -114l285 436h158l-47 -238h-164q-22 -13 -70.5 -71t-74 -88.5t-37.5 -44.5l-39 -50l-86 -487h-224zM475 1128l172 357h227l-331 -357h-68z" />
    <glyph glyph-name="Rcommaaccent" unicode="&#x156;" horiz-adv-x="1335" 
d="M1144.5 887.5q-106.5 -94.5 -296.5 -154.5l-137 -43l221 -78l244 -536l90 -23l-11 -55l-184 4l-153 -4l-279 664l-12 10h-135l-93 -596l168 -21l-12 -57l-299 4l-270 -4l2 57l157 21l201 1288l-153 16l14 56l274 -4l365 4q188 0 296.5 -83.5t108.5 -227.5
q0 -143 -106.5 -237.5zM973 1116q0 117 -57.5 184.5t-174.5 71.5h-141l-94 -610h233q234 115 234 354zM481 -193l15 87h227l-29 -158l-219 -236l-53 13l115 223z" />
    <glyph glyph-name="rcommaaccent" unicode="&#x157;" horiz-adv-x="819" 
d="M104 0l154 864l-178 -61l-14 41l372 153l49 -45l-51 -295l-33 -114l285 436h158l-47 -238h-164q-22 -13 -70.5 -71t-74 -88.5t-37.5 -44.5l-39 -50l-86 -487h-224zM76 -193l14 87h229l-28 -158l-219 -236l-56 13l115 223z" />
    <glyph glyph-name="Rcaron" unicode="&#x158;" horiz-adv-x="1335" 
d="M1144.5 887.5q-106.5 -94.5 -296.5 -154.5l-137 -43l221 -78l244 -536l90 -23l-11 -55l-184 4l-153 -4l-279 664l-12 10h-135l-93 -596l168 -21l-12 -57l-299 4l-270 -4l2 57l157 21l201 1288l-153 16l14 56l274 -4l365 4q188 0 296.5 -83.5t108.5 -227.5
q0 -143 -106.5 -237.5zM973 1116q0 117 -57.5 184.5t-174.5 71.5h-141l-94 -610h233q234 115 234 354zM1102 1858l-281 -293h-133l-168 293h82l176 -160h4l240 160h80z" />
    <glyph glyph-name="rcaron" unicode="&#x159;" horiz-adv-x="819" 
d="M104 0l154 864l-178 -61l-14 41l372 153l49 -45l-51 -295l-33 -114l285 436h158l-47 -238h-164q-22 -13 -70.5 -71t-74 -88.5t-37.5 -44.5l-39 -50l-86 -487h-224zM889 1497l-279 -360h-112l-152 360h68l166 -201h6l237 201h66z" />
    <glyph glyph-name="Sacute" unicode="&#x15a;" horiz-adv-x="1024" 
d="M420 1176q0 -105 63.5 -162.5t102.5 -89.5l209 -168q87 -73 133.5 -148t46.5 -194t-82 -224.5t-229 -156.5l-201 -70q-141 0 -252 36t-182 89l71 334h86l4 -203q53 -57 163 -108.5t212 -51.5q176 63 176 244q0 88 -42.5 148.5t-116.5 117.5l-203 160q-78 63 -132 139
t-54 181q0 233 309 352l180 69q245 0 391 -98l-61 -328h-74l-35 220q-114 114 -301 118q-182 -60 -182 -206zM657 1565l117 284h240l-283 -284h-74z" />
    <glyph glyph-name="sacute" unicode="&#x15b;" horiz-adv-x="774" 
d="M414 76q84 27 84 108t-80 150l-185 149q-98 81 -98 193q0 76 54.5 139.5t183.5 116.5l157 67q81 -11 234 -86l-102 -170q-124 82 -279 150q-72 -29 -72 -99t78 -137l178 -145q61 -53 86 -102.5t25 -125.5t-53.5 -137t-155.5 -98l-221 -80q-58 14 -139.5 54t-98.5 51
l105 168q158 -101 299 -166zM422 1128l172 357h227l-332 -357h-67z" />
    <glyph glyph-name="Scircumflex" unicode="&#x15c;" horiz-adv-x="1024" 
d="M420 1176q0 -105 63.5 -162.5t102.5 -89.5l209 -168q87 -73 133.5 -148t46.5 -194t-82 -224.5t-229 -156.5l-201 -70q-141 0 -252 36t-182 89l71 334h86l4 -203q53 -57 163 -108.5t212 -51.5q176 63 176 244q0 88 -42.5 148.5t-116.5 117.5l-203 160q-78 63 -132 139
t-54 181q0 233 309 352l180 69q245 0 391 -98l-61 -328h-74l-35 220q-114 114 -301 118q-182 -60 -182 -206zM446 1565l277 293h135l168 -293h-82l-176 161h-4l-238 -161h-80z" />
    <glyph glyph-name="scircumflex" unicode="&#x15d;" horiz-adv-x="774" 
d="M414 76q84 27 84 108t-80 150l-185 149q-98 81 -98 193q0 76 54.5 139.5t183.5 116.5l157 67q81 -11 234 -86l-102 -170q-124 82 -279 150q-72 -29 -72 -99t78 -137l178 -145q61 -53 86 -102.5t25 -125.5t-53.5 -137t-155.5 -98l-221 -80q-58 14 -139.5 54t-98.5 51
l105 168q158 -101 299 -166zM250 1128l280 365h111l150 -365h-66l-166 203h-4l-238 -203h-67z" />
    <glyph glyph-name="Scedilla" unicode="&#x15e;" horiz-adv-x="1024" 
d="M432 -289q0 112 -137 117l108 137q-229 15 -374 123l71 334h86l4 -203q53 -57 163 -108.5t212 -51.5q176 63 176 244q0 88 -42.5 148.5t-116.5 117.5l-203 160q-78 63 -132 139t-54 181q0 233 309 352l180 69q245 0 391 -98l-61 -328h-74l-35 220q-114 114 -301 118
q-182 -60 -182 -206q0 -105 63.5 -162.5t102.5 -89.5l209 -168q87 -73 133.5 -148t46.5 -194t-82 -224.5t-229 -156.5q-55 -19 -88 -31t-61.5 -22.5t-53.5 -16.5l-45 -55q72 -6 117 -44t45 -92q0 -88 -63 -137t-157 -86l-133 -47h-90l64 88h163q70 42 70 121z" />
    <glyph glyph-name="scedilla" unicode="&#x15f;" horiz-adv-x="774" 
d="M414 76q84 27 84 108t-80 150l-185 149q-98 81 -98 193q0 76 54.5 139.5t183.5 116.5l157 67q81 -11 234 -86l-102 -170q-124 82 -279 150q-72 -29 -72 -99t78 -137l178 -145q61 -53 86 -102.5t25 -125.5t-53.5 -137t-155.5 -98l-207 -76l-53 -65q72 -6 117 -44t45 -92
q0 -88 -63.5 -137.5t-157.5 -85.5l-132 -47h-90l64 88h164q68 41 67 121q0 112 -137 117l125 154q-124 47 -201 92l105 168q158 -101 299 -166z" />
    <glyph glyph-name="Scaron" unicode="&#x160;" horiz-adv-x="1028" 
d="M420 1176q0 -105 63.5 -162.5t102.5 -89.5l209 -168q87 -73 133.5 -148t46.5 -194t-82 -224.5t-229 -156.5l-201 -70q-141 0 -252 36t-182 89l71 334h86l4 -203q53 -57 163 -108.5t212 -51.5q176 63 176 244q0 88 -42.5 148.5t-116.5 117.5l-203 160q-78 63 -132 139
t-54 181q0 233 309 352l180 69q245 0 391 -98l-61 -328h-74l-35 220q-114 114 -301 118q-182 -60 -182 -206zM1077 1858l-280 -293h-133l-168 293h79l177 -160h6l237 160h82z" />
    <glyph glyph-name="scaron" unicode="&#x161;" horiz-adv-x="774" 
d="M414 76q84 27 84 108t-80 150l-185 149q-98 81 -98 193q0 76 54.5 139.5t183.5 116.5l157 67q81 -11 234 -86l-102 -170q-124 82 -279 150q-72 -29 -72 -99t78 -137l178 -145q61 -53 86 -102.5t25 -125.5t-53.5 -137t-155.5 -98l-221 -80q-58 14 -139.5 54t-98.5 51
l105 168q158 -101 299 -166zM848 1497l-277 -360h-112l-152 360h68l168 -201h4l235 201h66z" />
    <glyph glyph-name="Tcommaaccent" unicode="&#x162;" horiz-adv-x="1189" 
d="M612 1366l-252 -2l-170 -315h-59l57 387l562 -4l559 4l-58 -387h-61l-72 315l-254 2l-198 -1290l180 -21l-10 -57l-310 4l-293 -4l3 57l176 21zM393 -193l15 87h227l-27 -158l-221 -236l-53 13l115 223z" />
    <glyph glyph-name="tcommaaccent" unicode="&#x163;" horiz-adv-x="688" 
d="M104 37l148 840h-162l8 32l43 39h123l21 115l202 170h50l-54 -289h228l-15 -67h-225l-135 -783l258 123l22 -37l-360 -213zM90 -193l14 87h230l-27 -158l-221 -236l-53 13l112 223z" />
    <glyph glyph-name="Tcaron" unicode="&#x164;" horiz-adv-x="1189" 
d="M612 1366l-252 -2l-170 -315h-59l57 387l562 -4l559 4l-58 -387h-61l-72 315l-254 2l-198 -1290l180 -21l-10 -57l-310 4l-293 -4l3 57l176 21zM1118 1858l-278 -293h-133l-170 293h81l175 -160h6l237 160h82z" />
    <glyph glyph-name="tcaron" unicode="&#x165;" horiz-adv-x="739" 
d="M104 37l148 840h-162l8 32l43 39h123l21 115l202 170h50l-54 -289h228l-15 -67h-225l-135 -783l258 123l22 -37l-360 -213zM702 1380l15 78h239l-28 -164l-234 -266l-53 12l131 248z" />
    <glyph glyph-name="Tbar" unicode="&#x166;" horiz-adv-x="1189" 
d="M348 920h195l69 446l-252 -2l-170 -315h-59l57 387l562 -4l559 4l-58 -387h-61l-72 315l-254 2l-69 -446h211l-13 -66h-209l-118 -778l180 -21l-10 -57l-310 4l-293 -4l3 57l176 21l120 778h-196z" />
    <glyph glyph-name="tbar" unicode="&#x167;" horiz-adv-x="688" 
d="M104 37l99 559h-117l8 57h119l39 224h-162l8 32l43 39h123l21 115l202 170h50l-54 -289h228l-15 -67h-225l-39 -224h203l-10 -57h-203l-86 -502l258 123l22 -37l-360 -213z" />
    <glyph glyph-name="Utilde" unicode="&#x168;" horiz-adv-x="1323" 
d="M426 471q-25 -174 54 -282.5t257 -108.5q141 56 210 139.5t95 259.5l142 883l-160 18l12 56l205 -4l211 4l-2 -56l-160 -18l-139 -870q-31 -191 -113 -302.5t-266 -164.5l-182 -62q-495 0 -416 514l135 885l-151 18l10 56l272 -4l281 4l-2 -56l-152 -18zM680 1800l127 39
l334 -139l102 137h37l-102 -231l-125 -33l-338 139l-99 -135h-36z" />
    <glyph glyph-name="utilde" unicode="&#x169;" horiz-adv-x="1097" 
d="M430 139q37 0 78 23.5t88 54.5l74 51l123 701h223l-154 -873l182 119l27 -35l-295 -213l-141 68l22 139l17 37l-334 -242q-129 0 -176 66.5t-29 175.5l119 655l-180 -59l-17 41l375 149l55 -51l-122 -690q-10 -61 9 -89t56 -28zM481 1415l127 39l334 -139l102 137h37
l-102 -231l-125 -35l-336 141l-100 -137h-37z" />
    <glyph glyph-name="Umacron" unicode="&#x16a;" horiz-adv-x="1323" 
d="M426 471q-25 -174 54 -282.5t257 -108.5q141 56 210 139.5t95 259.5l142 883l-160 18l12 56l205 -4l211 4l-2 -56l-160 -18l-139 -870q-31 -191 -113 -302.5t-266 -164.5l-182 -62q-495 0 -416 514l135 885l-151 18l10 56l272 -4l281 4l-2 -56l-152 -18zM635 1747h588
l-21 -109h-588z" />
    <glyph glyph-name="umacron" unicode="&#x16b;" horiz-adv-x="1097" 
d="M430 139q37 0 78 23.5t88 54.5l74 51l123 701h223l-154 -873l182 119l27 -35l-295 -213l-141 68l22 139l17 37l-334 -242q-129 0 -176 66.5t-29 175.5l119 655l-180 -59l-17 41l375 149l55 -51l-122 -690q-10 -61 9 -89t56 -28zM446 1356h586l-18 -109h-588z" />
    <glyph glyph-name="Ubreve" unicode="&#x16c;" horiz-adv-x="1323" 
d="M426 471q-25 -174 54 -282.5t257 -108.5q141 56 210 139.5t95 259.5l142 883l-160 18l12 56l205 -4l211 4l-2 -56l-160 -18l-139 -870q-31 -191 -113 -302.5t-266 -164.5l-182 -62q-495 0 -416 514l135 885l-151 18l10 56l272 -4l281 4l-2 -56l-152 -18zM898 1696
q145 0 273 135l33 -31q-48 -78 -114 -138.5t-189 -111.5q-167 0 -219.5 102.5t-65.5 145.5l48 31q89 -133 234 -133z" />
    <glyph glyph-name="ubreve" unicode="&#x16d;" horiz-adv-x="1097" 
d="M430 139q37 0 78 23.5t88 54.5l74 51l123 701h223l-154 -873l182 119l27 -35l-295 -213l-141 68l22 139l17 37l-334 -242q-129 0 -176 66.5t-29 175.5l119 655l-180 -59l-17 41l375 149l55 -51l-122 -690q-10 -61 9 -89t56 -28zM772 1282q98 0 215 162l37 -33
q-70 -129 -153 -183t-152 -87q-202 0 -279 268l52 33q49 -102 115.5 -131t164.5 -29z" />
    <glyph glyph-name="Uring" unicode="&#x16e;" horiz-adv-x="1323" 
d="M426 471q-25 -174 54 -282.5t257 -108.5q141 56 210 139.5t95 259.5l142 883l-160 18l12 56l205 -4l211 4l-2 -56l-160 -18l-139 -870q-31 -191 -113 -302.5t-266 -164.5l-182 -62q-495 0 -416 514l135 885l-151 18l10 56l272 -4l281 4l-2 -56l-152 -18zM764 1722.5
q0 -59.5 38 -96.5t97 -37t98 37t39 96.5t-39 99.5t-98 40t-97 -40t-38 -99.5zM1120 1724q0 -124 -86 -156t-131 -46q-152 0 -188.5 72.5t-36.5 124.5q0 91 58 136t163 74q221 0 221 -205z" />
    <glyph glyph-name="uring" unicode="&#x16f;" horiz-adv-x="1097" 
d="M430 139q37 0 78 23.5t88 54.5l74 51l123 701h223l-154 -873l182 119l27 -35l-295 -213l-141 68l22 139l17 37l-334 -242q-129 0 -176 66.5t-29 175.5l119 655l-180 -59l-17 41l375 149l55 -51l-122 -690q-10 -61 9 -89t56 -28zM567 1312.5q0 -59.5 38 -96t97.5 -36.5
t98.5 36.5t39 96t-39 99.5t-98.5 40t-97.5 -40t-38 -99.5zM924 1315q0 -123 -87 -155t-132 -48q-152 0 -189 71t-37 125q0 93 56 136t165 76q224 0 224 -205z" />
    <glyph glyph-name="Uhungarumlaut" unicode="&#x170;" horiz-adv-x="1323" 
d="M426 471q-25 -174 54 -282.5t257 -108.5q141 56 210 139.5t95 259.5l142 883l-160 18l12 56l205 -4l211 4l-2 -56l-160 -18l-139 -870q-31 -191 -113 -302.5t-266 -164.5l-182 -62q-495 0 -416 514l135 885l-151 18l10 56l272 -4l281 4l-2 -56l-152 -18zM987 1565
l123 284h250l-297 -284h-76zM633 1565l121 284h252l-297 -284h-76z" />
    <glyph glyph-name="uhungarumlaut" unicode="&#x171;" horiz-adv-x="1097" 
d="M430 139q37 0 78 23.5t88 54.5l74 51l123 701h223l-154 -873l182 119l27 -35l-295 -213l-141 68l22 139l17 37l-334 -242q-129 0 -176 66.5t-29 175.5l119 655l-180 -59l-17 41l375 149l55 -51l-122 -690q-10 -61 9 -89t56 -28zM809 1128l152 351h239l-323 -351h-68z
M453 1128l149 351h242l-326 -351h-65z" />
    <glyph glyph-name="Uogonek" unicode="&#x172;" horiz-adv-x="1323" 
d="M426 471q-25 -174 54 -282.5t257 -108.5q141 56 210 139.5t95 259.5l142 883l-160 18l12 56l205 -4l211 4l-2 -56l-160 -18l-139 -870q-26 -174 -98 -282.5t-224 -166.5l-159 -270l-15 -82q-10 -66 35 -103t162 -37l-8 -49q-209 0 -286 52.5t-60 154.5l18 103l238 206
l-164 -55q-495 0 -416 514l135 885l-151 18l10 56l272 -4l281 4l-2 -56l-152 -18z" />
    <glyph glyph-name="uogonek" unicode="&#x173;" horiz-adv-x="1097" 
d="M430 139q37 0 78 23.5t88 54.5l74 51l123 701h223l-154 -873l182 119l27 -35l-188 -135l-168 -274l-17 -80q-21 -144 199 -144l-10 -45q-209 0 -286 52.5t-58 154.5l18 111l195 157l-121 58l22 139l17 37l-334 -242q-129 0 -176 66.5t-29 175.5l119 655l-180 -59l-17 41
l375 149l55 -51l-122 -690q-10 -61 9 -89t56 -28z" />
    <glyph glyph-name="Wcircumflex" unicode="&#x174;" horiz-adv-x="1939" 
d="M1065 881l4 57l-362 -915l-195 -56l-217 1395l-141 18l12 56l283 -4l256 4l-3 -56l-151 -20l158 -1100l-13 -63l338 854l-47 311l-113 18l11 56l258 -4l278 4l-2 -56l-176 -20l158 -1100l-10 -63l460 1163l-170 20l11 56l215 -4l170 4l-2 -56l-121 -18l-555 -1339
l-195 -56zM877 1565l278 293h133l168 -293h-80l-176 161h-6l-238 -161h-79z" />
    <glyph glyph-name="wcircumflex" unicode="&#x175;" horiz-adv-x="1411" 
d="M709 16l-11 363l13 65l-295 -473l-203 45l-25 850l-178 -61l-16 41l368 153l56 -55l10 -799l-8 -53l272 438l-10 363l231 82l11 -832l-11 -51l377 596l-160 191l193 120l78 -90l-35 -237l-457 -701zM559 1128l279 365h112l150 -365h-68l-166 203h-4l-235 -203h-68z" />
    <glyph glyph-name="Ycircumflex" unicode="&#x176;" horiz-adv-x="1298" 
d="M797 711v-52l432 701l-168 20l10 56l213 -4l154 4l-2 -56l-109 -18l-491 -780l-78 -506l194 -21l-10 -57l-324 4l-319 -4v57l205 21l80 508l-316 778l-112 18l10 56l250 -4l293 4v-56l-162 -20zM606 1565l279 293h133l168 -293h-80l-176 161h-4l-240 -161h-80z" />
    <glyph glyph-name="ycircumflex" unicode="&#x177;" horiz-adv-x="968" 
d="M489 41l-186 -37l-123 860l-176 -61l-18 39l344 157l78 -45l108 -864l334 604l-164 185l193 120l79 -88l-34 -241l-344 -609l-336 -544l-256 2l41 221h217zM342 1128l279 365h112l150 -365h-66l-168 203h-4l-237 -203h-66z" />
    <glyph glyph-name="Ydieresis" unicode="&#x178;" horiz-adv-x="1298" 
d="M797 711v-52l432 701l-168 20l10 56l213 -4l154 4l-2 -56l-109 -18l-491 -780l-78 -506l194 -21l-10 -57l-324 4l-319 -4v57l205 21l80 508l-316 778l-112 18l10 56l250 -4l293 4v-56l-162 -20zM1137 1798l90 -10l-4 -102l-37 -93l-88 -12l-92 12l4 107l41 88zM719 1798
l92 -10l-4 -102l-37 -93l-90 -12l-92 12l4 107l41 88z" />
    <glyph glyph-name="Zacute" unicode="&#x179;" horiz-adv-x="1148" 
d="M-6 0l-8 57l913 1272l59 41l-538 -10l-184 -320h-58l66 394h962l21 -56l-910 -1274l-53 -34l574 4l223 348h55l-100 -422h-1022zM655 1565l119 284h240l-285 -284h-74z" />
    <glyph glyph-name="zacute" unicode="&#x17a;" horiz-adv-x="880" 
d="M115 55l-88 -67l-45 30l684 756l-84 -39l-367 45l-59 -78l-39 15l133 272l559 -57l59 41l41 -29l-655 -729l72 31l407 -60l74 82l37 -14l-139 -283zM500 1128l172 357h227l-332 -357h-67z" />
    <glyph glyph-name="Zdotaccent" unicode="&#x17b;" horiz-adv-x="1148" 
d="M-6 0l-8 57l913 1272l59 41l-538 -10l-184 -320h-58l66 394h962l21 -56l-910 -1274l-53 -34l574 4l223 348h55l-100 -422h-1022zM674 1794l88 10l106 -12l-2 -111l-39 -96l-82 -10l-120 10l10 115z" />
    <glyph glyph-name="zdotaccent" unicode="&#x17c;" horiz-adv-x="880" 
d="M115 55l-88 -67l-45 30l684 756l-84 -39l-367 45l-59 -78l-39 15l133 272l559 -57l59 41l41 -29l-655 -729l72 31l407 -60l74 82l37 -14l-139 -283zM545 1436l86 10l108 -10l-4 -113l-39 -96l-82 -13l-118 13l8 112z" />
    <glyph glyph-name="Zcaron" unicode="&#x17d;" horiz-adv-x="1148" 
d="M-6 0l-8 57l913 1272l59 41l-538 -10l-184 -320h-58l66 394h962l21 -56l-910 -1274l-53 -34l574 4l223 348h55l-100 -422h-1022zM500 1858h82l174 -160h6l237 160h82l-280 -293h-133z" />
    <glyph glyph-name="zcaron" unicode="&#x17e;" horiz-adv-x="880" 
d="M115 55l-88 -67l-45 30l684 756l-84 -39l-367 45l-59 -78l-39 15l133 272l559 -57l59 41l41 -29l-655 -729l72 31l407 -60l74 82l37 -14l-139 -283zM922 1497l-279 -362h-113l-149 362h65l168 -201h2l240 201h66z" />
    <glyph glyph-name="longs" unicode="&#x17f;" horiz-adv-x="653" 
d="M86 874l8 35l41 37h127l12 76q16 92 65.5 166t121.5 119l250 155h174l-35 -182h-266q-50 -53 -74 -182l-197 -1116q-31 -176 -209 -297l-241 -166h-129l39 202h233q50 64 74 185l168 968h-162z" />
    <glyph glyph-name="florin" unicode="&#x192;" horiz-adv-x="745" 
d="M-197 -274h236q44 53 72 182l168 969h-166l10 32l43 37h127l12 78q32 186 187 287l247 153h168l-35 -184h-260q-54 -58 -73 -182l-27 -154h215l-16 -67h-211l-156 -897q-30 -170 -201 -287l-249 -172h-130z" />
    <glyph glyph-name="Aringacute" unicode="&#x1fa;" horiz-adv-x="1392" 
d="M352 -2l-205 4l-198 -4l4 57l145 19l756 1333l205 59l135 -1392l141 -19l-12 -57l-297 4l-272 -4l2 57l168 21l-35 411h-463l-227 -411l166 -21zM463 559h420l-47 610l2 72zM854 1722.5q0 -59.5 38 -96.5t97.5 -37t97 37t37.5 96.5t-37.5 99.5t-97 40t-97.5 -40
t-38 -99.5zM1210 1724q0 -92 -52 -129t-167 -73q-152 0 -188.5 72.5t-36.5 124.5q0 91 57.5 135.5t165.5 74.5l49 94l209 5l-151 -119q114 -40 114 -185z" />
    <glyph glyph-name="aringacute" unicode="&#x1fb;" horiz-adv-x="1024" 
d="M70 338q0 195 109.5 342t295.5 240l164 79q86 0 178 -32.5t129 -51.5l-145 -819l180 123l27 -37l-285 -215l-154 72l31 170l18 47l-315 -287q-233 82 -233 369zM303 456q0 -120 31 -190.5t88 -118.5l194 162l91 512q-41 27 -100.5 43.5t-106.5 16.5
q-92 -70 -144.5 -187.5t-52.5 -237.5zM625 1312.5q0 -59.5 37.5 -96t97 -36.5t97.5 36.5t38 96t-38 99.5t-97.5 40t-97 -40t-37.5 -99.5zM866 1501q115 -45 115 -178q0 -132 -87 -163.5t-132 -47.5q-149 0 -186 71t-37 125q0 94 56 137t163 75l51 94l209 4z" />
    <glyph glyph-name="AEacute" unicode="&#x1fc;" horiz-adv-x="1822" 
d="M-49 55l145 19l871 1362l161 -4l740 4l-31 -369h-53l-92 295l-439 2l-98 -637l223 4l138 246h43l-60 -281l-31 -284h-43l-59 241l-223 4l-86 -587l467 4l178 321h57l-80 -397l-766 4l-266 -4v57l160 21l88 581h-330l-364 -581l166 -21l-15 -57l-211 4l-194 -4zM606 727
h301l99 637zM1186 1565l117 284h241l-287 -284h-71z" />
    <glyph glyph-name="aeacute" unicode="&#x1fd;" horiz-adv-x="1400" 
d="M811 1128l172 357h227l-331 -357h-68zM1126 734q0 71 -29.5 112t-74.5 51q-135 -74 -184 -295q-25 -45 -27 -106l293 108q22 59 22 130zM301 456q0 -120 30.5 -190.5t90.5 -118.5l160 136q-2 10 -2 13v28q-8 129 37 251.5t143 215.5q-144 90 -264 90
q-92 -70 -143.5 -187.5t-51.5 -237.5zM66 354q0 178 109.5 325.5t295.5 240.5l164 79q63 -2 149 -28.5t158 -63.5l29 15l194 75q88 -16 144.5 -69.5t56.5 -145.5t-35 -176l-520 -155v-21q10 -135 74.5 -206.5t148.5 -94.5q62 27 146 73t108 62l27 -37q-120 -88 -271 -176
l-137 -82q-111 10 -196.5 80t-116.5 191l-291 -271q-102 37 -169.5 122t-67.5 263z" />
    <glyph glyph-name="Oslashacute" unicode="&#x1fe;" horiz-adv-x="1425" 
d="M801 1565l119 284h239l-282 -284h-76zM782 1389q-180 -68 -287.5 -280t-107.5 -480q0 -127 27 -238l659 760q-47 104 -123 164.5t-168 73.5zM745 49q185 73 289.5 282t104.5 487q0 138 -39 265l-664 -766q47 -121 127 -188.5t182 -79.5zM1274 1286q145 -170 145 -440
t-141.5 -500t-439.5 -328l-164 -55q-248 0 -404 164l-135 -158h-88l182 209q-120 163 -120 414q0 433 210.5 604.5t368.5 220.5l166 53q225 0 377 -139l112 131h84z" />
    <glyph glyph-name="oslashacute" unicode="&#x1ff;" horiz-adv-x="1001" 
d="M549 1128l172 357h227l-332 -357h-67zM311 471q0 -110 8 -160l386 414q-48 145 -185 182q-109 -50 -159 -188t-50 -248zM729 530q0 65 -10 132l-385 -414q49 -153 184 -187q107 47 159 188t52 281zM967 584q0 -168 -99.5 -320.5t-292.5 -232.5l-145 -62q-157 0 -256 107
l-86 -92h-76l127 137q-65 99 -65 266q0 168 98 317.5t291 231.5l145 63q156 0 254 -106l90 96h72l-127 -137q70 -100 70 -268z" />
    <glyph glyph-name="Scommaaccent" unicode="&#x218;" horiz-adv-x="1024" 
d="M420 1176q0 -105 63.5 -162.5t102.5 -89.5l209 -168q87 -73 133.5 -148t46.5 -194t-82 -224.5t-229 -156.5l-201 -70q-141 0 -252 36t-182 89l71 334h86l4 -203q53 -57 163 -108.5t212 -51.5q176 63 176 244q0 88 -42.5 148.5t-116.5 117.5l-203 160q-78 63 -132 139
t-54 181q0 233 309 352l180 69q245 0 391 -98l-61 -328h-74l-35 220q-114 114 -301 118q-182 -60 -182 -206zM324 -193l14 87h227l-26 -158l-222 -236l-53 13l115 223z" />
    <glyph glyph-name="scommaaccent" unicode="&#x219;" horiz-adv-x="774" 
d="M414 76q84 27 84 108t-80 150l-185 149q-98 81 -98 193q0 76 54.5 139.5t183.5 116.5l157 67q81 -11 234 -86l-102 -170q-124 82 -279 150q-72 -29 -72 -99t78 -137l178 -145q61 -53 86 -102.5t25 -125.5t-53.5 -137t-155.5 -98l-221 -80q-58 14 -139.5 54t-98.5 51
l105 168q158 -101 299 -166zM127 -190l14 84h230l-29 -158l-219 -236l-55 15l116 221z" />
    <glyph glyph-name="uni021A" unicode="&#x21a;" horiz-adv-x="1189" 
d="M612 1366l-252 -2l-170 -315h-59l57 387l562 -4l559 4l-58 -387h-61l-72 315l-254 2l-198 -1290l180 -21l-10 -57l-310 4l-293 -4l3 57l176 21zM387 -193l14 87h228l-27 -158l-221 -236l-53 13l114 223z" />
    <glyph glyph-name="uni021B" unicode="&#x21b;" horiz-adv-x="688" 
d="M104 37l148 840h-162l8 32l43 39h123l21 115l202 170h50l-54 -289h228l-15 -67h-225l-135 -783l258 123l22 -37l-360 -213zM90 -193l14 87h230l-27 -158l-221 -236l-53 13l112 223z" />
    <glyph glyph-name="hsuperior" unicode="&#x2b0;" horiz-adv-x="706" 
d="M561 1202q9 55 -44 55q-30 0 -77 -30l-41 -21l-75 -387h-170l141 731l-107 -24l-10 26l252 74l45 -35l-65 -327l-11 -23l209 135q82 0 114 -34.5t17 -112.5l-71 -346l106 63l19 -22l-181 -121l-120 45z" />
    <glyph glyph-name="jsuperior" unicode="&#x2b2;" horiz-adv-x="346" 
d="M313 1602l49 10l97 -10v-78l-27 -64l-47 -10l-104 10l4 72zM-70 555l29 139h147q25 42 39 119l95 479l-99 -28l-12 26l240 84l51 -41l-94 -479q-10 -57 -57.5 -104.5t-110.5 -92.5l-154 -102h-74z" />
    <glyph glyph-name="wsuperior" unicode="&#x2b7;" horiz-adv-x="882" 
d="M784 1296l140 80l53 -49l-23 -147l-270 -375l-154 26l-6 170l8 41l-165 -237l-152 26l-16 463l-101 -30l-12 26l236 86l53 -45l6 -403l-4 -35l145 207l-8 209l176 53l6 -438l-6 -37l201 291z" />
    <glyph glyph-name="ysuperior" unicode="&#x2b8;" horiz-adv-x="602" 
d="M121 709h151l138 143l-148 -31l-76 473l-98 -30l-12 26l229 86l53 -37l68 -454l188 297l-110 114l135 80l57 -47l-24 -151l-205 -326l-205 -297h-170z" />
    <glyph glyph-name="apostrophemod" unicode="&#x2bc;" horiz-adv-x="493" 
d="M197 915q8 14 82.5 141t78.5 148l-120 8l10 125l39 107l159 10l68 -10l-10 -123l-35 -109l-223 -319z" />
    <glyph glyph-name="circumflex" unicode="&#x2c6;" horiz-adv-x="1013" 
d="M238 1128l280 365h113l149 -365h-67l-166 203h-4l-238 -203h-67z" />
    <glyph glyph-name="caron" unicode="&#x2c7;" horiz-adv-x="1017" 
d="M793 1497l-279 -360h-113l-151 360h67l166 -201h6l238 201h66z" />
    <glyph glyph-name="breve" unicode="&#x2d8;" horiz-adv-x="1017" 
d="M555 1282q98 0 215 162l37 -33q-59 -96 -114.5 -150t-188.5 -120q-116 0 -184 79.5t-95 188.5l49 33q49 -102 116 -131t165 -29z" />
    <glyph glyph-name="dotaccent" unicode="&#x2d9;" horiz-adv-x="933" 
d="M406 1436l86 10l108 -10l-4 -113l-39 -96l-80 -13l-121 13l11 112z" />
    <glyph glyph-name="ring" unicode="&#x2da;" horiz-adv-x="980" 
d="M356 1312.5q0 -59.5 38 -96t97.5 -36.5t98.5 36.5t39 96t-39 99.5t-98.5 40t-97.5 -40t-38 -99.5zM713 1318q0 -93 -49.5 -128.5t-167.5 -77.5q-152 0 -189 71t-37 125q0 93 56 136t166 76q156 0 188.5 -74t32.5 -128z" />
    <glyph glyph-name="ogonek" unicode="&#x2db;" horiz-adv-x="1167" 
d="M592 -229l-17 -80q-21 -144 197 -144l-8 -45q-209 0 -286 52.5t-58 154.5l20 111l291 239h39z" />
    <glyph glyph-name="tilde" unicode="&#x2dc;" horiz-adv-x="1030" 
d="M260 1415l127 39l334 -139l102 137h37l-102 -231l-123 -35l-338 141l-98 -137h-39z" />
    <glyph glyph-name="hungarumlaut" unicode="&#x2dd;" horiz-adv-x="1087" 
d="M526 1128l150 351h242l-324 -351h-68zM168 1128l151 351h240l-323 -351h-68z" />
    <glyph glyph-name="xsuperior" unicode="&#x2e3;" horiz-adv-x="612" 
d="M397 848l-53 162v20l-143 -215h-131l34 158h121q15 7 39 32.5t35 32.5l29 27l-78 233l-107 -32l-12 26l234 86l51 -41l51 -157v-25l139 211h135l-34 -160h-121q-8 -4 -32 -26.5t-36 -32.5l-33 -25l80 -243l115 65l16 -20l-182 -121z" />
    <glyph glyph-name="Delta" unicode="&#x394;" horiz-adv-x="1409" 
d="M1069 78l-436 1030l-6 55l-488 -1085h930zM41 0v72l629 1355l92 33l606 -1386v-74h-1327z" />
    <glyph glyph-name="Omega" unicode="&#x3a9;" horiz-adv-x="1462" 
d="M752 1464q280 0 459.5 -165.5t179.5 -413.5t-101.5 -354.5t-191.5 -154.5t-201 -91v-133l379 32l59 164h56v-348h-582v340q109 10 200 129t91 362t-113.5 394t-288.5 151q-144 0 -238.5 -138.5t-94.5 -357.5q0 -220 89.5 -376t198.5 -164v-340h-579v348h53l55 -164
l381 -32v124q-202 31 -346.5 175.5t-144.5 382.5t158.5 395t521.5 235z" />
    <glyph glyph-name="mu" unicode="&#x3bc;" 
d="M530.5 139q36.5 0 77.5 23.5t88 54.5l76 51l123 701h221l-151 -869l182 115l27 -35l-295 -213l-144 70l23 139l16 35l-334 -244q-119 0 -164 70l-8 -100l78 -408h-227l252 1440h221l-127 -713q-10 -61 9.5 -89t56 -28z" />
    <glyph glyph-name="pi" unicode="&#x3c0;" 
d="M1059 131l16 -41l-284 -106l-105 120l135 777h-254l-153 -881h-232l156 881h-92l-131 -232h-52l54 309h1153l-15 -77h-202l-140 -793z" />
    <glyph glyph-name="Wgrave" unicode="&#x1e80;" horiz-adv-x="1939" 
d="M1065 881l4 57l-362 -915l-195 -56l-217 1395l-141 18l12 56l283 -4l256 4l-3 -56l-151 -20l158 -1100l-13 -63l338 854l-47 311l-113 18l11 56l258 -4l278 4l-2 -56l-176 -20l158 -1100l-10 -63l460 1163l-170 20l11 56l215 -4l170 4l-2 -56l-121 -18l-555 -1339
l-195 -56zM1139 1565l-211 284h227l53 -284h-69z" />
    <glyph glyph-name="wgrave" unicode="&#x1e81;" horiz-adv-x="1411" 
d="M709 16l-11 363l13 65l-295 -473l-203 45l-25 850l-178 -61l-16 41l368 153l56 -55l10 -799l-8 -53l272 438l-10 363l231 82l11 -832l-11 -51l377 596l-160 191l193 120l78 -90l-35 -237l-457 -701zM795 1128l-197 357h223l37 -357h-63z" />
    <glyph glyph-name="Wacute" unicode="&#x1e82;" horiz-adv-x="1939" 
d="M1065 881l4 57l-362 -915l-195 -56l-217 1395l-141 18l12 56l283 -4l256 4l-3 -56l-151 -20l158 -1100l-13 -63l338 854l-47 311l-113 18l11 56l258 -4l278 4l-2 -56l-176 -20l158 -1100l-10 -63l460 1163l-170 20l11 56l215 -4l170 4l-2 -56l-121 -18l-555 -1339
l-195 -56zM1087 1565l117 284h240l-283 -284h-74z" />
    <glyph glyph-name="wacute" unicode="&#x1e83;" horiz-adv-x="1411" 
d="M709 16l-11 363l13 65l-295 -473l-203 45l-25 850l-178 -61l-16 41l368 153l56 -55l10 -799l-8 -53l272 438l-10 363l231 82l11 -832l-11 -51l377 596l-160 191l193 120l78 -90l-35 -237l-457 -701zM702 1128l172 357h228l-332 -357h-68z" />
    <glyph glyph-name="Wdieresis" unicode="&#x1e84;" horiz-adv-x="1939" 
d="M1065 881l4 57l-362 -915l-195 -56l-217 1395l-141 18l12 56l283 -4l256 4l-3 -56l-151 -20l158 -1100l-13 -63l338 854l-47 311l-113 18l11 56l258 -4l278 4l-2 -56l-176 -20l158 -1100l-10 -63l460 1163l-170 20l11 56l215 -4l170 4l-2 -56l-121 -18l-555 -1339
l-195 -56zM1432 1798l90 -10l-2 -102l-39 -93l-86 -12l-95 12l7 107l39 88zM1014 1798l90 -10l-2 -102l-39 -93l-86 -12l-94 12l6 107l37 88z" />
    <glyph glyph-name="wdieresis" unicode="&#x1e85;" horiz-adv-x="1411" 
d="M709 16l-11 363l13 65l-295 -473l-203 45l-25 850l-178 -61l-16 41l368 153l56 -55l10 -799l-8 -53l272 438l-10 363l231 82l11 -832l-11 -51l377 596l-160 191l193 120l78 -90l-35 -237l-457 -701zM1087 1409l87 -12l-5 -101l-36 -90l-84 -10l-95 10l7 105l38 86z
M727 1409l86 -12l-2 -101l-37 -90l-84 -10l-94 10l6 105l37 86z" />
    <glyph glyph-name="Ygrave" unicode="&#x1ef2;" horiz-adv-x="1298" 
d="M797 711v-52l432 701l-168 20l10 56l213 -4l154 4l-2 -56l-109 -18l-491 -780l-78 -506l194 -21l-10 -57l-324 4l-319 -4v57l205 21l80 508l-316 778l-112 18l10 56l250 -4l293 4v-56l-162 -20zM846 1565l-213 284h227l53 -284h-67z" />
    <glyph glyph-name="ygrave" unicode="&#x1ef3;" horiz-adv-x="968" 
d="M489 41l-186 -37l-123 860l-176 -61l-18 39l344 157l78 -45l108 -864l334 604l-164 185l193 120l79 -88l-34 -241l-344 -609l-336 -544l-256 2l41 221h217zM580 1128l-195 357h225l33 -357h-63z" />
    <glyph glyph-name="endash" unicode="&#x2013;" horiz-adv-x="1267" 
d="M141 618h1041l-17 -92h-1042z" />
    <glyph glyph-name="emdash" unicode="&#x2014;" horiz-adv-x="1832" 
d="M162 618h1585l-14 -92h-1590z" />
    <glyph glyph-name="quoteleft" unicode="&#x2018;" horiz-adv-x="471" 
d="M498 1442q-39 -58 -99.5 -168.5t-62.5 -120.5l121 -8l-11 -127l-36 -105l-160 -10l-70 10l10 123l37 109l222 317z" />
    <glyph glyph-name="quoteright" unicode="&#x2019;" horiz-adv-x="495" 
d="M205 915q8 14 83 142t79 147l-121 8l10 125l37 107l160 10l69 -10l-10 -123l-37 -109l-223 -319z" />
    <glyph glyph-name="quotesinglbase" unicode="&#x201a;" horiz-adv-x="509" 
d="M35 -283q8 14 83 142t79 147l-121 8l10 129l41 103l158 14l67 -14l-10 -121l-35 -111l-223 -317z" />
    <glyph glyph-name="quotedblleft" unicode="&#x201c;" horiz-adv-x="827" 
d="M498 1444q-8 -14 -82.5 -138.5t-79.5 -150.5l121 -8l-11 -127l-36 -105l-160 -10l-70 10l10 123l37 109l222 319zM852 1444q-8 -14 -81.5 -139.5t-78.5 -149.5l121 -8l-10 -127l-39 -105l-158 -10l-69 10l10 123l35 109l223 319z" />
    <glyph glyph-name="quotedblright" unicode="&#x201d;" horiz-adv-x="856" 
d="M561 918q8 12 32.5 55t74.5 130.5t53 102.5l-121 6l12 127l37 105l158 12l70 -12l-11 -121l-35 -111l-223 -317zM205 918q26 38 93 158t69 130l-121 6l10 127l37 105l160 12l69 -12l-10 -121l-37 -111l-223 -317z" />
    <glyph glyph-name="quotedblbase" unicode="&#x201e;" horiz-adv-x="866" 
d="M35 -283q8 14 83 142t79 147l-121 8l10 129l41 103l158 14l67 -14l-10 -121l-35 -111l-223 -317zM391 -283q8 14 82.5 138.5t79.5 150.5l-121 8l10 129l39 103l158 14l70 -14l-11 -121l-36 -111l-224 -317z" />
    <glyph glyph-name="dagger" unicode="&#x2020;" horiz-adv-x="911" 
d="M164 1133l348 -86l-23 407h242l-166 -407l387 86l-39 -226l-358 88l2 -237l64 -88l-121 -211l-152 -582h-26l51 582l-47 211l94 88l84 237l-379 -88z" />
    <glyph glyph-name="daggerdbl" unicode="&#x2021;" horiz-adv-x="1040" 
d="M487 758l84 237l-378 -88l38 226l349 -86l-23 407h242l-168 -407l389 86l-41 -226l-356 88l2 -237l63 -84l-94 -88l-86 -238l383 92l-39 -227l-354 86l26 -410h-241l166 410l-386 -86l39 227l355 -92v238l-64 88z" />
    <glyph glyph-name="bullet" unicode="&#x2022;" horiz-adv-x="567" 
d="M356 760l78 -10l-12 -134l-35 -122l-176 -11l-78 11l14 139l37 117z" />
    <glyph glyph-name="ellipsis" unicode="&#x2026;" horiz-adv-x="1607" 
d="M1372 252l62 -12l-11 -127l-37 -113l-169 -12l-64 12l10 131l35 109zM856 252l62 -12l-9 -127l-37 -113l-172 -12l-63 12l10 131l37 109zM342 252l61 -12l-10 -127l-35 -113l-172 -12l-63 12l10 131l37 109z" />
    <glyph glyph-name="perthousand" unicode="&#x2030;" horiz-adv-x="2275" 
d="M1182 653q-83 -23 -128.5 -118t-49.5 -218q-8 -230 120 -254q119 35 145.5 161t28.5 212t-29.5 146.5t-86.5 70.5zM1901 653q-167 -47 -178 -373q-3 -86 29 -146t91 -71q79 23 125.5 121t50.5 219q8 228 -118 250zM1081 0q-110 0 -179.5 73.5t-65.5 211.5
q4 137 84.5 251.5t259.5 168.5l41 14q117 0 183 -77t62 -198q-6 -239 -130 -323t-214 -109zM1802 0q-108 0 -179 75t-67 211t85 250.5t260 168.5l41 14q117 0 183 -77t62 -211t-85 -252t-259 -167zM539 1370q-122 -34 -149.5 -160.5t-30.5 -211.5t30 -145t92 -71
q119 35 145.5 161t28.5 212t-28.5 145.5t-87.5 69.5zM438 717q-109 0 -179.5 73.5t-66.5 210.5t85 252t262 168l39 15q119 0 185 -77t62 -198q-7 -241 -131.5 -324t-214.5 -106zM207 -10h-119l1362 1454h117z" />
    <glyph glyph-name="guilsinglleft" unicode="&#x2039;" horiz-adv-x="616" 
d="M362 31l-290 450l452 451h82l-342 -451l185 -450h-87z" />
    <glyph glyph-name="guilsinglright" unicode="&#x203a;" horiz-adv-x="659" 
d="M59 31l342 450l-184 451h84l295 -451l-451 -450h-86z" />
    <glyph glyph-name="fraction" unicode="&#x2044;" horiz-adv-x="339" 
d="M-281 -102h-100l1067 1556h96z" />
    <glyph glyph-name="zerosuperior" unicode="&#x2070;" horiz-adv-x="780" 
d="M684 1277q0 248 -123 292q-88 -45 -142 -161t-54 -255q0 -249 118 -295q90 47 145.5 164t55.5 255zM178 1118q0 244 125 347.5t217 131.5l94 31q119 0 188.5 -84t69.5 -233q0 -250 -128 -350.5t-220 -131.5l-92 -28q-117 0 -185.5 83.5t-68.5 233.5z" />
    <glyph glyph-name="foursuperior" unicode="&#x2074;" horiz-adv-x="698" 
d="M637 1135h149l-14 -76h-149l-45 -240h-166l47 240h-309l-25 53l457 504h198l-10 -43l-575 -455l47 19h229l25 118l155 95h29z" />
    <glyph glyph-name="fivesuperior" unicode="&#x2075;" horiz-adv-x="669" 
d="M721 1187q0 -111 -82 -177t-213 -119l-176 -78h-111l27 141h276q86 68 86 162q0 51 -27.5 88t-88.5 37t-127 -31l-45 -20l-19 16l127 404h449l-9 -29l-51 -111h-379l-77 -229l208 107q123 0 177.5 -49.5t54.5 -111.5z" />
    <glyph glyph-name="sixsuperior" unicode="&#x2076;" horiz-adv-x="690" 
d="M367 1055q0 -76 25.5 -129.5t72.5 -71.5q59 33 83.5 97.5t24.5 130.5t-20.5 107.5t-52.5 41.5t-86 -33l-37 -18q-10 -49 -10 -125zM762 1124q0 -94 -64.5 -173t-179.5 -115l-106 -35q-104 0 -172 71.5t-68 181.5q0 210 172 370t428 208l10 -30q-174 -56 -275.5 -161
t-123.5 -224l199 122q86 -4 133 -62.5t47 -152.5z" />
    <glyph glyph-name="sevensuperior" unicode="&#x2077;" horiz-adv-x="620" 
d="M205 1608h545l22 -29l-491 -760h-121l2 49l481 602l-27 -10h-436z" />
    <glyph glyph-name="eightsuperior" unicode="&#x2078;" horiz-adv-x="704" 
d="M453 850q98 40 98 146q0 48 -36 90t-91 92q-88 -67 -88 -146q0 -80 37 -126t80 -56zM214.5 1109.5q62.5 51.5 170.5 96.5q-59 43 -96 85.5t-37 92.5q0 85 61 136.5t158 78.5l104 31q102 0 167 -40t65 -94q0 -91 -66 -141t-161 -83q76 -59 118.5 -103.5t42.5 -98.5
q0 -93 -66 -149t-186 -94l-90 -28q-106 0 -176.5 48.5t-70.5 129.5t62.5 132.5zM629 1456q0 49 -25.5 85t-81.5 44q-82 -29 -82 -127q0 -41 26 -76.5t79 -78.5q84 55 84 153z" />
    <glyph glyph-name="ninesuperior" unicode="&#x2079;" horiz-adv-x="690" 
d="M178 1310q0 96 65.5 173.5t182.5 111.5l111 35q102 0 167.5 -70t65.5 -182q0 -211 -171 -370t-427 -207l-12 28q176 57 277.5 160.5t123.5 224.5l-196 -120q-88 4 -137.5 62t-49.5 154zM479 1575q-110 -53 -110 -237q0 -52 22.5 -94t56.5 -42t84 31l37 20q6 55 6 109
q0 178 -96 213z" />
    <glyph glyph-name="plussuperior" unicode="&#x207a;" horiz-adv-x="835" 
d="M518 936v254h-282v63h282v263h66v-263h284v-63h-284v-254h-66z" />
    <glyph glyph-name="minussuperior" unicode="&#x207b;" horiz-adv-x="847" 
d="M236 1280h645v-63h-645v63z" />
    <glyph glyph-name="equalsuperior" unicode="&#x207c;" horiz-adv-x="839" 
d="M862 1073h-637v64h637v-64zM862 1290h-637v66h637v-66z" />
    <glyph glyph-name="parenleftsuperior" unicode="&#x207d;" horiz-adv-x="522" 
d="M412 1034q0 -216 88 -358l-29 -21q-92 111 -134 203t-42 198q0 206 86 354t299 327l27 -21q-295 -282 -295 -682z" />
    <glyph glyph-name="parenrightsuperior" unicode="&#x207e;" horiz-adv-x="522" 
d="M381 1358q0 212 -90 358l28 21q92 -111 135.5 -202t43.5 -199q0 -208 -85.5 -353t-301.5 -328l-25 21q295 282 295 682z" />
    <glyph glyph-name="nsuperior" unicode="&#x207f;" horiz-adv-x="708" 
d="M559 1202q13 55 -42 55q-30 0 -75 -30l-41 -21l-73 -387h-172l92 471l-98 -26l-11 26l240 84l49 -39l-14 -71l-11 -21l203 133q80 0 113 -34.5t16 -112.5l-65 -348l104 63l19 -20l-179 -121l-122 43z" />
    <glyph glyph-name="zeroinferior" unicode="&#x2080;" horiz-adv-x="776" 
d="M485 188q0 102 -33.5 169t-86.5 85q-90 -47 -143.5 -162.5t-53.5 -253.5q0 -249 119 -296q88 49 143 164.5t55 293.5zM604.5 418q69.5 -84 69.5 -235t-84 -285.5t-262 -194.5l-92 -31q-119 0 -189 85.5t-70 235.5t85.5 286.5t261.5 191.5l92 31q119 0 188.5 -84z" />
    <glyph glyph-name="oneinferior" unicode="&#x2081;" horiz-adv-x="620" 
d="M299 -252l168 -16l-8 -41l-254 2l-264 -2l2 41l178 16l121 614l10 17l-35 -17l-156 -40l-10 40l328 125h63z" />
    <glyph glyph-name="twoinferior" unicode="&#x2082;" horiz-adv-x="708" 
d="M414 307q0 57 -26 95t-73 44l-55 -16l-76 -158h-110l14 142l285 88q119 0 174 -49.5t55 -117.5q0 -120 -82.5 -202.5t-232.5 -181.5l-230 -144l107 23h385v-39l-62 -98h-565l-12 37l256 213q109 92 178.5 178t69.5 186z" />
    <glyph glyph-name="threeinferior" unicode="&#x2083;" horiz-adv-x="624" 
d="M518 377q0 -81 -72 -133.5t-172 -73.5q111 -10 159 -54t48 -100t-28.5 -97.5t-72.5 -70t-96.5 -49t-99.5 -39.5l-180 -73h-104l26 141h285q80 55 80 139q0 47 -41 82t-129 37l-10 29l75 39q150 72 150 196q0 39 -20.5 63.5t-51.5 28.5l-57 -14l-74 -152h-117l15 140
l293 86q104 0 149 -39t45 -86z" />
    <glyph glyph-name="fourinferior" unicode="&#x2084;" horiz-adv-x="698" 
d="M444 10h150l-12 -78h-152l-45 -239h-166l47 239h-311l-25 54l461 506h197l-8 -43l-578 -457l47 18h230l24 119l156 96h28z" />
    <glyph glyph-name="fiveinferior" unicode="&#x2085;" horiz-adv-x="665" 
d="M330 -12q0 53 -27 90t-86 37t-131 -33l-43 -16l-20 12l129 405h446l-8 -30l-51 -109h-379l-78 -229l209 104q123 0 177 -47.5t54 -111.5q0 -111 -78.5 -175t-216.5 -123l-176 -75h-110l26 141h277q86 65 86 160z" />
    <glyph glyph-name="sixinferior" unicode="&#x2086;" horiz-adv-x="692" 
d="M272 -272q109 50 109 242q0 52 -21.5 93t-53.5 41t-87 -30l-35 -21q-10 -72 -10 -112q0 -174 98 -213zM571 0q0 -94 -65.5 -174t-179.5 -115l-107 -37q-104 0 -171.5 72t-67.5 182q0 208 169 367.5t431 210.5l12 -31q-266 -86 -328.5 -208t-73.5 -175l201 121
q86 -4 133 -61.5t47 -151.5z" />
    <glyph glyph-name="seveninferior" unicode="&#x2087;" horiz-adv-x="616" 
d="M8 481h545l25 -30l-494 -760h-123l2 47l483 606l-26 -14h-438z" />
    <glyph glyph-name="eightinferior" unicode="&#x2088;" horiz-adv-x="706" 
d="M139 -106q0 -66 37 -113t80 -60q98 46 98 146q0 53 -34.5 96t-92.5 90q-88 -67 -88 -159zM17.5 -15q62.5 52 170.5 95q-59 47 -96 89.5t-36 110.5t64.5 119.5t153.5 75.5l105 31q102 0 166.5 -40t64.5 -94q0 -88 -60 -137t-167 -88q76 -59 120 -104t44 -106
q0 -92 -73 -146.5t-181 -87.5l-92 -31q-104 0 -175 49.5t-71 130.5t62.5 133zM434 332q0 49 -26.5 85t-81.5 44q-82 -33 -82 -127q0 -41 26.5 -77t79.5 -79q84 58 84 154z" />
    <glyph glyph-name="nineinferior" unicode="&#x2089;" horiz-adv-x="688" 
d="M-23 180q0 94 66 172t182 115l111 33q102 0 167.5 -70t65.5 -182q0 -208 -168.5 -368t-431.5 -210l-10 31q271 87 332 208.5t71 176.5l-198 -123q-86 4 -136.5 63.5t-50.5 153.5zM377 252q0 69 -25.5 123.5t-72.5 70.5q-111 -54 -111 -217q0 -72 22.5 -113.5t56.5 -41.5
t85 28l37 23q8 58 8 127z" />
    <glyph glyph-name="parenleftinferior" unicode="&#x208d;" horiz-adv-x="518" 
d="M207 -78q0 -207 88 -356l-27 -23q-92 111 -134 203t-42 198q0 208 85 354t300 329l27 -21q-297 -284 -297 -684z" />
    <glyph glyph-name="parenrightinferior" unicode="&#x208e;" horiz-adv-x="518" 
d="M186 248q0 212 -90 358l29 21q92 -111 134 -202t42 -199q0 -207 -87 -356.5t-298 -326.5l-27 23q297 280 297 682z" />
    <glyph glyph-name="Euro" unicode="&#x20ac;" horiz-adv-x="1308" 
d="M1192 188q-177 -113 -444 -225q-238 0 -400 158t-174 420q0 12 2 18h-147l14 78h131q7 79 29 168h-129l14 78h139q70 174 224.5 311t402.5 217l188 59q105 -17 192 -66.5t112 -68.5l-113 -159q-44 38 -155.5 100.5t-196.5 83.5q-162 -66 -264.5 -193t-145.5 -284h625
l-54 -78h-587q-14 -102 -11 -168h492l-55 -78h-430q20 -195 120.5 -313.5t251.5 -149.5q118 16 340 135z" />
    <glyph glyph-name="afii61289" unicode="&#x2113;" horiz-adv-x="989" 
d="M750 1196q0 145 -74 145q-13 0 -32 -8t-29.5 -12t-12.5 -6l-115 -658q125 76 194 217.5t69 321.5zM983 1214q0 -307 -206 -452.5t-308 -196.5l-80 -465l363 131l24 -43l-450 -221l-170 47l77 457q-35 -16 -90 -36.5t-92 -37.5l17 84q16 6 39.5 15.5t49 19.5t50 20.5
t43.5 18.5l123 702l379 218q118 0 174.5 -77.5t56.5 -183.5z" />
    <glyph glyph-name="afii61352" unicode="&#x2116;" horiz-adv-x="2000" 
d="M1141 121h727l-15 -90h-727zM1421 538q0 -86 40 -153.5t112 -73.5q87 26 134.5 128t47.5 223t-40.5 185t-112.5 68q-88 -26 -134.5 -125t-46.5 -252zM985 0h-170l-360 1165l-11 105l-223 -1270h-241l2 51l178 43l223 1258l-166 26l14 56l199 -2l191 2l327 -1037l8 -104
l203 1141h242l-4 -50l-178 -47zM1210 534q0 148 84 256.5t242 159.5l127 45q139 0 220 -75.5t81 -223.5t-85 -258t-245 -162l-123 -43q-137 0 -219 76.5t-82 224.5z" />
    <glyph glyph-name="trademark" unicode="&#x2122;" horiz-adv-x="2021" 
d="M985 686l84 12v684l-84 13l2 41l129 -2l180 2l242 -570l-2 -55l246 625l137 -2l156 2l4 -41l-86 -13v-684l84 -12l-2 -41l-177 2l-176 -2l-4 41l80 12v592l8 70l-280 -717h-109l-270 655l-17 70v-670l87 -12l-3 -41l-114 2l-113 -2zM215 1194v242l367 -2l356 2v-242h-43
l-84 190l-133 2v-688l117 -12l-4 -41l-213 2l-218 -2l-2 41l121 12v688l-135 -2l-86 -190h-43z" />
    <glyph glyph-name="uni2126" unicode="&#x2126;" horiz-adv-x="1462" 
d="M752 1464q280 0 459.5 -165.5t179.5 -413.5t-101.5 -354.5t-191.5 -154.5t-201 -91v-133l379 32l59 164h56v-348h-582v340q109 10 200 129t91 362t-113.5 394t-288.5 151q-144 0 -238.5 -138.5t-94.5 -357.5q0 -220 89.5 -376t198.5 -164v-340h-579v348h53l55 -164
l381 -32v124q-202 31 -346.5 175.5t-144.5 382.5t158.5 395t521.5 235z" />
    <glyph glyph-name="estimated" unicode="&#x212e;" horiz-adv-x="1765" 
d="M978 1368q-181 0 -307 -93t-202 -243l-41 -239h930l28 161q-14 193 -120.5 303.5t-287.5 110.5zM789 66q177 0 309.5 106.5t197.5 278.5h254q-100 -213 -280.5 -312t-501.5 -170q-302 0 -471.5 171.5t-161.5 447.5q12 375 221 578t674 298q315 0 482.5 -189.5
t125.5 -492.5l-20 -102h-1210l-27 -178q14 -205 122.5 -320.5t285.5 -115.5z" />
    <glyph glyph-name="arrowleft" unicode="&#x2190;" horiz-adv-x="1249" 
d="M1147 659v-110h-862l41 -19l329 -311v-149l-553 534l553 537v-152l-329 -309l-41 -21h862z" />
    <glyph glyph-name="arrowup" unicode="&#x2191;" horiz-adv-x="1277" 
d="M694 82h-110v864l-21 -41l-309 -332h-152l537 553l537 -553h-152l-311 332l-19 41v-864z" />
    <glyph glyph-name="arrowright" unicode="&#x2192;" horiz-adv-x="1249" 
d="M102 659h865l-41 21l-332 309v152l553 -537l-553 -534v149l332 311l41 19h-865v110z" />
    <glyph glyph-name="arrowdown" unicode="&#x2193;" horiz-adv-x="1277" 
d="M694 1126v-862l19 41l311 330h152l-537 -553l-537 553h152l309 -330l21 -41v862h110z" />
    <glyph glyph-name="uni2196" unicode="&#x2196;" horiz-adv-x="983" 
d="M102 973h772l-106 -105l-455 4l-45 13l613 -611l-78 -77l-613 610l15 -43l2 -457l-105 -104v770z" />
    <glyph glyph-name="uni2197" unicode="&#x2197;" horiz-adv-x="983" 
d="M881 973v-770l-105 104l2 457l15 43l-613 -610l-78 77l613 611l-45 -13l-453 -4l-108 105h772z" />
    <glyph glyph-name="uni2198" unicode="&#x2198;" horiz-adv-x="983" 
d="M881 182h-772l108 105l453 -4l45 -13l-613 611l78 77l613 -612l-15 43l-2 457l105 106v-770z" />
    <glyph glyph-name="uni2199" unicode="&#x2199;" horiz-adv-x="983" 
d="M102 182v770l105 -106l-2 -457l-15 -43l613 612l78 -77l-613 -611l45 13l455 4l106 -105h-772z" />
    <glyph glyph-name="partialdiff" unicode="&#x2202;" 
d="M420 413q0 -178 56 -266t147 -94q160 35 191.5 245t31.5 265v30l-2 159l-23 12q-103 61 -221 72q-87 -23 -133.5 -134t-46.5 -289zM277.5 130q-117.5 126 -117.5 317t98.5 332t282.5 175l229 -75q31 -8 74 -25q-27 272 -186.5 394t-266.5 163l21 59q375 -106 536.5 -346
t161.5 -503t-114.5 -424.5t-333.5 -204.5l-58 -23q-209 35 -326.5 161z" />
    <glyph glyph-name="uni2206" unicode="&#x2206;" horiz-adv-x="1409" 
d="M1069 78l-436 1030l-6 55l-488 -1085h930zM41 0v72l629 1355l92 33l606 -1386v-74h-1327z" />
    <glyph glyph-name="product" unicode="&#x220f;" horiz-adv-x="1564" 
d="M1067 1358h-575v-1610l149 -20l-6 -56l-273 2l-284 -2l-6 56l159 20v1612l-159 18l6 56l272 -2h848l289 2l6 -56l-164 -18v-1612l156 -20l-6 -56l-279 2l-278 -2l-7 56l152 20v1610z" />
    <glyph glyph-name="summation" unicode="&#x2211;" 
d="M1135 1434v-359h-54l-129 285l-518 6l471 -709v-43l-592 -743l693 14l104 187h59l-36 -400h-1000l-33 54l605 768l-578 878l33 62h975z" />
    <glyph glyph-name="minus" unicode="&#x2212;" 
d="M96 618h1075v-98h-1075v98z" />
    <glyph glyph-name="radical" unicode="&#x221a;" 
d="M-53 889l-117 18l6 49h359l264 -723l8 -73l557 1644h416l-27 -86h-321l-590 -1687l-195 -66z" />
    <glyph glyph-name="infinity" unicode="&#x221e;" horiz-adv-x="1636" 
d="M1244 471q83 0 141.5 42t58.5 120q0 164 -219 164q-126 0 -232 -92l-65 -58l4 -8q113 -106 194.5 -137t117.5 -31zM399 756q-86 0 -144 -39t-58 -117t56 -128t175 -50t225 90l68 61h-2q-183 183 -320 183zM102 592q0 244 326 371q163 0 206 -39l228 -209l84 90
q59 66 135 112t151 46q142 0 222 -92.5t80 -228.5t-72 -219.5t-254 -158.5q-157 0 -265.5 94.5t-145.5 130.5l-15 19l-88 -98q-57 -59 -133.5 -102.5t-149.5 -43.5q-140 0 -224.5 93t-84.5 235z" />
    <glyph glyph-name="integral" unicode="&#x222b;" 
d="M596 1018q16 92 66.5 168t121.5 121l246 153h170l-31 -174h-256q-54 -54 -82 -188l-194 -1110q-31 -174 -201 -291l-250 -170h-127l37 192h228q61 68 79 195z" />
    <glyph glyph-name="approxequal" unicode="&#x2248;" 
d="M1163 430h56l-82 -178l-195 -53l-741 125l-97 -134h-55l82 175l201 57l737 -125zM1165 805h56l-82 -178l-195 -52l-743 125l-95 -133h-55l80 174l201 58l739 -125z" />
    <glyph glyph-name="notequal" unicode="&#x2260;" 
d="M104 256v98h373l250 297h-623v99h707l197 233h110l-194 -233h239v-99h-323l-248 -297h571v-98h-655l-211 -256h-117l215 256h-291z" />
    <glyph glyph-name="lessequal" unicode="&#x2264;" 
d="M1167 1260v-115l-927 -410l927 -407v-115l-1065 481v80zM104 100h1061v-100h-1061v100z" />
    <glyph glyph-name="greaterequal" unicode="&#x2265;" 
d="M1167 774v-80l-1065 -481v115l928 407l-928 410v115zM1165 0h-1061v100h1061v-100z" />
    <glyph glyph-name="lozenge" unicode="&#x25ca;" 
d="M604 1432l84 34l486 -712l-502 -754l-88 -37l-488 713zM686 201l8 -35l301 457l-409 614l-6 37l-301 -459z" />
    <glyph glyph-name="commaaccent" unicode="&#xf6c3;" horiz-adv-x="913" 
d="M420 -264l-55 71l14 87h227l-26 -158l-222 -236l-53 13z" />
    <glyph glyph-name="asuperior" unicode="&#xf6e9;" horiz-adv-x="659" 
d="M145 1006q0 104 68 183t180 130l125 57q98 0 199 -45l-88 -452l106 67l21 -22l-181 -121l-122 43l18 86l14 31l-202 -160q-138 50 -138 203zM420 1296q-96 -84 -96 -198q0 -115 57 -170l102 69l54 271q-50 28 -117 28z" />
    <glyph glyph-name="bsuperior" unicode="&#xf6ea;" horiz-adv-x="659" 
d="M543 1102q0 116 -64 158l-94 -46l-55 -294q51 -41 119 -41q94 69 94 223zM725 1166q0 -90 -60.5 -174.5t-166.5 -129.5l-138 -59q-119 0 -215 59l136 686l-111 -22l-10 26l254 74l45 -35l-62 -319l-16 -31l201 135q143 -34 143 -210z" />
    <glyph glyph-name="dsuperior" unicode="&#xf6eb;" horiz-adv-x="688" 
d="M326 1087q0 -94 65 -155l96 65l56 279q-63 27 -127 27q-90 -78 -90 -216zM145 1016q0 198 230 299l129 61q7 0 55 -8l35 182l-107 -24l-12 26l256 74l43 -35l-139 -712l106 67l21 -22l-178 -121l-123 45l16 88l15 29l-197 -162q-150 58 -150 213z" />
    <glyph glyph-name="esuperior" unicode="&#xf6ec;" horiz-adv-x="587" 
d="M322 1102q0 -2 7 -1t7 -1l127 53q10 41 4 73q-11 61 -57 56q-88 -59 -88 -180zM621.5 1331q33.5 -35 33.5 -83t-20 -97l-309 -82v-2q22 -114 129 -160q31 12 43 18l116 58l17 -27q-99 -59 -185 -98l-104 -55q-81 13 -139 71t-58 151t58.5 174t179.5 122l154 55
q51 -10 84.5 -45z" />
    <glyph glyph-name="isuperior" unicode="&#xf6ed;" horiz-adv-x="399" 
d="M147 1264l-12 26l240 84l49 -41l-88 -450l106 63l19 -22l-180 -121l-121 45l84 444zM319 1602l52 10l94 -10v-78l-27 -64l-49 -10l-102 10l4 72z" />
    <glyph glyph-name="lsuperior" unicode="&#xf6ee;" horiz-adv-x="401" 
d="M199 1526l-11 26l254 74l43 -35l-137 -710l107 65l18 -22l-180 -121l-121 45l133 700z" />
    <glyph glyph-name="msuperior" unicode="&#xf6ef;" horiz-adv-x="1019" 
d="M518 1257q-27 0 -69 -28l-48 -27l-73 -383h-172l92 471l-98 -26l-11 26l240 84l49 -39l-16 -73l-11 -23l199 137q74 0 106.5 -30.5t24.5 -98.5v-6l191 135q78 0 109.5 -34.5t17.5 -112.5l-70 -352l108 67l19 -20l-180 -121l-123 43l67 354q9 55 -29 55q-26 0 -71 -28
l-47 -27l-74 -381h-172l74 385q10 53 -33 53z" />
    <glyph glyph-name="osuperior" unicode="&#xf6f0;" horiz-adv-x="657" 
d="M324 1059q0 -82 33.5 -131t84.5 -64q53 33 78 103.5t25 152.5t-32 130.5t-85 60.5q-53 -31 -78.5 -100.5t-25.5 -151.5zM725 1158q0 -216 -242 -316l-96 -39q-100 0 -171 55t-71 164q0 207 244 313l94 41q100 0 171 -56t71 -162z" />
    <glyph glyph-name="rsuperior" unicode="&#xf6f1;" horiz-adv-x="520" 
d="M389 1180l-22 -72l176 258h106l-37 -168h-110q-18 -9 -57 -49.5t-48 -48.5l-24 -25l-47 -256h-172l90 471l-97 -26l-12 26l242 84l41 -35z" />
    <glyph glyph-name="ssuperior" unicode="&#xf6f2;" horiz-adv-x="481" 
d="M528 1014q0 -63 -34.5 -98t-90.5 -56l-151 -57q-85 19 -114 31t-40 16l64 121q101 -54 209 -99q33 8 33 38t-50 69l-123 84q-68 45 -67 115q0 90 135 145l115 53q72 -8 161 -45l-69 -117q-90 56 -191 93q-27 -10 -26 -39t49 -60l121 -82q69 -49 69 -112z" />
    <glyph glyph-name="tsuperior" unicode="&#xf6f3;" horiz-adv-x="425" 
d="M492 944l14 -22l-225 -119l-121 43l86 448h-96l6 25l30 24h70l10 50l152 118h39l-31 -170h129l-10 -47h-129l-80 -413z" />
    <glyph glyph-name="apple" unicode="&#xf8ff;" horiz-adv-x="1402" 
d="M1145 791h10l10 14v14l-20 -8v-20zM1006 1085l-17 -8v-18l17 -6l4 14zM848 1315l-17 -19v-39l25 -12l6 35zM438 1020l121 24l-8 25zM719 1065l-8 -25l100 -34l6 8zM956 735v-26l91 8l8 18h-99zM647 512h139v12l-139 8v-20zM807 639h-150v-21h150v21zM422 416l-152 102
l41 -47l103 -84zM807 575l-148 15l-12 -27l160 -8v20zM500 930l2 8l28 4l-26 12l4 15l-41 -2l6 -39l29 -31l24 -12l23 10l33 25l12 24l4 27l-45 -8l12 -21l-24 -27l-29 -2zM1206 639l-12 -6l-68 -55l80 -99v160zM750 932l-15 -23h-24l-11 15l23 16l-31 4v12l-47 9l6 -35
l17 -29l41 -18l26 -2l37 20l12 19l11 41l-62 4l15 -11zM887 688l8 62l-111 10l-6 -72h109zM877 1198l10 -12l39 22l16 -4l12 -49h27l12 12l-18 37l35 58l-31 18v10l-51 15v-41l-27 -11v-18l-18 -12zM1090 627l16 -13l16 4l41 31l27 27l22 37l-14 10h-29l-20 6l-29 14l-35 -6
q-4 -27 -7 -46t-5 -52zM778 438l-131 8v-104l131 -12v108zM422 678l-135 80v-15l-4 -26l2 -55v-99l131 -90l-2 123zM1047 678l-111 2l-2 -49v-13l-4 -63l39 -6l-17 -125l-98 6l-16 -12l104 -10l-4 -19h-100l-9 -10l109 -14l-12 -72l55 -2l25 162l8 73l-31 6l-2 17l41 2l10 6
l-57 33l4 10l61 -12l-61 30l10 11l43 -11l8 21zM195 831h-43l38 -28l3 -23l-41 15l36 -37l-8 -15l6 -198l23 -25v369l117 -66l14 21l-139 78v36l121 -69l88 -58l57 -28l6 20l-211 131l-26 15l-84 67l4 -159l39 -35v-11zM1262 952l-17 76l-39 102l-41 74l-47 58l-69 43h-23
l35 -39l51 -21l23 -22l6 -68l-51 27l-31 -60l24 -16v-39l31 6l-24 53l30 -10l21 -41l-11 -24l-16 -15h-47l-6 23l-25 4l2 -45h-28l28 -37l-14 -20l-43 10l-6 -56l84 13l16 35l45 -5l13 -57l-33 -27v-30l16 -13l37 25h47l12 23l-36 12l-11 18l19 86h14l29 -41zM733 1130h17
l20 46l23 16l-11 12l-6 17l2 43l-61 -21l-21 -16l-16 10l8 43l29 20l22 23l78 -4l25 27l-8 16h-101l-92 -27l-109 -53l-59 -47l-51 -70l59 25l27 -31l-35 -41l-20 -6l34 -6h11l73 49h66l37 -25l16 7l8 28l15 11l20 -9v-37zM1075 817l-8 14h-420l-135 -6l-14 -18l-13 -90
l-98 41l-22 -8l116 -56l2 -92l-10 -149v-187l37 8l4 82l84 -6l6 19l-90 12v33l98 -13l2 19l-96 14l2 45l88 -6l6 12l-92 19l6 192h152l22 21h-161l4 18h151l17 15h-168l4 45l239 8l287 -8v22zM1300 942l-6 -84l-16 -72l-25 -63l-6 -320l-43 -14l-102 143l-55 -14l-39 -287
l-66 9l-14 -9l-8 -192l61 -39l33 -29l-6 -30l-62 2l-49 37h-29l-16 16l14 156l-8 96l-125 2l-6 -107l-4 -114v-41l-31 -13l-16 13l-62 -21h-65l-2 23l22 22l103 43l-13 197l-200 -12l-301 286l-8 236l-27 20l-21 74v53l31 17l-6 159l188 -127l19 97l20 73l45 72l58 72l80 59
l159 60h45l-139 45l8 34h15l161 -40l-8 104l33 25h66l38 -11l60 -51l65 -16l66 -21l31 -26v-41l-41 -64l61 -57l57 -66l37 -69l31 -84z" />
    <glyph glyph-name="AE.sc" horiz-adv-x="1533" 
d="M774 2l-219 -4l2 57l121 17l72 407h-275l-293 -407l129 -17l-12 -57l-174 4l-152 -4l4 57l109 17l715 979l149 -2l609 2l-23 -283h-51l-78 215l-338 2l-80 -442l172 2l113 176h41l-51 -209l-23 -215h-39l-51 176l-172 2l-72 -407l369 2l147 223h52l-66 -295zM514 539h246
l80 456z" />
    <glyph glyph-name="AEacute.002" horiz-adv-x="1822" 
d="M-49 55l145 19l871 1362l161 -4l740 4l-31 -369h-53l-92 295l-439 2l-98 -637l223 4l138 246h43l-60 -281l-31 -284h-43l-59 241l-223 4l-86 -587l467 4l178 321h57l-80 -397l-766 4l-266 -4v57l160 21l88 581h-330l-364 -581l166 -21l-15 -57l-211 4l-194 -4zM606 727
h301l99 637zM1120 1530l160 211h233l-303 -211h-90z" />
    <glyph glyph-name="AEacute.sc" horiz-adv-x="1533" 
d="M774 2l-219 -4l2 57l121 17l72 407h-275l-293 -407l129 -17l-12 -57l-172 4l-154 -4l4 57l109 17l715 979l149 -2l609 2l-23 -283h-51l-78 215l-338 2l-80 -442l172 2l113 176h41l-49 -209l-25 -215h-39l-51 176l-172 2l-72 -407l369 2l147 223h52l-66 -295zM514 539h246
l80 456zM993 1151l101 209h209l-238 -209h-72z" />
    <glyph glyph-name="Aacute.002" horiz-adv-x="1392" 
d="M352 -2l-205 4l-198 -4l4 57l145 19l756 1333l205 59l135 -1392l141 -19l-12 -57l-297 4l-272 -4l2 57l168 21l-35 411h-463l-227 -411l166 -21zM463 559h420l-47 610l2 72zM1049 1741h231l-303 -211h-90z" />
    <glyph glyph-name="Aacute.sc" horiz-adv-x="1183" 
d="M393 412h336l-35 434l2 53zM862 2l-239 -4l6 57l131 17l-25 274h-379l-180 -274l131 -17l-10 -57l-164 4l-160 -4l4 57l109 17l612 942l203 61l111 -1003l106 -17l-10 -57zM760 1149l98 209h211l-238 -209h-71z" />
    <glyph glyph-name="Abreve.002" horiz-adv-x="1392" 
d="M352 -2l-205 4l-198 -4l4 57l145 19l756 1333l205 59l135 -1392l141 -19l-12 -57l-297 4l-272 -4l2 57l168 21l-35 411h-463l-227 -411l166 -21zM463 559h420l-47 610l2 72zM725 1755q89 -119 240 -119t268 117l37 -18q-55 -74 -118 -126t-189 -98q-203 0 -283 224z" />
    <glyph glyph-name="Abreve.sc" horiz-adv-x="1183" 
d="M393 412h336l-35 434l2 53zM862 2l-239 -4l6 57l131 17l-25 274h-379l-180 -274l131 -17l-10 -57l-164 4l-160 -4l4 57l109 17l612 942l203 61l111 -1003l106 -17l-10 -57zM823 1272q118 0 226 86l30 -31q-37 -59 -91 -102t-165 -82q-102 0 -159.5 55t-77.5 125l41 33
q23 -23 68.5 -53.5t127.5 -30.5z" />
    <glyph glyph-name="Acircumflex.002" horiz-adv-x="1392" 
d="M352 -2l-205 4l-198 -4l4 57l145 19l756 1333l205 59l135 -1392l141 -19l-12 -57l-297 4l-272 -4l2 57l168 21l-35 411h-463l-227 -411l166 -21zM463 559h420l-47 610l2 72zM684 1530l279 221h133l186 -221h-94l-174 112h-6l-232 -112h-92z" />
    <glyph glyph-name="Acircumflex.sc" horiz-adv-x="1183" 
d="M393 412h336l-35 434l2 53zM862 2l-239 -4l6 57l131 17l-25 274h-379l-180 -274l131 -17l-10 -57l-164 4l-160 -4l4 57l109 17l612 942l203 61l111 -1003l106 -17l-10 -57zM573 1153l234 211h125l141 -211h-78l-145 104h-6l-193 -104h-78z" />
    <glyph glyph-name="Adieresis.002" horiz-adv-x="1392" 
d="M352 -2l-205 4l-198 -4l4 57l145 19l756 1333l205 59l135 -1392l141 -19l-12 -57l-297 4l-272 -4l2 57l168 21l-35 411h-463l-227 -411l166 -21zM463 559h420l-47 610l2 72zM1239 1749l90 -12l-2 -95l-39 -86l-88 -10l-92 10l4 103l41 78zM821 1749l90 -12l-2 -95
l-39 -86l-86 -10l-94 10l6 103l39 78z" />
    <glyph glyph-name="Adieresis.sc" horiz-adv-x="1189" 
d="M393 412h336l-35 434l2 53zM862 2l-239 -4l6 57l131 17l-25 274h-379l-180 -274l131 -17l-10 -57l-164 4l-160 -4l4 57l109 17l612 942l203 61l111 -1003l106 -17l-10 -57zM1055 1337l67 -10l-4 -90l-33 -78l-86 -12l-71 12l4 92l35 76zM698 1337l70 -10l-4 -90l-33 -78
l-86 -12l-72 12l5 92l32 76z" />
    <glyph glyph-name="Agrave.002" horiz-adv-x="1392" 
d="M352 -2l-205 4l-198 -4l4 57l145 19l756 1333l205 59l135 -1392l141 -19l-12 -57l-297 4l-272 -4l2 57l168 21l-35 411h-463l-227 -411l166 -21zM463 559h420l-47 610l2 72zM940 1530l-188 211h211l55 -211h-78z" />
    <glyph glyph-name="Agrave.sc" horiz-adv-x="1183" 
d="M791 1151l-179 209h201l41 -209h-63zM729 412l-35 434l2 53l-303 -487h336zM297 -2l-164 4l-160 -4l4 57l109 17l612 942l203 61l111 -1003l106 -17l-10 -57l-246 4l-239 -4l6 57l131 17l-25 274h-379l-180 -274l131 -17z" />
    <glyph glyph-name="Amacron.002" horiz-adv-x="1392" 
d="M352 -2l-205 4l-198 -4l4 57l145 19l756 1333l205 59l135 -1392l141 -19l-12 -57l-297 4l-272 -4l2 57l168 21l-35 411h-463l-227 -411l166 -21zM463 559h420l-47 610l2 72zM713 1677h587l-16 -98h-588z" />
    <glyph glyph-name="Amacron.sc" horiz-adv-x="1183" 
d="M393 412h336l-35 434l2 53zM862 2l-239 -4l6 57l131 17l-25 274h-379l-180 -274l131 -17l-10 -57l-164 4l-160 -4l4 57l109 17l612 942l203 61l111 -1003l106 -17l-10 -57zM608 1294h486l-19 -106h-485z" />
    <glyph glyph-name="Aogonek.001" horiz-adv-x="1388" 
d="M887 559l-45 610l4 72l-379 -682h420zM1004 -371q-201 0 -280 46t-58 143l10 45l250 176l-33 448h-463l-231 -411l166 -21l-13 -57l-202 4l-201 -4l4 57l145 19l764 1333l201 59l127 -1392l141 -19l-12 -57l-367 4l-121 -152l-8 -34q-31 -138 189 -138z" />
    <glyph glyph-name="Aogonek.sc" horiz-adv-x="1179" 
d="M731 412l-33 434l4 53l-307 -487h336zM823 -373q-176 0 -241.5 38t-51.5 114l19 102l213 160l-25 305h-379l-182 -274l131 -17l-10 -57l-164 4l-160 -4l4 57l109 17l619 942l198 61l107 -1003l106 -17l-10 -57l-313 4l-109 -158l-12 -59q-15 -75 46.5 -95t112.5 -20z" />
    <glyph glyph-name="Aring.002" horiz-adv-x="1392" 
d="M352 -2l-205 4l-198 -4l4 57l145 19l756 1333l205 59l135 -1392l141 -19l-12 -57l-297 4l-272 -4l2 57l168 21l-35 411h-463l-227 -411l166 -21zM463 559h420l-47 610l2 72zM795 1607q0 66 38 90.5t125 53.5q113 0 139.5 -50t26.5 -87q0 -65 -43.5 -95t-122.5 -49
q-110 0 -136.5 50.5t-26.5 86.5zM866 1609q0 -40 26 -64.5t66.5 -24.5t67.5 24.5t27 64.5t-27 66.5t-67.5 26.5t-66.5 -26.5t-26 -66.5z" />
    <glyph glyph-name="Aring.sc" horiz-adv-x="1183" 
d="M393 412h336l-35 434l2 53zM862 2l-239 -4l6 57l131 17l-25 274h-379l-180 -274l131 -17l-10 -57l-164 4l-160 -4l4 57l109 17l612 942l203 61l111 -1003l106 -17l-10 -57zM715 1275q0 -44 31.5 -72.5t78.5 -28.5t81 28.5t34 72.5t-34 72.5t-81 28.5t-78.5 -28.5
t-31.5 -72.5zM972.5 1173.5q-41.5 -28.5 -143.5 -61.5q-129 0 -159.5 57.5t-30.5 100.5q0 73 50 110t136 60q85 0 137 -40t52 -119t-41.5 -107.5z" />
    <glyph glyph-name="Aringacute.002" horiz-adv-x="1392" 
d="M352 -2l-205 4l-198 -4l4 57l145 19l756 1333l205 59l135 -1392l141 -19l-12 -57l-297 4l-272 -4l2 57l168 21l-35 411h-463l-227 -411l166 -21zM463 559h420l-47 610l2 72zM864 1608q0 -39 27 -63.5t67.5 -24.5t67.5 24.5t27 63.5t-27 66.5t-67.5 27.5t-67.5 -27.5
t-27 -66.5zM838 1701.5q45 28.5 125 49.5q45 0 81 -18l19 24l158 2l-121 -73q24 -31 24 -71q-1 -68 -44 -98t-122 -49q-107 0 -136 51.5t-29 102.5t45 79.5z" />
    <glyph glyph-name="Aringacute.sc" horiz-adv-x="1183" 
d="M393 412h336l-35 434l2 53zM862 2l-239 -4l6 57l131 17l-25 274h-379l-180 -274l131 -17l-10 -57l-164 4l-160 -4l4 57l109 17l612 942l203 61l111 -1003l106 -17l-10 -57zM715 1275q0 -44 31.5 -72.5t78.5 -28.5t81 28.5t34 72.5t-34 72.5t-81 28.5t-78.5 -28.5
t-31.5 -72.5zM920 1423q92 -36 92 -142t-73 -131.5t-110 -37.5q-131 0 -161.5 57.5t-30.5 100.5q0 71 49 108.5t139 61.5l41 65l181 4z" />
    <glyph glyph-name="Atilde.002" horiz-adv-x="1396" 
d="M352 -2l-205 4l-198 -4l4 57l145 19l756 1333l205 59l135 -1392l141 -19l-12 -57l-297 4l-272 -4l2 57l168 21l-35 411h-463l-227 -411l166 -21zM463 559h420l-47 610l2 72zM772 1712l127 37l326 -127l100 125h37l-109 -197l-127 -28l-327 127l-97 -127h-36z" />
    <glyph glyph-name="Atilde.sc" horiz-adv-x="1200" 
d="M393 412h336l-35 434l2 53zM862 2l-239 -4l6 57l131 17l-25 274h-379l-180 -274l131 -17l-10 -57l-164 4l-160 -4l4 57l109 17l612 942l203 61l111 -1003l106 -17l-10 -57zM637 1335l102 27l285 -90l84 90h35l-90 -199l-101 -20l-284 94l-82 -92h-37z" />
    <glyph glyph-name="B.sc" horiz-adv-x="1052" 
d="M535 584q97 0 173 68.5t76 157.5q0 179 -168 179h-79l-72 -405h70zM293 1049h285q59 0 133 1q144 2 228.5 -58t84.5 -150t-69.5 -157t-204.5 -97l-95 -21q178 -12 268.5 -76.5t90.5 -156.5q0 -160 -133 -213t-195 -72l-147 -51l-293 4l-228 -4v57l125 17l160 909l-115 16
l9 54q51 -2 96 -2zM756 330q0 76 -51.5 135t-155.5 59h-94l-76 -444h219q158 79 158 250z" />
    <glyph glyph-name="C.sc" horiz-adv-x="1103" 
d="M362 500q0 -262 126 -338t194 -90q121 41 180 90l127 215h70l-64 -297l-401 -107q-221 0 -354.5 125.5t-133.5 320.5q0 196 122.5 358.5t375.5 240.5l180 61q158 0 308 -75l-17 -302h-63l-62 195q-107 72 -274 86q-154 -55 -234 -183t-80 -300z" />
    <glyph glyph-name="Cacute.002" horiz-adv-x="1282" 
d="M381 664q0 -387 157.5 -485.5t245.5 -115.5q139 53 228 123l153 281h78l-76 -361l-477 -143q-267 0 -427.5 170.5t-160.5 442.5t147.5 499.5t450.5 331.5l203 66q216 0 387 -119l-16 -355h-74l-74 250q-119 96 -346 125q-197 -84 -298 -271.5t-101 -438.5zM811 1530
l162 211h233l-303 -211h-92z" />
    <glyph glyph-name="Cacute.sc" horiz-adv-x="1103" 
d="M362 500q0 -262 126 -338t194 -90q121 41 180 90l127 215h70l-64 -297l-401 -107q-221 0 -354.5 125.5t-133.5 320.5q0 196 122.5 358.5t375.5 240.5l180 61q158 0 308 -75l-17 -302h-63l-62 195q-107 72 -274 86q-154 -55 -234 -183t-80 -300zM711 1151l98 209h209
l-236 -209h-71z" />
    <glyph glyph-name="Ccaron.002" horiz-adv-x="1282" 
d="M381 664q0 -387 157.5 -485.5t245.5 -115.5q139 53 228 123l153 281h78l-76 -361l-477 -143q-267 0 -427.5 170.5t-160.5 442.5t147.5 499.5t450.5 331.5l203 66q216 0 387 -119l-16 -355h-74l-74 250q-119 96 -346 125q-197 -84 -298 -271.5t-101 -438.5zM1251 1747
l-278 -221h-135l-185 221h95l174 -115h4l231 115h94z" />
    <glyph glyph-name="Ccaron.sc" horiz-adv-x="1103" 
d="M362 500q0 -262 126 -338t194 -90q121 41 180 90l127 215h70l-64 -297l-401 -107q-221 0 -354.5 125.5t-133.5 320.5q0 196 122.5 358.5t375.5 240.5l180 61q158 0 308 -75l-17 -302h-63l-62 195q-107 72 -274 86q-154 -55 -234 -183t-80 -300zM1051 1362l-236 -211h-121
l-143 211h78l145 -102h4l193 102h80z" />
    <glyph glyph-name="Ccedilla.001" horiz-adv-x="1282" 
d="M381 664q0 -387 157.5 -485.5t245.5 -115.5q139 53 228 123l153 281h78l-76 -361l-475 -141l-30 -37q63 -4 107 -29.5t44 -64.5t-17.5 -62.5t-45 -42t-60.5 -30.5t-63 -23l-135 -38h-93l66 81h170q45 27 45 70q0 67 -148 72l97 106q-243 20 -385 185t-142 430
q0 266 147.5 493.5t450.5 331.5l203 66q216 0 387 -119l-16 -355h-74l-74 250q-119 96 -346 125q-197 -84 -298 -271.5t-101 -438.5z" />
    <glyph glyph-name="Ccedilla.sc" horiz-adv-x="1103" 
d="M365 500q0 -261 124.5 -337.5t192.5 -90.5q118 39 180 90l127 215h70l-64 -297l-401 -107h-10l-31 -36q61 -6 97 -36t36 -69t-17.5 -64.5t-45 -44t-60.5 -32t-61 -25.5l-109 -39h-74l52 78h133q49 33 49 81q0 80 -104 85l83 104q-197 18 -310 139.5t-113 313.5
q0 302 181 425.5t314 164.5l180 61q158 0 308 -75l-17 -302h-63l-62 195q-107 72 -274 86q-154 -55 -232.5 -183t-78.5 -300z" />
    <glyph glyph-name="Ccircumflex.002" horiz-adv-x="1282" 
d="M381 664q0 -387 157.5 -485.5t245.5 -115.5q139 53 228 123l153 281h78l-76 -361l-477 -143q-267 0 -427.5 170.5t-160.5 442.5t147.5 499.5t450.5 331.5l203 66q216 0 387 -119l-16 -355h-74l-74 250q-119 96 -346 125q-197 -84 -298 -271.5t-101 -438.5zM625 1530
l278 221h133l187 -221h-95l-176 112h-4l-229 -112h-94z" />
    <glyph glyph-name="Ccircumflex.sc" horiz-adv-x="1103" 
d="M362 500q0 -262 126 -338t194 -90q121 41 180 90l127 215h70l-64 -297l-401 -107q-221 0 -354.5 125.5t-133.5 320.5q0 196 122.5 358.5t375.5 240.5l180 61q158 0 308 -75l-17 -302h-63l-62 195q-107 72 -274 86q-154 -55 -234 -183t-80 -300zM539 1153l233 211h123
l143 -211h-80l-143 104h-6l-193 -104h-77z" />
    <glyph glyph-name="Cdotaccent.002" horiz-adv-x="1282" 
d="M381 664q0 -387 157.5 -485.5t245.5 -115.5q139 53 228 123l153 281h78l-76 -361l-477 -143q-267 0 -427.5 170.5t-160.5 442.5t147.5 499.5t450.5 331.5l203 66q216 0 387 -119l-16 -355h-74l-74 250q-119 96 -346 125q-197 -84 -298 -271.5t-101 -438.5zM954 1749
l95 -12l-2 -99l-39 -86l-93 -12l-100 12l6 101l39 84z" />
    <glyph glyph-name="Cdotaccent.sc" horiz-adv-x="1103" 
d="M362 500q0 -262 126 -338t194 -90q121 41 180 90l127 215h70l-64 -297l-401 -107q-221 0 -354.5 125.5t-133.5 320.5q0 196 122.5 358.5t375.5 240.5l180 61q158 0 308 -75l-17 -302h-63l-62 195q-107 72 -274 86q-154 -55 -234 -183t-80 -300zM739 1346l84 8l88 -8
l-2 -103l-35 -86l-79 -8l-99 8l11 105z" />
    <glyph glyph-name="D.sc" horiz-adv-x="1173" 
d="M1161 629q0 -193 -118.5 -347.5t-362.5 -232.5l-156 -51l-272 4l-234 -4v57l123 17l160 909l-117 16l11 54l233 -2l264 2q208 0 338.5 -114.5t130.5 -307.5zM903 616q0 168 -78 269.5t-192 101.5h-96l-160 -905h215q216 117 263.5 282.5t47.5 251.5z" />
    <glyph glyph-name="Dcaron.002" horiz-adv-x="1378" 
d="M1090 837q0 243 -102.5 384t-254.5 145h-133l-199 -1274h289q274 156 337 387.5t63 357.5zM1220.5 371.5q-147.5 -215.5 -432.5 -310.5l-186 -63l-328 4l-286 -4v57l157 21l199 1288l-151 16l10 56l284 -4l314 4q258 0 412.5 -162t154.5 -424q0 -263 -147.5 -478.5z
M1120 1747l-276 -221h-135l-183 221h92l173 -115h6l231 115h92z" />
    <glyph glyph-name="Dcaron.sc" horiz-adv-x="1173" 
d="M879 616q0 168 -78 269.5t-193 101.5h-96l-160 -905h217q212 115 261 281.5t49 252.5zM1137 630q0 -194 -119 -348.5t-363 -232.5l-155 -51l-275 4l-231 -4v57l123 17l159 909l-116 16l10 54l236 -2l262 2q209 0 339 -113.5t130 -307.5zM573 1151l-141 211h76l145 -102h6
l193 102h78l-234 -211h-123z" />
    <glyph glyph-name="Dcroat.sc" horiz-adv-x="1173" 
d="M879 616q0 168 -78 269.5t-193 101.5h-96l-72 -409h174l-10 -58h-174l-78 -438h217q212 115 261 281.5t49 252.5zM1137 630q0 -194 -119 -348.5t-363 -232.5l-155 -51l-281 4l-225 -4v57l123 17l78 448h-129l12 58h127l71 403l-116 16l10 54l233 -2l265 2
q209 0 339 -113.5t130 -307.5z" />
    <glyph glyph-name="E.sc" horiz-adv-x="1032" 
d="M20 55l121 17l160 909l-117 14l11 56l225 -2l639 2l-25 -295h-53l-80 227l-364 2l-72 -401l188 4l111 176h47l-49 -213l-25 -211h-47l-49 176l-186 2l-80 -450l399 2l150 233h57l-70 -305l-673 4l-220 -4z" />
    <glyph glyph-name="Eacute.002" horiz-adv-x="1202" 
d="M-12 55l157 21l201 1284l-151 20l10 56l276 -4l766 4l-30 -373h-56l-94 299l-467 4l-90 -582l248 4l133 234h49l-57 -270l-31 -269h-49l-60 232l-243 4l-101 -649l508 4l176 317h62l-80 -393l-809 4l-270 -4zM694 1530l160 211h236l-306 -211h-90z" />
    <glyph glyph-name="Eacute.sc" horiz-adv-x="1032" 
d="M20 55l121 17l160 909l-117 14l11 56l225 -2l639 2l-25 -295h-53l-80 227l-364 2l-72 -401l188 4l111 176h47l-49 -213l-25 -211h-47l-49 176l-186 2l-80 -450l399 2l150 233h57l-70 -305l-675 4l-218 -4zM719 1360h211l-240 -209h-72z" />
    <glyph glyph-name="Ebreve.002" horiz-adv-x="1202" 
d="M-12 55l157 21l201 1284l-151 20l10 56l276 -4l766 4l-30 -373h-56l-94 299l-467 4l-90 -582l248 4l133 234h49l-57 -270l-31 -269h-49l-60 232l-243 4l-101 -649l508 4l176 317h62l-80 -393l-809 4l-270 -4zM791 1655q150 0 278 121l35 -27q-55 -74 -121.5 -128.5
t-185.5 -96.5q-166 0 -218.5 93t-64.5 132l45 29q82 -123 232 -123z" />
    <glyph glyph-name="Ebreve.sc" horiz-adv-x="1032" 
d="M20 55l121 17l160 909l-117 14l11 56l225 -2l639 2l-25 -295h-53l-80 227l-364 2l-72 -401l188 4l111 176h47l-49 -213l-25 -211h-47l-49 176l-186 2l-80 -450l399 2l150 233h57l-70 -305l-673 4l-220 -4zM704.5 1272q104.5 0 200.5 86l31 -31q-37 -59 -91 -102t-165 -82
q-102 0 -158.5 55t-77.5 125l41 33q20 -23 67.5 -53.5t152 -30.5z" />
    <glyph glyph-name="Ecaron.002" horiz-adv-x="1202" 
d="M-12 55l157 21l201 1284l-151 20l10 56l276 -4l766 4l-30 -373h-56l-94 299l-467 4l-90 -582l248 4l133 234h49l-57 -270l-31 -269h-49l-60 232l-243 4l-101 -649l508 4l176 317h62l-80 -393l-809 4l-270 -4zM1128 1747l-278 -221h-135l-183 221h93l174 -115h6l231 115
h92z" />
    <glyph glyph-name="Ecaron.sc" horiz-adv-x="1032" 
d="M20 55l121 17l160 909l-117 14l11 56l227 -2l637 2l-25 -295h-53l-80 227l-364 2l-72 -401l188 4l111 176h47l-49 -213l-25 -211h-47l-49 176l-186 2l-80 -450l399 2l150 233h57l-70 -305l-673 4l-220 -4zM678 1262h2l194 102h78l-233 -211h-123l-143 211h79z" />
    <glyph glyph-name="Ecircumflex.002" horiz-adv-x="1202" 
d="M-12 55l157 21l201 1284l-151 20l10 56l276 -4l766 4l-30 -373h-56l-94 299l-467 4l-90 -582l248 4l133 234h49l-57 -270l-31 -269h-49l-60 232l-243 4l-101 -649l508 4l176 317h62l-80 -393l-809 4l-270 -4zM487 1530l279 221h133l186 -221h-94l-174 112h-6l-229 -112
h-95z" />
    <glyph glyph-name="Ecircumflex.sc" horiz-adv-x="1032" 
d="M1059 1051l-25 -295h-53l-80 227l-364 2l-72 -401l188 4l111 176h47l-49 -213l-25 -211h-47l-49 176l-186 2l-80 -450l399 2l150 233h57l-70 -305l-671 4l-222 -4l2 57l121 17l160 909l-117 14l11 56l225 -2zM651 1364h123l141 -211h-75l-146 104h-6l-194 -104h-76z" />
    <glyph glyph-name="Edieresis.002" horiz-adv-x="1202" 
d="M-12 55l157 21l201 1284l-151 20l10 56l276 -4l766 4l-30 -373h-56l-94 299l-467 4l-90 -582l248 4l133 234h49l-57 -270l-31 -269h-49l-60 232l-243 4l-101 -649l508 4l176 317h62l-80 -393l-809 4l-270 -4zM1049 1749l92 -12l-4 -95l-37 -86l-88 -10l-94 10l6 103
l39 78zM633 1749l90 -12l-2 -95l-39 -86l-88 -10l-92 10l4 103l39 78z" />
    <glyph glyph-name="Edieresis.sc" horiz-adv-x="1032" 
d="M20 55l121 17l160 909l-117 14l11 56l223 -2l641 2l-25 -295h-53l-80 227l-364 2l-72 -401l188 4l111 176h47l-49 -213l-25 -211h-47l-49 176l-186 2l-80 -450l399 2l150 233h57l-70 -305l-671 4l-222 -4zM899 1337l70 -10l-6 -90l-31 -78l-88 -12l-70 12l4 92l33 76z
M543 1337l69 -10l-4 -90l-33 -78l-86 -12l-69 12l4 92l33 76z" />
    <glyph glyph-name="Edotaccent.002" horiz-adv-x="1202" 
d="M-12 55l157 21l201 1284l-151 20l10 56l276 -4l766 4l-30 -373h-56l-94 299l-467 4l-90 -582l248 4l133 234h49l-57 -270l-31 -269h-49l-60 232l-243 4l-101 -649l508 4l176 317h62l-80 -393l-809 4l-270 -4zM842 1749l92 -12l-4 -99l-37 -86l-90 -12l-105 12l9 101
l38 84z" />
    <glyph glyph-name="Edotaccent.sc" horiz-adv-x="1032" 
d="M20 55l121 17l160 909l-117 14l11 56l227 -2l637 2l-25 -295h-53l-80 227l-364 2l-72 -401l188 4l111 176h47l-49 -213l-25 -211h-47l-49 176l-186 2l-80 -450l399 2l150 233h57l-70 -305l-673 4l-220 -4zM621 1337l84 6l90 -8l-4 -102l-35 -84l-78 -10l-98 10l8 102z
" />
    <glyph glyph-name="Egrave.002" horiz-adv-x="1202" 
d="M-12 55l157 21l201 1284l-151 20l10 56l276 -4l766 4l-30 -373h-56l-94 299l-467 4l-90 -582l248 4l133 234h49l-57 -270l-31 -269h-49l-60 232l-243 4l-101 -649l508 4l176 317h62l-80 -393l-809 4l-270 -4zM801 1530l-187 211h213l54 -211h-80z" />
    <glyph glyph-name="Egrave.sc" horiz-adv-x="1032" 
d="M20 55l121 17l160 909l-117 14l11 56l223 -2l641 2l-25 -295h-53l-80 227l-364 2l-72 -401l188 4l111 176h47l-49 -213l-25 -211h-47l-49 176l-186 2l-80 -450l399 2l150 233h57l-70 -305l-673 4l-220 -4zM674 1151l-176 209h198l43 -209h-65z" />
    <glyph glyph-name="Emacron.002" horiz-adv-x="1202" 
d="M-12 55l157 21l201 1284l-151 20l10 56l276 -4l766 4l-30 -373h-56l-94 299l-467 4l-90 -582l248 4l133 234h49l-57 -270l-31 -269h-49l-60 232l-243 4l-101 -649l508 4l176 317h62l-80 -393l-809 4l-270 -4zM537 1677h587l-18 -98h-588z" />
    <glyph glyph-name="Emacron.sc" horiz-adv-x="1032" 
d="M20 55l121 17l160 909l-117 14l11 56l225 -2l639 2l-25 -295h-53l-80 227l-364 2l-72 -401l188 4l111 176h47l-49 -213l-25 -211h-47l-49 176l-186 2l-80 -450l399 2l150 233h57l-70 -305l-675 4l-218 -4zM453 1294h487l-16 -106h-490z" />
    <glyph glyph-name="Eng.001" horiz-adv-x="1394" 
d="M1255 1360l-155 20l10 56l195 -4l202 4v-56l-159 -20l-213 -1360h2l-228 -350h-256l35 178h205l154 137l51 35h-121l-541 1200l-10 92l-188 -1216l161 -21l-12 -57l-201 4l-200 -4l2 57l157 21l203 1280l-149 24l12 56l197 -4l192 4l481 -1039l17 -92z" />
    <glyph glyph-name="Eng.sc" horiz-adv-x="1179" 
d="M920 373l12 -97l123 703l-121 16l8 56l158 -2l160 2l-3 -56l-122 -16l-174 -979h-9l-215 -358h-217l35 174h156l163 161l46 23h-109l-430 821l-10 92l-150 -841l129 -17l-10 -57l-166 4l-156 -4l2 57l123 17l162 909l-115 14l11 56l164 -2l172 2z" />
    <glyph glyph-name="Eogonek.001" horiz-adv-x="1202" 
d="M-12 55l157 21l201 1284l-151 20l10 56l276 -4l766 4l-30 -373h-56l-94 299l-467 4l-90 -582l248 4l133 234h49l-57 -270l-31 -269h-49l-60 232l-243 4l-101 -649l508 4l176 317h62l-80 -393l-139 2l-109 -150l-8 -34q-16 -72 39 -105t153 -33l-8 -49q-201 0 -279.5 46
t-56.5 143l9 35l188 147l-598 2l-270 -4z" />
    <glyph glyph-name="Eogonek.sc" horiz-adv-x="1032" 
d="M831 -373q-176 0 -242.5 38t-49.5 114l16 102l176 119l-493 2l-220 -4l2 57l121 17l160 909l-117 14l11 56l223 -2l641 2l-25 -295h-53l-80 227l-364 2l-72 -401l188 4l111 176h47l-49 -213l-25 -211h-47l-49 176l-186 2l-80 -450l399 2l150 233h57l-70 -305l-108 2
l-111 -156l-10 -59q-15 -75 44.5 -95t111.5 -20z" />
    <glyph glyph-name="Eth.sc" horiz-adv-x="1173" 
d="M872 616q0 165 -78 268t-192 103h-98l-72 -409h184l-12 -56h-182l-78 -440h217q211 115 261 281.5t50 252.5zM1128 630q0 -194 -117.5 -348.5t-361.5 -232.5l-157 -51l-269 4l-239 -4l2 57l123 17l77 450h-120l12 56h119l71 403l-116 16l10 54l239 -2l258 2
q210 0 339.5 -113.5t129.5 -307.5z" />
    <glyph glyph-name="Euro.sc" horiz-adv-x="1118" 
d="M170 403h-119l12 70h109q6 59 21 107h-107l14 71h117q123 264 506 377l164 49q96 -6 260 -100l-96 -137q-102 73 -184 105t-117 38q-239 -87 -310 -332h492l-47 -71h-459q-6 -76 -4 -107h381l-49 -70h-328q18 -135 99 -213.5t198 -103.5q106 6 274 90l25 -43
q-121 -74 -369 -160q-204 0 -339.5 115.5t-143.5 306.5v8z" />
    <glyph glyph-name="Euro.tlf" 
d="M109 559h-146l12 78h134q10 106 28 168h-129l12 78h142q72 174 225.5 311t400.5 217l189 59q109 -17 192.5 -66.5t108.5 -68.5l-111 -159q-47 41 -157.5 102t-194.5 82q-160 -66 -263 -193t-146 -284h626l-55 -78h-588q-12 -88 -10 -168h491l-55 -78h-432
q20 -195 121.5 -313.5t253.5 -149.5q105 15 338 135l28 -43q-168 -111 -440 -225q-242 0 -402.5 157t-172.5 421v18z" />
    <glyph glyph-name="Euro.tlf.sc" 
d="M221 403h-121l13 70h108q11 76 23 107h-109l12 71h119q123 264 506 377l164 49q105 -7 260 -100l-94 -137q-102 73 -185 105t-118 38q-123 -45 -200 -132t-107 -200h491l-49 -71h-457q-9 -58 -6 -107h381l-49 -70h-328q20 -135 100 -213.5t199 -103.5q98 6 273 90l26 -43
q-126 -77 -371 -160q-205 0 -339 116t-142 306v8z" />
    <glyph glyph-name="F.sc" horiz-adv-x="974" 
d="M557 55l-10 -57l-299 4l-230 -4l2 57l121 17l160 909l-117 14l11 56l223 -2l641 2l-25 -301h-53l-80 233l-364 2l-74 -424l186 4l111 176h47l-47 -213l-27 -211h-45l-49 177l-188 4l-76 -426z" />
    <glyph glyph-name="G.sc" horiz-adv-x="1140" 
d="M362 485q0 -173 85 -278t219 -144q56 10 122 39l54 318l-119 14l10 60l228 -2l198 2v-60l-86 -14l-59 -328l-449 -119q-207 0 -333 128t-126 317q0 310 189.5 436.5t327.5 167.5l170 55q179 0 315 -78l-14 -294h-68l-57 182q-108 90 -289 98q-146 -61 -232 -194t-86 -306
z" />
    <glyph glyph-name="Gbreve.002" horiz-adv-x="1361" 
d="M242.5 1077q156.5 234 468.5 334l198 59q135 0 232.5 -40.5t154.5 -86.5l-18 -339h-74l-69 231q-55 53 -144.5 94t-210.5 45q-197 -92 -305 -274t-108 -442t103 -410t284 -191q94 30 176 84l67 447l-149 20l10 54h268l236 2v-56l-113 -20l-73 -475l-531 -150
q-254 0 -406.5 172t-152.5 440t156.5 502zM670 1755q89 -119 204.5 -119t178.5 31.5t127 85.5l34 -18q-56 -76 -118.5 -127.5t-188.5 -96.5q-113 0 -182 64.5t-98 159.5z" />
    <glyph glyph-name="Gbreve.sc" horiz-adv-x="1140" 
d="M362 485q0 -173 85 -278t219 -144q56 10 122 39l54 318l-119 14l10 60l228 -2l198 2v-60l-86 -14l-59 -328l-449 -119q-207 0 -333 128t-126 317q0 310 189.5 436.5t327.5 167.5l170 55q179 0 315 -78l-14 -294h-68l-57 182q-108 90 -289 98q-146 -61 -232 -194t-86 -306
zM775 1272q124 0 220 86l35 -31q-52 -89 -126.5 -126.5t-129.5 -57.5q-186 0 -237 180l41 33q73 -84 197 -84z" />
    <glyph glyph-name="Gcircumflex.002" horiz-adv-x="1361" 
d="M242.5 1077q156.5 234 468.5 334l198 59q135 0 232.5 -40.5t154.5 -86.5l-18 -339h-74l-69 231q-55 53 -144.5 94t-210.5 45q-197 -92 -305 -274t-108 -442t103 -410t284 -191q94 30 176 84l67 447l-149 20l10 54h268l236 2v-56l-113 -20l-73 -475l-531 -150
q-254 0 -406.5 172t-152.5 440t156.5 502zM633 1530l278 221h133l187 -221h-94l-176 112h-5l-229 -112h-94z" />
    <glyph glyph-name="Gcircumflex.sc" horiz-adv-x="1140" 
d="M362 485q0 -173 85 -278t219 -144q56 10 122 39l54 318l-119 14l10 60l230 -2l196 2v-60l-86 -14l-59 -328l-449 -119q-207 0 -333 128t-126 317q0 310 189.5 436.5t327.5 167.5l170 55q179 0 315 -78l-14 -294h-68l-57 182q-108 90 -289 98q-146 -61 -232 -194t-86 -306
zM612 1153h-77l233 211h123l143 -211h-78l-145 104h-4z" />
    <glyph glyph-name="Gcommaaccent.001" horiz-adv-x="1355" 
d="M242.5 1077q156.5 234 468.5 334l198 59q135 0 232.5 -40.5t154.5 -86.5l-18 -339h-74l-69 231q-55 53 -144.5 94t-210.5 45q-197 -92 -305 -274t-108 -442t103 -410t284 -191q94 30 176 84l67 447l-149 20l10 54h268l236 2v-56l-113 -20l-73 -475l-531 -150
q-254 0 -406.5 172t-152.5 440t156.5 502zM608 -215l-86 57l13 70h229l-25 -129l-190 -145l-45 18z" />
    <glyph glyph-name="Gcommaaccent.sc" horiz-adv-x="1140" 
d="M362 485q0 -173 85 -278t219 -144q56 10 122 39l54 318l-119 14l10 60l225 -2l201 2v-60l-86 -14l-59 -328l-449 -119q-207 0 -333 128t-126 317q0 310 189.5 436.5t327.5 167.5l170 55q179 0 315 -78l-14 -294h-68l-57 182q-108 90 -289 98q-146 -61 -232 -194t-86 -306
zM494 -203l-50 62l13 63h202l-24 -119l-191 -186l-49 10z" />
    <glyph glyph-name="Gdotaccent.002" horiz-adv-x="1361" 
d="M242.5 1077q156.5 234 468.5 334l198 59q135 0 232.5 -40.5t154.5 -86.5l-18 -339h-74l-69 231q-55 53 -144.5 94t-210.5 45q-197 -92 -305 -274t-108 -442t103 -410t284 -191q94 30 176 84l67 447l-149 20l10 54h268l236 2v-56l-113 -20l-73 -475l-531 -150
q-254 0 -406.5 172t-152.5 440t156.5 502zM958 1749l93 -12l-2 -99l-37 -86l-92 -12l-105 12l8 101l39 84z" />
    <glyph glyph-name="Gdotaccent.sc" horiz-adv-x="1140" 
d="M362 485q0 -173 85 -278t219 -144q56 10 122 39l54 318l-119 14l10 60l228 -2l198 2v-60l-86 -14l-59 -328l-449 -119q-207 0 -333 128t-126 317q0 310 189.5 436.5t327.5 167.5l170 55q179 0 315 -78l-14 -294h-68l-57 182q-108 90 -289 98q-146 -61 -232 -194t-86 -306
zM731 1346l84 8l88 -8l-2 -103l-37 -86l-78 -8l-98 8l8 105z" />
    <glyph glyph-name="H.sc" horiz-adv-x="1226" 
d="M252 2l-234 -4l2 57l123 17l160 907l-117 16l11 56l231 -2l227 2v-56l-116 -16l-74 -404h407l70 404l-113 16l13 56l229 -2l229 2l-2 -56l-118 -16l-162 -907l117 -17l-9 -57l-233 4l-231 -4l4 57l116 17l78 440h-403l-78 -440l113 -17l-11 -57z" />
    <glyph glyph-name="Hbar.sc" horiz-adv-x="1226" 
d="M872 575l27 156h-405l-29 -156h407zM186 995l11 56l231 -2l227 2v-56l-116 -16l-37 -197h405l35 197l-113 16l13 56l229 -2l229 2l-2 -56l-118 -16l-162 -907l117 -17l-9 -57l-233 4l-231 -4l4 57l116 17l78 440h-403l-78 -440l113 -17l-11 -57l-229 4l-234 -4l2 57
l123 17l160 907z" />
    <glyph glyph-name="Hcircumflex.002" horiz-adv-x="1435" 
d="M264 2l-278 -4l2 57l159 21l197 1284l-151 20l12 56l276 -4l271 4l-2 -56l-150 -20l-90 -580h526l88 580l-145 20l10 56l275 -4l270 4l-2 -56l-152 -20l-198 -1284l149 -21l-10 -57l-274 4l-277 -4v57l156 21l98 631h-524l-99 -631l148 -21l-10 -57zM594 1530l278 221
h134l186 -221h-94l-174 112h-6l-230 -112h-94z" />
    <glyph glyph-name="Hcircumflex.sc" horiz-adv-x="1226" 
d="M186 995l11 56l231 -2l227 2v-56l-116 -16l-74 -404h407l70 404l-113 16l13 56l229 -2l229 2l-2 -56l-118 -16l-162 -907l117 -17l-9 -57l-233 4l-231 -4l4 57l116 17l78 440h-403l-78 -440l113 -17l-11 -57l-229 4l-234 -4l2 57l123 17l160 907zM528 1153l232 211h123
l143 -211h-78l-145 104h-6l-193 -104h-76z" />
    <glyph glyph-name="I.sc" horiz-adv-x="583" 
d="M20 55l123 17l160 907l-117 16l11 56l233 -2l227 2l-2 -56l-116 -16l-162 -907l117 -17l-11 -57l-233 4l-232 -4z" />
    <glyph glyph-name="IJ.sc" horiz-adv-x="1042" 
d="M375 72l114 -17l-10 -57l-229 4l-234 -4l2 57l125 17l158 909l-117 14l13 58l235 -2l211 2l-2 -58l-104 -14zM418 -260l37 186h157q42 62 64 170l160 885l-109 14l12 58l219 -2l234 2l-4 -58l-119 -14l-141 -782q-18 -111 -72.5 -179.5t-128.5 -130.5l-203 -149h-106z
" />
    <glyph glyph-name="Iacute.002" horiz-adv-x="657" 
d="M754 1380l-152 -20l-199 -1284l150 -21l-12 -57l-277 4l-276 -4v57l159 21l201 1284l-151 20l10 56l278 -4l271 4zM582 1741h233l-305 -211h-90z" />
    <glyph glyph-name="Iacute.sc" horiz-adv-x="583" 
d="M20 55l123 17l160 907l-117 16l11 56l233 -2l227 2l-2 -56l-116 -16l-162 -907l117 -17l-11 -57l-233 4l-232 -4zM498 1360h211l-240 -209h-72z" />
    <glyph glyph-name="Ibreve.002" horiz-adv-x="657" 
d="M754 1380l-152 -20l-199 -1284l150 -21l-12 -57l-277 4l-276 -4v57l159 21l201 1284l-151 20l10 56l278 -4l271 4zM287 1755q89 -119 225.5 -119t202 50.5t84.5 66.5l32 -18q-56 -76 -117.5 -127t-187.5 -97q-166 0 -218 92.5t-64 131.5z" />
    <glyph glyph-name="Ibreve.sc" horiz-adv-x="583" 
d="M377 72l117 -17l-11 -57l-233 4l-232 -4l2 57l123 17l160 907l-117 16l11 56l233 -2l227 2l-2 -56l-116 -16zM281 1356q73 -84 195 -84t222 86l33 -31q-37 -59 -91 -102t-165 -82q-186 0 -237 180z" />
    <glyph glyph-name="Icircumflex.002" horiz-adv-x="657" 
d="M754 1380l-152 -20l-199 -1284l150 -21l-12 -57l-277 4l-276 -4v57l159 21l201 1284l-151 20l10 56l278 -4l271 4zM195 1530l278 221h133l187 -221h-95l-176 112h-4l-229 -112h-94z" />
    <glyph glyph-name="Icircumflex.sc" horiz-adv-x="583" 
d="M377 72l117 -17l-11 -57l-233 4l-232 -4l2 57l123 17l160 907l-117 16l11 56l233 -2l227 2l-2 -56l-116 -16zM197 1153l233 211h123l143 -211h-75l-148 104h-6l-193 -104h-77z" />
    <glyph glyph-name="Idieresis.002" horiz-adv-x="657" 
d="M754 1380l-152 -20l-199 -1284l150 -21l-12 -57l-277 4l-276 -4v57l159 21l201 1284l-151 20l10 56l278 -4l271 4zM737 1749l88 -12l-2 -95l-39 -81l-84 -13l-94 13l6 98l39 78zM350 1749l86 -12l-2 -95l-39 -81l-84 -13l-94 13l8 98l37 78z" />
    <glyph glyph-name="Idieresis.sc" horiz-adv-x="583" 
d="M539 979l-162 -907l117 -17l-11 -57l-233 4l-232 -4l2 57l123 17l160 907l-117 16l11 56l233 -2l227 2l-2 -56zM690 1335l39 -32l-10 -89l-35 -59l-104 -4l-37 33l8 88l37 57zM334 1337l67 -10l-2 -90l-34 -78l-84 -10l-72 10l4 92l35 76z" />
    <glyph glyph-name="Idotaccent.002" horiz-adv-x="657" 
d="M754 1380l-152 -20l-199 -1284l150 -21l-12 -57l-277 4l-276 -4v57l159 21l201 1284l-151 20l10 56l278 -4l271 4zM553 1749l94 -12l-4 -99l-37 -86l-92 -12l-102 12l6 101l39 84z" />
    <glyph glyph-name="Idotaccent.sc" horiz-adv-x="583" 
d="M539 979l-162 -907l117 -17l-11 -57l-233 4l-232 -4l2 57l123 17l160 907l-117 16l11 56l233 -2l227 2l-2 -56zM403 1337l84 6l88 -8l-4 -102l-32 -84l-80 -10l-97 10l7 102z" />
    <glyph glyph-name="Igrave.002" horiz-adv-x="657" 
d="M754 1380l-152 -20l-199 -1284l150 -21l-12 -57l-277 4l-276 -4v57l159 21l201 1284l-151 20l10 56l278 -4l271 4zM494 1530l-189 211h213l53 -211h-77z" />
    <glyph glyph-name="Igrave.sc" horiz-adv-x="583" 
d="M20 55l123 17l160 907l-117 16l11 56l233 -2l227 2l-2 -56l-116 -16l-162 -907l117 -17l-11 -57l-233 4l-232 -4zM434 1151l-176 209h201l41 -209h-66z" />
    <glyph glyph-name="Imacron.002" horiz-adv-x="657" 
d="M754 1380l-152 -20l-199 -1284l150 -21l-12 -57l-277 4l-276 -4v57l159 21l201 1284l-151 20l10 56l278 -4l271 4zM231 1677h588l-18 -98h-588z" />
    <glyph glyph-name="Imacron.sc" horiz-adv-x="583" 
d="M539 979l-162 -907l117 -17l-11 -57l-233 4l-232 -4l2 57l123 17l160 907l-117 16l11 56l233 -2l227 2l-2 -56zM240 1294h485l-16 -106h-488z" />
    <glyph glyph-name="Iogonek.001" horiz-adv-x="657" 
d="M754 1380l-152 -20l-199 -1284l150 -21l-12 -57l-226 2l-112 -150l-8 -34q-16 -72 39 -105t155 -33l-10 -49q-201 0 -280 46t-56 143l10 35l191 149l-256 -4v57l159 21l201 1284l-151 20l10 56l278 -4l271 4z" />
    <glyph glyph-name="Iogonek.sc" horiz-adv-x="583" 
d="M539 979l-162 -907l117 -17l-11 -57l-188 2l-102 -158l-13 -59q-15 -74 46 -93.5t112 -19.5l-6 -43q-176 0 -242.5 38t-50.5 114l16 102l164 119l-201 -2l2 57l123 17l160 907l-117 16l11 56l233 -2l227 2l-2 -56z" />
    <glyph glyph-name="Itilde.002" horiz-adv-x="657" 
d="M754 1380l-152 -20l-199 -1284l150 -21l-12 -57l-277 4l-276 -4v57l159 21l201 1284l-151 20l10 56l278 -4l271 4zM283 1712l125 37l327 -127l101 125h36l-108 -197l-125 -28l-328 127l-98 -127h-35z" />
    <glyph glyph-name="Itilde.sc" horiz-adv-x="583" 
d="M539 979l-162 -907l117 -17l-11 -57l-233 4l-232 -4l2 57l123 17l160 907l-117 16l11 56l233 -2l227 2l-2 -56zM272 1335l101 27l284 -90l84 90h37l-90 -199l-102 -20l-283 94l-82 -92h-37z" />
    <glyph glyph-name="J.sc" horiz-adv-x="579" 
d="M-80 -74h186q42 62 64 170l158 883l-123 16l10 56l240 -2l229 2l-2 -56l-119 -16l-141 -780q-20 -109 -73.5 -177.5t-127.5 -125.5l-225 -156h-115z" />
    <glyph glyph-name="Jcircumflex.002" horiz-adv-x="663" 
d="M362 1360l-157 20l12 56l281 -4l272 4v-56l-154 -20l-176 -1143q-23 -135 -79 -224t-142 -155l-262 -194h-135l41 200h227q58 130 90 332zM207 1530l278 221h133l187 -221h-92l-176 112h-7l-229 -112h-94z" />
    <glyph glyph-name="Jcircumflex.sc" horiz-adv-x="579" 
d="M-119 -260l39 186h186q42 62 64 170l158 883l-123 16l10 56l240 -2l229 2l-2 -56l-119 -16l-141 -780q-20 -109 -73.5 -177.5t-127.5 -125.5l-225 -156h-115zM203 1153l233 211h123l143 -211h-77l-146 104h-4l-194 -104h-78z" />
    <glyph glyph-name="K.sc" horiz-adv-x="1212" 
d="M467 573l22 11l506 395l-131 20l6 52l193 -2l182 2v-47l-147 -25l-525 -399l129 -27l369 -483l80 -15l-8 -57l-162 4l-158 -4l-350 510l-12 31l-84 -467l108 -17l-10 -57l-225 4l-232 -4l2 57l123 17l160 907l-115 16l11 56l233 -2l217 2l-2 -56l-110 -16z" />
    <glyph glyph-name="Kcommaaccent.001" horiz-adv-x="1425" 
d="M600 1360l-88 -576l27 17l624 559l-155 20l8 56l231 -4l211 4l-2 -56l-176 -20l-647 -569l139 -29l469 -686l102 -21l-10 -57l-182 4l-178 -4l-453 719l-14 35l-105 -676l142 -21l-13 -57l-266 4l-278 -4l2 57l162 21l196 1284l-151 20l12 56l274 -4l262 4v-56zM623 -215
l-84 57l12 76h229l-24 -135l-195 -145l-43 18z" />
    <glyph glyph-name="Kcommaaccent.sc" horiz-adv-x="1212" 
d="M467 573l22 11l506 395l-131 20l6 52l193 -2l182 2v-47l-147 -25l-525 -399l129 -27l369 -483l80 -15l-8 -57l-162 4l-158 -4l-350 510l-12 31l-84 -467l108 -17l-10 -57l-225 4l-232 -4l2 57l123 17l160 907l-115 16l11 56l233 -2l217 2l-2 -56l-110 -16zM526 -203
l-47 62l13 63h200l-22 -119l-191 -186l-49 10z" />
    <glyph glyph-name="L.sc" horiz-adv-x="958" 
d="M375 68l340 2l176 245h55l-82 -317l-622 4l-224 -4l2 57l121 17l162 907l-117 16l11 56l221 -2l244 2l-3 -56l-120 -16z" />
    <glyph glyph-name="Lacute.002" horiz-adv-x="1124" 
d="M399 70l432 4l213 323h60l-100 -399l-748 4l-270 -4l2 57l157 21l201 1284l-153 20l14 56l268 -4l283 4l-2 -56l-156 -20zM418 1530l162 211h233l-305 -211h-90z" />
    <glyph glyph-name="Lacute.sc" horiz-adv-x="958" 
d="M375 68l340 2l176 245h55l-82 -317l-624 4l-222 -4l2 57l121 17l162 907l-117 16l11 56l221 -2l244 2l-3 -56l-120 -16zM496 1360h211l-238 -209h-72z" />
    <glyph glyph-name="Lcaron.sc" horiz-adv-x="958" 
d="M375 68l340 2l176 245h55l-82 -317l-624 4l-222 -4l2 57l121 17l162 907l-117 16l11 56l221 -2l244 2l-3 -56l-120 -16zM774 635q25 33 79 119t54 92l-102 6l8 113l33 88l137 12l59 -12l-10 -105l-31 -96l-184 -238z" />
    <glyph glyph-name="Lcommaaccent.001" horiz-adv-x="1124" 
d="M399 70l432 4l213 323h60l-100 -399l-748 4l-270 -4l2 57l157 21l201 1284l-153 20l14 56l268 -4l283 4l-2 -56l-156 -20zM473 -215l-84 57l10 76h230l-23 -135l-194 -145l-43 18z" />
    <glyph glyph-name="Lcommaaccent.sc" horiz-adv-x="958" 
d="M375 68l340 2l176 245h55l-82 -317l-622 4l-224 -4l2 57l121 17l162 907l-117 16l11 56l221 -2l244 2l-3 -56l-120 -16zM395 -203l-47 62l10 63h203l-22 -119l-191 -186l-49 10z" />
    <glyph glyph-name="Ldot.sc" horiz-adv-x="958" 
d="M375 68l340 2l176 245h55l-82 -317l-622 4l-224 -4l2 57l121 17l162 907l-117 16l11 56l221 -2l244 2l-3 -56l-120 -16zM799 715l63 -15l-4 -104l-31 -90l-129 -10l-65 10l8 108l29 86z" />
    <glyph glyph-name="Lslash.sc" horiz-adv-x="970" 
d="M492 651l176 76l-13 -74l-178 -75l-90 -510l340 2l176 245h55l-81 -317l-625 4l-223 -4l2 57l123 17l71 399l-125 -51l13 72l125 53l77 434l-116 16l10 56l221 -2l244 2l-2 -56l-123 -16z" />
    <glyph glyph-name="M.sc" horiz-adv-x="1513" 
d="M1204 1051l193 -2l190 2l-2 -56l-119 -18l-161 -905l114 -17l-10 -57l-225 4l-234 -4v57l125 17l144 821l24 84l-526 -979h-137l-193 854l-10 117l-156 -897l119 -17l-8 -57l-156 4l-158 -4l2 57l117 17l164 907l-119 16l11 56l178 -2l215 2l170 -754l-6 -72z" />
    <glyph glyph-name="N.sc" horiz-adv-x="1179" 
d="M1055 979l-121 16l8 56l156 -2l162 2l-3 -56l-122 -16l-174 -979h-150l-430 821l-10 92l-150 -841l129 -17l-10 -57l-162 4l-160 -4l2 57l123 17l162 909l-115 14l11 56l164 -2l172 2l383 -678l12 -97z" />
    <glyph glyph-name="Nacute.002" horiz-adv-x="1394" 
d="M1255 1360l-155 20l10 56l195 -4l202 4v-56l-159 -20l-213 -1360h-158l-541 1200l-10 92l-188 -1216l161 -21l-12 -57l-201 4l-200 -4l2 57l157 21l203 1280l-149 24l12 56l197 -4l192 4l481 -1039l17 -92zM772 1530l160 211h233l-303 -211h-90z" />
    <glyph glyph-name="Nacute.sc" horiz-adv-x="1179" 
d="M1055 979l-121 16l8 56l156 -2l162 2l-3 -56l-122 -16l-174 -979h-150l-430 821l-10 92l-150 -841l129 -17l-10 -57l-166 4l-156 -4l2 57l123 17l162 909l-115 14l11 56l164 -2l172 2l383 -678l12 -97zM778 1360h211l-239 -209h-72z" />
    <glyph glyph-name="Ncaron.002" horiz-adv-x="1394" 
d="M1255 1360l-155 20l10 56l195 -4l202 4v-56l-159 -20l-213 -1360h-158l-541 1200l-10 92l-188 -1216l161 -21l-12 -57l-201 4l-200 -4l2 57l157 21l203 1280l-149 24l12 56l197 -4l192 4l481 -1039l17 -92zM1208 1747l-276 -221h-135l-183 221h93l174 -115h4l231 115h92z
" />
    <glyph glyph-name="Ncaron.sc" horiz-adv-x="1179" 
d="M221 72l129 -17l-10 -57l-164 4l-158 -4l2 57l123 17l162 909l-115 14l11 56l164 -2l172 2l383 -678l12 -97l123 703l-121 16l8 56l156 -2l162 2l-3 -56l-122 -16l-174 -979h-150l-430 821l-10 92zM1018 1364l-234 -211h-122l-144 211h78l145 -102h7l192 102h78z" />
    <glyph glyph-name="Ncommaaccent.001" horiz-adv-x="1394" 
d="M1255 1360l-155 20l10 56l195 -4l202 4v-56l-159 -20l-213 -1360h-158l-541 1200l-10 92l-188 -1216l161 -21l-12 -57l-201 4l-200 -4l2 57l157 21l203 1280l-149 24l12 56l197 -4l192 4l481 -1039l17 -92zM594 -215l-84 57l14 76h228l-25 -135l-195 -145l-40 18z" />
    <glyph glyph-name="Ncommaaccent.sc" horiz-adv-x="1179" 
d="M1055 979l-121 16l8 56l154 -2l164 2l-3 -56l-122 -16l-174 -979h-150l-430 821l-10 92l-150 -841l129 -17l-10 -57l-164 4l-158 -4l2 57l123 17l162 909l-115 14l11 56l164 -2l172 2l383 -678l12 -97zM467 -203l-47 62l12 63h203l-23 -119l-190 -186l-51 10z" />
    <glyph glyph-name="Ntilde.002" horiz-adv-x="1394" 
d="M1255 1360l-155 20l10 56l195 -4l202 4v-56l-159 -20l-213 -1360h-158l-541 1200l-10 92l-188 -1216l161 -21l-12 -57l-201 4l-200 -4l2 57l157 21l203 1280l-149 24l12 56l197 -4l192 4l481 -1039l17 -92zM668 1712l125 37l327 -127l101 125h36l-110 -197l-123 -28
l-330 127l-98 -127h-35z" />
    <glyph glyph-name="Ntilde.sc" horiz-adv-x="1179" 
d="M1055 979l-121 16l8 56l154 -2l164 2l-3 -56l-122 -16l-174 -979h-150l-430 821l-10 92l-150 -841l129 -17l-10 -57l-162 4l-160 -4l2 57l123 17l162 909l-115 14l11 56l164 -2l172 2l383 -678l12 -97zM563 1335l103 27l282 -90l86 90h35l-90 -199l-100 -20l-285 94
l-84 -92h-35z" />
    <glyph glyph-name="O.sc" horiz-adv-x="1208" 
d="M438 182.5q78 -117.5 199 -133.5q147 59 226 202.5t79 322.5t-77 295t-201 132q-143 -54 -223.5 -199t-80.5 -324q0 -178 78 -295.5zM223 804.5q117 161.5 365 231.5l137 41q216 0 343.5 -131t127.5 -344q0 -306 -176 -427.5t-307 -160.5l-135 -41q-215 0 -343.5 128.5
t-128.5 335.5q0 206 117 367.5z" />
    <glyph glyph-name="OE.sc" horiz-adv-x="1630" 
d="M229 804q123 155 379 232l137 41q11 0 88.5 -9t114.5 -13t45 -6l664 2l-27 -295h-53l-80 227l-338 2l-76 -416l172 2l113 177h43l-47 -213l-25 -209h-45l-49 176l-170 2l-80 -436l377 2l148 233h55l-68 -305l-712 4l-222 -29q-209 0 -338 131t-129 338t123 362zM362 476
q0 -169 76 -289t193 -136l131 21l160 905q-28 7 -127 15.5t-107 8.5q-233 -87 -279.5 -261.5t-46.5 -263.5z" />
    <glyph glyph-name="Oacute.002" horiz-adv-x="1425" 
d="M1413 854q0 -279 -142.5 -509t-439.5 -327l-163 -55q-255 0 -410.5 172.5t-155.5 456.5q0 432 211 604t369 221l166 53q257 0 371 -126.5t154 -242.5t40 -247zM480.5 220q99.5 -154 258.5 -171q185 73 289.5 282t104.5 471t-98.5 413t-258.5 174q-180 -68 -287.5 -280
t-107.5 -474q0 -261 99.5 -415zM784 1530l162 211h234l-306 -211h-90z" />
    <glyph glyph-name="Oacute.sc" horiz-adv-x="1208" 
d="M885 251.5q78 143.5 78 322.5t-77 294.5t-200 132.5q-144 -52 -223.5 -196.5t-79.5 -326.5q0 -183 77 -296.5t197 -132.5q150 59 228 202.5zM245 806q118 161 365 230l133 41q217 0 345.5 -130.5t128.5 -333.5t-117.5 -364t-366.5 -235l-135 -41q-216 0 -343.5 129
t-127.5 336t118 368zM680 1151l100 209h211l-239 -209h-72z" />
    <glyph glyph-name="Obreve.002" horiz-adv-x="1425" 
d="M1413 854q0 -279 -142.5 -509t-439.5 -327l-163 -55q-255 0 -410.5 172.5t-155.5 456.5q0 432 211 604t369 221l166 53q257 0 371 -126.5t154 -242.5t40 -247zM480.5 220q99.5 -154 258.5 -171q185 73 289.5 282t104.5 471t-98.5 413t-258.5 174q-180 -68 -287.5 -280
t-107.5 -474q0 -261 99.5 -415zM884.5 1636q144.5 0 276.5 117l35 -18q-54 -73 -115.5 -124.5t-189.5 -99.5q-115 0 -179.5 61.5t-103.5 162.5l43 20q89 -119 233.5 -119z" />
    <glyph glyph-name="Obreve.sc" horiz-adv-x="1208" 
d="M885 251.5q78 143.5 78 322.5t-77 294.5t-200 132.5q-144 -52 -223.5 -196.5t-79.5 -326.5q0 -183 77 -296.5t197 -132.5q150 59 228 202.5zM245 806q118 161 365 230l133 41q217 0 345.5 -130.5t128.5 -333.5t-117.5 -364t-366.5 -235l-135 -41q-216 0 -343.5 129
t-127.5 336t118 368zM774 1272q123 0 223 86l31 -31q-37 -63 -90 -103t-166 -81q-104 0 -159.5 55t-75.5 125l41 33q73 -84 196 -84z" />
    <glyph glyph-name="Ocircumflex.002" horiz-adv-x="1425" 
d="M1413 854q0 -279 -142.5 -509t-439.5 -327l-163 -55q-255 0 -410.5 172.5t-155.5 456.5q0 432 211 604t369 221l166 53q257 0 371 -126.5t154 -242.5t40 -247zM480.5 220q99.5 -154 258.5 -171q185 73 289.5 282t104.5 471t-98.5 413t-258.5 174q-180 -68 -287.5 -280
t-107.5 -474q0 -261 99.5 -415zM582 1530l276 221h133l187 -221h-93l-176 112h-4l-231 -112h-92z" />
    <glyph glyph-name="Ocircumflex.sc" horiz-adv-x="1208" 
d="M885 251.5q78 143.5 78 322.5t-77 294.5t-200 132.5q-144 -52 -223.5 -196.5t-79.5 -326.5q0 -183 77 -296.5t197 -132.5q150 59 228 202.5zM245 806q118 161 365 230l133 41q217 0 345.5 -130.5t128.5 -333.5t-117.5 -364t-366.5 -235l-135 -41q-216 0 -343.5 129
t-127.5 336t118 368zM512 1153l236 211h120l144 -211h-78l-146 104h-4l-194 -104h-78z" />
    <glyph glyph-name="Odieresis.002" horiz-adv-x="1425" 
d="M1413 854q0 -279 -142.5 -509t-439.5 -327l-163 -55q-255 0 -410.5 172.5t-155.5 456.5q0 432 211 604t369 221l166 53q257 0 371 -126.5t154 -242.5t40 -247zM480.5 220q99.5 -154 258.5 -171q185 73 289.5 282t104.5 471t-98.5 413t-258.5 174q-180 -68 -287.5 -280
t-107.5 -474q0 -261 99.5 -415zM1135 1749l90 -12l-2 -95l-37 -86l-90 -10l-92 10l6 103l39 78zM719 1749l88 -12v-95l-39 -86l-86 -10l-94 10l4 103l39 78z" />
    <glyph glyph-name="Odieresis.sc" horiz-adv-x="1208" 
d="M885 251.5q78 143.5 78 322.5t-77 294.5t-200 132.5q-144 -52 -223.5 -196.5t-79.5 -326.5q0 -183 77 -296.5t197 -132.5q150 59 228 202.5zM245 806q118 161 365 230l133 41q217 0 345.5 -130.5t128.5 -333.5t-117.5 -364t-366.5 -235l-135 -41q-216 0 -343.5 129
t-127.5 336t118 368zM991 1337l68 -10l-2 -90l-33 -78l-86 -12l-72 12l4 92l33 76zM637 1337l68 -10l-5 -90l-30 -78l-88 -12l-70 12l4 92l33 76z" />
    <glyph glyph-name="Ograve.002" horiz-adv-x="1425" 
d="M1413 854q0 -279 -142.5 -509t-439.5 -327l-163 -55q-255 0 -410.5 172.5t-155.5 456.5q0 432 211 604t369 221l166 53q257 0 371 -126.5t154 -242.5t40 -247zM480.5 220q99.5 -154 258.5 -171q185 73 289.5 282t104.5 471t-98.5 413t-258.5 174q-180 -68 -287.5 -280
t-107.5 -474q0 -261 99.5 -415zM850 1530l-188 211h212l54 -211h-78z" />
    <glyph glyph-name="Ograve.sc" horiz-adv-x="1208" 
d="M885 251.5q78 143.5 78 322.5t-77 294.5t-200 132.5q-144 -52 -223.5 -196.5t-79.5 -326.5q0 -183 77 -296.5t197 -132.5q150 59 228 202.5zM245 806q118 161 365 230l133 41q217 0 345.5 -130.5t128.5 -333.5t-117.5 -364t-366.5 -235l-135 -41q-216 0 -343.5 129
t-127.5 336t118 368zM739 1151l-176 209h201l43 -209h-68z" />
    <glyph glyph-name="Ohungarumlaut.002" horiz-adv-x="1425" 
d="M1413 854q0 -279 -142.5 -509t-439.5 -327l-163 -55q-255 0 -410.5 172.5t-155.5 456.5q0 432 211 604t369 221l166 53q257 0 371 -126.5t154 -242.5t40 -247zM480.5 220q99.5 -154 258.5 -171q185 73 289.5 282t104.5 471t-98.5 413t-258.5 174q-180 -68 -287.5 -280
t-107.5 -474q0 -261 99.5 -415zM973 1536l149 205h238l-295 -205h-92zM618 1536l150 205h238l-295 -205h-93z" />
    <glyph glyph-name="Ohungarumlaut.sc" horiz-adv-x="1208" 
d="M885 251.5q78 143.5 78 322.5t-77 294.5t-200 132.5q-144 -52 -223.5 -196.5t-79.5 -326.5q0 -183 77 -296.5t197 -132.5q150 59 228 202.5zM245 806q118 161 365 230l133 41q217 0 345.5 -130.5t128.5 -333.5t-117.5 -364t-366.5 -235l-135 -41q-216 0 -343.5 129
t-127.5 336t118 368zM846 1151l102 209h219l-247 -209h-74zM545 1151l102 209h217l-248 -209h-71z" />
    <glyph glyph-name="Omacron.002" horiz-adv-x="1425" 
d="M1413 854q0 -279 -142.5 -509t-439.5 -327l-163 -55q-255 0 -410.5 172.5t-155.5 456.5q0 432 211 604t369 221l166 53q257 0 371 -126.5t154 -242.5t40 -247zM480.5 220q99.5 -154 258.5 -171q185 73 289.5 282t104.5 471t-98.5 413t-258.5 174q-180 -68 -287.5 -280
t-107.5 -474q0 -261 99.5 -415zM641 1677h588l-19 -98h-587z" />
    <glyph glyph-name="Omacron.sc" horiz-adv-x="1208" 
d="M885 251.5q78 143.5 78 322.5t-77 294.5t-200 132.5q-144 -52 -223.5 -196.5t-79.5 -326.5q0 -183 77 -296.5t197 -132.5q150 59 228 202.5zM245 806q118 161 365 230l133 41q217 0 345.5 -130.5t128.5 -333.5t-117.5 -364t-366.5 -235l-135 -41q-216 0 -343.5 129
t-127.5 336t118 368zM543 1294h485l-16 -106h-488z" />
    <glyph glyph-name="Oslash.sc" horiz-adv-x="1208" 
d="M403 473q0 -90 19 -160l504 521q-76 144 -219 167q-216 -79 -260 -258.5t-44 -269.5zM983 580q0 111 -35 198l-506 -524q35 -86 96.5 -139.5t139.5 -65.5q150 59 227.5 203t77.5 328zM1237 602q0 -307 -175 -428t-306 -160l-135 -41q-207 0 -334 119l-111 -115h-80
l152 156q-100 123 -101 311q0 311 175.5 433t308.5 159l135 41q180 0 303 -94l86 88h76l-121 -125q127 -136 127 -344z" />
    <glyph glyph-name="Oslashacute.002" horiz-adv-x="1425" 
d="M788 1530l162 211h236l-305 -211h-93zM387 625q0 -126 27 -236l661 762q-95 211 -293 238q-180 -68 -287.5 -280t-107.5 -484zM745 49q185 73 289.5 282t104.5 487q0 138 -39 265l-664 -766q47 -121 127 -188.5t182 -79.5zM1274 1286q145 -170 145 -440t-141.5 -500
t-439.5 -328l-164 -55q-248 0 -404 164l-135 -158h-86l180 207q-120 163 -120 416q0 433 210.5 604.5t368.5 220.5l166 53q230 0 377 -139l115 131h81z" />
    <glyph glyph-name="Oslashacute.sc" horiz-adv-x="1208" 
d="M705 1151l100 209h211l-240 -209h-71zM401 471q0 -88 19 -158l506 521q-75 146 -221 167q-143 -54 -223.5 -199t-80.5 -331zM983 580q0 111 -35 198l-506 -526q35 -86 97.5 -138.5t140.5 -64.5q147 59 225 203t78 328zM1237 602q0 -306 -176 -427.5t-307 -160.5l-136 -41
q-201 0 -331 117l-111 -113h-80l150 156q-100 123 -101 311q0 311 175.5 433t308.5 159l137 41q180 0 303 -94l86 88h76l-121 -125q127 -136 127 -344z" />
    <glyph glyph-name="Otilde.002" horiz-adv-x="1425" 
d="M1413 854q0 -279 -142.5 -509t-439.5 -327l-163 -55q-255 0 -410.5 172.5t-155.5 456.5q0 432 211 604t369 221l166 53q257 0 371 -126.5t154 -242.5t40 -247zM480.5 220q99.5 -154 258.5 -171q185 73 289.5 282t104.5 471t-98.5 413t-258.5 174q-180 -68 -287.5 -280
t-107.5 -474q0 -261 99.5 -415zM676 1712l127 37l327 -127l101 125h35l-107 -197l-125 -28l-327 127l-101 -127h-35z" />
    <glyph glyph-name="Otilde.sc" horiz-adv-x="1208" 
d="M885 251.5q78 143.5 78 322.5t-77 294.5t-200 132.5q-144 -52 -223.5 -196.5t-79.5 -326.5q0 -183 77 -296.5t197 -132.5q150 59 228 202.5zM245 806q118 161 365 230l133 41q217 0 345.5 -130.5t128.5 -333.5t-117.5 -364t-366.5 -235l-135 -41q-216 0 -343.5 129
t-127.5 336t118 368zM588 1335l102 27l285 -90l84 90h37l-90 -199l-101 -20l-287 94l-81 -92h-35z" />
    <glyph glyph-name="P.sc" horiz-adv-x="1001" 
d="M1071 825q0 -172 -141.5 -236.5t-224.5 -90.5l-127 -52h-136l-65 -374l178 -17l-10 -57l-299 4l-228 -4l2 57l121 17l162 907l-117 16l11 56l235 -2l307 2q156 0 244 -60.5t88 -165.5zM817 809q0 182 -176 182h-102l-82 -456h192q168 116 168 274z" />
    <glyph glyph-name="Q.sc" horiz-adv-x="1208" 
d="M1078 247.5q-118 -160.5 -365 -233.5l-92 -26l174 -37l176 -113l98 -37v-47h-235l-121 80l-150 139q-203 0 -330 129t-127 342q0 314 175.5 434.5t306.5 157.5l137 41q216 0 343.5 -131t127.5 -334q0 -204 -118 -364.5zM438 182.5q78 -117.5 199 -133.5q147 59 226 202.5
t79 322.5t-77 295t-201 132q-143 -54 -223.5 -199t-80.5 -324q0 -178 78 -295.5z" />
    <glyph glyph-name="R.sc" horiz-adv-x="1142" 
d="M1075 838q0 -210 -336 -299l-116 -35l196 -53l191 -375l71 -21l-8 -57l-164 4l-135 -4l-219 479l-10 6h-96l-72 -411l127 -17l-12 -57l-244 4l-230 -4l2 57l121 17l162 907l-117 16l11 56l227 -2l315 2q154 2 245 -56.5t91 -156.5zM819 821q0 172 -178 172h-102l-76 -430
h174q78 39 130 105.5t52 152.5z" />
    <glyph glyph-name="Racute.002" horiz-adv-x="1335" 
d="M1144.5 887.5q-106.5 -94.5 -296.5 -154.5l-137 -43l221 -78l244 -536l90 -23l-11 -55l-184 4l-153 -4l-279 664l-12 10h-135l-93 -596l168 -21l-12 -57l-299 4l-270 -4l2 57l157 21l201 1288l-153 16l14 56l274 -4l365 4q188 0 296.5 -83.5t108.5 -227.5
q0 -143 -106.5 -237.5zM973 1116q0 117 -57.5 184.5t-174.5 71.5h-141l-94 -610h233q234 115 234 354zM662 1530l159 211h236l-305 -211h-90z" />
    <glyph glyph-name="Racute.sc" horiz-adv-x="1142" 
d="M819 821q0 172 -178 172h-102l-76 -430h174q78 39 130 105.5t52 152.5zM1075 838q0 -210 -336 -299l-116 -35l196 -53l191 -375l71 -21l-8 -57l-164 4l-135 -4l-219 479l-10 6h-96l-72 -411l127 -17l-12 -57l-244 4l-230 -4l2 57l121 17l162 907l-117 16l11 56l229 -2
l313 2q154 2 245 -56.5t91 -156.5zM582 1151l98 209h211l-240 -209h-69z" />
    <glyph glyph-name="Rcaron.002" horiz-adv-x="1335" 
d="M1144.5 887.5q-106.5 -94.5 -296.5 -154.5l-137 -43l221 -78l244 -536l90 -23l-11 -55l-184 4l-153 -4l-279 664l-12 10h-135l-93 -596l168 -21l-12 -57l-299 4l-270 -4l2 57l157 21l201 1288l-153 16l14 56l274 -4l365 4q188 0 296.5 -83.5t108.5 -227.5
q0 -143 -106.5 -237.5zM973 1116q0 117 -57.5 184.5t-174.5 71.5h-141l-94 -610h233q234 115 234 354zM1092 1747l-279 -221h-133l-184 221h94l172 -115h6l231 115h93z" />
    <glyph glyph-name="Rcaron.sc" horiz-adv-x="1142" 
d="M819 821q0 172 -178 172h-102l-76 -430h174q78 39 130 105.5t52 152.5zM1075 838q0 -210 -336 -299l-116 -35l196 -53l191 -375l71 -21l-8 -57l-164 4l-135 -4l-219 479l-10 6h-96l-72 -411l127 -17l-12 -57l-244 4l-230 -4l2 57l121 17l162 907l-117 16l11 56l229 -2
l313 2q154 2 245 -56.5t91 -156.5zM944 1364l-235 -211h-121l-144 211h78l146 -102h6l192 102h78z" />
    <glyph glyph-name="Rcommaaccent.001" horiz-adv-x="1335" 
d="M1144.5 887.5q-106.5 -94.5 -296.5 -154.5l-137 -43l221 -78l244 -536l90 -23l-11 -55l-184 4l-153 -4l-279 664l-12 10h-135l-93 -596l168 -21l-12 -57l-299 4l-270 -4l2 57l157 21l201 1288l-153 16l14 56l274 -4l365 4q188 0 296.5 -83.5t108.5 -227.5
q0 -143 -106.5 -237.5zM973 1116q0 117 -57.5 184.5t-174.5 71.5h-141l-94 -610h233q234 115 234 354zM580 -215l-86 57l14 76h227l-24 -135l-193 -145l-45 18z" />
    <glyph glyph-name="Rcommaaccent.sc" horiz-adv-x="1142" 
d="M461 -203l-47 62l12 63h201l-23 -119l-190 -186l-49 10zM1075 838q0 -210 -336 -299l-116 -35l196 -53l191 -375l71 -21l-8 -57l-164 4l-135 -4l-219 479l-10 6h-96l-72 -411l127 -17l-12 -57l-244 4l-230 -4l2 57l121 17l162 907l-117 16l11 56l229 -2l313 2
q154 2 245 -56.5t91 -156.5zM819 821q0 172 -178 172h-102l-76 -430h174q78 39 130 105.5t52 152.5z" />
    <glyph glyph-name="S.sc" horiz-adv-x="860" 
d="M377 872q0 -51 34.5 -87.5t102.5 -86.5l168 -125q66 -49 110 -103t44 -145t-71 -171t-194 -123l-165 -58q-236 0 -363 88l63 281h72l4 -164q53 -47 141.5 -76.5t180.5 -31.5q119 38 119 141q0 59 -38 99t-98 81l-159 119q-68 47 -111 102.5t-43 139.5q0 168 258 268
l150 57q212 0 329 -76l-51 -264h-65l-29 172q-113 90 -264 90q-125 -36 -125 -127z" />
    <glyph glyph-name="Sacute.002" horiz-adv-x="1024" 
d="M420 1176q0 -105 63.5 -162.5t102.5 -89.5l209 -168q87 -73 133.5 -148t46.5 -194t-82 -224.5t-229 -156.5l-201 -70q-141 0 -252 36t-182 89l71 334h86l4 -203q53 -57 163 -108.5t212 -51.5q176 63 176 244q0 88 -42.5 148.5t-116.5 117.5l-203 160q-78 63 -132 139
t-54 181q0 233 309 352l180 69q245 0 391 -98l-61 -328h-74l-35 220q-114 114 -301 118q-182 -60 -182 -206zM639 1530l162 211h233l-305 -211h-90z" />
    </font>
</defs>
</svg>
