<svg xmlns="http://www.w3.org/2000/svg">
<defs>
<font id="38735b2b08c4e0b9aabbe136d5f92bad" horiz-adv-x='1024' >
  <font-face 
    font-family="GTSectraFine-Regular"
    font-weight="400"
    font-stretch="normal"
    units-per-em="2048"
    panose-1="2 0 5 3 7 0 0 2 0 3"
    ascent="1536"
    descent="-512"
    x-height="961"
    cap-height="1436"
    bbox="-328 -502 4231 1991"
    underline-thickness="102"
    underline-position="-102"
    unicode-range="U+000D-FB04"
  />
<missing-glyph horiz-adv-x="1280" 
d="M1083 791h11l10 14v14l-21 -8v-20zM944 1085l-16 -8v-18l16 -6l4 14zM786 1315l-16 -19v-39l25 -12l6 35zM377 1020l121 24l-9 25zM657 1065l-8 -25l101 -34l6 8zM895 735v-26l90 8l8 18h-98zM586 512h139v12l-139 8v-20zM745 639h-149v-21h149v21zM360 416l-151 102
l41 -47l102 -84zM745 575l-147 15l-12 -27l159 -8v20zM438 930l2 8l29 4l-27 12l4 15l-40 -2l6 -39l28 -31l25 -12l22 10l33 25l12 24l5 27l-45 -8l12 -21l-25 -27l-28 -2zM1145 639l-12 -6l-68 -55l80 -99v160zM688 932l-14 -23h-25l-10 15l23 16l-31 4v12l-47 9l6 -35
l16 -29l41 -18l27 -2l37 20l12 19l10 41l-61 4l14 -11zM825 688l9 62l-111 10l-6 -72h108zM815 1198l10 -12l39 22l17 -4l12 -49h27l12 12l-19 37l35 58l-30 18v10l-52 15v-41l-26 -11v-18l-19 -12zM1012 639l32 -25l17 4l41 31l26 27l23 37l-14 10h-29l-21 6l-28 14l-35 -6
q-4 -27 -7 -46q-3 -18 -5 -52zM717 438l-131 8v-104l131 -12v108zM360 678l-135 80v-15l-4 -26l2 -55v-99l131 -90l-2 123zM985 678l-111 2l-2 -49v-13l-4 -63l39 -6l-16 -125l-98 6l-17 -12l105 -10l-4 -19h-101l-8 -10l109 -14l-13 -72l56 -2l24 162l8 73l-30 6l-2 17
l41 2l10 6l-58 33l5 10l61 -12l-61 30l10 11l43 -11l8 21zM133 831h-43l39 -28l2 -23l-41 15l37 -37l-8 -15l6 -198l22 -25v369l117 -66l15 21l-140 78v36l121 -69l88 -58l58 -28l6 20l-211 131l-27 15l-84 67l4 -159l39 -35v-11zM1200 952l-16 76l-39 102l-41 74l-47 58
l-70 43h-22l34 -39l52 -21l22 -22l6 -68l-51 27l-31 -60l25 -16v-39l31 6l-25 53l31 -10l20 -41l-10 -24l-16 -15h-47l-7 23l-24 4l2 -45h-29l29 -37l-14 -20l-43 10l-7 -56l84 13l17 35l45 -5l12 -57l-33 -27v-30l17 -13l37 25h47l12 23l-37 12l-10 18l18 86h15l28 -41z

<glyph glyph-name="ff" unicode="ff" horiz-adv-x="1302" 
d="M207 885h-154v28l29 35h125v4q0 100 29.5 164t82.5 119l183 192h336l-150 -159h-231l-23 -37q-33 -66 -33 -230v-57h422v27q0 96 23.5 158.5t79.5 121.5l190 203h238v-160h-283l-24 -37q-31 -62 -31 -235v-78h256v-59h-256v-824l227 -14l-6 -49l-309 4l-215 -4l-4 47
l114 16v824h-422v-824l193 -14l-6 -49l-275 4l-239 -4l-4 47l137 16v824z" />
    <glyph glyph-name="fi" unicode="fi" horiz-adv-x="1187" 
d="M401 885v-824l183 -14l-6 -49l-265 4l-239 -4l-4 47l137 16v824h-154v28l29 35h125v23q0 96 24.5 158.5t79.5 121.5l191 203h512v-205h-35l-160 45h-360l-25 -37q-33 -66 -33 -235v-78h383l162 25l62 4v-912l139 -16l-6 -47l-230 4l-209 -4l-6 49l115 14v770l8 62l-65 -8
h-353z" />
    <glyph glyph-name="fl" unicode="fl" horiz-adv-x="1198" 
d="M823 944v373l-98 -23h-266l-25 -37q-33 -66 -33 -235v-78h422zM207 885h-154v28l29 35h125v23q0 96 24.5 158.5t79.5 121.5l191 203h299l153 4h62v-1397l141 -16l-4 -47l-229 4l-222 -4l-4 47l125 16v824h-422v-824l193 -14l-6 -49l-277 4l-233 -4l-6 47l135 16v824z" />
    <glyph glyph-name="ffi" unicode="ffi" horiz-adv-x="1802" 
d="M823 885h-422v-824l193 -14l-6 -49l-277 4l-237 -4l-4 47l137 16v824h-154v28l29 35h125v4q0 100 29.5 164t82.5 119l183 192h336l-150 -159h-231l-23 -37q-33 -66 -33 -230v-57h422v27q0 96 23.5 158.5t79.5 121.5l190 203h512v-205h-35l-159 45h-363l-24 -37
q-31 -62 -31 -235v-78h383l160 25l61 4v-912l141 -16l-6 -47l-227 4l-213 -4l-4 49l114 14v748l7 84l-76 -8h-340v-824l182 -14l-6 -49l-262 4l-242 -4l-4 47l139 16v824z" />
    <glyph glyph-name="ffl" unicode="ffl" horiz-adv-x="1812" 
d="M1436 944v371l-109 -21h-256l-24 -37q-31 -68 -31 -235v-78h420zM207 885h-154v28l29 35h125v4q0 100 29.5 164t82.5 119l183 192h336l-148 -159h-233l-23 -37q-33 -66 -33 -230v-57h422v27q0 96 23.5 158.5t79.5 121.5l188 203h277l161 4h78v-1397l142 -16l-7 -47
l-227 4l-221 -4l-6 47l125 16v824h-420v-824l192 -14l-6 -49l-272 4l-217 -4l-4 47l114 16v824h-422v-824l193 -14l-6 -49l-275 4l-239 -4l-4 47l137 16v824z" />
    <glyph glyph-name="Th" unicode="Th" horiz-adv-x="2162" 
d="M1782 686q0 160 -127 160q-51 0 -101.5 -25.5t-109.5 -62.5l-68 -41v-654l105 -18l-6 -47l-197 4l-217 -4l-6 47l127 18v1313l-43 -6l-422 2v-1306l207 -21l-6 -47l-312 4l-317 -4l-4 47l213 21v1306l-297 -2l-121 -317h-49v383l577 -2l527 2l196 26h45v-684l334 213
q152 0 209 -69q59 -63 59 -240v-619l150 -18l-4 -47l-244 4l-190 -4l-7 47l99 18v623z" />
    <glyph glyph-name="fb" unicode="fb" horiz-adv-x="1759" 
d="M1473 459q0 184 -57.5 284.5t-164.5 100.5q-71 0 -182 -76l-55 -39v-604q63 -86 187 -86t198 118t74 302zM401 1018v-74h252v-59h-252v-822l226 -14l-4 -51l-314 4l-235 -4l-4 47l137 18v822h-154v28l29 35h125v23q0 96 24.5 158.5t79.5 121.5l191 203h268l199 4h45v-665
l282 198q166 0 275.5 -123.5t109.5 -328.5q0 -376 -197 -464t-310 -106q-207 0 -355 86v1262l-57 -23h-305l-25 -39q-31 -62 -31 -237z" />
    <glyph glyph-name="ffb" unicode="ffb" horiz-adv-x="2373" 
d="M2087 459q0 184 -57.5 284.5t-163.5 100.5q-45 0 -88 -20.5t-97 -55.5l-53 -39v-604q61 -86 186 -86t199 118t74 302zM1016 1018v-74h250v-59h-250v-822l227 -14l-6 -51l-315 4l-213 -4l-4 47l118 16v824h-422v-824l193 -14l-6 -49l-279 4l-235 -4l-4 47l137 16v824h-154
v28l29 35h125v4q0 100 29.5 164t82.5 119l183 192h336l-150 -159h-231l-23 -37q-33 -66 -33 -230v-57h422v27q0 96 23.5 158.5t79.5 121.5l190 203h268l209 4h35v-665l283 198q163 0 273 -124t110 -328q0 -379 -198 -465t-310 -105q-199 0 -352 86v1262l-60 -23h-303
l-24 -39q-31 -62 -31 -237z" />
    <glyph glyph-name="ffh" unicode="ffh" horiz-adv-x="2416" 
d="M2036 686q0 160 -121 160q-57 0 -107.5 -25.5t-109.5 -62.5l-68 -41v-654l105 -18l-4 -47l-197 4l-217 -4l-6 47l125 18v1254l-58 -23h-307l-24 -39q-31 -62 -31 -237v-74h250v-59h-250v-822l196 -14l-6 -51l-280 4l-217 -4l-4 47l118 16v824h-422v-824l193 -14l-6 -49
l-279 4l-235 -4l-4 47l137 16v824h-154v28l29 35h125v4q0 100 29.5 164t82.5 119l183 192h336l-150 -159h-231l-23 -37q-33 -66 -33 -230v-57h422v27q0 96 23.5 158.5t79.5 121.5l190 203h275l204 4h35v-680l334 213q219 0 243.5 -110.5t24.5 -200.5v-617l152 -18l-6 -47
l-238 4l-196 -4l-7 47l99 18v623z" />
    <glyph glyph-name="ffj" unicode="ffj" horiz-adv-x="1742" 
d="M1174 -483v180h208l13 39q26 70 26 221v895l6 41l-36 -8h-375v-824l194 -14l-4 -49l-280 4l-217 -4l-7 47l119 16v824h-420v-824l193 -14l-6 -49l-277 4l-237 -4l-4 47l137 16v824h-154v28l29 35h125v4q0 100 29.5 164t82.5 119l183 192h336l-150 -159h-231l-23 -37
q-33 -66 -33 -230v-57h420v27q0 96 24.5 158.5t80.5 121.5l190 203h510v-205h-37l-159 45h-359l-24 -37q-31 -62 -31 -235v-78h379l159 25l62 4v-975q0 -88 -24 -146.5t-81 -121.5l-186 -213h-151z" />
    <glyph glyph-name="ffk" unicode="ffk" horiz-adv-x="2342" 
d="M207 885h-154v28l29 35h125v4q0 100 29.5 164t82.5 119l183 192h336l-150 -159h-231l-23 -37q-33 -66 -33 -230v-57h420v27q0 96 24.5 158.5t80.5 121.5l188 203h275l241 4v-909l27 10l401 338l-102 18v46l174 -3l154 3l4 -46l-123 -18l-428 -346l98 2l408 -492l90 -16
l-6 -47l-173 4l-126 -4l-388 498l-10 24v-457l121 -18l-6 -47l-209 4l-231 -4l-5 47l136 18v1254l-60 -23h-307l-25 -39q-28 -56 -28 -237v-74h250v-59h-250v-822l192 -14l-6 -51l-278 4l-232 -4l-6 47l135 18v822h-420v-824l193 -14l-6 -49l-279 4l-235 -4l-4 47l137 16
v824z" />
    <glyph glyph-name="fh" unicode="fh" horiz-adv-x="1804" 
d="M1421 686q-1 160 -121 160q-58 0 -107.5 -25.5t-109.5 -62.5l-67 -41v-654l106 -18l-6 -47l-192 4l-222 -4l-4 47l125 18v1254l-59 -23h-307l-25 -39q-31 -62 -31 -237v-74h252v-59h-252v-822l195 -14l-4 -51l-283 4l-235 -4l-4 47l137 18v822h-154v28l29 35h125v23
q0 96 24.5 158.5t79.5 121.5l191 203h274l205 4h35v-680l336 213q146 0 206 -67t60 -240v-621l154 -18l-7 -47l-239 4l-197 -4l-6 47l98 18v623z" />
    <glyph glyph-name="fj" unicode="fj" horiz-adv-x="1130" 
d="M809 -43v895l4 41l-37 -8h-375v-822l195 -14l-4 -51l-281 4l-237 -4l-4 47l137 18v822h-154v28l29 35h125v23q0 96 24.5 158.5t79.5 121.5l191 203h510v-205h-37l-160 45h-356l-25 -37q-33 -72 -33 -235v-78h379l162 25l59 4v-975q0 -125 -38.5 -181.5t-65.5 -86.5
l-184 -213h-154v180h209l12 39q29 78 29 221z" />
    <glyph glyph-name="fk" unicode="fk" horiz-adv-x="1730" 
d="M401 1018v-74h252v-59h-252v-822l193 -14l-6 -51l-279 4l-235 -4l-4 47l137 18v822h-154v28l29 35h125v23q0 96 24.5 158.5t79.5 121.5l191 203h274l240 6v-911l26 10l404 338l-103 18v46l173 -3l155 3l4 -46l-123 -18l-430 -346l101 2l407 -492l90 -16l-6 -47l-172 4
l-129 -4l-385 498l-12 24v-457l121 -18l-4 -47l-211 4l-230 -4l-4 47l135 18v1254l-59 -23h-307l-25 -39q-31 -62 -31 -237z" />
    <glyph glyph-name="ft" unicode="ft" horiz-adv-x="1349" 
d="M1120 109q76 0 180 53l23 -43l-272 -150q-207 0 -223.5 99.5t-16.5 160.5v656h-410v-822l213 -14l-6 -51l-293 4l-241 -4l-4 47l137 18v822h-154v28l29 35h125v27q0 96 25.5 156.5t78.5 119.5l191 203h358l-158 -160h-245l-25 -39q-31 -62 -31 -237v-74h414v150l164 123
h25v-275h299v-57h-297v-647q0 -129 114 -129z" />
    <glyph glyph-name="fu" unicode="fu" horiz-adv-x="1763" 
d="M1579 266q0 -105 27 -182l104 6l4 -45l-278 -55l-47 182l-322 -203q-155 0 -217 66q-35 35 -47 90t-12 141v586l4 41l-37 -8h-357v-822l226 -14l-4 -51l-310 4l-239 -4l-4 47l137 18v822h-154v28l29 35h125v23q0 96 24.5 158.5t79.5 121.5l191 203h237v-160h-282l-25 -39
q-31 -62 -31 -237v-74h361l164 21l61 4v-695q0 -161 133 -161q71 0 199 86l65 39v636l-129 -14l-6 51l269 54l61 4v-703z" />
    <glyph glyph-name="fy" unicode="fy" horiz-adv-x="1673" 
d="M748 -481v198h202l211 346l-129 -53l-340 891h-291v-838l226 -14l-4 -51l-306 4l-243 -4l-4 47l137 18v828h-154v29l29 34h125v21q0 96 25.5 156.5t78.5 119.5l191 203h237v-160h-282l-25 -39q-31 -68 -31 -233v-61h627l6 -46l-125 -16l260 -702l9 -72l268 772l-117 18
l6 46l168 -3l156 3l4 -46l-125 -18l-311 -840l-244 -538h-235z" />
    <glyph glyph-name="gg" unicode="gg" horiz-adv-x="1986" 
d="M1620 629q0 189 -71.5 241t-142.5 52t-115 -63.5t-44 -176.5q0 -186 72.5 -235.5t142.5 -49.5t114 60.5t44 171.5zM662 629q0 190 -72 241.5t-144 51.5t-113.5 -63.5t-41.5 -176.5q0 -187 70.5 -236t142.5 -49t115 60.5t43 171.5zM1784 -147q0 116 -180 116h-310
q-61 -66 -74.5 -107.5t-13.5 -74.5q0 -78 70 -129t188 -51h21q122 0 210.5 72t88.5 174zM782 -147q0 116 -176 116h-289q-68 -66 -84 -107.5t-16 -74.5q0 -78 65.5 -129t178.5 -51h20q124 0 212.5 72t88.5 174zM1264 356q-211 71 -211 289q0 115 96 203t301 141
q109 0 192.5 -41t126.5 -112l111 153h107v-180h-150l-41 -23q18 -43 19 -94q0 -133 -94.5 -222t-299.5 -142q-57 0 -106 12l-96 -104q0 -49 28.5 -74t73.5 -25h377q123 0 182 -58.5t59 -136.5q0 -144 -133 -256.5t-358 -185.5q-209 0 -312.5 63.5t-103.5 205.5v36l213 175
q-159 43 -171.5 107.5t-12.5 98.5v23zM858 692q0 -133 -95 -222t-302 -142q-63 0 -107 14l-98 -106q0 -49 28.5 -74t75.5 -25h338q123 0 182.5 -58.5t59.5 -136.5q0 -141 -134 -254.5t-357 -187.5q-205 0 -307.5 63.5t-102.5 205.5v36l229 175q-104 33 -137 85t-33 121v23
l205 147q-94 35 -151.5 105.5t-57.5 167.5q0 131 95 219t300 141q111 0 196 -41t128 -112l105 153h92l-11 -180h-125l-36 -23q20 -47 20 -94z" />
    <glyph glyph-name="ky" unicode="ky" horiz-adv-x="2031" 
d="M1106 -481v198h201l211 346l-129 -53l-338 889l-117 -2l-428 -346l98 2l408 -492l90 -16l-4 -47l-170 2l-131 -2l-387 498l-11 24v-459l119 -16l-4 -47l-211 4l-229 -4l-6 47l137 16v1301l-135 -14l-9 47l275 63l63 4v-913l27 12l401 336l-102 21v43h661l7 -46l-127 -16
l260 -702l10 -72l268 772l-116 18l4 46l174 -3l149 3l6 -46l-127 -18l-315 -840l-240 -538h-233z" />
    <glyph glyph-name="tt" unicode="tt" horiz-adv-x="1351" 
d="M1124 109q77 0 181 53l22 -43l-274 -150q-205 0 -221.5 99.5t-16.5 160.5v656h-434v-652q0 -124 106 -124q74 0 175 53l22 -43l-258 -150q-205 0 -222.5 99.5t-17.5 160.5v656h-176v28l37 37h141v144l164 123h27v-275h438v152l164 123h27v-275h319v-57h-317v-647
q0 -129 114 -129z" />
    <glyph glyph-name="ty" unicode="ty" horiz-adv-x="1632" 
d="M496 109q82 0 174 51l20 -45l-264 -146q-205 0 -222.5 99.5t-17.5 160.5v662h-176v27l37 36h141v140l164 123h27v-256h608l6 -46l-125 -16l260 -702l9 -72l268 772l-117 18l6 46l168 -3l154 3l6 -46l-125 -18l-315 -840l-240 -538h-235v198h202l209 346l-127 -53
l-342 893h-268v-665q0 -129 115 -129z" />
    <glyph glyph-name="www" unicode="www" horiz-adv-x="4241" 
d="M3398 621l-7 69l-225 -655l-172 -68l-239 674v61l-226 -667l-172 -68l-229 654l-4 69l-230 -655l-170 -68l-239 674l2 61l-227 -667l-170 -68l-232 654l-4 69l-227 -655l-170 -68l-330 930l-117 18l6 46l222 -3l206 3l7 -46l-115 -18l239 -717l9 -59l223 649l-45 127
l-96 18l6 46l200 -3l207 3l4 -46l-114 -18l239 -717l9 -59l223 653l-43 123l-117 18l6 46l221 -3l207 3l4 -46l-114 -18l241 -717l8 -59l224 649l-47 127l-95 18l4 46l203 -3l205 3l6 -46l-117 -18l244 -717l8 -59l222 653l-44 123l-116 18l6 46l221 -3l207 3l4 -46
l-115 -18l242 -717l8 -59l223 649l-47 127l-96 18l6 46l201 -3l207 3l6 -46l-115 -18l240 -717l8 -59l262 776l-117 18l5 46l149 -3l170 3l6 -46l-123 -18l-309 -862l-170 -68z" />
    <glyph glyph-name=".notdef" horiz-adv-x="1280" 
d="M1083 791h11l10 14v14l-21 -8v-20zM944 1085l-16 -8v-18l16 -6l4 14zM786 1315l-16 -19v-39l25 -12l6 35zM377 1020l121 24l-9 25zM657 1065l-8 -25l101 -34l6 8zM895 735v-26l90 8l8 18h-98zM586 512h139v12l-139 8v-20zM745 639h-149v-21h149v21zM360 416l-151 102
l41 -47l102 -84zM745 575l-147 15l-12 -27l159 -8v20zM438 930l2 8l29 4l-27 12l4 15l-40 -2l6 -39l28 -31l25 -12l22 10l33 25l12 24l5 27l-45 -8l12 -21l-25 -27l-28 -2zM1145 639l-12 -6l-68 -55l80 -99v160zM688 932l-14 -23h-25l-10 15l23 16l-31 4v12l-47 9l6 -35
l16 -29l41 -18l27 -2l37 20l12 19l10 41l-61 4l14 -11zM825 688l9 62l-111 10l-6 -72h108zM815 1198l10 -12l39 22l17 -4l12 -49h27l12 12l-19 37l35 58l-30 18v10l-52 15v-41l-26 -11v-18l-19 -12zM1012 639l32 -25l17 4l41 31l26 27l23 37l-14 10h-29l-21 6l-28 14l-35 -6
q-4 -27 -7 -46q-3 -18 -5 -52zM717 438l-131 8v-104l131 -12v108zM360 678l-135 80v-15l-4 -26l2 -55v-99l131 -90l-2 123zM985 678l-111 2l-2 -49v-13l-4 -63l39 -6l-16 -125l-98 6l-17 -12l105 -10l-4 -19h-101l-8 -10l109 -14l-13 -72l56 -2l24 162l8 73l-30 6l-2 17
l41 2l10 6l-58 33l5 10l61 -12l-61 30l10 11l43 -11l8 21zM133 831h-43l39 -28l2 -23l-41 15l37 -37l-8 -15l6 -198l22 -25v369l117 -66l15 21l-140 78v36l121 -69l88 -58l58 -28l6 20l-211 131l-27 15l-84 67l4 -159l39 -35v-11zM1200 952l-16 76l-39 102l-41 74l-47 58
l-70 43h-22l34 -39l52 -21l22 -22l6 -68l-51 27l-31 -60l25 -16v-39l31 6l-25 53l31 -10l20 -41l-10 -24l-16 -15h-47l-7 23l-24 4l2 -45h-29l29 -37l-14 -20l-43 10l-7 -56l84 13l17 35l45 -5l12 -57l-33 -27v-30l17 -13l37 25h47l12 23l-37 12l-10 18l18 86h15l28 -41z
M672 1130h16l21 46l22 16l-10 12l-6 17l2 43l-62 -21l-20 -16l-17 10l9 43l28 20l23 23l78 -4l24 27l-8 16h-100l-92 -27l-109 -53l-59 -47l-52 -70l60 25l26 -31l-34 -41l-21 -6l35 -6h10l74 49h65l37 -25l17 7l8 28l14 11l21 -9v-37zM1014 817l-8 14h-420l-135 -6l-15 -18
l-12 -90l-98 41l-23 -8l117 -56l2 -92l-10 -149v-187l37 8l4 82l84 -6l6 19l-90 12v33l98 -13l2 19l-96 14l2 45l88 -6l6 12l-92 19l6 192h151l23 21h-162l4 18h152l16 15h-168l4 45l240 8l287 -8v22zM1239 942l-6 -84l-16 -72l-25 -63l-6 -320l-43 -14l-103 143l-55 -14
l-39 -287l-65 9l-15 -9l-8 -192l62 -39l32 -29l-6 -30l-61 2l-49 37h-29l-16 16l14 156l-8 96l-125 2l-6 -107l-4 -114v-41l-31 -13l-17 13l-61 -21h-66l-2 23l23 22l102 43l-12 197l-201 -12l-301 286l-8 236l-27 20l-20 74v53l31 17l-6 159l188 -127l18 97l21 73l45 72
l57 72l80 59l160 60h45l-139 45l8 34h14l162 -40l-8 104l33 25h65l39 -11l59 -51l66 -16l65 -21l31 -26v-41l-41 -64l62 -57l57 -66l37 -69l31 -84z" />
    <glyph glyph-name=".null" horiz-adv-x="0" 
 />
    <glyph glyph-name=".null" horiz-adv-x="0" 
 />
    <glyph glyph-name="nonmarkingreturn" unicode="&#xd;" horiz-adv-x="655" 
 />
    <glyph glyph-name="space" unicode=" " horiz-adv-x="489" 
 />
    <glyph glyph-name="exclam" unicode="!" horiz-adv-x="561" 
d="M326 211l55 -10l10 -107l-14 -94l-141 -10l-56 10l-10 111l12 90zM371 838l-64 -392h-57l-62 390l-14 618h211z" />
    <glyph glyph-name="quotedbl" unicode="&#x22;" horiz-adv-x="757" 
d="M102 1352l17 94l147 10l62 -10l10 -111l-14 -100l-158 -309l-45 16q6 14 22.5 57t49 126.5t32.5 103.5l-112 6zM432 1352l17 94l149 10l59 -10l9 -111l-13 -100l-157 -309l-47 16q35 81 69.5 179t34.5 108l-111 6z" />
    <glyph glyph-name="numbersign" unicode="#" horiz-adv-x="1267" 
d="M961 1341l-52 -413h277l-10 -74h-275l-45 -367h274l-8 -75h-276l-49 -412h-80l49 412h-330l-49 -412h-80l49 412h-274l8 75h277l45 367h-275l10 74h273l51 413h80l-51 -413h329l52 413h80zM446 487h330l45 367h-329z" />
    <glyph glyph-name="dollar" unicode="$" horiz-adv-x="1132" 
d="M848 310q0 101 -55.5 169t-163.5 123v-547q104 16 161.5 85t57.5 170zM317 1168q0 -95 55.5 -152.5t147.5 -104.5l43 -22v504q-115 -4 -180.5 -67t-65.5 -158zM127 1065q0 154 115.5 252t320.5 143v139h66v-131q195 -6 352 -100v-305h-61l-84 223q-87 87 -207 103v-535
l131 -66q125 -66 201.5 -150.5t76.5 -221.5q0 -213 -147.5 -302t-261.5 -124v-154h-66v135l-28 -6q-137 0 -235.5 35t-184.5 94l-23 309h82l84 -202q53 -63 132 -105.5t173 -44.5v586l-184 96q-125 64 -188.5 137.5t-63.5 194.5z" />
    <glyph glyph-name="percent" unicode="%" horiz-adv-x="1640" 
d="M1548 357q0 -155 -85.5 -245.5t-278.5 -121.5q-140 0 -225 96.5t-85 251.5q0 156 88.5 244t276.5 123q141 0 225 -96.5t84 -251.5zM1200 653q-162 -1 -162 -295q0 -136 44 -227.5t136 -91.5q166 0 166 283q0 235 -68.5 283t-115.5 48zM1298 1444h99l-1012 -1454h-98z
M766 1098q0 -156 -88.5 -246t-276.5 -119q-141 0 -225 94.5t-84 251.5q0 156 88 244t277 123q142 0 225.5 -96t83.5 -252zM436 782q166 0 166 281q0 238 -68.5 286t-117.5 48q-82 0 -121 -81t-39 -215t45 -226.5t135 -92.5z" />
    <glyph glyph-name="ampersand" unicode="&#x26;" horiz-adv-x="1435" 
d="M756 1186q0 92 -48.5 152.5t-129.5 60.5t-130 -52.5t-49 -146.5t79 -193.5t114 -142.5q100 76 132 153t32 169zM289 412q0 -118 82.5 -202.5t207.5 -84.5t259 149v2l-383 439q-166 -111 -166 -303zM94 328q0 210 133 303.5t187 128.5l-4 4q-98 111 -152.5 191.5
t-54.5 166.5q0 127 98 208t305 140q160 0 257.5 -79.5t97.5 -192.5q0 -149 -128 -240.5t-202 -136.5l336 -387l194 258l-117 17l7 43l166 -2l167 2l5 -43l-136 -17l-239 -307l282 -322l107 -16l-6 -47l-172 2l-144 -2l-196 225q-92 -99 -187.5 -165t-150.5 -95
q-194 0 -323.5 100t-129.5 263z" />
    <glyph glyph-name="quotesingle" unicode="'" horiz-adv-x="419" 
d="M102 1350l17 96l147 8l62 -8l10 -113l-14 -100l-158 -309l-45 18q6 12 22.5 55t49 126.5t32.5 103.5l-112 6z" />
    <glyph glyph-name="parenleft" unicode="(" horiz-adv-x="575" 
d="M250 506q0 -270 65.5 -516t229.5 -445l-31 -28q-238 270 -330 477t-92 512t94 515t328 460l31 -29q-232 -278 -263.5 -538.5t-31.5 -407.5z" />
    <glyph glyph-name="parenright" unicode=")" horiz-adv-x="575" 
d="M326 506q0 293 -65.5 521t-229.5 425l30 29q237 -253 329.5 -462.5t92.5 -512.5q0 -304 -90.5 -509.5t-331.5 -479.5l-30 28q295 353 295 961z" />
    <glyph glyph-name="asterisk" unicode="*" horiz-adv-x="837" 
d="M303 844l-137 98l213 193l-287 32l51 160l246 -141l-53 278h166l-56 -278l246 139l53 -160l-282 -30l209 -191l-135 -100l-119 256z" />
    <glyph glyph-name="plus" unicode="+" 
d="M590 0v475h-484v92h484v488h90v-488h483v-92h-483v-475h-90z" />
    <glyph glyph-name="comma" unicode="," horiz-adv-x="456" 
d="M156 119l12 96l149 12l64 -12l8 -115l-14 -100l-158 -295l-45 19q6 14 21.5 54t46 116.5t30.5 97.5l-104 8z" />
    <glyph glyph-name="hyphen" unicode="-" horiz-adv-x="788" 
d="M82 614h625v-98h-625v98z" />
    <glyph glyph-name="period" unicode="." horiz-adv-x="462" 
d="M309 227l60 -12l12 -115l-16 -100l-152 -10l-57 10l-13 119l17 96z" />
    <glyph glyph-name="slash" unicode="/" horiz-adv-x="974" 
d="M72 -471h-92l927 1941h88z" />
    <glyph glyph-name="zero" unicode="0" horiz-adv-x="1179" 
d="M379 175.5q78 -128.5 233 -128.5q128 0 196.5 114.5t68.5 284.5q0 324 -115 394.5t-190 70.5t-124 -31.5t-98 -115t-49 -272.5q0 -188 78 -316.5zM82 463q0 219 139 345t395 183q209 0 345.5 -138t136.5 -357t-137.5 -346t-397.5 -181q-206 0 -343.5 137.5t-137.5 356.5z
" />
    <glyph glyph-name="one" unicode="1" horiz-adv-x="901" 
d="M569 977v-907l297 -25l-4 -47l-393 4l-397 -4l-6 47l303 25v727l6 34l-76 -32l-217 -62l-23 47l457 193h53z" />
    <glyph glyph-name="two" unicode="2" horiz-adv-x="1009" 
d="M948 178v-39l-55 -139h-825l-27 55l291 224q251 190 285 287.5t34 144.5q0 98 -48.5 148t-122.5 50t-138 -32l-66 -246h-163v207l397 159q182 0 270 -75.5t86 -186.5q0 -141 -107.5 -249.5t-301.5 -219.5l-209 -112l162 24h538z" />
    <glyph glyph-name="three" unicode="3" horiz-adv-x="970" 
d="M670 -14q0 118 -99.5 198t-285.5 80l-13 43l101 49q141 66 192 145t51 181t-53 161.5t-130 59.5t-136 -35l-74 -239h-160v215l433 153q162 0 244.5 -76t82.5 -186q0 -238 -325 -362q172 -8 277.5 -98t105.5 -212q0 -217 -151.5 -303t-235.5 -125l-230 -106h-209v182h455
q160 106 160 275z" />
    <glyph glyph-name="four" unicode="4" horiz-adv-x="1126" 
d="M821 80h281v-82h-281v-469h-194v469h-559l-48 53l646 914h229v-47l-764 -852l72 14h424v289l147 102l47 12v-403z" />
    <glyph glyph-name="five" unicode="5" horiz-adv-x="980" 
d="M698 55q0 179 -95 221.5t-143 42.5q-74 0 -122.5 -12t-116.5 -45l-76 -35l-32 21l80 719h704l-4 -58l-33 -121h-618l-56 -481l324 170q208 0 305.5 -105t97.5 -221q0 -201 -110.5 -308.5t-315.5 -200.5l-227 -111h-172v184h404q206 119 206 340z" />
    <glyph glyph-name="six" unicode="6" horiz-adv-x="1122" 
d="M819 424q0 178 -60.5 263t-146.5 85q-53 0 -104 -31.5t-117 -83.5l-72 -57q7 -386 99 -470.5t160 -84.5q115 0 178 100.5t63 278.5zM1028 498q0 -408 -493 -529q-206 0 -321.5 165.5t-115.5 410.5q0 481 273.5 672.5t476.5 259.5l18 -52q-314 -135 -425 -312t-122 -445
v-2l332 254q185 0 281 -124.5t96 -297.5z" />
    <glyph glyph-name="seven" unicode="7" horiz-adv-x="995" 
d="M41 967h887l26 -29l-585 -1405h-172v41l598 1184l24 26h-778v183z" />
    <glyph glyph-name="eight" unicode="8" horiz-adv-x="1116" 
d="M635 827q149 125 149 304t-89 220.5t-163 41.5t-130 -53.5t-56 -150.5t77 -181t212 -181zM469 686q-164 -123 -164 -289t79 -260t179 -94t173 61t73 175t-75 192t-265 215zM1016 379q0 -166 -120 -261t-361 -149q-186 0 -310.5 99t-124.5 262q0 127 87 224t231 165
q-143 98 -211 188t-68 193q0 135 110.5 224t328.5 140q197 0 305 -78.5t108 -206.5t-84 -220.5t-225 -165.5q174 -118 254 -209.5t80 -204.5z" />
    <glyph glyph-name="nine" unicode="9" horiz-adv-x="1116" 
d="M522 922q-111 0 -175 -97.5t-64 -269.5t61 -263t141 -91q79 0 129 36.5t88 67.5l78 62q-7 394 -98.5 474.5t-159.5 80.5zM74 473q0 401 491 524q207 0 323 -163.5t116 -413.5q0 -468 -273.5 -659t-472.5 -259l-20 52q436 191 487 413.5t55 329.5v2l-325 -250
q-186 0 -283.5 128t-97.5 296z" />
    <glyph glyph-name="colon" unicode=":" horiz-adv-x="493" 
d="M319 987l60 -10l12 -115l-16 -100l-152 -10l-57 10l-12 117l16 98zM319 227l60 -12l12 -115l-16 -100l-152 -10l-57 10l-12 119l16 96z" />
    <glyph glyph-name="semicolon" unicode=";" horiz-adv-x="534" 
d="M170 977l149 10l60 -10l12 -115l-16 -100l-152 -10l-57 10l-12 117zM172 -276q102 238 102 268l-108 8l-12 119l14 96l151 12l60 -12l12 -115l-16 -100l-156 -295z" />
    <glyph glyph-name="less" unicode="&#x3c;" 
d="M1167 1108v-107l-936 -413l936 -412v-108l-1065 481v78z" />
    <glyph glyph-name="equal" unicode="=" 
d="M1163 260h-1057v90h1057v-90zM1163 655h-1057v90h1057v-90z" />
    <glyph glyph-name="greater" unicode="&#x3e;" 
d="M1167 627v-78l-1065 -481v108l936 412l-936 413v107z" />
    <glyph glyph-name="question" unicode="?" horiz-adv-x="843" 
d="M223 -4l-10 110l14 91l142 10l55 -10l10 -109l-14 -92l-141 -12zM530 1114q0 113 -50 190.5t-169 84.5l-67 -213h-121v249l194 25q209 -15 314.5 -112t105.5 -232q0 -189 -101 -260.5t-163 -100.5l-102 -49l-15 -258h-75l-25 277l78 51q98 68 147 151.5t49 196.5z" />
    <glyph glyph-name="at" unicode="@" horiz-adv-x="1871" 
d="M537 505q0 152 99 286.5t259 207.5l221 101l230 -131l-166 -740q72 2 149.5 43t142 115t106.5 178.5t42 297t-155.5 344t-424.5 151.5q-141 0 -278 -52.5t-245.5 -152.5t-175.5 -245.5t-67 -327.5q0 -342 214 -527.5t520 -185.5q172 0 378 110l21 -34
q-182 -102 -312 -136t-180 -40q-365 0 -589 213.5t-224 545.5q0 288 192.5 519.5t508.5 330.5l192 58q370 0 577.5 -169t207.5 -436q0 -133 -52.5 -249.5t-138.5 -203.5t-198.5 -140.5t-231.5 -55.5l-119 131l70 230q-182 -225 -301 -365q-110 4 -191 90.5t-81 238.5z
M707 532q0 -72 44 -129t121 -69l228 252l71 305l-172 113q-156 -73 -224 -199.5t-68 -272.5z" />
    <glyph glyph-name="A" unicode="A" horiz-adv-x="1476" 
d="M897 563l-166 475l-57 211l-240 -686h463zM16 45l154 21l496 1339l135 51l508 -1393l153 -18l-4 -47l-280 4l-277 -4l-4 47l172 21l-149 432h-506l-152 -432l176 -21l-4 -47l-215 4l-196 -4z" />
    <glyph glyph-name="B" unicode="B" horiz-adv-x="1298" 
d="M991 406q0 152 -89 235.5t-234 83.5h-217v-659l182 -13q186 0 272 100.5t86 252.5zM633 786q128 0 204 94t76 224q0 129 -65.5 201.5t-188.5 74.5l-208 -12v-582h182zM1219 416q0 -364 -543 -418l-322 4l-288 -4l-7 47l174 21v1304l-174 19l7 47l299 -4l376 4
q185 0 291.5 -91t106.5 -225t-111 -234t-270 -120q226 -4 343.5 -103.5t117.5 -246.5z" />
    <glyph glyph-name="C" unicode="C" horiz-adv-x="1415" 
d="M1319 1028h-68l-98 238q-124 135 -337 135t-352.5 -172.5t-139.5 -479.5t141 -507.5t395 -200.5q92 0 165 37t118 82l121 268h67l-26 -317q-254 -117 -498 -146q-141 0 -273.5 47t-293 195.5t-160.5 487.5t203.5 537.5t554.5 235.5q249 0 481 -133v-307z" />
    <glyph glyph-name="D" unicode="D" horiz-adv-x="1497" 
d="M1050 1203.5q-130 178.5 -384 178.5l-209 -14v-1296l250 -17q212 0 342.5 186t130.5 485t-130 477.5zM1239 220.5q-178 -199.5 -516 -222.5l-361 4l-296 -4l-7 47l181 21v1304l-181 19l7 47l294 -4l373 4q321 0 502.5 -180t181.5 -508t-178 -527.5z" />
    <glyph glyph-name="E" unicode="E" horiz-adv-x="1261" 
d="M59 45l174 21v1304l-174 19l7 47l282 -4l815 4l11 -371h-46l-127 305l-550 2v-592l305 4l86 230h47l-10 -256l10 -269h-47l-86 230l-305 4v-662l567 5l137 315h49l-37 -383l-821 4l-280 -4z" />
    <glyph glyph-name="F" unicode="F" horiz-adv-x="1202" 
d="M59 45l174 21v1304l-174 19l7 47l282 -4l813 4l10 -377h-45l-129 311l-546 2v-620l305 4l86 241h47l-10 -270l10 -278h-47l-86 241l-305 4v-628l208 -21l-4 -47l-309 4l-280 -4z" />
    <glyph glyph-name="G" unicode="G" horiz-adv-x="1501" 
d="M280.5 1231.5q200.5 195.5 555.5 236.5q270 0 479 -133v-307h-62l-96 236q-47 49 -130 93t-203 44q-233 0 -366.5 -183t-133.5 -479q0 -297 138 -499.5t374 -202.5q94 0 165.5 37t108.5 78v438l-174 22l4 47l268 -4l240 4l4 -47l-125 -22v-479q-175 -78 -317.5 -109
t-218.5 -37q-301 0 -506 195.5t-205 535.5t200.5 535.5z" />
    <glyph glyph-name="H" unicode="H" horiz-adv-x="1542" 
d="M451 778h647v592l-172 19l6 47l276 -4l269 4l6 -47l-168 -19v-1304l168 -21l-6 -47l-269 4l-276 -4l-6 47l172 21v645h-647v-645l165 -21l-6 -47l-268 4l-276 -4l-7 47l174 21v1304l-174 19l7 47l276 -4l268 4l6 -47l-165 -19v-592z" />
    <glyph glyph-name="I" unicode="I" horiz-adv-x="681" 
d="M342 2l-276 -4l-7 49l174 19v1304l-174 19l7 47l276 -4l276 4l5 -47l-172 -19v-1304l172 -19l-5 -49z" />
    <glyph glyph-name="J" unicode="J" horiz-adv-x="694" 
d="M479 219q0 -135 -36.5 -220t-96.5 -151l-184 -206h-160v184h223l13 45q18 61 20 153.5t2 165.5v1180l-213 19l4 47l318 -4l272 4l4 -47l-166 -19v-1151z" />
    <glyph glyph-name="K" unicode="K" horiz-adv-x="1435" 
d="M1298 63l117 -18l-4 -47l-209 4l-143 -4l-580 680l-28 47v-659l155 -21l-4 -47l-260 4l-276 -4l-7 47l174 21v1304l-174 19l7 47l276 -4l260 4l4 -47l-155 -19v-614l45 32l612 582l-168 19l6 47l213 -4l197 4l6 -47l-166 -23l-631 -602l109 10z" />
    <glyph glyph-name="L" unicode="L" horiz-adv-x="1177" 
d="M346 2l-280 -4l-7 47l174 21v1304l-174 19l7 47l276 -4l276 4l5 -47l-172 -19v-1307l514 5l143 319h49l-35 -389z" />
    <glyph glyph-name="M" unicode="M" horiz-adv-x="1884" 
d="M66 45l161 21v1300l-168 23l7 47l200 -4l217 4l443 -1112l22 -97l467 1209l203 -4l201 4l6 -47l-170 -19v-1304l166 -21l-6 -47l-263 4l-272 -4l-6 47l164 21v1060l12 189l-510 -1321h-119l-448 1143l-64 188v-1259l168 -21l-10 -47l-193 4l-204 -4z" />
    <glyph glyph-name="N" unicode="N" horiz-adv-x="1466" 
d="M1272 -8h-115l-799 1206l-43 113v-1245l172 -21l-6 -47l-200 4l-215 -4l-7 47l174 21v1296l-170 27l7 47l188 -4l191 4l700 -1043l43 -90v1067l-172 19l4 47l201 -4l215 4l6 -47l-174 -19v-1378z" />
    <glyph glyph-name="O" unicode="O" horiz-adv-x="1576" 
d="M457.5 251q133.5 -206 355.5 -206t332 178t110 465t-133 495t-354 208t-332.5 -177.5t-111.5 -467.5q0 -289 133.5 -495zM80 688q0 334 178 527.5t553 252.5q305 0 496.5 -205t191.5 -528t-178 -516.5t-553 -253.5q-301 0 -444.5 151.5t-193.5 285t-50 286.5z" />
    <glyph glyph-name="P" unicode="P" horiz-adv-x="1200" 
d="M451 698h167q145 0 233.5 99.5t88.5 251.5q0 234 -109.5 283.5t-187.5 49.5l-192 -14v-670zM1032.5 782q-143.5 -103 -362.5 -149h-219v-567l208 -21l-4 -47l-311 4l-278 -4l-7 47l174 21v1304l-174 19l7 47l274 -4l393 4q195 0 319 -95t124 -276q0 -180 -143.5 -283z
" />
    <glyph glyph-name="Q" unicode="Q" horiz-adv-x="1576" 
d="M457.5 251q133.5 -206 355.5 -206t332 178t110 465t-133 495t-354 208t-332.5 -177.5t-111.5 -467.5q0 -289 133.5 -495zM80 688q0 334 178 527.5t553 252.5q305 0 496.5 -205t191.5 -519q0 -313 -161.5 -504t-495.5 -260l237 -64l244 -192l104 -23l-4 -47h-311l-344 311
q-301 0 -444.5 151.5t-193.5 285t-50 286.5z" />
    <glyph glyph-name="R" unicode="R" horiz-adv-x="1366" 
d="M451 729h129q168 0 261 93t93 243t-82 231.5t-211 85.5l-190 -14v-639zM1171 1079q0 -308 -483 -399l203 -70l358 -544l107 -23l-4 -45l-181 4l-141 -4l-409 643l-25 29h-145v-604l161 -21l-4 -47l-266 4l-276 -4l-7 47l174 21v1304l-174 19l7 47l274 -4l383 4
q306 0 377 -131t71 -226z" />
    <glyph glyph-name="S" unicode="S" horiz-adv-x="1118" 
d="M840 304q0 107 -55.5 176t-166.5 124l-247 129q-125 64 -188.5 137.5t-63.5 194.5q0 160 126 261t347 142q211 0 381 -100v-305h-62l-84 223q-107 107 -242 107t-205.5 -62.5t-70.5 -160.5t55.5 -155t147.5 -104l240 -123q125 -66 201.5 -150.5t76.5 -221.5
q0 -333 -504 -451q-137 0 -235 35t-185 94l-22 309h82l84 -202q126 -150 328 -150q112 0 187 73t75 180z" />
    <glyph glyph-name="T" unicode="T" horiz-adv-x="1206" 
d="M27 1053v383l577 -4l576 4v-383h-50l-120 317l-297 2v-1306l209 -21l-4 -47l-314 4l-319 -4l-4 47l215 21v1306l-299 -2l-121 -317h-49z" />
    <glyph glyph-name="U" unicode="U" horiz-adv-x="1419" 
d="M735 -35q-536 0 -536 539v866l-172 19l4 47l278 -4l275 4l6 -47l-168 -19v-891q0 -296 135 -356t225 -60q160 0 250 115t90 305v887l-172 19l4 47l224 -4l211 4l6 -47l-168 -19v-874q0 -215 -106 -343.5t-386 -187.5z" />
    <glyph glyph-name="V" unicode="V" horiz-adv-x="1468" 
d="M686 -29l-524 1401l-152 17l6 47l279 -4l276 4l4 -45l-167 -21l376 -1073l21 -94l409 1167l-178 21l6 45l220 -4l192 4l4 -47l-155 -17l-492 -1352z" />
    <glyph glyph-name="W" unicode="W" horiz-adv-x="2035" 
d="M143 1372l-120 17l4 47l245 -4l269 4l4 -47l-170 -19l321 -1030l17 -104l260 856l-92 280l-127 17l4 47l252 -4l268 4l4 -47l-170 -19l322 -1034l18 -98l348 1134l-176 17l4 47l217 -4l164 4l6 -47l-127 -17l-430 -1354l-123 -38l-301 917l-12 92l-301 -971l-123 -38z
" />
    <glyph glyph-name="X" unicode="X" horiz-adv-x="1452" 
d="M1421 47l-6 -49l-272 4l-287 -4l-4 49l164 19l-301 481l-37 71l-373 -552l193 -19l-6 -49l-236 4l-229 -4l-7 49l185 19l428 608l-449 698l-147 19l6 45l281 -4l282 4l4 -45l-161 -21l292 -475l31 -68l363 543l-199 19l4 47l246 -4l221 4l4 -47l-178 -17l-414 -596
l463 -710z" />
    <glyph glyph-name="Y" unicode="Y" horiz-adv-x="1433" 
d="M836 573l2 -507l227 -21l-6 -47l-330 4l-338 -4l-4 47l234 21v495l-457 811l-154 19l6 45l285 -4l281 4l6 -45l-178 -21l366 -655l21 -66l381 721l-189 21l6 45l230 -4l192 4l6 -45l-153 -19z" />
    <glyph glyph-name="Z" unicode="Z" horiz-adv-x="1169" 
d="M100 1057v377h998l10 -54l-780 -1251l-58 -68l627 5l158 327h57l-35 -393h-1028l-10 59l776 1246l62 69l-588 -6l-133 -311h-56z" />
    <glyph glyph-name="bracketleft" unicode="[" horiz-adv-x="659" 
d="M316 916l1 -304l5 -1022l266 -16v-47l-246 4l-168 -4v1937l164 -2l250 2v-45l-266 -16q-2 -223 -4 -346t-2 -141z" />
    <glyph glyph-name="backslash" unicode="\" horiz-adv-x="882" 
d="M-68 1470h91l927 -1941h-92z" />
    <glyph glyph-name="bracketright" unicode="]" horiz-adv-x="659" 
d="M342 -410l6 1002l-4 405q-2 178 -2 406l-266 16v45l256 -2l153 2v-1937l-151 4l-258 -4v47z" />
    <glyph glyph-name="asciicircum" unicode="^" horiz-adv-x="770" 
d="M207 942h-105l256 502h58l252 -502h-101l-180 389z" />
    <glyph glyph-name="underscore" unicode="_" horiz-adv-x="1157" 
d="M10 -152h1137v-79h-1137v79z" />
    <glyph glyph-name="grave" unicode="`" horiz-adv-x="1024" 
d="M559 1118l-264 355h207l108 -355h-51z" />
    <glyph glyph-name="a" unicode="a" horiz-adv-x="956" 
d="M801 250q0 -96 35 -168l104 8l6 -45l-282 -57l-52 168l-264 -187q-129 0 -208 66.5t-79 184.5t91 204l452 145v121q0 111 -27 157t-109 46t-157 -29l-41 -196h-178v155l377 168q193 0 262.5 -67t69.5 -250v-424zM262 266q0 -86 38 -126t97 -40t135 58l72 49v313
l-274 -110q-68 -58 -68 -144z" />
    <glyph glyph-name="b" unicode="b" horiz-adv-x="1103" 
d="M598 844q-47 0 -90 -20.5t-96 -55.5l-54 -39v-604q61 -86 187 -86t199 118t73 302t-57.5 284.5t-161.5 100.5zM1024 539q0 -485 -506 -570q-133 0 -212 25.5t-142 60.5v1305l-135 -14l-9 49l277 63l61 4v-669l283 198q162 0 272.5 -123t110.5 -329z" />
    <glyph glyph-name="c" unicode="c" horiz-adv-x="913" 
d="M530 -31q-201 0 -327.5 128.5t-126.5 353.5t137.5 360t347.5 180q104 0 180 -42t101 -62v-197h-154l-65 201q-39 25 -95 25q-112 -1 -187 -99.5t-75 -279.5t92.5 -297.5t241.5 -116.5q118 0 242 88l20 -45q-145 -123 -332 -197z" />
    <glyph glyph-name="d" unicode="d" horiz-adv-x="1134" 
d="M350.5 806q-71.5 -110 -71.5 -290t62.5 -289.5t162.5 -109.5q75 0 182 78l51 41v600q-64 82 -190 81q-125 -1 -196.5 -111zM932 252q0 -94 35 -166l123 8l6 -47l-293 -59l-55 176l-275 -195q-179 0 -291 132t-112 349t122.5 358.5t354.5 182.5q88 0 190 -55v424l-135 -12
l-8 45l276 65l62 4v-1210z" />
    <glyph glyph-name="e" unicode="e" horiz-adv-x="962" 
d="M674 612q0 151 -29 204.5t-66.5 75t-97.5 21.5q-102 0 -156.5 -87t-64.5 -228v-6l414 10v10zM70 452q0 223 124 357.5t334 181.5q183 0 271 -102.5t88 -276.5v-71h-627q4 -197 99.5 -306.5t254.5 -109.5q119 0 256 86l23 -47q-148 -116 -354 -195q-196 0 -332.5 130
t-136.5 353z" />
    <glyph glyph-name="f" unicode="f" horiz-adv-x="688" 
d="M401 944h256v-59h-256v-822l226 -14l-4 -51l-316 4l-233 -4l-4 47l137 18v822h-154v28l29 35h125v23q0 96 24.5 158.5t79.5 121.5l191 203h237v-160h-282l-25 -39q-31 -62 -31 -237v-74z" />
    <glyph glyph-name="g" unicode="g" horiz-adv-x="1038" 
d="M662 627q0 192 -72 243.5t-142 51.5t-113.5 -63.5t-43.5 -178.5q0 -186 71.5 -234.5t141.5 -48.5t114 60.5t44 169.5zM217 -213q0 -80 69.5 -130t182.5 -48h23q141 0 236 72.5t95 168.5q0 57 -40 87t-136 30h-332q-66 -66 -82 -106.5t-16 -73.5zM358 137h379
q125 0 184.5 -58.5t59.5 -135.5q0 -141 -142 -256.5t-372 -186.5q-211 0 -319.5 63.5t-108.5 207.5v34l229 175q-104 33 -137 85t-33 121v23l203 147q-92 35 -149.5 105.5t-57.5 167.5q0 131 95.5 219t302.5 141q109 0 193.5 -41t127.5 -112l109 153h106v-178h-149l-41 -25
q20 -47 20 -94q0 -133 -95 -222t-302 -142q-67 0 -107 14l-96 -104q0 -101 100 -101z" />
    <glyph glyph-name="h" unicode="h" horiz-adv-x="1187" 
d="M807 686q0 160 -129 160q-51 0 -100.5 -25.5t-108.5 -62.5l-72 -41v-654l107 -18l-6 -47l-193 4l-231 -4l-6 47l135 18v1299l-133 -14l-7 47l273 63l61 4v-684l336 213q161 0 217 -78q54 -68 54 -241v-609l149 -18l-6 -47l-240 4l-194 -4l-6 47l100 18v623z" />
    <glyph glyph-name="i" unicode="i" horiz-adv-x="581" 
d="M211 1417l143 10l56 -10l12 -108l-21 -99l-143 -10l-53 10l-15 113zM307 2l-231 -4l-4 47l133 18v809l-137 -22l-7 49l277 70l61 4v-910l142 -18l-4 -47z" />
    <glyph glyph-name="j" unicode="j" horiz-adv-x="542" 
d="M209 -43v915l-137 -22l-9 49l279 70l61 4v-975q0 -89 -25 -147t-81 -121l-184 -213h-156v180h211l12 39q29 78 29 221zM213 1417l143 10l56 -10l10 -108l-21 -99l-143 -10l-53 10l-12 113z" />
    <glyph glyph-name="k" unicode="k" horiz-adv-x="1112" 
d="M924 2l-127 -4l-373 477l-25 45v-457l119 -18l-4 -47l-211 4l-229 -4l-4 47l135 18v1297l-135 -14l-9 49l277 63l61 4v-915l52 31l376 319l-100 18v46l166 -3l160 3l6 -46l-125 -18l-428 -346l98 2l410 -492l88 -16l-6 -47z" />
    <glyph glyph-name="l" unicode="l" horiz-adv-x="569" 
d="M303 2l-229 -4l-6 47l135 18v1297l-133 -14l-7 49l273 63l61 4v-1399l142 -18l-7 -47z" />
    <glyph glyph-name="m" unicode="m" horiz-adv-x="1753" 
d="M788 686q0 160 -116 160q-83 0 -205 -86l-66 -45v-652l99 -18l-4 -47l-193 4l-227 -4l-6 47l137 18v809l-139 -20l-7 45l279 72l55 4l4 -195l318 213q188 0 223 -77.5t39 -137.5l321 215q163 -8 216 -76t53 -241v-611l149 -18l-4 -47l-239 4l-197 -4l-6 47l100 18v623
q0 160 -121 160q-78 0 -200 -86l-66 -45v-652l94 -18l-6 -47l-184 4l-191 -4l-4 47l94 18v623z" />
    <glyph glyph-name="n" unicode="n" horiz-adv-x="1189" 
d="M807 686q0 160 -124 160q-58 0 -107.5 -25.5t-106.5 -62.5l-68 -43v-652l105 -18l-6 -47l-195 4l-229 -4l-6 47l137 18v809l-139 -22l-7 47l279 72l53 4l6 -197l336 215q159 -4 211 -67q58 -62 58 -234v-627l151 -18l-6 -47l-238 4l-198 -4l-4 47l98 18v623z" />
    <glyph glyph-name="o" unicode="o" horiz-adv-x="1087" 
d="M359 176q83 -133 212 -133q174 0 207 157.5t33 257.5q0 201 -82.5 329t-204.5 128t-185 -108t-63 -303t83 -328zM70 457q0 434 501 534q200 0 324.5 -139.5t124.5 -349.5q0 -333 -193.5 -422.5t-308.5 -110.5q-197 0 -322.5 138.5t-125.5 349.5z" />
    <glyph glyph-name="p" unicode="p" horiz-adv-x="1105" 
d="M829 453q0 274 -86 333.5t-135 59.5t-91 -21.5t-97 -60.5l-51 -37v-584q67 -102 193 -101t196.5 112t70.5 299zM1038 528q0 -467 -483 -559q-110 0 -186 54v-433l206 -16l-4 -47l-295 4l-233 -4l-4 47l135 16v1284l-137 -22l-6 45l274 72l53 4l9 -182l278 200
q180 0 286.5 -128t106.5 -335z" />
    <glyph glyph-name="q" unicode="q" horiz-adv-x="1083" 
d="M934 981v-1391l139 -16l-6 -47l-236 4l-292 -4l-7 47l207 16v564l-266 -185q-176 0 -289.5 126.5t-113.5 348.5t137.5 368.5t370.5 178.5q134 0 268 -78l59 68h29zM357.5 815.5q-78.5 -104.5 -78.5 -293.5t64.5 -298t172.5 -109q71 0 141 49l82 55v584q-51 117 -177 117
t-204.5 -104.5z" />
    <glyph glyph-name="r" unicode="r" horiz-adv-x="790" 
d="M758 981v-209h-193q-21 -4 -70 -53t-59 -62l-39 -51v-540l201 -17l-6 -51l-289 4l-227 -4l-4 47l135 18v809l-139 -20l-7 45l275 72l51 4l4 -297l217 305h150z" />
    <glyph glyph-name="s" unicode="s" horiz-adv-x="825" 
d="M731 674h-65l-80 188q-69 60 -151 60q-83 0 -127 -35t-44 -93t40 -94t112 -77l164 -95q98 -55 139 -112.5t39 -143.5q0 -123 -94.5 -192.5t-268.5 -110.5q-150 0 -311 90l-21 250h74l90 -194q88 -74 180 -74q91 0 132 45t41 92q0 75 -34 112.5t-124 92.5l-164 94
q-63 37 -115.5 91.5t-52.5 151.5t88 162.5t258 108.5q155 0 295 -82v-235z" />
    <glyph glyph-name="t" unicode="t" horiz-adv-x="704" 
d="M496 109q74 0 170 49l22 -43l-262 -146q-205 0 -222.5 99.5t-17.5 160.5v656h-176v28l37 35h141v146l164 123h27v-275h299v-57h-297v-647q0 -129 115 -129z" />
    <glyph glyph-name="u" unicode="u" horiz-adv-x="1140" 
d="M362 274q0 -161 134 -161q47 0 95 24.5t103 61.5l66 39v636l-127 -14l-6 51l266 54l61 4v-703q0 -99 27 -182l104 6l5 -45l-279 -55l-45 182l-324 -203q-166 4 -225 74q-31 39 -41 96.5t-10 141.5v593l-137 -14l-6 51l278 54l61 4v-695z" />
    <glyph glyph-name="v" unicode="v" horiz-adv-x="1097" 
d="M1087 915l-122 -18l-322 -862l-160 -70l-356 932l-117 18l6 46l230 -3l217 3l6 -46l-125 -18l240 -664l24 -112l264 776l-118 18l6 46l174 -3l149 3z" />
    <glyph glyph-name="w" unicode="w" horiz-adv-x="1701" 
d="M870 586l-18 104l-225 -655l-170 -68l-330 930l-117 18l6 46l222 -3l206 3l7 -46l-115 -18l223 -670l25 -106l223 649l-45 127l-96 18l6 46l200 -3l207 3l4 -46l-114 -18l227 -676l21 -100l264 776l-119 18l6 46l154 -3l164 3l6 -46l-123 -18l-309 -862l-170 -68z" />
    <glyph glyph-name="x" unicode="x" horiz-adv-x="1101" 
d="M399 45l-6 -47l-178 4l-186 -4l-4 47l145 16l303 385l-309 451l-115 16l6 48l234 -3l192 3l4 -48l-75 -16l174 -266l22 -49l223 315l-133 16l4 48l177 -3l186 3l4 -48l-147 -16l-271 -352l324 -484l119 -16l-7 -47l-225 4l-205 -4l-6 47l82 16l-192 291l-25 49l-250 -340
z" />
    <glyph glyph-name="y" unicode="y" horiz-adv-x="1097" 
d="M176 -481v198h205l207 346l-127 -53l-334 889l-117 16l6 46l230 -3l217 3l6 -46l-125 -16l240 -668l22 -108l266 774l-118 18l6 46l170 -3l153 3l4 -46l-124 -18l-312 -840l-239 -538h-236z" />
    <glyph glyph-name="z" unicode="z" horiz-adv-x="950" 
d="M127 662v299h750l16 -41l-541 -805l-55 -64l412 6l127 250h55l-29 -307h-778l-14 41l538 799l66 69l-387 -6l-109 -241h-51z" />
    <glyph glyph-name="braceleft" unicode="{" horiz-adv-x="702" 
d="M616 1419h-98q-139 0 -139 -219l6 -407q2 -72 -28.5 -140.5t-131.5 -115.5l160 -105l-6 -639q0 -168 59.5 -193.5t87.5 -25.5h95v-45h-99q-127 0 -205.5 78t-78.5 209v585l-136 113v14q125 46 130.5 130.5t5.5 127.5v392q0 129 78.5 207.5t201.5 78.5h98v-45z" />
    <glyph glyph-name="bar" unicode="|" horiz-adv-x="534" 
d="M225 1470h84v-1972h-84v1972z" />
    <glyph glyph-name="braceright" unicode="}" horiz-adv-x="702" 
d="M317 254q0 131 55.5 181t104.5 75l-160 104l7 586q0 170 -58.5 194.5t-85.5 24.5h-98v45h102q123 0 203 -77.5t80 -208.5l-2 -533l135 -113v-14q-126 -46 -130.5 -130.5t-4.5 -127.5l2 -444q0 -129 -79 -208t-200 -79h-98v45h94q99 0 120.5 79t19.5 140l-5 230l-1 39z
" />
    <glyph glyph-name="asciitilde" unicode="~" horiz-adv-x="1370" 
d="M1221 651h47l-80 -180l-191 -45l-755 121l-92 -139h-48l78 180l197 45l753 -119z" />
    <glyph glyph-name="nonbreakingspace" unicode="&#xa0;" horiz-adv-x="0" 
 />
    <glyph glyph-name="exclamdown" unicode="&#xa1;" horiz-adv-x="534" 
d="M223 754l-55 10l-10 106l12 95l143 10l56 -10l10 -111l-14 -90zM176 127l66 391h55l63 -389l13 -621h-211z" />
    <glyph glyph-name="cent" unicode="&#xa2;" horiz-adv-x="933" 
d="M578 -164h-66v135q-190 12 -310 138.5t-120 337.5t121.5 341.5t318.5 186.5v145h66v-133h2q163 -8 274 -100v-197h-153l-64 201q-39 24 -98 24q-119 0 -197 -99t-78 -278t95.5 -297t270.5 -118q97 0 224 88l19 -45q-49 -43 -139.5 -96.5t-126 -71.5t-39.5 -21v-141z" />
    <glyph glyph-name="sterling" unicode="&#xa3;" horiz-adv-x="1148" 
d="M999 1120h-75l-64 195q-37 41 -75 61.5t-97 20.5q-113 0 -170 -81t-57 -198v-358h362v-64h-362v-356q0 -207 -76 -277l508 5l115 260h59l-25 -328l-675 4l-279 -4l-6 47l184 55v594h-172v29l62 35h110v239q0 199 99 302t350 163q205 0 284 -94v-250z" />
    <glyph glyph-name="currency" unicode="&#xa4;" 
d="M211 722q0 152 100 269q-4 2 -24.5 23.5t-45 46t-45 46t-22.5 23.5l64 64l139 -139q113 92 259 92q145 0 263 -88l135 133l66 -66l-133 -133q102 -119 102 -270q0 -150 -92 -268l125 -121l-66 -64l-121 119q-121 -100 -275 -100t-280 102l-124 -125l-66 64l127 129
q-86 111 -86 263zM291 718q0 -146 101.5 -249.5t246.5 -103.5t247.5 104.5t102.5 249.5t-101.5 248.5t-247.5 103.5t-247.5 -103.5t-101.5 -249.5z" />
    <glyph glyph-name="yen" unicode="&#xa5;" horiz-adv-x="1384" 
d="M600 553v4l-405 815l-154 17l6 47l285 -4l280 4l4 -47l-174 -19l312 -674l22 -65l322 737l-189 21l6 47l230 -4l194 4l4 -45l-151 -19l-375 -801v-18h268v-55h-268v-140h268v-57h-268v-235l225 -21l-4 -47l-329 4l-338 -4l-4 47l233 21v235h-260v57h260v140h-260v55h260z
" />
    <glyph glyph-name="brokenbar" unicode="&#xa6;" horiz-adv-x="534" 
d="M225 379h84v-881h-84v881zM225 1470h84v-880h-84v880z" />
    <glyph glyph-name="section" unicode="&#xa7;" horiz-adv-x="1093" 
d="M356 801q-114 -54 -114 -182q0 -129 116.5 -221.5t178.5 -137.5l170 -129q151 94 151 268v31l-301 217q-133 95 -201 154zM895 -131q0 -284 -401 -371q-142 0 -225 46t-107 67v248h69l60 -181q100 -112 229 -112q96 0 156.5 56t58.5 175q0 68 -292 277
q-185 132 -273 233.5t-88 215.5t70.5 192t171.5 121q-59 59 -97.5 118.5t-38.5 145.5q0 141 106.5 234t301.5 132q218 0 305 -100v-233h-70l-61 180q-65 88 -190 88q-159 0 -195.5 -73t-36.5 -125q0 -95 67.5 -173.5t235.5 -200.5l361 -247v-80q0 -229 -109.5 -304
t-161.5 -100q10 -8 33 -25.5t63.5 -52.5t44.5 -47q5 -12 7 -24t3 -27.5t2 -30t1 -22.5z" />
    <glyph glyph-name="dieresis" unicode="&#xa8;" horiz-adv-x="1024" 
d="M725 1407l49 -8l10 -96l-18 -82l-121 -11l-47 11l-10 98l18 80zM367 1407l49 -8l10 -96l-20 -82l-119 -11l-49 11l-9 98l19 80z" />
    <glyph glyph-name="copyright" unicode="&#xa9;" horiz-adv-x="1712" 
d="M1190 883h-43l-68 143q-77 76 -193 76t-195 -93.5t-79 -281.5q0 -261 113 -326t176 -65q102 0 172 65l80 162h45l-14 -190q-168 -69 -303 -84q-183 0 -313 110t-130 301q0 294 178.5 363.5t282.5 81.5q168 0 291 -76v-186zM102 720q0 322 201.5 508.5t550.5 235.5
q320 -4 538 -209.5t218 -533.5t-199.5 -514t-552.5 -238q-318 4 -475.5 151.5t-219 288t-61.5 311.5zM868 31q110 0 226 46t256.5 183.5t140.5 444.5q0 180 -62.5 312t-157.5 218t-206 128t-223 42t-226 -46t-254.5 -183.5t-140.5 -446.5q0 -180 62.5 -311t158 -217
t206 -128t220.5 -42z" />
    <glyph glyph-name="ordfeminine" unicode="&#xaa;" horiz-adv-x="874" 
d="M246 878q0 -72 30.5 -104.5t70.5 -32.5t71 16.5t51 28.5l55 43v254l-223 -90q-55 -43 -55 -115zM682 864q0 -61 29 -137l88 6l4 -37l-230 -47l-43 139l-215 -151q-102 0 -167.5 53.5t-65.5 147.5t74 168l368 118v101q0 89 -21 126.5t-87 37.5t-129 -23l-33 -164h-145v129
l307 135q164 0 215 -55.5t51 -200.5v-346z" />
    <glyph glyph-name="guillemotleft" unicode="&#xab;" horiz-adv-x="894" 
d="M401 31l-370 450l372 451h64l-264 -451l264 -450h-66zM770 31l-371 450l373 451h62l-265 -451l265 -450h-64z" />
    <glyph glyph-name="logicalnot" unicode="&#xac;" 
d="M1161 369h-90v286h-962v93h1052v-379z" />
    <glyph glyph-name="softhyphen" unicode="&#xad;" horiz-adv-x="747" 
d="M72 614h604v-98h-604v98z" />
    <glyph glyph-name="registered" unicode="&#xae;" horiz-adv-x="1212" 
d="M526 905h47q57 0 91 33t34 90t-30.5 88t-77.5 31l-64 -6v-236zM831 1036q0 -123 -210 -151l110 -31l133 -201l39 -8v-27h-164l-153 246l-13 13h-47v-226l62 -6l-2 -27h-244l-2 27l66 6v490l-66 6l2 24h305q74 0 129 -32.5t55 -102.5zM940 577q94 94 94 314t-136.5 345.5
t-298.5 125.5q-75 0 -152.5 -31t-173 -125.5t-95.5 -312.5t137.5 -344.5t299.5 -126.5q75 0 153 30.5t172 124.5zM229.5 1240.5q137.5 127.5 376.5 162.5q212 0 363 -140.5t151 -379.5q0 -320 -197.5 -404t-312.5 -100q-217 0 -367.5 142t-150.5 367t137.5 352.5z" />
    <glyph glyph-name="macron" unicode="&#xaf;" horiz-adv-x="1024" 
d="M223 1374h580v-92h-580v92z" />
    <glyph glyph-name="degree" unicode="&#xb0;" horiz-adv-x="858" 
d="M193 1424q80 71 237 118q129 0 222 -93t93 -222t-73.5 -204t-241.5 -112q-130 0 -223.5 93.5t-93.5 221t80 198.5zM272.5 1071q65.5 -67 159.5 -67t157.5 65.5t63.5 157.5t-65.5 157.5t-159.5 65.5t-157.5 -66t-63.5 -156t65.5 -157z" />
    <glyph glyph-name="plusminus" unicode="&#xb1;" 
d="M98 92h1076v-92h-1076v92zM580 285v473h-482v92h482v489h92v-489h483v-92h-483v-473h-92z" />
    <glyph glyph-name="twosuperior" unicode="&#xb2;" horiz-adv-x="722" 
d="M444 1412q0 75 -31.5 115t-80.5 40t-80 -15l-43 -163h-135v141l284 96q133 0 200 -58t67 -156t-77 -184.5t-224 -187.5l-168 -112l96 20h399v-33l-41 -96h-559l-20 35l184 184q229 225 229 374z" />
    <glyph glyph-name="threesuperior" unicode="&#xb3;" horiz-adv-x="649" 
d="M414 1070q0 66 -51.5 108.5t-153.5 42.5l-10 28l61 31q72 35 99.5 73t27.5 93t-27.5 87t-66.5 32t-68 -15l-41 -147h-133v133l291 90q157 0 183 -58.5t26 -84.5q0 -124 -207 -187q172 -6 208 -74.5t36 -106.5q0 -72 -60.5 -120.5t-193.5 -105.5l-158 -72h-123v133h297
q64 54 64 120z" />
    <glyph glyph-name="acute" unicode="&#xb4;" horiz-adv-x="1024" 
d="M297 1118l109 355h204l-260 -355h-53z" />
    <glyph glyph-name="uni00B5" unicode="&#xb5;" 
d="M164 -471v1432h196v-656q0 -104 41 -148t97 -44t101.5 25.5t100.5 58.5l68 41v723h195v-832q0 -47 143 -88l-4 -41h-244l-88 170l-295 -201q-196 0 -237 107v-137l143 -410h-217z" />
    <glyph glyph-name="paragraph" unicode="&#xb6;" horiz-adv-x="993" 
d="M379 827q-133 0 -225.5 76t-92.5 206q0 131 124 210.5t186 114.5h540v-62l-102 -16v-1682h-82v1684h-262v-1684h-86v1153z" />
    <glyph glyph-name="periodcentered" unicode="&#xb7;" horiz-adv-x="456" 
d="M272 940l60 -10l12 -111l-14 -96l-150 -12l-57 12l-10 113l12 94z" />
    <glyph glyph-name="cedilla" unicode="&#xb8;" horiz-adv-x="1024" 
d="M608 -289q0 110 -147 121l131 186l33 -18l-62 -98q66 -4 117 -42t51 -92q0 -90 -54 -138.5t-130 -78.5l-127 -47h-86l57 82h156q61 39 61 125z" />
    <glyph glyph-name="onesuperior" unicode="&#xb9;" horiz-adv-x="585" 
d="M395 1616v-748l170 -12l-4 -37l-246 2l-249 -2l-3 37l168 12v623l7 31l-48 -25l-122 -29l-17 35l291 113h53z" />
    <glyph glyph-name="ordmasculine" unicode="&#xba;" horiz-adv-x="903" 
d="M434 1405q-100 0 -148 -88t-48 -243t65.5 -261t165.5 -106t148.5 90.5t48.5 250.5t-66 258.5t-166 98.5zM72 1047q0 177 108.5 279.5t292.5 139.5q158 0 258 -111t100 -289q0 -179 -108.5 -281.5t-290.5 -135.5q-161 0 -260.5 110.5t-99.5 287.5z" />
    <glyph glyph-name="guillemotright" unicode="&#xbb;" horiz-adv-x="894" 
d="M430 31l264 450l-264 451h62l372 -451l-370 -450h-64zM61 31l265 450l-265 451h64l373 -451l-371 -450h-66z" />
    <glyph glyph-name="onequarter" unicode="&#xbc;" horiz-adv-x="1644" 
d="M1413 291h160v-68h-160v-223h-151v223h-324l-29 49l383 516h168v-38l-481 -469l65 10h218v149l120 84l31 8v-241zM416 1442v-748l170 -12l-4 -37l-246 2l-250 -2l-2 37l168 12v625l6 29l-45 -25l-125 -29l-16 35l290 113h54zM461 -102h-90l792 1556h86z" />
    <glyph glyph-name="onehalf" unicode="&#xbd;" horiz-adv-x="1689" 
d="M1413 594q0 76 -31.5 115t-83 39t-79.5 -15l-43 -164h-138v142l287 96q133 0 200.5 -57.5t67.5 -155.5t-77.5 -185t-225.5 -188l-168 -112l107 20h389v-33l-41 -96h-559l-19 35l183 184q123 121 177 210t54 165zM461 -102h-90l792 1556h86zM416 1442v-748l170 -12l-4 -37
l-246 2l-250 -2l-2 37l168 12v623l6 31l-51 -25l-119 -29l-16 35l290 113h54z" />
    <glyph glyph-name="threequarters" unicode="&#xbe;" horiz-adv-x="1628" 
d="M571 1309q0 -124 -206 -187q111 -4 176 -55t65 -108q0 -56 -19.5 -89.5t-62.5 -67t-170 -87.5l-157 -72h-123v133h297q63 52 63 119t-51 109.5t-154 42.5l-10 28l62 31q72 35 99.5 73t27.5 93t-28 87t-67 32t-67 -15l-41 -147h-133v133l290 90q159 0 184 -58.5t25 -84.5z
M1397 291h159v-68h-159v-223h-152v223h-323l-29 49l385 516h166v-38l-481 -469l61 10h221v149l121 82l31 10v-241zM444 -102h-90l793 1556h86z" />
    <glyph glyph-name="questiondown" unicode="&#xbf;" horiz-adv-x="782" 
d="M412 750l-56 8l-10 106l12 94l144 13l55 -13l8 -108l-12 -92zM250 -164q0 -181 79 -224.5t140 -45.5l68 211h122v-248l-198 -27q-211 15 -315.5 113.5t-104.5 235.5q0 136 71.5 217.5t194.5 140.5l101 49l12 246h84l18 -262l-80 -54q-98 -70 -145 -153.5t-47 -198.5z" />
    <glyph glyph-name="Agrave" unicode="&#xc0;" horiz-adv-x="1476" 
d="M897 563l-166 475l-57 211l-240 -686h463zM16 45l154 21l496 1339l135 51l508 -1393l153 -18l-4 -47l-280 4l-277 -4l-4 47l172 21l-149 432h-506l-152 -432l176 -21l-4 -47l-215 4l-196 -4zM692 1573l-254 272h211l117 -272h-74z" />
    <glyph glyph-name="Aacute" unicode="&#xc1;" horiz-adv-x="1476" 
d="M897 563l-166 475l-57 211l-240 -686h463zM16 45l154 21l496 1339l135 51l508 -1393l153 -18l-4 -47l-280 4l-277 -4l-4 47l172 21l-149 432h-506l-152 -432l176 -21l-4 -47l-215 4l-196 -4zM711 1573l116 272h213l-258 -272h-71z" />
    <glyph glyph-name="Acircumflex" unicode="&#xc2;" horiz-adv-x="1476" 
d="M897 563l-166 475l-57 211l-240 -686h463zM16 45l154 21l496 1339l135 51l508 -1393l153 -18l-4 -47l-280 4l-277 -4l-4 47l172 21l-149 432h-506l-152 -432l176 -21l-4 -47l-215 4l-196 -4zM680 1851h106l244 -278h-74l-208 149l-17 15l-12 -15l-207 -149h-74z" />
    <glyph glyph-name="Atilde" unicode="&#xc3;" horiz-adv-x="1476" 
d="M897 563l-166 475l-57 211l-240 -686h463zM16 45l154 21l496 1339l135 51l508 -1393l153 -18l-4 -47l-280 4l-277 -4l-4 47l172 21l-149 432h-506l-152 -432l176 -21l-4 -47l-215 4l-196 -4zM479 1782l135 43l367 -135l70 139h34l-53 -209l-135 -43l-367 137l-69 -141
h-35z" />
    <glyph glyph-name="Adieresis" unicode="&#xc4;" horiz-adv-x="1476" 
d="M897 563l-166 475l-57 211l-240 -686h463zM16 45l154 21l496 1339l135 51l508 -1393l153 -18l-4 -47l-280 4l-277 -4l-4 47l172 21l-149 432h-506l-152 -432l176 -21l-4 -47l-215 4l-196 -4zM868 1614l-8 96l17 80l118 10l49 -10l13 -94l-19 -82l-118 -10zM420 1614
l-10 96l18 80l119 10l49 -10l10 -94l-18 -82l-119 -10z" />
    <glyph glyph-name="Aring" unicode="&#xc5;" horiz-adv-x="1476" 
d="M897 563l-166 475l-57 211l-240 -686h463zM16 45l154 21l496 1339l135 51l508 -1393l153 -18l-4 -47l-280 4l-277 -4l-4 47l172 21l-149 432h-506l-152 -432l176 -21l-4 -47l-215 4l-196 -4zM936 1698q0 -89 -57 -131t-154 -70q-141 0 -177 69.5t-36 119.5q0 87 50 125
t163 77q140 0 175.5 -70.5t35.5 -119.5zM723 1556q59 0 98 37t39 98.5t-39 99.5t-98 38t-96 -38t-37 -99.5t37 -98.5t96 -37z" />
    <glyph glyph-name="AE" unicode="&#xc6;" horiz-adv-x="2019" 
d="M1040 662h-415l-365 -596l166 -21l-4 -47l-213 4l-193 -4l-6 47l154 18l864 1373l125 -4l772 4l10 -371h-47l-125 305l-503 2v-653l256 4l86 229h47l-11 -256l11 -266h-47l-86 229l-256 5v-603l520 5l137 315h47l-35 -383l-778 4l-277 -4l-6 47l172 21v596zM1040 717v641
l-381 -641h381z" />
    <glyph glyph-name="Ccedilla" unicode="&#xc7;" horiz-adv-x="1415" 
d="M799 -290q0 111 -148 122l97 137q-280 17 -474 209.5t-194 524.5q0 331 203.5 529.5t554.5 235.5q249 0 481 -133v-307h-68l-98 238q-124 135 -337 135t-352.5 -172.5t-139.5 -479.5t141 -507.5t395 -200.5q92 0 165 37t118 82l121 268h67l-26 -317q-250 -111 -443 -138
q-12 -4 -31.5 -5t-33.5 -3l-43 -63q68 -4 118 -43.5t50 -92.5q0 -89 -57 -139t-130 -76l-125 -47h-86l56 82h157q29 20 45.5 55t16.5 69z" />
    <glyph glyph-name="Egrave" unicode="&#xc8;" horiz-adv-x="1261" 
d="M59 45l174 21v1304l-174 19l7 47l282 -4l815 4l11 -371h-46l-127 305l-550 2v-592l305 4l86 230h47l-10 -256l10 -269h-47l-86 230l-305 4v-662l567 5l137 315h49l-37 -383l-821 4l-280 -4zM414 1845h211l114 -272h-71z" />
    <glyph glyph-name="Eacute" unicode="&#xc9;" horiz-adv-x="1261" 
d="M59 45l174 21v1304l-174 19l7 47l282 -4l815 4l11 -371h-46l-127 305l-550 2v-592l305 4l86 230h47l-10 -256l10 -269h-47l-86 230l-305 4v-662l567 5l137 315h49l-37 -383l-821 4l-280 -4zM739 1845h211l-256 -272h-71z" />
    <glyph glyph-name="Ecircumflex" unicode="&#xca;" horiz-adv-x="1261" 
d="M59 45l174 21v1304l-174 19l7 47l282 -4l815 4l11 -371h-46l-127 305l-550 2v-592l305 4l86 230h47l-10 -256l10 -269h-47l-86 230l-305 4v-662l567 5l137 315h49l-37 -383l-821 4l-280 -4zM645 1851h109l239 -278h-71l-209 149l-15 15l-14 -15l-207 -149h-71z" />
    <glyph glyph-name="Edieresis" unicode="&#xcb;" horiz-adv-x="1261" 
d="M59 45l174 21v1304l-174 19l7 47l282 -4l815 4l11 -371h-46l-127 305l-550 2v-592l305 4l86 230h47l-10 -256l10 -269h-47l-86 230l-305 4v-662l567 5l137 315h49l-37 -383l-821 4l-280 -4zM840 1614l-11 96l19 80l121 10l47 -10l10 -94l-20 -82l-119 -10zM391 1614
l-12 96l18 80l121 10l49 -10l11 -94l-21 -82l-119 -10z" />
    <glyph glyph-name="Igrave" unicode="&#xcc;" horiz-adv-x="688" 
d="M348 2l-276 -4l-6 49l174 19v1304l-174 19l6 47l276 -4l277 4l4 -47l-172 -19v-1304l172 -19l-4 -49zM354 1573l-256 272h213l117 -272h-74z" />
    <glyph glyph-name="Iacute" unicode="&#xcd;" horiz-adv-x="688" 
d="M348 2l-276 -4l-6 49l174 19v1304l-174 19l6 47l276 -4l277 4l4 -47l-172 -19v-1304l172 -19l-4 -49zM309 1573l117 272h211l-254 -272h-74z" />
    <glyph glyph-name="Icircumflex" unicode="&#xce;" horiz-adv-x="688" 
d="M348 2l-276 -4l-6 49l174 19v1304l-174 19l6 47l276 -4l277 4l4 -47l-172 -19v-1304l172 -19l-4 -49zM53 1573l238 278h108l242 -278h-72l-209 149l-16 15l-12 -15l-207 -149h-72z" />
    <glyph glyph-name="Idieresis" unicode="&#xcf;" horiz-adv-x="688" 
d="M348 2l-276 -4l-6 49l174 19v1304l-174 19l6 47l276 -4l277 4l4 -47l-172 -19v-1304l172 -19l-4 -49zM594 1800l51 -10l8 -94l-18 -82l-119 -10l-49 10l-10 96l18 80zM178 1800l49 -10l11 -94l-19 -82l-119 -10l-49 10l-10 96l16 80z" />
    <glyph glyph-name="Eth" unicode="&#xd0;" horiz-adv-x="1497" 
d="M1050 1203.5q-130 178.5 -384 178.5l-209 -14v-596h268v-51h-268v-649l250 -17q212 0 342.5 186t130.5 485t-130 477.5zM240 721h-160v51h160v598l-181 19l7 47l294 -4l373 4q321 0 502.5 -180t181.5 -506q0 -502 -260 -621t-434 -131l-361 4l-296 -4l-7 47l181 21v655z
" />
    <glyph glyph-name="Ntilde" unicode="&#xd1;" horiz-adv-x="1466" 
d="M1272 -8h-115l-799 1206l-43 113v-1245l172 -21l-6 -47l-200 4l-215 -4l-7 47l174 21v1296l-170 27l7 47l188 -4l191 4l700 -1043l43 -90v1067l-172 19l4 47l201 -4l215 4l6 -47l-174 -19v-1378zM518 1782l135 43l367 -135l70 139h34l-53 -209l-133 -43l-369 137
l-69 -141h-33z" />
    <glyph glyph-name="Ograve" unicode="&#xd2;" horiz-adv-x="1576" 
d="M457.5 251q133.5 -206 355.5 -206t332 178t110 465t-133 495t-354 208t-332.5 -177.5t-111.5 -467.5q0 -289 133.5 -495zM80 688q0 334 178 527.5t553 252.5q305 0 496.5 -205t191.5 -528t-178 -516.5t-553 -253.5q-301 0 -444.5 151.5t-193.5 285t-50 286.5zM793 1573
l-256 272h211l116 -272h-71z" />
    <glyph glyph-name="Oacute" unicode="&#xd3;" horiz-adv-x="1576" 
d="M457.5 251q133.5 -206 355.5 -206t332 178t110 465t-133 495t-354 208t-332.5 -177.5t-111.5 -467.5q0 -289 133.5 -495zM80 688q0 334 178 527.5t553 252.5q305 0 496.5 -205t191.5 -528t-178 -516.5t-553 -253.5q-301 0 -444.5 151.5t-193.5 285t-50 286.5zM733 1573
l117 272h211l-256 -272h-72z" />
    <glyph glyph-name="Ocircumflex" unicode="&#xd4;" horiz-adv-x="1576" 
d="M457.5 251q133.5 -206 355.5 -206t332 178t110 465t-133 495t-354 208t-332.5 -177.5t-111.5 -467.5q0 -289 133.5 -495zM80 688q0 334 178 527.5t553 252.5q305 0 496.5 -205t191.5 -528t-178 -516.5t-553 -253.5q-301 0 -444.5 151.5t-193.5 285t-50 286.5zM502 1573
l239 278h109l240 -278h-72l-207 149l-16 15l-15 -15l-207 -149h-71z" />
    <glyph glyph-name="Otilde" unicode="&#xd5;" horiz-adv-x="1576" 
d="M457.5 251q133.5 -206 355.5 -206t332 178t110 465t-133 495t-354 208t-332.5 -177.5t-111.5 -467.5q0 -289 133.5 -495zM80 688q0 334 178 527.5t553 252.5q305 0 496.5 -205t191.5 -528t-178 -516.5t-553 -253.5q-301 0 -444.5 151.5t-193.5 285t-50 286.5zM547 1782
l131 43l369 -135l69 139h35l-53 -209l-133 -43l-369 137l-68 -141h-36z" />
    <glyph glyph-name="Odieresis" unicode="&#xd6;" horiz-adv-x="1576" 
d="M457.5 251q133.5 -206 355.5 -206t332 178t110 465t-133 495t-354 208t-332.5 -177.5t-111.5 -467.5q0 -289 133.5 -495zM80 688q0 334 178 527.5t553 252.5q305 0 496.5 -205t191.5 -528t-178 -516.5t-553 -253.5q-301 0 -444.5 151.5t-193.5 285t-50 286.5zM948 1790
l119 10l49 -10l10 -94l-20 -82l-119 -10l-47 10l-12 96zM498 1790l118 10l50 -10l12 -94l-21 -82l-118 -10l-50 10l-10 96z" />
    <glyph glyph-name="multiply" unicode="&#xd7;" 
d="M989 47l-354 354l-354 -356l-66 66l356 352l-356 356l66 66l354 -357l352 355l66 -64l-355 -356l355 -350z" />
    <glyph glyph-name="Oslash" unicode="&#xd8;" horiz-adv-x="1576" 
d="M463 242q135 -197 354 -197t328.5 178t109.5 443t-100 456zM1122 1180q-138 211 -357 211q-218 0 -329.5 -177.5t-111.5 -452.5q0 -274 104 -462zM1499 746q0 -334 -178 -527.5t-553 -253.5q-234 0 -416 133l-102 -129h-80l133 170q-106 98 -164.5 239.5t-58.5 309.5
q0 334 178 527.5t553 252.5q245 0 426 -143l111 139h75l-139 -178q215 -206 215 -540z" />
    <glyph glyph-name="Ugrave" unicode="&#xd9;" horiz-adv-x="1419" 
d="M735 -35q-536 0 -536 539v866l-172 19l4 47l278 -4l275 4l6 -47l-168 -19v-891q0 -296 135 -356t225 -60q160 0 250 115t90 305v887l-172 19l4 47l224 -4l211 4l6 -47l-168 -19v-874q0 -215 -106 -343.5t-386 -187.5zM762 1573l-256 272h211l119 -272h-74z" />
    <glyph glyph-name="Uacute" unicode="&#xda;" horiz-adv-x="1419" 
d="M735 -35q-536 0 -536 539v866l-172 19l4 47l278 -4l275 4l6 -47l-168 -19v-891q0 -296 135 -356t225 -60q160 0 250 115t90 305v887l-172 19l4 47l224 -4l211 4l6 -47l-168 -19v-874q0 -215 -106 -343.5t-386 -187.5zM705 1573l116 272h213l-258 -272h-71z" />
    <glyph glyph-name="Ucircumflex" unicode="&#xdb;" horiz-adv-x="1419" 
d="M735 -35q-536 0 -536 539v866l-172 19l4 47l278 -4l275 4l6 -47l-168 -19v-891q0 -296 135 -356t225 -60q160 0 250 115t90 305v887l-172 19l4 47l224 -4l211 4l6 -47l-168 -19v-874q0 -215 -106 -343.5t-386 -187.5zM993 1573l-209 149l-14 15l-14 -15l-207 -149h-72
l238 278h110l240 -278h-72z" />
    <glyph glyph-name="Udieresis" unicode="&#xdc;" horiz-adv-x="1419" 
d="M735 -35q-536 0 -536 539v866l-172 19l4 47l278 -4l275 4l6 -47l-168 -19v-891q0 -296 135 -356t225 -60q160 0 250 115t90 305v887l-172 19l4 47l224 -4l211 4l6 -47l-168 -19v-874q0 -215 -106 -343.5t-386 -187.5zM1034 1800l51 -10l9 -94l-19 -82l-119 -10l-49 10
l-10 96l18 80zM584 1800l51 -10l10 -94l-18 -82l-119 -10l-49 10l-10 96l18 80z" />
    <glyph glyph-name="Yacute" unicode="&#xdd;" horiz-adv-x="1433" 
d="M836 573l2 -507l227 -21l-6 -47l-330 4l-338 -4l-4 47l234 21v495l-457 811l-154 19l6 45l285 -4l281 4l6 -45l-178 -21l366 -655l21 -66l381 721l-189 21l6 45l230 -4l192 4l6 -45l-153 -19zM748 1573l116 272h211l-256 -272h-71z" />
    <glyph glyph-name="Thorn" unicode="&#xde;" horiz-adv-x="1202" 
d="M449 393h169q144 0 233 100.5t89 256.5q0 233 -108.5 282t-188.5 49l-194 -6v-682zM1034 478.5q-146 -105.5 -364 -150.5h-221v-262l206 -19l-4 -49l-305 4l-280 -4l-7 49l172 19v1304l-172 19l7 47l280 -4l275 4l6 -47l-178 -19v-235l284 2q197 0 322 -96t125 -276
q0 -181 -146 -286.5z" />
    <glyph glyph-name="germandbls" unicode="&#xdf;" horiz-adv-x="1206" 
d="M1038 1200q0 -221 -329 -356q4 -55 36.5 -101.5t118.5 -99.5l137 -92q164 -109 164 -247q0 -123 -97 -211.5t-257 -127.5q-145 0 -293 88l-6 246h61l76 -184q92 -76 175 -76t125 48.5t42 112.5t-33.5 113t-105.5 103l-131 92q-82 57 -123 125.5t-45 169.5l125 76
q66 41 111 114.5t45 170.5t-53 168t-159 71t-163.5 -88t-57.5 -248v-1067l-92 2l-233 -4l-6 43l139 16v824h-158v28l58 37l100 2v72q0 172 93 257t161 116l168 77q289 0 348 -102t59 -168z" />
    <glyph glyph-name="agrave" unicode="&#xe0;" horiz-adv-x="956" 
d="M801 250q0 -96 35 -168l104 8l6 -45l-282 -57l-52 168l-264 -187q-129 0 -208 66.5t-79 184.5t91 204l452 145v121q0 111 -27 157t-109 46t-157 -29l-41 -196h-178v155l377 168q193 0 262.5 -67t69.5 -250v-424zM262 266q0 -86 38 -126t97 -40t135 58l72 49v313
l-274 -110q-68 -58 -68 -144zM539 1118l-263 355h207l109 -355h-53z" />
    <glyph glyph-name="aacute" unicode="&#xe1;" horiz-adv-x="956" 
d="M801 250q0 -96 35 -168l104 8l6 -45l-282 -57l-52 168l-264 -187q-129 0 -208 66.5t-79 184.5t91 204l452 145v121q0 111 -27 157t-109 46t-157 -29l-41 -196h-178v155l377 168q193 0 262.5 -67t69.5 -250v-424zM262 266q0 -86 38 -126t97 -40t135 58l72 49v313
l-274 -110q-68 -58 -68 -144zM426 1118l106 355h207l-260 -355h-53z" />
    <glyph glyph-name="acircumflex" unicode="&#xe2;" horiz-adv-x="956" 
d="M801 250q0 -96 35 -168l104 8l6 -45l-282 -57l-52 168l-264 -187q-129 0 -208 66.5t-79 184.5t91 204l452 145v121q0 111 -27 157t-109 46t-157 -29l-41 -196h-178v155l377 168q193 0 262.5 -67t69.5 -250v-424zM262 266q0 -86 38 -126t97 -40t135 58l72 49v313
l-274 -110q-68 -58 -68 -144zM182 1118l236 365h90l237 -365h-51l-211 199l-20 22l-232 -221h-49z" />
    <glyph glyph-name="atilde" unicode="&#xe3;" horiz-adv-x="956" 
d="M801 250q0 -96 35 -168l104 8l6 -45l-282 -57l-52 168l-264 -187q-129 0 -208 66.5t-79 184.5t91 204l452 145v121q0 111 -27 157t-109 46t-157 -29l-41 -196h-178v155l377 168q193 0 262.5 -67t69.5 -250v-424zM262 266q0 -86 38 -126t97 -40t135 58l72 49v313
l-274 -110q-68 -58 -68 -144zM190 1399l134 43l370 -139l62 139h41l-56 -215l-131 -37l-370 141l-62 -141h-41z" />
    <glyph glyph-name="adieresis" unicode="&#xe4;" horiz-adv-x="956" 
d="M801 250q0 -96 35 -168l104 8l6 -45l-282 -57l-52 168l-264 -187q-129 0 -208 66.5t-79 184.5t91 204l452 145v121q0 111 -27 157t-109 46t-157 -29l-41 -196h-178v155l377 168q193 0 262.5 -67t69.5 -250v-424zM262 266q0 -86 38 -126t97 -40t135 58l72 49v313
l-274 -110q-68 -58 -68 -144zM684 1407l49 -8l12 -96l-20 -82l-119 -11l-49 11l-8 98l16 80zM326 1407l49 -8l12 -96l-20 -82l-119 -11l-49 11l-9 98l17 80z" />
    <glyph glyph-name="aring" unicode="&#xe5;" horiz-adv-x="956" 
d="M801 250q0 -96 35 -168l104 8l6 -45l-282 -57l-52 168l-264 -187q-129 0 -208 66.5t-79 184.5t91 204l452 145v121q0 111 -27 157t-109 46t-157 -29l-41 -196h-178v155l377 168q193 0 262.5 -67t69.5 -250v-424zM262 266q0 -86 38 -126t97 -40t135 58l72 49v313
l-274 -110q-68 -58 -68 -144zM334 1302.5q0 -61.5 38 -99.5t97 -38t98 38t39 99.5t-39 99.5t-98 38t-97 -38t-38 -99.5zM680 1308q0 -88 -55.5 -129.5t-153.5 -70.5q-141 0 -177 69.5t-36 119.5q0 86 48.5 124.5t162.5 77.5q140 0 175.5 -70.5t35.5 -120.5z" />
    <glyph glyph-name="ae" unicode="&#xe6;" horiz-adv-x="1464" 
d="M600 219q-4 8 -4 19v36l-2 61l-2 169l-252 -90q-72 -62 -72 -142q-4 -72 32 -111.5t86 -46.5t132 46q2 0 14.5 9t30.5 21.5t37 28.5zM1000 913q-102 0 -157 -92t-59 -227v-4l392 10q0 152 -27 209t-61 80.5t-88 23.5zM142 34.5q-81 65.5 -81 184.5t91 205l438 145v121
q0 104 -22.5 153.5t-100.5 49.5t-154 -29l-39 -196h-178v155l371 168q129 0 195.5 -27.5t95.5 -109.5q94 87 284 137q177 0 260.5 -101.5t83.5 -277.5v-75h-604v-2q4 -195 96.5 -302.5t245.5 -107.5q103 0 248 86l23 -47q-156 -119 -359 -195q-121 0 -228.5 53.5
t-166.5 161.5l-291 -215q-127 0 -208 65.5z" />
    <glyph glyph-name="ccedilla" unicode="&#xe7;" horiz-adv-x="913" 
d="M526 -289q0 110 -147 121l98 139q-180 16 -290.5 143.5t-110.5 344.5t137.5 352t347.5 180q104 0 180 -42t101 -62v-197h-154l-65 201q-39 25 -95 25q-112 -1 -187 -99.5t-75 -279.5t92.5 -297.5t241.5 -116.5q118 0 242 88l20 -45q-146 -120 -325 -193q-2 -2 -6.5 -2
t-6.5 -2l-43 -67q68 -4 118 -42t50 -92q0 -90 -57 -141t-127 -76l-127 -47h-84l55 82h156q61 39 61 125z" />
    <glyph glyph-name="egrave" unicode="&#xe8;" horiz-adv-x="962" 
d="M528 1118l-262 355h207l107 -355h-52zM674 612q0 151 -29 204.5t-66.5 75t-97.5 21.5q-102 0 -156.5 -87t-64.5 -228v-6l414 10v10zM70 452q0 223 124 357.5t334 181.5q183 0 271 -102.5t88 -276.5v-71h-627q4 -197 99.5 -306.5t254.5 -109.5q119 0 256 86l23 -47
q-148 -116 -354 -195q-196 0 -332.5 130t-136.5 353z" />
    <glyph glyph-name="eacute" unicode="&#xe9;" horiz-adv-x="962" 
d="M496 1118l106 355h207l-262 -355h-51zM674 612q0 151 -29 204.5t-66.5 75t-97.5 21.5q-102 0 -156.5 -87t-64.5 -228v-6l414 10v10zM70 452q0 223 124 357.5t334 181.5q183 0 271 -102.5t88 -276.5v-71h-627q4 -197 99.5 -306.5t254.5 -109.5q119 0 256 86l23 -47
q-148 -116 -354 -195q-196 0 -332.5 130t-136.5 353z" />
    <glyph glyph-name="ecircumflex" unicode="&#xea;" horiz-adv-x="962" 
d="M240 1118l237 365h90l238 -365h-49l-213 199l-21 22l-20 -22l-211 -199h-51zM674 612q0 151 -29 204.5t-66.5 75t-97.5 21.5q-102 0 -156.5 -87t-64.5 -228v-6l414 10v10zM70 452q0 223 124 357.5t334 181.5q183 0 271 -102.5t88 -276.5v-71h-627q4 -197 99.5 -306.5
t254.5 -109.5q119 0 256 86l23 -47q-148 -116 -354 -195q-196 0 -332.5 130t-136.5 353z" />
    <glyph glyph-name="edieresis" unicode="&#xeb;" horiz-adv-x="962" 
d="M377 1407l49 -8l10 -96l-18 -82l-119 -11l-49 11l-10 98l20 80zM735 1407l51 -8l9 -96l-19 -82l-119 -11l-47 11l-12 98l18 80zM674 612q0 151 -29 204.5t-66.5 75t-97.5 21.5q-102 0 -156.5 -87t-64.5 -228v-6l414 10v10zM70 452q0 223 124 357.5t334 181.5
q183 0 271 -102.5t88 -276.5v-71h-627q4 -197 99.5 -306.5t254.5 -109.5q119 0 256 86l23 -47q-148 -116 -354 -195q-196 0 -332.5 130t-136.5 353z" />
    <glyph glyph-name="igrave" unicode="&#xec;" horiz-adv-x="581" 
d="M307 2l-231 -4l-4 47l133 18v809l-137 -20l-7 45l277 72l61 4v-910l142 -18l-4 -47zM313 1118l-262 355h207l109 -355h-54z" />
    <glyph glyph-name="iacute" unicode="&#xed;" horiz-adv-x="581" 
d="M307 2l-231 -4l-4 47l133 18v809l-137 -20l-7 45l277 72l61 4v-910l142 -18l-4 -47zM262 1118l107 355h206l-262 -355h-51z" />
    <glyph glyph-name="icircumflex" unicode="&#xee;" horiz-adv-x="581" 
d="M307 2l-231 -4l-4 47l133 18v809l-137 -20l-7 45l277 72l61 4v-910l142 -18l-4 -47zM12 1118l236 365h90l240 -365h-52l-213 199l-20 22l-19 -22l-211 -199h-51z" />
    <glyph glyph-name="idieresis" unicode="&#xef;" horiz-adv-x="583" 
d="M309 2l-231 -4l-4 47l133 18v809l-137 -20l-7 45l277 72l61 4v-910l142 -18l-4 -47zM510 1407l51 -8l8 -96l-16 -82l-119 -11l-49 11l-12 98l18 80zM152 1407l51 -8l8 -96l-18 -82l-119 -11l-47 11l-13 98l21 80z" />
    <glyph glyph-name="eth" unicode="&#xf0;" horiz-adv-x="1083" 
d="M272 462q0 -190 65.5 -302.5t187.5 -112.5t188.5 111.5t77.5 298.5q7 94 -11 200q-47 61 -92 105q-84 82 -190 82t-166 -96t-60 -286zM922.5 944q83.5 -201 83.5 -429t-132 -379t-350 -167q-229 33 -346 174t-117 343t114 329t321 143l280 -153q-41 262 -221 438
l-252 -123v68l199 96q-55 47 -135 90t-105 51l25 50q206 -77 307 -146l225 109v-66l-168 -84q188 -143 271.5 -344z" />
    <glyph glyph-name="ntilde" unicode="&#xf1;" horiz-adv-x="1189" 
d="M807 686q0 160 -124 160q-58 0 -107.5 -25.5t-106.5 -62.5l-68 -43v-652l105 -18l-6 -47l-195 4l-229 -4l-6 47l137 18v809l-139 -22l-7 47l279 72l53 4l6 -197l336 215q159 -4 211 -67q58 -62 58 -234v-627l151 -18l-6 -47l-238 4l-198 -4l-4 47l98 18v623zM342 1399
l133 41l369 -140l63 140h39l-55 -215l-131 -35l-371 141l-61 -141h-41z" />
    <glyph glyph-name="ograve" unicode="&#xf2;" horiz-adv-x="1087" 
d="M359 176q83 -133 212 -133q174 0 207 157.5t33 257.5q0 201 -82.5 329t-204.5 128t-185 -108t-63 -303t83 -328zM70 457q0 434 501 534q200 0 324.5 -139.5t124.5 -349.5q0 -333 -193.5 -422.5t-308.5 -110.5q-197 0 -322.5 138.5t-125.5 349.5zM584 1118l-265 355h207
l109 -355h-51z" />
    <glyph glyph-name="oacute" unicode="&#xf3;" horiz-adv-x="1087" 
d="M359 176q83 -133 212 -133q174 0 207 157.5t33 257.5q0 201 -82.5 329t-204.5 128t-185 -108t-63 -303t83 -328zM70 457q0 434 501 534q200 0 324.5 -139.5t124.5 -349.5q0 -333 -193.5 -422.5t-308.5 -110.5q-197 0 -322.5 138.5t-125.5 349.5zM535 1118l106 355h207
l-262 -355h-51z" />
    <glyph glyph-name="ocircumflex" unicode="&#xf4;" horiz-adv-x="1087" 
d="M359 176q83 -133 212 -133q174 0 207 157.5t33 257.5q0 201 -82.5 329t-204.5 128t-185 -108t-63 -303t83 -328zM70 457q0 434 501 534q200 0 324.5 -139.5t124.5 -349.5q0 -333 -193.5 -422.5t-308.5 -110.5q-197 0 -322.5 138.5t-125.5 349.5zM274 1118l236 365h90
l238 -365h-52l-211 199l-20 22l-20 -22l-211 -199h-50z" />
    <glyph glyph-name="otilde" unicode="&#xf5;" horiz-adv-x="1087" 
d="M359 176q83 -133 212 -133q174 0 207 157.5t33 257.5q0 201 -82.5 329t-204.5 128t-185 -108t-63 -303t83 -328zM70 457q0 434 501 534q200 0 324.5 -139.5t124.5 -349.5q0 -333 -193.5 -422.5t-308.5 -110.5q-197 0 -322.5 138.5t-125.5 349.5zM285 1399l133 41
l368 -140l64 140h39l-53 -215l-134 -35l-370 141l-62 -141h-39z" />
    <glyph glyph-name="odieresis" unicode="&#xf6;" horiz-adv-x="1087" 
d="M359 176q83 -133 212 -133q174 0 207 157.5t33 257.5q0 201 -82.5 329t-204.5 128t-185 -108t-63 -303t83 -328zM70 457q0 434 501 534q200 0 324.5 -139.5t124.5 -349.5q0 -333 -193.5 -422.5t-308.5 -110.5q-197 0 -322.5 138.5t-125.5 349.5zM766 1407l49 -8l10 -96
l-20 -82l-119 -11l-49 11l-8 98l18 80zM408 1407l49 -8l10 -96l-18 -82l-121 -11l-47 11l-11 98l17 80z" />
    <glyph glyph-name="divide" unicode="&#xf7;" 
d="M96 551h1078v-90h-1078v90zM682 981l55 -10l11 -105l-13 -92l-141 -10l-53 10l-11 107l11 90zM682 229l55 -8l11 -104l-13 -94l-141 -11l-53 11l-11 108l11 90z" />
    <glyph glyph-name="oslash" unicode="&#xf8;" horiz-adv-x="1087" 
d="M276 534q0 -165 41 -276l426 504q-85 153 -225 153q-116 0 -179 -108t-63 -273zM571 43q175 0 207.5 158t32.5 276t-43 234l-426 -506q87 -162 229 -162zM1020 502q0 -333 -193.5 -422.5t-308.5 -110.5q-165 0 -287 103l-77 -92h-72l111 131q-123 138 -123 346
q0 434 501 534q164 0 281 -100l82 96h67l-110 -131q129 -140 129 -354z" />
    <glyph glyph-name="ugrave" unicode="&#xf9;" horiz-adv-x="1140" 
d="M362 274q0 -161 134 -161q47 0 95 24.5t103 61.5l66 39v636l-127 -14l-6 51l266 54l61 4v-703q0 -99 27 -182l104 6l5 -45l-279 -55l-45 182l-324 -203q-166 4 -225 74q-31 39 -41 96.5t-10 141.5v593l-137 -14l-6 51l278 54l61 4v-695zM571 1118l-262 355h205l107 -355
h-50z" />
    <glyph glyph-name="uacute" unicode="&#xfa;" horiz-adv-x="1140" 
d="M362 274q0 -161 134 -161q47 0 95 24.5t103 61.5l66 39v636l-127 -14l-6 51l266 54l61 4v-703q0 -99 27 -182l104 6l5 -45l-279 -55l-45 182l-324 -203q-166 4 -225 74q-31 39 -41 96.5t-10 141.5v593l-137 -14l-6 51l278 54l61 4v-695zM508 1118l106 355h207l-264 -355
h-49z" />
    <glyph glyph-name="ucircumflex" unicode="&#xfb;" horiz-adv-x="1140" 
d="M362 274q0 -161 134 -161q47 0 95 24.5t103 61.5l66 39v636l-127 -14l-6 51l266 54l61 4v-703q0 -99 27 -182l104 6l5 -45l-279 -55l-45 182l-324 -203q-166 4 -225 74q-31 39 -41 96.5t-10 141.5v593l-137 -14l-6 51l278 54l61 4v-695zM793 1118l-211 199l-21 22
l-20 -22l-211 -199h-49l235 365h90l238 -365h-51z" />
    <glyph glyph-name="udieresis" unicode="&#xfc;" horiz-adv-x="1140" 
d="M362 274q0 -161 134 -161q47 0 95 24.5t103 61.5l66 39v636l-127 -14l-6 51l266 54l61 4v-703q0 -99 27 -182l104 6l5 -45l-279 -55l-45 182l-324 -203q-166 4 -225 74q-31 39 -41 96.5t-10 141.5v593l-137 -14l-6 51l278 54l61 4v-695zM778 1407l49 -8l11 -96l-21 -82
l-119 -11l-49 11l-8 98l16 80zM418 1407l51 -8l10 -96l-18 -82l-121 -11l-47 11l-10 98l16 80z" />
    <glyph glyph-name="yacute" unicode="&#xfd;" horiz-adv-x="1097" 
d="M176 -481v198h205l207 346l-127 -53l-334 889l-117 16l6 46l230 -3l217 3l6 -46l-125 -16l240 -668l22 -108l266 774l-118 18l6 46l170 -3l153 3l4 -46l-124 -18l-312 -840l-239 -538h-236zM563 1118l107 355h207l-263 -355h-51z" />
    <glyph glyph-name="thorn" unicode="&#xfe;" horiz-adv-x="1107" 
d="M829 453q0 273 -85 333t-135 60t-92 -21.5t-97 -60.5l-47 -37v-584q29 -47 81 -74.5t115 -27.5q119 2 189.5 113t70.5 299zM1038 528q0 -467 -483 -559q-113 0 -182 54v-433l202 -16l-4 -47l-290 4l-236 -4l-6 47l139 16v1776l-139 -20l-6 43l278 69l62 4v-671l274 200
q182 0 286.5 -129t104.5 -334z" />
    <glyph glyph-name="ydieresis" unicode="&#xff;" horiz-adv-x="1097" 
d="M176 -481v198h205l207 346l-127 -53l-334 889l-117 16l6 46l230 -3l217 3l6 -46l-125 -16l240 -668l22 -108l266 774l-118 18l6 46l170 -3l153 3l4 -46l-124 -18l-312 -840l-239 -538h-236zM815 1407l51 -8l8 -96l-20 -82l-119 -11l-47 11l-10 98l18 80zM457 1407l49 -8
l10 -96l-18 -82l-119 -11l-49 11l-11 98l19 80z" />
    <glyph glyph-name="Amacron" unicode="&#x100;" horiz-adv-x="1476" 
d="M897 563l-166 475l-57 211l-240 -686h463zM16 45l154 21l496 1339l135 51l508 -1393l153 -18l-4 -47l-280 4l-277 -4l-4 47l172 21l-149 432h-506l-152 -432l176 -21l-4 -47l-215 4l-196 -4zM449 1729h579v-95h-579v95z" />
    <glyph glyph-name="amacron" unicode="&#x101;" horiz-adv-x="956" 
d="M801 250q0 -96 35 -168l104 8l6 -45l-282 -57l-52 168l-264 -187q-129 0 -208 66.5t-79 184.5t91 204l452 145v121q0 111 -27 157t-109 46t-157 -29l-41 -196h-178v155l377 168q193 0 262.5 -67t69.5 -250v-424zM262 266q0 -86 38 -126t97 -40t135 58l72 49v313
l-274 -110q-68 -58 -68 -144zM168 1374h577v-92h-577v92z" />
    <glyph glyph-name="Abreve" unicode="&#x102;" horiz-adv-x="1476" 
d="M897 563l-166 475l-57 211l-240 -686h463zM16 45l154 21l496 1339l135 51l508 -1393l153 -18l-4 -47l-280 4l-277 -4l-4 47l172 21l-149 432h-506l-152 -432l176 -21l-4 -47l-215 4l-196 -4zM977 1810l31 -26q-30 -71 -84.5 -130t-161.5 -106q-194 0 -303 236l37 26
q47 -91 118.5 -118t136 -27t118.5 39t108 106z" />
    <glyph glyph-name="abreve" unicode="&#x103;" horiz-adv-x="956" 
d="M801 250q0 -96 35 -168l104 8l6 -45l-282 -57l-52 168l-264 -187q-129 0 -208 66.5t-79 184.5t91 204l452 145v121q0 111 -27 157t-109 46t-157 -29l-41 -196h-178v155l377 168q193 0 262.5 -67t69.5 -250v-424zM262 266q0 -86 38 -126t97 -40t135 58l72 49v313
l-274 -110q-68 -58 -68 -144zM465 1251q83 0 136 46t99 120l37 -26q-29 -66 -82 -132.5t-161 -128.5q-113 0 -194 80t-112 181l37 24q59 -106 126 -135t114 -29z" />
    <glyph glyph-name="Aogonek" unicode="&#x104;" horiz-adv-x="1476" 
d="M897 563l-166 475l-57 211l-238 -686h461zM1217 -496q-199 0 -281 51.5t-82 155.5v103l223 229l-157 455h-504l-154 -432l176 -21l-4 -47l-217 4l-194 -4l-7 47l154 21l496 1339l135 51l508 -1393l153 -18l-4 -47l-350 4l-104 -238v-79q0 -72 54 -104t159 -32v-45z" />
    <glyph glyph-name="aogonek" unicode="&#x105;" horiz-adv-x="956" 
d="M262 266q0 -86 38 -126t97 -40t135 58l72 49v313l-274 -110q-68 -58 -68 -144zM602 -315q0 -136 213 -136v-45q-197 0 -278.5 52.5t-81.5 154.5v92l209 193l-52 160l-264 -187q-129 0 -208 66.5t-79 184.5t91 204l452 145v121q0 111 -27 157t-109 46t-157 -29l-41 -196
h-178v155l377 168q194 0 263 -67t69 -250v-424q0 -96 35 -168l104 8l6 -45l-219 -45l-125 -246v-69z" />
    <glyph glyph-name="Cacute" unicode="&#x106;" horiz-adv-x="1415" 
d="M1319 1028h-68l-98 238q-124 135 -337 135t-352.5 -172.5t-139.5 -479.5t141 -507.5t395 -200.5q92 0 165 37t118 82l121 268h67l-26 -317q-254 -117 -498 -146q-141 0 -273.5 47t-293 195.5t-160.5 487.5t203.5 537.5t554.5 235.5q249 0 481 -133v-307zM885 1845h211
l-254 -272h-74z" />
    <glyph glyph-name="cacute" unicode="&#x107;" horiz-adv-x="913" 
d="M530 -31q-201 0 -327.5 128.5t-126.5 353.5t137.5 360t347.5 180q104 0 180 -42t101 -62v-197h-154l-65 201q-39 25 -95 25q-112 -1 -187 -99.5t-75 -279.5t92.5 -297.5t241.5 -116.5q118 0 242 88l20 -45q-145 -123 -332 -197zM481 1118l107 355h207l-265 -355h-49z" />
    <glyph glyph-name="Ccircumflex" unicode="&#x108;" horiz-adv-x="1415" 
d="M1319 1028h-68l-98 238q-124 135 -337 135t-352.5 -172.5t-139.5 -479.5t141 -507.5t395 -200.5q92 0 165 37t118 82l121 268h67l-26 -317q-254 -117 -498 -146q-141 0 -273.5 47t-293 195.5t-160.5 487.5t203.5 537.5t554.5 235.5q249 0 481 -133v-307zM770 1851h109
l241 -278h-73l-209 149l-15 15l-14 -15l-207 -149h-74z" />
    <glyph glyph-name="ccircumflex" unicode="&#x109;" horiz-adv-x="913" 
d="M530 -31q-201 0 -327.5 128.5t-126.5 353.5t137.5 360t347.5 180q104 0 180 -42t101 -62v-197h-154l-65 201q-39 25 -95 25q-112 -1 -187 -99.5t-75 -279.5t92.5 -297.5t241.5 -116.5q118 0 242 88l20 -45q-145 -123 -332 -197zM252 1118l237 365h91l237 -365h-51
l-211 199l-20 22l-232 -221h-51z" />
    <glyph glyph-name="Cdotaccent" unicode="&#x10a;" horiz-adv-x="1415" 
d="M1319 1028h-68l-98 238q-124 135 -337 135t-352.5 -172.5t-139.5 -479.5t141 -507.5t395 -200.5q92 0 165 37t118 82l121 268h67l-26 -317q-254 -117 -498 -146q-141 0 -273.5 47t-293 195.5t-160.5 487.5t203.5 537.5t554.5 235.5q249 0 481 -133v-307zM717 1612
l-10 108l18 92l141 11l56 -11l10 -108l-21 -92l-143 -13z" />
    <glyph glyph-name="cdotaccent" unicode="&#x10b;" horiz-adv-x="913" 
d="M530 -31q-201 0 -327.5 128.5t-126.5 353.5t137.5 360t347.5 180q104 0 180 -42t101 -62v-197h-154l-65 201q-39 25 -95 25q-112 -1 -187 -99.5t-75 -279.5t92.5 -297.5t241.5 -116.5q118 0 242 88l20 -45q-145 -123 -332 -197zM436 1442l144 10l51 -12l12 -107l-20 -92
l-142 -12l-53 12l-12 109z" />
    <glyph glyph-name="Ccaron" unicode="&#x10c;" horiz-adv-x="1415" 
d="M1319 1028h-68l-98 238q-124 135 -337 135t-352.5 -172.5t-139.5 -479.5t141 -507.5t395 -200.5q92 0 165 37t118 82l121 268h67l-26 -317q-254 -117 -498 -146q-141 0 -273.5 47t-293 195.5t-160.5 487.5t203.5 537.5t554.5 235.5q249 0 481 -133v-307zM588 1845
l207 -149l12 -15l16 15l207 149h74l-242 -278h-108l-238 278h72z" />
    <glyph glyph-name="ccaron" unicode="&#x10d;" horiz-adv-x="913" 
d="M530 -31q-201 0 -327.5 128.5t-126.5 353.5t137.5 360t347.5 180q104 0 180 -42t101 -62v-197h-154l-65 201q-39 25 -95 25q-112 -1 -187 -99.5t-75 -279.5t92.5 -297.5t241.5 -116.5q118 0 242 88l20 -45q-145 -123 -332 -197zM301 1489l211 -201l20 -22l232 223h51
l-237 -365h-91l-237 365h51z" />
    <glyph glyph-name="Dcaron" unicode="&#x10e;" horiz-adv-x="1497" 
d="M1050 1203.5q-130 178.5 -384 178.5l-209 -14v-1296l250 -17q212 0 342.5 186t130.5 485t-130 477.5zM1239 220.5q-178 -199.5 -516 -222.5l-361 4l-296 -4l-7 47l181 21v1304l-181 19l7 47l294 -4l373 4q321 0 502.5 -180t181.5 -508t-178 -527.5zM424 1845h72l206 -149
l15 -15l14 15l209 149h72l-242 -278h-106z" />
    <glyph glyph-name="dcaron" unicode="&#x10f;" horiz-adv-x="1257" 
d="M350.5 806q-71.5 -110 -71.5 -290t62.5 -289.5t162.5 -109.5q75 0 182 78l51 41v600q-64 82 -190 81q-125 -1 -196.5 -111zM932 252q0 -94 35 -166l123 8l6 -47l-293 -59l-55 176l-275 -195q-179 0 -291 132t-112 349t122.5 358.5t354.5 182.5q88 0 190 -55v424l-135 -12
l-8 45l276 65l62 4v-1210zM1120 1274l-92 37l2 145h207l-6 -186l-154 -275l-45 15z" />
    <glyph glyph-name="Dcroat" unicode="&#x110;" horiz-adv-x="1497" 
d="M1050 1203.5q-130 178.5 -384 178.5l-209 -14v-592h268v-65h-268v-639l250 -17q212 0 342.5 186t130.5 485t-130 477.5zM240 711h-160v65h160v594l-181 19l7 47l294 -4l373 4q321 0 502.5 -180t181.5 -506q0 -502 -260 -621t-434 -131l-361 4l-296 -4l-7 47l181 21v645z
" />
    <glyph glyph-name="dcroat" unicode="&#x111;" horiz-adv-x="1134" 
d="M350.5 806q-71.5 -110 -71.5 -290t62.5 -289.5t162.5 -109.5q75 0 182 78l51 41v600q-64 82 -190 81q-125 -1 -196.5 -111zM737 1165h-245v52h245v143l-135 -12l-8 45l276 65l62 4v-245h149v-52h-149v-913q0 -94 35 -166l123 8l6 -47l-293 -59l-55 176l-275 -195
q-179 0 -291 132t-112 349t122.5 358.5t354.5 182.5q88 0 190 -55v229z" />
    <glyph glyph-name="Emacron" unicode="&#x112;" horiz-adv-x="1261" 
d="M59 45l174 21v1304l-174 19l7 47l282 -4l815 4l11 -371h-46l-127 305l-550 2v-592l305 4l86 230h47l-10 -256l10 -269h-47l-86 230l-305 4v-662l567 5l137 315h49l-37 -383l-821 4l-280 -4zM397 1729h578v-95h-578v95z" />
    <glyph glyph-name="emacron" unicode="&#x113;" horiz-adv-x="962" 
d="M229 1374h580v-92h-580v92zM674 612q0 151 -29 204.5t-66.5 75t-97.5 21.5q-102 0 -156.5 -87t-64.5 -228v-6l414 10v10zM70 452q0 223 124 357.5t334 181.5q183 0 271 -102.5t88 -276.5v-71h-627q4 -197 99.5 -306.5t254.5 -109.5q119 0 256 86l23 -47
q-148 -116 -354 -195q-196 0 -332.5 130t-136.5 353z" />
    <glyph glyph-name="Ebreve" unicode="&#x114;" horiz-adv-x="1261" 
d="M59 45l174 21v1304l-174 19l7 47l282 -4l815 4l11 -371h-46l-127 305l-550 2v-592l305 4l86 230h47l-10 -256l10 -269h-47l-86 230l-305 4v-662l567 5l137 315h49l-37 -383l-821 4l-280 -4zM681 1665q48 0 86 15.5t66.5 37t50 47t38.5 45.5l32 -26q-29 -71 -83.5 -130
t-163.5 -106q-192 0 -301 236l34 26q58 -95 125.5 -120t115.5 -25z" />
    <glyph glyph-name="ebreve" unicode="&#x115;" horiz-adv-x="962" 
d="M514 1251q132 0 231 154l37 -27q-29 -63 -81 -125.5t-162 -122.5q-111 0 -190.5 74.5t-115.5 173.5l39 25q47 -98 120 -125t122 -27zM674 612q0 151 -29 204.5t-66.5 75t-97.5 21.5q-102 0 -156.5 -87t-64.5 -228v-6l414 10v10zM70 452q0 223 124 357.5t334 181.5
q183 0 271 -102.5t88 -276.5v-71h-627q4 -197 99.5 -306.5t254.5 -109.5q119 0 256 86l23 -47q-148 -116 -354 -195q-196 0 -332.5 130t-136.5 353z" />
    <glyph glyph-name="Edotaccent" unicode="&#x116;" horiz-adv-x="1261" 
d="M59 45l174 21v1304l-174 19l7 47l282 -4l815 4l11 -371h-46l-127 305l-550 2v-592l305 4l86 230h47l-10 -256l10 -269h-47l-86 230l-305 4v-662l567 5l137 315h49l-37 -383l-821 4l-280 -4zM594 1612l-10 108l20 92l141 11l56 -11l8 -108l-18 -92l-144 -13z" />
    <glyph glyph-name="edotaccent" unicode="&#x117;" horiz-adv-x="962" 
d="M416 1442l143 10l53 -12l13 -107l-21 -92l-143 -12l-51 12l-13 109zM674 612q0 151 -29 204.5t-66.5 75t-97.5 21.5q-102 0 -156.5 -87t-64.5 -228v-6l414 10v10zM70 452q0 223 124 357.5t334 181.5q183 0 271 -102.5t88 -276.5v-71h-627q4 -197 99.5 -306.5
t254.5 -109.5q119 0 256 86l23 -47q-148 -116 -354 -195q-196 0 -332.5 130t-136.5 353z" />
    <glyph glyph-name="Eogonek" unicode="&#x118;" horiz-adv-x="1261" 
d="M934 -315q0 -136 209 -136v-45q-195 0 -277 52.5t-82 154.5v92l195 197l-637 2l-276 -4l-7 47l174 21v1304l-174 19l7 47l278 -4l819 4l11 -371h-46l-127 305l-550 2v-592l305 4l86 230h47l-10 -256l10 -269h-47l-86 230l-305 4v-662l567 5l137 315h49l-37 -383l-131 2
l-102 -246v-69z" />
    <glyph glyph-name="eogonek" unicode="&#x119;" horiz-adv-x="962" 
d="M674 612q0 151 -29 204.5t-66.5 75t-97.5 21.5q-102 0 -156.5 -87t-64.5 -228v-6l414 10v10zM530 -315q0 -136 224 -136v-45q-203 0 -287 52.5t-84 154.5v86l176 178l-12 -6q-201 0 -339 128.5t-138 353.5t124 359t334 181q183 0 271 -102.5t88 -276.5v-71h-627
q4 -197 99.5 -306.5t254.5 -109.5q119 0 256 86l23 -47q-122 -91 -236 -148l-127 -241v-90z" />
    <glyph glyph-name="Ecaron" unicode="&#x11a;" horiz-adv-x="1261" 
d="M59 45l174 21v1304l-174 19l7 47l282 -4l815 4l11 -371h-46l-127 305l-550 2v-592l305 4l86 230h47l-10 -256l10 -269h-47l-86 230l-305 4v-662l567 5l137 315h49l-37 -383l-821 4l-280 -4zM399 1845h72l207 -149l14 -15l17 15l206 149h72l-239 -278h-109z" />
    <glyph glyph-name="ecaron" unicode="&#x11b;" horiz-adv-x="962" 
d="M285 1491l211 -201l18 -22l234 223h51l-240 -365h-90l-236 365h52zM674 612q0 151 -29 204.5t-66.5 75t-97.5 21.5q-102 0 -156.5 -87t-64.5 -228v-6l414 10v10zM70 452q0 223 124 357.5t334 181.5q183 0 271 -102.5t88 -276.5v-71h-627q4 -197 99.5 -306.5t254.5 -109.5
q119 0 256 86l23 -47q-148 -116 -354 -195q-196 0 -332.5 130t-136.5 353z" />
    <glyph glyph-name="Gcircumflex" unicode="&#x11c;" horiz-adv-x="1501" 
d="M280.5 1231.5q200.5 195.5 555.5 236.5q270 0 479 -133v-307h-62l-96 236q-47 49 -130 93t-203 44q-233 0 -366.5 -183t-133.5 -479q0 -297 138 -499.5t374 -202.5q94 0 165.5 37t108.5 78v438l-174 22l4 47l268 -4l240 4l4 -47l-125 -22v-479q-175 -78 -317.5 -109
t-218.5 -37q-301 0 -506 195.5t-205 535.5t200.5 535.5zM530 1573l240 278h109l241 -278h-73l-207 149l-17 15l-12 -15l-207 -149h-74z" />
    <glyph glyph-name="gcircumflex" unicode="&#x11d;" horiz-adv-x="1038" 
d="M662 627q0 192 -72 243.5t-142 51.5t-113.5 -63.5t-43.5 -178.5q0 -186 71.5 -234.5t141.5 -48.5t114 60.5t44 169.5zM217 -213q0 -80 69.5 -130t182.5 -48h23q141 0 236 72.5t95 168.5q0 57 -40 87t-136 30h-332q-66 -66 -82 -106.5t-16 -73.5zM358 137h379
q125 0 184.5 -58.5t59.5 -135.5q0 -141 -142 -256.5t-372 -186.5q-211 0 -319.5 63.5t-108.5 207.5v34l229 175q-104 33 -137 85t-33 121v23l203 147q-92 35 -149.5 105.5t-57.5 167.5q0 131 95.5 219t302.5 141q109 0 193.5 -41t127.5 -112l109 153h106v-178h-149l-41 -25
q20 -47 20 -94q0 -133 -95 -222t-302 -142q-67 0 -107 14l-96 -104q0 -101 100 -101zM225 1118l238 365h90l238 -365h-52l-211 199l-20 22l-232 -221h-51z" />
    <glyph glyph-name="Gbreve" unicode="&#x11e;" horiz-adv-x="1501" 
d="M280.5 1231.5q200.5 195.5 555.5 236.5q270 0 479 -133v-307h-62l-96 236q-47 49 -130 93t-203 44q-233 0 -366.5 -183t-133.5 -479q0 -297 138 -499.5t374 -202.5q94 0 165.5 37t108.5 78v438l-174 22l4 47l268 -4l240 4l4 -47l-125 -22v-479q-175 -78 -317.5 -109
t-218.5 -37q-301 0 -506 195.5t-205 535.5t200.5 535.5zM801.5 1665q135.5 0 188 62.5t69.5 82.5l33 -26q-64 -155 -248 -236q-192 0 -301 236l35 26q88 -145 223.5 -145z" />
    <glyph glyph-name="gbreve" unicode="&#x11f;" horiz-adv-x="1038" 
d="M662 627q0 192 -72 243.5t-142 51.5t-113.5 -63.5t-43.5 -178.5q0 -186 71.5 -234.5t141.5 -48.5t114 60.5t44 169.5zM217 -213q0 -80 69.5 -130t182.5 -48h23q141 0 236 72.5t95 168.5q0 57 -40 87t-136 30h-332q-66 -66 -82 -106.5t-16 -73.5zM358 137h379
q125 0 184.5 -58.5t59.5 -135.5q0 -141 -142 -256.5t-372 -186.5q-211 0 -319.5 63.5t-108.5 207.5v34l229 175q-104 33 -137 85t-33 121v23l203 147q-92 35 -149.5 105.5t-57.5 167.5q0 131 95.5 219t302.5 141q109 0 193.5 -41t127.5 -112l109 153h106v-178h-149l-41 -25
q20 -47 20 -94q0 -133 -95 -222t-302 -142q-67 0 -107 14l-96 -104q0 -101 100 -101zM490 1253q151 0 237 152l39 -25q-31 -63 -84 -125.5t-162 -121.5q-112 0 -193.5 77t-109.5 168l37 27q85 -152 236 -152z" />
    <glyph glyph-name="Gdotaccent" unicode="&#x120;" horiz-adv-x="1501" 
d="M280.5 1231.5q200.5 195.5 555.5 236.5q270 0 479 -133v-307h-62l-96 236q-47 49 -130 93t-203 44q-233 0 -366.5 -183t-133.5 -479q0 -297 138 -499.5t374 -202.5q94 0 165.5 37t108.5 78v438l-174 22l4 47l268 -4l240 4l4 -47l-125 -22v-479q-175 -78 -317.5 -109
t-218.5 -37q-301 0 -506 195.5t-205 535.5t200.5 535.5zM731 1612l-10 108l18 92l142 11l55 -11l8 -108l-20 -92l-142 -13z" />
    <glyph glyph-name="gdotaccent" unicode="&#x121;" horiz-adv-x="1038" 
d="M662 627q0 192 -72 243.5t-142 51.5t-113.5 -63.5t-43.5 -178.5q0 -186 71.5 -234.5t141.5 -48.5t114 60.5t44 169.5zM217 -213q0 -80 69.5 -130t182.5 -48h23q141 0 236 72.5t95 168.5q0 57 -40 87t-136 30h-332q-66 -66 -82 -106.5t-16 -73.5zM358 137h379
q125 0 184.5 -58.5t59.5 -135.5q0 -141 -142 -256.5t-372 -186.5q-211 0 -319.5 63.5t-108.5 207.5v34l229 175q-104 33 -137 85t-33 121v23l203 147q-92 35 -149.5 105.5t-57.5 167.5q0 131 95.5 219t302.5 141q109 0 193.5 -41t127.5 -112l109 153h106v-178h-149l-41 -25
q20 -47 20 -94q0 -133 -95 -222t-302 -142q-67 0 -107 14l-96 -104q0 -101 100 -101zM399 1442l142 10l53 -12l12 -107l-22 -92l-140 -12l-53 12l-12 109z" />
    <glyph glyph-name="Gcommaaccent" unicode="&#x122;" horiz-adv-x="1501" 
d="M280.5 1231.5q200.5 195.5 555.5 236.5q270 0 479 -133v-307h-62l-96 236q-47 49 -130 93t-203 44q-233 0 -366.5 -183t-133.5 -479q0 -297 138 -499.5t374 -202.5q94 0 165.5 37t108.5 78v438l-174 22l4 47l268 -4l240 4l4 -47l-125 -22v-479q-175 -78 -317.5 -109
t-218.5 -37q-301 0 -506 195.5t-205 535.5t200.5 535.5zM702 -102h201v-160l-164 -223l-47 14l78 213l-68 65v91z" />
    <glyph glyph-name="gcommaaccent" unicode="&#x123;" horiz-adv-x="1038" 
d="M662 627q0 192 -72 243.5t-142 51.5t-113.5 -63.5t-43.5 -178.5q0 -186 71.5 -234.5t141.5 -48.5t114 60.5t44 169.5zM217 -213q0 -80 69.5 -130t182.5 -48h23q141 0 236 72.5t95 168.5q0 57 -40 87t-136 30h-332q-66 -66 -82 -106.5t-16 -73.5zM358 137h379
q125 0 184.5 -58.5t59.5 -135.5q0 -141 -142 -256.5t-372 -186.5q-211 0 -319.5 63.5t-108.5 207.5v34l229 175q-104 33 -137 85t-33 121v23l203 147q-92 35 -149.5 105.5t-57.5 167.5q0 131 95.5 219t302.5 141q109 0 193.5 -41t127.5 -112l109 153h106v-178h-149l-41 -25
q20 -47 20 -94q0 -133 -95 -222t-302 -142q-67 0 -107 14l-96 -104q0 -101 100 -101zM590 1130h-199v164l160 226l49 -13l-78 -217l68 -67v-93z" />
    <glyph glyph-name="Hcircumflex" unicode="&#x124;" horiz-adv-x="1542" 
d="M451 778h647v592l-172 19l6 47l276 -4l269 4l6 -47l-168 -19v-1304l168 -21l-6 -47l-269 4l-276 -4l-6 47l172 21v645h-647v-645l165 -21l-6 -47l-268 4l-276 -4l-7 47l174 21v1304l-174 19l7 47l276 -4l268 4l6 -47l-165 -19v-592zM487 1573l240 278h109l241 -278h-73
l-209 149l-15 15l-14 -15l-207 -149h-72z" />
    <glyph glyph-name="hcircumflex" unicode="&#x125;" horiz-adv-x="1187" 
d="M819 686q1 160 -123 160q-56 0 -105.5 -25.5t-109.5 -62.5l-71 -41v-654l106 -18l-6 -47l-193 4l-231 -4l-6 47l135 18v1299l-133 -14l-6 47l272 63l62 4v-684l335 213q160 0 218 -78q53 -67 53 -241v-609l149 -18l-6 -47l-239 4l-195 -4l-6 47l100 18v623zM14 1573
l242 278h109l239 -278h-72l-208 149l-15 15l-14 -15l-209 -149h-72z" />
    <glyph glyph-name="Hbar" unicode="&#x126;" horiz-adv-x="1542" 
d="M1098 778v201h-647v-201h647zM451 1028h647v342l-172 19l6 47l276 -4l269 4l6 -47l-168 -19v-1304l168 -21l-6 -47l-269 4l-276 -4l-6 47l172 21v645h-647v-645l165 -21l-6 -47l-268 4l-276 -4l-7 47l174 21v1304l-174 19l7 47l276 -4l268 4l6 -47l-165 -19v-342z" />
    <glyph glyph-name="hbar" unicode="&#x127;" horiz-adv-x="1187" 
d="M807 686q0 160 -129 160q-51 0 -100.5 -25.5t-108.5 -62.5l-72 -41v-654l107 -18l-6 -47l-193 4l-231 -4l-6 47l135 18v1096h-140v49h140v154l-133 -14l-7 47l273 63l61 4v-254h267v-49h-267v-381l336 213q161 0 217 -78q54 -68 54 -241v-609l149 -18l-6 -47l-240 4
l-194 -4l-6 47l100 18v623z" />
    <glyph glyph-name="Itilde" unicode="&#x128;" horiz-adv-x="688" 
d="M348 2l-276 -4l-6 49l174 19v1304l-174 19l6 47l276 -4l277 4l4 -47l-172 -19v-1304l172 -19l-4 -49zM82 1782l133 43l369 -135l69 139h35l-53 -209l-133 -43l-369 137l-70 -141h-34z" />
    <glyph glyph-name="itilde" unicode="&#x129;" horiz-adv-x="581" 
d="M307 2l-231 -4l-4 47l133 18v809l-137 -20l-7 45l277 72l61 4v-910l142 -18l-4 -47zM18 1399l132 41l370 -140l64 140h39l-56 -215l-131 -35l-373 141l-61 -141h-41z" />
    <glyph glyph-name="Imacron" unicode="&#x12a;" horiz-adv-x="688" 
d="M348 2l-276 -4l-6 49l174 19v1304l-174 19l6 47l276 -4l277 4l4 -47l-172 -19v-1304l172 -19l-4 -49zM57 1729h578v-95h-578v95z" />
    <glyph glyph-name="imacron" unicode="&#x12b;" horiz-adv-x="581" 
d="M307 2l-231 -4l-4 47l133 18v809l-137 -20l-7 45l277 72l61 4v-910l142 -18l-4 -47zM4 1374h580v-92h-580v92z" />
    <glyph glyph-name="Ibreve" unicode="&#x12c;" horiz-adv-x="688" 
d="M348 2l-276 -4l-6 49l174 19v1304l-174 19l6 47l276 -4l277 4l4 -47l-172 -19v-1304l172 -19l-4 -49zM590 1810l33 -26q-64 -156 -246 -236q-160 0 -223.5 98.5t-79.5 137.5l35 26q56 -93 124 -118t134 -25q116 0 223 143z" />
    <glyph glyph-name="ibreve" unicode="&#x12d;" horiz-adv-x="581" 
d="M307 2l-231 -4l-4 47l133 18v809l-137 -20l-7 45l277 72l61 4v-910l142 -18l-4 -47zM293 1253q146 0 231 152l39 -25q-29 -63 -82 -125.5t-162 -121.5q-113 0 -193 75t-112 170l37 27q56 -100 124.5 -126t117.5 -26z" />
    <glyph glyph-name="Iogonek" unicode="&#x12e;" horiz-adv-x="681" 
d="M283 -315q0 -136 215 -136v-45q-197 0 -281 52.5t-84 154.5v86l191 205l-258 -4l-7 49l174 19v1304l-174 19l7 47l276 -4l276 4l5 -47l-172 -19v-1304l172 -19l-5 -49l-235 4l-100 -248v-69z" />
    <glyph glyph-name="iogonek" unicode="&#x12f;" horiz-adv-x="581" 
d="M211 1417l143 10l56 -10l12 -108l-21 -99l-143 -10l-53 10l-15 113zM240 -315q0 -136 213 -136v-45q-197 0 -279 52.5t-82 154.5v92l191 199l-207 -4l-4 47l133 18v809l-137 -20l-7 45l277 72l61 4v-910l142 -18l-4 -47l-195 4l-102 -248v-69z" />
    <glyph glyph-name="Idotaccent" unicode="&#x130;" horiz-adv-x="688" 
d="M348 2l-276 -4l-6 49l174 19v1304l-174 19l6 47l276 -4l277 4l4 -47l-172 -19v-1304l172 -19l-4 -49zM256 1812l141 11l56 -11l10 -108l-21 -92l-141 -13l-53 13l-10 108z" />
    <glyph glyph-name="dotlessi" unicode="&#x131;" horiz-adv-x="581" 
d="M307 2l-231 -4l-4 47l133 18v809l-137 -20l-7 45l277 72l61 4v-910l142 -18l-4 -47z" />
    <glyph glyph-name="IJ" unicode="&#x132;" horiz-adv-x="1232" 
d="M346 4l-276 -4l-4 47l172 19v1304l-172 19l4 47l276 -4l223 4l6 -47l-120 -19v-1304l166 -19l-7 -47zM1012 227q0 -217 -121 -352l-201 -233h-153v194h211l16 43q25 50 27 148t2 172v1171l-136 21l7 45l243 -4l269 4l4 -47l-168 -19v-1143z" />
    <glyph glyph-name="ij" unicode="&#x133;" horiz-adv-x="1005" 
d="M307 2l-231 -4l-6 47l137 18v809l-137 -20l-9 45l279 72l61 4v-910l142 -18l-6 -47zM672 -45v917l-137 -22l-9 49l279 70l61 4v-975q0 -90 -25.5 -148.5t-80.5 -119.5l-185 -215h-151v182h207l12 39q29 84 29 219zM676 1417l143 10l55 -10l11 -108l-21 -99l-143 -10
l-53 10l-13 113zM211 1417l143 10l56 -10l10 -108l-21 -99l-143 -10l-53 10l-13 113z" />
    <glyph glyph-name="Jcircumflex" unicode="&#x134;" horiz-adv-x="694" 
d="M479 219q0 -135 -36.5 -220t-96.5 -151l-184 -206h-160v184h223l13 45q18 61 20 153.5t2 165.5v1180l-213 19l4 47l318 -4l272 4l4 -47l-166 -19v-1151zM68 1573l239 278h109l239 -278h-71l-207 149l-17 15l-14 -15l-207 -149h-71z" />
    <glyph glyph-name="jcircumflex" unicode="&#x135;" horiz-adv-x="542" 
d="M209 -45v917l-137 -22l-9 49l279 70l61 4v-975q0 -90 -25.5 -148.5t-80.5 -119.5l-186 -215h-154v182h211l12 39q29 84 29 219zM8 1118l236 365h90l237 -365h-51l-211 199l-20 22l-230 -221h-51z" />
    <glyph glyph-name="Kcommaaccent" unicode="&#x136;" horiz-adv-x="1435" 
d="M1298 63l117 -18l-4 -47l-209 4l-143 -4l-580 680l-28 47v-659l155 -21l-4 -47l-260 4l-276 -4l-7 47l174 21v1304l-174 19l7 47l276 -4l260 4l4 -47l-155 -19v-614l45 32l612 582l-168 19l6 47l213 -4l197 4l6 -47l-166 -23l-631 -602l109 10zM627 -102h198v-160
l-161 -223l-48 14l78 213l-67 65v91z" />
    <glyph glyph-name="kcommaaccent" unicode="&#x137;" horiz-adv-x="1112" 
d="M924 2l-127 -4l-373 477l-25 45v-457l119 -18l-4 -47l-211 4l-229 -4l-4 47l135 18v1297l-135 -14l-9 49l277 63l61 4v-915l52 31l376 319l-100 18v46l166 -3l160 3l6 -46l-125 -18l-428 -346l98 2l410 -492l88 -16l-6 -47zM483 -102h199v-160l-164 -223l-47 14l78 213
l-66 65v91z" />
    <glyph glyph-name="kgreenlandic" unicode="&#x138;" horiz-adv-x="1103" 
d="M913 2l-125 -4l-364 471l-25 47v-453l119 -18l-4 -47l-211 4l-229 -4l-4 47l135 18v799l-135 -16l-9 47l277 68l61 4v-414l47 27l385 319l-102 18v46l174 -3l154 3l6 -46l-123 -18l-381 -305l37 -35l408 -496l90 -16l-4 -47z" />
    <glyph glyph-name="Lacute" unicode="&#x139;" horiz-adv-x="1177" 
d="M346 2l-280 -4l-7 47l174 21v1304l-174 19l7 47l276 -4l276 4l5 -47l-172 -19v-1307l514 5l143 319h49l-35 -389zM309 1573l119 272h211l-256 -272h-74z" />
    <glyph glyph-name="lacute" unicode="&#x13a;" horiz-adv-x="569" 
d="M303 2l-229 -4l-6 47l135 18v1297l-133 -14l-7 49l273 63l61 4v-1399l142 -18l-7 -47zM262 1552l96 314h213l-258 -314h-51z" />
    <glyph glyph-name="Lcommaaccent" unicode="&#x13b;" horiz-adv-x="1177" 
d="M346 2l-280 -4l-7 47l174 21v1304l-174 19l7 47l276 -4l276 4l5 -47l-172 -19v-1307l514 5l143 319h49l-35 -389zM561 -102h199v-160l-162 -223l-49 14l80 213l-68 65v91z" />
    <glyph glyph-name="lcommaaccent" unicode="&#x13c;" horiz-adv-x="569" 
d="M303 2l-229 -4l-6 47l135 18v1297l-133 -14l-7 49l273 63l61 4v-1399l142 -18l-7 -47zM201 -102h200v-160l-161 -223l-50 14l80 213l-69 65v91z" />
    <glyph glyph-name="Lcaron" unicode="&#x13d;" horiz-adv-x="1183" 
d="M346 2l-280 -4l-7 47l174 21v1304l-174 19l7 47l276 -4l276 4l5 -47l-172 -19v-1307l514 5l143 319h49l-35 -389zM915 940q6 14 22.5 57t49.5 127.5t33 102.5l-113 6l-10 117l14 96l150 8l61 -8l8 -113l-14 -100l-158 -309z" />
    <glyph glyph-name="lcaron" unicode="&#x13e;" horiz-adv-x="737" 
d="M303 2l-229 -4l-6 47l135 18v1297l-133 -14l-7 49l273 63l61 4v-1399l142 -18l-7 -47zM600 1274l-92 37l2 145h205l-4 -186l-156 -275l-43 13z" />
    <glyph glyph-name="Ldot" unicode="&#x13f;" horiz-adv-x="1177" 
d="M346 2l-280 -4l-7 47l174 21v1304l-174 19l7 47l276 -4l276 4l5 -47l-172 -19v-1307l514 5l143 319h49l-35 -389zM815 938l55 -10l9 -107l-21 -94l-141 -10l-53 10l-11 111l21 90z" />
    <glyph glyph-name="ldot" unicode="&#x140;" horiz-adv-x="774" 
d="M303 2l-229 -4l-6 47l135 18v1297l-133 -14l-7 49l273 63l61 4v-1399l142 -18l-7 -47zM694 938l54 -10l12 -107l-21 -96l-139 -10l-53 10l-10 111l16 92z" />
    <glyph glyph-name="Lslash" unicode="&#x141;" horiz-adv-x="1177" 
d="M346 2l-280 -4l-7 47l174 21v626l-167 -82v66l167 82v612l-174 19l7 47l276 -4l276 4l5 -47l-172 -19v-504l206 103v-66l-206 -102v-738l514 5l143 319h49l-35 -389z" />
    <glyph glyph-name="lslash" unicode="&#x142;" horiz-adv-x="569" 
d="M303 2l-229 -4l-6 47l135 18v656l-146 -72v60l146 71v582l-133 -14l-7 49l273 63l61 4v-588l148 74v-61l-148 -74v-750l142 -18l-7 -47z" />
    <glyph glyph-name="Nacute" unicode="&#x143;" horiz-adv-x="1466" 
d="M1272 -8h-115l-799 1206l-43 113v-1245l172 -21l-6 -47l-200 4l-215 -4l-7 47l174 21v1296l-170 27l7 47l188 -4l191 4l700 -1043l43 -90v1067l-172 19l4 47l201 -4l215 4l6 -47l-174 -19v-1378zM707 1573l118 272h211l-256 -272h-73z" />
    <glyph glyph-name="nacute" unicode="&#x144;" horiz-adv-x="1189" 
d="M807 686q0 160 -124 160q-58 0 -107.5 -25.5t-106.5 -62.5l-68 -43v-652l105 -18l-6 -47l-195 4l-229 -4l-6 47l137 18v809l-139 -22l-7 47l279 72l53 4l6 -197l336 215q159 -4 211 -67q58 -62 58 -234v-627l151 -18l-6 -47l-238 4l-198 -4l-4 47l98 18v623zM532 1118
l105 355h207l-262 -355h-50z" />
    <glyph glyph-name="Ncommaaccent" unicode="&#x145;" horiz-adv-x="1466" 
d="M1272 -8h-115l-799 1206l-43 113v-1245l172 -21l-6 -47l-200 4l-215 -4l-7 47l174 21v1296l-170 27l7 47l188 -4l191 4l700 -1043l43 -90v1067l-172 19l4 47l201 -4l215 4l6 -47l-174 -19v-1378zM662 -102h198v-160l-162 -223l-47 14l78 213l-67 65v91z" />
    <glyph glyph-name="ncommaaccent" unicode="&#x146;" horiz-adv-x="1189" 
d="M807 686q0 160 -124 160q-58 0 -107.5 -25.5t-106.5 -62.5l-68 -43v-652l105 -18l-6 -47l-195 4l-229 -4l-6 47l137 18v809l-139 -22l-7 47l279 72l53 4l6 -197l336 215q159 -4 211 -67q58 -62 58 -234v-627l151 -18l-6 -47l-238 4l-198 -4l-4 47l98 18v623zM504 -102
h198v-160l-161 -223l-49 14l79 213l-67 65v91z" />
    <glyph glyph-name="Ncaron" unicode="&#x147;" horiz-adv-x="1466" 
d="M1272 -8h-115l-799 1206l-43 113v-1245l172 -21l-6 -47l-200 4l-215 -4l-7 47l174 21v1296l-170 27l7 47l188 -4l191 4l700 -1043l43 -90v1067l-172 19l4 47l201 -4l215 4l6 -47l-174 -19v-1378zM551 1845l207 -149l14 -15l14 15l209 149h74l-242 -278h-108l-240 278h72z
" />
    <glyph glyph-name="ncaron" unicode="&#x148;" horiz-adv-x="1189" 
d="M807 686q0 160 -124 160q-58 0 -107.5 -25.5t-106.5 -62.5l-68 -43v-652l105 -18l-6 -47l-195 4l-229 -4l-6 47l137 18v809l-139 -22l-7 47l279 72l53 4l6 -197l336 215q159 -4 211 -67q58 -62 58 -234v-627l151 -18l-6 -47l-238 4l-198 -4l-4 47l98 18v623zM373 1491
l211 -201l20 -22l232 223h51l-238 -365h-90l-237 365h51z" />
    <glyph glyph-name="napostrophe" unicode="&#x149;" horiz-adv-x="1189" 
d="M807 686q0 160 -124 160q-58 0 -107.5 -25.5t-106.5 -62.5l-68 -43v-652l105 -18l-6 -47l-195 4l-229 -4l-6 47l137 18v809l-139 -22l-7 47l279 72l53 4l6 -197l336 215q159 -4 211 -67q58 -62 58 -234v-627l151 -18l-6 -47l-238 4l-198 -4l-4 47l98 18v623zM145 1030
l84 250l-88 37l4 139h201l-4 -176l-154 -262z" />
    <glyph glyph-name="Eng" unicode="&#x14a;" horiz-adv-x="1466" 
d="M807 -481v172h164l157 243l91 58h-62l-801 1210l-41 109v-1245l172 -21l-6 -47l-200 4l-215 -4l-7 47l174 21v1296l-170 27l5 47l188 -4l193 4l692 -1030l51 -105v1069l-172 19l4 47l201 -4l215 4l6 -47l-174 -19v-1378l-238 -473h-227z" />
    <glyph glyph-name="eng" unicode="&#x14b;" horiz-adv-x="1126" 
d="M807 686q0 160 -124 160q-58 0 -107.5 -25.5t-106.5 -60.5l-68 -45v-652l105 -18l-6 -47l-195 4l-229 -4l-6 47l137 18v809l-139 -22l-7 47l279 72l53 4l6 -197l336 215q152 0 209 -65q60 -64 60 -234v-690q0 -118 -44.5 -180t-74.5 -98l-170 -207h-156v186h211l12 39
q25 91 25 225v719z" />
    <glyph glyph-name="Omacron" unicode="&#x14c;" horiz-adv-x="1576" 
d="M457.5 251q133.5 -206 355.5 -206t332 178t110 465t-133 495t-354 208t-332.5 -177.5t-111.5 -467.5q0 -289 133.5 -495zM80 688q0 334 178 527.5t553 252.5q305 0 496.5 -205t191.5 -528t-178 -516.5t-553 -253.5q-301 0 -444.5 151.5t-193.5 285t-50 286.5zM496 1729
h579v-95h-579v95z" />
    <glyph glyph-name="omacron" unicode="&#x14d;" horiz-adv-x="1087" 
d="M359 176q83 -133 212 -133q174 0 207 157.5t33 257.5q0 201 -82.5 329t-204.5 128t-185 -108t-63 -303t83 -328zM70 457q0 434 501 534q200 0 324.5 -139.5t124.5 -349.5q0 -333 -193.5 -422.5t-308.5 -110.5q-197 0 -322.5 138.5t-125.5 349.5zM256 1374h580v-92h-580
v92z" />
    <glyph glyph-name="Obreve" unicode="&#x14e;" horiz-adv-x="1576" 
d="M457.5 251q133.5 -206 355.5 -206t332 178t110 465t-133 495t-354 208t-332.5 -177.5t-111.5 -467.5q0 -289 133.5 -495zM80 688q0 334 178 527.5t553 252.5q305 0 496.5 -205t191.5 -528t-178 -516.5t-553 -253.5q-301 0 -444.5 151.5t-193.5 285t-50 286.5zM1047 1810
l34 -26q-64 -155 -247 -236q-162 0 -223.5 98.5t-80.5 137.5l37 26q56 -91 123.5 -117t133.5 -26q116 0 223 143z" />
    <glyph glyph-name="obreve" unicode="&#x14f;" horiz-adv-x="1087" 
d="M359 176q83 -133 212 -133q174 0 207 157.5t33 257.5q0 201 -82.5 329t-204.5 128t-185 -108t-63 -303t83 -328zM70 457q0 434 501 534q200 0 324.5 -139.5t124.5 -349.5q0 -333 -193.5 -422.5t-308.5 -110.5q-197 0 -322.5 138.5t-125.5 349.5zM778 1405l37 -25
q-29 -63 -81 -125.5t-163 -121.5q-111 0 -189 73t-116 172l39 27q56 -100 124.5 -126t134.5 -26q117 0 214 152z" />
    <glyph glyph-name="Ohungarumlaut" unicode="&#x150;" horiz-adv-x="1576" 
d="M457.5 251q133.5 -206 355.5 -206t332 178t110 465t-133 495t-354 208t-332.5 -177.5t-111.5 -467.5q0 -289 133.5 -495zM80 688q0 334 178 527.5t553 252.5q305 0 496.5 -205t191.5 -528t-178 -516.5t-553 -253.5q-301 0 -444.5 151.5t-193.5 285t-50 286.5zM922 1573
l131 272h225l-287 -272h-69zM596 1573l131 272h225l-284 -272h-72z" />
    <glyph glyph-name="ohungarumlaut" unicode="&#x151;" horiz-adv-x="1087" 
d="M359 176q83 -133 212 -133q174 0 207 157.5t33 257.5q0 201 -82.5 329t-204.5 128t-185 -108t-63 -303t83 -328zM70 457q0 434 501 534q200 0 324.5 -139.5t124.5 -349.5q0 -333 -193.5 -422.5t-308.5 -110.5q-197 0 -322.5 138.5t-125.5 349.5zM682 1118l109 352h223
l-281 -352h-51zM354 1118l107 352h225l-280 -352h-52z" />
    <glyph glyph-name="OE" unicode="&#x152;" horiz-adv-x="1957" 
d="M254.5 1205.5q174.5 184.5 562.5 250.5l273 -22l778 2l10 -371h-45l-125 305l-514 2v-592l260 4l86 230h47l-10 -256l10 -269h-47l-86 230l-260 4v-662l524 5l137 315h48l-35 -383l-838 4l-254 -25q-305 0 -500.5 201t-195.5 522t174.5 505.5zM324 746
q0 -141 38.5 -269.5t147 -275t328.5 -146.5l139 8v1303l-221 16q-207 0 -319.5 -175t-112.5 -461z" />
    <glyph glyph-name="oe" unicode="&#x153;" horiz-adv-x="1705" 
d="M1231 913q-100 0 -154.5 -87t-64.5 -228v-6l405 10q0 155 -26.5 210.5t-63.5 78t-96 22.5zM357 176q83 -133 206 -133t185.5 110t62.5 310q0 199 -81.5 325.5t-205.5 126.5t-187 -108t-63 -303t83 -328zM1628 612v-71h-616v-2q2 -195 99 -304.5t257 -109.5q111 0 246 86
l22 -45q-153 -120 -354 -197q-117 0 -218 50.5t-165 148.5q-122 -147 -381 -199q-196 0 -322 136.5t-126 351.5q0 435 501 532q119 0 211 -53t150 -145q111 147 342 200q354 0 354 -379z" />
    <glyph glyph-name="Racute" unicode="&#x154;" horiz-adv-x="1366" 
d="M451 729h129q168 0 261 93t93 243t-82 231.5t-211 85.5l-190 -14v-639zM1171 1079q0 -308 -483 -399l203 -70l358 -544l107 -23l-4 -45l-181 4l-141 -4l-409 643l-25 29h-145v-604l161 -21l-4 -47l-266 4l-276 -4l-7 47l174 21v1304l-174 19l7 47l274 -4l383 4
q306 0 377 -131t71 -226zM592 1573l119 272h211l-256 -272h-74z" />
    <glyph glyph-name="racute" unicode="&#x155;" horiz-adv-x="790" 
d="M758 981v-209h-193q-21 -4 -70 -53t-59 -62l-39 -51v-540l201 -17l-6 -51l-289 4l-227 -4l-4 47l135 18v809l-139 -20l-7 45l275 72l51 4l4 -297l217 305h150zM410 1118l104 355h209l-262 -355h-51z" />
    <glyph glyph-name="Rcommaaccent" unicode="&#x156;" horiz-adv-x="1366" 
d="M451 729h129q168 0 261 93t93 243t-82 231.5t-211 85.5l-190 -14v-639zM1171 1079q0 -308 -483 -399l203 -70l358 -544l107 -23l-4 -45l-181 4l-141 -4l-409 643l-25 29h-145v-604l161 -21l-4 -47l-266 4l-276 -4l-7 47l174 21v1304l-174 19l7 47l274 -4l383 4
q306 0 377 -131t71 -226zM625 -102h200v-160l-161 -223l-48 14l76 213l-67 65v91z" />
    <glyph glyph-name="rcommaaccent" unicode="&#x157;" horiz-adv-x="790" 
d="M758 981v-209h-193q-21 -4 -70 -53t-59 -62l-39 -51v-540l201 -17l-6 -51l-289 4l-227 -4l-4 47l135 18v809l-139 -20l-7 45l275 72l51 4l4 -297l217 305h150zM207 -102h199v-160l-162 -223l-47 14l77 213l-67 65v91z" />
    <glyph glyph-name="Rcaron" unicode="&#x158;" horiz-adv-x="1366" 
d="M451 729h129q168 0 261 93t93 243t-82 231.5t-211 85.5l-190 -14v-639zM1171 1079q0 -308 -483 -399l203 -70l358 -544l107 -23l-4 -45l-181 4l-141 -4l-409 643l-25 29h-145v-604l161 -21l-4 -47l-266 4l-276 -4l-7 47l174 21v1304l-174 19l7 47l274 -4l383 4
q306 0 377 -131t71 -226zM418 1845l207 -149l12 -15l16 15l209 149h72l-242 -278h-108l-240 278h74z" />
    <glyph glyph-name="rcaron" unicode="&#x159;" horiz-adv-x="792" 
d="M758 981v-209h-193q-21 -4 -70 -53t-59 -62l-39 -51v-540l201 -17l-6 -51l-289 4l-227 -4l-4 47l135 18v809l-139 -20l-7 45l275 72l51 4l4 -297l217 305h150zM215 1491l211 -201l18 -22l234 223h49l-235 -365h-91l-237 365h51z" />
    <glyph glyph-name="Sacute" unicode="&#x15a;" horiz-adv-x="1118" 
d="M840 304q0 107 -55.5 176t-166.5 124l-247 129q-125 64 -188.5 137.5t-63.5 194.5q0 160 126 261t347 142q211 0 381 -100v-305h-62l-84 223q-107 107 -242 107t-205.5 -62.5t-70.5 -160.5t55.5 -155t147.5 -104l240 -123q125 -66 201.5 -150.5t76.5 -221.5
q0 -333 -504 -451q-137 0 -235 35t-185 94l-22 309h82l84 -202q126 -150 328 -150q112 0 187 73t75 180zM557 1573l117 272h211l-256 -272h-72z" />
    <glyph glyph-name="sacute" unicode="&#x15b;" horiz-adv-x="825" 
d="M731 674h-65l-80 188q-69 60 -151 60q-83 0 -127 -35t-44 -93t40 -94t112 -77l164 -95q98 -55 139 -112.5t39 -143.5q0 -123 -94.5 -192.5t-268.5 -110.5q-150 0 -311 90l-21 250h74l90 -194q88 -74 180 -74q91 0 132 45t41 92q0 75 -34 112.5t-124 92.5l-164 94
q-63 37 -115.5 91.5t-52.5 151.5t88 162.5t258 108.5q155 0 295 -82v-235zM371 1118l106 355h207l-260 -355h-53z" />
    <glyph glyph-name="Scircumflex" unicode="&#x15c;" horiz-adv-x="1118" 
d="M840 304q0 107 -55.5 176t-166.5 124l-247 129q-125 64 -188.5 137.5t-63.5 194.5q0 160 126 261t347 142q211 0 381 -100v-305h-62l-84 223q-107 107 -242 107t-205.5 -62.5t-70.5 -160.5t55.5 -155t147.5 -104l240 -123q125 -66 201.5 -150.5t76.5 -221.5
q0 -333 -504 -451q-137 0 -235 35t-185 94l-22 309h82l84 -202q126 -150 328 -150q112 0 187 73t75 180zM303 1573l242 278h106l242 -278h-72l-209 149l-16 15l-12 -15l-209 -149h-72z" />
    <glyph glyph-name="scircumflex" unicode="&#x15d;" horiz-adv-x="825" 
d="M731 674h-65l-80 188q-69 60 -151 60q-83 0 -127 -35t-44 -93t40 -94t112 -77l164 -95q98 -55 139 -112.5t39 -143.5q0 -123 -94.5 -192.5t-268.5 -110.5q-150 0 -311 90l-21 250h74l90 -194q88 -74 180 -74q91 0 132 45t41 92q0 75 -34 112.5t-124 92.5l-164 94
q-63 37 -115.5 91.5t-52.5 151.5t88 162.5t258 108.5q155 0 295 -82v-235zM158 1118l233 365h92l236 -365h-49l-213 199l-19 22l-20 -22l-211 -199h-49z" />
    <glyph glyph-name="Scedilla" unicode="&#x15e;" horiz-adv-x="1118" 
d="M549 -289q0 110 -150 121l97 135q-125 2 -216.5 36t-173.5 91l-22 309h82l84 -202q126 -150 328 -150q112 0 187 73t75 180t-55.5 176t-166.5 124l-247 129q-125 64 -188.5 137.5t-63.5 194.5q0 160 126 261t347 142q211 0 381 -100v-305h-62l-84 223q-107 107 -242 107
t-205.5 -62.5t-70.5 -160.5t55.5 -155t147.5 -104l240 -123q142 -77 210 -159t68 -213q0 -231 -173 -321.5t-308 -123.5l-47 -69q70 -4 119 -42.5t49 -92.5q0 -90 -56.5 -140t-128.5 -76l-127 -47h-84l56 82h155q64 41 64 125z" />
    <glyph glyph-name="scedilla" unicode="&#x15f;" horiz-adv-x="825" 
d="M731 674h-65l-80 188q-69 60 -151 60q-83 0 -127 -35t-44 -93t40 -94t112 -77l164 -95q98 -55 139 -112.5t39 -143.5q0 -113 -83 -183.5t-237 -108.5l-49 -78q66 -4 118 -42t52 -92q0 -89 -55 -138t-131 -79l-125 -47h-86l55 82h158q59 41 59 125q0 110 -147 121l94 137
q-86 4 -168 33t-129 57l-21 250h74l90 -194q88 -74 180 -74q91 0 132 45t41 92q0 75 -34 112.5t-124 92.5l-164 94q-63 37 -115.5 91.5t-52.5 151.5t88 162.5t258 108.5q155 0 295 -82v-235z" />
    <glyph glyph-name="Scaron" unicode="&#x160;" horiz-adv-x="1118" 
d="M840 304q0 107 -55.5 176t-166.5 124l-247 129q-125 64 -188.5 137.5t-63.5 194.5q0 160 126 261t347 142q211 0 381 -100v-305h-62l-84 223q-107 107 -242 107t-205.5 -62.5t-70.5 -160.5t55.5 -155t147.5 -104l240 -123q125 -66 201.5 -150.5t76.5 -221.5
q0 -333 -504 -451q-137 0 -235 35t-185 94l-22 309h82l84 -202q126 -150 328 -150q112 0 187 73t75 180zM373 1845l209 -149l12 -15l16 15l207 149h74l-242 -278h-108l-238 278h70z" />
    <glyph glyph-name="scaron" unicode="&#x161;" horiz-adv-x="825" 
d="M731 674h-65l-80 188q-69 60 -151 60q-83 0 -127 -35t-44 -93t40 -94t112 -77l164 -95q98 -55 139 -112.5t39 -143.5q0 -123 -94.5 -192.5t-268.5 -110.5q-150 0 -311 90l-21 250h74l90 -194q88 -74 180 -74q91 0 132 45t41 92q0 75 -34 112.5t-124 92.5l-164 94
q-63 37 -115.5 91.5t-52.5 151.5t88 162.5t258 108.5q155 0 295 -82v-235zM201 1491l211 -201l20 -22l234 223h49l-238 -365h-90l-237 365h51z" />
    <glyph glyph-name="Tcommaaccent" unicode="&#x162;" horiz-adv-x="1206" 
d="M27 1053v383l577 -4l576 4v-383h-50l-120 317l-297 2v-1306l209 -21l-4 -47l-314 4l-319 -4l-4 47l215 21v1306l-299 -2l-121 -317h-49zM504 -102h201v-160l-162 -223l-47 14l77 213l-69 65v91z" />
    <glyph glyph-name="tcommaaccent" unicode="&#x163;" horiz-adv-x="704" 
d="M496 109q74 0 170 49l22 -43l-262 -146q-205 0 -222.5 99.5t-17.5 160.5v656h-176v28l37 35h141v146l164 123h27v-275h299v-57h-297v-647q0 -129 115 -129zM274 -102h199v-160l-160 -223l-49 14l78 213l-68 65v91z" />
    <glyph glyph-name="Tcaron" unicode="&#x164;" horiz-adv-x="1206" 
d="M27 1053v383l577 -4l576 4v-383h-50l-120 317l-297 2v-1306l209 -21l-4 -47l-314 4l-319 -4l-4 47l215 21v1306l-299 -2l-121 -317h-49zM381 1845l207 -149l14 -15l14 15l209 149h74l-242 -278h-108l-242 278h74z" />
    <glyph glyph-name="tcaron" unicode="&#x165;" horiz-adv-x="790" 
d="M496 109q74 0 170 49l22 -43l-262 -146q-205 0 -222.5 99.5t-17.5 160.5v656h-176v28l37 35h141v146l164 123h27v-275h299v-57h-297v-647q0 -129 115 -129zM586 1042l82 238l-93 39l5 133h194l-4 -174l-137 -248z" />
    <glyph glyph-name="Tbar" unicode="&#x166;" horiz-adv-x="1206" 
d="M496 877h-211v51h211v444l-299 -2l-121 -317h-49v383l577 -4l576 4v-383h-50l-120 317l-297 2v-444h209v-51h-209v-811l209 -21l-4 -47l-314 4l-319 -4l-4 47l215 21v811z" />
    <glyph glyph-name="tbar" unicode="&#x167;" horiz-adv-x="704" 
d="M496 109q74 0 170 49l22 -43l-262 -146q-205 0 -222.5 99.5t-17.5 160.5v383h-166v50h166v223h-176v28l37 35h141v146l164 123h27v-275h299v-57h-297v-223h256v-50h-256v-374q0 -129 115 -129z" />
    <glyph glyph-name="Utilde" unicode="&#x168;" horiz-adv-x="1419" 
d="M735 -35q-536 0 -536 539v866l-172 19l4 47l278 -4l275 4l6 -47l-168 -19v-891q0 -296 135 -356t225 -60q160 0 250 115t90 305v887l-172 19l4 47l224 -4l211 4l6 -47l-168 -19v-874q0 -215 -106 -343.5t-386 -187.5zM508 1782l133 43l367 -135l71 139h35l-55 -209
l-131 -43l-369 137l-70 -141h-34z" />
    <glyph glyph-name="utilde" unicode="&#x169;" horiz-adv-x="1140" 
d="M362 274q0 -161 134 -161q47 0 95 24.5t103 61.5l66 39v636l-127 -14l-6 51l266 54l61 4v-703q0 -99 27 -182l104 6l5 -45l-279 -55l-45 182l-324 -203q-166 4 -225 74q-31 39 -41 96.5t-10 141.5v593l-137 -14l-6 51l278 54l61 4v-695zM295 1399l135 41l367 -140l63 140
h41l-53 -215l-133 -35l-373 141l-61 -141h-37z" />
    <glyph glyph-name="Umacron" unicode="&#x16a;" horiz-adv-x="1419" 
d="M735 -35q-536 0 -536 539v866l-172 19l4 47l278 -4l275 4l6 -47l-168 -19v-891q0 -296 135 -356t225 -60q160 0 250 115t90 305v887l-172 19l4 47l224 -4l211 4l6 -47l-168 -19v-874q0 -215 -106 -343.5t-386 -187.5zM475 1729h578v-95h-578v95z" />
    <glyph glyph-name="umacron" unicode="&#x16b;" horiz-adv-x="1140" 
d="M362 274q0 -161 134 -161q47 0 95 24.5t103 61.5l66 39v636l-127 -14l-6 51l266 54l61 4v-703q0 -99 27 -182l104 6l5 -45l-279 -55l-45 182l-324 -203q-166 4 -225 74q-31 39 -41 96.5t-10 141.5v593l-137 -14l-6 51l278 54l61 4v-695zM272 1374h578v-92h-578v92z" />
    <glyph glyph-name="Ubreve" unicode="&#x16c;" horiz-adv-x="1419" 
d="M735 -35q-536 0 -536 539v866l-172 19l4 47l278 -4l275 4l6 -47l-168 -19v-891q0 -296 135 -356t225 -60q160 0 250 115t90 305v887l-172 19l4 47l224 -4l211 4l6 -47l-168 -19v-874q0 -215 -106 -343.5t-386 -187.5zM764 1667q49 0 87 14.5t66.5 36t50 47t38.5 45.5
l30 -26q-29 -71 -83.5 -130.5t-159.5 -105.5q-164 0 -225.5 98.5t-80.5 137.5l37 26q56 -91 123.5 -117t116.5 -26z" />
    <glyph glyph-name="ubreve" unicode="&#x16d;" horiz-adv-x="1140" 
d="M362 274q0 -161 134 -161q47 0 95 24.5t103 61.5l66 39v636l-127 -14l-6 51l266 54l61 4v-703q0 -99 27 -182l104 6l5 -45l-279 -55l-45 182l-324 -203q-166 4 -225 74q-31 39 -41 96.5t-10 141.5v593l-137 -14l-6 51l278 54l61 4v-695zM799 1405l39 -25
q-31 -63 -84.5 -125.5t-161.5 -121.5q-166 0 -229.5 103t-75.5 142l37 27q56 -100 124 -126t134 -26q114 0 217 152z" />
    <glyph glyph-name="Uring" unicode="&#x16e;" horiz-adv-x="1419" 
d="M735 -35q-536 0 -536 539v866l-172 19l4 47l278 -4l275 4l6 -47l-168 -19v-891q0 -296 135 -356t225 -60q160 0 250 115t90 305v887l-172 19l4 47l224 -4l211 4l6 -47l-168 -19v-874q0 -215 -106 -343.5t-386 -187.5zM637 1707q0 -62 38 -100t97 -38t97 38t38 100t-38 99
t-97 37t-97 -37t-38 -99zM985 1713q0 -87 -53 -127.5t-160 -74.5q-141 0 -177 70t-36 121q0 87 53.5 127.5t157.5 73.5q143 0 179 -70t36 -120z" />
    <glyph glyph-name="uring" unicode="&#x16f;" horiz-adv-x="1140" 
d="M362 274q0 -161 134 -161q47 0 95 24.5t103 61.5l66 39v636l-127 -14l-6 51l266 54l61 4v-703q0 -99 27 -182l104 6l5 -45l-279 -55l-45 182l-324 -203q-166 4 -225 74q-31 39 -41 96.5t-10 141.5v593l-137 -14l-6 51l278 54l61 4v-695zM776 1306q0 -93 -51 -128
t-158 -70q-146 0 -180.5 68.5t-34.5 119.5q0 88 50.5 127t160.5 76q146 0 179.5 -70.5t33.5 -122.5zM430 1300.5q0 -59.5 38 -96.5t96 -37t96 37t38 96.5t-38 97.5t-96 38t-96 -38t-38 -97.5z" />
    <glyph glyph-name="Uhungarumlaut" unicode="&#x170;" horiz-adv-x="1421" 
d="M735 -35q-536 0 -536 539v866l-172 19l4 47l278 -4l275 4l6 -47l-168 -19v-891q0 -296 135 -356t225 -60q160 0 250 115t90 305v887l-172 19l4 47l224 -4l211 4l6 -47l-168 -19v-874q0 -215 -106 -343.5t-386 -187.5zM866 1573l131 272h226l-283 -272h-74zM543 1573
l131 272h225l-285 -272h-71z" />
    <glyph glyph-name="uhungarumlaut" unicode="&#x171;" horiz-adv-x="1140" 
d="M362 274q0 -161 134 -161q47 0 95 24.5t103 61.5l66 39v636l-127 -14l-6 51l266 54l61 4v-703q0 -99 27 -182l104 6l5 -45l-279 -55l-45 182l-324 -203q-166 4 -225 74q-31 39 -41 96.5t-10 141.5v593l-137 -14l-6 51l278 54l61 4v-695zM674 1118l110 352h224l-281 -352
h-53zM348 1118l107 352h225l-283 -352h-49z" />
    <glyph glyph-name="Uogonek" unicode="&#x172;" horiz-adv-x="1419" 
d="M735 -33q-536 0 -536 537v866l-172 19l4 47l278 -4l275 4l6 -47l-168 -19v-891q0 -291 135 -352t220 -61q166 0 255.5 115.5t89.5 301.5v887l-172 19l4 47l224 -4l211 4l6 -47l-168 -19v-874q0 -252 -100.5 -339t-182.5 -124l-149 -279v-69q0 -136 198 -136v-45
q-188 0 -268 52.5t-80 154.5v86l209 201q-85 -26 -119 -31z" />
    <glyph glyph-name="uogonek" unicode="&#x173;" horiz-adv-x="1140" 
d="M954 266q0 -99 27 -182l104 6l5 -45l-207 -41l-125 -250v-69q0 -72 54 -104t159 -32v-45q-199 0 -282 51.5t-83 155.5v92l205 187l-45 182l-324 -203q-167 0 -221 69q-55 69 -55 234v602l-137 -14l-6 51l278 54l61 4v-695q0 -161 134 -161q47 0 95 24.5t103 61.5l66 39
v636l-127 -14l-6 51l266 54l61 4v-703z" />
    <glyph glyph-name="Wcircumflex" unicode="&#x174;" horiz-adv-x="2035" 
d="M143 1372l-120 17l4 47l245 -4l269 4l4 -47l-170 -19l321 -1030l17 -104l260 856l-92 280l-127 17l4 47l252 -4l268 4l4 -47l-170 -19l322 -1034l18 -98l348 1134l-176 17l4 47l217 -4l164 4l6 -47l-127 -17l-430 -1354l-123 -38l-301 917l-12 92l-301 -971l-123 -38z
M1241 1573l-207 149l-16 15l-14 -15l-209 -149h-70l240 278h108l240 -278h-72z" />
    <glyph glyph-name="wcircumflex" unicode="&#x175;" horiz-adv-x="1701" 
d="M870 586l-18 104l-225 -655l-170 -68l-330 930l-117 18l6 46l222 -3l206 3l7 -46l-115 -18l223 -670l25 -106l223 649l-45 127l-96 18l6 46l200 -3l207 3l4 -46l-114 -18l227 -676l21 -100l264 776l-119 18l6 46l154 -3l164 3l6 -46l-123 -18l-309 -862l-170 -68z
M584 1118l235 365h90l238 -365h-51l-211 199l-21 22l-20 -22l-211 -199h-49z" />
    <glyph glyph-name="Ycircumflex" unicode="&#x176;" horiz-adv-x="1433" 
d="M836 573l2 -507l227 -21l-6 -47l-330 4l-338 -4l-4 47l234 21v495l-457 811l-154 19l6 45l285 -4l281 4l6 -45l-178 -21l366 -655l21 -66l381 721l-189 21l6 45l230 -4l192 4l6 -45l-153 -19zM1001 1573l-208 149l-15 15l-14 -15l-209 -149h-72l240 278h111l239 -278h-72
z" />
    <glyph glyph-name="ycircumflex" unicode="&#x177;" horiz-adv-x="1097" 
d="M176 -481v198h205l207 346l-127 -53l-334 889l-117 16l6 46l230 -3l217 3l6 -46l-125 -16l240 -668l22 -108l266 774l-118 18l6 46l170 -3l153 3l4 -46l-124 -18l-312 -840l-239 -538h-236zM315 1118l236 365h90l238 -365h-52l-211 199l-20 22l-231 -221h-50z" />
    <glyph glyph-name="Ydieresis" unicode="&#x178;" horiz-adv-x="1433" 
d="M836 573l2 -507l227 -21l-6 -47l-330 4l-338 -4l-4 47l234 21v495l-457 811l-154 19l6 45l285 -4l281 4l6 -45l-178 -21l366 -655l21 -66l381 721l-189 21l6 45l230 -4l192 4l6 -45l-153 -19zM1053 1800l49 -10l10 -94l-20 -82l-119 -10l-49 10l-9 96l19 80zM602 1800
l49 -10l11 -94l-19 -82l-119 -10l-49 10l-10 96l18 80z" />
    <glyph glyph-name="Zacute" unicode="&#x179;" horiz-adv-x="1169" 
d="M100 1057v377h998l10 -54l-780 -1251l-58 -68l627 5l158 327h57l-35 -393h-1028l-10 59l776 1246l62 69l-588 -6l-133 -311h-56zM553 1573l117 272h211l-256 -272h-72z" />
    <glyph glyph-name="zacute" unicode="&#x17a;" horiz-adv-x="950" 
d="M127 662v299h750l16 -41l-541 -805l-55 -64l412 6l127 250h55l-29 -307h-778l-14 41l538 799l66 69l-387 -6l-109 -241h-51zM446 1118l107 355h207l-264 -355h-50z" />
    <glyph glyph-name="Zdotaccent" unicode="&#x17b;" horiz-adv-x="1169" 
d="M100 1057v377h998l10 -54l-780 -1251l-58 -68l627 5l158 327h57l-35 -393h-1028l-10 59l776 1246l62 69l-588 -6l-133 -311h-56zM512 1812l141 11l54 -11l12 -108l-23 -92l-141 -13l-53 13l-10 108z" />
    <glyph glyph-name="zdotaccent" unicode="&#x17c;" horiz-adv-x="950" 
d="M127 662v299h750l16 -41l-541 -805l-55 -64l412 6l127 250h55l-29 -307h-778l-14 41l538 799l66 69l-387 -6l-109 -241h-51zM424 1442l143 10l56 -12l10 -107l-21 -92l-143 -12l-51 12l-10 109z" />
    <glyph glyph-name="Zcaron" unicode="&#x17d;" horiz-adv-x="1169" 
d="M100 1057v377h998l10 -54l-780 -1251l-58 -68l627 5l158 327h57l-35 -393h-1028l-10 59l776 1246l62 69l-588 -6l-133 -311h-56zM907 1845l-239 -278h-109l-240 278h72l207 -149l14 -15l17 15l209 149h69z" />
    <glyph glyph-name="zcaron" unicode="&#x17e;" horiz-adv-x="950" 
d="M127 662v299h750l16 -41l-541 -805l-55 -64l412 6l127 250h55l-29 -307h-778l-14 41l538 799l66 69l-387 -6l-109 -241h-51zM281 1491l208 -201l21 -22l20 22l211 201h52l-238 -365h-90l-236 365h52z" />
    <glyph glyph-name="longs" unicode="&#x17f;" horiz-adv-x="692" 
d="M207 885h-154v28l47 35h107v23q0 96 25.5 158.5t78.5 121.5l191 203h237v-160h-282l-25 -39q-31 -62 -31 -237v-955l226 -14l-4 -51l-312 4l-237 -4l-4 47l137 18v822z" />
    <glyph glyph-name="florin" unicode="&#x192;" horiz-adv-x="655" 
d="M195 885h-158v28l49 35h109v23q0 96 23.5 158.5t76.5 121.5l192 203h220v-154h-261l-26 -43q-31 -62 -31 -235v-78h236v-59h-236v-883q0 -96 -24.5 -159.5t-77.5 -123.5l-191 -200h-139v159h186l19 37q33 68 33 236v934z" />
    <glyph glyph-name="Aringacute" unicode="&#x1fa;" horiz-adv-x="1476" 
d="M897 563l-166 475l-57 211l-240 -686h463zM16 45l154 21l496 1339l135 51l508 -1393l153 -18l-4 -47l-280 4l-277 -4l-4 47l172 21l-149 432h-506l-152 -432l176 -21l-4 -47l-215 4l-196 -4zM730 1548q56 0 94 37t38 95t-38 94t-94 36t-94 -36t-38 -94t38 -95t94 -37z
M576.5 1795q50.5 36 154.5 71l96 125h154l-190 -131q59 -12 102 -55t43 -105t-17.5 -92.5t-51.5 -56t-136 -56.5q-81 0 -143 44.5t-62 131.5q0 88 50.5 124z" />
    <glyph glyph-name="aringacute" unicode="&#x1fb;" horiz-adv-x="956" 
d="M801 250q0 -96 35 -168l104 8l6 -45l-282 -57l-52 168l-264 -187q-129 0 -208 66.5t-79 184.5t91 204l452 145v121q0 111 -27 157t-109 46t-157 -29l-41 -196h-178v155l377 168q193 0 262.5 -67t69.5 -250v-424zM262 266q0 -86 38 -126t97 -40t135 58l72 49v313
l-274 -110q-68 -58 -68 -144zM336 1302.5q0 -61.5 37 -99.5t96 -38t99 38t40 99.5t-40 99.5t-99 38t-96 -38t-37 -99.5zM682 1320q0 -62 -17.5 -94t-57 -61t-136.5 -57q-141 0 -177 69.5t-36 119.5q0 87 50 125t163 77l53 88h205l-172 -104q53 -16 89 -58.5t36 -104.5z" />
    <glyph glyph-name="AEacute" unicode="&#x1fc;" horiz-adv-x="2027" 
d="M1047 662h-416l-365 -596l166 -21l-4 -47l-213 4l-192 -4l-7 47l154 18l864 1373l125 -4l772 4l11 -371h-48l-125 305l-503 2v-653l256 4l86 229h47l-10 -256l10 -266h-47l-86 229l-256 5v-603l520 5l137 315h47l-35 -383l-778 4l-276 -4l-7 47l173 21v596zM1047 717v641
l-381 -641h381zM1122 1573l117 272h211l-256 -272h-72z" />
    <glyph glyph-name="aeacute" unicode="&#x1fd;" horiz-adv-x="1464" 
d="M715 1118l108 355h205l-260 -355h-53zM600 219q-4 8 -4 19v36l-2 61l-2 169l-252 -90q-72 -62 -72 -142q-4 -72 32 -111.5t86 -46.5t132 46q2 0 14.5 9t30.5 21.5t37 28.5zM1000 913q-102 0 -157 -92t-59 -227v-4l392 10q0 152 -27 209t-61 80.5t-88 23.5zM142 34.5
q-81 65.5 -81 184.5t91 205l438 145v121q0 104 -22.5 153.5t-100.5 49.5t-154 -29l-39 -196h-178v155l371 168q129 0 195.5 -27.5t95.5 -109.5q94 87 284 137q177 0 260.5 -101.5t83.5 -277.5v-75h-604v-2q4 -195 96.5 -302.5t245.5 -107.5q103 0 248 86l23 -47
q-156 -119 -359 -195q-121 0 -228.5 53.5t-166.5 161.5l-291 -215q-127 0 -208 65.5z" />
    <glyph glyph-name="Oslashacute" unicode="&#x1fe;" horiz-adv-x="1576" 
d="M733 1573l117 272h211l-256 -272h-72zM463 242q135 -197 354 -197t328.5 178t109.5 443t-100 456zM1122 1180q-138 211 -357 211q-218 0 -329.5 -177.5t-111.5 -452.5q0 -274 104 -462zM1499 746q0 -334 -178 -527.5t-553 -253.5q-234 0 -416 133l-102 -129h-80l133 170
q-106 98 -164.5 239.5t-58.5 309.5q0 334 178 527.5t553 252.5q245 0 426 -143l111 139h75l-139 -178q215 -206 215 -540z" />
    <glyph glyph-name="oslashacute" unicode="&#x1ff;" horiz-adv-x="1087" 
d="M524 1118l105 355h207l-261 -355h-51zM276 534q0 -165 41 -276l426 504q-85 153 -225 153q-116 0 -179 -108t-63 -273zM571 43q175 0 207.5 158t32.5 276t-43 234l-426 -506q87 -162 229 -162zM1020 502q0 -333 -193.5 -422.5t-308.5 -110.5q-165 0 -287 103l-77 -92h-72
l111 131q-123 138 -123 346q0 434 501 534q164 0 281 -100l82 96h67l-110 -131q129 -140 129 -354z" />
    <glyph glyph-name="Scommaaccent" unicode="&#x218;" horiz-adv-x="1118" 
d="M840 304q0 107 -55.5 176t-166.5 124l-247 129q-125 64 -188.5 137.5t-63.5 194.5q0 160 126 261t347 142q211 0 381 -100v-305h-62l-84 223q-107 107 -242 107t-205.5 -62.5t-70.5 -160.5t55.5 -155t147.5 -104l240 -123q125 -66 201.5 -150.5t76.5 -221.5
q0 -333 -504 -451q-137 0 -235 35t-185 94l-22 309h82l84 -202q126 -150 328 -150q112 0 187 73t75 180zM483 -102h199v-160l-162 -223l-49 14l80 213l-68 65v91z" />
    <glyph glyph-name="scommaaccent" unicode="&#x219;" horiz-adv-x="825" 
d="M731 674h-65l-80 188q-69 60 -151 60q-83 0 -127 -35t-44 -93t40 -94t112 -77l164 -95q98 -55 139 -112.5t39 -143.5q0 -123 -94.5 -192.5t-268.5 -110.5q-150 0 -311 90l-21 250h74l90 -194q88 -74 180 -74q91 0 132 45t41 92q0 75 -34 112.5t-124 92.5l-164 94
q-63 37 -115.5 91.5t-52.5 151.5t88 162.5t258 108.5q155 0 295 -82v-235zM326 -102h198v-160l-162 -223l-49 14l80 213l-67 65v91z" />
    <glyph glyph-name="uni021A" unicode="&#x21a;" horiz-adv-x="1206" 
d="M27 1053v383l577 -4l576 4v-383h-50l-120 317l-297 2v-1306l209 -21l-4 -47l-314 4l-319 -4l-4 47l215 21v1306l-299 -2l-121 -317h-49zM504 -102h201v-160l-162 -223l-47 14l77 213l-69 65v91z" />
    <glyph glyph-name="uni021B" unicode="&#x21b;" horiz-adv-x="704" 
d="M496 109q74 0 170 49l22 -43l-262 -146q-205 0 -222.5 99.5t-17.5 160.5v656h-176v28l37 35h141v146l164 123h27v-275h299v-57h-297v-647q0 -129 115 -129zM274 -102h199v-160l-160 -223l-49 14l78 213l-68 65v91z" />
    <glyph glyph-name="hsuperior" unicode="&#x2b0;" horiz-adv-x="772" 
d="M664 1217v-351l75 -10l-4 -37l-151 2l-133 -2l-5 37l52 10v336q0 70 -64 70q-29 0 -53.5 -11.5t-54.5 -27.5l-33 -21v-346l53 -10l-2 -37l-133 2l-145 -2l-3 37l70 10v690l-72 -6l-4 39l191 33l45 2v-367l203 115q90 0 120 -26t39 -54t9 -75z" />
    <glyph glyph-name="jsuperior" unicode="&#x2b2;" horiz-adv-x="360" 
d="M115 844v452l-72 -8l-4 39l190 35l47 2v-492q0 -80 -27.5 -125t-70.5 -85l-117 -107h-92v129h129l4 23q13 52 13 137zM127 1606l109 6l38 -6l7 -74l-15 -66l-106 -6l-37 6l-8 76z" />
    <glyph glyph-name="wsuperior" unicode="&#x2b7;" horiz-adv-x="1056" 
d="M545 1118l-15 64l-124 -344l-138 -35l-198 508l-60 10l4 37l146 -2l139 2l4 -37l-63 -10l120 -332l17 -76l125 328l-33 80l-51 10l2 37l145 -2l135 2l5 -37l-64 -10l123 -334l14 -74l146 408l-68 10l2 37l98 -2l86 2l5 -37l-66 -10l-174 -473l-139 -35z" />
    <glyph glyph-name="ysuperior" unicode="&#x2b8;" horiz-adv-x="688" 
d="M111 555v147h149l129 168l-121 -43l-198 484l-60 10l4 37l156 -2l141 2l4 -37l-67 -10l133 -332l18 -74l148 406l-68 8l2 39l105 -2l88 2l4 -39l-68 -8l-178 -451l-149 -305h-172z" />
    <glyph glyph-name="apostrophemod" unicode="&#x2bc;" horiz-adv-x="382" 
d="M88 1350l14 96l148 8l61 -8l13 -111l-17 -102l-157 -309l-44 16q29 67 66 172t37 115l-111 6z" />
    <glyph glyph-name="circumflex" unicode="&#x2c6;" horiz-adv-x="1024" 
d="M219 1118l238 365h90l235 -365h-49l-233 201l-230 -201h-51z" />
    <glyph glyph-name="caron" unicode="&#x2c7;" horiz-adv-x="1024" 
d="M268 1493l232 -203l231 203h53l-237 -365h-90l-238 365h49z" />
    <glyph glyph-name="breve" unicode="&#x2d8;" horiz-adv-x="1024" 
d="M512 1268q117 0 169 69.5t67 92.5l38 -27q-51 -124 -117.5 -181t-129.5 -89q-160 0 -222.5 113.5t-78.5 156.5l36 24q97 -159 238 -159z" />
    <glyph glyph-name="dotaccent" unicode="&#x2d9;" horiz-adv-x="1024" 
d="M428 1442l135 10l51 -10l11 -103l-21 -88l-135 -12l-51 12l-8 103z" />
    <glyph glyph-name="ring" unicode="&#x2da;" horiz-adv-x="1024" 
d="M375 1300.5q0 -59.5 37 -96.5t96 -37t96 37t37 96.5t-37 97.5t-96 38t-96 -38t-37 -97.5zM721 1306q0 -92 -52 -127.5t-159 -70.5q-146 0 -180.5 68.5t-34.5 119.5q0 88 50.5 127t160.5 76q148 0 181.5 -70.5t33.5 -122.5z" />
    <glyph glyph-name="ogonek" unicode="&#x2db;" horiz-adv-x="1024" 
d="M506 -317q0 -138 213 -138v-41q-197 0 -279 52.5t-82 154.5v103l230 245h43l-125 -297v-79z" />
    <glyph glyph-name="tilde" unicode="&#x2dc;" horiz-adv-x="1024" 
d="M236 1399l133 41l368 -140l64 140h39l-54 -215l-133 -35l-370 141l-62 -141h-39z" />
    <glyph glyph-name="hungarumlaut" unicode="&#x2dd;" horiz-adv-x="1024" 
d="M434 1118l111 352h223l-281 -352h-53zM109 1118l106 352h225l-282 -352h-49z" />
    <glyph glyph-name="xsuperior" unicode="&#x2e3;" horiz-adv-x="716" 
d="M29 856l75 8l183 199l-191 248l-61 8l4 39l141 -2l158 2l2 -39l-47 -8l92 -121l16 -37l138 158l-66 8l2 39l105 -2l102 2l2 -39l-76 -8l-166 -185l201 -262l57 -8l-2 -37l-139 2l-160 -2l-4 37l51 8l-104 131l-18 37l-148 -168l76 -8l-4 -37l-117 2l-98 -2z" />
    <glyph glyph-name="Delta" unicode="&#x394;" horiz-adv-x="1406" 
d="M133 70h987l-430 1028l-41 141zM41 0v61l625 1366l96 35l604 -1399v-63h-1325z" />
    <glyph glyph-name="Omega" unicode="&#x3a9;" horiz-adv-x="1445" 
d="M1374 879q0 -467 -479 -594v-154l377 35l61 176h45v-342h-563v328q208 34 265 200t57 298q0 248 -119.5 401t-303.5 153q-183 0 -293 -139t-110 -366t97.5 -378.5t224.5 -168.5v-328h-565v342h47l61 -176l375 -35v139q-193 31 -336 180.5t-143 385.5q0 364 246.5 475.5
t424.5 152.5q275 0 453 -171.5t178 -413.5z" />
    <glyph glyph-name="mu" unicode="&#x3bc;" 
d="M164 -471v1432h196v-656q0 -104 41 -148t97 -44t101.5 25.5t100.5 58.5l68 41v723h195v-832q0 -47 143 -88l-4 -41h-244l-88 170l-295 -201q-196 0 -237 107v-137l143 -410h-217z" />
    <glyph glyph-name="pi" unicode="&#x3c0;" 
d="M981 139q0 -42 60.5 -67t84.5 -31l-6 -41h-246l-88 158v731h-286v-889h-195v889h-102l-97 -234h-43v299h1143v-65h-225v-750z" />
    <glyph glyph-name="Wgrave" unicode="&#x1e80;" horiz-adv-x="2035" 
d="M143 1372l-120 17l4 47l245 -4l269 4l4 -47l-170 -19l321 -1030l17 -104l260 856l-92 280l-127 17l4 47l252 -4l268 4l4 -47l-170 -19l322 -1034l18 -98l348 1134l-176 17l4 47l217 -4l164 4l6 -47l-127 -17l-430 -1354l-123 -38l-301 917l-12 92l-301 -971l-123 -38z
M997 1573l-254 272h213l115 -272h-74z" />
    <glyph glyph-name="wgrave" unicode="&#x1e81;" horiz-adv-x="1701" 
d="M870 586l-18 104l-225 -655l-170 -68l-330 930l-117 18l6 46l222 -3l206 3l7 -46l-115 -18l223 -670l25 -106l223 649l-45 127l-96 18l6 46l200 -3l207 3l4 -46l-114 -18l227 -676l21 -100l264 776l-119 18l6 46l154 -3l164 3l6 -46l-123 -18l-309 -862l-170 -68z
M868 1118l-264 355h207l109 -355h-52z" />
    <glyph glyph-name="Wacute" unicode="&#x1e82;" horiz-adv-x="2035" 
d="M143 1372l-120 17l4 47l245 -4l269 4l4 -47l-170 -19l321 -1030l17 -104l260 856l-92 280l-127 17l4 47l252 -4l268 4l4 -47l-170 -19l322 -1034l18 -98l348 1134l-176 17l4 47l217 -4l164 4l6 -47l-127 -17l-430 -1354l-123 -38l-301 917l-12 92l-301 -971l-123 -38z
M995 1573l117 272h211l-258 -272h-70z" />
    <glyph glyph-name="wacute" unicode="&#x1e83;" horiz-adv-x="1701" 
d="M870 586l-18 104l-225 -655l-170 -68l-330 930l-117 18l6 46l222 -3l206 3l7 -46l-115 -18l223 -670l25 -106l223 649l-45 127l-96 18l6 46l200 -3l207 3l4 -46l-114 -18l227 -676l21 -100l264 776l-119 18l6 46l154 -3l164 3l6 -46l-123 -18l-309 -862l-170 -68z
M840 1118l108 355h205l-260 -355h-53z" />
    <glyph glyph-name="Wdieresis" unicode="&#x1e84;" horiz-adv-x="2035" 
d="M143 1372l-120 17l4 47l245 -4l269 4l4 -47l-170 -19l321 -1030l17 -104l260 856l-92 280l-127 17l4 47l252 -4l268 4l4 -47l-170 -19l322 -1034l18 -98l348 1134l-176 17l4 47l217 -4l164 4l6 -47l-127 -17l-430 -1354l-123 -38l-301 917l-12 92l-301 -971l-123 -38z
M1284 1800l47 -10l12 -94l-20 -82l-119 -10l-49 10l-8 96l16 80zM834 1800l51 -10l8 -94l-19 -82l-118 -10l-47 10l-13 96l19 80z" />
    <glyph glyph-name="wdieresis" unicode="&#x1e85;" horiz-adv-x="1701" 
d="M870 586l-18 104l-225 -655l-170 -68l-330 930l-117 18l6 46l222 -3l206 3l7 -46l-115 -18l223 -670l25 -106l223 649l-45 127l-96 18l6 46l200 -3l207 3l4 -46l-114 -18l227 -676l21 -100l264 776l-119 18l6 46l154 -3l164 3l6 -46l-123 -18l-309 -862l-170 -68z
M1090 1407l49 -8l10 -96l-21 -82l-118 -11l-49 11l-11 98l19 80zM731 1407l47 -8l13 -96l-21 -82l-119 -11l-49 11l-8 98l16 80z" />
    <glyph glyph-name="Ygrave" unicode="&#x1ef2;" horiz-adv-x="1433" 
d="M836 573l2 -507l227 -21l-6 -47l-330 4l-338 -4l-4 47l234 21v495l-457 811l-154 19l6 45l285 -4l281 4l6 -45l-178 -21l366 -655l21 -66l381 721l-189 21l6 45l230 -4l192 4l6 -45l-153 -19zM748 1573l-259 272h211l117 -272h-69z" />
    <glyph glyph-name="ygrave" unicode="&#x1ef3;" horiz-adv-x="1097" 
d="M176 -481v198h205l207 346l-127 -53l-334 889l-117 16l6 46l230 -3l217 3l6 -46l-125 -16l240 -668l22 -108l266 774l-118 18l6 46l170 -3l153 3l4 -46l-124 -18l-312 -840l-239 -538h-236zM596 1118l-262 355h207l108 -355h-53z" />
    <glyph glyph-name="endash" unicode="&#x2013;" horiz-adv-x="1040" 
d="M82 606h876v-76h-876v76z" />
    <glyph glyph-name="emdash" unicode="&#x2014;" horiz-adv-x="1904" 
d="M-80 618h2065v-100h-2065v100z" />
    <glyph glyph-name="quoteleft" unicode="&#x2018;" horiz-adv-x="423" 
d="M342 1038l-12 -94l-152 -10l-59 10l-10 111l14 98l158 311l45 -18q-26 -53 -65.5 -164t-39.5 -121l111 -8z" />
    <glyph glyph-name="quoteright" unicode="&#x2019;" horiz-adv-x="423" 
d="M98 1350l15 96l147 8l62 -8l12 -113l-17 -100l-157 -309l-43 16q23 54 62.5 165.5t39.5 121.5l-110 6z" />
    <glyph glyph-name="quotesinglbase" unicode="&#x201a;" horiz-adv-x="399" 
d="M111 -276q28 56 66 166t38 120l-113 6l-10 117l17 94l147 9l61 -9l11 -112l-15 -99l-157 -311z" />
    <glyph glyph-name="quotedblleft" unicode="&#x201c;" horiz-adv-x="712" 
d="M651 1038l-12 -94l-152 -12l-59 12l-10 111l14 98l156 311l47 -18q-26 -53 -65.5 -164t-39.5 -121l113 -8zM322 1038l-13 -94l-151 -12l-60 12l-10 111l14 98l158 311l45 -18q-32 -64 -68 -169.5t-36 -115.5l110 -8z" />
    <glyph glyph-name="quotedblright" unicode="&#x201d;" horiz-adv-x="716" 
d="M94 1352l12 94l150 10l61 -10l11 -111l-15 -100l-159 -309l-43 16q35 81 69.5 179t34.5 108l-111 6zM422 1352l14 94l150 10l61 -10l10 -111l-14 -100l-158 -309l-45 16q6 14 22.5 57t49.5 127.5t33 102.5l-113 6z" />
    <glyph glyph-name="quotedblbase" unicode="&#x201e;" horiz-adv-x="733" 
d="M98 133l15 94l149 9l62 -9l8 -112l-15 -99l-157 -311l-45 19q28 56 66 166t38 120l-110 6zM428 133l14 94l150 9l61 -9l9 -112l-15 -99l-155 -311l-48 19q6 12 22.5 55t49.5 127t33 104l-111 6z" />
    <glyph glyph-name="dagger" unicode="&#x2020;" horiz-adv-x="886" 
d="M51 1133l363 -82l-84 403h221l-86 -403l371 82v-220l-371 82l41 -237l69 -86l-73 -211l-45 -584h-31l-45 584l-76 211l70 86l39 237l-363 -82v220z" />
    <glyph glyph-name="daggerdbl" unicode="&#x2021;" horiz-adv-x="907" 
d="M385 758l39 237l-363 -82v220l363 -82l-84 403h221l-86 -403l371 82v-220l-371 82l41 -237l70 -84l-70 -84l-41 -238l371 82v-221l-371 84l86 -406h-221l84 406l-363 -84v221l363 -82l-39 238l-70 84z" />
    <glyph glyph-name="bullet" unicode="&#x2022;" horiz-adv-x="462" 
d="M279 752l71 -11l10 -125l-14 -112l-160 -10l-73 10l-11 129l15 108z" />
    <glyph glyph-name="ellipsis" unicode="&#x2026;" horiz-adv-x="1568" 
d="M1346 227l59 -12l10 -113l-14 -102l-154 -10l-57 10l-10 117l14 98zM834 227l57 -12l12 -113l-14 -102l-154 -10l-59 10l-8 117l14 98zM319 227l60 -12l12 -113l-16 -102l-152 -10l-57 10l-12 117l16 98z" />
    <glyph glyph-name="perthousand" unicode="&#x2030;" horiz-adv-x="2398" 
d="M1200 653q-162 -1 -162 -295q0 -136 44 -227.5t136 -91.5q166 0 166 283q0 235 -68.5 283t-115.5 48zM2140 298q0 356 -179 355q-165 -1 -165 -295q0 -136 44 -227.5t134 -91.5t128 80.5t38 178.5zM1548 357q0 -155 -85.5 -245.5t-278.5 -121.5q-140 0 -225 96.5
t-85 251.5q0 156 88.5 244t276.5 123q141 0 225 -96.5t84 -251.5zM2306 357q0 -155 -87 -245.5t-277 -121.5q-143 0 -226.5 96t-83.5 252t88 244t275 123q143 0 227 -96.5t84 -251.5zM1298 1444h99l-1012 -1454h-98zM766 1098q0 -156 -88.5 -246t-276.5 -119
q-141 0 -225 94.5t-84 251.5q0 156 88 244t277 123q142 0 225.5 -96t83.5 -252zM436 782q166 0 166 281q0 238 -68.5 286t-117.5 48q-82 0 -121 -81t-39 -215t45 -226.5t135 -92.5z" />
    <glyph glyph-name="guilsinglleft" unicode="&#x2039;" horiz-adv-x="573" 
d="M438 31l-370 450l372 451h62l-264 -451l264 -450h-64z" />
    <glyph glyph-name="guilsinglright" unicode="&#x203a;" horiz-adv-x="573" 
d="M82 31l264 450l-264 451h63l373 -451l-371 -450h-65z" />
    <glyph glyph-name="fraction" unicode="&#x2044;" horiz-adv-x="223" 
d="M-238 -102h-90l793 1556h86z" />
    <glyph glyph-name="zerosuperior" unicode="&#x2070;" horiz-adv-x="802" 
d="M258 1237q0 -381 154 -381q135 0 135 336q0 381 -156 381q-133 0 -133 -336zM72 1199q0 179 83 285.5t273 141.5q141 0 222 -111t81 -289q0 -177 -81 -282.5t-271 -140.5q-141 0 -224 108.5t-83 287.5z" />
    <glyph glyph-name="foursuperior" unicode="&#x2074;" horiz-adv-x="704" 
d="M528 1110h156v-68h-156v-223h-153v223h-322l-33 50l388 516h167v-39l-481 -469l58 10h223v150l119 81l34 11v-242z" />
    <glyph glyph-name="fivesuperior" unicode="&#x2075;" horiz-adv-x="657" 
d="M416 1112q0 51 -32 92t-100 40t-134 -34l-46 -20l-20 18l49 400h449l-2 -43l-27 -84h-391l-31 -244l223 109q119 0 177.5 -53t58.5 -117q0 -105 -58.5 -157.5t-189.5 -119.5l-164 -80h-106v133h256q88 66 88 160z" />
    <glyph glyph-name="sixsuperior" unicode="&#x2076;" horiz-adv-x="731" 
d="M381 852q115 0 115 203q0 82 -27 125t-63 43t-61.5 -15.5t-55.5 -36.5l-35 -24q0 -295 127 -295zM670 1102q0 -127 -85 -197.5t-233 -101.5q-135 0 -207.5 89t-72.5 226q0 262 176 368.5t307 145.5l12 -37q-186 -70 -247.5 -165.5t-65.5 -235.5l188 133q113 0 170.5 -68
t57.5 -157z" />
    <glyph glyph-name="sevensuperior" unicode="&#x2077;" horiz-adv-x="628" 
d="M31 1608h544l23 -27l-360 -762h-129v45l380 619l-24 -8h-434v133z" />
    <glyph glyph-name="eightsuperior" unicode="&#x2078;" horiz-adv-x="714" 
d="M231 1032q0 -86 41.5 -134t87.5 -48t82.5 29t36.5 93t-45 106t-131 96q-72 -56 -72 -142zM471 1446q0 57 -30.5 95t-80.5 38t-78 -26.5t-28 -77.5t38 -91.5t109 -87.5q70 56 70 150zM647 1019q0 -79 -75.5 -131t-225.5 -85q-120 0 -199 55t-79 134t48 126t140 86
q-168 102 -168 211q0 82 74 132t209 79q123 0 194.5 -45t71.5 -114t-50 -114.5t-143 -86.5q104 -59 153.5 -113.5t49.5 -133.5z" />
    <glyph glyph-name="ninesuperior" unicode="&#x2079;" horiz-adv-x="690" 
d="M203 1391q0 -93 28.5 -137t64.5 -44t56.5 11.5t55.5 33.5l38 27q-4 297 -127 297q-53 0 -84.5 -47.5t-31.5 -140.5zM629 1313q0 -260 -177.5 -366.5t-306.5 -143.5l-12 37q257 102 283 223t30 176l-184 -133q-109 0 -170 66t-61 176q0 211 317 278q135 0 208 -88t73 -225
z" />
    <glyph glyph-name="plussuperior" unicode="&#x207a;" horiz-adv-x="839" 
d="M387 901v256h-285v62h285v262h66v-262h284v-62h-284v-256h-66z" />
    <glyph glyph-name="minussuperior" unicode="&#x207b;" horiz-adv-x="851" 
d="M102 1247h648v-61h-648v61z" />
    <glyph glyph-name="equalsuperior" unicode="&#x207c;" horiz-adv-x="841" 
d="M739 1038h-637v62h637v-62zM739 1257h-637v62h637v-62z" />
    <glyph glyph-name="parenleftsuperior" unicode="&#x207d;" horiz-adv-x="444" 
d="M225 1179q0 -159 40 -285t138 -237l-24 -22q-156 143 -216.5 260t-60.5 283t63 286t214 252l24 -20q-98 -111 -138 -234.5t-40 -282.5z" />
    <glyph glyph-name="parenrightsuperior" unicode="&#x207e;" horiz-adv-x="413" 
d="M219 1179q0 159 -40 282.5t-138 234.5l25 20q153 -137 214.5 -255.5t61.5 -284.5q0 -167 -60.5 -282.5t-215.5 -258.5l-25 22q98 111 138 237t40 285z" />
    <glyph glyph-name="nsuperior" unicode="&#x207f;" horiz-adv-x="765" 
d="M659 1214v-348l76 -10l-2 -37l-153 2l-134 -2l-4 37l52 10v336q0 70 -64 70q-38 0 -106 -39l-35 -21v-346l53 -10l-2 -37l-131 2l-148 -2l-4 37l72 10v428l-74 -8l-4 39l193 37l45 2v-107l203 115q90 0 128 -32t39 -126z" />
    <glyph glyph-name="zeroinferior" unicode="&#x2080;" horiz-adv-x="802" 
d="M258 111q0 -383 154 -383q135 0 135 338q0 380 -156 380q-133 0 -133 -335zM72 73q0 179 83 285.5t273 141.5q140 0 221.5 -111t81.5 -289t-81 -284.5t-271 -141.5q-141 0 -224 110t-83 289z" />
    <glyph glyph-name="oneinferior" unicode="&#x2081;" horiz-adv-x="585" 
d="M395 489v-747l170 -14l-4 -37l-246 2l-249 -2l-3 37l168 14v629l7 24l-52 -24l-118 -29l-17 35l291 112h53z" />
    <glyph glyph-name="twoinferior" unicode="&#x2082;" horiz-adv-x="722" 
d="M444 287q0 76 -31.5 114.5t-80.5 38.5t-80 -14l-43 -164h-135v141l284 97q133 0 200 -58t67 -156t-77 -185t-224 -187l-168 -115l108 23h387v-35l-41 -94h-559l-20 33l184 184q229 229 229 377z" />
    <glyph glyph-name="threeinferior" unicode="&#x2083;" horiz-adv-x="647" 
d="M551 356q0 -123 -207 -186q113 -4 177.5 -55.5t64.5 -108.5t-19.5 -90t-59.5 -64.5t-173 -91.5l-158 -69h-123v131h297q64 56 64 122t-51.5 108t-153.5 42l-10 29l61 31q72 35 99.5 72.5t27.5 93.5t-27.5 87t-66.5 31t-68 -14l-41 -148h-133v134l291 90
q156 0 182.5 -58.5t26.5 -85.5z" />
    <glyph glyph-name="fourinferior" unicode="&#x2084;" horiz-adv-x="704" 
d="M528 -18h156v-68h-156v-221h-153v221h-322l-33 49l388 518h167v-39l-481 -471l60 11h221v151l123 84l30 8v-243z" />
    <glyph glyph-name="fiveinferior" unicode="&#x2085;" horiz-adv-x="657" 
d="M416 -14q0 51 -32 92t-98 40t-136 -34l-46 -21l-20 19l49 399h449l-2 -43l-27 -84h-391l-31 -243l223 108q119 0 177.5 -53.5t58.5 -117.5t-20.5 -102t-62.5 -76.5t-165 -98.5l-164 -80h-106v133h258q86 64 86 162z" />
    <glyph glyph-name="sixinferior" unicode="&#x2086;" horiz-adv-x="731" 
d="M381 -276q115 0 115 202q0 84 -27 127t-63 43t-61.5 -15t-55.5 -36l-35 -25q0 -296 127 -296zM670 -27q0 -127 -85 -197.5t-233 -99.5q-135 0 -207.5 88.5t-72.5 227.5q0 260 176 367.5t307 146.5l12 -37q-184 -70 -246.5 -165.5t-66.5 -235.5v-2l188 135
q111 0 169.5 -68t58.5 -160z" />
    <glyph glyph-name="seveninferior" unicode="&#x2087;" horiz-adv-x="628" 
d="M31 481h544l23 -26l-360 -762h-129v41l380 622l-24 -8h-434v133z" />
    <glyph glyph-name="eightinferior" unicode="&#x2088;" horiz-adv-x="714" 
d="M471 319q0 57 -30.5 95.5t-80.5 38.5t-78 -27t-28 -78t38 -91t109 -87q70 56 70 149zM88 289q0 82 74 132t209 79q123 0 194.5 -45t71.5 -114t-50 -115t-143 -87q104 -59 153.5 -113t49.5 -134q0 -154 -301 -216q-120 0 -199 53.5t-79 132.5t48 128t140 88
q-168 101 -168 211zM231 -95q0 -87 41.5 -134t87.5 -47t82.5 27.5t36.5 91.5t-45 106.5t-131 97.5q-72 -55 -72 -142z" />
    <glyph glyph-name="nineinferior" unicode="&#x2089;" horiz-adv-x="690" 
d="M203 265q0 -93 28.5 -137t64.5 -44t56.5 11t55.5 34l38 27q-4 297 -127 297q-53 0 -84.5 -47.5t-31.5 -140.5zM629 186q0 -260 -177.5 -367.5t-306.5 -144.5l-12 37q256 102 282.5 223t30.5 179l-184 -136q-111 0 -171 68.5t-60 177.5q0 210 317 277q135 0 208 -88
t73 -226z" />
    <glyph glyph-name="parenleftinferior" unicode="&#x208d;" horiz-adv-x="444" 
d="M225 42q0 -159 40 -286t138 -239l-24 -19q-154 141 -215.5 258t-61.5 284t62.5 286t214.5 254l24 -21q-98 -111 -138 -234.5t-40 -282.5z" />
    <glyph glyph-name="parenrightinferior" unicode="&#x208e;" horiz-adv-x="413" 
d="M219 42q0 159 -40 283t-138 234l25 21q152 -136 214 -255t62 -284q0 -245 -101.5 -360t-174.5 -183l-25 19q98 113 138 239.5t40 285.5z" />
    <glyph glyph-name="Euro" unicode="&#x20ac;" horiz-adv-x="1372" 
d="M1286 1016h-61l-99 260q-103 127 -282 127q-146 0 -259 -139.5t-136 -386.5h622l-41 -70h-588v-47q0 -70 7 -131h495l-41 -72h-442q53 -317 202.5 -385t247.5 -68q173 0 338 115l31 -53q-109 -88 -231.5 -134t-188.5 -63q-256 0 -430 150t-211 438h-127v72h119
q-2 16 -2 21v67q0 63 4 90h-121v70h131q86 492 643 591q150 0 255.5 -43t164.5 -90v-319z" />
    <glyph glyph-name="afii61289" unicode="&#x2113;" horiz-adv-x="917" 
d="M645 1077q0 168 -39.5 219.5t-63.5 51.5q-51 0 -93 -25v-676q196 126 196 430zM836 1162q0 -380 -387 -599v-475l329 127l31 -39l-385 -209l-154 45v469q-115 -51 -188 -80v74q133 52 188 80v715l310 205q133 -4 194.5 -104t61.5 -209z" />
    <glyph glyph-name="afii61352" unicode="&#x2116;" horiz-adv-x="2021" 
d="M1217 92h716v-92h-716v92zM1566 899q-85 0 -128 -70.5t-43 -170.5q0 -179 56 -274t140 -95q164 0 164 266q0 158 -52 251t-137 93zM1933 605q0 -317 -383 -384q-147 0 -240 100.5t-93 256.5q0 255 153.5 316t239.5 77q143 0 233 -101.5t90 -264.5zM1008 1434h241l4 -41
l-174 -47v-1346h-168l-524 1104l-70 209v-1313h-249l-7 41q46 8 185 47v1274l-176 27l6 45l194 -2l193 2l473 -1000l72 -203v1203z" />
    <glyph glyph-name="trademark" unicode="&#x2122;" horiz-adv-x="2050" 
d="M102 1202v234l361 -2l352 2v-234h-41l-80 187l-147 2v-697l119 -10l-2 -39l-207 2l-205 -2l-2 39l121 10v697l-150 -2l-78 -187h-41zM1796 1434l148 2l4 -37l-90 -13v-692l88 -10l-2 -39l-172 2l-173 -2l-2 39l86 10v609l9 69l-289 -729h-98l-275 664l-16 69v-682l88 -10
l-2 -39l-117 2l-115 -2l-2 39l88 10v692l-88 13l2 37l125 -2l166 2l252 -592v-51l256 643z" />
    <glyph glyph-name="uni2126" unicode="&#x2126;" horiz-adv-x="1486" 
d="M1395 879q0 -468 -480 -594v-154l377 35l62 176h45v-342h-563v328q209 34 265 200t56 298q0 250 -119 402t-302 152t-293.5 -138t-110.5 -367t97 -379.5t224 -167.5v-328h-565v342h47l62 -176l374 -35v139q-193 31 -336 180.5t-143 385.5q0 363 247 475t425 153
q275 0 453 -171.5t178 -413.5z" />
    <glyph glyph-name="estimated" unicode="&#x212e;" horiz-adv-x="1693" 
d="M362 784h963v144q-51 207 -183 327.5t-318 120.5t-297 -96t-165 -252v-244zM271 1181.5q169 166.5 595 282.5q310 0 511.5 -190t213.5 -492v-102h-1229v-178q55 -202 189 -323.5t313.5 -121.5t295 104.5t163.5 289.5h229q-71 -203 -240 -308t-483 -174
q-322 0 -524.5 204.5t-202.5 523.5q0 318 169 484.5z" />
    <glyph glyph-name="arrowleft" unicode="&#x2190;" horiz-adv-x="1249" 
d="M1147 651v-92h-889l59 -41l338 -317v-129l-553 532l553 533v-127l-340 -318l-57 -41h889z" />
    <glyph glyph-name="arrowup" unicode="&#x2191;" 
d="M682 82h-92v891l-43 -64l-316 -336h-129l533 553l532 -553h-127l-315 336l-43 64v-891z" />
    <glyph glyph-name="arrowright" unicode="&#x2192;" horiz-adv-x="1249" 
d="M102 559v92h891l-65 47l-334 312v127l553 -533l-553 -532v129l334 313l65 45h-891z" />
    <glyph glyph-name="arrowdown" unicode="&#x2193;" 
d="M590 1126h92v-888l43 61l315 336h127l-532 -553l-533 553h129l316 -336l43 -61v888z" />
    <glyph glyph-name="uni2196" unicode="&#x2196;" horiz-adv-x="974" 
d="M102 973h770l-92 -88l-463 2l-73 12l628 -631l-63 -65l-631 631l12 -72l3 -465l-91 -92v768z" />
    <glyph glyph-name="uni2197" unicode="&#x2197;" horiz-adv-x="974" 
d="M872 973v-768l-88 92l2 467l13 70l-631 -631l-66 65l631 631l-69 -12l-467 -2l-93 88h768z" />
    <glyph glyph-name="uni2198" unicode="&#x2198;" horiz-adv-x="974" 
d="M872 188h-768l93 88l467 -4l69 -10l-631 631l66 65l631 -630l-13 67l-2 469l88 92v-768z" />
    <glyph glyph-name="uni2199" unicode="&#x2199;" horiz-adv-x="974" 
d="M102 188v768l91 -92l-3 -471l-12 -65l631 630l63 -65l-628 -631l67 10l469 4l92 -88h-770z" />
    <glyph glyph-name="partialdiff" unicode="&#x2202;" 
d="M375 466q0 -188 65.5 -303.5t186.5 -115.5t188.5 126t71.5 341q0 78 -13 145q-29 46 -77 97q-96 84 -197 84q-100 0 -162.5 -93t-62.5 -281zM1108 523q0 -245 -127.5 -393.5t-353.5 -160.5q-220 31 -342.5 174t-122.5 347q0 203 110.5 327.5t319.5 140.5l268 -129
q-29 154 -108.5 287t-235.5 225q-8 4 -62.5 37.5t-91.5 46.5l29 50q8 -4 58.5 -22.5t80.5 -33.5q443 -193 510.5 -479.5t67.5 -416.5z" />
    <glyph glyph-name="uni2206" unicode="&#x2206;" horiz-adv-x="1421" 
d="M141 70h987l-430 1028l-41 141zM49 0v61l625 1366l96 35l604 -1399v-63h-1325z" />
    <glyph glyph-name="product" unicode="&#x220f;" horiz-adv-x="1503" 
d="M1075 1366h-645v-1628l168 -21l-6 -45l-270 2l-275 -2l-6 45l174 21v1630l-174 21l6 45l272 -2h869l270 2l4 -45l-174 -21v-1630l170 -21l-6 -45l-270 2l-275 -2l-6 45l174 21v1628z" />
    <glyph glyph-name="summation" unicode="&#x2211;" 
d="M1128 1434v-347h-45l-122 281l-564 6l502 -733v-39l-608 -768l710 16l109 209h49l-35 -387h-987l-26 49l616 783l-592 874l27 56h966z" />
    <glyph glyph-name="minus" unicode="&#x2212;" 
d="M96 610h1078v-90h-1078v90z" />
    <glyph glyph-name="radical" unicode="&#x221a;" 
d="M371 -33l-351 930l-120 18l6 41h311l250 -692l27 -125l565 1663h414l-29 -80h-322l-590 -1689z" />
    <glyph glyph-name="infinity" unicode="&#x221e;" horiz-adv-x="1675" 
d="M1269 440q83 0 143.5 49t60.5 139q0 187 -228 187q-59 0 -126.5 -26.5t-121.5 -79.5l-65 -66v-2q133 -133 216 -167t121 -34zM418 786q-95 0 -155 -46t-60 -134t61 -144t186 -56t230 102l72 70q-123 138 -207 173t-127 35zM393.5 264q-106.5 0 -188.5 93t-82 233
q0 240 326 373q160 0 272.5 -106.5t155.5 -151.5l94 100q59 66 135 112t150 46q137 0 216.5 -91.5t79.5 -228.5q0 -138 -75.5 -223t-247.5 -156q-158 0 -261.5 94.5t-144.5 137.5l-18 22l-98 -108q-55 -59 -131 -102.5t-182.5 -43.5z" />
    <glyph glyph-name="integral" unicode="&#x222b;" 
d="M688 2q0 -96 -24.5 -159.5t-79.5 -123.5l-191 -200h-145v159h190l23 37q33 68 33 236v1020q0 96 23.5 159.5t76.5 122.5l190 201h238v-154h-279l-26 -43q-26 -58 -27.5 -121t-1.5 -114v-1020z" />
    <glyph glyph-name="approxequal" unicode="&#x2248;" 
d="M1171 395h46l-80 -180l-191 -45l-753 123l-95 -139h-45l78 178l195 47l755 -119zM1171 836h48l-80 -181l-191 -45l-758 123l-90 -139h-47l78 178l197 47l751 -121z" />
    <glyph glyph-name="notequal" unicode="&#x2260;" 
d="M106 260v90h377l254 305h-631v90h709l199 238h104l-200 -238h245v-90h-321l-254 -305h575v-90h-651l-215 -260h-107l218 260h-302z" />
    <glyph glyph-name="lessequal" unicode="&#x2264;" 
d="M1167 1255v-108l-936 -412l936 -413v-107l-1065 479v78zM102 92h1065v-92h-1065v92z" />
    <glyph glyph-name="greaterequal" unicode="&#x2265;" 
d="M1167 772v-78l-1065 -479v107l936 413l-936 412v108zM104 92h1063v-92h-1063v92z" />
    <glyph glyph-name="lozenge" unicode="&#x25ca;" 
d="M641 1233l-37 82l-352 -535l383 -590l35 -75l354 534zM602 1430l90 36l482 -712l-500 -750l-92 -41l-486 713z" />
    <glyph glyph-name="commaaccent" unicode="&#xf6c3;" horiz-adv-x="1024" 
d="M414 -109h200v-155l-161 -225l-47 12l73 217l-65 65v86z" />
    <glyph glyph-name="asuperior" unicode="&#xf6e9;" horiz-adv-x="647" 
d="M549 1202v-229q0 -53 18 -90l60 2l4 -35l-207 -41l-35 92l-153 -98q-80 0 -132.5 38t-52.5 110t64 118l268 76v80q0 47 -13.5 69.5t-55.5 22.5t-72 -14l-25 -127h-145v104l252 92q135 0 180 -37t45 -133zM217 985q0 -49 20.5 -71.5t45.5 -22.5t42 8t31 14l27 19v180
l-125 -43q-41 -35 -41 -84z" />
    <glyph glyph-name="bsuperior" unicode="&#xf6ea;" horiz-adv-x="696" 
d="M479 1073q0 193 -106 193q-35 0 -92 -33l-25 -12v-336q33 -37 90 -37t95 58t38 167zM655 1128q0 -272 -323 -325q-140 0 -236 45v708l-71 -6l-5 39l191 33l45 2v-360l172 108q94 0 160.5 -66.5t66.5 -177.5z" />
    <glyph glyph-name="dsuperior" unicode="&#xf6eb;" horiz-adv-x="718" 
d="M346 1317q-60 0 -96.5 -56.5t-36.5 -149.5t33 -147.5t76 -54.5t94 29l22 16v330q-32 33 -92 33zM598 965q0 -48 20 -88l62 4l2 -37l-201 -35l-35 100l-157 -106q-111 0 -179.5 73.5t-68.5 195.5t72.5 200t210.5 100q65 0 114 -29v213l-69 -6l-4 35l182 37l51 2v-659z" />
    <glyph glyph-name="esuperior" unicode="&#xf6ec;" horiz-adv-x="604" 
d="M303 1321q-102 0 -106 -170v-4l200 4v6q0 78 -17.5 121t-76.5 43zM41 1063q0 239 293 309q113 0 171 -57.5t58 -151.5v-51h-364q4 -92 57 -143t136 -51t151 45l18 -33q-92 -78 -227 -127q-122 0 -207.5 71.5t-85.5 188.5z" />
    <glyph glyph-name="isuperior" unicode="&#xf6ed;" horiz-adv-x="399" 
d="M145 1606l109 6l39 -6l6 -74l-14 -66l-107 -6l-37 6l-8 76zM213 821l-147 -2l-5 37l72 10v430l-72 -8l-4 39l191 35l45 2v-498l72 -10l-5 -37z" />
    <glyph glyph-name="lsuperior" unicode="&#xf6ee;" horiz-adv-x="397" 
d="M213 821l-147 -2l-3 37l70 10v690l-72 -6l-4 39l191 33l45 2v-758l74 -10l-5 -37z" />
    <glyph glyph-name="msuperior" unicode="&#xf6ef;" horiz-adv-x="1114" 
d="M840 1202q0 70 -60 70q-35 0 -102 -39l-31 -19v-348l49 -10l-2 -37l-131 2l-125 -2l-2 37l45 10v336q0 70 -59 70q-39 0 -100 -39l-33 -19v-348l49 -10l-2 -37l-131 2l-144 -2l-4 37l72 10v430l-74 -8l-4 37l189 37l45 2l4 -107l190 115q153 4 166 -115l195 115
q90 0 129 -35t39 -123v-348l75 -10l-4 -37l-147 2l-135 -2l-4 37l47 10v336z" />
    <glyph glyph-name="osuperior" unicode="&#xf6f0;" horiz-adv-x="675" 
d="M322 1323q-111 0 -111 -201q0 -133 41 -201.5t98 -68.5q111 0 111 201q0 139 -40 204.5t-99 65.5zM41 1073q0 243 319 299q119 0 197 -72.5t78 -195.5q0 -194 -126 -240.5t-194 -60.5q-118 0 -196 74.5t-78 195.5z" />
    <glyph glyph-name="rsuperior" unicode="&#xf6f1;" horiz-adv-x="536" 
d="M506 1368v-156h-139q-13 -8 -78 -73v-271l119 -12l-5 -37l-194 2l-150 -2l-2 37l72 10v430l-74 -8l-4 37l180 37l41 2l11 -184l120 188h103z" />
    <glyph glyph-name="ssuperior" unicode="&#xf6f2;" horiz-adv-x="555" 
d="M266 852q96 0 96 64q0 30 -20 48.5t-66 41.5l-102 55q-45 25 -76.5 56.5t-31.5 87.5t52 97t175 70q114 0 188 -37v-151h-45l-51 102q-43 39 -98 39q-82 0 -82 -57q0 -29 20.5 -47.5t69.5 -42.5l102 -54q53 -29 80 -61.5t27 -81.5q0 -133 -234 -178q-112 0 -200 43
l-13 166h52l51 -107q57 -53 106 -53z" />
    <glyph glyph-name="tsuperior" unicode="&#xf6f3;" horiz-adv-x="475" 
d="M113 954v344h-97v21l23 22h76v80l131 82h28v-164h166v-41h-166v-331q0 -70 68 -70q50 0 100 29l15 -35l-178 -88q-166 0 -166 151z" />
    <glyph glyph-name="apple" unicode="&#xf8ff;" horiz-adv-x="1402" 
d="M1145 791h10l10 14v14l-20 -8v-20zM1006 1085l-17 -8v-18l17 -6l4 14zM848 1315l-17 -19v-39l25 -12l6 35zM438 1020l121 24l-8 25zM719 1065l-8 -25l100 -34l6 8zM956 735v-26l91 8l8 18h-99zM647 512h139v12l-139 8v-20zM807 639h-150v-21h150v21zM422 416l-152 102
l41 -47l103 -84zM807 575l-148 15l-12 -27l160 -8v20zM500 930l2 8l28 4l-26 12l4 15l-41 -2l6 -39l29 -31l24 -12l23 10l33 25l12 24l4 27l-45 -8l12 -21l-24 -27l-29 -2zM1206 639l-12 -6l-68 -55l80 -99v160zM750 932l-15 -23h-24l-11 15l23 16l-31 4v12l-47 9l6 -35
l17 -29l41 -18l26 -2l37 20l12 19l11 41l-62 4l15 -11zM887 688l8 62l-111 10l-6 -72h109zM877 1198l10 -12l39 22l16 -4l12 -49h27l12 12l-18 37l35 58l-31 18v10l-51 15v-41l-27 -11v-18l-18 -12zM1090 627l16 -13l16 4l41 31l27 27l22 37l-14 10h-29l-20 6l-29 14l-35 -6
q-4 -27 -7 -46t-5 -52zM778 438l-131 8v-104l131 -12v108zM422 678l-135 80v-15l-4 -26l2 -55v-99l131 -90l-2 123zM1047 678l-111 2l-2 -49v-13l-4 -63l39 -6l-17 -125l-98 6l-16 -12l104 -10l-4 -19h-100l-9 -10l109 -14l-12 -72l55 -2l25 162l8 73l-31 6l-2 17l41 2l10 6
l-57 33l4 10l61 -12l-61 30l10 11l43 -11l8 21zM195 831h-43l38 -28l3 -23l-41 15l36 -37l-8 -15l6 -198l23 -25v369l117 -66l14 21l-139 78v36l121 -69l88 -58l57 -28l6 20l-211 131l-26 15l-84 67l4 -159l39 -35v-11zM1262 952l-17 76l-39 102l-41 74l-47 58l-69 43h-23
l35 -39l51 -21l23 -22l6 -68l-51 27l-31 -60l24 -16v-39l31 6l-24 53l30 -10l21 -41l-11 -24l-16 -15h-47l-6 23l-25 4l2 -45h-28l28 -37l-14 -20l-43 10l-6 -56l84 13l16 35l45 -5l13 -57l-33 -27v-30l16 -13l37 25h47l12 23l-36 12l-11 18l19 86h14l29 -41zM733 1130h17
l20 46l23 16l-11 12l-6 17l2 43l-61 -21l-21 -16l-16 10l8 43l29 20l22 23l78 -4l25 27l-8 16h-101l-92 -27l-109 -53l-59 -47l-51 -70l59 25l27 -31l-35 -41l-20 -6l34 -6h11l73 49h66l37 -25l16 7l8 28l15 11l20 -9v-37zM1075 817l-8 14h-420l-135 -6l-14 -18l-13 -90
l-98 41l-22 -8l116 -56l2 -92l-10 -149v-187l37 8l4 82l84 -6l6 19l-90 12v33l98 -13l2 19l-96 14l2 45l88 -6l6 12l-92 19l6 192h152l22 21h-161l4 18h151l17 15h-168l4 45l239 8l287 -8v22zM1300 942l-6 -84l-16 -72l-25 -63l-6 -320l-43 -14l-102 143l-55 -14l-39 -287
l-66 9l-14 -9l-8 -192l61 -39l33 -29l-6 -30l-62 2l-49 37h-29l-16 16l14 156l-8 96l-125 2l-6 -107l-4 -114v-41l-31 -13l-16 13l-62 -21h-65l-2 23l22 22l103 43l-13 197l-200 -12l-301 286l-8 236l-27 20l-21 74v53l31 17l-6 159l188 -127l19 97l20 73l45 72l58 72l80 59
l159 60h45l-139 45l8 34h15l161 -40l-8 104l33 25h66l38 -11l60 -51l65 -16l66 -21l31 -26v-41l-41 -64l61 -57l57 -66l37 -69l31 -84z" />
    <glyph glyph-name="AE.sc" horiz-adv-x="1669" 
d="M848 528v447l-307 -447h307zM848 475h-336l-291 -414l129 -12l-2 -49l-168 2l-155 -2l-5 49l119 12l690 979h746l8 -274h-41l-102 215l-398 2v-453l201 2l70 173h39l-9 -203l9 -203h-39l-70 170l-201 2v-412l408 2l113 224h41l-27 -287l-635 4l-223 -4l-4 51l133 14v412z
" />
    <glyph glyph-name="AEacute.002" horiz-adv-x="2027" 
d="M1047 662h-416l-365 -596l166 -21l-4 -47l-213 4l-192 -4l-7 47l154 18l864 1373l125 -4l772 4l11 -371h-48l-125 305l-503 2v-653l256 4l86 229h47l-10 -256l10 -266h-47l-86 229l-256 5v-603l520 5l137 315h47l-35 -383l-778 4l-276 -4l-7 47l173 21v596zM1047 717v641
l-381 -641h381zM1151 1528l106 213h207l-237 -213h-76z" />
    <glyph glyph-name="AEacute.sc" horiz-adv-x="1669" 
d="M915 1145l91 201h184l-211 -201h-64zM848 528v447l-307 -447h307zM848 475h-336l-291 -414l129 -12l-2 -49l-168 2l-155 -2l-5 49l119 12l690 979h746l8 -274h-41l-102 215l-398 2v-453l201 5l70 170h39l-9 -203l9 -201h-39l-70 168l-201 4v-414l408 2l113 224h41
l-27 -287l-637 4l-221 -4l-4 51l133 14v412z" />
    <glyph glyph-name="Aacute.002" horiz-adv-x="1476" 
d="M897 563l-166 475l-57 211l-240 -686h463zM16 45l154 21l496 1339l135 51l508 -1393l153 -18l-4 -47l-280 4l-277 -4l-4 47l172 21l-149 432h-506l-152 -432l176 -21l-4 -47l-215 4l-196 -4zM690 1528l107 213h207l-240 -213h-74z" />
    <glyph glyph-name="Aacute.sc" horiz-adv-x="1224" 
d="M571 815l-20 86l-191 -493h365zM342 350l-117 -287l137 -16l-4 -49l-170 4l-153 -4l-4 51l114 14l394 945l137 55l403 -1002l117 -12l-4 -51l-231 4l-232 -4l-2 49l133 16l-115 287h-403zM580 1145l88 201h186l-211 -201h-63z" />
    <glyph glyph-name="Abreve.002" horiz-adv-x="1476" 
d="M897 563l-166 475l-57 211l-240 -686h463zM16 45l154 21l496 1339l135 51l508 -1393l153 -18l-4 -47l-280 4l-277 -4l-4 47l172 21l-149 432h-506l-152 -432l176 -21l-4 -47l-215 4l-196 -4zM969 1753l30 -24q-35 -67 -83.5 -120t-157.5 -98q-109 0 -182 63.5t-115 154.5
l35 24q57 -85 122.5 -110t151.5 -25t199 135z" />
    <glyph glyph-name="Abreve.sc" horiz-adv-x="1224" 
d="M571 815l-20 86l-191 -493h365zM342 350l-117 -287l137 -16l-4 -49l-170 4l-153 -4l-4 51l114 14l394 945l137 55l403 -1002l117 -12l-4 -51l-231 4l-232 -4l-2 49l133 16l-115 287h-403zM606 1235q78 0 125 34t72 60l31 -26q-21 -56 -65.5 -95t-139.5 -78
q-133 0 -184.5 71t-65.5 102l31 26q25 -27 71.5 -60.5t124.5 -33.5z" />
    <glyph glyph-name="Acircumflex.002" horiz-adv-x="1476" 
d="M897 563l-166 475l-57 211l-240 -686h463zM16 45l154 21l496 1339l135 51l508 -1393l153 -18l-4 -47l-280 4l-277 -4l-4 47l172 21l-149 432h-506l-152 -432l176 -21l-4 -47l-215 4l-196 -4zM446 1526l238 225h107l237 -225h-76l-200 119l-17 12l-12 -12l-201 -119h-76z
" />
    <glyph glyph-name="Acircumflex.sc" horiz-adv-x="1224" 
d="M571 815l-20 86l-191 -493h365zM342 350l-117 -287l137 -16l-4 -49l-170 4l-153 -4l-4 51l114 14l394 945l137 55l403 -1002l117 -12l-4 -51l-231 4l-232 -4l-2 49l133 16l-115 287h-403zM365 1145l196 205h94l197 -205h-66l-165 92l-13 20l-14 -20l-164 -92h-65z" />
    <glyph glyph-name="Adieresis.002" horiz-adv-x="1476" 
d="M897 563l-166 475l-57 211l-240 -686h463zM16 45l154 21l496 1339l135 51l508 -1393l153 -18l-4 -47l-280 4l-277 -4l-4 47l172 21l-149 432h-506l-152 -432l176 -21l-4 -47l-215 4l-196 -4zM987 1747l47 -8l10 -92l-18 -82l-117 -9l-47 9l-8 96l16 78zM553 1747l49 -8
l8 -92l-18 -82l-115 -9l-49 9l-8 96l16 78z" />
    <glyph glyph-name="Adieresis.sc" horiz-adv-x="1224" 
d="M571 815l-20 86l-191 -493h365zM342 350l-117 -287l137 -16l-4 -49l-170 4l-153 -4l-4 51l114 14l394 945l137 55l403 -1002l117 -12l-4 -51l-231 4l-232 -4l-2 49l133 16l-115 287h-403zM825 1321l43 -8l11 -84l-19 -74l-102 -8l-41 8l-8 86l16 72zM461 1321l41 -8
l8 -84l-16 -74l-103 -8l-41 8l-8 86l16 72z" />
    <glyph glyph-name="Agrave.002" horiz-adv-x="1476" 
d="M897 563l-166 475l-57 211l-240 -686h463zM16 45l154 21l496 1339l135 51l508 -1393l153 -18l-4 -47l-280 4l-277 -4l-4 47l172 21l-149 432h-506l-152 -432l176 -21l-4 -47l-215 4l-196 -4zM694 1528l-235 213h205l108 -213h-78z" />
    <glyph glyph-name="Agrave.sc" horiz-adv-x="1224" 
d="M571 815l-20 86l-191 -493h365zM342 350l-117 -287l137 -16l-4 -49l-170 4l-153 -4l-4 51l114 14l394 945l137 55l403 -1002l117 -12l-4 -51l-231 4l-232 -4l-2 49l133 16l-115 287h-403zM578 1145l-209 201h182l90 -201h-63z" />
    <glyph glyph-name="Amacron.002" horiz-adv-x="1476" 
d="M897 563l-166 475l-57 211l-240 -686h463zM16 45l154 21l496 1339l135 51l508 -1393l153 -18l-4 -47l-280 4l-277 -4l-4 47l172 21l-149 432h-506l-152 -432l176 -21l-4 -47l-215 4l-196 -4zM449 1692h579v-86h-579v86z" />
    <glyph glyph-name="Amacron.sc" horiz-adv-x="1224" 
d="M571 815l-20 86l-191 -493h365zM342 350l-117 -287l137 -16l-4 -49l-170 4l-153 -4l-4 51l114 14l394 945l137 55l403 -1002l117 -12l-4 -51l-231 4l-232 -4l-2 49l133 16l-115 287h-403zM375 1270h471v-92h-471v92z" />
    <glyph glyph-name="Aogonek.001" horiz-adv-x="1476" 
d="M995 -190q0 -140 191 -140l-2 -35q-269 0 -299.5 71t-30.5 118v43l223 166l-157 465h-504l-154 -432l176 -21l-4 -47l-221 4l-190 -4l-7 47l154 21l496 1339l135 51l508 -1393l153 -18l-4 -47l-356 4l-107 -158v-34zM700 1133l-26 116l-238 -686h461z" />
    <glyph glyph-name="Aogonek.sc" horiz-adv-x="1224" 
d="M571 817l-20 84l-189 -493h363zM811 -217q0 -43 42 -76t130 -33v-41q-166 0 -234.5 37t-68.5 113v92l186 168l-121 307h-403l-117 -287l137 -16l-4 -49l-170 4l-153 -4l-4 51l114 14l394 945l137 55l403 -1002l117 -12l-4 -51l-299 4l-82 -162v-57z" />
    <glyph glyph-name="Aring.002" horiz-adv-x="1476" 
d="M897 563l-166 475l-57 211l-240 -686h463zM16 45l154 21l496 1339l135 51l508 -1393l153 -18l-4 -47l-280 4l-277 -4l-4 47l172 21l-149 432h-506l-152 -432l176 -21l-4 -47l-215 4l-196 -4zM635 1609q0 -40 26.5 -66.5t67.5 -26.5t68.5 26.5t27.5 66.5t-27.5 66.5
t-68.5 26.5t-67.5 -26.5t-26.5 -66.5zM850 1519q-43 -30 -121 -51q-107 0 -134.5 50.5t-27.5 86.5q0 64 41 90t121 52q107 0 135.5 -50t28.5 -99t-43 -79z" />
    <glyph glyph-name="Aring.sc" horiz-adv-x="1224" 
d="M571 815l-20 86l-191 -493h365zM342 350l-117 -287l137 -16l-4 -49l-170 4l-153 -4l-4 51l114 14l394 945l137 55l403 -1002l117 -12l-4 -51l-231 4l-232 -4l-2 49l133 16l-115 287h-403zM729 1146q-47 -33 -129 -52q-115 0 -144.5 56t-29.5 96q0 70 47 104t129 57
q121 0 147.5 -56.5t26.5 -114.5q0 -57 -47 -90zM492 1249q0 -45 30.5 -72.5t78.5 -27.5t80 27.5t32 72.5t-32 74t-80 29t-78.5 -29t-30.5 -74z" />
    <glyph glyph-name="Aringacute.002" horiz-adv-x="1476" 
d="M897 563l-166 475l-57 211l-240 -686h463zM16 45l154 21l496 1339l135 51l508 -1393l153 -18l-4 -47l-280 4l-277 -4l-4 47l172 21l-149 432h-506l-152 -432l176 -21l-4 -47l-215 4l-196 -4zM633 1607q0 -40 27.5 -65.5t68.5 -25.5t68.5 25.5t27.5 65.5t-27.5 66.5
t-68.5 26.5t-68.5 -26.5t-27.5 -66.5zM807 1731q86 -34 86 -122q0 -87 -66.5 -109.5t-97.5 -33.5q-106 0 -134 51.5t-28 87.5q0 63 38 88t120 52h13q14 0 24 -4l39 65h114z" />
    <glyph glyph-name="Aringacute.sc" horiz-adv-x="1224" 
d="M571 815l-20 86l-191 -493h365zM342 350l-117 -287l137 -16l-4 -49l-170 4l-153 -4l-4 51l114 14l394 945l137 55l403 -1002l117 -12l-4 -51l-231 4l-232 -4l-2 49l133 16l-115 287h-403zM662 1384q114 -34 114 -133t-68.5 -124t-101.5 -33q-111 0 -140.5 54t-29.5 93
q0 66 40 96t130 60l72 78h135zM500 1244q0 -42 29.5 -68.5t75.5 -26.5t77 26.5t31 68.5t-31 69.5t-77 27.5t-75.5 -27.5t-29.5 -69.5z" />
    <glyph glyph-name="Atilde.002" horiz-adv-x="1476" 
d="M897 563l-166 475l-57 211l-240 -686h463zM16 45l154 21l496 1339l135 51l508 -1393l153 -18l-4 -47l-280 4l-277 -4l-4 47l172 21l-149 432h-506l-152 -432l176 -21l-4 -47l-215 4l-196 -4zM504 1710l139 39l350 -113l74 119h33l-62 -178l-137 -37l-352 115l-74 -121
h-33z" />
    <glyph glyph-name="Atilde.sc" horiz-adv-x="1224" 
d="M571 815l-20 86l-191 -493h365zM342 350l-117 -287l137 -16l-4 -49l-170 4l-153 -4l-4 51l114 14l394 945l137 55l403 -1002l117 -12l-4 -51l-231 4l-232 -4l-2 49l133 16l-115 287h-403zM397 1311l107 28l303 -92l57 92h31l-47 -176l-105 -24l-303 94l-55 -96h-31z" />
    <glyph glyph-name="B.sc" horiz-adv-x="1077" 
d="M805 293q0 111 -69.5 171t-180.5 60h-156v-463l133 -12q207 0 240 98.5t33 145.5zM399 575h136q98 0 153 63.5t55 155.5t-48 144.5t-146 52.5l-150 -10v-406zM859 639.5q-89 -68.5 -226 -84.5q193 -6 285 -77.5t92 -178.5q0 -197 -169 -245t-266 -56l-272 4l-231 -4
l-4 51l131 14v916l-131 14l4 47l229 -2l330 2q150 0 233.5 -68t83.5 -166t-89 -166.5z" />
    <glyph glyph-name="C.sc" horiz-adv-x="1173" 
d="M1081 711h-59l-82 188q-97 102 -263 102t-273 -123t-107 -342t108 -356t306 -137q129 0 223 94l100 211h58l-21 -276q-170 -70 -403 -97q-250 0 -421 138t-171 385q0 246 161.5 387.5t456.5 179.5q226 0 387 -84v-270z" />
    <glyph glyph-name="Cacute.002" horiz-adv-x="1415" 
d="M1319 1028h-68l-98 238q-124 135 -337 135t-352.5 -172.5t-139.5 -479.5t141 -507.5t395 -200.5q92 0 165 37t118 82l121 268h67l-26 -317q-254 -117 -498 -146q-141 0 -273.5 47t-293 195.5t-160.5 487.5t203.5 537.5t554.5 235.5q249 0 481 -133v-307zM760 1528
l108 213h205l-237 -213h-76z" />
    <glyph glyph-name="Cacute.sc" horiz-adv-x="1173" 
d="M633 1145l90 201h182l-209 -201h-63zM1081 711h-59l-82 188q-97 102 -263 102t-273 -123t-107 -342t108 -356t306 -137q129 0 223 94l100 211h58l-21 -276q-170 -70 -403 -97q-250 0 -421 138t-171 385q0 246 161.5 387.5t456.5 179.5q226 0 387 -84v-270z" />
    <glyph glyph-name="Ccaron.002" horiz-adv-x="1415" 
d="M1319 1028h-68l-98 238q-124 135 -337 135t-352.5 -172.5t-139.5 -479.5t141 -507.5t395 -200.5q92 0 165 37t118 82l121 268h67l-26 -317q-254 -117 -498 -146q-141 0 -273.5 47t-293 195.5t-160.5 487.5t203.5 537.5t554.5 235.5q249 0 481 -133v-307zM799 1636l12 -12
l14 12l203 123h74l-234 -229h-110l-236 229h74z" />
    <glyph glyph-name="Ccaron.sc" horiz-adv-x="1173" 
d="M496 1346l161 -95l15 -18l14 18l164 95h68l-197 -205h-96l-197 205h68zM1081 711h-59l-82 188q-97 102 -263 102t-273 -123t-107 -342t108 -356t306 -137q129 0 223 94l100 211h58l-21 -276q-170 -70 -403 -97q-250 0 -421 138t-171 385q0 246 161.5 387.5t456.5 179.5
q226 0 387 -84v-270z" />
    <glyph glyph-name="Ccedilla.001" horiz-adv-x="1415" 
d="M1319 1028h-68l-98 238q-124 135 -337 135t-352.5 -172.5t-139.5 -479.5t141 -507.5t395 -200.5q92 0 165 37t118 82l121 268h67l-26 -317q-254 -117 -494 -146l-35 -39q99 -15 124.5 -49.5t25.5 -62.5q0 -50 -46 -81t-122 -57l-129 -38h-90l57 73h164q55 27 55 69
t-48 60.5t-105 18.5l102 108q-287 13 -485.5 207.5t-198.5 526.5q0 333 203.5 531.5t554.5 235.5q249 0 481 -133v-307z" />
    <glyph glyph-name="Ccedilla.sc" horiz-adv-x="1173" 
d="M651 -211q0 81 -114 86l79 102q-228 13 -384 149.5t-156 377.5q0 240 161.5 381.5t456.5 179.5q226 0 387 -84v-270h-59l-82 188q-97 102 -263 102t-273 -123t-107 -342t108 -356t306 -137q129 0 223 94l100 211h58l-21 -276q-155 -64 -385 -95l-29 -2l-32 -43
q57 -4 97 -32.5t39 -68.5q-2 -68 -47.5 -102t-109.5 -57l-102 -39h-70l47 72h125q47 33 47 84z" />
    <glyph glyph-name="Ccircumflex.002" horiz-adv-x="1415" 
d="M1319 1028h-68l-98 238q-124 135 -337 135t-352.5 -172.5t-139.5 -479.5t141 -507.5t395 -200.5q92 0 165 37t118 82l121 268h67l-26 -317q-254 -117 -498 -146q-141 0 -273.5 47t-293 195.5t-160.5 487.5t203.5 537.5t554.5 235.5q249 0 481 -133v-307zM535 1522
l235 227h113l235 -227h-76l-200 123l-17 12l-14 -12l-201 -123h-75z" />
    <glyph glyph-name="Ccircumflex.sc" horiz-adv-x="1173" 
d="M440 1145l193 205h98l197 -205h-68l-164 92l-14 20l-12 -20l-166 -92h-64zM1081 711h-59l-82 188q-97 102 -263 102t-273 -123t-107 -342t108 -356t306 -137q129 0 223 94l100 211h58l-21 -276q-170 -70 -403 -97q-250 0 -421 138t-171 385q0 246 161.5 387.5
t456.5 179.5q226 0 387 -84v-270z" />
    <glyph glyph-name="Cdotaccent.002" horiz-adv-x="1415" 
d="M1319 1028h-68l-98 238q-124 135 -337 135t-352.5 -172.5t-139.5 -479.5t141 -507.5t395 -200.5q92 0 165 37t118 82l121 268h67l-26 -317q-254 -117 -498 -146q-141 0 -273.5 47t-293 195.5t-160.5 487.5t203.5 537.5t554.5 235.5q249 0 481 -133v-307zM731 1741l127 10
l49 -10l11 -96l-21 -89l-125 -10l-49 10l-10 103z" />
    <glyph glyph-name="Cdotaccent.sc" horiz-adv-x="1173" 
d="M600 1337l119 9l47 -11l10 -92l-18 -78l-119 -10l-47 10l-8 92zM1081 711h-59l-82 188q-97 102 -263 102t-273 -123t-107 -342t108 -356t306 -137q129 0 223 94l100 211h58l-21 -276q-170 -70 -403 -97q-250 0 -421 138t-171 385q0 246 161.5 387.5t456.5 179.5
q226 0 387 -84v-270z" />
    <glyph glyph-name="D.sc" horiz-adv-x="1243" 
d="M855 868.5q-99 124.5 -296 120.5l-156 -8v-920l187 -10q159 -4 261.5 134t102.5 349q0 210 -99 334.5zM166 1038h311q63 0 137 2q262 2 408.5 -127t146.5 -363t-142.5 -383.5t-418.5 -168.5l-311 4l-225 -4l-4 51l137 14v916l-137 14l4 47q49 -2 94 -2z" />
    <glyph glyph-name="Dcaron.002" horiz-adv-x="1513" 
d="M1050 1203.5q-130 178.5 -384 178.5l-209 -14v-1296l250 -17q212 0 342.5 186t130.5 485t-130 477.5zM1239 220.5q-178 -199.5 -516 -222.5l-361 4l-296 -4l-7 47l181 21v1304l-181 19l7 47l294 -4l373 4q321 0 502.5 -180t181.5 -508t-178 -527.5zM694 1636l13 -12
l14 12l201 123h75l-235 -229h-111l-233 229h74z" />
    <glyph glyph-name="Dcaron.sc" horiz-adv-x="1243" 
d="M836 1346l-197 -205h-96l-195 205h66l164 -95l12 -18l14 18l166 95h66zM1159 549q0 -235 -142 -383.5t-419 -167.5l-305 4l-230 -4l-4 51l138 14v916l-138 14l4 47l232 -2l311 2q260 2 406.5 -127t146.5 -364zM846.5 868q-97.5 125 -297.5 121l-154 -8v-920l185 -10
q162 -4 263 135t101 348t-97.5 334z" />
    <glyph glyph-name="Dcroat.sc" horiz-adv-x="1243" 
d="M395 567h207v-55h-207v-451l185 -10q162 -4 263 135t101 348t-97.5 334t-297.5 121l-154 -8v-414zM197 567v412l-138 14l4 47l230 -2l313 2q260 2 406.5 -127t146.5 -364t-142 -383.5t-419 -167.5l-309 4l-226 -4l-4 51l138 14v449h-123v55h123z" />
    <glyph glyph-name="E.sc" horiz-adv-x="1058" 
d="M963 1040l8 -284h-41l-105 225l-426 2v-408l232 3l69 172h41l-8 -203l8 -203h-41l-69 170l-232 2v-457l439 2l112 232h43l-28 -295l-674 4l-219 -4l-4 51l131 14v916l-131 14l4 47l219 -2z" />
    <glyph glyph-name="Eacute.002" horiz-adv-x="1261" 
d="M59 45l174 21v1304l-174 19l7 47l282 -4l815 4l11 -371h-46l-127 305l-550 2v-592l305 4l86 230h47l-10 -256l10 -269h-47l-86 230l-305 4v-662l567 5l137 315h49l-37 -383l-821 4l-280 -4zM600 1528l107 213h206l-237 -213h-76z" />
    <glyph glyph-name="Eacute.sc" horiz-adv-x="1058" 
d="M963 1040l8 -284h-41l-105 225l-426 2v-408l232 3l69 172h41l-8 -203l8 -203h-41l-69 170l-232 2v-457l439 2l112 232h43l-28 -295l-672 4l-221 -4l-4 51l131 14v916l-131 14l4 47l223 -2zM514 1145l90 201h182l-206 -201h-66z" />
    <glyph glyph-name="Ebreve.002" horiz-adv-x="1261" 
d="M59 45l174 21v1304l-174 19l7 47l282 -4l815 4l11 -371h-46l-127 305l-550 2v-592l305 4l86 230h47l-10 -256l10 -269h-47l-86 230l-305 4v-662l567 5l137 315h49l-37 -383l-821 4l-280 -4zM444 1753q105 -135 228.5 -135t177 58.5t68.5 76.5l32 -24q-35 -68 -86.5 -122
t-154.5 -96q-111 0 -184 63.5t-115 154.5z" />
    <glyph glyph-name="Ebreve.sc" horiz-adv-x="1058" 
d="M963 1040l8 -284h-41l-105 225l-426 2v-408l232 3l69 172h41l-8 -203l8 -203h-41l-69 170l-232 2v-457l439 2l112 232h43l-28 -295l-672 4l-221 -4l-4 51l131 14v916l-131 14l4 47l221 -2zM566 1235q115 0 198 94l29 -26q-26 -58 -66 -95t-137 -78q-172 0 -250 173l31 26
q80 -94 195 -94z" />
    <glyph glyph-name="Ecaron.002" horiz-adv-x="1261" 
d="M59 45l174 21v1304l-174 19l7 47l282 -4l815 4l11 -371h-46l-127 305l-550 2v-592l305 4l86 230h47l-10 -256l10 -269h-47l-86 230l-305 4v-662l567 5l137 315h49l-37 -383l-821 4l-280 -4zM670 1636l14 -12l14 12l201 123h76l-236 -229h-110l-236 229h76z" />
    <glyph glyph-name="Ecaron.sc" horiz-adv-x="1058" 
d="M963 1040l8 -284h-41l-105 225l-426 2v-408l232 3l69 172h41l-8 -203l8 -203h-41l-69 170l-232 2v-457l439 2l112 232h43l-28 -295l-674 4l-219 -4l-4 51l131 14v916l-131 14l4 47l221 -2zM397 1346l166 -95l12 -18l13 18l166 95h65l-196 -205h-97l-194 205h65z" />
    <glyph glyph-name="Ecircumflex.002" horiz-adv-x="1261" 
d="M59 45l174 21v1304l-174 19l7 47l282 -4l815 4l11 -371h-46l-127 305l-550 2v-592l305 4l86 230h47l-10 -256l10 -269h-47l-86 230l-305 4v-662l567 5l137 315h49l-37 -383l-821 4l-280 -4zM401 1522l236 227h108l236 -227h-74l-202 123l-15 12l-12 -12l-203 -123h-74z
" />
    <glyph glyph-name="Ecircumflex.sc" horiz-adv-x="1058" 
d="M963 1040l8 -284h-41l-105 225l-426 2v-408l232 3l69 172h41l-8 -203l8 -203h-41l-69 170l-232 2v-457l439 2l112 232h43l-28 -295l-672 4l-221 -4l-4 51l131 14v916l-131 14l4 47l221 -2zM336 1145l196 205h97l194 -205h-65l-164 92l-16 20l-13 -20l-164 -92h-65z" />
    <glyph glyph-name="Edieresis.002" horiz-adv-x="1261" 
d="M59 45l174 21v1304l-174 19l7 47l282 -4l815 4l11 -371h-46l-127 305l-550 2v-592l305 4l86 230h47l-10 -256l10 -269h-47l-86 230l-305 4v-662l567 5l137 315h49l-37 -383l-821 4l-280 -4zM948 1747l49 -8l11 -92l-19 -82l-117 -9l-47 9l-10 96l19 78zM516 1747l47 -8
l10 -92l-18 -82l-117 -9l-47 9l-10 96l18 78z" />
    <glyph glyph-name="Edieresis.sc" horiz-adv-x="1058" 
d="M963 1040l8 -284h-41l-105 225l-426 2v-408l232 3l69 172h41l-8 -203l8 -203h-41l-69 170l-232 2v-457l439 2l112 232h43l-28 -295l-672 4l-221 -4l-4 51l131 14v916l-131 14l4 47l223 -2zM801 1321l41 -8l8 -84l-14 -74l-101 -8l-43 8l-10 86l14 72zM434 1321l41 -8
l10 -84l-16 -74l-102 -8l-43 8l-9 86l17 72z" />
    <glyph glyph-name="Edotaccent.002" horiz-adv-x="1261" 
d="M59 45l174 21v1304l-174 19l7 47l282 -4l815 4l11 -371h-46l-127 305l-550 2v-592l305 4l86 230h47l-10 -256l10 -269h-47l-86 230l-305 4v-662l567 5l137 315h49l-37 -383l-821 4l-280 -4zM604 1741l127 10l49 -10l11 -96l-19 -89l-127 -10l-47 10l-10 103z" />
    <glyph glyph-name="Edotaccent.sc" horiz-adv-x="1058" 
d="M963 1040l8 -284h-41l-105 225l-426 2v-408l232 3l69 172h41l-8 -203l8 -203h-41l-69 170l-232 2v-457l439 2l112 232h43l-28 -295l-674 4l-219 -4l-4 51l131 14v916l-131 14l4 47l223 -2zM500 1325l118 8l50 -10l8 -90l-19 -82l-116 -8l-47 8l-9 94z" />
    <glyph glyph-name="Egrave.002" horiz-adv-x="1261" 
d="M59 45l174 21v1304l-174 19l7 47l282 -4l815 4l11 -371h-46l-127 305l-550 2v-592l305 4l86 230h47l-10 -256l10 -269h-47l-86 230l-305 4v-662l567 5l137 315h49l-37 -383l-821 4l-280 -4zM688 1528l-237 213h204l107 -213h-74z" />
    <glyph glyph-name="Egrave.sc" horiz-adv-x="1058" 
d="M963 1040l8 -284h-41l-105 225l-426 2v-408l232 3l69 172h41l-8 -203l8 -203h-41l-69 170l-232 2v-457l439 2l112 232h43l-28 -295l-672 4l-221 -4l-4 51l131 14v916l-131 14l4 47l221 -2zM559 1145l-211 201h184l91 -201h-64z" />
    <glyph glyph-name="Emacron.002" horiz-adv-x="1261" 
d="M59 45l174 21v1304l-174 19l7 47l282 -4l815 4l11 -371h-46l-127 305l-550 2v-592l305 4l86 230h47l-10 -256l10 -269h-47l-86 230l-305 4v-662l567 5l137 315h49l-37 -383l-821 4l-280 -4zM399 1692h580v-86h-580v86z" />
    <glyph glyph-name="Emacron.sc" horiz-adv-x="1058" 
d="M963 1040l8 -284h-41l-105 225l-426 2v-408l232 3l69 172h41l-8 -203l8 -203h-41l-69 170l-232 2v-457l439 2l112 232h43l-28 -295l-672 4l-221 -4l-4 51l131 14v916l-131 14l4 47l223 -2zM336 1270h469v-92h-469v92z" />
    <glyph glyph-name="Eng.001" horiz-adv-x="1466" 
d="M827 -360v118l162 4l137 170l113 60h-82l-801 1210l-41 109v-1245l172 -21l-6 -47l-205 4l-210 -4l-7 47l174 21v1296l-170 27l5 47l188 -4l193 4l700 -1041l43 -94v1069l-172 19l4 47l201 -4l215 4l6 -47l-174 -19v-1378l-189 -352h-256z" />
    <glyph glyph-name="Eng.sc" horiz-adv-x="1236" 
d="M666 -350v153h139l123 148l73 43h-57l-637 842l-37 108v-881l133 -14l-6 -51l-157 4l-168 -4l-4 51l131 14v914l-127 16l4 47l143 -2l176 2l537 -671l45 -105v715l-131 14l2 47l160 -2l168 2l4 -47l-133 -14v-985l-187 -344h-194z" />
    <glyph glyph-name="Eogonek.001" horiz-adv-x="1265" 
d="M1106 -319q0 -43 10 -43q-249 0 -278 65.5t-29 110.5q-10 0 -17.5 20.5t-7.5 26.5l207 139l-647 2l-278 -4l-7 47l174 21v1304l-174 19l7 47l278 -4l819 4l11 -371h-46l-127 305l-550 2v-592l305 4l86 230h47l-10 -256l10 -269h-47l-86 230l-305 4v-662l567 5l137 315h49
l-37 -383l-135 2l-100 -158l-4 -30q0 -70 45 -100.5t133 -30.5z" />
    <glyph glyph-name="Eogonek.sc" horiz-adv-x="1058" 
d="M780 -217q0 -43 42 -76t128 -33v-41q-164 0 -231.5 38t-67.5 112v90l156 127l-516 2l-219 -4l-4 51l131 14v916l-131 14l4 47l219 -2l672 2l8 -284h-41l-105 225l-426 2v-408l232 3l69 172h41l-8 -203l8 -203h-41l-69 170l-232 2v-457l439 2l112 232h43l-28 -295l-105 2
l-80 -162v-55z" />
    <glyph glyph-name="Eth.sc" horiz-adv-x="1243" 
d="M395 567h207v-51h-207v-455l185 -10q161 -4 262.5 133t101.5 348t-97.5 336t-297.5 121l-154 -8v-414zM197 567v412l-138 14l4 47q49 -2 93 -2h311q63 0 139 2q260 2 406.5 -127t146.5 -364t-142 -383.5t-419 -167.5l-307 4l-228 -4l-4 51l138 14v453h-123v51h123z" />
    <glyph glyph-name="Euro.sc" horiz-adv-x="1165" 
d="M1071 713h-55l-82 202q-74 82 -217 82q-182 0 -240.5 -132t-66.5 -222h481l-37 -65h-451v-27q0 -45 7 -88h374l-39 -66h-327q45 -214 158.5 -259.5t219.5 -45.5t246 80l23 -47q-143 -98 -342 -148q-324 0 -416 155t-108 265h-97v66h93q-2 8 -2 11v46q0 41 4 58h-95v65
h105q35 176 173 280.5t353 141.5q202 0 338 -100v-252z" />
    <glyph glyph-name="Euro.tlf" 
d="M1212 1016h-61l-98 260q-103 127 -283 127q-146 0 -259 -139.5t-136 -386.5h622l-41 -70h-587v-47q0 -70 6 -131h495l-41 -72h-442q53 -316 202.5 -384.5t256.5 -68.5q162 0 330 115l28 -53q-109 -88 -231.5 -134t-188.5 -63q-254 0 -428 150t-211 438h-127v72h119
q-2 16 -2 21v67q0 63 4 90h-121v70h132q87 492 643 591q150 0 255 -43t164 -90v-319z" />
    <glyph glyph-name="Euro.tlf.sc" horiz-adv-x="1271" 
d="M1126 713h-55l-80 202q-74 82 -204 82t-216.5 -90.5t-105.5 -263.5h481l-37 -65h-448v-46q0 -47 4 -69h375l-37 -66h-330q45 -213 160 -259t190 -46q142 0 275 80l24 -47q-143 -98 -344 -148q-322 0 -415 155t-107 265h-96v66h90q-2 8 -2 11v46q0 41 4 58h-92v65h102
q72 345 526 422q202 0 338 -100v-252z" />
    <glyph glyph-name="F.sc" horiz-adv-x="1011" 
d="M72 -2l-4 51l131 14v916l-131 14l4 47l221 -2l670 2l8 -295h-43l-107 236l-422 2v-432l232 4l69 178h41l-8 -209l8 -209h-41l-69 177l-232 4v-433l164 -14l-2 -51l-268 4z" />
    <glyph glyph-name="G.sc" horiz-adv-x="1251" 
d="M76 489q0 382 237.5 471t380.5 105q221 0 385 -86v-266h-53l-84 188q-95 100 -265 100t-275 -126t-105 -340t103 -354t286 -140q133 0 205 59v316l-137 16l4 53l229 -4l195 4l6 -53l-101 -16v-336q-182 -84 -438 -105q-241 0 -407 137.5t-166 376.5z" />
    <glyph glyph-name="Gbreve.002" horiz-adv-x="1501" 
d="M280.5 1231.5q200.5 195.5 555.5 236.5q270 0 479 -133v-307h-62l-96 236q-47 49 -130 93t-203 44q-233 0 -366.5 -183t-133.5 -479q0 -297 138 -499.5t374 -202.5q94 0 165.5 37t108.5 78v438l-174 22l4 47l268 -4l240 4l4 -47l-125 -22v-479q-175 -78 -317.5 -109
t-218.5 -37q-301 0 -506 195.5t-205 535.5t200.5 535.5zM821 1618q47 0 85 14.5t66.5 35t49 44t37.5 41.5l31 -24q-55 -105 -118 -149t-124 -69q-111 0 -184 63.5t-115 154.5l37 24q57 -85 122.5 -110t112.5 -25z" />
    <glyph glyph-name="Gbreve.sc" horiz-adv-x="1251" 
d="M673 1233q118 0 197 96l29 -26q-22 -59 -65.5 -97t-137.5 -76q-166 0 -250 173l33 26q76 -96 194 -96zM76 489q0 382 237.5 471t380.5 105q221 0 385 -86v-266h-53l-84 188q-95 100 -265 100t-275 -126t-105 -340t103 -354t286 -140q133 0 205 59v316l-137 16l4 53
l229 -4l195 4l6 -53l-101 -16v-336q-182 -84 -438 -105q-241 0 -407 137.5t-166 376.5z" />
    <glyph glyph-name="Gcircumflex.002" horiz-adv-x="1501" 
d="M280.5 1231.5q200.5 195.5 555.5 236.5q270 0 479 -133v-307h-62l-96 236q-47 49 -130 93t-203 44q-233 0 -366.5 -183t-133.5 -479q0 -297 138 -499.5t374 -202.5q94 0 165.5 37t108.5 78v438l-174 22l4 47l268 -4l240 4l4 -47l-125 -22v-479q-175 -78 -317.5 -109
t-218.5 -37q-301 0 -506 195.5t-205 535.5t200.5 535.5zM541 1522l235 227h109l235 -227h-73l-203 123l-15 12l-12 -12l-203 -123h-73z" />
    <glyph glyph-name="Gcircumflex.sc" horiz-adv-x="1251" 
d="M438 1145l197 205h96l197 -205h-68l-162 92l-16 20l-12 -20l-164 -92h-68zM76 489q0 382 237.5 471t380.5 105q221 0 385 -86v-266h-53l-84 188q-95 100 -265 100t-275 -126t-105 -340t103 -354t286 -140q133 0 205 59v316l-137 16l4 53l229 -4l195 4l6 -53l-101 -16
v-336q-182 -84 -438 -105q-241 0 -407 137.5t-166 376.5z" />
    <glyph glyph-name="Gcommaaccent.001" horiz-adv-x="1501" 
d="M280.5 1231.5q200.5 195.5 555.5 236.5q270 0 479 -133v-307h-62l-96 236q-47 49 -130 93t-203 44q-233 0 -366.5 -183t-133.5 -479q0 -297 138 -499.5t374 -202.5q94 0 165.5 37t108.5 78v438l-174 22l4 47l268 -4l240 4l4 -47l-125 -22v-479q-175 -78 -317.5 -109
t-218.5 -37q-301 0 -506 195.5t-205 535.5t200.5 535.5zM696 -102h195v-134l-150 -135l-39 17l78 118l-84 52v82z" />
    <glyph glyph-name="Gcommaaccent.sc" horiz-adv-x="1251" 
d="M573 -74h175v-119l-138 -176l-43 9l62 167l-56 54v65zM76 489q0 382 237.5 471t380.5 105q221 0 385 -86v-266h-53l-84 188q-95 100 -265 100t-275 -126t-105 -340t103 -354t286 -140q133 0 205 59v316l-137 16l4 53l227 -4l197 4l6 -53l-101 -16v-336
q-182 -84 -438 -105q-241 0 -407 137.5t-166 376.5z" />
    <glyph glyph-name="Gdotaccent.002" horiz-adv-x="1501" 
d="M280.5 1231.5q200.5 195.5 555.5 236.5q270 0 479 -133v-307h-62l-96 236q-47 49 -130 93t-203 44q-233 0 -366.5 -183t-133.5 -479q0 -297 138 -499.5t374 -202.5q94 0 165.5 37t108.5 78v438l-174 22l4 47l268 -4l240 4l4 -47l-125 -22v-479q-175 -78 -317.5 -109
t-218.5 -37q-301 0 -506 195.5t-205 535.5t200.5 535.5zM756 1741l127 10l49 -10l10 -96l-18 -89l-127 -10l-49 10l-11 103z" />
    <glyph glyph-name="Gdotaccent.sc" horiz-adv-x="1251" 
d="M608 1331l119 8l49 -10l8 -90l-18 -82l-117 -8l-49 8l-8 94zM76 489q0 382 237.5 471t380.5 105q221 0 385 -86v-266h-53l-84 188q-95 100 -265 100t-275 -126t-105 -340t103 -354t286 -140q133 0 205 59v316l-137 16l4 53l229 -4l195 4l6 -53l-101 -16v-336
q-182 -84 -438 -105q-241 0 -407 137.5t-166 376.5z" />
    <glyph glyph-name="H.sc" horiz-adv-x="1286" 
d="M399 573h494v406l-131 14l4 47l225 -2l223 2l5 -47l-129 -14v-916l129 -14l-5 -51l-223 4l-225 -4l-4 51l131 14v445h-494v-445l125 -14l-4 -51l-221 4l-227 -4l-4 51l131 14v916l-131 14l4 47l227 -2l221 2l4 -47l-125 -14v-406z" />
    <glyph glyph-name="Hbar.sc" horiz-adv-x="1286" 
d="M893 573v138h-494v-138h494zM399 756h494v223l-131 14l4 47l225 -2l223 2l5 -47l-129 -14v-916l129 -14l-5 -51l-223 4l-225 -4l-4 51l131 14v445h-494v-445l125 -14l-4 -51l-221 4l-227 -4l-4 51l131 14v916l-131 14l4 47l227 -2l221 2l4 -47l-125 -14v-223z" />
    <glyph glyph-name="Hcircumflex.002" horiz-adv-x="1542" 
d="M451 778h647v592l-172 19l6 47l276 -4l269 4l6 -47l-168 -19v-1304l168 -21l-6 -47l-269 4l-276 -4l-6 47l172 21v645h-647v-645l165 -21l-6 -47l-268 4l-276 -4l-7 47l174 21v1304l-174 19l7 47l276 -4l268 4l6 -47l-165 -19v-592zM483 1522l236 227h108l236 -227h-74
l-203 123l-14 12l-12 -12l-203 -123h-74z" />
    <glyph glyph-name="Hcircumflex.sc" horiz-adv-x="1286" 
d="M399 573h494v406l-131 14l4 47l225 -2l223 2l5 -47l-129 -14v-916l129 -14l-5 -51l-223 4l-225 -4l-4 51l131 14v445h-494v-445l125 -14l-4 -51l-221 4l-227 -4l-4 51l131 14v916l-131 14l4 47l227 -2l221 2l4 -47l-125 -14v-406zM408 1145l194 205h96l197 -205h-68
l-163 92l-17 20l-10 -20l-166 -92h-63z" />
    <glyph glyph-name="I.sc" horiz-adv-x="598" 
d="M299 2l-227 -4l-4 51l133 14v916l-133 14l4 47l227 -2l227 2l4 -47l-131 -14v-916l131 -14l-4 -51z" />
    <glyph glyph-name="IJ.sc" horiz-adv-x="1048" 
d="M297 2l-225 -4l-4 51l133 14v916l-133 14l4 47l227 -2l186 2l7 -47l-93 -14v-916l123 -14l-4 -51zM860 223q0 -188 -123 -321l-153 -162h-127v176h180l8 35q17 53 17 188v840l-105 14l4 47l201 -2l221 2l4 -47l-127 -14v-756z" />
    <glyph glyph-name="Iacute.002" horiz-adv-x="688" 
d="M342 2l-276 -4l-7 49l174 19v1304l-174 19l7 47l276 -4l276 4l5 -47l-172 -19v-1304l172 -19l-5 -49zM272 1528l109 213h205l-238 -213h-76z" />
    <glyph glyph-name="Iacute.sc" horiz-adv-x="598" 
d="M299 2l-227 -4l-4 51l133 14v916l-133 14l4 47l227 -2l227 2l4 -47l-131 -14v-916l131 -14l-4 -51zM264 1145l90 201h185l-209 -201h-66z" />
    <glyph glyph-name="Ibreve.002" horiz-adv-x="688" 
d="M342 2l-276 -4l-7 49l174 19v1304l-174 19l7 47l276 -4l276 4l5 -47l-172 -19v-1304l172 -19l-5 -49zM340 1618q47 0 85 14.5t66.5 35t49 44t37.5 41.5l32 -24q-54 -104 -118 -148.5t-125 -69.5q-111 0 -184 63.5t-115 154.5l36 24q56 -84 122.5 -109.5t113.5 -25.5z" />
    <glyph glyph-name="Ibreve.sc" horiz-adv-x="598" 
d="M299 2l-227 -4l-4 51l133 14v916l-133 14l4 47l227 -2l227 2l4 -47l-131 -14v-916l131 -14l-4 -51zM318 1235q95 0 178 94l30 -26q-29 -60 -67 -96.5t-135 -76.5q-174 0 -252 173l30 26q25 -27 73 -60.5t143 -33.5z" />
    <glyph glyph-name="Icircumflex.002" horiz-adv-x="688" 
d="M342 2l-276 -4l-7 49l174 19v1304l-174 19l7 47l276 -4l276 4l5 -47l-172 -19v-1304l172 -19l-5 -49zM53 1522l236 227h108l238 -227h-76l-201 123l-16 12l-12 -12l-203 -123h-74z" />
    <glyph glyph-name="Icircumflex.sc" horiz-adv-x="598" 
d="M299 2l-227 -4l-4 51l133 14v916l-133 14l4 47l227 -2l227 2l4 -47l-131 -14v-916l131 -14l-4 -51zM55 1145l197 205h96l195 -205h-66l-164 92l-14 20l-12 -20l-166 -92h-66z" />
    <glyph glyph-name="Idieresis.002" horiz-adv-x="688" 
d="M342 2l-276 -4l-7 49l174 19v1304l-174 19l7 47l276 -4l276 4l5 -47l-172 -19v-1304l172 -19l-5 -49zM602 1747l49 -8l8 -92l-16 -82l-117 -9l-47 9l-12 96l20 78zM168 1747l49 -8l10 -92l-20 -82l-115 -9l-47 9l-10 96l18 78z" />
    <glyph glyph-name="Idieresis.sc" horiz-adv-x="598" 
d="M299 2l-227 -4l-4 51l133 14v916l-133 14l4 47l227 -2l227 2l4 -47l-131 -14v-916l131 -14l-4 -51zM502 1321l41 -8l10 -84l-18 -74l-101 -8l-41 8l-8 86l14 72zM168 1321l41 -8l10 -84l-18 -74l-101 -8l-43 8l-6 86l15 72z" />
    <glyph glyph-name="Idotaccent.002" horiz-adv-x="688" 
d="M342 2l-276 -4l-7 49l174 19v1304l-174 19l7 47l276 -4l276 4l5 -47l-172 -19v-1304l172 -19l-5 -49zM258 1741l127 10l49 -10l10 -96l-18 -89l-127 -10l-49 10l-10 103z" />
    <glyph glyph-name="Idotaccent.sc" horiz-adv-x="598" 
d="M299 2l-227 -4l-4 51l133 14v916l-133 14l4 47l227 -2l227 2l4 -47l-131 -14v-916l131 -14l-4 -51zM221 1331l119 8l49 -10l8 -90l-18 -82l-117 -8l-47 8l-10 94z" />
    <glyph glyph-name="Igrave.002" horiz-adv-x="688" 
d="M342 2l-276 -4l-7 49l174 19v1304l-174 19l7 47l276 -4l276 4l5 -47l-172 -19v-1304l172 -19l-5 -49zM358 1528l-239 213h207l106 -213h-74z" />
    <glyph glyph-name="Igrave.sc" horiz-adv-x="598" 
d="M299 2l-227 -4l-4 51l133 14v916l-133 14l4 47l227 -2l227 2l4 -47l-131 -14v-916l131 -14l-4 -51zM303 1145l-207 201h183l88 -201h-64z" />
    <glyph glyph-name="Imacron.002" horiz-adv-x="688" 
d="M342 2l-276 -4l-7 49l174 19v1304l-174 19l7 47l276 -4l276 4l5 -47l-172 -19v-1304l172 -19l-5 -49zM55 1692h578v-86h-578v86z" />
    <glyph glyph-name="Imacron.sc" horiz-adv-x="598" 
d="M299 2l-227 -4l-4 51l133 14v916l-133 14l4 47l227 -2l227 2l4 -47l-131 -14v-916l131 -14l-4 -51zM63 1270h469v-92h-469v92z" />
    <glyph glyph-name="Iogonek.001" horiz-adv-x="681" 
d="M270 -186q0 -144 191 -144v-35q-269 0 -299.5 71t-30.5 118v41l193 137l-258 -4l-7 49l174 19v1304l-174 19l7 47l276 -4l276 4l5 -47l-172 -19v-1304l172 -19l-7 -49l-235 4l-111 -162v-26z" />
    <glyph glyph-name="Iogonek.sc" horiz-adv-x="591" 
d="M260 -217q0 -43 41 -76t129 -33v-41q-164 0 -232.5 37t-68.5 113v78l147 141l-204 -4l-4 51l133 14v916l-133 14l4 47l227 -2l223 2l4 -47l-127 -14v-916l127 -14l-4 -51l-190 4l-72 -164v-55z" />
    <glyph glyph-name="Itilde.002" horiz-adv-x="688" 
d="M344 2l-276 -4l-7 49l175 19v1304l-175 19l7 47l276 -4l277 4l4 -47l-172 -19v-1304l172 -19l-4 -49zM92 1710l137 39l355 -113l71 119h33l-61 -178l-140 -37l-350 115l-71 -121h-35z" />
    <glyph glyph-name="Itilde.sc" horiz-adv-x="598" 
d="M299 2l-227 -4l-4 51l133 14v916l-133 14l4 47l227 -2l227 2l4 -47l-131 -14v-916l131 -14l-4 -51zM84 1311l104 28l301 -92l60 92h29l-43 -176l-105 -24l-305 94l-57 -96h-29z" />
    <glyph glyph-name="J.sc" horiz-adv-x="622" 
d="M434 219q0 -195 -125 -325l-149 -154h-131v178h180l10 33q17 56 17 188v840l-168 14l4 47l262 -2l223 2l4 -47l-127 -14v-760z" />
    <glyph glyph-name="Jcircumflex.002" horiz-adv-x="694" 
d="M479 219q0 -135 -36.5 -220t-96.5 -151l-184 -206h-160v184h223l13 45q18 61 20 153.5t2 165.5v1180l-213 19l4 47l318 -4l272 4l4 -47l-166 -19v-1151zM68 1522l235 227h109l235 -227h-74l-202 123l-15 12l-12 -12l-203 -123h-73z" />
    <glyph glyph-name="Jcircumflex.sc" horiz-adv-x="622" 
d="M74 1145l194 205h94l199 -205h-67l-166 92l-15 20l-12 -20l-164 -92h-63zM422 219q0 -195 -125 -325l-150 -154h-131v178h181l10 33q16 53 16 188v840l-168 14l4 47l263 -2l223 2l4 -47l-127 -14v-760z" />
    <glyph glyph-name="K.sc" horiz-adv-x="1214" 
d="M68 49l131 14v916l-131 14l4 47l227 -2l215 2l4 -47l-119 -14v-428l33 22l490 406l-136 14l5 47l176 -2l161 2l5 -47l-136 -16l-501 -416l100 10l489 -508l93 -14l-4 -51l-158 4l-144 -4l-452 483l-21 43v-461l119 -14l-4 -51l-215 4l-227 -4z" />
    <glyph glyph-name="Kcommaaccent.001" horiz-adv-x="1435" 
d="M1298 63l117 -18l-4 -47l-209 4l-143 -4l-580 680l-28 47v-659l155 -21l-4 -47l-260 4l-276 -4l-7 47l174 21v1304l-174 19l7 47l276 -4l260 4l4 -47l-155 -19v-614l45 32l612 582l-168 19l6 47l213 -4l197 4l6 -47l-166 -23l-631 -602l109 10zM621 -82h194v-133
l-147 -150l-39 17l71 133l-79 51v82z" />
    <glyph glyph-name="Kcommaaccent.sc" horiz-adv-x="1214" 
d="M68 49l131 14v916l-131 14l4 47l227 -2l215 2l4 -47l-119 -14v-428l37 24l486 404l-136 14l5 47l174 -2l163 2l5 -47l-136 -16l-501 -416l100 10l489 -508l93 -14l-4 -51l-156 4l-146 -4l-450 483l-23 43v-461l119 -14l-4 -51l-215 4l-227 -4zM528 -74h174v-119
l-137 -176l-45 9l64 167l-56 54v65z" />
    <glyph glyph-name="L.sc" horiz-adv-x="991" 
d="M297 2l-225 -4l-4 51l131 14v916l-131 14l4 47l223 -2l231 2l2 -47l-129 -14v-918l398 2l121 240h45l-29 -305z" />
    <glyph glyph-name="Lacute.002" horiz-adv-x="1177" 
d="M346 2l-280 -4l-7 47l174 21v1304l-174 19l7 47l276 -4l276 4l5 -47l-172 -19v-1307l514 5l143 319h49l-35 -389zM295 1528l108 213h205l-237 -213h-76z" />
    <glyph glyph-name="Lacute.sc" horiz-adv-x="991" 
d="M295 2l-223 -4l-4 51l131 14v916l-131 14l4 47l223 -2l231 2l2 -47l-129 -14v-918l398 2l121 240h45l-29 -305zM358 1346h185l-209 -201h-64z" />
    <glyph glyph-name="Lcaron.sc" horiz-adv-x="997" 
d="M297 2l-225 -4l-4 51l131 14v916l-131 14l4 47l223 -2l231 2l2 -47l-129 -14v-918l398 2l121 240h45l-29 -305zM743 963l13 84l127 8l51 -8l10 -99l-14 -86l-131 -239l-41 16q4 10 46 102.5t42 114.5l-94 6z" />
    <glyph glyph-name="Lcommaaccent.001" horiz-adv-x="1177" 
d="M346 2l-280 -4l-7 47l174 21v1304l-174 19l7 47l276 -4l276 4l5 -47l-172 -19v-1307l514 5l143 319h49l-35 -389zM537 -88h194v-133l-151 -150l-37 17l71 135l-77 51v80z" />
    <glyph glyph-name="Lcommaaccent.sc" horiz-adv-x="991" 
d="M293 2l-221 -4l-4 51l131 14v916l-131 14l4 47l223 -2l231 2l2 -47l-129 -14v-918l398 2l121 240h45l-29 -305zM461 -74h174v-119l-137 -176l-45 9l65 167l-57 54v65z" />
    <glyph glyph-name="Ldot.sc" horiz-adv-x="991" 
d="M295 2l-223 -4l-4 51l131 14v916l-131 14l4 47l223 -2l231 2l2 -47l-129 -14v-918l398 2l121 240h45l-29 -305zM698 698l47 -10l9 -94l-17 -82l-121 -10l-47 10l-10 96l16 80z" />
    <glyph glyph-name="Lslash.sc" horiz-adv-x="991" 
d="M295 2l-223 -4l-4 51l131 14v416l-125 -59v69l125 58v432l-131 14l4 47l223 -2l231 2l2 -47l-129 -14v-338l162 78v-68l-162 -78v-512l398 2l121 240h45l-29 -305z" />
    <glyph glyph-name="M.sc" horiz-adv-x="1564" 
d="M1153 1040l162 -2l178 2l4 -47l-131 -14v-916l129 -14l-4 -51l-213 4l-229 -4l-5 51l127 14v758l11 133l-404 -960h-106l-361 833l-45 136v-900l129 -14l-6 -51l-156 4l-157 -4l-4 51l125 14v914l-129 16l4 47l161 -2l197 2l340 -755l18 -92z" />
    <glyph glyph-name="N.sc" horiz-adv-x="1236" 
d="M1047 -6h-103l-637 842l-37 108v-881l133 -14l-6 -51l-157 4l-168 -4l-4 51l131 14v914l-127 16l4 47l149 -2l170 2l539 -673l43 -103v715l-131 14l2 47l160 -2l168 2l4 -47l-133 -14v-985z" />
    <glyph glyph-name="Nacute.002" horiz-adv-x="1466" 
d="M1272 -8h-115l-799 1206l-43 113v-1245l172 -21l-6 -47l-200 4l-215 -4l-7 47l174 21v1296l-170 27l7 47l188 -4l191 4l700 -1043l43 -90v1067l-172 19l4 47l201 -4l215 4l6 -47l-174 -19v-1378zM700 1528l107 213h207l-238 -213h-76z" />
    <glyph glyph-name="Nacute.sc" horiz-adv-x="1236" 
d="M584 1145l88 201h184l-209 -201h-63zM1047 -6h-103l-637 842l-37 108v-881l133 -14l-6 -51l-155 4l-170 -4l-4 51l131 14v914l-127 16l4 47l149 -2l170 2l539 -671l43 -105v715l-131 14l2 47l162 -2l166 2l4 -47l-133 -14v-985z" />
    <glyph glyph-name="Ncaron.002" horiz-adv-x="1466" 
d="M1272 -8h-115l-799 1206l-43 113v-1245l172 -21l-6 -47l-200 4l-215 -4l-7 47l174 21v1296l-170 27l7 47l188 -4l191 4l700 -1043l43 -90v1067l-172 19l4 47l201 -4l215 4l6 -47l-174 -19v-1378zM745 1636l15 -12l14 12l201 123h76l-236 -229h-110l-236 229h74z" />
    <glyph glyph-name="Ncaron.sc" horiz-adv-x="1236" 
d="M465 1346l164 -95l12 -18l14 18l166 95h66l-197 -205h-96l-197 205h68zM1047 -6h-103l-637 842l-37 108v-881l133 -14l-6 -51l-155 4l-170 -4l-4 51l131 14v914l-127 16l4 47l149 -2l170 2l539 -671l43 -105v715l-131 14l2 47l162 -2l166 2l4 -47l-133 -14v-985z" />
    <glyph glyph-name="Ncommaaccent.001" horiz-adv-x="1466" 
d="M1272 -8h-115l-799 1206l-43 113v-1245l172 -21l-6 -47l-200 4l-215 -4l-7 47l174 21v1296l-170 27l7 47l188 -4l191 4l700 -1043l43 -90v1067l-172 19l4 47l201 -4l215 4l6 -47l-174 -19v-1378zM647 -82h195v-133l-150 -150l-39 17l72 133l-78 51v82z" />
    <glyph glyph-name="Ncommaaccent.sc" horiz-adv-x="1236" 
d="M543 -74h176v-119l-137 -176l-45 9l63 167l-57 54v65zM1047 -6h-103l-637 842l-37 108v-881l133 -14l-6 -51l-155 4l-170 -4l-4 51l131 14v914l-127 16l4 47l149 -2l170 2l539 -671l43 -105v715l-131 14l2 47l162 -2l166 2l4 -47l-133 -14v-985z" />
    <glyph glyph-name="Ntilde.002" horiz-adv-x="1466" 
d="M1272 -8h-115l-799 1206l-43 113v-1245l172 -21l-6 -47l-200 4l-215 -4l-7 47l174 21v1296l-170 27l7 47l188 -4l191 4l700 -1043l43 -90v1067l-172 19l4 47l201 -4l215 4l6 -47l-174 -19v-1378zM510 1710l137 39l352 -113l72 119h35l-62 -178l-139 -37l-352 115
l-72 -121h-35z" />
    <glyph glyph-name="Ntilde.sc" horiz-adv-x="1236" 
d="M434 1311l105 28l301 -92l57 92h31l-43 -176l-105 -24l-303 94l-57 -96h-31zM1047 -6h-103l-637 842l-37 108v-881l133 -14l-6 -51l-155 4l-170 -4l-4 51l131 14v914l-127 16l4 47l149 -2l170 2l539 -671l43 -105v715l-131 14l2 47l162 -2l166 2l4 -47l-133 -14v-985z
" />
    <glyph glyph-name="O.sc" horiz-adv-x="1304" 
d="M76 505q0 235 143.5 371t448.5 189q248 0 404.5 -147t156.5 -382t-143.5 -371t-450.5 -190q-250 0 -404.5 147.5t-154.5 382.5zM398.5 194q101.5 -147 270.5 -147t254 125.5t85 325.5q0 199 -101.5 348t-271.5 149t-254 -127t-84 -327t101.5 -347z" />
    <glyph glyph-name="OE.sc" horiz-adv-x="1626" 
d="M215 871.5q139 132.5 459 191.5l223 -23h641l8 -274h-39l-106 215l-402 2v-408l203 3l70 172h41l-8 -203l8 -203h-41l-70 170l-203 2v-457l410 2l113 224h43l-29 -287l-688 4l-205 -25q-252 0 -409.5 146t-157.5 381t139 367.5zM408.5 186q113.5 -141 279.5 -141l113 18
v914l-174 20q-157 0 -244.5 -128t-87.5 -335t113.5 -348z" />
    <glyph glyph-name="Oacute.002" horiz-adv-x="1576" 
d="M457.5 251q133.5 -206 355.5 -206t332 178t110 465t-133 495t-354 208t-332.5 -177.5t-111.5 -467.5q0 -289 133.5 -495zM80 688q0 334 178 527.5t553 252.5q305 0 496.5 -205t191.5 -528t-178 -516.5t-553 -253.5q-301 0 -444.5 151.5t-193.5 285t-50 286.5zM707 1528
l106 213h207l-238 -213h-75z" />
    <glyph glyph-name="Oacute.sc" horiz-adv-x="1304" 
d="M602 1145l90 201h182l-206 -201h-66zM394.5 194q101.5 -147 271.5 -147t254 126.5t84 324.5t-101.5 347.5t-271.5 149.5t-254 -127t-84 -327t101.5 -347zM72 505q0 235 143.5 371t448.5 189q250 0 406.5 -147t156.5 -382t-143.5 -371t-452.5 -190q-250 0 -404.5 147.5
t-154.5 382.5z" />
    <glyph glyph-name="Obreve.002" horiz-adv-x="1576" 
d="M457.5 251q133.5 -206 355.5 -206t332 178t110 465t-133 495t-354 208t-332.5 -177.5t-111.5 -467.5q0 -289 133.5 -495zM80 688q0 334 178 527.5t553 252.5q305 0 496.5 -205t191.5 -528t-178 -516.5t-553 -253.5q-301 0 -444.5 151.5t-193.5 285t-50 286.5zM805 1659
q145 0 244 125l34 -27q-38 -73 -90 -126.5t-151 -94.5q-193 0 -301 221l37 25q82 -123 227 -123z" />
    <glyph glyph-name="Obreve.sc" horiz-adv-x="1304" 
d="M641 1237q98 0 144 33t71 59l29 -26q-27 -61 -66.5 -97t-136.5 -76q-164 0 -248 173l31 26q78 -92 176 -92zM72 505q0 235 143.5 371t448.5 189q250 0 406.5 -147t156.5 -382t-143.5 -371t-452.5 -190q-250 0 -404.5 147.5t-154.5 382.5zM394.5 194
q101.5 -147 271.5 -147t254 126.5t84 324.5t-101.5 347.5t-271.5 149.5t-254 -127t-84 -327t101.5 -347z" />
    <glyph glyph-name="Ocircumflex.002" horiz-adv-x="1576" 
d="M457.5 251q133.5 -206 355.5 -206t332 178t110 465t-133 495t-354 208t-332.5 -177.5t-111.5 -467.5q0 -289 133.5 -495zM80 688q0 334 178 527.5t553 252.5q305 0 496.5 -205t191.5 -528t-178 -516.5t-553 -253.5q-301 0 -444.5 151.5t-193.5 285t-50 286.5zM516 1522
l236 227h110l236 -227h-76l-201 123l-14 12l-14 -12l-201 -123h-76z" />
    <glyph glyph-name="Ocircumflex.sc" horiz-adv-x="1304" 
d="M410 1145l196 205h94l199 -205h-68l-163 92l-15 20l-14 -20l-162 -92h-67zM394.5 194q101.5 -147 271.5 -147t254 126.5t84 324.5t-101.5 347.5t-271.5 149.5t-254 -127t-84 -327t101.5 -347zM72 505q0 235 143.5 371t448.5 189q250 0 406.5 -147t156.5 -382t-143.5 -371
t-452.5 -190q-250 0 -404.5 147.5t-154.5 382.5z" />
    <glyph glyph-name="Odieresis.002" horiz-adv-x="1587" 
d="M423 310.5q95 -146.5 189 -206t210 -59.5q217 0 327.5 179t110.5 464t-133.5 494t-354.5 209t-332.5 -177.5t-111.5 -467.5q0 -289 95 -435.5zM84 688q0 334 178 527.5t553 252.5q305 0 496.5 -205t191.5 -528t-178 -516.5t-553 -253.5q-299 0 -443.5 151.5t-194.5 285
t-50 286.5zM1067 1747l47 -8l8 -92l-18 -82l-115 -9l-47 9l-10 96l16 78zM631 1747l49 -8l10 -92l-20 -82l-113 -9l-49 9l-10 96l18 78z" />
    <glyph glyph-name="Odieresis.sc" horiz-adv-x="1304" 
d="M72 505q0 235 143.5 371t448.5 189q250 0 406.5 -147t156.5 -382t-143.5 -371t-452.5 -190q-250 0 -404.5 147.5t-154.5 382.5zM394.5 194q101.5 -147 271.5 -147t254 126.5t84 324.5t-101.5 347.5t-271.5 149.5t-254 -127t-84 -327t101.5 -347zM874 1321l44 -8l10 -84
l-19 -74l-100 -8l-41 8l-8 86l12 72zM510 1321l39 -8l12 -84l-16 -74l-103 -8l-43 8l-8 86l15 72z" />
    <glyph glyph-name="Ograve.002" horiz-adv-x="1576" 
d="M457.5 251q133.5 -206 355.5 -206t332 178t110 465t-133 495t-354 208t-332.5 -177.5t-111.5 -467.5q0 -289 133.5 -495zM80 688q0 334 178 527.5t553 252.5q305 0 496.5 -205t191.5 -528t-178 -516.5t-553 -253.5q-301 0 -444.5 151.5t-193.5 285t-50 286.5zM786 1546
l-235 246h205l108 -246h-78z" />
    <glyph glyph-name="Ograve.sc" horiz-adv-x="1304" 
d="M645 1145l-209 201h185l90 -201h-66zM72 505q0 235 143.5 371t448.5 189q250 0 406.5 -147t156.5 -382t-143.5 -371t-452.5 -190q-250 0 -404.5 147.5t-154.5 382.5zM394.5 194q101.5 -147 271.5 -147t254 126.5t84 324.5t-101.5 347.5t-271.5 149.5t-254 -127t-84 -327
t101.5 -347z" />
    <glyph glyph-name="Ohungarumlaut.002" horiz-adv-x="1576" 
d="M457.5 251q133.5 -206 355.5 -206t332 178t110 465t-133 495t-354 208t-332.5 -177.5t-111.5 -467.5q0 -289 133.5 -495zM80 688q0 334 178 527.5t553 252.5q305 0 496.5 -205t191.5 -528t-178 -516.5t-553 -253.5q-301 0 -444.5 151.5t-193.5 285t-50 286.5zM893 1538
l129 203h217l-270 -203h-76zM561 1538l129 203h217l-270 -203h-76z" />
    <glyph glyph-name="Ohungarumlaut.sc" horiz-adv-x="1304" 
d="M758 1145l100 201h193l-230 -201h-63zM485 1145l103 201h192l-229 -201h-66zM72 505q0 235 143.5 371t448.5 189q250 0 406.5 -147t156.5 -382t-143.5 -371t-452.5 -190q-250 0 -404.5 147.5t-154.5 382.5zM394.5 194q101.5 -147 271.5 -147t254 126.5t84 324.5
t-101.5 347.5t-271.5 149.5t-254 -127t-84 -327t101.5 -347z" />
    <glyph glyph-name="Omacron.002" horiz-adv-x="1576" 
d="M457.5 251q133.5 -206 355.5 -206t332 178t110 465t-133 495t-354 208t-332.5 -177.5t-111.5 -467.5q0 -289 133.5 -495zM80 688q0 334 178 527.5t553 252.5q305 0 496.5 -205t191.5 -528t-178 -516.5t-553 -253.5q-301 0 -444.5 151.5t-193.5 285t-50 286.5zM516 1692
h578v-86h-578v86z" />
    <glyph glyph-name="Omacron.sc" horiz-adv-x="1304" 
d="M412 1270h471v-92h-471v92zM394.5 194q101.5 -147 271.5 -147t254 126.5t84 324.5t-101.5 347.5t-271.5 149.5t-254 -127t-84 -327t101.5 -347zM72 505q0 235 143.5 371t448.5 189q250 0 406.5 -147t156.5 -382t-143.5 -371t-452.5 -190q-250 0 -404.5 147.5
t-154.5 382.5z" />
    <glyph glyph-name="Oslash.sc" horiz-adv-x="1304" 
d="M397 190q106 -143 273 -143t250.5 126.5t83.5 306.5t-72 315zM905 842q-107 153 -276 153q-168 0 -252 -127t-84 -315t76 -320zM72 495q0 245 143 381t449 189q199 0 348 -100l88 98h69l-114 -131q172 -147 172 -389t-143.5 -378t-452.5 -190q-197 0 -338 95l-82 -93h-70
l109 123q-178 150 -178 395z" />
    <glyph glyph-name="Oslashacute.002" horiz-adv-x="1576" 
d="M711 1528l104 213h207l-238 -213h-73zM463 244q136 -199 354 -199t328 178t110 444t-100 457zM1120 1182q-137 209 -355 209t-329.5 -177.5t-111.5 -450.5q0 -272 102 -460zM1499 748q0 -336 -178 -529.5t-553 -253.5q-239 0 -418 135l-102 -131h-84l137 174
q-104 98 -162.5 237.5t-58.5 307.5q0 334 178 527.5t553 252.5q246 0 424 -141l108 137h78l-139 -178q102 -98 159.5 -235.5t57.5 -302.5z" />
    <glyph glyph-name="Oslashacute.sc" horiz-adv-x="1304" 
d="M602 1145l90 201h182l-206 -201h-66zM397 190q106 -143 273 -143t250.5 126.5t83.5 306.5t-72 315zM905 842q-107 153 -276 153q-168 0 -252 -127t-84 -315t76 -320zM72 495q0 245 143 381t449 189q199 0 348 -100l88 98h69l-114 -131q172 -147 172 -389t-143.5 -378
t-452.5 -190q-197 0 -338 95l-82 -93h-70l109 123q-178 150 -178 395z" />
    <glyph glyph-name="Otilde.002" horiz-adv-x="1576" 
d="M457.5 251q133.5 -206 355.5 -206t332 178t110 465t-133 495t-354 208t-332.5 -177.5t-111.5 -467.5q0 -289 133.5 -495zM80 688q0 334 178 527.5t553 252.5q305 0 496.5 -205t191.5 -528t-178 -516.5t-553 -253.5q-301 0 -444.5 151.5t-193.5 285t-50 286.5zM549 1710
l139 39l350 -113l74 119h33l-62 -178l-137 -37l-354 115l-72 -121h-33z" />
    <glyph glyph-name="Otilde.sc" horiz-adv-x="1304" 
d="M446 1311l105 28l303 -92l57 92h31l-45 -176l-104 -24l-306 94l-55 -96h-31zM72 505q0 235 143.5 371t448.5 189q250 0 406.5 -147t156.5 -382t-143.5 -371t-452.5 -190q-250 0 -404.5 147.5t-154.5 382.5zM394.5 194q101.5 -147 271.5 -147t254 126.5t84 324.5
t-101.5 347.5t-271.5 149.5t-254 -127t-84 -327t101.5 -347z" />
    <glyph glyph-name="P.sc" horiz-adv-x="1019" 
d="M399 514h123q109 0 176.5 67t67.5 175t-55.5 171.5t-173.5 63.5l-138 -10v-467zM979 773q0 -130 -108.5 -199.5t-305.5 -118.5h-166v-392l162 -14l-4 -51l-260 4l-225 -4l-4 51l131 14v916l-131 14l4 47l227 -2l326 2q244 0 299 -98t55 -169z" />
    <glyph glyph-name="Q.sc" horiz-adv-x="1304" 
d="M1008 498q0 199 -101.5 348t-271.5 149t-254 -127t-84 -327t101.5 -347t273.5 -147q166 0 251 126t85 325zM76 504q0 236 143.5 372t448.5 189q248 0 404.5 -147t156.5 -376q0 -228 -128 -362.5t-401 -191.5l199 -35l195 -131l88 -21l-6 -49h-261l-282 223
q-245 0 -401 146.5t-156 382.5z" />
    <glyph glyph-name="R.sc" horiz-adv-x="1150" 
d="M399 541h95q127 0 197.5 62.5t70.5 169t-63.5 162.5t-157.5 56l-142 -10v-440zM975 786q0 -116 -106.5 -186.5t-288.5 -97.5l184 -62l276 -374l80 -17l-2 -51l-151 4l-127 -4l-322 467l-14 18h-105v-420l123 -14l-4 -51l-221 4l-225 -4l-4 51l131 14v916l-131 14l4 47
l225 -2l324 2q241 0 297.5 -95t56.5 -159z" />
    <glyph glyph-name="Racute.002" horiz-adv-x="1366" 
d="M451 729h129q168 0 261 93t93 243t-82 231.5t-211 85.5l-190 -14v-639zM1171 1079q0 -308 -483 -399l203 -70l358 -544l107 -23l-4 -45l-181 4l-141 -4l-409 643l-25 29h-145v-604l161 -21l-4 -47l-266 4l-276 -4l-7 47l174 21v1304l-174 19l7 47l274 -4l383 4
q306 0 377 -131t71 -226zM537 1528l106 213h207l-238 -213h-75z" />
    <glyph glyph-name="Racute.sc" horiz-adv-x="1150" 
d="M502 1145l88 201h184l-207 -201h-65zM975 786q0 -116 -106.5 -186.5t-288.5 -97.5l184 -62l276 -374l80 -17l-2 -51l-151 4l-127 -4l-320 467l-16 18h-105v-420l123 -14l-4 -51l-221 4l-225 -4l-4 51l131 14v916l-131 14l4 47l227 -2l322 2q241 0 297.5 -95t56.5 -159z
M399 541h95q127 0 197.5 62.5t70.5 169t-63.5 162.5t-157.5 56l-142 -10v-440z" />
    <glyph glyph-name="Rcaron.002" horiz-adv-x="1366" 
d="M451 729h129q168 0 261 93t93 243t-82 231.5t-211 85.5l-190 -14v-639zM1171 1079q0 -308 -483 -399l203 -70l358 -544l107 -23l-4 -45l-181 4l-141 -4l-409 643l-25 29h-145v-604l161 -21l-4 -47l-266 4l-276 -4l-7 47l174 21v1304l-174 19l7 47l274 -4l383 4
q306 0 377 -131t71 -226zM614 1636l13 -12l14 12l203 123h74l-236 -229h-109l-235 229h74z" />
    <glyph glyph-name="Rcaron.sc" horiz-adv-x="1150" 
d="M362 1346l166 -95l13 -18l14 18l164 95h65l-194 -205h-98l-195 205h65zM399 541h95q127 0 197.5 62.5t70.5 169t-63.5 162.5t-157.5 56l-142 -10v-440zM975 786q0 -116 -106.5 -186.5t-288.5 -97.5l184 -62l276 -374l80 -17l-2 -51l-155 4l-123 -4l-316 461l-20 24h-105
v-420l123 -14l-4 -51l-221 4l-225 -4l-4 51l131 14v916l-131 14l4 47l227 -2l322 2q241 0 297.5 -95t56.5 -159z" />
    <glyph glyph-name="Rcommaaccent.001" horiz-adv-x="1366" 
d="M451 729h129q168 0 261 93t93 243t-82 231.5t-211 85.5l-190 -14v-639zM1171 1079q0 -308 -483 -399l203 -70l358 -544l107 -23l-4 -45l-181 4l-141 -4l-409 643l-25 29h-145v-604l161 -21l-4 -47l-266 4l-276 -4l-7 47l174 21v1304l-174 19l7 47l274 -4l383 4
q306 0 377 -131t71 -226zM598 -82h197v-133l-152 -150l-39 17l74 133l-80 51v82z" />
    <glyph glyph-name="Rcommaaccent.sc" horiz-adv-x="1150" 
d="M520 -74h174v-119l-139 -176l-43 9l63 167l-55 54v65zM975 786q0 -116 -106.5 -186.5t-288.5 -97.5l184 -62l276 -374l80 -17l-2 -51l-151 4l-127 -4l-320 467l-16 18h-105v-420l123 -14l-4 -51l-221 4l-225 -4l-4 51l131 14v916l-131 14l4 47l229 -2l320 2
q241 0 297.5 -95t56.5 -159zM399 541h95q127 0 197.5 62.5t70.5 169t-63.5 162.5t-157.5 56l-142 -10v-440z" />
    <glyph glyph-name="S.sc" horiz-adv-x="937" 
d="M811 739h-53l-72 176q-96 86 -194 86q-99 0 -150 -40.5t-51 -100.5t41 -95.5t106 -70.5l213 -116q111 -59 159 -119.5t48 -134.5q0 -141 -98 -222.5t-316 -128.5q-184 0 -344 97l-18 260h72l69 -160q116 -121 262 -121q88 0 138.5 42.5t50.5 110.5t-40 110t-120 83
l-213 117q-88 47 -140 101.5t-52 148.5q-4 223 387 303q178 0 315 -70v-256z" />
    <glyph glyph-name="Sacute.002" horiz-adv-x="1118" 
d="M840 304q0 107 -55.5 176t-166.5 124l-247 129q-125 64 -188.5 137.5t-63.5 194.5q0 160 126 261t347 142q211 0 381 -100v-305h-62l-84 223q-107 107 -242 107t-205.5 -62.5t-70.5 -160.5t55.5 -155t147.5 -104l240 -123q125 -66 201.5 -150.5t76.5 -221.5
q0 -333 -504 -451q-137 0 -235 35t-185 94l-22 309h82l84 -202q126 -150 328 -150q112 0 187 73t75 180zM496 1528l106 213h205l-236 -213h-75z" />
    <glyph glyph-name="Sacute.sc" horiz-adv-x="937" 
d="M465 1145l90 201h182l-207 -201h-65zM811 739h-53l-72 176q-96 86 -194 86q-99 0 -150 -40.5t-51 -100.5t41 -95.5t106 -70.5l213 -116q111 -59 159 -119.5t48 -134.5q0 -141 -98 -222.5t-316 -128.5q-184 0 -344 97l-18 260h72l69 -160q116 -121 262 -121
q88 0 138.5 42.5t50.5 110.5t-40 110t-120 83l-213 117q-88 47 -140 101.5t-52 148.5q-4 223 387 303q178 0 315 -70v-256z" />
    <glyph glyph-name="Scaron.002" horiz-adv-x="1118" 
d="M840 304q0 107 -55.5 176t-166.5 124l-247 129q-125 64 -188.5 137.5t-63.5 194.5q0 160 126 261t347 142q211 0 381 -100v-305h-62l-84 223q-107 107 -242 107t-205.5 -62.5t-70.5 -160.5t55.5 -155t147.5 -104l240 -123q125 -66 201.5 -150.5t76.5 -221.5
q0 -333 -504 -451q-137 0 -235 35t-185 94l-22 309h82l84 -202q126 -150 328 -150q112 0 187 73t75 180zM580 1636l12 -12l14 12l203 123h74l-236 -229h-108l-236 229h74z" />
    </font>
</defs>
</svg>
