<svg xmlns="http://www.w3.org/2000/svg">
<defs>
<font id="d056d92e6dd8ae2771bbfd9affde0eac" horiz-adv-x='1024' >
  <font-face 
    font-family="GTSectraFine-Book"
    font-weight="300"
    font-stretch="normal"
    units-per-em="2048"
    panose-1="2 0 5 3 7 0 0 2 0 3"
    ascent="1536"
    descent="-512"
    x-height="954"
    cap-height="1436"
    bbox="-328 -508 4153 1976"
    underline-thickness="102"
    underline-position="-102"
    unicode-range="U+000D-FB04"
  />
<missing-glyph horiz-adv-x="1280" 
d="M1083 791h11l10 14v14l-21 -8v-20zM944 1085l-16 -8v-18l16 -6l4 14zM786 1315l-16 -19v-39l25 -12l6 35zM377 1020l121 24l-9 25zM657 1065l-8 -25l101 -34l6 8zM895 735v-26l90 8l8 18h-98zM586 512h139v12l-139 8v-20zM745 639h-149v-21h149v21zM360 416l-151 102
l41 -47l102 -84zM745 575l-147 15l-12 -27l159 -8v20zM438 930l2 8l29 4l-27 12l4 15l-40 -2l6 -39l28 -31l25 -12l22 10l33 25l12 24l5 27l-45 -8l12 -21l-25 -27l-28 -2zM1145 639l-12 -6l-68 -55l80 -99v160zM688 932l-14 -23h-25l-10 15l23 16l-31 4v12l-47 9l6 -35
l16 -29l41 -18l27 -2l37 20l12 19l10 41l-61 4l14 -11zM825 688l9 62l-111 10l-6 -72h108zM815 1198l10 -12l39 22l17 -4l12 -49h27l12 12l-19 37l35 58l-30 18v10l-52 15v-41l-26 -11v-18l-19 -12zM1012 639l32 -25l17 4l41 31l26 27l23 37l-14 10h-29l-21 6l-28 14l-35 -6
q-4 -27 -7 -46q-3 -18 -5 -52zM717 438l-131 8v-104l131 -12v108zM360 678l-135 80v-15l-4 -26l2 -55v-99l131 -90l-2 123zM985 678l-111 2l-2 -49v-13l-4 -63l39 -6l-16 -125l-98 6l-17 -12l105 -10l-4 -19h-101l-8 -10l109 -14l-13 -72l56 -2l24 162l8 73l-30 6l-2 17
l41 2l10 6l-58 33l5 10l61 -12l-61 30l10 11l43 -11l8 21zM133 831h-43l39 -28l2 -23l-41 15l37 -37l-8 -15l6 -198l22 -25v369l117 -66l15 21l-140 78v36l121 -69l88 -58l58 -28l6 20l-211 131l-27 15l-84 67l4 -159l39 -35v-11zM1200 952l-16 76l-39 102l-41 74l-47 58
l-70 43h-22l34 -39l52 -21l22 -22l6 -68l-51 27l-31 -60l25 -16v-39l31 6l-25 53l31 -10l20 -41l-10 -24l-16 -15h-47l-7 23l-24 4l2 -45h-29l29 -37l-14 -20l-43 10l-7 -56l84 13l17 35l45 -5l12 -57l-33 -27v-30l17 -13l37 25h47l12 23l-37 12l-10 18l18 86h15l28 -41z

<glyph glyph-name="ff" unicode="ff" horiz-adv-x="1263" 
d="M213 891h-160v24l29 33h131v2q0 102 26.5 167t77.5 120l168 188h314l-125 -145h-240l-22 -37q-28 -57 -31.5 -119.5t-3.5 -115.5v-64h434v27q0 104 21.5 166.5t70.5 115.5l178 201h234v-145h-285l-24 -37q-26 -59 -29.5 -124t-3.5 -120v-84h254v-53h-254v-838l235 -12
l-6 -43l-295 4l-211 -4l-4 41l119 14v838h-434v-838l201 -12l-7 -43l-260 4l-237 -4l-4 41l143 14v838z" />
    <glyph glyph-name="fi" unicode="fi" horiz-adv-x="1153" 
d="M377 891v-838l190 -12l-6 -43l-250 4l-237 -4l-4 41l143 14v838h-160v24l29 33h131v23q0 181 94 282l178 201h486v-186h-31l-145 41h-359l-24 -37q-28 -50 -31.5 -119.5t-3.5 -124.5v-84h397l133 19l56 4v-914l149 -14l-6 -41l-223 4l-197 -4l-6 43l119 12v781l6 63
l-70 -6h-358z" />
    <glyph glyph-name="fl" unicode="fl" horiz-adv-x="1165" 
d="M811 944v385l-106 -20h-269l-24 -37q-28 -50 -31.5 -119.5t-3.5 -124.5v-84h434zM213 891h-160v24l29 33h131v23q0 181 94 282l178 201h289l137 4h62v-1405l149 -14l-4 -41l-221 4l-213 -4l-4 41l131 14v838h-434v-838l201 -12l-7 -43l-260 4l-235 -4l-6 41l143 14v838z
" />
    <glyph glyph-name="ffi" unicode="ffi" horiz-adv-x="1748" 
d="M811 891h-434v-838l201 -12l-7 -43l-262 4l-235 -4l-4 41l143 14v838h-160v24l29 33h131v2q0 102 26.5 167t77.5 120l168 188h314l-125 -145h-240l-22 -37q-28 -57 -31.5 -119.5t-3.5 -115.5v-64h434v27q0 104 21.5 166.5t70.5 115.5l178 201h486v-186h-31l-145 41h-359
l-26 -37q-26 -59 -29.5 -124t-3.5 -120v-84h395l135 19l56 4v-914l149 -14l-6 -41l-219 4l-203 -4l-4 43l119 12v754l4 90l-82 -6h-344v-838l190 -12l-6 -43l-250 4l-237 -4l-4 41l145 14v838z" />
    <glyph glyph-name="ffl" unicode="ffl" horiz-adv-x="1761" 
d="M1405 944v385l-119 -20h-254l-26 -37q-26 -59 -29.5 -124t-3.5 -120v-84h432zM213 891h-160v24l29 33h131v2q0 102 26.5 167t77.5 120l168 188h314l-123 -145h-242l-22 -37q-28 -57 -31.5 -119.5t-3.5 -115.5v-64h434v27q0 104 21.5 166.5t70.5 115.5l178 201h260l162 4
h66v-1405l149 -14l-6 -41l-219 4l-213 -4l-6 41l131 14v838h-432v-838l201 -12l-7 -43l-258 4l-213 -4l-4 41l119 14v838h-434v-838l201 -12l-7 -43l-262 4l-235 -4l-4 41l143 14v838z" />
    <glyph glyph-name="Th" unicode="Th" horiz-adv-x="2134" 
d="M1776 682q0 172 -130 172q-60 0 -112.5 -26.5t-118.5 -67.5l-74 -43v-662l113 -16l-6 -41l-186 4l-209 -4l-6 41l131 16v1323l-33 -4l-451 2v-1317l213 -20l-6 -41l-299 4l-307 -4l-4 41l219 20v1317l-322 -2l-114 -311h-43v373l571 -2l528 2l177 28l34 -2v-690l334 213
q150 0 207 -69t57 -242v-619l160 -16l-4 -41l-237 4l-181 -4l-6 41l105 16v627z" />
    <glyph glyph-name="fb" unicode="fb" horiz-adv-x="1722" 
d="M1464 471q0 266 -90 324.5t-142 58.5q-92 0 -202 -82l-61 -43v-602q70 -92 203 -92t212.5 119.5t79.5 316.5zM377 1022v-78h252v-53h-252v-836l233 -12l-4 -45l-299 4l-233 -4l-4 41l143 16v836h-160v24l29 33h131v23q0 181 94 282l178 201h252l203 4h29v-670l282 197
q167 0 278 -122.5t111 -330.5q0 -383 -195.5 -464t-301.5 -99q-169 0 -238 35t-100 51v1274l-57 -20h-314l-24 -41q-26 -52 -29.5 -121.5t-3.5 -124.5z" />
    <glyph glyph-name="ffb" unicode="ffb" horiz-adv-x="2318" 
d="M2060 471q0 266 -90 324.5t-142 58.5q-90 0 -204 -82l-59 -43v-602q68 -92 202 -92t213.5 119.5t79.5 316.5zM811 971q0 104 21.5 166.5t70.5 115.5l178 201h252l203 4h29v-670l282 197q163 0 275 -122.5t112 -330.5q0 -260 -130.5 -390.5t-366.5 -172.5q-163 0 -234 35
t-102 51v1274l-58 -20h-313l-24 -41q-33 -53 -33 -246v-78h250v-53h-250v-836l235 -12l-6 -45l-301 4l-207 -4l-4 41l121 14v838h-434v-838l201 -12l-7 -43l-264 4l-233 -4l-4 41l143 14v838h-160v24l29 33h131v2q0 102 26.5 167t77.5 120l168 188h314l-125 -145h-240
l-22 -37q-28 -57 -31.5 -119.5t-3.5 -115.5v-64h434v27z" />
    <glyph glyph-name="ffh" unicode="ffh" horiz-adv-x="2361" 
d="M2003 682q0 172 -129 172q-59 0 -112.5 -26.5t-119.5 -67.5l-73 -43v-662l112 -16l-4 -41l-188 4l-209 -4l-6 41l131 16v1274l-57 -20h-318l-24 -41q-33 -53 -33 -246v-78h250v-53h-250v-836l203 -12l-7 -45l-266 4l-209 -4l-4 41l121 14v838h-434v-838l201 -12l-7 -43
l-266 4l-231 -4l-4 41l143 14v838h-160v24l29 33h131v2q0 102 26.5 167t77.5 120l168 188h314l-125 -145h-240l-22 -37q-28 -57 -31.5 -119.5t-3.5 -115.5v-64h434v27q0 104 21.5 166.5t70.5 115.5l178 201h260l199 4h29v-686l334 213q147 0 204 -70q60 -67 60 -243v-617
l160 -16l-5 -41l-233 4l-184 -4l-7 41l105 16v627z" />
    <glyph glyph-name="ffj" unicode="ffj" horiz-adv-x="1640" 
d="M1137 -483v159h209l14 37q29 78 29 213v932l6 39l-35 -6h-387v-838l203 -12l-5 -43l-274 4l-203 -4l-6 41l121 14v838h-432v-838l201 -12l-7 -43l-264 4l-233 -4l-4 41l143 14v838h-160v24l29 33h131v2q0 102 26.5 167t77.5 120l168 188h314l-125 -145h-240l-22 -37
q-28 -57 -31.5 -119.5t-3.5 -115.5v-64h432v27q0 181 94 282l178 201h482v-186h-33l-144 41h-354l-26 -37q-26 -59 -29.5 -124t-3.5 -120v-84h391l133 19l55 4v-1006q0 -72 -17 -121t-65 -106l-182 -217h-151z" />
    <glyph glyph-name="ffk" unicode="ffk" horiz-adv-x="2273" 
d="M213 891h-160v24l29 33h131v2q0 102 26.5 167t77.5 120l168 188h314l-125 -145h-240l-22 -37q-28 -57 -31.5 -119.5t-3.5 -115.5v-64h432v27q0 181 94 282l178 201h258l230 4v-913l26 10l402 344l-94 16v39l168 -2l143 2l4 -39l-121 -16l-432 -354h84l420 -492l94 -14
l-4 -41l-162 4l-117 -4l-403 498l-8 20v-461l129 -16l-6 -41l-199 4l-227 -4l-4 41l143 16v1274l-59 -20h-316l-26 -41q-31 -62 -31 -246v-78h250v-53h-250v-836l201 -12l-7 -45l-264 4l-231 -4l-6 41l143 16v836h-432v-838l201 -12l-7 -43l-264 4l-233 -4l-4 41l143 14v838
z" />
    <glyph glyph-name="fh" unicode="fh" horiz-adv-x="1765" 
d="M1407 682q0 172 -129 172q-59 0 -112.5 -26.5t-118.5 -67.5l-74 -43v-662l112 -16l-4 -41l-184 4l-213 -4l-4 41l131 16v1274l-59 -20h-318l-24 -41q-26 -52 -29.5 -121.5t-3.5 -124.5v-78h252v-53h-252v-836l201 -12l-5 -45l-266 4l-233 -4l-4 41l143 16v836h-160v24
l29 33h131v23q0 181 94 282l178 201h260l199 4h29v-686l336 213q143 0 203 -68t59 -239v-623l162 -16l-7 -41l-233 4l-184 -4l-6 41l104 16v627z" />
    <glyph glyph-name="fj" unicode="fj" horiz-adv-x="1089" 
d="M795 -74v932l4 39l-35 -6h-387v-836l203 -12l-5 -45l-274 4l-227 -4l-4 41l143 16v836h-160v24l29 33h131v23q0 181 94 282l178 201h482v-186h-33l-143 41h-355l-24 -37q-28 -50 -31.5 -119.5t-3.5 -124.5v-84h391l135 19l53 4v-1006q0 -72 -17 -121t-65 -106l-180 -217
h-151v159h207l14 37q31 84 31 213z" />
    <glyph glyph-name="fk" unicode="fk" horiz-adv-x="1679" 
d="M377 1022v-78h252v-53h-252v-836l201 -12l-7 -45l-264 4l-233 -4l-4 41l143 16v836h-160v24l29 33h131v23q0 181 94 282l178 201h260l228 6v-915l26 10l404 344l-94 16v39l164 -2l147 2l4 -39l-121 -16l-434 -354h86l420 -492l94 -14l-4 -41l-162 4l-119 -4l-401 498
l-10 20v-461l129 -16l-4 -41l-201 4l-225 -4l-4 41l143 16v1274l-59 -20h-318l-24 -41q-26 -52 -29.5 -121.5t-3.5 -124.5z" />
    <glyph glyph-name="ft" unicode="ft" horiz-adv-x="1318" 
d="M1083 96q75 0 185 56l20 -37l-260 -146q-147 0 -186 59t-39 197v666h-426v-836l221 -12l-6 -45l-279 4l-239 -4l-4 41l143 16v836h-160v24l29 33h131v27q0 99 21 158t73 120l178 201h342l-139 -145h-254l-24 -41q-26 -52 -29.5 -121.5t-3.5 -124.5v-78h430v152l139 110
h19v-266h309v-51h-307v-662q0 -131 116 -131z" />
    <glyph glyph-name="fu" unicode="fu" horiz-adv-x="1732" 
d="M1540 262q0 -105 27 -186l110 6l4 -39l-256 -51l-45 180l-325 -203q-156 0 -213 66q-58 62 -58 229v590l2 41l-32 -4h-377v-836l233 -12l-4 -45l-295 4l-237 -4l-4 41l143 16v836h-160v24l29 33h131v23q0 181 94 282l178 201h234v-145h-285l-24 -41q-26 -52 -29.5 -121.5
t-3.5 -124.5v-78h381l190 19v-695q0 -172 139 -172q53 0 105.5 27t112.5 67l71 43v644l-135 -15l-6 45l254 51l51 5v-701z" />
    <glyph glyph-name="fy" unicode="fy" horiz-adv-x="1648" 
d="M737 -481v176h183l208 356l-98 -43l-344 895h-309v-848l233 -12l-4 -45l-291 4l-241 -4l-4 41l143 16v838h-160v25l29 34h131v21q0 99 21.5 160t72.5 120l178 201h234v-145h-285l-24 -41q-26 -52 -29.5 -121.5t-3.5 -122.5v-70h618l6 -39l-131 -16l269 -719l6 -65
l276 784l-118 16l6 39l168 -2l155 2l6 -39l-131 -16l-317 -848l-240 -532h-213z" />
    <glyph glyph-name="gg" unicode="gg" horiz-adv-x="1953" 
d="M1602 625q0 186 -76 240.5t-152 54.5t-124 -64.5t-48 -177.5q0 -179 77 -231t153 -52t123 60.5t47 169.5zM666 625q0 188 -77 241.5t-153 53.5t-123 -64.5t-47 -177.5q0 -178 76 -230.5t152 -52.5t124 60.5t48 169.5zM199 -215q0 -88 66.5 -141.5t187.5 -53.5t217 78.5
t96 186.5q0 125 -188 125h-267q-112 -107 -112 -195zM1171 -213q0 -90 71 -143.5t194 -53.5t217 79t94 186q0 125 -193 125h-286q-97 -103 -97 -193zM836 692q0 -265 -383 -362q-57 0 -101 12l-108 -117q0 -53 30.5 -77.5t77.5 -24.5h332q117 0 174 -57.5t57 -131.5
q0 -137 -132.5 -251t-346.5 -181q-205 0 -300 65.5t-95 207.5v37l227 176q-142 41 -154 106.5t-12 98.5v14l203 147q-94 33 -151.5 102.5t-57.5 181.5t89 202t292 143q104 0 188.5 -40t127.5 -109l108 149h74l8 -170h-131l-37 -25q21 -48 21 -96zM1290 123h371
q119 0 176 -57.5t57 -131.5q0 -137 -130.5 -251t-342.5 -181q-211 0 -308 65.5t-97 207.5v37l211 176q-165 40 -175 106t-10 99v14l201 147q-96 31 -153.5 100.5t-57.5 182.5t90 203t293 143q104 0 187.5 -40t126.5 -109l114 149h101v-170h-150l-43 -25q20 -43 21 -96
q0 -127 -89.5 -218t-291.5 -144q-44 0 -101 10l-106 -115q0 -102 106 -102z" />
    <glyph glyph-name="ky" unicode="ky" horiz-adv-x="1986" 
d="M1077 -481v176h180l209 356l-98 -43l-340 891l-123 -4l-434 -350h86l420 -490l94 -16l-4 -41l-156 2l-123 -2l-403 498l-10 22v-463l129 -16l-6 -41l-199 4l-225 -4l-6 41l143 16v1313l-141 -16l-9 41l258 65l56 4v-919l26 12l404 342l-94 18v39h624l4 -39l-131 -16
l269 -719l8 -65l276 784l-119 16l5 39l172 -2l151 2l6 -39l-131 -16l-321 -848l-236 -532h-211z" />
    <glyph glyph-name="tt" unicode="tt" horiz-adv-x="1318" 
d="M1085 96q75 0 185 56l20 -37l-260 -146q-147 0 -186 59t-39 197v664h-451v-666q0 -127 109 -127q70 0 180 56l21 -37l-246 -146q-149 0 -188.5 60t-39.5 196v664h-180v26l35 35h150v146l139 110h18v-266h455v156l139 110h21v-266h333v-51h-331v-662q0 -131 116 -131z" />
    <glyph glyph-name="ty" unicode="ty" horiz-adv-x="1597" 
d="M471 96q83 0 180 54l19 -39l-252 -142q-149 0 -188.5 60t-39.5 196v664h-180v24l35 35h150v148l139 110h18v-252h592l6 -39l-131 -16l268 -719l7 -65l276 784l-119 16l6 39l168 -2l156 2l6 -39l-131 -16l-321 -848l-236 -532h-213v176h182l207 356l-96 -43l-344 895h-281
v-676q0 -131 117 -131z" />
    <glyph glyph-name="www" unicode="www" horiz-adv-x="4163" 
d="M3328 635l-6 67l-234 -667l-145 -66l-244 684l2 60l-233 -678l-146 -66l-235 666l-4 67l-236 -667l-143 -66l-244 684l2 60l-233 -678l-146 -66l-235 666l-4 67l-236 -667l-143 -66l-330 930l-125 16l6 39l211 -2l197 2l6 -39l-119 -16l250 -737l8 -53l232 667l-45 123
l-101 16l7 39l186 -2l196 2l5 -39l-119 -16l250 -737l8 -53l231 667l-43 123l-127 16l6 39l211 -2l199 2l4 -39l-119 -16l250 -737l8 -53l232 667l-45 123l-101 16l7 39l186 -2l197 2l6 -39l-121 -16l252 -737l8 -53l229 667l-43 123l-125 16l7 39l210 -2l197 2l4 -39
l-119 -16l252 -737l8 -53l230 667l-45 123l-101 16l7 39l186 -2l197 2l6 -39l-119 -16l250 -737l8 -53l270 790l-121 16l5 39l149 -2l176 2l6 -39l-129 -16l-317 -864l-143 -66z" />
    <glyph glyph-name=".notdef" horiz-adv-x="1280" 
d="M1083 791h11l10 14v14l-21 -8v-20zM944 1085l-16 -8v-18l16 -6l4 14zM786 1315l-16 -19v-39l25 -12l6 35zM377 1020l121 24l-9 25zM657 1065l-8 -25l101 -34l6 8zM895 735v-26l90 8l8 18h-98zM586 512h139v12l-139 8v-20zM745 639h-149v-21h149v21zM360 416l-151 102
l41 -47l102 -84zM745 575l-147 15l-12 -27l159 -8v20zM438 930l2 8l29 4l-27 12l4 15l-40 -2l6 -39l28 -31l25 -12l22 10l33 25l12 24l5 27l-45 -8l12 -21l-25 -27l-28 -2zM1145 639l-12 -6l-68 -55l80 -99v160zM688 932l-14 -23h-25l-10 15l23 16l-31 4v12l-47 9l6 -35
l16 -29l41 -18l27 -2l37 20l12 19l10 41l-61 4l14 -11zM825 688l9 62l-111 10l-6 -72h108zM815 1198l10 -12l39 22l17 -4l12 -49h27l12 12l-19 37l35 58l-30 18v10l-52 15v-41l-26 -11v-18l-19 -12zM1012 639l32 -25l17 4l41 31l26 27l23 37l-14 10h-29l-21 6l-28 14l-35 -6
q-4 -27 -7 -46q-3 -18 -5 -52zM717 438l-131 8v-104l131 -12v108zM360 678l-135 80v-15l-4 -26l2 -55v-99l131 -90l-2 123zM985 678l-111 2l-2 -49v-13l-4 -63l39 -6l-16 -125l-98 6l-17 -12l105 -10l-4 -19h-101l-8 -10l109 -14l-13 -72l56 -2l24 162l8 73l-30 6l-2 17
l41 2l10 6l-58 33l5 10l61 -12l-61 30l10 11l43 -11l8 21zM133 831h-43l39 -28l2 -23l-41 15l37 -37l-8 -15l6 -198l22 -25v369l117 -66l15 21l-140 78v36l121 -69l88 -58l58 -28l6 20l-211 131l-27 15l-84 67l4 -159l39 -35v-11zM1200 952l-16 76l-39 102l-41 74l-47 58
l-70 43h-22l34 -39l52 -21l22 -22l6 -68l-51 27l-31 -60l25 -16v-39l31 6l-25 53l31 -10l20 -41l-10 -24l-16 -15h-47l-7 23l-24 4l2 -45h-29l29 -37l-14 -20l-43 10l-7 -56l84 13l17 35l45 -5l12 -57l-33 -27v-30l17 -13l37 25h47l12 23l-37 12l-10 18l18 86h15l28 -41z
M672 1130h16l21 46l22 16l-10 12l-6 17l2 43l-62 -21l-20 -16l-17 10l9 43l28 20l23 23l78 -4l24 27l-8 16h-100l-92 -27l-109 -53l-59 -47l-52 -70l60 25l26 -31l-34 -41l-21 -6l35 -6h10l74 49h65l37 -25l17 7l8 28l14 11l21 -9v-37zM1014 817l-8 14h-420l-135 -6l-15 -18
l-12 -90l-98 41l-23 -8l117 -56l2 -92l-10 -149v-187l37 8l4 82l84 -6l6 19l-90 12v33l98 -13l2 19l-96 14l2 45l88 -6l6 12l-92 19l6 192h151l23 21h-162l4 18h152l16 15h-168l4 45l240 8l287 -8v22zM1239 942l-6 -84l-16 -72l-25 -63l-6 -320l-43 -14l-103 143l-55 -14
l-39 -287l-65 9l-15 -9l-8 -192l62 -39l32 -29l-6 -30l-61 2l-49 37h-29l-16 16l14 156l-8 96l-125 2l-6 -107l-4 -114v-41l-31 -13l-17 13l-61 -21h-66l-2 23l23 22l102 43l-12 197l-201 -12l-301 286l-8 236l-27 20l-20 74v53l31 17l-6 159l188 -127l18 97l21 73l45 72
l57 72l80 59l160 60h45l-139 45l8 34h14l162 -40l-8 104l33 25h65l39 -11l59 -51l66 -16l65 -21l31 -26v-41l-41 -64l62 -57l57 -66l37 -69l31 -84z" />
    <glyph glyph-name=".null" horiz-adv-x="0" 
 />
    <glyph glyph-name=".null" horiz-adv-x="0" 
 />
    <glyph glyph-name="nonmarkingreturn" unicode="&#xd;" horiz-adv-x="655" 
 />
    <glyph glyph-name="space" unicode=" " horiz-adv-x="491" 
 />
    <glyph glyph-name="exclam" unicode="!" horiz-adv-x="532" 
d="M307 190l51 -8l9 -98l-13 -84l-127 -10l-51 10l-10 100l12 82zM344 844l-59 -402h-39l-60 400l-10 612h178z" />
    <glyph glyph-name="quotedbl" unicode="&#x22;" horiz-adv-x="720" 
d="M102 1360l15 88l135 8l57 -8l10 -102l-14 -93l-149 -305l-39 15q26 61 62 167.5t36 116.5l-102 6zM414 1360l14 88l137 8l56 -8l8 -102l-13 -93l-149 -305l-41 15q45 106 72.5 190t27.5 94l-102 6z" />
    <glyph glyph-name="numbersign" unicode="#" horiz-adv-x="1265" 
d="M954 1341l-51 -413h281l-10 -68h-279l-45 -379h278l-8 -69h-280l-49 -412h-72l49 412h-336l-49 -412h-72l49 412h-278l8 69h281l45 379h-279l10 68h277l51 413h72l-51 -413h335l52 413h71zM442 481h336l45 379h-336z" />
    <glyph glyph-name="dollar" unicode="$" horiz-adv-x="1112" 
d="M858 317q0 108 -60.5 179t-176.5 129v-578q111 16 174 89t63 181zM295 1164q0 -100 57.5 -160t153.5 -107l53 -27v529q-123 -4 -193.5 -69.5t-70.5 -165.5zM963 1075h-54l-80 217q-87 87 -208 103v-555l118 -58q139 -76 209 -157t70 -213q0 -209 -142.5 -298t-254.5 -124
v-154h-62v137l-31 -8q-139 0 -235 35t-178 94l-23 293h76l80 -197q53 -61 134 -102t177 -43v610l-178 90q-125 61 -187.5 133t-62.5 191q0 223 167 297t261 94v139h62v-131q192 -8 342 -102v-291z" />
    <glyph glyph-name="percent" unicode="%" horiz-adv-x="1628" 
d="M1536 355q0 -153 -81.5 -245.5t-276.5 -121.5q-143 0 -225.5 95t-82.5 250t82 245t277 122q140 0 223.5 -96t83.5 -249zM1059.5 572q-43.5 -81 -43.5 -182q0 -357 201 -357q128 0 151 115.5t23 181.5t-11.5 125t-48.5 128.5t-133 69.5q-95 0 -138.5 -81zM1300 1444h89
l-1012 -1454h-88zM758 1102q0 -154 -82 -246t-277 -121q-142 0 -224.5 96t-82.5 249t82 243t277 123q142 0 224.5 -95t82.5 -249zM612 1043q0 358 -200 358q-86 0 -130 -82t-44 -182q0 -99 11 -159t35.5 -104.5t62.5 -69t87 -24.5q94 0 136 82.5t42 180.5z" />
    <glyph glyph-name="ampersand" unicode="&#x26;" horiz-adv-x="1415" 
d="M748 1182q0 98 -51.5 159.5t-135.5 61.5t-135 -55.5t-51 -153.5t81 -197.5t115 -142.5q147 114 162 197.5t15 130.5zM449 723q-187 -126 -187 -300q0 -138 83 -225t214 -87t272 168zM94 322q0 217 134 312t184 128q-98 109 -153.5 191.5t-55.5 168.5q0 127 94 208
t291 140q152 0 247 -81t95 -212.5t-125 -224t-199 -137.5l340 -393l207 276l-115 17l6 37l158 -2l168 2l4 -37l-135 -17l-250 -321l281 -320l112 -16l-4 -41l-166 2l-135 -2l-203 231q-145 -157 -339 -266q-187 0 -314 99.5t-127 257.5z" />
    <glyph glyph-name="quotesingle" unicode="'" horiz-adv-x="401" 
d="M102 1358l15 88l135 8l57 -8l10 -103l-14 -92l-149 -305l-39 17q19 38 58.5 155t39.5 127l-102 6z" />
    <glyph glyph-name="parenleft" unicode="(" horiz-adv-x="561" 
d="M233 508q0 -609 295 -965l-28 -26q-229 273 -317.5 479t-88.5 509t88 510.5t318 465.5l28 -27q-164 -197 -229.5 -425t-65.5 -521z" />
    <glyph glyph-name="parenright" unicode=")" horiz-adv-x="561" 
d="M328 508q0 454 -106.5 651t-188.5 295l28 27q230 -258 318 -465.5t88 -510.5t-88.5 -509t-317.5 -479l-28 26q166 199 230.5 448t64.5 517z" />
    <glyph glyph-name="asterisk" unicode="*" horiz-adv-x="817" 
d="M287 862l-117 84l205 197l-283 39l43 137l248 -131l-45 276h141l-45 -276l246 129l45 -135l-279 -39l201 -197l-115 -84l-124 248z" />
    <glyph glyph-name="plus" unicode="+" 
d="M592 0v477h-486v86h486v492h86v-492h485v-86h-485v-477h-86z" />
    <glyph glyph-name="comma" unicode="," horiz-adv-x="438" 
d="M156 109l12 88l135 10l59 -10l9 -105l-13 -92l-151 -289l-39 17q37 87 66.5 170.5t29.5 93.5l-98 8z" />
    <glyph glyph-name="hyphen" unicode="-" horiz-adv-x="788" 
d="M82 608h625v-90h-625v90z" />
    <glyph glyph-name="period" unicode="." horiz-adv-x="444" 
d="M295 207l55 -10l10 -105l-14 -92l-139 -10l-53 10l-11 109l15 88z" />
    <glyph glyph-name="slash" unicode="/" horiz-adv-x="970" 
d="M68 -471h-88l927 1941h84z" />
    <glyph glyph-name="zero" unicode="0" horiz-adv-x="1165" 
d="M355.5 170q83.5 -129 252.5 -129q134 0 209.5 117t75.5 291q0 321 -123 391.5t-204 70.5t-135 -33.5t-106.5 -118.5t-52.5 -272q0 -188 83.5 -317zM1083 498q0 -422 -522 -529q-207 0 -343 138t-136 352q0 213 130 340t392 186q208 0 343.5 -137.5t135.5 -349.5z" />
    <glyph glyph-name="one" unicode="1" horiz-adv-x="888" 
d="M547 971v-908l305 -24l-4 -41l-387 4l-391 -4l-4 41l311 24v738l6 39l-82 -35l-219 -64l-21 41l447 189h39z" />
    <glyph glyph-name="two" unicode="2" horiz-adv-x="980" 
d="M920 162v-33l-52 -129h-802l-25 51l283 215q259 197 291 294t32 140q0 104 -51 156.5t-125 52.5t-152 -37l-65 -231h-141v195l376 157q165 0 253.5 -71t88.5 -202q0 -130 -103 -239.5t-294 -224.5l-201 -117l156 23h531z" />
    <glyph glyph-name="three" unicode="3" horiz-adv-x="946" 
d="M672 -20q0 122 -105 203t-295 81l-12 37l100 47q206 89 231 185t25 147q0 104 -56 164.5t-138 60.5t-148 -39l-73 -231h-138v207l416 151q158 0 237 -79t79 -183q0 -238 -316 -373q165 -8 269 -94.5t104 -208.5q0 -214 -147.5 -302.5t-229.5 -125.5l-209 -98h-211v164
h443q174 107 174 287z" />
    <glyph glyph-name="four" unicode="4" horiz-adv-x="1112" 
d="M799 80h288v-70h-288v-483h-168v483h-568l-43 43l646 905h202v-38l-743 -852l76 12h430v301l119 84l49 14v-399z" />
    <glyph glyph-name="five" unicode="5" horiz-adv-x="962" 
d="M713 55q0 184 -98.5 226.5t-146.5 42.5q-77 0 -125 -11t-118 -47l-78 -37l-32 19l78 715h688l-4 -60l-27 -100h-608l-56 -496l310 164q213 0 306 -107t93 -222q0 -199 -111 -309t-317 -204l-209 -100h-168v166h391q232 127 232 360z" />
    <glyph glyph-name="six" unicode="6" horiz-adv-x="1097" 
d="M565 43q123 0 191.5 101.5t68.5 277.5t-64.5 269t-160.5 93q-57 0 -111.5 -33.5t-126.5 -91.5l-75 -61q7 -382 106 -468.5t172 -86.5zM98 545q0 479 265.5 671.5t461.5 260.5l19 -47q-321 -136 -434.5 -317t-122.5 -454l336 259q187 0 282.5 -126t95.5 -309
q0 -184 -116.5 -320t-362.5 -194q-200 0 -312 166.5t-112 409.5z" />
    <glyph glyph-name="seven" unicode="7" horiz-adv-x="980" 
d="M41 963h877l22 -25l-578 -1407h-153v31l582 1202l38 37h-788v162z" />
    <glyph glyph-name="eight" unicode="8" horiz-adv-x="1095" 
d="M788 1110q0 200 -95 243.5t-173 43.5t-138 -56.5t-60 -154.5q0 -138 116.5 -231t184.5 -142q165 127 165 297zM279 400q0 -164 82.5 -262.5t190.5 -98.5q109 0 187 64.5t78 181.5t-73.5 190.5t-139 121.5t-143.5 105q-94 -66 -138 -138t-44 -164zM993 373
q0 -162 -117.5 -258.5t-353.5 -145.5q-180 0 -300 100.5t-120 262.5q0 127 88.5 228.5t229.5 168.5q-141 100 -209 188.5t-68 188.5q0 133 105.5 219t316.5 139q193 0 297.5 -77.5t104.5 -206.5t-84 -223.5t-221 -172.5q186 -134 258.5 -217.5t72.5 -193.5z" />
    <glyph glyph-name="nine" unicode="9" horiz-adv-x="1089" 
d="M508 920q-121 0 -190.5 -99.5t-69.5 -275.5t66 -268.5t150 -92.5t139.5 39t98.5 74l84 68q-7 383 -105.5 469t-172.5 86zM72 473q0 402 479 520q200 0 312 -165.5t112 -413.5q0 -299 -175.5 -541t-545.5 -373l-18 47q303 131 421.5 317.5t128.5 434.5l-331 -252
q-185 0 -284 127.5t-99 298.5z" />
    <glyph glyph-name="colon" unicode=":" horiz-adv-x="473" 
d="M305 985l55 -8l11 -105l-15 -92l-139 -10l-53 10l-10 107l14 90zM305 207l55 -10l11 -105l-15 -92l-139 -10l-53 10l-10 109l14 88z" />
    <glyph glyph-name="semicolon" unicode=";" horiz-adv-x="514" 
d="M168 977l137 8l55 -8l11 -105l-15 -92l-139 -10l-53 10l-10 107zM166 -272q6 14 21.5 53t46 115.5t30.5 95.5l-100 8l-10 109l12 88l137 10l57 -10l11 -105l-15 -92l-149 -289z" />
    <glyph glyph-name="less" unicode="&#x3c;" 
d="M1167 1106v-102l-942 -416l942 -416v-102l-1065 479v76z" />
    <glyph glyph-name="equal" unicode="=" 
d="M1163 262h-1057v86h1057v-86zM1163 657h-1057v84h1057v-84z" />
    <glyph glyph-name="greater" unicode="&#x3e;" 
d="M1167 625v-76l-1065 -479v102l942 416l-942 416v102z" />
    <glyph glyph-name="question" unicode="?" horiz-adv-x="819" 
d="M231 -6l-10 100l12 82l129 8l52 -8l8 -98l-12 -84l-127 -10zM539 1114q0 189 -84 232t-148 45l-59 -207h-121v239l178 25q204 -11 307 -109t103 -230t-62.5 -214t-177.5 -141l-115 -56l-10 -262h-71l-27 279l80 53q106 72 156.5 154t50.5 192z" />
    <glyph glyph-name="at" unicode="@" horiz-adv-x="1859" 
d="M1465 1209q-155 153 -425 153q-143 0 -282.5 -52.5t-250 -152.5t-179 -246.5t-68.5 -330.5q0 -344 215 -530.5t524 -186.5q164 0 257.5 48t123.5 64l19 -32q-170 -98 -305.5 -134t-184.5 -42q-363 0 -585 214t-222 547q0 292 192 520.5t503 327.5l190 58
q369 0 574.5 -170t205.5 -439q0 -131 -52 -247.5t-138 -203.5t-196.5 -138.5t-227.5 -53.5l-115 131l70 234q-54 -66 -104 -126t-102 -125t-97 -118q-113 4 -191.5 90t-78.5 239q0 152 97 285.5t257 206.5l221 101l219 -133l-164 -740q74 0 154 40t190.5 163t110.5 374.5
t-155 404.5zM692 530q0 -72 45 -132t129 -70l232 256l73 311l-174 115q-167 -78 -236 -206.5t-69 -273.5z" />
    <glyph glyph-name="A" unicode="A" horiz-adv-x="1476" 
d="M918 563l-162 453l-68 239l-244 -692h474zM16 39l164 18l504 1352l98 45l518 -1397l160 -18l-4 -41l-262 4l-272 -4l-4 41l178 20l-156 445h-516l-156 -445l181 -20l-5 -41l-219 4l-202 -4z" />
    <glyph glyph-name="B" unicode="B" horiz-adv-x="1290" 
d="M668 725h-240v-666l199 -10q200 0 291.5 101.5t91.5 254.5t-94.5 236.5t-247.5 83.5zM627 784q137 0 219 94.5t82 226.5t-70 204.5t-199 74.5l-231 -10v-590h199zM1011.5 888q-108.5 -101 -259.5 -122q215 -4 333.5 -101.5t118.5 -248.5q0 -373 -545 -418l-299 4l-294 -4
l-5 41l183 20v1317l-183 19l5 41l309 -4l346 4q190 0 294.5 -90t104.5 -224q0 -133 -108.5 -234z" />
    <glyph glyph-name="C" unicode="C" horiz-adv-x="1406" 
d="M84 696q0 339 199.5 536.5t541.5 235.5q145 0 273.5 -43t208.5 -94v-289h-60l-92 230q-135 135 -356 135t-364.5 -176t-143.5 -479t147.5 -510t415.5 -207q92 0 168 39t119 80l116 258h62l-29 -297q-250 -120 -489 -150q-139 0 -269.5 48t-229.5 140.5t-158.5 229.5
t-59.5 313z" />
    <glyph glyph-name="D" unicode="D" horiz-adv-x="1486" 
d="M1064 1206.5q-136 179.5 -402 179.5l-226 -12v-1306l269 -17q222 0 358.5 186.5t136.5 488.5q0 301 -136 480.5zM1227.5 219.5q-177.5 -197.5 -514.5 -221.5l-344 4l-303 -4l-5 41l191 20v1317l-191 19l5 41l303 -4l356 4q319 0 499.5 -182t180.5 -509
q0 -328 -177.5 -525.5z" />
    <glyph glyph-name="E" unicode="E" horiz-adv-x="1255" 
d="M61 39l183 20v1317l-183 19l5 41l282 -4l805 4l8 -365h-37l-123 305l-573 2v-602l326 4l84 228h39l-11 -250l11 -262h-39l-84 225l-326 4v-670l592 4l135 314h41l-37 -375l-811 4l-282 -4z" />
    <glyph glyph-name="F" unicode="F" horiz-adv-x="1191" 
d="M61 39l183 20v1317l-183 19l5 41l284 -4l801 4l10 -369h-37l-125 309l-571 2v-628l326 4l84 239h39l-11 -264l11 -276h-39l-84 241l-326 4v-639l213 -20l-4 -41l-291 4l-280 -4z" />
    <glyph glyph-name="G" unicode="G" horiz-adv-x="1497" 
d="M788 -35q-297 0 -500.5 196t-203.5 536t198 537t539 234q219 0 335 -58t147 -79v-289h-54l-92 226q-139 139 -379 139q-92 0 -187 -48t-197.5 -184t-102.5 -434t145.5 -504t392.5 -206q104 0 182.5 42t116.5 85v436l-176 22l4 39l254 -4l230 4l4 -39l-131 -22v-483
q-303 -127 -525 -146z" />
    <glyph glyph-name="H" unicode="H" horiz-adv-x="1533" 
d="M428 774h684v602l-184 19l6 41l272 -4l262 4l7 -41l-179 -19v-1317l179 -20l-7 -41l-262 4l-272 -4l-6 41l184 20v656h-684v-656l178 -20l-6 -41l-264 4l-270 -4l-5 41l183 20v1317l-183 19l5 41l270 -4l264 4l6 -41l-178 -19v-602z" />
    <glyph glyph-name="I" unicode="I" horiz-adv-x="671" 
d="M336 2l-270 -4l-5 43l183 18v1317l-183 19l5 41l270 -4l270 4l4 -41l-182 -19v-1317l182 -18l-4 -43z" />
    <glyph glyph-name="J" unicode="J" horiz-adv-x="671" 
d="M444 190q0 -123 -22.5 -196.5t-75.5 -134.5l-190 -217h-156v165h223l13 43q18 61 20 160t2 178v1188l-217 19l6 41l303 -4l266 4l5 -41l-177 -19v-1186z" />
    <glyph glyph-name="K" unicode="K" horiz-adv-x="1411" 
d="M477 791l619 585l-168 19l6 41l209 -4l186 4l6 -41l-164 -23l-636 -610l90 6l643 -713l121 -16l-5 -41l-206 4l-121 -4l-598 682l-31 47v-668l164 -20l-4 -41l-252 4l-270 -4l-5 41l183 20v1317l-183 19l5 41l270 -4l252 4l4 -41l-164 -19v-622z" />
    <glyph glyph-name="L" unicode="L" horiz-adv-x="1167" 
d="M344 2l-278 -4l-5 41l183 20v1317l-183 19l5 41l274 -4l266 4l4 -41l-182 -19v-1319l537 4l133 316h45l-35 -379z" />
    <glyph glyph-name="M" unicode="M" horiz-adv-x="1869" 
d="M68 39l170 20v1313l-177 23l5 41l200 -4l191 4l456 -1135l29 -94l483 1229l191 -4l188 4l6 -41l-178 -19v-1317l172 -20l-6 -41l-252 4l-266 -4l-6 41l172 20v1059l12 203l-522 -1327h-100l-451 1132l-72 201v-1268l174 -20l-10 -41l-194 4l-211 -4z" />
    <glyph glyph-name="N" unicode="N" horiz-adv-x="1470" 
d="M1266 -8h-103l-796 1222l-48 113v-1268l181 -20l-6 -41l-203 4l-225 -4l-5 41l183 20v1307l-178 29l6 41l194 -4l164 4l717 -1088l45 -88v1116l-178 19l4 41l203 -4l223 4l6 -41l-184 -19v-1384z" />
    <glyph glyph-name="O" unicode="O" horiz-adv-x="1564" 
d="M432.5 248q141.5 -209 386.5 -209q219 0 338 180t119 467t-141 498t-387 211q-217 0 -337 -179t-120 -469t141.5 -499zM84 700q0 660 719 768q297 0 488.5 -207t191.5 -529q0 -659 -721 -767q-150 0 -275 55.5t-264 206.5t-139 473z" />
    <glyph glyph-name="P" unicode="P" horiz-adv-x="1183" 
d="M428 694h184q151 0 246.5 99.5t95.5 255.5q0 236 -113.5 286.5t-199.5 50.5l-213 -12v-680zM1157 1065q0 -325 -493 -430h-236v-576l217 -20l-4 -41l-303 4l-272 -4l-5 41l183 20v1317l-183 19l5 41l270 -4l377 4q301 0 372.5 -137.5t71.5 -233.5z" />
    <glyph glyph-name="Q" unicode="Q" horiz-adv-x="1564" 
d="M432.5 248q141.5 -209 386.5 -209q219 0 338 180t119 467t-141 498t-387 211q-217 0 -337 -179t-120 -469t141.5 -499zM1483 745q0 -638 -656 -768l230 -69l246 -193l102 -22l-4 -39h-293l-344 311h-2q-150 0 -275 55.5t-264 207t-139 472.5q0 660 719 768
q297 0 488.5 -207t191.5 -516z" />
    <glyph glyph-name="R" unicode="R" horiz-adv-x="1349" 
d="M428 725h137q184 0 282.5 95t98.5 247t-86 233.5t-223 85.5l-209 -12v-649zM1151 1079q0 -308 -475 -401l178 -66l375 -555l110 -20l-4 -39l-166 4l-129 -4l-424 641l-24 33h-164v-613l170 -20l-4 -41l-258 4l-270 -4l-5 41l183 20v1317l-183 19l5 41l270 -4l360 4
q312 0 383.5 -130t71.5 -227z" />
    <glyph glyph-name="S" unicode="S" horiz-adv-x="1107" 
d="M958 1075h-53l-80 217q-107 107 -247 107t-213.5 -66.5t-73.5 -168.5t57.5 -161t153.5 -106l233 -115q139 -76 209 -157t70 -213q0 -233 -174.5 -323.5t-315.5 -123.5q-139 0 -235 35t-178 94l-23 293h76l80 -197q126 -145 336 -145q118 0 196 76t78 190t-60.5 185
t-172.5 127l-244 122q-127 62 -188.5 133.5t-61.5 190.5q0 231 180 306t281 93q210 0 370 -102v-291z" />
    <glyph glyph-name="T" unicode="T" horiz-adv-x="1196" 
d="M506 1376h-322l-114 -313h-43v373l569 -4l573 4v-373h-43l-114 313h-322v-1317l213 -20l-4 -41l-301 4l-307 -4l-4 41l219 20v1317z" />
    <glyph glyph-name="U" unicode="U" horiz-adv-x="1413" 
d="M209 506v870l-182 19l4 41l276 -4l264 4l7 -41l-179 -19v-901q0 -300 138.5 -362t230.5 -62q164 0 255 117t91 311v897l-180 19l4 41l227 -4l217 4l7 -41l-177 -19v-880q0 -214 -106.5 -345t-382.5 -186q-514 0 -514 541z" />
    <glyph glyph-name="V" unicode="V" horiz-adv-x="1472" 
d="M705 -27l-535 1405l-160 17l6 41l258 -4l281 4l4 -39l-176 -21l387 -1087l25 -96l419 1183l-182 21l4 39l226 -4l194 4l6 -41l-166 -17l-499 -1362z" />
    <glyph glyph-name="W" unicode="W" horiz-adv-x="2007" 
d="M145 1378l-122 17l4 41l225 -4l264 4l4 -41l-176 -19l328 -1052l20 -109l271 883l-95 280l-133 17l4 41l236 -4l264 4l4 -41l-176 -19l328 -1057l20 -102l361 1161l-183 17l6 41l224 -4l157 4l7 -41l-127 -17l-437 -1362l-98 -34l-303 921l-14 96l-308 -983l-98 -34z" />
    <glyph glyph-name="X" unicode="X" horiz-adv-x="1433" 
d="M1403 41l-6 -43l-273 4l-272 -4l-4 43l174 18l-303 490l-41 78l-381 -568l203 -18l-6 -43l-234 4l-233 -4l-7 43l187 16l430 621l-449 700l-155 19l6 39l283 -4l264 4l4 -39l-170 -21l297 -487l35 -72l370 559l-207 19l5 41l245 -4l230 4l4 -41l-185 -17l-421 -610
l460 -711z" />
    <glyph glyph-name="Y" unicode="Y" horiz-adv-x="1425" 
d="M815 573l2 -514l232 -20l-5 -41l-319 4l-328 -4l-4 41l240 20v502l-463 817l-160 19l6 39l275 -4l268 4l6 -39l-184 -21l373 -661l26 -68l385 729l-194 21l4 39l237 -4l197 4l6 -39l-160 -17z" />
    <glyph glyph-name="Z" unicode="Z" horiz-adv-x="1155" 
d="M102 1065v369h977l11 -52l-795 -1253l-57 -74l659 4l150 324h51l-35 -383h-1012l-10 57l790 1248l62 75l-614 -6l-127 -309h-50z" />
    <glyph glyph-name="bracketleft" unicode="[" horiz-adv-x="655" 
d="M584 -432v-41l-240 4l-166 -4v1937l162 -2l244 2v-39l-275 -16l-4 -791l4 -1034z" />
    <glyph glyph-name="backslash" unicode="\" horiz-adv-x="882" 
d="M-66 1470h86l928 -1941h-88z" />
    <glyph glyph-name="bracketright" unicode="]" horiz-adv-x="655" 
d="M350 88l4 462v44q-2 59 -2 127l-2 280q-2 178 -2 408l-274 16v39l250 -2l153 2v-1937l-149 4l-254 -4v41l274 16q0 283 2 504z" />
    <glyph glyph-name="asciicircum" unicode="^" horiz-adv-x="765" 
d="M199 942h-97l254 502h56l252 -502h-95l-184 404z" />
    <glyph glyph-name="underscore" unicode="_" horiz-adv-x="1157" 
d="M10 -156h1137v-73h-1137v73z" />
    <glyph glyph-name="grave" unicode="`" horiz-adv-x="1024" 
d="M553 1110l-262 352h190l113 -352h-41z" />
    <glyph glyph-name="a" unicode="a" horiz-adv-x="923" 
d="M764 242q0 -96 37 -170l108 8l4 -39l-256 -51l-49 168l-266 -189q-127 0 -204 65.5t-77 177.5t89 202l450 149v111q0 114 -27.5 164.5t-132.5 50.5q-64 0 -155 -31l-43 -184h-150v145l361 166q186 0 248.5 -66t62.5 -253v-424zM231 254q0 -84 40 -124t101 -40t148 62
l80 55v309l-301 -121q-68 -57 -68 -141z" />
    <glyph glyph-name="b" unicode="b" horiz-adv-x="1087" 
d="M767 750q-62 104 -173 104q-85 0 -201 -82l-59 -43v-602q68 -92 202 -92t213.5 119.5t79.5 305.5t-62 290zM874 142.5q-130 -131.5 -366 -173.5q-165 0 -236 35t-102 51v1311l-141 -14l-9 41l259 65l55 4v-674l282 197q168 0 278 -124t110 -356q0 -231 -130 -362.5z" />
    <glyph glyph-name="c" unicode="c" horiz-adv-x="894" 
d="M524 -31q-195 0 -319.5 126.5t-124.5 354.5t135.5 361t339.5 174q98 0 173 -43t97 -61v-181h-127l-67 189q-46 26 -107 26q-123 0 -202.5 -103.5t-79.5 -286.5t92 -303t244 -120q119 0 249 95l17 -41q-137 -113 -320 -187z" />
    <glyph glyph-name="d" unicode="d" horiz-adv-x="1120" 
d="M324 807q-76 -113 -76 -297t65.5 -297t171.5 -113q47 0 90 19.5t109 66.5l57 45v600q-69 91 -205 90t-212 -114zM905 248q0 -88 37 -168l131 8l6 -41l-274 -57l-53 174l-281 -195q-179 0 -289 134.5t-110 347.5q0 214 123.5 355.5t357.5 178.5q80 0 188 -55v438l-141 -14
l-8 39l262 65l51 4v-1214z" />
    <glyph glyph-name="e" unicode="e" horiz-adv-x="948" 
d="M475 913q-111 0 -170 -90t-69 -233l448 10q0 155 -30.5 210.5t-71.5 79t-107 23.5zM535 -31q-192 0 -326.5 130.5t-134.5 355.5t122.5 355.5t323.5 174.5q181 0 264.5 -101.5t83.5 -275.5v-65h-635q0 -205 98.5 -322t268.5 -117q120 0 258 91l19 -43q-156 -115 -342 -183
z" />
    <glyph glyph-name="f" unicode="f" horiz-adv-x="665" 
d="M377 944h254v-53h-254v-836l233 -12l-4 -45l-299 4l-233 -4l-4 41l143 16v836h-160v24l29 33h131v23q0 181 94 282l178 201h234v-145h-285l-24 -41q-26 -52 -29.5 -121.5t-3.5 -124.5v-78z" />
    <glyph glyph-name="g" unicode="g" horiz-adv-x="1011" 
d="M666 623q0 190 -77 243.5t-153 53.5t-123 -63.5t-47 -178.5q0 -179 77 -231t153 -52t123 61t47 167zM199 -221q0 -84 71.5 -136.5t165.5 -51.5q163 2 269 79t106 187q0 59 -43 89.5t-147 30.5h-312q-97 -97 -103.5 -139.5t-6.5 -58.5zM836 692q0 -265 -383 -362
q-55 0 -99 12l-106 -115q0 -53 27.5 -78.5t74.5 -25.5h367q127 0 184 -56.5t57 -131.5q0 -135 -136.5 -251t-364.5 -184q-213 0 -314.5 67.5t-101.5 211.5v33l225 178q-136 41 -150 104.5t-14 98.5v16l201 145q-92 33 -149.5 102.5t-57.5 180.5t90 202t293 144q98 0 181 -38
t126 -103l115 141h100v-162h-141l-47 -26q23 -49 23 -103z" />
    <glyph glyph-name="h" unicode="h" horiz-adv-x="1169" 
d="M811 682q0 172 -131 172q-59 0 -112.5 -26.5t-116.5 -67.5l-76 -43v-662l112 -16l-6 -41l-182 4l-225 -4l-6 41l143 16v1313l-141 -14l-7 39l256 65l56 4v-690l336 213q159 0 211.5 -75.5t52.5 -247.5v-607l160 -16l-7 -41l-233 4l-184 -4l-4 41l104 16v627z" />
    <glyph glyph-name="i" unicode="i" horiz-adv-x="567" 
d="M211 1413l129 10l51 -10l10 -100l-18 -90l-129 -11l-49 11l-12 104zM299 2l-223 -4l-4 41l141 16v819l-145 -24l-7 41l261 72l55 4v-912l149 -16l-4 -41z" />
    <glyph glyph-name="j" unicode="j" horiz-adv-x="524" 
d="M215 -74v948l-145 -24l-9 41l263 72l55 4v-1006q0 -72 -18.5 -121t-65.5 -106l-180 -217h-154v159h209l14 37q31 84 31 213zM211 1413l129 10l51 -10l10 -100l-18 -90l-129 -11l-49 11l-12 104z" />
    <glyph glyph-name="k" unicode="k" horiz-adv-x="1079" 
d="M903 2l-117 -4l-385 475l-26 43v-461l127 -16l-4 -41l-199 4l-227 -4l-4 41l143 16v1311l-141 -14l-9 41l258 65l56 4v-919l55 35l375 321l-94 16v39l157 -2l152 2l6 -39l-123 -16l-432 -354h84l422 -492l92 -14l-4 -41z" />
    <glyph glyph-name="l" unicode="l" horiz-adv-x="555" 
d="M295 2l-221 -4l-6 41l143 16v1311l-141 -14l-7 41l256 65l56 4v-1407l149 -16l-6 -41z" />
    <glyph glyph-name="m" unicode="m" horiz-adv-x="1728" 
d="M793 682q0 172 -125 172q-57 0 -111.5 -28.5t-105.5 -63.5l-74 -49v-658l106 -16l-4 -41l-180 4l-223 -4l-6 41l143 16v819l-145 -22l-7 39l263 72l47 4l4 -197l319 215q246 0 256 -217l322 217q161 -8 211.5 -77t50.5 -244v-609l160 -16l-4 -41l-236 4l-184 -4l-6 41
l106 16v627q0 172 -124 172q-58 0 -112.5 -28.5t-105.5 -63.5l-72 -49v-658l101 -16l-6 -41l-172 4l-183 -4l-4 41l101 16v627z" />
    <glyph glyph-name="n" unicode="n" horiz-adv-x="1171" 
d="M975 684v-629l162 -16l-7 -41l-233 4l-186 -4l-4 41l104 16v627q0 96 -35 134t-98 38t-114.5 -26.5t-112.5 -67.5l-74 -45v-660l112 -16l-6 -41l-184 4l-223 -4l-6 41l143 16v819l-145 -24l-7 41l261 72l47 4l6 -199l336 217q155 -4 210 -67q54 -62 54 -234z" />
    <glyph glyph-name="o" unicode="o" horiz-adv-x="1077" 
d="M248 495q0 -189 89 -323.5t223 -134.5t202.5 116t68.5 313t-89.5 323t-229.5 126q-193 0 -228.5 -164.5t-35.5 -255.5zM74 455q0 436 487 530q198 0 321.5 -138.5t123.5 -356.5q0 -219 -127 -349.5t-361 -171.5q-198 0 -321 138t-123 348z" />
    <glyph glyph-name="p" unicode="p" horiz-adv-x="1089" 
d="M842 446q0 184 -64 298t-174 114q-51 0 -96 -24.5t-107 -67.5l-55 -39v-580q33 -51 90.5 -81.5t128.5 -30.5q125 2 201 114.5t76 296.5zM1018 508q0 -224 -126 -360t-355 -179q-112 0 -191 56v-441l215 -16l-4 -41l-289 4l-225 -4l-4 41l143 16v1293l-145 -25l-6 39
l260 72l47 4l6 -183l279 201q183 0 289 -126.5t106 -350.5z" />
    <glyph glyph-name="q" unicode="q" horiz-adv-x="1062" 
d="M907 975v-1391l146 -16l-6 -41l-228 4l-284 -4l-7 41l215 16v568l-268 -183q-176 0 -289.5 126.5t-113.5 347.5t137.5 365t368.5 177q125 0 251 -80l58 70h20zM743 791q-56 131 -192 131q-137 0 -220 -110t-83 -298q0 -189 67.5 -302.5t184.5 -113.5q51 0 84.5 15.5
t66.5 36.5l92 63v578z" />
    <glyph glyph-name="r" unicode="r" horiz-adv-x="765" 
d="M733 975v-182h-178q-31 -6 -79 -56.5t-58 -62.5l-45 -60v-555l202 -16l-6 -45l-276 4l-217 -4l-4 41l141 16v819l-145 -22l-7 39l263 72l45 4v-285l223 293h141z" />
    <glyph glyph-name="s" unicode="s" horiz-adv-x="808" 
d="M713 678h-62l-73 184q-67 58 -175 58q-66 0 -112.5 -35t-46.5 -97t42 -99.5t109 -78.5l162 -90q102 -57 142 -114.5t38 -141.5q0 -121 -93 -188.5t-259 -106.5q-118 0 -200.5 40t-102.5 54l-21 234h72l90 -193q81 -67 178 -67t139 48t42 117t-40 107.5t-124 87.5l-162 92
q-164 90 -164 230q0 104 88 164.5t246 101.5q154 0 287 -86v-221z" />
    <glyph glyph-name="t" unicode="t" horiz-adv-x="681" 
d="M354 227q0 -131 117 -131q51 0 90 14.5t84 36.5l21 -38l-248 -140q-149 0 -188.5 60t-39.5 196v664h-180v26l35 33h150v148l139 110h18v-266h310v-51h-308v-662z" />
    <glyph glyph-name="u" unicode="u" horiz-adv-x="1122" 
d="M338 268q0 -172 131 -172q61 0 113.5 27t111.5 67l72 43v644l-135 -15l-4 45l252 51l51 5v-701q0 -102 26 -186l111 6l4 -39l-256 -51l-45 180l-326 -203q-170 4 -220 72.5t-50 241.5v594l-147 -15l-7 45l265 51l53 5v-695z" />
    <glyph glyph-name="v" unicode="v" horiz-adv-x="1089" 
d="M592 104l272 795l-123 16l7 39l174 -2l153 2l4 -39l-129 -16l-325 -864l-133 -68l-357 932l-125 16l6 39l217 -2l209 2l7 -39l-132 -16l246 -676z" />
    <glyph glyph-name="w" unicode="w" horiz-adv-x="1683" 
d="M862 592l-20 110l-234 -667l-143 -66l-330 930l-125 16l6 39l211 -2l197 2l6 -39l-119 -16l230 -682l28 -108l230 667l-43 123l-101 16l7 39l186 -2l196 2l5 -39l-119 -16l233 -688l25 -102l272 790l-123 16l6 39l152 -2l172 2l6 -39l-129 -16l-315 -864l-146 -66z" />
    <glyph glyph-name="x" unicode="x" horiz-adv-x="1077" 
d="M399 39l-6 -41l-174 4l-192 -4l-4 41l153 16l303 394l-305 448l-121 16l6 41l228 -2l168 2l4 -41l-74 -16l176 -274l27 -52l223 326l-143 16l4 41l176 -2l194 2l5 -41l-156 -16l-268 -358l319 -484l125 -16l-6 -41l-219 4l-180 -4l-7 41l80 16l-196 301l-25 50l-252 -351
z" />
    <glyph glyph-name="y" unicode="y" horiz-adv-x="1083" 
d="M178 -481v176h182l207 356l-96 -43l-336 891l-125 16l6 39l217 -2l209 2l7 -39l-132 -16l244 -676l25 -110l272 786l-121 16l6 39l170 -2l156 2l4 -39l-131 -16l-315 -848l-236 -532h-213z" />
    <glyph glyph-name="z" unicode="z" horiz-adv-x="929" 
d="M131 670v284h725l14 -39l-546 -800l-60 -68l436 4l123 238h47l-28 -289h-756l-12 37l542 792l70 78l-407 -4l-103 -233h-45z" />
    <glyph glyph-name="braceleft" unicode="{" horiz-adv-x="698" 
d="M512 -432h102v-39h-96q-125 0 -201.5 78t-76.5 209v585l-136 109v14q127 47 131.5 133t4.5 129v392q0 131 74.5 208.5t195.5 77.5h98v-39h-104q-99 0 -120.5 -78.5t-21.5 -140.5l7 -415q0 -177 -162 -256l162 -103l-7 -645q0 -169 60.5 -194t89.5 -25z" />
    <glyph glyph-name="bar" unicode="|" horiz-adv-x="530" 
d="M225 1470h80v-1972h-80v1972z" />
    <glyph glyph-name="braceright" unicode="}" horiz-adv-x="698" 
d="M330 248q0 84 34 146.5t128 109.5l-162 102l6 600q0 171 -60.5 195t-87.5 24h-104v39h100q123 0 200 -77.5t77 -208.5l-2 -541l135 -109v-14q-126 -46 -130.5 -132.5t-4.5 -129.5l2 -436q0 -131 -77 -209t-196 -78h-96v39h103q96 0 119.5 79t21.5 140v29l-6 400v32z" />
    <glyph glyph-name="asciitilde" unicode="~" horiz-adv-x="1370" 
d="M1227 651h41l-80 -182l-191 -39l-764 119l-90 -143h-41l78 182l197 39l760 -115z" />
    <glyph glyph-name="nonbreakingspace" unicode="&#xa0;" horiz-adv-x="0" 
 />
    <glyph glyph-name="exclamdown" unicode="&#xa1;" horiz-adv-x="509" 
d="M215 770l-51 8l-8 99l10 84l129 10l51 -10l8 -101l-12 -82zM176 117l62 403h36l62 -401l8 -613h-178z" />
    <glyph glyph-name="cent" unicode="&#xa2;" horiz-adv-x="915" 
d="M571 -164h-55v133q-191 8 -312.5 135.5t-121.5 342.5t125 346t321 182v143h56v-137q78 -4 148.5 -33.5t113.5 -66.5v-181h-127l-66 189q-50 26 -113 26q-129 0 -211.5 -103.5t-82.5 -286.5t96 -303t256 -120q115 0 252 95l14 -41q-89 -73 -293 -179v-141z" />
    <glyph glyph-name="sterling" unicode="&#xa3;" horiz-adv-x="1144" 
d="M987 1126h-69l-62 191q-41 43 -80 63.5t-100 20.5q-113 0 -176.5 -79t-63.5 -200v-366h383v-58h-383v-362q0 -216 -74 -279l537 4l111 263h53l-25 -324l-680 4l-272 -4l-6 45l194 55v598h-178v27l60 31h118v235q0 207 85 307t348 166q201 0 280 -96v-242z" />
    <glyph glyph-name="currency" unicode="&#xa4;" 
d="M389.5 464.5q104.5 -104.5 250.5 -104.5t249.5 106t103.5 253.5t-104 251.5t-250 104t-250 -104t-104 -253t104.5 -253.5zM211 723q0 151 100 268l-137 139l64 64l139 -141q116 94 259 94t263 -90l135 135l64 -66l-133 -133q104 -122 104 -271t-92 -267l123 -121l-64 -64
l-121 121q-119 -102 -274 -102t-281 102l-124 -125l-66 64l129 129q-88 113 -88 264z" />
    <glyph glyph-name="yen" unicode="&#xa5;" horiz-adv-x="1370" 
d="M608 553v2l-407 823l-160 17l6 41l275 -4l268 4l4 -41l-182 -19l319 -684l25 -63l323 745l-196 21l6 41l237 -4l197 4l6 -39l-160 -19l-376 -807v-18h270v-51h-268v-142h268v-53h-268v-248l231 -20l-4 -41l-322 4l-327 -4l-4 41l239 20v248h-264v53h264v142h-264v51h264z
" />
    <glyph glyph-name="brokenbar" unicode="&#xa6;" horiz-adv-x="530" 
d="M225 379h80v-881h-80v881zM225 1470h80v-880h-80v880z" />
    <glyph glyph-name="section" unicode="&#xa7;" horiz-adv-x="1071" 
d="M219 640q0 -70 24.5 -118.5t70 -97t208.5 -174.5l168 -131q77 45 121.5 112t44.5 172v31l-299 219q-53 41 -106.5 80t-102.5 84q-129 -53 -129 -177zM874 -141q0 -283 -387 -361q-140 0 -222.5 47t-106.5 68v242h61l62 -181q100 -112 237 -112q100 0 162.5 56t58.5 177
q0 66 -241 243.5t-328.5 279t-87.5 210.5q0 169 95 232t145 86q-69 69 -102.5 124.5t-33.5 137.5q0 135 104.5 228.5t293.5 127.5q216 0 299 -100v-225h-62l-59 174q-68 90 -199 90q-164 0 -204 -74t-40 -128q0 -99 72.5 -178.5t253.5 -211.5l344 -244v-78q0 -274 -272 -397
q10 -8 32.5 -26.5t64.5 -52t49 -52.5q6 -19 7.5 -42t2.5 -37.5t1 -22.5z" />
    <glyph glyph-name="dieresis" unicode="&#xa8;" horiz-adv-x="1024" 
d="M717 1395l45 -9l10 -88l-18 -75l-111 -11l-45 11l-8 90l16 73zM367 1395l45 -9l10 -88l-19 -75l-110 -11l-45 11l-8 90l16 73z" />
    <glyph glyph-name="copyright" unicode="&#xa9;" horiz-adv-x="1708" 
d="M1186 891h-41l-64 137q-75 76 -197 76t-205 -94.5t-83 -269.5t81.5 -290.5t231.5 -115.5q95 0 164 63l78 158h43l-16 -182q-174 -69 -299 -84q-181 0 -310 109t-129 303.5t120 306.5t333 137q167 0 293 -78v-176zM102 720q0 322 201.5 508t548.5 236q318 -4 536 -209.5
t218 -534.5t-200.5 -514t-549.5 -237q-316 4 -473.5 151.5t-219 288t-61.5 311.5zM868 25q112 0 228 46t257.5 183.5t141.5 450.5q0 182 -63.5 315t-158.5 220t-208 129t-225 42t-227 -46t-257.5 -186t-142.5 -450q0 -182 63.5 -314t158.5 -219t208 -129t225 -42z" />
    <glyph glyph-name="ordfeminine" unicode="&#xaa;" horiz-adv-x="854" 
d="M254.5 765.5q32.5 -32.5 82.5 -32.5t124 49l63 47v254l-245 -100q-57 -45 -57 -115t32.5 -102.5zM657 858q0 -64 31 -139l90 6l4 -33l-211 -41l-41 140l-219 -156q-102 0 -165.5 53t-63.5 146t72 165l370 123v92q0 93 -20.5 135t-110.5 42q-40 0 -127 -25l-35 -156h-122
v121l297 135q152 0 201.5 -54t49.5 -206v-348z" />
    <glyph glyph-name="guillemotleft" unicode="&#xab;" horiz-adv-x="864" 
d="M401 31l-370 450l372 451h48l-265 -451l265 -450h-50zM756 31l-371 450l373 451h45l-264 -451l264 -450h-47z" />
    <glyph glyph-name="logicalnot" unicode="&#xac;" 
d="M1161 369h-84v293h-968v86h1052v-379z" />
    <glyph glyph-name="softhyphen" unicode="&#xad;" horiz-adv-x="747" 
d="M74 608h600v-92h-600v92z" />
    <glyph glyph-name="registered" unicode="&#xae;" horiz-adv-x="1210" 
d="M520 905h51q59 0 95 33t36 90t-32.5 88t-79.5 31l-70 -6v-236zM827 1036q0 -123 -211 -151l107 -31l137 -203l41 -8v-25h-158l-159 244l-13 15h-51v-226l66 -8l-2 -25h-244l-2 25l68 8v490l-68 6l2 24h301q76 0 131 -32.5t55 -102.5zM614 420q76 0 154 30.5t172 124.5
t94 315t-137.5 347.5t-299.5 126.5q-75 0 -152.5 -30.5t-173 -127.5t-95.5 -315t137.5 -344.5t300.5 -126.5zM229.5 1240.5q137.5 127.5 374.5 162.5q212 0 363 -140.5t151 -366.5t-137 -355t-373 -162q-215 0 -365.5 142t-150.5 367t137.5 352.5z" />
    <glyph glyph-name="macron" unicode="&#xaf;" horiz-adv-x="1024" 
d="M227 1372h572v-80h-572v80z" />
    <glyph glyph-name="degree" unicode="&#xb0;" horiz-adv-x="854" 
d="M193.5 1424.5q80.5 71.5 234.5 117.5q127 0 220 -93t93 -221t-73.5 -202t-239.5 -111q-128 0 -221.5 93.5t-93.5 219t80.5 197zM265.5 1069.5q68.5 -68.5 164.5 -68.5t161.5 68t65.5 161t-68 159.5t-163 66.5t-162 -65.5t-67 -159t68.5 -162z" />
    <glyph glyph-name="plusminus" unicode="&#xb1;" 
d="M96 86h1080v-86h-1080v86zM582 289v475h-486v86h486v493h86v-493h485v-86h-485v-475h-86z" />
    <glyph glyph-name="twosuperior" unicode="&#xb2;" horiz-adv-x="714" 
d="M643 942v-31l-41 -92h-551l-20 33l180 180q125 123 180 213t55 167t-33.5 117t-82.5 40t-86 -17l-45 -159h-123v139l276 94q129 0 194.5 -57t65.5 -127q0 -118 -72 -209.5t-225 -196.5l-165 -114l96 20h397z" />
    <glyph glyph-name="threesuperior" unicode="&#xb3;" horiz-adv-x="634" 
d="M414 1066q0 68 -53.5 111.5t-159.5 43.5l-8 26l59 31q78 35 105.5 74t27.5 95t-28.5 88t-66.5 32t-77 -17l-41 -143h-121v129l281 90q158 0 181.5 -58.5t23.5 -84.5q0 -126 -203 -191q112 -4 175.5 -55t63.5 -108q0 -56 -19 -88.5t-61 -67t-167 -88.5l-150 -68h-125v127
h291q72 54 72 122z" />
    <glyph glyph-name="acute" unicode="&#xb4;" horiz-adv-x="1024" 
d="M293 1110l113 352h188l-260 -352h-41z" />
    <glyph glyph-name="uni00B5" unicode="&#xb5;" 
d="M944 119q0 -44 152 -84l-4 -35h-226l-84 170l-299 -201q-209 0 -243 115v-143l129 -412h-195v1425h164v-649q0 -113 44 -161t104 -48t110.5 29t112.5 65l71 43v721h164v-835z" />
    <glyph glyph-name="paragraph" unicode="&#xb6;" horiz-adv-x="970" 
d="M365 844q-127 0 -215.5 72.5t-88.5 198.5t119 205t180 114h529v-58l-103 -16v-1686h-75v1688h-269v-1688h-77v1170z" />
    <glyph glyph-name="periodcentered" unicode="&#xb7;" horiz-adv-x="440" 
d="M262 932l55 -8l11 -105l-13 -90l-139 -10l-53 10l-10 107l12 88z" />
    <glyph glyph-name="cedilla" unicode="&#xb8;" horiz-adv-x="1024" 
d="M621 -289q0 112 -154 123l125 178l29 -18l-60 -94q63 -4 115.5 -41t52.5 -93q0 -90 -52.5 -138t-121.5 -74l-125 -46h-84l55 76h156q64 39 64 127z" />
    <glyph glyph-name="onesuperior" unicode="&#xb9;" horiz-adv-x="579" 
d="M385 1616v-750l174 -12l-4 -35l-244 2l-245 -2l-5 35l175 12v627l4 33l-50 -25l-122 -28l-17 30l287 113h47z" />
    <glyph glyph-name="ordmasculine" unicode="&#xba;" horiz-adv-x="892" 
d="M682 1050q0 158 -71.5 258.5t-179.5 100.5t-163 -93.5t-55 -243.5t70 -260t180 -110q109 0 164 95t55 253zM72 1038q0 355 393 428q159 0 257.5 -112t98.5 -288q0 -175 -102.5 -279.5t-288.5 -137.5q-156 0 -257 109.5t-101 279.5z" />
    <glyph glyph-name="guillemotright" unicode="&#xbb;" horiz-adv-x="864" 
d="M416 31l264 450l-264 451h45l373 -451l-371 -450h-47zM61 31l265 450l-265 451h48l372 -451l-370 -450h-50z" />
    <glyph glyph-name="onequarter" unicode="&#xbc;" horiz-adv-x="1622" 
d="M1389 291h161v-64h-161v-227h-140v227h-327l-29 45l385 516h156v-36l-473 -471l71 10h217v155l107 78l33 8v-241zM406 1442v-750l174 -12l-5 -35l-243 2l-246 -2l-4 35l174 12v629l4 31l-47 -25l-125 -29l-16 31l286 113h48zM451 -102h-84l792 1556h80z" />
    <glyph glyph-name="onehalf" unicode="&#xbd;" horiz-adv-x="1679" 
d="M1608 123v-31l-39 -92h-553l-19 33l179 180q125 123 181 213t56 168t-33.5 117t-83.5 39t-88 -17l-43 -160h-125v140l277 94q129 0 195.5 -57.5t66.5 -127.5q0 -120 -74.5 -211t-224.5 -194l-164 -115l107 21h385zM451 -102h-84l792 1556h80zM406 1442v-750l174 -12
l-5 -35l-243 2l-246 -2l-4 35l174 12v627l4 33l-53 -25l-119 -29l-16 31l286 113h48z" />
    <glyph glyph-name="threequarters" unicode="&#xbe;" horiz-adv-x="1593" 
d="M557 1309q0 -127 -203 -191q168 -6 203 -74.5t35 -106.5q0 -70 -60 -121t-186 -105l-149 -68h-125v127h290q72 54 72 122t-53 111.5t-160 43.5l-8 26l59 31q78 35 106 74t28 95t-29 88t-65 32t-79 -17l-40 -143h-121v129l280 90q105 0 155 -41t50 -102zM1360 291h162v-64
h-162v-227h-139v227h-328l-29 45l385 516h156v-36l-473 -471l65 10h224v155l106 76l33 10v-241zM422 -102h-84l792 1556h80z" />
    <glyph glyph-name="questiondown" unicode="&#xbf;" horiz-adv-x="753" 
d="M395 766l-51 8l-8 96l10 86l129 11l51 -11l9 -100l-13 -82zM219 -166q0 -187 83 -229.5t149 -44.5l59 204h121v-237l-180 -27q-207 11 -308.5 110.5t-101.5 231.5q0 131 62.5 213t179.5 142l110 55l10 248h80l19 -264l-82 -54q-104 -72 -152.5 -154.5t-48.5 -193.5z" />
    <glyph glyph-name="Agrave" unicode="&#xc0;" horiz-adv-x="1476" 
d="M918 563l-162 453l-68 239l-244 -692h474zM16 39l164 18l504 1352l98 45l518 -1397l160 -18l-4 -41l-262 4l-272 -4l-4 41l178 20l-156 445h-516l-156 -445l181 -20l-5 -41l-219 4l-202 -4zM692 1571l-252 272h193l123 -272h-64z" />
    <glyph glyph-name="Aacute" unicode="&#xc1;" horiz-adv-x="1476" 
d="M918 563l-162 453l-68 239l-244 -692h474zM16 39l164 18l504 1352l98 45l518 -1397l160 -18l-4 -41l-262 4l-272 -4l-4 41l178 20l-156 445h-516l-156 -445l181 -20l-5 -41l-219 4l-202 -4zM727 1571l123 272h192l-254 -272h-61z" />
    <glyph glyph-name="Acircumflex" unicode="&#xc2;" horiz-adv-x="1476" 
d="M918 563l-162 453l-68 239l-244 -692h474zM16 39l164 18l504 1352l98 45l518 -1397l160 -18l-4 -41l-262 4l-272 -4l-4 41l178 20l-156 445h-516l-156 -445l181 -20l-5 -41l-219 4l-202 -4zM686 1849h94l240 -278h-62l-213 155l-14 13l-10 -13l-211 -155h-61z" />
    <glyph glyph-name="Atilde" unicode="&#xc3;" horiz-adv-x="1476" 
d="M918 563l-162 453l-68 239l-244 -692h474zM16 39l164 18l504 1352l98 45l518 -1397l160 -18l-4 -41l-262 4l-272 -4l-4 41l178 20l-156 445h-516l-156 -445l181 -20l-5 -41l-219 4l-202 -4zM487 1774l138 43l358 -138l68 144h30l-49 -197l-139 -45l-356 139l-70 -145h-31
z" />
    <glyph glyph-name="Adieresis" unicode="&#xc4;" horiz-adv-x="1476" 
d="M918 563l-162 453l-68 239l-244 -692h474zM16 39l164 18l504 1352l98 45l518 -1397l160 -18l-4 -41l-262 4l-272 -4l-4 41l178 20l-156 445h-516l-156 -445l181 -20l-5 -41l-219 4l-202 -4zM868 1620l-8 90l17 74l110 10l45 -10l10 -86l-16 -78l-111 -8zM428 1620l-10 90
l16 74l111 10l47 -10l8 -86l-16 -78l-111 -8z" />
    <glyph glyph-name="Aring" unicode="&#xc5;" horiz-adv-x="1476" 
d="M918 563l-162 453l-68 239l-244 -692h474zM16 39l164 18l504 1352l98 45l518 -1397l160 -18l-4 -41l-262 4l-272 -4l-4 41l178 20l-156 445h-516l-156 -445l181 -20l-5 -41l-219 4l-202 -4zM930 1689q0 -84 -54.5 -125t-152.5 -71q-137 0 -171 68.5t-34 116.5
q0 84 54 124.5t153 69.5q133 0 169 -67.5t36 -115.5zM723 1546q59 0 97 37t38 99t-38 99.5t-97 37.5t-96 -37.5t-37 -99.5t37 -99t96 -37z" />
    <glyph glyph-name="AE" unicode="&#xc6;" horiz-adv-x="2000" 
d="M1047 664h-416l-369 -605l170 -20l-4 -41l-215 4l-197 -4l-6 41l162 18l864 1379l107 -4l762 4l10 -367h-41l-121 307l-518 2v-663l266 4l84 227h41l-10 -250l10 -260h-41l-84 226l-266 4v-611l537 4l133 318h43l-35 -379l-770 4l-273 -4l-6 41l183 20v605zM1047 715v649
l-385 -649h385z" />
    <glyph glyph-name="Ccedilla" unicode="&#xc7;" horiz-adv-x="1406" 
d="M758.5 -201q-44.5 30 -109.5 35l94 135q-276 17 -467.5 212.5t-191.5 524.5t199.5 526.5t541.5 235.5q145 0 273.5 -43t208.5 -94v-289h-60l-92 230q-135 135 -356 135t-364.5 -176t-143.5 -479t147.5 -510t415.5 -207q92 0 168 39t119 80l116 258h62l-29 -297
q-232 -111 -424 -140q-16 -4 -39.5 -5t-40.5 -5l-43 -65q61 -4 114.5 -41t53.5 -93q0 -88 -51.5 -136.5t-124.5 -75.5l-123 -46h-84l54 76h157q31 20 47.5 56t16.5 83q0 46 -44.5 76z" />
    <glyph glyph-name="Egrave" unicode="&#xc8;" horiz-adv-x="1255" 
d="M61 39l183 20v1317l-183 19l5 41l282 -4l805 4l8 -365h-37l-123 305l-573 2v-602l326 4l84 228h39l-11 -250l11 -262h-39l-84 225l-326 4v-670l592 4l135 314h41l-37 -375l-811 4l-282 -4zM416 1843h192l121 -272h-61z" />
    <glyph glyph-name="Eacute" unicode="&#xc9;" horiz-adv-x="1255" 
d="M61 39l183 20v1317l-183 19l5 41l282 -4l805 4l8 -365h-37l-123 305l-573 2v-602l326 4l84 228h39l-11 -250l11 -262h-39l-84 225l-326 4v-670l592 4l135 314h41l-37 -375l-811 4l-282 -4zM754 1843h192l-252 -272h-63z" />
    <glyph glyph-name="Ecircumflex" unicode="&#xca;" horiz-adv-x="1255" 
d="M61 39l183 20v1317l-183 19l5 41l282 -4l805 4l8 -365h-37l-123 305l-573 2v-602l326 4l84 228h39l-11 -250l11 -262h-39l-84 225l-326 4v-670l592 4l135 314h41l-37 -375l-811 4l-282 -4zM655 1849h97l237 -278h-61l-213 155l-13 13l-12 -13l-211 -155h-59z" />
    <glyph glyph-name="Edieresis" unicode="&#xcb;" horiz-adv-x="1255" 
d="M61 39l183 20v1317l-183 19l5 41l282 -4l805 4l8 -365h-37l-123 305l-573 2v-602l326 4l84 228h39l-11 -250l11 -262h-39l-84 225l-326 4v-670l592 4l135 314h41l-37 -375l-811 4l-282 -4zM846 1620l-10 90l16 74l113 10l45 -10l8 -86l-19 -78l-110 -8zM403 1620l-10 90
l17 74l112 10l45 -10l8 -86l-18 -78l-111 -8z" />
    <glyph glyph-name="Igrave" unicode="&#xcc;" horiz-adv-x="677" 
d="M342 2l-270 -4l-4 43l182 18v1317l-182 19l4 41l270 -4l270 4l4 -41l-182 -19v-1317l182 -18l-4 -43zM354 1571l-252 272h193l123 -272h-64z" />
    <glyph glyph-name="Iacute" unicode="&#xcd;" horiz-adv-x="677" 
d="M342 2l-270 -4l-4 43l182 18v1317l-182 19l4 41l270 -4l270 4l4 -41l-182 -19v-1317l182 -18l-4 -43zM311 1571l123 272h193l-252 -272h-64z" />
    <glyph glyph-name="Icircumflex" unicode="&#xce;" horiz-adv-x="677" 
d="M342 2l-270 -4l-4 43l182 18v1317l-182 19l4 41l270 -4l270 4l4 -41l-182 -19v-1317l182 -18l-4 -43zM57 1571l236 278h96l238 -278h-60l-213 155l-14 13l-10 -13l-211 -155h-62z" />
    <glyph glyph-name="Idieresis" unicode="&#xcf;" horiz-adv-x="677" 
d="M342 2l-270 -4l-4 43l182 18v1317l-182 19l4 41l270 -4l270 4l4 -41l-182 -19v-1317l182 -18l-4 -43zM588 1794l47 -10l8 -86l-18 -78l-111 -8l-45 8l-8 90l16 74zM170 1794l45 -10l10 -86l-18 -78l-111 -8l-45 8l-8 90l14 74z" />
    <glyph glyph-name="Eth" unicode="&#xd0;" horiz-adv-x="1486" 
d="M1064 1206.5q-136 179.5 -402 179.5l-226 -12v-604h279v-45h-279v-657l269 -17q222 0 358.5 186.5t136.5 488.5q0 301 -136 480.5zM252 725h-170v45h170v606l-191 19l5 41l303 -4l356 4q319 0 499.5 -182t180.5 -509q0 -328 -177.5 -525.5t-514.5 -221.5l-344 4l-303 -4
l-5 41l191 20v666z" />
    <glyph glyph-name="Ntilde" unicode="&#xd1;" horiz-adv-x="1470" 
d="M1266 -8h-103l-796 1222l-48 113v-1268l181 -20l-6 -41l-203 4l-225 -4l-5 41l183 20v1307l-178 29l6 41l194 -4l164 4l717 -1088l45 -88v1116l-178 19l4 41l203 -4l223 4l6 -41l-184 -19v-1384zM524 1774l138 43l356 -138l69 144h31l-51 -197l-135 -45l-359 139
l-69 -145h-29z" />
    <glyph glyph-name="Ograve" unicode="&#xd2;" horiz-adv-x="1564" 
d="M432.5 248q141.5 -209 386.5 -209q219 0 338 180t119 467t-141 498t-387 211q-217 0 -337 -179t-120 -469t141.5 -499zM84 700q0 660 719 768q297 0 488.5 -207t191.5 -529q0 -659 -721 -767q-150 0 -275 55.5t-264 206.5t-139 473zM793 1571l-252 272h192l123 -272h-63z
" />
    <glyph glyph-name="Oacute" unicode="&#xd3;" horiz-adv-x="1564" 
d="M432.5 248q141.5 -209 386.5 -209q219 0 338 180t119 467t-141 498t-387 211q-217 0 -337 -179t-120 -469t141.5 -499zM84 700q0 660 719 768q297 0 488.5 -207t191.5 -529q0 -659 -721 -767q-150 0 -275 55.5t-264 206.5t-139 473zM727 1571l123 272h192l-251 -272h-64z
" />
    <glyph glyph-name="Ocircumflex" unicode="&#xd4;" horiz-adv-x="1564" 
d="M432.5 248q141.5 -209 386.5 -209q219 0 338 180t119 467t-141 498t-387 211q-217 0 -337 -179t-120 -469t141.5 -499zM84 700q0 660 719 768q297 0 488.5 -207t191.5 -529q0 -659 -721 -767q-150 0 -275 55.5t-264 206.5t-139 473zM504 1571l235 278h97l237 -278h-61
l-211 155l-15 13l-12 -13l-211 -155h-59z" />
    <glyph glyph-name="Otilde" unicode="&#xd5;" horiz-adv-x="1564" 
d="M432.5 248q141.5 -209 386.5 -209q219 0 338 180t119 467t-141 498t-387 211q-217 0 -337 -179t-120 -469t141.5 -499zM84 700q0 660 719 768q297 0 488.5 -207t191.5 -529q0 -659 -721 -767q-150 0 -275 55.5t-264 206.5t-139 473zM549 1774l135 43l358 -138l70 144h29
l-49 -197l-138 -45l-358 139l-68 -145h-30z" />
    <glyph glyph-name="Odieresis" unicode="&#xd6;" horiz-adv-x="1564" 
d="M432.5 248q141.5 -209 386.5 -209q219 0 338 180t119 467t-141 498t-387 211q-217 0 -337 -179t-120 -469t141.5 -499zM84 700q0 660 719 768q297 0 488.5 -207t191.5 -529q0 -659 -721 -767q-150 0 -275 55.5t-264 206.5t-139 473zM944 1784l111 10l45 -10l10 -86
l-18 -78l-111 -8l-45 8l-10 90zM502 1784l110 10l45 -10l11 -86l-19 -78l-110 -8l-45 8l-11 90z" />
    <glyph glyph-name="multiply" unicode="&#xd7;" 
d="M993 51l-358 361l-359 -361l-61 60l360 358l-360 360l61 60l359 -359l356 359l62 -60l-359 -360l359 -356z" />
    <glyph glyph-name="Oslash" unicode="&#xd8;" horiz-adv-x="1564" 
d="M446 227q144 -188 368 -188t343 180t119 458t-119 472zM1126 1196q-143 199 -369 199t-346 -179t-120 -461t123 -479zM1483 745q0 -334 -177.5 -529.5t-543.5 -250.5q-238 0 -412 135l-102 -131h-72l131 170q-106 98 -164.5 239.5t-58.5 309.5q0 334 176 529.5t543 250.5
q244 0 422 -145l110 141h66l-135 -176q102 -98 159.5 -237.5t57.5 -305.5z" />
    <glyph glyph-name="Ugrave" unicode="&#xd9;" horiz-adv-x="1413" 
d="M207 506v870l-182 19l4 41l276 -4l264 4l6 -41l-178 -19v-901q0 -300 138.5 -362t230.5 -62q164 0 255 117t91 311v897l-180 19l4 41l227 -4l217 4l6 -41l-176 -19v-880q0 -214 -106.5 -345t-382.5 -186q-514 0 -514 541zM754 1571l-252 272h192l123 -272h-63z" />
    <glyph glyph-name="Uacute" unicode="&#xda;" horiz-adv-x="1413" 
d="M207 506v870l-182 19l4 41l276 -4l264 4l6 -41l-178 -19v-901q0 -300 138.5 -362t230.5 -62q164 0 255 117t91 311v897l-180 19l4 41l227 -4l217 4l6 -41l-176 -19v-880q0 -214 -106.5 -345t-382.5 -186q-514 0 -514 541zM694 1571l123 272h193l-254 -272h-62z" />
    <glyph glyph-name="Ucircumflex" unicode="&#xdb;" horiz-adv-x="1413" 
d="M207 506v870l-182 19l4 41l276 -4l264 4l6 -41l-178 -19v-901q0 -300 138.5 -362t230.5 -62q164 0 255 117t91 311v897l-180 19l4 41l227 -4l217 4l6 -41l-176 -19v-880q0 -214 -106.5 -345t-382.5 -186q-514 0 -514 541zM985 1571l-213 155l-14 13l-10 -13l-211 -155
h-62l236 278h96l237 -278h-59z" />
    <glyph glyph-name="Udieresis" unicode="&#xdc;" horiz-adv-x="1413" 
d="M207 506v870l-182 19l4 41l276 -4l264 4l6 -41l-178 -19v-901q0 -300 138.5 -362t230.5 -62q164 0 255 117t91 311v897l-180 19l4 41l227 -4l217 4l6 -41l-176 -19v-880q0 -214 -106.5 -345t-382.5 -186q-514 0 -514 541zM1016 1794l47 -10l8 -86l-16 -78l-111 -8l-45 8
l-10 90l16 74zM573 1794l48 -10l8 -86l-17 -78l-110 -8l-45 8l-11 90l19 74z" />
    <glyph glyph-name="Yacute" unicode="&#xdd;" horiz-adv-x="1425" 
d="M815 573l2 -514l232 -20l-5 -41l-319 4l-328 -4l-4 41l240 20v502l-463 817l-160 19l6 39l275 -4l268 4l6 -39l-184 -21l373 -661l26 -68l385 729l-194 21l4 39l237 -4l197 4l6 -39l-160 -17zM731 1571l123 272h193l-252 -272h-64z" />
    <glyph glyph-name="Thorn" unicode="&#xde;" horiz-adv-x="1200" 
d="M432 389h184q153 0 249 101.5t96 257.5q0 233 -114 284t-200 51l-215 -6v-688zM1165 764q0 -180 -143 -287t-354 -147h-236v-271l213 -18l-4 -43l-295 4l-274 -4l-6 43l182 18v1317l-182 19l6 41l274 -4l258 4l6 -41l-178 -19v-243l287 2q307 0 376.5 -137.5t69.5 -233.5
z" />
    <glyph glyph-name="germandbls" unicode="&#xdf;" horiz-adv-x="1169" 
d="M979 224q0 101 -143 202l-127 88q-162 113 -170 293l127 74q66 39 113.5 112.5t47.5 172.5t-56 171t-166 72t-170 -89t-60 -257v-1063l-72 2l-229 -4l-6 35l145 16v836h-162v24l62 37l100 2v78q0 174 91 259t157 116l149 69q276 0 333.5 -101t57.5 -165
q0 -123 -83 -208.5t-240 -153.5q4 -55 35.5 -103.5t117.5 -103.5l134 -90q90 -57 126.5 -117t36.5 -128q0 -124 -102.5 -215.5t-241.5 -119.5q-90 0 -168.5 32t-119.5 60l-7 234h60l74 -182q94 -74 178 -74q126 0 152 69.5t26 119.5z" />
    <glyph glyph-name="agrave" unicode="&#xe0;" horiz-adv-x="923" 
d="M764 242q0 -96 37 -170l108 8l4 -39l-256 -51l-49 168l-266 -189q-127 0 -204 65.5t-77 177.5t89 202l450 149v111q0 114 -27.5 164.5t-132.5 50.5q-64 0 -155 -31l-43 -184h-150v145l361 166q186 0 248.5 -66t62.5 -253v-424zM231 254q0 -84 40 -124t101 -40t148 62
l80 55v309l-301 -121q-68 -57 -68 -141zM535 1110l-263 352h191l112 -352h-40z" />
    <glyph glyph-name="aacute" unicode="&#xe1;" horiz-adv-x="923" 
d="M764 242q0 -96 37 -170l108 8l4 -39l-256 -51l-49 168l-266 -189q-127 0 -204 65.5t-77 177.5t89 202l450 149v111q0 114 -27.5 164.5t-132.5 50.5q-64 0 -155 -31l-43 -184h-150v145l361 166q186 0 248.5 -66t62.5 -253v-424zM231 254q0 -84 40 -124t101 -40t148 62
l80 55v309l-301 -121q-68 -57 -68 -141zM418 1110l110 352h191l-260 -352h-41z" />
    <glyph glyph-name="acircumflex" unicode="&#xe2;" horiz-adv-x="923" 
d="M764 242q0 -96 37 -170l108 8l4 -39l-256 -51l-49 168l-266 -189q-127 0 -204 65.5t-77 177.5t89 202l450 149v111q0 114 -27.5 164.5t-132.5 50.5q-64 0 -155 -31l-43 -184h-150v145l361 166q186 0 248.5 -66t62.5 -253v-424zM231 254q0 -84 40 -124t101 -40t148 62
l80 55v309l-301 -121q-68 -57 -68 -141zM168 1110l235 365h82l238 -365h-41l-238 227l-237 -227h-39z" />
    <glyph glyph-name="atilde" unicode="&#xe3;" horiz-adv-x="923" 
d="M764 242q0 -96 37 -170l108 8l4 -39l-256 -51l-49 168l-266 -189q-127 0 -204 65.5t-77 177.5t89 202l450 149v111q0 114 -27.5 164.5t-132.5 50.5q-64 0 -155 -31l-43 -184h-150v145l361 166q186 0 248.5 -66t62.5 -253v-424zM231 254q0 -84 40 -124t101 -40t148 62
l80 55v309l-301 -121q-68 -57 -68 -141zM176 1389l137 45l361 -144l59 144h37l-51 -203l-135 -39l-361 145l-59 -145h-37z" />
    <glyph glyph-name="adieresis" unicode="&#xe4;" horiz-adv-x="923" 
d="M764 242q0 -96 37 -170l108 8l4 -39l-256 -51l-49 168l-266 -189q-127 0 -204 65.5t-77 177.5t89 202l450 149v111q0 114 -27.5 164.5t-132.5 50.5q-64 0 -155 -31l-43 -184h-150v145l361 166q186 0 248.5 -66t62.5 -253v-424zM231 254q0 -84 40 -124t101 -40t148 62
l80 55v309l-301 -121q-68 -57 -68 -141zM657 1395l45 -9l11 -88l-19 -75l-110 -11l-45 11l-9 90l15 73zM307 1395l45 -9l10 -88l-18 -75l-111 -11l-45 11l-8 90l17 73z" />
    <glyph glyph-name="aring" unicode="&#xe5;" horiz-adv-x="923" 
d="M764 242q0 -96 37 -170l108 8l4 -39l-256 -51l-49 168l-266 -189q-127 0 -204 65.5t-77 177.5t89 202l450 149v111q0 114 -27.5 164.5t-132.5 50.5q-64 0 -155 -31l-43 -184h-150v145l361 166q186 0 248.5 -66t62.5 -253v-424zM231 254q0 -84 40 -124t101 -40t148 62
l80 55v309l-301 -121q-68 -57 -68 -141zM315 1293q0 -62 38 -100t97.5 -38t97.5 38t38 100t-38 99.5t-97.5 37.5t-97.5 -37.5t-38 -99.5zM655 1299q0 -86 -52.5 -125t-151.5 -70q-138 0 -171.5 68.5t-33.5 116.5q0 83 50 122t155 72q132 0 168 -68t36 -116z" />
    <glyph glyph-name="ae" unicode="&#xe6;" horiz-adv-x="1441" 
d="M231 253q0 -85 41.5 -125t89.5 -40t84.5 23.5t65.5 44.5l86 65q-2 4 -3 20.5t-4 44.5t-3 54v20l-2 158l-287 -121q-68 -59 -68 -144zM984 913q-109 0 -165 -88.5t-65 -238.5l417 10q0 155 -27.5 211.5t-64.5 81t-95 24.5zM61 213q0 55 18.5 102t70.5 99l434 149v111
q0 108 -24.5 161.5t-108.5 53.5t-164 -31l-41 -188h-152v149l357 166q127 0 189 -29.5t87 -115.5q97 94 297 145q336 0 336 -375v-71h-608q0 -205 94 -320t254 -115q107 0 250 93l18 -45q-157 -114 -350 -183q-119 0 -224.5 53.5t-164.5 163.5l-285 -217q-125 0 -204 65.5
t-79 178.5z" />
    <glyph glyph-name="ccedilla" unicode="&#xe7;" horiz-adv-x="894" 
d="M525 -29q-5 0 -7 -2l-45 -69q63 -4 115.5 -41t52.5 -93q0 -89 -51.5 -138.5t-122.5 -73.5l-125 -46h-82l53 76h156q33 20 49.5 56t16.5 70q0 112 -156 124l96 137q-178 17 -286.5 142t-108.5 345t135.5 353t339.5 174q98 0 173 -43t97 -61v-181h-127l-67 189
q-46 26 -107 26q-123 0 -202.5 -103.5t-79.5 -286.5t92 -303t244 -120q119 0 249 95l17 -41q-138 -112 -312 -183q-2 -2 -7 -2z" />
    <glyph glyph-name="egrave" unicode="&#xe8;" horiz-adv-x="948" 
d="M526 1110l-260 352h189l112 -352h-41zM475 913q-111 0 -170 -90t-69 -233l448 10q0 155 -30.5 210.5t-71.5 79t-107 23.5zM535 -31q-192 0 -326.5 130.5t-134.5 355.5t122.5 355.5t323.5 174.5q181 0 264.5 -101.5t83.5 -275.5v-65h-635q0 -205 98.5 -322t268.5 -117
q120 0 258 91l19 -43q-156 -115 -342 -183z" />
    <glyph glyph-name="eacute" unicode="&#xe9;" horiz-adv-x="948" 
d="M496 1110l112 352h189l-260 -352h-41zM475 913q-111 0 -170 -90t-69 -233l448 10q0 155 -30.5 210.5t-71.5 79t-107 23.5zM535 -31q-192 0 -326.5 130.5t-134.5 355.5t122.5 355.5t323.5 174.5q181 0 264.5 -101.5t83.5 -275.5v-65h-635q0 -205 98.5 -322t268.5 -117
q120 0 258 91l19 -43q-156 -115 -342 -183z" />
    <glyph glyph-name="ecircumflex" unicode="&#xea;" horiz-adv-x="948" 
d="M240 1110l235 365h82l238 -365h-39l-240 227l-18 -20l-219 -207h-39zM475 913q-111 0 -170 -90t-69 -233l448 10q0 155 -30.5 210.5t-71.5 79t-107 23.5zM535 -31q-192 0 -326.5 130.5t-134.5 355.5t122.5 355.5t323.5 174.5q181 0 264.5 -101.5t83.5 -275.5v-65h-635
q0 -205 98.5 -322t268.5 -117q120 0 258 91l19 -43q-156 -115 -342 -183z" />
    <glyph glyph-name="edieresis" unicode="&#xeb;" horiz-adv-x="948" 
d="M371 1395l47 -9l8 -88l-16 -75l-111 -11l-45 11l-10 90l18 73zM721 1395l47 -9l8 -88l-16 -75l-111 -11l-45 11l-10 90l16 73zM475 913q-111 0 -170 -90t-69 -233l448 10q0 155 -30.5 210.5t-71.5 79t-107 23.5zM535 -31q-192 0 -326.5 130.5t-134.5 355.5t122.5 355.5
t323.5 174.5q181 0 264.5 -101.5t83.5 -275.5v-65h-635q0 -205 98.5 -322t268.5 -117q120 0 258 91l19 -43q-156 -115 -342 -183z" />
    <glyph glyph-name="igrave" unicode="&#xec;" horiz-adv-x="567" 
d="M299 2l-223 -4l-4 41l141 16v819l-145 -24l-7 39l261 74l55 4v-912l149 -16l-4 -41zM309 1110l-262 352h191l112 -352h-41z" />
    <glyph glyph-name="iacute" unicode="&#xed;" horiz-adv-x="567" 
d="M299 2l-223 -4l-4 41l141 16v819l-145 -24l-7 39l261 74l55 4v-912l149 -16l-4 -41zM262 1110l111 352h190l-262 -352h-39z" />
    <glyph glyph-name="icircumflex" unicode="&#xee;" horiz-adv-x="567" 
d="M299 2l-223 -4l-4 41l141 16v819l-145 -24l-7 39l261 74l55 4v-912l149 -16l-4 -41zM8 1110l236 365h82l237 -365h-39l-219 207l-20 20l-236 -227h-41z" />
    <glyph glyph-name="idieresis" unicode="&#xef;" horiz-adv-x="569" 
d="M301 2l-223 -4l-4 41l141 16v819l-145 -24l-7 39l261 74l55 4v-912l149 -16l-4 -41zM496 1395l47 -9l8 -88l-16 -75l-111 -11l-45 11l-10 90l16 73zM145 1395l48 -9l8 -88l-17 -75l-110 -11l-45 11l-11 90l19 73z" />
    <glyph glyph-name="eth" unicode="&#xf0;" horiz-adv-x="1060" 
d="M240 462q0 -190 69.5 -303.5t201.5 -113.5t208 121t84 295q6 102 -10 203q-67 77 -109 113q-90 79 -202 79t-177 -102t-65 -292zM983 520q0 -230 -125.5 -382.5t-341.5 -168.5q-221 31 -338 169.5t-117 343.5q0 204 112 333t321 146l286 -156q-49 274 -231 448l-262 -127
v66l209 100q-68 58 -145 95.5t-97 44.5l22 43q205 -77 299 -144l228 111v-64l-172 -86q352 -270 352 -772z" />
    <glyph glyph-name="ntilde" unicode="&#xf1;" horiz-adv-x="1171" 
d="M975 684v-629l162 -16l-7 -41l-233 4l-186 -4l-4 41l104 16v627q0 96 -35 134t-98 38t-114.5 -26.5t-112.5 -67.5l-74 -45v-660l112 -16l-6 -41l-184 4l-223 -4l-6 41l143 16v819l-145 -24l-7 41l261 72l47 4l6 -199l336 217q155 -4 210 -67q54 -62 54 -234zM336 1389
l137 43l358 -144l62 144h35l-51 -203l-136 -37l-360 145l-59 -145h-37z" />
    <glyph glyph-name="ograve" unicode="&#xf2;" horiz-adv-x="1077" 
d="M248 495q0 -189 89 -323.5t223 -134.5t202.5 116t68.5 313t-89.5 323t-229.5 126q-193 0 -228.5 -164.5t-35.5 -255.5zM74 455q0 436 487 530q198 0 321.5 -138.5t123.5 -356.5q0 -219 -127 -349.5t-361 -171.5q-198 0 -321 138t-123 348zM588 1110l-262 352h190
l113 -352h-41z" />
    <glyph glyph-name="oacute" unicode="&#xf3;" horiz-adv-x="1077" 
d="M248 495q0 -189 89 -323.5t223 -134.5t202.5 116t68.5 313t-89.5 323t-229.5 126q-193 0 -228.5 -164.5t-35.5 -255.5zM74 455q0 436 487 530q198 0 321.5 -138.5t123.5 -356.5q0 -219 -127 -349.5t-361 -171.5q-198 0 -321 138t-123 348zM541 1110l110 352h191
l-262 -352h-39z" />
    <glyph glyph-name="ocircumflex" unicode="&#xf4;" horiz-adv-x="1077" 
d="M248 495q0 -189 89 -323.5t223 -134.5t202.5 116t68.5 313t-89.5 323t-229.5 126q-193 0 -228.5 -164.5t-35.5 -255.5zM74 455q0 436 487 530q198 0 321.5 -138.5t123.5 -356.5q0 -219 -127 -349.5t-361 -171.5q-198 0 -321 138t-123 348zM274 1110l236 365h82l235 -365
h-39l-237 227l-238 -227h-39z" />
    <glyph glyph-name="otilde" unicode="&#xf5;" horiz-adv-x="1077" 
d="M248 495q0 -189 89 -323.5t223 -134.5t202.5 116t68.5 313t-89.5 323t-229.5 126q-193 0 -228.5 -164.5t-35.5 -255.5zM74 455q0 436 487 530q198 0 321.5 -138.5t123.5 -356.5q0 -219 -127 -349.5t-361 -171.5q-198 0 -321 138t-123 348zM287 1389l137 43l358 -144
l62 144h35l-52 -203l-135 -37l-360 145l-60 -145h-36z" />
    <glyph glyph-name="odieresis" unicode="&#xf6;" horiz-adv-x="1077" 
d="M248 495q0 -189 89 -323.5t223 -134.5t202.5 116t68.5 313t-89.5 323t-229.5 126q-193 0 -228.5 -164.5t-35.5 -255.5zM74 455q0 436 487 530q198 0 321.5 -138.5t123.5 -356.5q0 -219 -127 -349.5t-361 -171.5q-198 0 -321 138t-123 348zM752 1395l47 -9l8 -88l-19 -75
l-110 -11l-45 11l-8 90l16 73zM401 1395l48 -9l8 -88l-17 -75l-112 -11l-43 11l-11 90l17 73z" />
    <glyph glyph-name="divide" unicode="&#xf7;" 
d="M96 543h1078v-86h-1078v86zM680 965l51 -9l8 -96l-12 -86l-129 -10l-49 10l-10 98l10 84zM680 217l51 -8l8 -96l-12 -86l-129 -11l-49 11l-10 100l10 82z" />
    <glyph glyph-name="oslash" unicode="&#xf8;" horiz-adv-x="1071" 
d="M510 915q-193 0 -228.5 -164.5t-35.5 -282.5t53 -230l449 536q-89 141 -238 141zM829 443q0 174 -57 288l-448 -543q88 -151 241 -151q127 0 195.5 116t68.5 290zM1004 491q0 -220 -127 -350.5t-361 -171.5q-165 0 -289 105l-77 -94h-66l109 131q-121 133 -121 344
q0 436 487 530q162 0 281 -100l82 98h61l-109 -131q130 -141 130 -361z" />
    <glyph glyph-name="ugrave" unicode="&#xf9;" horiz-adv-x="1122" 
d="M338 268q0 -172 131 -172q61 0 113.5 27t111.5 67l72 43v644l-135 -15l-4 45l252 51l51 5v-701q0 -102 26 -186l111 6l4 -39l-256 -51l-45 180l-326 -203q-170 4 -220 72.5t-50 241.5v594l-147 -15l-7 45l265 51l53 5v-695zM567 1110l-262 352h189l112 -352h-39z" />
    <glyph glyph-name="uacute" unicode="&#xfa;" horiz-adv-x="1122" 
d="M338 268q0 -172 131 -172q61 0 113.5 27t111.5 67l72 43v644l-135 -15l-4 45l252 51l51 5v-701q0 -102 26 -186l111 6l4 -39l-256 -51l-45 180l-326 -203q-170 4 -220 72.5t-50 241.5v594l-147 -15l-7 45l265 51l53 5v-695zM500 1110l112 352h189l-262 -352h-39z" />
    <glyph glyph-name="ucircumflex" unicode="&#xfb;" horiz-adv-x="1122" 
d="M338 268q0 -172 131 -172q61 0 113.5 27t111.5 67l72 43v644l-135 -15l-4 45l252 51l51 5v-701q0 -102 26 -186l111 6l4 -39l-256 -51l-45 180l-326 -203q-170 4 -220 72.5t-50 241.5v594l-147 -15l-7 45l265 51l53 5v-695zM788 1110l-237 227l-238 -227h-39l236 365h82
l237 -365h-41z" />
    <glyph glyph-name="udieresis" unicode="&#xfc;" horiz-adv-x="1122" 
d="M338 268q0 -172 131 -172q61 0 113.5 27t111.5 67l72 43v644l-135 -15l-4 45l252 51l51 5v-701q0 -102 26 -186l111 6l4 -39l-256 -51l-45 180l-326 -203q-170 4 -220 72.5t-50 241.5v594l-147 -15l-7 45l265 51l53 5v-695zM758 1395l47 -9l8 -88l-18 -75l-111 -11
l-45 11l-8 90l16 73zM408 1395l47 -9l8 -88l-17 -75l-112 -11l-43 11l-10 90l16 73z" />
    <glyph glyph-name="yacute" unicode="&#xfd;" horiz-adv-x="1083" 
d="M178 -481v176h182l207 356l-96 -43l-336 891l-125 16l6 39l217 -2l209 2l7 -39l-132 -16l244 -676l25 -110l272 786l-121 16l6 39l170 -2l156 2l4 -39l-131 -16l-315 -848l-236 -532h-213zM559 1110l111 352h188l-260 -352h-39z" />
    <glyph glyph-name="thorn" unicode="&#xfe;" horiz-adv-x="1093" 
d="M842 445q0 183 -62.5 298t-173.5 115q-53 0 -98 -24.5t-107 -67.5l-53 -39v-580q33 -51 89.5 -81.5t127.5 -30.5q125 2 201 114.5t76 295.5zM1018 507q0 -223 -126 -359t-355 -179q-114 0 -189 56v-441l213 -16l-4 -41l-285 4l-227 -4l-6 41l145 16v1788l-145 -22l-6 36
l260 72l55 4v-678l277 201q184 0 288.5 -127.5t104.5 -350.5z" />
    <glyph glyph-name="ydieresis" unicode="&#xff;" horiz-adv-x="1083" 
d="M178 -481v176h182l207 356l-96 -43l-336 891l-125 16l6 39l217 -2l209 2l7 -39l-132 -16l244 -676l25 -110l272 786l-121 16l6 39l170 -2l156 2l4 -39l-131 -16l-315 -848l-236 -532h-213zM793 1395l47 -9l8 -88l-19 -75l-110 -11l-43 11l-10 90l16 73zM442 1395l47 -9
l9 -88l-17 -75l-110 -11l-45 11l-11 90l17 73z" />
    <glyph glyph-name="Amacron" unicode="&#x100;" horiz-adv-x="1476" 
d="M918 563l-162 453l-68 239l-244 -692h474zM16 39l164 18l504 1352l98 45l518 -1397l160 -18l-4 -41l-262 4l-272 -4l-4 41l178 20l-156 445h-516l-156 -445l181 -20l-5 -41l-219 4l-202 -4zM455 1720h573v-82h-573v82z" />
    <glyph glyph-name="amacron" unicode="&#x101;" horiz-adv-x="923" 
d="M764 242q0 -96 37 -170l108 8l4 -39l-256 -51l-49 168l-266 -189q-127 0 -204 65.5t-77 177.5t89 202l450 149v111q0 114 -27.5 164.5t-132.5 50.5q-64 0 -155 -31l-43 -184h-150v145l361 166q186 0 248.5 -66t62.5 -253v-424zM231 254q0 -84 40 -124t101 -40t148 62
l80 55v309l-301 -121q-68 -57 -68 -141zM152 1372h571v-80h-571v80z" />
    <glyph glyph-name="Abreve" unicode="&#x102;" horiz-adv-x="1476" 
d="M918 563l-162 453l-68 239l-244 -692h474zM16 39l164 18l504 1352l98 45l518 -1397l160 -18l-4 -41l-262 4l-272 -4l-4 41l178 20l-156 445h-516l-156 -445l181 -20l-5 -41l-219 4l-202 -4zM1001 1780q-64 -159 -237 -236q-153 0 -216 99.5t-79 136.5l33 22
q78 -149 235 -149q121 0 171 63.5t67 85.5z" />
    <glyph glyph-name="abreve" unicode="&#x103;" horiz-adv-x="923" 
d="M764 242q0 -96 37 -170l108 8l4 -39l-256 -51l-49 168l-266 -189q-127 0 -204 65.5t-77 177.5t89 202l450 149v111q0 114 -27.5 164.5t-132.5 50.5q-64 0 -155 -31l-43 -184h-150v145l361 166q186 0 248.5 -66t62.5 -253v-424zM231 254q0 -84 40 -124t101 -40t148 62
l80 55v309l-301 -121q-68 -57 -68 -141zM444 1237q85 0 134.5 48t95.5 126l33 -25q-27 -61 -78 -128.5t-158 -133.5q-113 0 -190 81.5t-107 180.5l35 23q49 -111 118.5 -141.5t116.5 -30.5z" />
    <glyph glyph-name="Aogonek" unicode="&#x104;" horiz-adv-x="1476" 
d="M918 563l-162 453l-68 239l-244 -692h474zM1235 -492q-190 0 -270 52.5t-80 154.5v92l217 230l-162 467h-514l-158 -445l181 -20l-5 -41l-219 4l-202 -4l-7 41l164 18l504 1352l98 45l518 -1397l160 -18l-4 -41l-326 4l-108 -244v-77q0 -78 59.5 -106t153.5 -28v-39z" />
    <glyph glyph-name="aogonek" unicode="&#x105;" horiz-adv-x="923" 
d="M231 254q0 -84 40 -124t101 -40t148 62l80 55v309l-301 -121q-68 -57 -68 -141zM764 242q0 -96 37 -170l108 8l4 -39l-204 -41l-127 -254v-65q0 -78 60 -106t153 -28v-39q-188 0 -268.5 52.5t-80.5 154.5v80l211 203l-49 160l-266 -189q-127 0 -204 65.5t-77 177.5
t89 202l450 149v111q0 114 -27.5 164.5t-132.5 50.5q-64 0 -155 -31l-43 -184h-150v145l361 166q186 0 248.5 -66t62.5 -253v-424z" />
    <glyph glyph-name="Cacute" unicode="&#x106;" horiz-adv-x="1406" 
d="M84 696q0 339 199.5 536.5t541.5 235.5q145 0 273.5 -43t208.5 -94v-289h-60l-92 230q-135 135 -356 135t-364.5 -176t-143.5 -479t147.5 -510t415.5 -207q92 0 168 39t119 80l116 258h62l-29 -297q-250 -120 -489 -150q-139 0 -269.5 48t-229.5 140.5t-158.5 229.5
t-59.5 313zM889 1843h192l-252 -272h-63z" />
    <glyph glyph-name="cacute" unicode="&#x107;" horiz-adv-x="894" 
d="M524 -31q-195 0 -319.5 126.5t-124.5 354.5t135.5 361t339.5 174q98 0 173 -43t97 -61v-181h-127l-67 189q-46 26 -107 26q-123 0 -202.5 -103.5t-79.5 -286.5t92 -303t244 -120q119 0 249 95l17 -41q-137 -113 -320 -187zM477 1110l111 352h190l-262 -352h-39z" />
    <glyph glyph-name="Ccircumflex" unicode="&#x108;" horiz-adv-x="1406" 
d="M84 696q0 339 199.5 536.5t541.5 235.5q145 0 273.5 -43t208.5 -94v-289h-60l-92 230q-135 135 -356 135t-364.5 -176t-143.5 -479t147.5 -510t415.5 -207q92 0 168 39t119 80l116 258h62l-29 -297q-250 -120 -489 -150q-139 0 -269.5 48t-229.5 140.5t-158.5 229.5
t-59.5 313zM766 1849h96l238 -278h-62l-213 155l-12 13l-12 -13l-211 -155h-62z" />
    <glyph glyph-name="ccircumflex" unicode="&#x109;" horiz-adv-x="894" 
d="M524 -31q-195 0 -319.5 126.5t-124.5 354.5t135.5 361t339.5 174q98 0 173 -43t97 -61v-181h-127l-67 189q-46 26 -107 26q-123 0 -202.5 -103.5t-79.5 -286.5t92 -303t244 -120q119 0 249 95l17 -41q-137 -113 -320 -187zM248 1110l237 365h80l238 -365h-39l-240 227
l-18 -20l-217 -207h-41z" />
    <glyph glyph-name="Cdotaccent" unicode="&#x10a;" horiz-adv-x="1406" 
d="M84 696q0 339 199.5 536.5t541.5 235.5q145 0 273.5 -43t208.5 -94v-289h-60l-92 230q-135 135 -356 135t-364.5 -176t-143.5 -479t147.5 -510t415.5 -207q92 0 168 39t119 80l116 258h62l-29 -297q-250 -120 -489 -150q-139 0 -269.5 48t-229.5 140.5t-158.5 229.5
t-59.5 313zM713 1614l-11 102l19 86l135 10l47 -10l10 -100l-20 -88l-137 -10z" />
    <glyph glyph-name="cdotaccent" unicode="&#x10b;" horiz-adv-x="894" 
d="M524 -31q-195 0 -319.5 126.5t-124.5 354.5t135.5 361t339.5 174q98 0 173 -43t97 -61v-181h-127l-67 189q-46 26 -107 26q-123 0 -202.5 -103.5t-79.5 -286.5t92 -303t244 -120q119 0 249 95l17 -41q-137 -113 -320 -187zM434 1434l137 10l45 -10l11 -101l-19 -88
l-137 -10l-43 10l-12 103z" />
    <glyph glyph-name="Ccaron" unicode="&#x10c;" horiz-adv-x="1406" 
d="M84 696q0 339 199.5 536.5t541.5 235.5q145 0 273.5 -43t208.5 -94v-289h-60l-92 230q-135 135 -356 135t-364.5 -176t-143.5 -479t147.5 -510t415.5 -207q92 0 168 39t119 80l116 258h62l-29 -297q-250 -120 -489 -150q-139 0 -269.5 48t-229.5 140.5t-158.5 229.5
t-59.5 313zM573 1843l211 -155l11 -13l14 13l211 155h61l-237 -278h-96l-236 278h61z" />
    <glyph glyph-name="ccaron" unicode="&#x10d;" horiz-adv-x="894" 
d="M524 -31q-195 0 -319.5 126.5t-124.5 354.5t135.5 361t339.5 174q98 0 173 -43t97 -61v-181h-127l-67 189q-46 26 -107 26q-123 0 -202.5 -103.5t-79.5 -286.5t92 -303t244 -120q119 0 249 95l17 -41q-137 -113 -320 -187zM287 1483l217 -209l20 -21l238 230h41
l-238 -365h-82l-235 365h39z" />
    <glyph glyph-name="Dcaron" unicode="&#x10e;" horiz-adv-x="1486" 
d="M1064 1206.5q-136 179.5 -402 179.5l-226 -12v-1306l269 -17q222 0 358.5 186.5t136.5 488.5q0 301 -136 480.5zM1227.5 219.5q-177.5 -197.5 -514.5 -221.5l-344 4l-303 -4l-5 41l191 20v1317l-191 19l5 41l303 -4l356 4q319 0 499.5 -182t180.5 -509
q0 -328 -177.5 -525.5zM428 1843h61l211 -155l13 -13l12 13l213 155h59l-237 -278h-94z" />
    <glyph glyph-name="dcaron" unicode="&#x10f;" horiz-adv-x="1216" 
d="M324 807q-76 -113 -76 -297t65.5 -297t171.5 -113q47 0 90 19.5t109 66.5l57 45v600q-69 91 -205 90t-212 -114zM905 248q0 -88 37 -168l131 8l6 -41l-274 -57l-53 174l-281 -195q-179 0 -289 134.5t-110 347.5q0 214 123.5 355.5t357.5 178.5q80 0 188 -55v438l-141 -14
l-8 39l262 65l51 4v-1214zM1092 1276l-88 37l2 137h190l-4 -178l-148 -271l-38 13z" />
    <glyph glyph-name="Dcroat" unicode="&#x110;" horiz-adv-x="1486" 
d="M1064 1206.5q-136 179.5 -402 179.5l-226 -12v-600h279v-61h-279v-645l269 -17q222 0 358.5 186.5t136.5 488.5q0 301 -136 480.5zM252 713h-170v61h170v602l-191 19l5 41l303 -4l356 4q319 0 499.5 -182t180.5 -509q0 -328 -177.5 -525.5t-514.5 -221.5l-344 4l-303 -4
l-5 41l191 20v654z" />
    <glyph glyph-name="dcroat" unicode="&#x111;" horiz-adv-x="1120" 
d="M324 807q-76 -113 -76 -297t65.5 -297t171.5 -113q47 0 90 19.5t109 66.5l57 45v600q-69 91 -205 90t-212 -114zM741 1169h-254v48h254v151l-141 -14l-8 39l262 65l51 4v-245h158v-48h-158v-921q0 -88 37 -168l131 8l6 -41l-274 -57l-53 174l-281 -195q-179 0 -289 134.5
t-110 347.5q0 214 123.5 355.5t357.5 178.5q80 0 188 -55v239z" />
    <glyph glyph-name="Emacron" unicode="&#x112;" horiz-adv-x="1255" 
d="M61 39l183 20v1317l-183 19l5 41l282 -4l805 4l8 -365h-37l-123 305l-573 2v-602l326 4l84 228h39l-11 -250l11 -262h-39l-84 225l-326 4v-670l592 4l135 314h41l-37 -375l-811 4l-282 -4zM399 1720h572v-82h-572v82z" />
    <glyph glyph-name="emacron" unicode="&#x113;" horiz-adv-x="948" 
d="M223 1372h574v-80h-574v80zM475 913q-111 0 -170 -90t-69 -233l448 10q0 155 -30.5 210.5t-71.5 79t-107 23.5zM535 -31q-192 0 -326.5 130.5t-134.5 355.5t122.5 355.5t323.5 174.5q181 0 264.5 -101.5t83.5 -275.5v-65h-635q0 -205 98.5 -322t268.5 -117q120 0 258 91
l19 -43q-156 -115 -342 -183z" />
    <glyph glyph-name="Ebreve" unicode="&#x114;" horiz-adv-x="1255" 
d="M61 39l183 20v1317l-183 19l5 41l282 -4l805 4l8 -365h-37l-123 305l-573 2v-602l326 4l84 228h39l-11 -250l11 -262h-39l-84 225l-326 4v-670l592 4l135 314h41l-37 -375l-811 4l-282 -4zM675.5 1653q140.5 0 242.5 149l28 -22q-63 -158 -239 -236q-191 0 -293 236
l30 22q91 -149 231.5 -149z" />
    <glyph glyph-name="ebreve" unicode="&#x115;" horiz-adv-x="948" 
d="M635.5 1278.5q48.5 41.5 97.5 118.5l33 -25q-27 -59 -78 -122.5t-158 -125.5q-107 0 -186 76t-111 172l35 23q48 -101 118.5 -129.5t135.5 -28.5t113.5 41.5zM475 913q-111 0 -170 -90t-69 -233l448 10q0 155 -30.5 210.5t-71.5 79t-107 23.5zM535 -31
q-192 0 -326.5 130.5t-134.5 355.5t122.5 355.5t323.5 174.5q181 0 264.5 -101.5t83.5 -275.5v-65h-635q0 -205 98.5 -322t268.5 -117q120 0 258 91l19 -43q-156 -115 -342 -183z" />
    <glyph glyph-name="Edotaccent" unicode="&#x116;" horiz-adv-x="1255" 
d="M61 39l183 20v1317l-183 19l5 41l282 -4l805 4l8 -365h-37l-123 305l-573 2v-602l326 4l84 228h39l-11 -250l11 -262h-39l-84 225l-326 4v-670l592 4l135 314h41l-37 -375l-811 4l-282 -4zM602 1618l-10 102l18 86l138 11l47 -11l8 -100l-19 -88l-137 -10z" />
    <glyph glyph-name="edotaccent" unicode="&#x117;" horiz-adv-x="948" 
d="M412 1434l137 10l47 -10l10 -101l-18 -88l-139 -10l-43 10l-11 103zM475 913q-111 0 -170 -90t-69 -233l448 10q0 155 -30.5 210.5t-71.5 79t-107 23.5zM535 -31q-192 0 -326.5 130.5t-134.5 355.5t122.5 355.5t323.5 174.5q181 0 264.5 -101.5t83.5 -275.5v-65h-635
q0 -205 98.5 -322t268.5 -117q120 0 258 91l19 -43q-156 -115 -342 -183z" />
    <glyph glyph-name="Eogonek" unicode="&#x118;" horiz-adv-x="1255" 
d="M1130 -492q-188 0 -268 51.5t-80 155.5v80l195 205l-633 2l-278 -4l-5 41l183 20v1317l-183 19l5 41l280 -4l807 4l8 -365h-37l-123 305l-573 2v-602l326 4l84 228h39l-11 -250l11 -262h-39l-84 225l-326 4v-670l592 4l135 314h41l-37 -375l-131 2l-108 -254v-65
q0 -78 60 -106t150 -28v-39z" />
    <glyph glyph-name="eogonek" unicode="&#x119;" horiz-adv-x="948" 
d="M475 913q-111 0 -170 -90t-69 -233l448 10q0 155 -30.5 210.5t-71.5 79t-107 23.5zM600 104q120 0 258 91l19 -43q-111 -82 -244 -148l-123 -233v-90q0 -78 63.5 -106t161.5 -28v-39q-197 0 -278.5 52.5t-81.5 154.5v76l170 178q-198 0 -334.5 128t-136.5 355.5
t122.5 358t323.5 174.5q181 0 264.5 -101.5t83.5 -275.5v-65h-635q0 -205 98.5 -322t268.5 -117z" />
    <glyph glyph-name="Ecaron" unicode="&#x11a;" horiz-adv-x="1255" 
d="M61 39l183 20v1317l-183 19l5 41l282 -4l805 4l8 -365h-37l-123 305l-573 2v-602l326 4l84 228h39l-11 -250l11 -262h-39l-84 225l-326 4v-670l592 4l135 314h41l-37 -375l-811 4l-282 -4zM412 1843h61l211 -155l12 -13l13 13l213 155h59l-236 -278h-96z" />
    <glyph glyph-name="ecaron" unicode="&#x11b;" horiz-adv-x="948" 
d="M272 1485l217 -209l19 -21l240 230h38l-237 -365h-82l-236 365h41zM475 913q-111 0 -170 -90t-69 -233l448 10q0 155 -30.5 210.5t-71.5 79t-107 23.5zM535 -31q-192 0 -326.5 130.5t-134.5 355.5t122.5 355.5t323.5 174.5q181 0 264.5 -101.5t83.5 -275.5v-65h-635
q0 -205 98.5 -322t268.5 -117q120 0 258 91l19 -43q-156 -115 -342 -183z" />
    <glyph glyph-name="Gcircumflex" unicode="&#x11c;" horiz-adv-x="1497" 
d="M788 -35q-297 0 -500.5 196t-203.5 536t198 537t539 234q219 0 335 -58t147 -79v-289h-54l-92 226q-139 139 -379 139q-92 0 -187 -48t-197.5 -184t-102.5 -434t145.5 -504t392.5 -206q104 0 182.5 42t116.5 85v436l-176 22l4 39l254 -4l230 4l4 -39l-131 -22v-483
q-303 -127 -525 -146zM530 1571l236 278h96l238 -278h-62l-211 155l-14 13l-10 -13l-211 -155h-62z" />
    <glyph glyph-name="gcircumflex" unicode="&#x11d;" horiz-adv-x="1011" 
d="M219 1110l236 365h82l237 -365h-41l-237 227l-236 -227h-41zM666 623q0 190 -77 243.5t-153 53.5t-123 -63.5t-47 -178.5q0 -179 77 -231t153 -52t123 61t47 167zM199 -221q0 -84 71.5 -136.5t165.5 -51.5q163 2 269 79t106 187q0 59 -43 89.5t-147 30.5h-312
q-97 -97 -103.5 -139.5t-6.5 -58.5zM836 692q0 -265 -383 -362q-55 0 -99 12l-106 -115q0 -53 27.5 -78.5t74.5 -25.5h367q127 0 184 -56.5t57 -131.5q0 -135 -136.5 -251t-364.5 -184q-213 0 -314.5 67.5t-101.5 211.5v33l225 178q-136 41 -150 104.5t-14 98.5v16l201 145
q-92 33 -149.5 102.5t-57.5 180.5t90 202t293 144q98 0 181 -38t126 -103l115 141h100v-162h-141l-47 -26q23 -49 23 -103z" />
    <glyph glyph-name="Gbreve" unicode="&#x11e;" horiz-adv-x="1497" 
d="M788 -35q-297 0 -500.5 196t-203.5 536t198 537t539 234q219 0 335 -58t147 -79v-289h-54l-92 226q-139 139 -379 139q-92 0 -187 -48t-197.5 -184t-102.5 -434t145.5 -504t392.5 -206q104 0 182.5 42t116.5 85v436l-176 22l4 39l254 -4l230 4l4 -39l-131 -22v-483
q-303 -127 -525 -146zM575 1802q91 -149 231.5 -149t242.5 149l28 -22q-63 -158 -239 -236q-191 0 -293 236z" />
    <glyph glyph-name="gbreve" unicode="&#x11f;" horiz-adv-x="1011" 
d="M483 1239q117 0 165 66.5t63 91.5l34 -23q-29 -59 -80 -122.5t-157 -125.5q-109 0 -187 77t-108 169l33 25q88 -158 237 -158zM666 623q0 190 -77 243.5t-153 53.5t-123 -63.5t-47 -178.5q0 -179 77 -231t153 -52t123 61t47 167zM199 -221q0 -84 71.5 -136.5t165.5 -51.5
q163 2 269 79t106 187q0 59 -43 89.5t-147 30.5h-312q-97 -97 -103.5 -139.5t-6.5 -58.5zM836 692q0 -265 -383 -362q-55 0 -99 12l-106 -115q0 -53 27.5 -78.5t74.5 -25.5h367q127 0 184 -56.5t57 -131.5q0 -135 -136.5 -251t-364.5 -184q-213 0 -314.5 67.5t-101.5 211.5
v33l225 178q-136 41 -150 104.5t-14 98.5v16l201 145q-92 33 -149.5 102.5t-57.5 180.5t90 202t293 144q98 0 181 -38t126 -103l115 141h100v-162h-141l-47 -26q23 -49 23 -103z" />
    <glyph glyph-name="Gdotaccent" unicode="&#x120;" horiz-adv-x="1497" 
d="M788 -35q-297 0 -500.5 196t-203.5 536t198 537t539 234q219 0 335 -58t147 -79v-289h-54l-92 226q-139 139 -379 139q-92 0 -187 -48t-197.5 -184t-102.5 -434t145.5 -504t392.5 -206q104 0 182.5 42t116.5 85v436l-176 22l4 39l254 -4l230 4l4 -39l-131 -22v-483
q-303 -127 -525 -146zM729 1616l-10 102l18 86l135 11l48 -11l8 -100l-19 -88l-137 -10z" />
    <glyph glyph-name="gdotaccent" unicode="&#x121;" horiz-adv-x="1011" 
d="M393 1434l135 10l47 -10l11 -101l-21 -88l-135 -10l-45 10l-10 103zM666 623q0 190 -77 243.5t-153 53.5t-123 -63.5t-47 -178.5q0 -179 77 -231t153 -52t123 61t47 167zM199 -221q0 -84 71.5 -136.5t165.5 -51.5q163 2 269 79t106 187q0 59 -43 89.5t-147 30.5h-312
q-97 -97 -103.5 -139.5t-6.5 -58.5zM836 692q0 -265 -383 -362q-55 0 -99 12l-106 -115q0 -53 27.5 -78.5t74.5 -25.5h367q127 0 184 -56.5t57 -131.5q0 -135 -136.5 -251t-364.5 -184q-213 0 -314.5 67.5t-101.5 211.5v33l225 178q-136 41 -150 104.5t-14 98.5v16l201 145
q-92 33 -149.5 102.5t-57.5 180.5t90 202t293 144q98 0 181 -38t126 -103l115 141h100v-162h-141l-47 -26q23 -49 23 -103z" />
    <glyph glyph-name="Gcommaaccent" unicode="&#x122;" horiz-adv-x="1497" 
d="M788 -35q-297 0 -500.5 196t-203.5 536t198 537t539 234q219 0 335 -58t147 -79v-289h-54l-92 226q-139 139 -379 139q-92 0 -187 -48t-197.5 -184t-102.5 -434t145.5 -504t392.5 -206q104 0 182.5 42t116.5 85v436l-176 22l4 39l254 -4l230 4l4 -39l-131 -22v-483
q-303 -127 -525 -146zM707 -102h182v-160l-152 -215l-41 12l76 209l-65 61v93z" />
    <glyph glyph-name="gcommaaccent" unicode="&#x123;" horiz-adv-x="1011" 
d="M569 1120h-180v162l150 213l43 -12l-78 -207l65 -64v-92zM666 623q0 190 -77 243.5t-153 53.5t-123 -63.5t-47 -178.5q0 -179 77 -231t153 -52t123 61t47 167zM199 -221q0 -84 71.5 -136.5t165.5 -51.5q163 2 269 79t106 187q0 59 -43 89.5t-147 30.5h-312
q-97 -97 -103.5 -139.5t-6.5 -58.5zM836 692q0 -265 -383 -362q-55 0 -99 12l-106 -115q0 -53 27.5 -78.5t74.5 -25.5h367q127 0 184 -56.5t57 -131.5q0 -135 -136.5 -251t-364.5 -184q-213 0 -314.5 67.5t-101.5 211.5v33l225 178q-136 41 -150 104.5t-14 98.5v16l201 145
q-92 33 -149.5 102.5t-57.5 180.5t90 202t293 144q98 0 181 -38t126 -103l115 141h100v-162h-141l-47 -26q23 -49 23 -103z" />
    <glyph glyph-name="Hcircumflex" unicode="&#x124;" horiz-adv-x="1533" 
d="M428 774h684v602l-184 19l6 41l272 -4l262 4l7 -41l-179 -19v-1317l179 -20l-7 -41l-262 4l-272 -4l-6 41l184 20v656h-684v-656l178 -20l-6 -41l-264 4l-270 -4l-5 41l183 20v1317l-183 19l5 41l270 -4l264 4l6 -41l-178 -19v-602zM494 1571l237 278h96l238 -278h-61
l-213 155l-13 13l-12 -13l-211 -155h-61z" />
    <glyph glyph-name="hcircumflex" unicode="&#x125;" horiz-adv-x="1169" 
d="M825 682q-1 172 -131 172q-60 0 -113 -26.5t-116 -67.5l-76 -43v-662l113 -16l-6 -41l-183 4l-225 -4l-6 41l143 16v1313l-141 -14l-6 39l256 65l55 4v-690l336 213q158 0 211 -74.5t53 -248.5v-607l160 -16l-6 -41l-234 4l-184 -4l-4 41l104 16v627zM16 1571l238 278h96
l236 -278h-60l-213 155l-12 13l-12 -13l-213 -155h-60z" />
    <glyph glyph-name="Hbar" unicode="&#x126;" horiz-adv-x="1533" 
d="M1112 774v205h-684v-205h684zM428 1024h684v352l-184 19l6 41l272 -4l262 4l7 -41l-179 -19v-1317l179 -20l-7 -41l-262 4l-272 -4l-6 41l184 20v656h-684v-656l178 -20l-6 -41l-264 4l-270 -4l-5 41l183 20v1317l-183 19l5 41l270 -4l264 4l6 -41l-178 -19v-352z" />
    <glyph glyph-name="hbar" unicode="&#x127;" horiz-adv-x="1169" 
d="M811 682q0 172 -131 172q-59 0 -112.5 -26.5t-116.5 -67.5l-76 -43v-662l112 -16l-6 -41l-182 4l-225 -4l-6 41l143 16v1110h-148v45h148v158l-141 -14l-7 39l256 65l56 4v-252h287v-45h-287v-393l336 213q159 0 211.5 -75.5t52.5 -247.5v-607l160 -16l-7 -41l-233 4
l-184 -4l-4 41l104 16v627z" />
    <glyph glyph-name="Itilde" unicode="&#x128;" horiz-adv-x="677" 
d="M342 2l-270 -4l-4 43l182 18v1317l-182 19l4 41l270 -4l270 4l4 -41l-182 -19v-1317l182 -18l-4 -43zM82 1774l137 43l359 -138l69 144h29l-49 -197l-138 -45l-358 139l-70 -145h-28z" />
    <glyph glyph-name="itilde" unicode="&#x129;" horiz-adv-x="567" 
d="M299 2l-223 -4l-4 41l141 16v819l-145 -24l-7 39l261 74l55 4v-912l149 -16l-4 -41zM12 1389l135 43l361 -144l61 144h35l-51 -203l-135 -37l-363 145l-59 -145h-37z" />
    <glyph glyph-name="Imacron" unicode="&#x12a;" horiz-adv-x="677" 
d="M342 2l-270 -4l-4 43l182 18v1317l-182 19l4 41l270 -4l270 4l4 -41l-182 -19v-1317l182 -18l-4 -43zM55 1720h572v-82h-572v82z" />
    <glyph glyph-name="imacron" unicode="&#x12b;" horiz-adv-x="567" 
d="M299 2l-223 -4l-4 41l141 16v819l-145 -24l-7 39l261 74l55 4v-912l149 -16l-4 -41zM-2 1372h573v-80h-573v80z" />
    <glyph glyph-name="Ibreve" unicode="&#x12c;" horiz-adv-x="677" 
d="M342 2l-270 -4l-4 43l182 18v1317l-182 19l4 41l270 -4l270 4l4 -41l-182 -19v-1317l182 -18l-4 -43zM109 1802q88 -145 220.5 -145t185 62.5t67.5 82.5l28 -22q-37 -77 -87.5 -134t-151.5 -102q-191 0 -293 236z" />
    <glyph glyph-name="ibreve" unicode="&#x12d;" horiz-adv-x="567" 
d="M299 2l-223 -4l-4 41l141 16v819l-145 -24l-7 39l261 74l55 4v-912l149 -16l-4 -41zM278 1239q144 0 232 158l35 -23q-27 -59 -79 -122.5t-157 -125.5q-112 0 -188 76t-109 170l33 25q89 -158 233 -158z" />
    <glyph glyph-name="Iogonek" unicode="&#x12e;" horiz-adv-x="671" 
d="M264 -319q0 -78 61.5 -106t153.5 -28v-39q-188 0 -269 52.5t-81 154.5v78l193 209l-256 -4l-5 43l183 18v1317l-183 19l5 41l270 -4l270 4l4 -41l-182 -19v-1317l182 -18l-4 -43l-235 4l-107 -256v-65z" />
    <glyph glyph-name="iogonek" unicode="&#x12f;" horiz-adv-x="567" 
d="M211 1413l129 10l51 -10l10 -100l-18 -90l-129 -11l-49 11l-12 104zM221 -319q0 -78 60.5 -106t152.5 -28v-39q-188 0 -268 52.5t-80 154.5v82l190 205l-200 -4l-4 41l141 16v819l-145 -24l-7 39l261 74l55 4v-912l149 -16l-4 -41l-194 4l-107 -256v-65z" />
    <glyph glyph-name="Idotaccent" unicode="&#x130;" horiz-adv-x="677" 
d="M342 2l-270 -4l-4 43l182 18v1317l-182 19l4 41l270 -4l270 4l4 -41l-182 -19v-1317l182 -18l-4 -43zM256 1804l135 11l47 -11l11 -100l-19 -88l-137 -10l-45 10l-10 102z" />
    <glyph glyph-name="dotlessi" unicode="&#x131;" horiz-adv-x="567" 
d="M299 2l-223 -4l-4 41l141 16v819l-145 -24l-7 39l261 74l55 4v-912l149 -16l-4 -41z" />
    <glyph glyph-name="IJ" unicode="&#x132;" horiz-adv-x="1202" 
d="M342 4l-270 -4l-4 41l182 18v1317l-182 19l4 41l270 -4l213 4l4 -41l-125 -19v-1317l180 -18l-6 -41zM971 201q0 -104 -17.5 -177t-70.5 -135l-209 -247h-148v184h211l19 41q24 48 26 153t2 185v1171l-141 21l4 39l234 -4l262 4l4 -41l-176 -19v-1175z" />
    <glyph glyph-name="ij" unicode="&#x133;" horiz-adv-x="964" 
d="M299 2l-223 -4l-6 41l143 16v819l-145 -24l-7 39l261 74l55 4v-912l149 -16l-6 -41zM655 -74v948l-145 -24l-8 41l262 72l55 4v-1004q0 -72 -18.5 -121t-65.5 -106l-180 -219h-152v161h207l15 37q30 81 30 211zM651 1413l129 10l51 -10l11 -100l-19 -90l-129 -11l-49 11
l-12 104zM209 1413l129 10l51 -10l10 -100l-18 -90l-129 -11l-49 11l-13 104z" />
    <glyph glyph-name="Jcircumflex" unicode="&#x134;" horiz-adv-x="671" 
d="M444 190q0 -123 -22.5 -196.5t-75.5 -134.5l-190 -217h-156v165h223l13 43q18 61 20 160t2 178v1188l-217 19l6 41l303 -4l266 4l5 -41l-177 -19v-1186zM59 1571l238 278h96l236 -278h-60l-213 155l-12 13l-12 -13l-211 -155h-62z" />
    <glyph glyph-name="jcircumflex" unicode="&#x135;" horiz-adv-x="524" 
d="M215 -74v948l-145 -24l-9 41l263 72l55 4v-1004q0 -72 -18.5 -121t-65.5 -106l-182 -219h-152v161h211l12 37q31 84 31 211zM2 1110l236 365h81l238 -365h-41l-237 227l-236 -227h-41z" />
    <glyph glyph-name="Kcommaaccent" unicode="&#x136;" horiz-adv-x="1411" 
d="M477 791l619 585l-168 19l6 41l209 -4l186 4l6 -41l-164 -23l-636 -610l90 6l643 -713l121 -16l-5 -41l-206 4l-121 -4l-598 682l-31 47v-668l164 -20l-4 -41l-252 4l-270 -4l-5 41l183 20v1317l-183 19l5 41l270 -4l252 4l4 -41l-164 -19v-622zM621 -102h180v-160
l-150 -215l-43 12l78 209l-65 61v93z" />
    <glyph glyph-name="kcommaaccent" unicode="&#x137;" horiz-adv-x="1079" 
d="M903 2l-117 -4l-385 475l-26 43v-461l127 -16l-4 -41l-199 4l-227 -4l-4 41l143 16v1311l-141 -14l-9 41l258 65l56 4v-919l55 35l375 321l-94 16v39l157 -2l152 2l6 -39l-123 -16l-432 -354h84l422 -492l92 -14l-4 -41zM483 -102h181v-160l-152 -215l-41 12l76 209
l-64 61v93z" />
    <glyph glyph-name="kgreenlandic" unicode="&#x138;" horiz-adv-x="1071" 
d="M893 2l-115 -4l-377 471l-26 45v-459l127 -16l-4 -41l-199 4l-227 -4l-4 41l143 16v809l-141 -20l-9 41l258 69l56 4v-411l51 31l383 321l-94 16v39l164 -2l147 2l4 -39l-121 -16l-393 -319l37 -37l414 -490l94 -14l-4 -41z" />
    <glyph glyph-name="Lacute" unicode="&#x139;" horiz-adv-x="1167" 
d="M344 2l-278 -4l-5 41l183 20v1317l-183 19l5 41l274 -4l266 4l4 -41l-182 -19v-1319l537 4l133 316h45l-35 -379zM311 1571l123 272h193l-252 -272h-64z" />
    <glyph glyph-name="lacute" unicode="&#x13a;" horiz-adv-x="555" 
d="M295 2l-221 -4l-6 41l143 16v1311l-141 -14l-7 41l256 65l56 4v-1407l149 -16l-6 -41zM266 1546l99 322h192l-254 -322h-37z" />
    <glyph glyph-name="Lcommaaccent" unicode="&#x13b;" horiz-adv-x="1167" 
d="M344 2l-278 -4l-5 41l183 20v1317l-183 19l5 41l274 -4l266 4l4 -41l-182 -19v-1319l537 4l133 316h45l-35 -379zM573 -102h181v-160l-150 -215l-43 12l78 209l-66 61v93z" />
    <glyph glyph-name="lcommaaccent" unicode="&#x13c;" horiz-adv-x="555" 
d="M295 2l-221 -4l-6 41l143 16v1311l-141 -14l-7 41l256 65l56 4v-1407l149 -16l-6 -41zM205 -102h180v-160l-149 -215l-43 12l77 209l-65 61v93z" />
    <glyph glyph-name="Lcaron" unicode="&#x13d;" horiz-adv-x="1173" 
d="M344 2l-278 -4l-5 41l183 20v1317l-183 19l5 41l274 -4l266 4l4 -41l-182 -19v-1319l537 4l133 316h45l-35 -379zM909 958q39 90 70 182.5t31 102.5l-105 6l-10 109l12 88l140 8l57 -8l8 -105l-12 -92l-152 -305z" />
    <glyph glyph-name="lcaron" unicode="&#x13e;" horiz-adv-x="700" 
d="M295 2l-221 -4l-6 41l143 16v1311l-141 -14l-7 41l256 65l56 4v-1407l149 -16l-6 -41zM575 1276l-88 37l2 137h191l-4 -178l-148 -271l-39 13z" />
    <glyph glyph-name="Ldot" unicode="&#x13f;" horiz-adv-x="1167" 
d="M344 2l-278 -4l-5 41l183 20v1317l-183 19l5 41l274 -4l266 4l4 -41l-182 -19v-1319l537 4l133 316h45l-35 -379zM782 930l52 -8l8 -101l-21 -86l-129 -10l-49 10l-10 103l20 84z" />
    <glyph glyph-name="ldot" unicode="&#x140;" horiz-adv-x="745" 
d="M295 2l-221 -4l-6 41l143 16v1311l-141 -14l-7 41l256 65l56 4v-1407l149 -16l-6 -41zM672 930l49 -8l10 -101l-20 -88l-129 -10l-47 10l-11 103l17 86z" />
    <glyph glyph-name="Lslash" unicode="&#x141;" horiz-adv-x="1167" 
d="M344 2l-278 -4l-5 41l183 20v648l-181 -89v58l181 88v612l-183 19l5 41l274 -4l266 4l4 -41l-182 -19v-520l213 105v-56l-213 -106v-742l537 4l133 316h45l-35 -379z" />
    <glyph glyph-name="lslash" unicode="&#x142;" horiz-adv-x="555" 
d="M295 2l-221 -4l-6 41l143 16v678l-145 -71v51l145 71v582l-141 -14l-7 41l256 65l56 4v-598l147 74v-51l-147 -74v-758l149 -16l-6 -41z" />
    <glyph glyph-name="Nacute" unicode="&#x143;" horiz-adv-x="1470" 
d="M1266 -8h-103l-796 1222l-48 113v-1268l181 -20l-6 -41l-203 4l-225 -4l-5 41l183 20v1307l-178 29l6 41l194 -4l164 4l717 -1088l45 -88v1116l-178 19l4 41l203 -4l223 4l6 -41l-184 -19v-1384zM717 1571l123 272h192l-252 -272h-63z" />
    <glyph glyph-name="nacute" unicode="&#x144;" horiz-adv-x="1171" 
d="M975 684v-629l162 -16l-7 -41l-233 4l-186 -4l-4 41l104 16v627q0 96 -35 134t-98 38t-114.5 -26.5t-112.5 -67.5l-74 -45v-660l112 -16l-6 -41l-184 4l-223 -4l-6 41l143 16v819l-145 -24l-7 41l261 72l47 4l6 -199l336 217q155 -4 210 -67q54 -62 54 -234zM524 1110
l111 352h188l-260 -352h-39z" />
    <glyph glyph-name="Ncommaaccent" unicode="&#x145;" horiz-adv-x="1470" 
d="M1266 -8h-103l-796 1222l-48 113v-1268l181 -20l-6 -41l-203 4l-225 -4l-5 41l183 20v1307l-178 29l6 41l194 -4l164 4l717 -1088l45 -88v1116l-178 19l4 41l203 -4l223 4l6 -41l-184 -19v-1384zM672 -102h180v-160l-152 -215l-41 12l78 209l-65 61v93z" />
    <glyph glyph-name="ncommaaccent" unicode="&#x146;" horiz-adv-x="1171" 
d="M975 684v-629l162 -16l-7 -41l-233 4l-186 -4l-4 41l104 16v627q0 96 -35 134t-98 38t-114.5 -26.5t-112.5 -67.5l-74 -45v-660l112 -16l-6 -41l-184 4l-223 -4l-6 41l143 16v819l-145 -24l-7 41l261 72l47 4l6 -199l336 217q155 -4 210 -67q54 -62 54 -234zM502 -102
h180v-160l-152 -215l-41 12l78 209l-65 61v93z" />
    <glyph glyph-name="Ncaron" unicode="&#x147;" horiz-adv-x="1470" 
d="M1266 -8h-103l-796 1222l-48 113v-1268l181 -20l-6 -41l-203 4l-225 -4l-5 41l183 20v1307l-178 29l6 41l194 -4l164 4l717 -1088l45 -88v1116l-178 19l4 41l203 -4l223 4l6 -41l-184 -19v-1384zM549 1843l211 -155l12 -13l12 13l213 155h62l-238 -278h-96l-238 278h62z
" />
    <glyph glyph-name="ncaron" unicode="&#x148;" horiz-adv-x="1171" 
d="M975 684v-629l162 -16l-7 -41l-233 4l-186 -4l-4 41l104 16v627q0 96 -35 134t-98 38t-114.5 -26.5t-112.5 -67.5l-74 -45v-660l112 -16l-6 -41l-184 4l-223 -4l-6 41l143 16v819l-145 -24l-7 41l261 72l47 4l6 -199l336 217q155 -4 210 -67q54 -62 54 -234zM354 1485
l238 -230l237 230h41l-237 -365h-82l-236 365h39z" />
    <glyph glyph-name="napostrophe" unicode="&#x149;" horiz-adv-x="1171" 
d="M975 684v-629l162 -16l-7 -41l-233 4l-186 -4l-4 41l104 16v627q0 96 -35 134t-98 38t-114.5 -26.5t-112.5 -67.5l-74 -45v-660l112 -16l-6 -41l-184 4l-223 -4l-6 41l143 16v819l-145 -24l-7 41l261 72l47 4l6 -199l336 217q155 -4 210 -67q54 -62 54 -234zM147 1026
l84 254l-86 37l5 133h186l-4 -172l-146 -264z" />
    <glyph glyph-name="Eng" unicode="&#x14a;" horiz-adv-x="1470" 
d="M811 -481v157h152l163 258l88 58h-53l-799 1229l-43 112v-1274l177 -20l-7 -41l-200 4l-223 -4l-5 41l183 20v1307l-178 29l4 41l192 -4l170 4l707 -1074l53 -108v1122l-180 19l6 41l205 -4l221 4l6 -41l-184 -19v-1384l-240 -473h-215z" />
    <glyph glyph-name="eng" unicode="&#x14b;" horiz-adv-x="1097" 
d="M559 -483v170h211l14 37q27 91 27 215v743q0 96 -35 134t-98 38t-114.5 -26.5t-112.5 -65.5l-74 -47v-660l112 -16l-6 -41l-184 4l-223 -4l-6 41l143 16v819l-145 -24l-7 41l261 72l47 4l6 -199l336 217q150 0 207 -65t57 -232v-721q0 -97 -35 -150t-63 -89l-164 -211
h-154z" />
    <glyph glyph-name="Omacron" unicode="&#x14c;" horiz-adv-x="1564" 
d="M432.5 248q141.5 -209 386.5 -209q219 0 338 180t119 467t-141 498t-387 211q-217 0 -337 -179t-120 -469t141.5 -499zM84 700q0 660 719 768q297 0 488.5 -207t191.5 -529q0 -659 -721 -767q-150 0 -275 55.5t-264 206.5t-139 473zM489 1720h574v-82h-574v82z" />
    <glyph glyph-name="omacron" unicode="&#x14d;" horiz-adv-x="1077" 
d="M248 495q0 -189 89 -323.5t223 -134.5t202.5 116t68.5 313t-89.5 323t-229.5 126q-193 0 -228.5 -164.5t-35.5 -255.5zM74 455q0 436 487 530q198 0 321.5 -138.5t123.5 -356.5q0 -219 -127 -349.5t-361 -171.5q-198 0 -321 138t-123 348zM252 1372h573v-80h-573v80z" />
    <glyph glyph-name="Obreve" unicode="&#x14e;" horiz-adv-x="1564" 
d="M432.5 248q141.5 -209 386.5 -209q219 0 338 180t119 467t-141 498t-387 211q-217 0 -337 -179t-120 -469t141.5 -499zM84 700q0 660 719 768q297 0 488.5 -207t191.5 -529q0 -659 -721 -767q-150 0 -275 55.5t-264 206.5t-139 473zM796.5 1657q141.5 0 243.5 145l29 -22
q-37 -77 -85 -133t-155 -103q-190 0 -292 236l30 22q88 -145 229.5 -145z" />
    <glyph glyph-name="obreve" unicode="&#x14f;" horiz-adv-x="1077" 
d="M248 495q0 -189 89 -323.5t223 -134.5t202.5 116t68.5 313t-89.5 323t-229.5 126q-193 0 -228.5 -164.5t-35.5 -255.5zM74 455q0 436 487 530q198 0 321.5 -138.5t123.5 -356.5q0 -219 -127 -349.5t-361 -171.5q-198 0 -321 138t-123 348zM668 1279q50 40 100 118l33 -23
q-27 -59 -78 -122.5t-158 -125.5q-107 0 -185 75t-112 171l35 25q32 -66 93 -112t142 -46q80 0 130 40z" />
    <glyph glyph-name="Ohungarumlaut" unicode="&#x150;" horiz-adv-x="1564" 
d="M432.5 248q141.5 -209 386.5 -209q219 0 338 180t119 467t-141 498t-387 211q-217 0 -337 -179t-120 -469t141.5 -499zM84 700q0 660 719 768q297 0 488.5 -207t191.5 -529q0 -659 -721 -767q-150 0 -275 55.5t-264 206.5t-139 473zM909 1571l140 272h208l-286 -272h-62z
M600 1571l137 272h209l-284 -272h-62z" />
    <glyph glyph-name="ohungarumlaut" unicode="&#x151;" horiz-adv-x="1077" 
d="M248 495q0 -189 89 -323.5t223 -134.5t202.5 116t68.5 313t-89.5 323t-229.5 126q-193 0 -228.5 -164.5t-35.5 -255.5zM74 455q0 436 487 530q198 0 321.5 -138.5t123.5 -356.5q0 -219 -127 -349.5t-361 -171.5q-198 0 -321 138t-123 348zM678 1110l113 354h208
l-282 -354h-39zM360 1110l113 354h211l-283 -354h-41z" />
    <glyph glyph-name="OE" unicode="&#x152;" horiz-adv-x="1929" 
d="M257.5 1207.5q173.5 185.5 551.5 246.5l268 -20l760 2l8 -367h-37l-122 307l-531 2v-602l272 4l84 228h41l-10 -250l10 -262h-41l-84 225l-272 4v-670l543 4l133 318h43l-35 -379l-819 4l-250 -22q-301 0 -493.5 200t-192.5 521t173.5 506.5zM446 253.5
q155 -200.5 388 -200.5l137 2v1317l-223 12q-216 0 -336.5 -173.5t-120.5 -464.5q0 -292 155 -492.5z" />
    <glyph glyph-name="oe" unicode="&#x153;" horiz-adv-x="1703" 
d="M1235 913q-109 0 -166 -88t-70 -235l435 10q0 153 -29 209.5t-68 80t-102 23.5zM335 171.5q89 -134.5 223 -134.5t203.5 117.5t69.5 312.5q0 194 -89.5 320t-223.5 126t-203 -114.5t-69 -303.5t89 -323.5zM1622 610v-67h-623q0 -207 99.5 -323t267.5 -116q108 0 246 93
l18 -43q-159 -118 -346 -185q-117 0 -218 52.5t-165 156.5q-116 -157 -383 -209q-197 0 -320.5 136t-123.5 348q0 436 487 530q123 0 216 -56.5t151 -152.5q108 158 346 211q181 0 264.5 -100t83.5 -275z" />
    <glyph glyph-name="Racute" unicode="&#x154;" horiz-adv-x="1349" 
d="M428 725h137q184 0 282.5 95t98.5 247t-86 233.5t-223 85.5l-209 -12v-649zM1151 1079q0 -308 -475 -401l178 -66l375 -555l110 -20l-4 -39l-166 4l-129 -4l-424 641l-24 33h-164v-613l170 -20l-4 -41l-258 4l-270 -4l-5 41l183 20v1317l-183 19l5 41l270 -4l360 4
q312 0 383.5 -130t71.5 -227zM586 1571l123 272h192l-252 -272h-63z" />
    <glyph glyph-name="racute" unicode="&#x155;" horiz-adv-x="765" 
d="M733 975v-182h-178q-31 -6 -79 -56.5t-58 -62.5l-45 -60v-555l202 -16l-6 -45l-276 4l-217 -4l-4 41l141 16v819l-145 -22l-7 39l263 72l45 4v-285l223 293h141zM408 1110l110 352h191l-260 -352h-41z" />
    <glyph glyph-name="Rcommaaccent" unicode="&#x156;" horiz-adv-x="1349" 
d="M428 725h137q184 0 282.5 95t98.5 247t-86 233.5t-223 85.5l-209 -12v-649zM1151 1079q0 -308 -475 -401l178 -66l375 -555l110 -20l-4 -39l-166 4l-129 -4l-424 641l-24 33h-164v-613l170 -20l-4 -41l-258 4l-270 -4l-5 41l183 20v1317l-183 19l5 41l270 -4l360 4
q312 0 383.5 -130t71.5 -227zM631 -102h182v-160l-151 -215l-41 12l75 209l-65 61v93z" />
    <glyph glyph-name="rcommaaccent" unicode="&#x157;" horiz-adv-x="765" 
d="M733 975v-182h-178q-31 -6 -79 -56.5t-58 -62.5l-45 -60v-555l202 -16l-6 -45l-276 4l-217 -4l-4 41l141 16v819l-145 -22l-7 39l263 72l45 4v-285l223 293h141zM209 -102h180v-160l-151 -215l-41 12l77 209l-65 61v93z" />
    <glyph glyph-name="Rcaron" unicode="&#x158;" horiz-adv-x="1349" 
d="M428 725h137q184 0 282.5 95t98.5 247t-86 233.5t-223 85.5l-209 -12v-649zM1151 1079q0 -308 -475 -401l178 -66l375 -555l110 -20l-4 -39l-166 4l-129 -4l-424 641l-24 33h-164v-613l170 -20l-4 -41l-258 4l-270 -4l-5 41l183 20v1317l-183 19l5 41l270 -4l360 4
q312 0 383.5 -130t71.5 -227zM406 1843l210 -155l11 -13l14 13l213 155h59l-237 -278h-96l-236 278h62z" />
    <glyph glyph-name="rcaron" unicode="&#x159;" horiz-adv-x="770" 
d="M733 975v-182h-178q-31 -6 -79 -56.5t-58 -62.5l-45 -60v-555l202 -16l-6 -45l-276 4l-217 -4l-4 41l141 16v819l-145 -22l-7 39l263 72l45 4v-285l223 293h141zM195 1485l217 -209l18 -21l240 230h39l-236 -365h-82l-237 365h41z" />
    <glyph glyph-name="Sacute" unicode="&#x15a;" horiz-adv-x="1107" 
d="M958 1075h-53l-80 217q-107 107 -247 107t-213.5 -66.5t-73.5 -168.5t57.5 -161t153.5 -106l233 -115q139 -76 209 -157t70 -213q0 -233 -174.5 -323.5t-315.5 -123.5q-139 0 -235 35t-178 94l-23 293h76l80 -197q126 -145 336 -145q118 0 196 76t78 190t-60.5 185
t-172.5 127l-244 122q-127 62 -188.5 133.5t-61.5 190.5q0 231 180 306t281 93q210 0 370 -102v-291zM557 1571l123 272h192l-251 -272h-64z" />
    <glyph glyph-name="sacute" unicode="&#x15b;" horiz-adv-x="808" 
d="M713 678h-62l-73 184q-67 58 -175 58q-66 0 -112.5 -35t-46.5 -97t42 -99.5t109 -78.5l162 -90q102 -57 142 -114.5t38 -141.5q0 -121 -93 -188.5t-259 -106.5q-118 0 -200.5 40t-102.5 54l-21 234h72l90 -193q81 -67 178 -67t139 48t42 117t-40 107.5t-124 87.5l-162 92
q-164 90 -164 230q0 104 88 164.5t246 101.5q154 0 287 -86v-221zM365 1110l110 352h191l-260 -352h-41z" />
    <glyph glyph-name="Scircumflex" unicode="&#x15c;" horiz-adv-x="1107" 
d="M958 1075h-53l-80 217q-107 107 -247 107t-213.5 -66.5t-73.5 -168.5t57.5 -161t153.5 -106l233 -115q139 -76 209 -157t70 -213q0 -233 -174.5 -323.5t-315.5 -123.5q-139 0 -235 35t-178 94l-23 293h76l80 -197q126 -145 336 -145q118 0 196 76t78 190t-60.5 185
t-172.5 127l-244 122q-127 62 -188.5 133.5t-61.5 190.5q0 231 180 306t281 93q210 0 370 -102v-291zM311 1571l238 278h94l238 -278h-60l-213 155l-14 13l-10 -13l-213 -155h-60z" />
    <glyph glyph-name="scircumflex" unicode="&#x15d;" horiz-adv-x="808" 
d="M713 678h-62l-73 184q-67 58 -175 58q-66 0 -112.5 -35t-46.5 -97t42 -99.5t109 -78.5l162 -90q102 -57 142 -114.5t38 -141.5q0 -121 -93 -188.5t-259 -106.5q-118 0 -200.5 40t-102.5 54l-21 234h72l90 -193q81 -67 178 -67t139 48t42 117t-40 107.5t-124 87.5l-162 92
q-164 90 -164 230q0 104 88 164.5t246 101.5q154 0 287 -86v-221zM150 1110l233 365h84l235 -365h-38l-220 207l-18 20l-238 -227h-38z" />
    <glyph glyph-name="Scedilla" unicode="&#x15e;" horiz-adv-x="1107" 
d="M557 -289q0 112 -156 123l97 133q-129 2 -219.5 36t-167.5 91l-23 293h76l80 -197q126 -145 336 -145q118 0 196 76t78 190t-60.5 185t-172.5 127l-244 122q-127 62 -188.5 133.5t-61.5 190.5q0 231 180 306t281 93q210 0 370 -102v-291h-53l-80 217q-107 107 -247 107
t-213.5 -66.5t-73.5 -168.5t57.5 -161t153.5 -106l233 -115q139 -76 209 -157t70 -213q0 -326 -469 -441l-49 -71q110 -7 139 -60t29 -91q0 -71 -51.5 -120.5t-123.5 -74.5l-124 -46h-82l53 76h156q65 39 65 127z" />
    <glyph glyph-name="scedilla" unicode="&#x15f;" horiz-adv-x="808" 
d="M713 678h-62l-73 184q-67 58 -175 58q-66 0 -112.5 -35t-46.5 -97t42 -99.5t109 -78.5l162 -90q102 -57 142 -114.5t38 -141.5q0 -111 -82 -179.5t-229 -104.5l-51 -80q67 -4 118.5 -43t51.5 -92q0 -86 -52.5 -135t-123.5 -76l-123 -46h-84l53 76h158q31 20 47 56t16 70
q0 112 -153 124l92 135q-86 4 -168 35t-125 59l-21 234h72l90 -193q81 -67 178 -67t139 48t42 117t-40 107.5t-124 87.5l-162 92q-164 90 -164 230q0 104 88 164.5t246 101.5q154 0 287 -86v-221z" />
    <glyph glyph-name="Scaron" unicode="&#x160;" horiz-adv-x="1107" 
d="M958 1075h-53l-80 217q-107 107 -247 107t-213.5 -66.5t-73.5 -168.5t57.5 -161t153.5 -106l233 -115q139 -76 209 -157t70 -213q0 -233 -174.5 -323.5t-315.5 -123.5q-139 0 -235 35t-178 94l-23 293h76l80 -197q126 -145 336 -145q118 0 196 76t78 190t-60.5 185
t-172.5 127l-244 122q-127 62 -188.5 133.5t-61.5 190.5q0 231 180 306t281 93q210 0 370 -102v-291zM371 1843l213 -155l10 -13l14 13l211 155h62l-238 -278h-96l-236 278h60z" />
    <glyph glyph-name="scaron" unicode="&#x161;" horiz-adv-x="808" 
d="M713 678h-62l-73 184q-67 58 -175 58q-66 0 -112.5 -35t-46.5 -97t42 -99.5t109 -78.5l162 -90q102 -57 142 -114.5t38 -141.5q0 -121 -93 -188.5t-259 -106.5q-118 0 -200.5 40t-102.5 54l-21 234h72l90 -193q81 -67 178 -67t139 48t42 117t-40 107.5t-124 87.5l-162 92
q-164 90 -164 230q0 104 88 164.5t246 101.5q154 0 287 -86v-221zM180 1485l238 -230l239 230h39l-237 -365h-82l-236 365h39z" />
    <glyph glyph-name="Tcommaaccent" unicode="&#x162;" horiz-adv-x="1196" 
d="M506 1376h-322l-114 -313h-43v373l569 -4l573 4v-373h-43l-114 313h-322v-1317l213 -20l-4 -41l-301 4l-307 -4l-4 41l219 20v1317zM508 -102h180v-160l-149 -215l-41 12l75 209l-65 61v93z" />
    <glyph glyph-name="tcommaaccent" unicode="&#x163;" horiz-adv-x="681" 
d="M354 227q0 -131 117 -131q51 0 90 14.5t84 36.5l21 -38l-248 -140q-149 0 -188.5 60t-39.5 196v664h-180v26l35 33h150v148l139 110h18v-266h310v-51h-308v-662zM279 -102h180v-160l-150 -215l-43 12l78 209l-65 61v93z" />
    <glyph glyph-name="Tcaron" unicode="&#x164;" horiz-adv-x="1196" 
d="M506 1376h-322l-114 -313h-43v373l569 -4l573 4v-373h-43l-114 313h-322v-1317l213 -20l-4 -41l-301 4l-307 -4l-4 41l219 20v1317zM373 1843l211 -155l12 -13l12 13l213 155h62l-238 -278h-96l-238 278h62z" />
    <glyph glyph-name="tcaron" unicode="&#x165;" horiz-adv-x="755" 
d="M354 227q0 -131 117 -131q51 0 90 14.5t84 36.5l21 -38l-248 -140q-149 0 -188.5 60t-39.5 196v664h-180v26l35 33h150v148l139 110h18v-266h310v-51h-308v-662zM565 1044l80 236l-90 39l4 127h180l-4 -168l-129 -246z" />
    <glyph glyph-name="Tbar" unicode="&#x166;" horiz-adv-x="1196" 
d="M506 885h-219v45h219v446h-322l-114 -313h-43v373l569 -4l573 4v-373h-43l-114 313h-322v-446h219v-45h-219v-826l213 -20l-4 -41l-301 4l-307 -4l-4 41l219 20v826z" />
    <glyph glyph-name="tbar" unicode="&#x167;" horiz-adv-x="681" 
d="M354 227q0 -131 117 -131q51 0 90 14.5t84 36.5l21 -38l-248 -140q-149 0 -188.5 60t-39.5 196v391h-172v46h172v227h-180v26l35 33h150v148l139 110h18v-266h310v-51h-308v-227h273v-46h-273v-389z" />
    <glyph glyph-name="Utilde" unicode="&#x168;" horiz-adv-x="1413" 
d="M207 506v870l-182 19l4 41l276 -4l264 4l6 -41l-178 -19v-901q0 -300 138.5 -362t230.5 -62q164 0 255 117t91 311v897l-180 19l4 41l227 -4l217 4l6 -41l-176 -19v-880q0 -214 -106.5 -345t-382.5 -186q-514 0 -514 541zM506 1774l137 43l356 -138l70 144h31l-51 -197
l-136 -45l-358 139l-70 -145h-28z" />
    <glyph glyph-name="utilde" unicode="&#x169;" horiz-adv-x="1122" 
d="M338 268q0 -172 131 -172q61 0 113.5 27t111.5 67l72 43v644l-135 -15l-4 45l252 51l51 5v-701q0 -102 26 -186l111 6l4 -39l-256 -51l-45 180l-326 -203q-170 4 -220 72.5t-50 241.5v594l-147 -15l-7 45l265 51l53 5v-695zM291 1389l137 43l358 -144l62 144h37l-51 -203
l-136 -37l-362 145l-60 -145h-34z" />
    <glyph glyph-name="Umacron" unicode="&#x16a;" horiz-adv-x="1413" 
d="M207 506v870l-182 19l4 41l276 -4l264 4l6 -41l-178 -19v-901q0 -300 138.5 -362t230.5 -62q164 0 255 117t91 311v897l-180 19l4 41l227 -4l217 4l6 -41l-176 -19v-880q0 -214 -106.5 -345t-382.5 -186q-514 0 -514 541zM463 1720h571v-82h-571v82z" />
    <glyph glyph-name="umacron" unicode="&#x16b;" horiz-adv-x="1122" 
d="M338 268q0 -172 131 -172q61 0 113.5 27t111.5 67l72 43v644l-135 -15l-4 45l252 51l51 5v-701q0 -102 26 -186l111 6l4 -39l-256 -51l-45 180l-326 -203q-170 4 -220 72.5t-50 241.5v594l-147 -15l-7 45l265 51l53 5v-695zM262 1372h572v-80h-572v80z" />
    <glyph glyph-name="Ubreve" unicode="&#x16c;" horiz-adv-x="1413" 
d="M207 506v870l-182 19l4 41l276 -4l264 4l6 -41l-178 -19v-901q0 -300 138.5 -362t230.5 -62q164 0 255 117t91 311v897l-180 19l4 41l227 -4l217 4l6 -41l-176 -19v-880q0 -214 -106.5 -345t-382.5 -186q-514 0 -514 541zM751 1657q48 0 85.5 15.5t66.5 37t49.5 47
t36.5 45.5l27 -22q-64 -160 -238 -236q-187 0 -295 236l33 22q48 -92 117.5 -118.5t117.5 -26.5z" />
    <glyph glyph-name="ubreve" unicode="&#x16d;" horiz-adv-x="1122" 
d="M338 268q0 -172 131 -172q61 0 113.5 27t111.5 67l72 43v644l-135 -15l-4 45l252 51l51 5v-701q0 -102 26 -186l111 6l4 -39l-256 -51l-45 180l-326 -203q-170 4 -220 72.5t-50 241.5v594l-147 -15l-7 45l265 51l53 5v-695zM548 1239q144 0 232 158l35 -23
q-29 -59 -80 -122.5t-157 -125.5q-109 0 -187 77t-108 169l32 25q89 -158 233 -158z" />
    <glyph glyph-name="Uring" unicode="&#x16e;" horiz-adv-x="1413" 
d="M207 506v870l-182 19l4 41l276 -4l264 4l6 -41l-178 -19v-901q0 -300 138.5 -362t230.5 -62q164 0 255 117t91 311v897l-180 19l4 41l227 -4l217 4l6 -41l-176 -19v-880q0 -214 -106.5 -345t-382.5 -186q-514 0 -514 541zM625 1701q0 -62 36.5 -100t96 -38t97.5 37.5
t38 99.5t-38 99.5t-97.5 37.5t-96 -37t-36.5 -99zM915 1584q-50 -37 -157 -73q-138 0 -171.5 69t-33.5 117q0 83 53 123t152 70q83 0 145 -46.5t62 -134.5t-50 -125z" />
    <glyph glyph-name="uring" unicode="&#x16f;" horiz-adv-x="1122" 
d="M338 268q0 -172 131 -172q61 0 113.5 27t111.5 67l72 43v644l-135 -15l-4 45l252 51l51 5v-701q0 -102 26 -186l111 6l4 -39l-256 -51l-45 180l-326 -203q-170 4 -220 72.5t-50 241.5v594l-147 -15l-7 45l265 51l53 5v-695zM760 1294q0 -51 -16.5 -79.5t-44 -48
t-64.5 -33t-78 -29.5q-140 0 -173.5 66.5t-33.5 116.5q0 85 48.5 123t154.5 73q144 0 175.5 -69t31.5 -120zM422 1290.5q0 -59.5 37 -95.5t95 -36t96 36t38 95.5t-38 97t-96 37.5t-95 -37.5t-37 -97z" />
    <glyph glyph-name="Uhungarumlaut" unicode="&#x170;" horiz-adv-x="1415" 
d="M207 506v870l-182 19l4 41l276 -4l264 4l6 -41l-178 -19v-901q0 -300 138.5 -362t230.5 -62q164 0 255 117t91 311v897l-180 19l4 41l227 -4l217 4l6 -41l-176 -19v-880q0 -214 -106.5 -345t-382.5 -186q-514 0 -514 541zM856 1571l139 272h209l-284 -272h-64zM547 1571
l139 272h209l-287 -272h-61z" />
    <glyph glyph-name="uhungarumlaut" unicode="&#x171;" horiz-adv-x="1122" 
d="M338 268q0 -172 131 -172q61 0 113.5 27t111.5 67l72 43v644l-135 -15l-4 45l252 51l51 5v-701q0 -102 26 -186l111 6l4 -39l-256 -51l-45 180l-326 -203q-170 4 -220 72.5t-50 241.5v594l-147 -15l-7 45l265 51l53 5v-695zM666 1110l114 354h209l-282 -354h-41z
M350 1110l113 354h211l-285 -354h-39z" />
    <glyph glyph-name="Uogonek" unicode="&#x172;" horiz-adv-x="1413" 
d="M209 506v870l-182 19l4 41l276 -4l264 4l7 -41l-179 -19v-901q0 -296 138.5 -358t225.5 -62q163 0 257 114.5t94 309.5v897l-180 19l4 41l227 -4l217 4l7 -41l-177 -19v-880q0 -173 -67 -289t-232 -184l-145 -277v-65q0 -78 55.5 -106t143.5 -28v-39q-182 0 -258 51.5
t-76 155.5v78l194 201l-42 -10q-42 -11 -62 -15q-514 0 -514 537z" />
    <glyph glyph-name="uogonek" unicode="&#x173;" horiz-adv-x="1122" 
d="M338 268q0 -172 131 -172q61 0 113.5 27t111.5 67l72 43v644l-135 -15l-4 45l252 51l51 5v-701q0 -102 26 -186l111 6l4 -39l-199 -39l-127 -258v-65q0 -78 59.5 -106t153.5 -28v-39q-190 0 -270 52.5t-80 154.5v80l207 197l-45 180l-326 -203q-167 0 -210.5 58.5
t-51.5 114t-8 130.5v605l-147 -15l-7 45l265 51l53 5v-695z" />
    <glyph glyph-name="Wcircumflex" unicode="&#x174;" horiz-adv-x="2007" 
d="M145 1378l-122 17l4 41l225 -4l264 4l4 -41l-176 -19l328 -1052l20 -109l271 883l-95 280l-133 17l4 41l236 -4l264 4l4 -41l-176 -19l328 -1057l20 -102l361 1161l-183 17l6 41l224 -4l157 4l7 -41l-127 -17l-437 -1362l-98 -34l-303 921l-14 96l-308 -983l-98 -34z
M1221 1571l-213 155l-15 13l-10 -13l-213 -155h-59l237 278h94l238 -278h-59z" />
    <glyph glyph-name="wcircumflex" unicode="&#x175;" horiz-adv-x="1683" 
d="M862 592l-20 110l-234 -667l-143 -66l-330 930l-125 16l6 39l211 -2l197 2l6 -39l-119 -16l230 -682l28 -108l230 667l-43 123l-101 16l7 39l186 -2l196 2l5 -39l-119 -16l233 -688l25 -102l272 790l-123 16l6 39l152 -2l172 2l6 -39l-129 -16l-315 -864l-146 -66z
M571 1110l236 365h82l235 -365h-39l-237 227l-238 -227h-39z" />
    <glyph glyph-name="Ycircumflex" unicode="&#x176;" horiz-adv-x="1425" 
d="M815 573l2 -514l232 -20l-5 -41l-319 4l-328 -4l-4 41l240 20v502l-463 817l-160 19l6 39l275 -4l268 4l6 -39l-184 -21l373 -661l26 -68l385 729l-194 21l4 39l237 -4l197 4l6 -39l-160 -17zM987 1571l-213 155l-12 13l-12 -13l-211 -155h-62l238 278h96l238 -278h-62z
" />
    <glyph glyph-name="ycircumflex" unicode="&#x177;" horiz-adv-x="1083" 
d="M178 -481v176h182l207 356l-96 -43l-336 891l-125 16l6 39l217 -2l209 2l7 -39l-132 -16l244 -676l25 -110l272 786l-121 16l6 39l170 -2l156 2l4 -39l-131 -16l-315 -848l-236 -532h-213zM305 1110l236 365h82l237 -365h-41l-237 227l-238 -227h-39z" />
    <glyph glyph-name="Ydieresis" unicode="&#x178;" horiz-adv-x="1425" 
d="M815 573l2 -514l232 -20l-5 -41l-319 4l-328 -4l-4 41l240 20v502l-463 817l-160 19l6 39l275 -4l268 4l6 -39l-184 -21l373 -661l26 -68l385 729l-194 21l4 39l237 -4l197 4l6 -39l-160 -17zM1034 1794l45 -10l11 -86l-19 -78l-110 -8l-46 8l-8 90l17 74zM592 1794
l45 -10l10 -86l-18 -78l-111 -8l-45 8l-8 90l16 74z" />
    <glyph glyph-name="Zacute" unicode="&#x179;" horiz-adv-x="1155" 
d="M102 1065v369h977l11 -52l-795 -1253l-57 -74l659 4l150 324h51l-35 -383h-1012l-10 57l790 1248l62 75l-614 -6l-127 -309h-50zM549 1571l123 272h192l-252 -272h-63z" />
    <glyph glyph-name="zacute" unicode="&#x17a;" horiz-adv-x="929" 
d="M131 670v284h725l14 -39l-546 -800l-60 -68l436 4l123 238h47l-28 -289h-756l-12 37l542 792l70 78l-407 -4l-103 -233h-45zM444 1110l113 352h188l-262 -352h-39z" />
    <glyph glyph-name="Zdotaccent" unicode="&#x17b;" horiz-adv-x="1155" 
d="M102 1065v369h977l11 -52l-795 -1253l-57 -74l659 4l150 324h51l-35 -383h-1012l-10 57l790 1248l62 75l-614 -6l-127 -309h-50zM508 1806l135 11l47 -11l10 -100l-20 -88l-135 -10l-45 10l-11 102z" />
    <glyph glyph-name="zdotaccent" unicode="&#x17c;" horiz-adv-x="929" 
d="M131 670v284h725l14 -39l-546 -800l-60 -68l436 4l123 238h47l-28 -289h-756l-12 37l542 792l70 78l-407 -4l-103 -233h-45zM426 1434l137 10l47 -10l11 -101l-19 -88l-139 -10l-43 10l-10 103z" />
    <glyph glyph-name="Zcaron" unicode="&#x17d;" horiz-adv-x="1155" 
d="M102 1065v369h977l11 -52l-795 -1253l-57 -74l659 4l150 324h51l-35 -383h-1012l-10 57l790 1248l62 75l-614 -6l-127 -309h-50zM891 1843l-238 -278h-96l-235 278h59l211 -155l12 -13l14 13l213 155h60z" />
    <glyph glyph-name="zcaron" unicode="&#x17e;" horiz-adv-x="929" 
d="M131 670v284h725l14 -39l-546 -800l-60 -68l436 4l123 238h47l-28 -289h-756l-12 37l542 792l70 78l-407 -4l-103 -233h-45zM266 1487l236 -230l237 230h41l-237 -365h-82l-236 365h41z" />
    <glyph glyph-name="longs" unicode="&#x17f;" horiz-adv-x="671" 
d="M213 891h-160v24l49 33h111v23q0 98 21.5 160.5t72.5 121.5l178 201h234v-145h-285l-24 -41q-26 -52 -29.5 -121.5t-3.5 -124.5v-967l233 -12l-4 -45l-297 4l-235 -4l-4 41l143 16v836z" />
    <glyph glyph-name="florin" unicode="&#x192;" horiz-adv-x="616" 
d="M186 891h-161v24l51 33h110v23q0 98 20.5 160.5t72.5 121.5l180 201h211v-139h-258l-29 -43q-26 -59 -29.5 -124t-3.5 -120v-84h232v-53h-232v-905q0 -88 -15.5 -145.5t-66.5 -116.5l-186 -205h-125v143h174l21 35q34 62 34 235v959z" />
    <glyph glyph-name="Aringacute" unicode="&#x1fa;" horiz-adv-x="1476" 
d="M918 563l-162 453l-68 239l-244 -692h474zM16 39l164 18l504 1352l98 45l518 -1397l160 -18l-4 -41l-262 4l-272 -4l-4 41l178 20l-156 445h-516l-156 -445l181 -20l-5 -41l-219 4l-202 -4zM730 1538q56 0 94 37t38 95t-38 93t-94 35t-93 -35t-37 -93t37 -95t93 -37z
M535 1664q0 80 49 115.5t147 67.5l107 129h135l-193 -133q59 -10 104.5 -51.5t45.5 -101.5t-17.5 -89.5t-49.5 -53t-132 -56.5q-131 0 -163.5 63.5t-32.5 109.5z" />
    <glyph glyph-name="aringacute" unicode="&#x1fb;" horiz-adv-x="923" 
d="M764 242q0 -96 37 -170l108 8l4 -39l-256 -51l-49 168l-266 -189q-127 0 -204 65.5t-77 177.5t89 202l450 149v111q0 114 -27.5 164.5t-132.5 50.5q-64 0 -155 -31l-43 -184h-150v145l361 166q186 0 248.5 -66t62.5 -253v-424zM231 254q0 -84 40 -124t101 -40t148 62
l80 55v309l-301 -121q-68 -57 -68 -141zM317 1293q0 -62 37 -100t96.5 -38t98.5 38t39 100t-39 99.5t-98.5 37.5t-96.5 -37.5t-37 -99.5zM657 1310q0 -97 -52 -135.5t-154 -70.5q-135 0 -170 68.5t-35 116.5q0 84 50 121.5t155 72.5l57 88h194l-170 -103q53 -16 89 -57
t36 -101z" />
    <glyph glyph-name="AEacute" unicode="&#x1fc;" horiz-adv-x="2000" 
d="M1047 664h-416l-369 -605l170 -20l-4 -41l-215 4l-197 -4l-6 41l162 18l864 1379l107 -4l762 4l10 -367h-41l-121 307l-518 2v-663l266 4l84 227h41l-10 -250l10 -260h-41l-84 226l-266 4v-611l537 4l133 318h43l-35 -379l-770 4l-273 -4l-6 41l183 20v605zM1047 715v649
l-385 -649h385zM1110 1571l121 272h192l-252 -272h-61z" />
    <glyph glyph-name="aeacute" unicode="&#x1fd;" horiz-adv-x="1441" 
d="M707 1110l112 352h189l-260 -352h-41zM231 253q0 -85 41.5 -125t89.5 -40t84.5 23.5t65.5 44.5l86 65q-2 4 -3 20.5t-4 44.5t-3 54v20l-2 158l-287 -121q-68 -59 -68 -144zM984 913q-109 0 -165 -88.5t-65 -238.5l417 10q0 155 -27.5 211.5t-64.5 81t-95 24.5zM61 213
q0 55 18.5 102t70.5 99l434 149v111q0 108 -24.5 161.5t-108.5 53.5t-164 -31l-41 -188h-152v149l357 166q127 0 189 -29.5t87 -115.5q97 94 297 145q336 0 336 -375v-71h-608q0 -205 94 -320t254 -115q107 0 250 93l18 -45q-157 -114 -350 -183q-119 0 -224.5 53.5
t-164.5 163.5l-285 -217q-125 0 -204 65.5t-79 178.5z" />
    <glyph glyph-name="Oslashacute" unicode="&#x1fe;" horiz-adv-x="1564" 
d="M727 1571l123 272h192l-251 -272h-64zM446 227q144 -188 368 -188t343 180t119 458t-119 472zM1126 1196q-143 199 -369 199t-346 -179t-120 -461t123 -479zM1483 745q0 -334 -177.5 -529.5t-543.5 -250.5q-238 0 -412 135l-102 -131h-72l131 170q-106 98 -164.5 239.5
t-58.5 309.5q0 334 176 529.5t543 250.5q244 0 422 -145l110 141h66l-135 -176q102 -98 159.5 -237.5t57.5 -305.5z" />
    <glyph glyph-name="oslashacute" unicode="&#x1ff;" horiz-adv-x="1071" 
d="M526 1110l111 352h190l-260 -352h-41zM510 915q-193 0 -228.5 -164.5t-35.5 -282.5t53 -230l449 536q-89 141 -238 141zM829 443q0 174 -57 288l-448 -543q88 -151 241 -151q127 0 195.5 116t68.5 290zM1004 491q0 -220 -127 -350.5t-361 -171.5q-165 0 -289 105l-77 -94
h-66l109 131q-121 133 -121 344q0 436 487 530q162 0 281 -100l82 98h61l-109 -131q130 -141 130 -361z" />
    <glyph glyph-name="Scommaaccent" unicode="&#x218;" horiz-adv-x="1107" 
d="M958 1075h-53l-80 217q-107 107 -247 107t-213.5 -66.5t-73.5 -168.5t57.5 -161t153.5 -106l233 -115q139 -76 209 -157t70 -213q0 -233 -174.5 -323.5t-315.5 -123.5q-139 0 -235 35t-178 94l-23 293h76l80 -197q126 -145 336 -145q118 0 196 76t78 190t-60.5 185
t-172.5 127l-244 122q-127 62 -188.5 133.5t-61.5 190.5q0 231 180 306t281 93q210 0 370 -102v-291zM494 -102h180v-160l-150 -215l-43 12l78 209l-65 61v93z" />
    <glyph glyph-name="scommaaccent" unicode="&#x219;" horiz-adv-x="808" 
d="M713 678h-62l-73 184q-67 58 -175 58q-66 0 -112.5 -35t-46.5 -97t42 -99.5t109 -78.5l162 -90q102 -57 142 -114.5t38 -141.5q0 -121 -93 -188.5t-259 -106.5q-118 0 -200.5 40t-102.5 54l-21 234h72l90 -193q81 -67 178 -67t139 48t42 117t-40 107.5t-124 87.5l-162 92
q-164 90 -164 230q0 104 88 164.5t246 101.5q154 0 287 -86v-221zM328 -102h180v-160l-150 -215l-43 12l78 209l-65 61v93z" />
    <glyph glyph-name="uni021A" unicode="&#x21a;" horiz-adv-x="1196" 
d="M506 1376h-322l-114 -313h-43v373l569 -4l573 4v-373h-43l-114 313h-322v-1317l213 -20l-4 -41l-301 4l-307 -4l-4 41l219 20v1317zM508 -102h180v-160l-149 -215l-41 12l75 209l-65 61v93z" />
    <glyph glyph-name="uni021B" unicode="&#x21b;" horiz-adv-x="681" 
d="M354 227q0 -131 117 -131q51 0 90 14.5t84 36.5l21 -38l-248 -140q-149 0 -188.5 60t-39.5 196v664h-180v26l35 33h150v148l139 110h18v-266h310v-51h-308v-662zM279 -102h180v-160l-150 -215l-43 12l78 209l-65 61v93z" />
    <glyph glyph-name="hsuperior" unicode="&#x2b0;" horiz-adv-x="763" 
d="M500 1200q0 74 -68 74q-29 0 -55.5 -12.5t-59.5 -28.5l-34 -21v-348l55 -10l-2 -35l-129 2l-141 -2l-3 35l72 10v695l-74 -7l-4 37l183 33l43 2v-369l202 115q88 0 127 -35t39 -121v-350l80 -10l-4 -35l-149 2l-127 -2l-5 35l54 10v336z" />
    <glyph glyph-name="jsuperior" unicode="&#x2b2;" horiz-adv-x="348" 
d="M117 834v462l-76 -8l-4 37l182 35l45 2v-504q0 -72 -23.5 -115t-64.5 -79l-115 -109h-92v123h129q19 95 19 156zM125 1604l102 6l37 -6l6 -70l-14 -64l-100 -6l-35 6l-6 74z" />
    <glyph glyph-name="wsuperior" unicode="&#x2b7;" horiz-adv-x="1048" 
d="M541 1118l-15 68l-129 -348l-125 -35l-198 508l-64 10l4 35l140 -2l137 2l2 -35l-64 -10l123 -332l19 -80l127 334l-31 78l-53 10l2 35l137 -2l131 2l4 -35l-63 -10l125 -336l16 -76l147 412l-67 10l2 35l98 -2l88 2l4 -35l-67 -10l-178 -473l-127 -35z" />
    <glyph glyph-name="ysuperior" unicode="&#x2b8;" horiz-adv-x="681" 
d="M111 555v139h141l127 172l-107 -39l-198 484l-64 10l4 35l150 -2l139 2l2 -35l-69 -10l135 -332l18 -78l152 410l-70 8l2 37l105 -2l90 2l4 -37l-70 -8l-182 -453l-146 -303h-163z" />
    <glyph glyph-name="apostrophemod" unicode="&#x2bc;" horiz-adv-x="362" 
d="M88 1358l14 88l136 8l57 -8l10 -100l-14 -95l-150 -305l-39 15q31 72 65 173t34 111l-103 6z" />
    <glyph glyph-name="circumflex" unicode="&#x2c6;" horiz-adv-x="1024" 
d="M221 1110l240 365h76l239 -365h-39l-239 205l-236 -205h-41z" />
    <glyph glyph-name="caron" unicode="&#x2c7;" horiz-adv-x="1024" 
d="M260 1489l238 -209l237 209h41l-239 -367h-76l-240 367h39z" />
    <glyph glyph-name="breve" unicode="&#x2d8;" horiz-adv-x="1024" 
d="M508.5 1253q136.5 0 234.5 168l35 -24q-72 -181 -239 -271q-187 0 -293 271l33 22q93 -166 229.5 -166z" />
    <glyph glyph-name="dotaccent" unicode="&#x2d9;" horiz-adv-x="1024" 
d="M434 1434l129 10l43 -10l10 -95l-18 -82l-129 -10l-43 10l-8 97z" />
    <glyph glyph-name="ring" unicode="&#x2da;" horiz-adv-x="1024" 
d="M377 1290.5q0 -59.5 37 -95.5t95 -36t95 36t37 95.5t-37 97t-95 37.5t-95 -37.5t-37 -97zM715 1294q0 -87 -46.5 -119.5t-156.5 -70.5q-139 0 -174 66.5t-35 116.5q0 85 50 124t155 72q144 0 175.5 -69t31.5 -120z" />
    <glyph glyph-name="ogonek" unicode="&#x2db;" horiz-adv-x="1024" 
d="M504 -322q0 -76 60.5 -104.5t152.5 -28.5v-37q-188 0 -268 52.5t-80 154.5v92l225 246h39l-129 -295v-80z" />
    <glyph glyph-name="tilde" unicode="&#x2dc;" horiz-adv-x="1024" 
d="M240 1389l137 43l358 -144l62 144h34l-49 -203l-137 -37l-360 145l-60 -145h-35z" />
    <glyph glyph-name="hungarumlaut" unicode="&#x2dd;" horiz-adv-x="1024" 
d="M420 1110l115 354h208l-282 -354h-41zM104 1110l113 354h211l-285 -354h-39z" />
    <glyph glyph-name="xsuperior" unicode="&#x2e3;" horiz-adv-x="704" 
d="M27 854l79 8l183 201l-189 248l-63 8l4 37l137 -2l148 2l2 -37l-47 -8l92 -123l20 -39l135 162l-69 8l2 37l104 -2l107 2l2 -37l-80 -8l-164 -187l199 -262l61 -8l-4 -35l-137 2l-148 -2l-4 35l52 8l-107 133l-20 39l-148 -172l78 -8l-4 -35l-115 2l-102 -2z" />
    <glyph glyph-name="Delta" unicode="&#x394;" horiz-adv-x="1402" 
d="M129 63h1026l-448 1084l-43 145zM41 0v55l621 1370l100 39l600 -1407v-57h-1321z" />
    <glyph glyph-name="Omega" unicode="&#x3a9;" horiz-adv-x="1435" 
d="M66 0v336h38l66 -184l375 -37v151q-190 31 -331.5 181t-141.5 389q0 364 244.5 475.5t422.5 152.5q271 0 448 -170.5t177 -415.5q0 -246 -125 -394t-344 -203v-166l373 37l65 184h37v-336h-551v319q222 34 282 203.5t60 301.5q0 254 -128 407t-321 153t-314.5 -138.5
t-121.5 -369.5t102.5 -384t239.5 -173v-319h-552z" />
    <glyph glyph-name="mu" unicode="&#x3bc;" 
d="M944 119q0 -44 152 -84l-4 -35h-226l-84 170l-299 -201q-209 0 -243 115v-143l129 -412h-195v1425h164v-649q0 -113 44 -161t104 -48t110.5 29t112.5 65l71 43v721h164v-835z" />
    <glyph glyph-name="pi" unicode="&#x3c0;" 
d="M958 127q0 -41 62.5 -63.5t89.5 -28.5l-4 -35h-225l-88 156v735h-308v-891h-166v891h-110l-98 -236h-37v293h1122v-57h-238v-764z" />
    <glyph glyph-name="Wgrave" unicode="&#x1e80;" horiz-adv-x="2007" 
d="M145 1378l-122 17l4 41l225 -4l264 4l4 -41l-176 -19l328 -1052l20 -109l271 883l-95 280l-133 17l4 41l236 -4l264 4l4 -41l-176 -19l328 -1057l20 -102l361 1161l-183 17l6 41l224 -4l157 4l7 -41l-127 -17l-437 -1362l-98 -34l-303 921l-14 96l-308 -983l-98 -34z
M981 1571l-250 272h193l120 -272h-63z" />
    <glyph glyph-name="wgrave" unicode="&#x1e81;" horiz-adv-x="1683" 
d="M862 592l-20 110l-234 -667l-143 -66l-330 930l-125 16l6 39l211 -2l197 2l6 -39l-119 -16l230 -682l28 -108l230 667l-43 123l-101 16l7 39l186 -2l196 2l5 -39l-119 -16l233 -688l25 -102l272 790l-123 16l6 39l152 -2l172 2l6 -39l-129 -16l-315 -864l-146 -66z
M854 1110l-262 352h190l113 -352h-41z" />
    <glyph glyph-name="Wacute" unicode="&#x1e82;" horiz-adv-x="2007" 
d="M145 1378l-122 17l4 41l225 -4l264 4l4 -41l-176 -19l328 -1052l20 -109l271 883l-95 280l-133 17l4 41l236 -4l264 4l4 -41l-176 -19l328 -1057l20 -102l361 1161l-183 17l6 41l224 -4l157 4l7 -41l-127 -17l-437 -1362l-98 -34l-303 921l-14 96l-308 -983l-98 -34z
M983 1571l123 272h192l-254 -272h-61z" />
    <glyph glyph-name="wacute" unicode="&#x1e83;" horiz-adv-x="1683" 
d="M862 592l-20 110l-234 -667l-143 -66l-330 930l-125 16l6 39l211 -2l197 2l6 -39l-119 -16l230 -682l28 -108l230 667l-43 123l-101 16l7 39l186 -2l196 2l5 -39l-119 -16l233 -688l25 -102l272 790l-123 16l6 39l152 -2l172 2l6 -39l-129 -16l-315 -864l-146 -66z
M825 1110l113 352h188l-260 -352h-41z" />
    <glyph glyph-name="Wdieresis" unicode="&#x1e84;" horiz-adv-x="2007" 
d="M145 1378l-122 17l4 41l225 -4l264 4l4 -41l-176 -19l328 -1052l20 -109l271 883l-95 280l-133 17l4 41l236 -4l264 4l4 -41l-176 -19l328 -1057l20 -102l361 1161l-183 17l6 41l224 -4l157 4l7 -41l-127 -17l-437 -1362l-98 -34l-303 921l-14 96l-308 -983l-98 -34z
M1251 1794l45 -10l11 -86l-19 -78l-110 -8l-45 8l-9 90l17 74zM809 1794l47 -10l8 -86l-18 -78l-111 -8l-43 8l-10 90l16 74z" />
    <glyph glyph-name="wdieresis" unicode="&#x1e85;" horiz-adv-x="1683" 
d="M862 592l-20 110l-234 -667l-143 -66l-330 930l-125 16l6 39l211 -2l197 2l6 -39l-119 -16l230 -682l28 -108l230 667l-43 123l-101 16l7 39l186 -2l196 2l5 -39l-119 -16l233 -688l25 -102l272 790l-123 16l6 39l152 -2l172 2l6 -39l-129 -16l-315 -864l-146 -66z
M1061 1395l45 -9l10 -88l-18 -75l-111 -11l-45 11l-10 90l16 73zM711 1395l45 -9l10 -88l-18 -75l-111 -11l-45 11l-8 90l14 73z" />
    <glyph glyph-name="Ygrave" unicode="&#x1ef2;" horiz-adv-x="1425" 
d="M815 573l2 -514l232 -20l-5 -41l-319 4l-328 -4l-4 41l240 20v502l-463 817l-160 19l6 39l275 -4l268 4l6 -39l-184 -21l373 -661l26 -68l385 729l-194 21l4 39l237 -4l197 4l6 -39l-160 -17zM733 1571l-254 272h193l123 -272h-62z" />
    <glyph glyph-name="ygrave" unicode="&#x1ef3;" horiz-adv-x="1083" 
d="M178 -481v176h182l207 356l-96 -43l-336 891l-125 16l6 39l217 -2l209 2l7 -39l-132 -16l244 -676l25 -110l272 786l-121 16l6 39l170 -2l156 2l4 -39l-131 -16l-315 -848l-236 -532h-213zM588 1110l-262 352h190l113 -352h-41z" />
    <glyph glyph-name="endash" unicode="&#x2013;" horiz-adv-x="1040" 
d="M82 602h876v-70h-876v70z" />
    <glyph glyph-name="emdash" unicode="&#x2014;" horiz-adv-x="1904" 
d="M-111 616h2126v-98h-2126v98z" />
    <glyph glyph-name="quoteleft" unicode="&#x2018;" horiz-adv-x="407" 
d="M324 1053l-13 -86l-137 -11l-57 11l-8 102l12 90l151 307l39 -16q-22 -44 -61 -158t-39 -125l102 -8z" />
    <glyph glyph-name="quoteright" unicode="&#x2019;" horiz-adv-x="403" 
d="M98 1358l15 88l135 8l57 -8l10 -103l-14 -92l-149 -305l-39 15q26 61 62 167.5t36 116.5l-102 6z" />
    <glyph glyph-name="quotesinglbase" unicode="&#x201a;" horiz-adv-x="382" 
d="M104 -272q26 51 62.5 162.5t36.5 121.5l-103 4l-10 109l14 86l136 8l57 -8l10 -102l-14 -93l-150 -305z" />
    <glyph glyph-name="quotedblleft" unicode="&#x201c;" horiz-adv-x="677" 
d="M614 1053l-12 -86l-137 -11l-57 11l-9 102l13 90l149 307l41 -16q-34 -67 -67 -170.5t-33 -114.5l104 -6zM303 1053l-12 -86l-137 -11l-58 11l-8 102l12 90l152 307l39 -16q-29 -58 -65 -166t-36 -119l103 -6z" />
    <glyph glyph-name="quotedblright" unicode="&#x201d;" horiz-adv-x="677" 
d="M92 1360l12 88l138 8l57 -8l8 -102l-12 -93l-152 -305l-39 15q40 94 70.5 184t30.5 100l-103 6zM403 1360l13 88l137 8l57 -8l8 -102l-12 -93l-149 -305l-41 15q35 83 67.5 178.5t32.5 105.5l-104 6z" />
    <glyph glyph-name="quotedblbase" unicode="&#x201e;" horiz-adv-x="698" 
d="M96 125l13 86l137 8l57 -8l8 -102l-12 -93l-152 -305l-38 17q29 57 64.5 165.5t35.5 118.5l-103 4zM408 125l12 86l137 8l57 -8l9 -102l-13 -93l-149 -305l-41 17q36 72 68 173t32 111l-104 4z" />
    <glyph glyph-name="dagger" unicode="&#x2020;" horiz-adv-x="884" 
d="M53 1126l365 -77l-80 405h203l-80 -405l370 77v-206l-370 77l37 -239l65 -84l-69 -211l-39 -586h-29l-39 586l-72 211l66 84l37 239l-365 -77v206z" />
    <glyph glyph-name="daggerdbl" unicode="&#x2021;" horiz-adv-x="901" 
d="M389 758l37 239l-365 -77v206l365 -77l-80 405h203l-80 -405l371 77v-206l-371 77l37 -239l65 -84l-65 -84l-37 -240l371 78v-207l-371 78l80 -408h-203l80 408l-365 -78v207l365 -78l-37 240l-65 84z" />
    <glyph glyph-name="bullet" unicode="&#x2022;" horiz-adv-x="450" 
d="M270 745l68 -10l10 -119l-14 -106l-154 -10l-67 10l-11 123l15 102z" />
    <glyph glyph-name="ellipsis" unicode="&#x2026;" horiz-adv-x="1521" 
d="M1305 209l55 -10l8 -105l-12 -94l-142 -10l-53 10l-10 109l14 90zM807 209l53 -10l10 -105l-12 -94l-141 -10l-55 10l-9 109l13 90zM307 209l55 -10l11 -105l-15 -94l-141 -10l-53 10l-10 109l14 90z" />
    <glyph glyph-name="perthousand" unicode="&#x2030;" horiz-adv-x="2377" 
d="M1059.5 572q-43.5 -81 -43.5 -182q0 -357 201 -357q128 0 151 115.5t23 181.5t-11.5 125t-48.5 128.5t-133 69.5q-95 0 -138.5 -81zM1765 389q0 -356 201 -356q87 0 130.5 81t43.5 182q0 100 -11 159t-36 103t-63 69.5t-88 25.5q-92 0 -134.5 -82.5t-42.5 -181.5z
M1536 355q0 -153 -81.5 -245.5t-276.5 -121.5q-143 0 -225.5 95t-82.5 250t82 245t277 122q140 0 223.5 -96t83.5 -249zM2286 355q0 -153 -82 -245.5t-277 -121.5q-142 0 -224.5 95t-82.5 250t82 245t276 122q141 0 224.5 -96t83.5 -249zM1300 1444h89l-1012 -1454h-88z
M758 1102q0 -154 -82 -246t-277 -121q-142 0 -224.5 96t-82.5 249t82 243t277 123q142 0 224.5 -95t82.5 -249zM612 1043q0 358 -200 358q-86 0 -130 -82t-44 -182q0 -99 11 -159t35.5 -104.5t62.5 -69t87 -24.5q94 0 136 82.5t42 180.5z" />
    <glyph glyph-name="guilsinglleft" unicode="&#x2039;" horiz-adv-x="557" 
d="M438 31l-370 450l372 451h45l-264 -451l264 -450h-47z" />
    <glyph glyph-name="guilsinglright" unicode="&#x203a;" horiz-adv-x="557" 
d="M82 31l264 450l-264 451h47l373 -451l-371 -450h-49z" />
    <glyph glyph-name="fraction" unicode="&#x2044;" horiz-adv-x="217" 
d="M-244 -102h-84l793 1556h80z" />
    <glyph glyph-name="zerosuperior" unicode="&#x2070;" horiz-adv-x="790" 
d="M551 1155q0 420 -166 420q-143 0 -143 -338q0 -275 60.5 -329t101.5 -54q76 0 111.5 91t35.5 210zM72 1201q0 177 82 283.5t268 141.5q137 0 217 -110t80 -288q0 -179 -80 -284.5t-266 -140.5q-143 0 -222 110.5t-79 287.5z" />
    <glyph glyph-name="foursuperior" unicode="&#x2074;" horiz-adv-x="698" 
d="M518 1110h160v-63h-160v-228h-141v228h-326l-31 45l388 516h155v-37l-473 -471l64 10h223v156l104 75l37 11v-242z" />
    <glyph glyph-name="fivesuperior" unicode="&#x2075;" horiz-adv-x="649" 
d="M422 1112q0 53 -33 94t-101 40t-138 -34l-46 -20l-20 16l49 400h440l-4 -45l-22 -76h-385l-31 -248l213 104q123 0 180.5 -53.5t57.5 -117.5q0 -105 -63.5 -162t-186.5 -115l-156 -76h-104v125h252q98 65 98 168z" />
    <glyph glyph-name="sixsuperior" unicode="&#x2076;" horiz-adv-x="718" 
d="M498 1055q0 84 -29 128t-67 44t-64.5 -16.5t-61.5 -39.5l-38 -26q4 -293 137 -293q123 0 123 203zM72 1118q0 262 172 368.5t301 145.5l12 -37q-189 -70 -250.5 -163.5t-66.5 -241.5l188 137q111 0 170 -66.5t59 -175.5q0 -108 -81.5 -179.5t-229.5 -102.5
q-130 0 -202 89.5t-72 225.5z" />
    <glyph glyph-name="sevensuperior" unicode="&#x2077;" horiz-adv-x="622" 
d="M31 1608h540l21 -25l-359 -764h-120v41l374 627l-20 -4h-436v125z" />
    <glyph glyph-name="eightsuperior" unicode="&#x2078;" horiz-adv-x="702" 
d="M219 1033q0 -85 43 -134t92 -49t88 31t39 95t-48 106t-136 98q-78 -62 -78 -147zM471 1442q0 59 -32.5 98t-84.5 39t-82 -27.5t-30 -79.5t41 -93.5t112 -88.5q76 61 76 152zM88 1417q0 80 70.5 130t206.5 79q123 0 191.5 -45t68.5 -115t-50.5 -115.5t-140.5 -86.5
q104 -59 153.5 -113.5t49.5 -133.5t-75 -130t-222 -84q-117 0 -194.5 55.5t-77.5 142.5q0 128 188 205q-168 104 -168 211z" />
    <glyph glyph-name="ninesuperior" unicode="&#x2079;" horiz-adv-x="677" 
d="M320 1579q-132 0 -132 -190q0 -93 31 -138t69 -45t59.5 11.5t60.5 37.5l43 29q-9 295 -131 295zM616 1313q0 -262 -174 -367.5t-299 -142.5l-12 37q261 102 288 224t30 177l-185 -135q-112 0 -172.5 67.5t-60.5 175.5q0 107 82 176.5t229 100.5q131 0 202.5 -89
t71.5 -224z" />
    <glyph glyph-name="plussuperior" unicode="&#x207a;" horiz-adv-x="839" 
d="M389 897v256h-287v59h287v265h62v-265h286v-59h-286v-256h-62z" />
    <glyph glyph-name="minussuperior" unicode="&#x207b;" horiz-adv-x="851" 
d="M102 1241h648v-59h-648v59z" />
    <glyph glyph-name="equalsuperior" unicode="&#x207c;" horiz-adv-x="841" 
d="M739 1036h-637v58h637v-58zM739 1253h-637v60h637v-60z" />
    <glyph glyph-name="parenleftsuperior" unicode="&#x207d;" horiz-adv-x="436" 
d="M217 1176q0 -158 39 -285t139 -240l-22 -20q-153 145 -212 262t-59 281q0 237 98.5 354t172.5 184l22 -20q-100 -111 -139 -234.5t-39 -281.5z" />
    <glyph glyph-name="parenrightsuperior" unicode="&#x207e;" horiz-adv-x="405" 
d="M219 1176q0 158 -40 281.5t-138 234.5l22 20q154 -141 212.5 -259t58.5 -279q0 -241 -98.5 -358.5t-172.5 -184.5l-22 20q98 113 138 240t40 285z" />
    <glyph glyph-name="nsuperior" unicode="&#x207f;" horiz-adv-x="757" 
d="M496 1200q0 74 -68 74q-39 0 -113 -41l-36 -21v-348l55 -10l-2 -35l-125 2l-146 -2l-4 35l74 10v430l-76 -8l-4 37l185 37l40 2l3 -107l202 115q88 0 127 -33t39 -125v-348l80 -10l-2 -35l-152 2l-129 -2l-2 35l54 10v336z" />
    <glyph glyph-name="zeroinferior" unicode="&#x2080;" horiz-adv-x="790" 
d="M551 30q0 419 -166 419q-143 0 -143 -338q0 -277 60.5 -331t101.5 -54q77 0 112 93t35 211zM72 75q0 177 82 283.5t268 141.5q136 0 216.5 -109t80.5 -289t-80 -286.5t-266 -141.5q-143 0 -222 112t-79 289z" />
    <glyph glyph-name="oneinferior" unicode="&#x2081;" horiz-adv-x="579" 
d="M385 489v-749l174 -14l-4 -35l-244 2l-245 -2l-5 35l175 14v633l4 26l-54 -24l-118 -29l-17 31l287 112h47z" />
    <glyph glyph-name="twoinferior" unicode="&#x2082;" horiz-adv-x="714" 
d="M643 -184v-33l-41 -90h-551l-20 33l180 178q125 125 180 215t55 168t-33.5 116.5t-82.5 38.5t-86 -16l-45 -160h-123v140l276 94q129 0 194.5 -57t65.5 -127q0 -119 -71.5 -209.5t-225.5 -196.5l-165 -115l110 21h383z" />
    <glyph glyph-name="threeinferior" unicode="&#x2083;" horiz-adv-x="632" 
d="M414 -61q0 69 -53.5 112t-159.5 43l-8 27l59 31q78 35 105.5 73.5t27.5 94.5t-28.5 88t-67.5 32t-76 -16l-41 -143h-121v129l281 90q105 0 155 -42t50 -102q0 -125 -203 -190q111 -4 174 -55t63 -108q0 -92 -58 -139.5t-187 -105.5l-150 -67h-125v125h291q72 54 72 123z
" />
    <glyph glyph-name="fourinferior" unicode="&#x2084;" horiz-adv-x="698" 
d="M518 -18h160v-64h-160v-225h-141v225h-326l-31 45l388 518h155v-37l-473 -473l66 11h221v157l108 78l33 8v-243z" />
    <glyph glyph-name="fiveinferior" unicode="&#x2085;" horiz-adv-x="649" 
d="M422 -14q0 53 -33 94t-99 40t-140 -34l-46 -20l-20 16l49 399h440l-4 -45l-22 -76h-385l-31 -247l213 104q123 0 180.5 -54.5t57.5 -118.5q0 -105 -59 -159t-191 -118l-156 -76h-104v125h252q98 68 98 170z" />
    <glyph glyph-name="sixinferior" unicode="&#x2086;" horiz-adv-x="718" 
d="M498 -74q0 86 -29 130t-67 44t-64.5 -16t-61.5 -39l-38 -27q4 -294 137 -294q123 0 123 202zM657 -29q0 -234 -311 -295q-133 0 -203.5 89.5t-70.5 226.5q0 260 172 367.5t301 146.5l12 -37q-187 -69 -249.5 -163t-67.5 -243l188 138q112 0 170.5 -69t58.5 -161z" />
    <glyph glyph-name="seveninferior" unicode="&#x2087;" horiz-adv-x="622" 
d="M31 481h540l21 -24l-359 -764h-120v39l374 628l-22 -4h-434v125z" />
    <glyph glyph-name="eightinferior" unicode="&#x2088;" horiz-adv-x="702" 
d="M471 315q0 59 -32.5 98.5t-84.5 39.5t-82 -28t-30 -80t40 -92t113 -89q76 61 76 151zM88 291q0 80 70.5 130t206.5 79q123 0 191.5 -45t68.5 -115t-50.5 -116t-140.5 -87q102 -59 152.5 -114t50.5 -133q0 -151 -297 -214q-184 0 -228 76t-44 121q0 130 188 207
q-168 101 -168 211zM219 -93q0 -85 43 -134t92 -49t88 29.5t39 78.5t-12 74.5t-44 56t-128 90.5q-78 -61 -78 -146z" />
    <glyph glyph-name="nineinferior" unicode="&#x2089;" horiz-adv-x="677" 
d="M320 453q-132 0 -132 -190q0 -93 31 -138t69 -45t59.5 11t60.5 38l43 29q-9 295 -131 295zM616 186q0 -263 -174 -368t-299 -142l-12 35q261 102 288 225t30 179l-185 -135q-114 0 -173.5 68t-59.5 175t82 176.5t229 100.5q131 0 202.5 -89t71.5 -225z" />
    <glyph glyph-name="parenleftinferior" unicode="&#x208d;" horiz-adv-x="436" 
d="M217 37q0 -158 39 -286t139 -240l-22 -19q-152 144 -211.5 262t-59.5 281q0 237 98.5 354t172.5 184l22 -20q-100 -111 -139 -234.5t-39 -281.5z" />
    <glyph glyph-name="parenrightinferior" unicode="&#x208e;" horiz-adv-x="405" 
d="M219 37q0 158 -40 281.5t-138 234.5l22 20q154 -141 212.5 -259t58.5 -279q0 -240 -98.5 -357.5t-172.5 -185.5l-22 19q98 113 138 240.5t40 285.5z" />
    <glyph glyph-name="Euro" unicode="&#x20ac;" horiz-adv-x="1359" 
d="M92 559v66h125q-2 18 -2 23v69q0 65 4 94h-127v63h135q43 258 208 403.5t421 190.5q154 0 258.5 -43t159.5 -88v-309h-53l-95 250q-108 133 -295 133q-150 0 -269 -144t-142 -393h651l-35 -63h-622v-53q0 -70 6 -133h528l-35 -66h-481q33 -204 152 -333.5t306 -129.5
t349 119l27 -49q-113 -91 -232 -136.5t-184 -60.5q-254 0 -421.5 151.5t-205.5 438.5h-131z" />
    <glyph glyph-name="afii61289" unicode="&#x2113;" horiz-adv-x="884" 
d="M532 1352q-24 0 -56 -9.5t-42 -15.5v-690q92 63 147.5 165.5t55.5 272.5t-40.5 223.5t-64.5 53.5zM803 1167q0 -203 -103 -358.5t-266 -247.5v-483l320 125l28 -37l-364 -199l-135 45v475q-98 -43 -201 -84v64l201 86v725l282 197q122 -4 180 -101t58 -207z" />
    <glyph glyph-name="afii61352" unicode="&#x2116;" horiz-adv-x="2013" 
d="M1214 86h709v-86h-709v86zM1559 901q-93 0 -140 -72.5t-47 -172.5q0 -178 62 -274.5t152 -96.5q91 0 135 74.5t44 214.5t-56.5 233.5t-149.5 93.5zM1923 604q0 -314 -377 -381q-147 0 -239.5 100t-92.5 255q0 251 151 312t237 77q142 0 231.5 -100.5t89.5 -262.5z
M1120.5 1372q-47.5 0 -49.5 10v-1382h-158l-516 1110l-80 236v-1346h-251l-7 34q3 0 29 6t96 17.5t70 -8.5v1319l-182 27l6 39l194 -2l179 2l475 -1028l80 -228v1256h239l4 -35q-81 -27 -128.5 -27zM59 34v1q-1 -1 0 -1z" />
    <glyph glyph-name="trademark" unicode="&#x2122;" horiz-adv-x="2037" 
d="M102 1208v228l355 -2l348 2v-228h-37l-78 183l-155 2v-703l118 -10l-2 -35l-198 2l-199 -2l-2 35l121 10v703l-158 -2l-76 -183h-37zM1784 1434l147 2l4 -33l-94 -12v-701l92 -10l-4 -35l-166 2l-170 -2l-2 35l88 10v621l9 67l-293 -735h-90l-279 670l-16 67v-690l90 -10
l-2 -35l-117 2l-117 -2l-4 35l92 10v701l-92 12l2 33l123 -2l156 2l260 -607v-47l262 654z" />
    <glyph glyph-name="uni2126" unicode="&#x2126;" horiz-adv-x="1476" 
d="M86 0v336h39l65 -184l375 -37v151q-190 31 -331.5 181t-141.5 389q0 363 245 475t423 153q270 0 447 -170.5t177 -416.5t-124.5 -393.5t-344.5 -202.5v-166l373 37l66 184h37v-336h-551v319q220 33 281 203t61 302q0 253 -128.5 406.5t-321.5 153.5t-314 -138t-121 -371
t103 -385t239 -171v-319h-553z" />
    <glyph glyph-name="estimated" unicode="&#x212e;" horiz-adv-x="1683" 
d="M336 778h1005v131q-55 215 -195.5 343t-329.5 128q-190 0 -305.5 -98t-174.5 -256v-248zM272.5 1184q170.5 166 589.5 280q309 0 508 -193t211 -491v-100h-1245v-178q64 -206 201 -328.5t327 -122.5q191 0 308.5 107.5t166.5 292.5h203q-72 -202 -240.5 -308t-476.5 -174
q-320 0 -521.5 203.5t-201.5 524.5t170.5 487z" />
    <glyph glyph-name="arrowleft" unicode="&#x2190;" horiz-adv-x="1249" 
d="M1147 645v-80h-907l57 -43l358 -336v-112l-553 530l553 531v-111l-360 -338l-55 -41h907z" />
    <glyph glyph-name="arrowup" unicode="&#x2191;" horiz-adv-x="1265" 
d="M674 82h-80v909l-45 -61l-334 -357h-113l531 553l530 -553h-110l-336 357l-43 61v-909z" />
    <glyph glyph-name="arrowright" unicode="&#x2192;" horiz-adv-x="1249" 
d="M102 565v80h910l-64 47l-354 332v111l553 -531l-553 -530v112l354 332l64 47h-910z" />
    <glyph glyph-name="arrowdown" unicode="&#x2193;" horiz-adv-x="1265" 
d="M594 1126h80v-907l43 60l336 356h110l-530 -553l-531 553h113l334 -356l45 -60v907z" />
    <glyph glyph-name="uni2196" unicode="&#x2196;" horiz-adv-x="970" 
d="M102 973h768l-79 -78l-488 2l-78 10l643 -643l-55 -57l-643 643l10 -76l2 -487l-80 -80v766z" />
    <glyph glyph-name="uni2197" unicode="&#x2197;" horiz-adv-x="970" 
d="M868 973v-766l-77 80l2 491l10 72l-643 -643l-58 57l643 643l-71 -10l-492 -2l-80 78h766z" />
    <glyph glyph-name="uni2198" unicode="&#x2198;" horiz-adv-x="970" 
d="M868 193h-766l80 77l490 -4l73 -8l-643 643l58 57l643 -643l-10 70l-2 494l77 79v-765z" />
    <glyph glyph-name="uni2199" unicode="&#x2199;" horiz-adv-x="970" 
d="M102 193v765l80 -79l-2 -496l-10 -68l643 643l55 -57l-643 -643l72 8l494 4l79 -77h-768z" />
    <glyph glyph-name="partialdiff" unicode="&#x2202;" 
d="M352 466q0 -188 71 -304.5t204 -116.5t205.5 128t76.5 339q0 80 -12 154q-43 57 -86 98q-104 88 -213 88t-177.5 -99t-68.5 -287zM1098 519q0 -245 -125 -391.5t-344 -158.5q-221 31 -339 173.5t-118 345.5t108.5 329.5t319.5 143.5l277 -130q-29 152 -112 289t-241 228
q-24 12 -63 33.5t-61.5 32.5t-32.5 16l24 45q11 -5 61 -23t80 -33q434 -192 500 -482t66 -418z" />
    <glyph glyph-name="uni2206" unicode="&#x2206;" horiz-adv-x="1419" 
d="M139 63h1026l-448 1084l-43 145zM51 0v55l621 1370l100 39l600 -1407v-57h-1321z" />
    <glyph glyph-name="product" unicode="&#x220f;" horiz-adv-x="1503" 
d="M1100 1372h-692v-1640l182 -21l-6 -39l-269 2l-268 -2l-6 39l184 21v1642l-184 21l6 39l279 -2h866l266 2l4 -39l-180 -21v-1642l178 -21l-6 -39l-264 2l-272 -2l-7 39l189 21v1640z" />
    <glyph glyph-name="summation" unicode="&#x2211;" 
d="M1124 1434v-340h-39l-118 280l-596 6l524 -751v-37l-621 -780l725 16l111 221h43l-35 -377h-977l-24 47l624 791l-602 872l25 52h960z" />
    <glyph glyph-name="minus" unicode="&#x2212;" 
d="M96 604h1078v-84h-1078v84z" />
    <glyph glyph-name="radical" unicode="&#x221a;" 
d="M391 -31l-346 934l-123 17l6 34h281l250 -694l30 -133l566 1673h413l-26 -76h-324l-588 -1691z" />
    <glyph glyph-name="infinity" unicode="&#x221e;" horiz-adv-x="1673" 
d="M922 639q219 -219 353 -219t169 75.5t35 150.5t-56.5 128t-177.5 53q-59 0 -131 -28.5t-127 -87.5zM414 809q-89 0 -154 -51t-65 -147q0 -95 64 -156.5t189 -61.5t236 111l76 78q-202 227 -346 227zM427 264q-140 0 -222 93t-82 218q0 126 71.5 219t251.5 169
q161 0 272 -110t154 -155l101 107q141 158 281 158t218 -92t78 -228t-72 -219t-251 -160q-157 0 -258 96.5t-144 141.5l-18 22l-105 -114q-55 -59 -129.5 -102.5t-145.5 -43.5z" />
    <glyph glyph-name="integral" unicode="&#x222b;" 
d="M666 -14q0 -88 -15.5 -145.5t-68.5 -116.5l-185 -205h-135v143h182l23 35q35 64 35 235v1033q0 98 18.5 160.5t67.5 121.5l180 207h240v-139h-281l-31 -45q-26 -47 -28 -119t-2 -127v-1038z" />
    <glyph glyph-name="approxequal" unicode="&#x2248;" 
d="M1178 389h39l-80 -182l-191 -39l-762 119l-92 -144h-39l78 183l195 39l761 -115zM1178 840h41l-80 -183l-191 -39l-764 119l-90 -143h-41l78 182l197 39l759 -117z" />
    <glyph glyph-name="notequal" unicode="&#x2260;" 
d="M106 262v86h381l258 309h-639v84h711l203 242h98l-203 -242h248v-84h-319l-258 -309h577v-86h-649l-217 -262h-100l219 262h-310z" />
    <glyph glyph-name="lessequal" unicode="&#x2264;" 
d="M1167 1251v-102l-942 -416l942 -416v-102l-1065 479v76zM100 86h1069v-86h-1069v86z" />
    <glyph glyph-name="greaterequal" unicode="&#x2265;" 
d="M1167 770v-76l-1065 -479v102l942 416l-942 416v102zM102 86h1067v-86h-1067v86z" />
    <glyph glyph-name="lozenge" unicode="&#x25ca;" 
d="M659 1260l-38 86l-388 -590l383 -598l35 -78l391 588zM600 1427l92 39l482 -712l-498 -748l-96 -43l-484 713z" />
    <glyph glyph-name="commaaccent" unicode="&#xf6c3;" horiz-adv-x="1024" 
d="M424 -109h180v-155l-149 -219l-41 12l71 213l-61 63v86z" />
    <glyph glyph-name="asuperior" unicode="&#xf6e9;" horiz-adv-x="632" 
d="M532 1200v-231q0 -53 19 -90l61 2l4 -33l-196 -39l-33 92l-156 -98q-78 0 -129 38t-51 109t62 115l268 78v76q0 47 -12.5 71.5t-58.5 24.5t-81 -15l-24 -126h-133v104l243 92q131 0 174 -36q43 -35 43 -134zM203 981q0 -49 21.5 -71.5t47.5 -22.5t45 9t33 15l31 21v178
l-137 -45q-41 -35 -41 -84z" />
    <glyph glyph-name="bsuperior" unicode="&#xf6ea;" horiz-adv-x="686" 
d="M485 1075q0 195 -114 195q-40 0 -99 -35l-26 -14v-334q35 -41 97 -41t102 59t40 170zM645 1126q0 -273 -317 -323q-138 0 -230 45v711l-73 -7l-5 37l183 33l43 2v-362l172 108q94 0 160.5 -66.5t66.5 -177.5z" />
    <glyph glyph-name="dsuperior" unicode="&#xf6eb;" horiz-adv-x="710" 
d="M338 1319q-64 0 -101.5 -58.5t-37.5 -152.5t35 -149.5t78 -55.5t102 33l26 16v330q-38 37 -102 37zM586 963q0 -47 20 -89l66 5l2 -35l-193 -35l-35 100l-159 -106q-111 0 -178.5 73.5t-67.5 194.5t72.5 199t212.5 100q65 0 114 -29v218l-73 -7l-5 33l177 37l47 2v-661z
" />
    <glyph glyph-name="esuperior" unicode="&#xf6ec;" horiz-adv-x="595" 
d="M303 1321q-115 0 -119 -174l215 4q0 82 -18.5 126t-77.5 44zM41 1065q0 117 74.5 194.5t212.5 110.5q115 0 170 -58.5t55 -150.5v-49h-369q4 -94 59.5 -148.5t134.5 -54.5t159 47l16 -30q-89 -75 -223 -123q-121 0 -205 72.5t-84 189.5z" />
    <glyph glyph-name="isuperior" unicode="&#xf6ed;" horiz-adv-x="393" 
d="M145 1604l103 6l37 -6l6 -70l-15 -64l-100 -6l-35 6l-8 74zM209 821l-143 -2l-5 35l76 10v432l-76 -8l-4 37l183 35l43 2v-498l75 -10l-4 -35z" />
    <glyph glyph-name="lsuperior" unicode="&#xf6ee;" horiz-adv-x="389" 
d="M209 821l-143 -2l-3 35l72 10v695l-74 -7l-4 37l183 33l43 2v-760l75 -10l-4 -35z" />
    <glyph glyph-name="msuperior" unicode="&#xf6ef;" horiz-adv-x="1103" 
d="M483 1200q0 74 -63 74q-43 0 -107 -41l-34 -19v-350l51 -10l-2 -35l-125 2l-142 -2l-4 35l74 10v432l-76 -8l-4 35l180 37l43 2l5 -107l190 115q151 4 164 -115l192 115q92 0 129 -35t37 -123v-348l82 -10l-4 -35l-147 2l-129 -2l-5 35l52 10v336q0 74 -64 74
q-41 0 -108 -41l-33 -19v-350l51 -10l-2 -35l-127 2l-121 -2l-2 35l49 10v336z" />
    <glyph glyph-name="osuperior" unicode="&#xf6f0;" horiz-adv-x="667" 
d="M317 1323q-120 0 -120 -205q0 -129 43 -198.5t108 -69.5q121 0 121 205q0 135 -43 201.5t-109 66.5zM627 1102q0 -244 -314 -299q-119 0 -195.5 73.5t-76.5 196.5q0 242 313 297q119 0 196 -73.5t77 -194.5z" />
    <glyph glyph-name="rsuperior" unicode="&#xf6f1;" horiz-adv-x="526" 
d="M496 1366v-147h-134q-12 -5 -69 -62l-14 -16v-275l118 -12l-4 -35l-188 2l-146 -2l-2 35l76 10v432l-78 -8l-4 35l174 37l39 2l8 -180l123 184h101z" />
    <glyph glyph-name="ssuperior" unicode="&#xf6f2;" horiz-adv-x="544" 
d="M262 850q100 0 100 70q0 31 -20 50t-68 42l-100 53q-43 23 -74.5 54.5t-31.5 87.5t52 95t169 68q103 0 184 -39v-149h-43l-49 104q-43 39 -91 39q-95 0 -95 -45t22.5 -63.5t69.5 -42.5l100 -52q107 -56 107 -135q0 -78 -57.5 -120t-172.5 -64q-113 0 -194 45l-13 162h49
l52 -109q51 -51 104 -51z" />
    <glyph glyph-name="tsuperior" unicode="&#xf6f3;" horiz-adv-x="464" 
d="M332 893q50 0 100 29l14 -33l-172 -86q-160 0 -159 149v348h-99v19l23 22h78v80l121 78h24v-160h170v-39h-170v-337q0 -70 70 -70z" />
    <glyph glyph-name="apple" unicode="&#xf8ff;" horiz-adv-x="1402" 
d="M1145 791h10l10 14v14l-20 -8v-20zM1006 1085l-17 -8v-18l17 -6l4 14zM848 1315l-17 -19v-39l25 -12l6 35zM438 1020l121 24l-8 25zM719 1065l-8 -25l100 -34l6 8zM956 735v-26l91 8l8 18h-99zM647 512h139v12l-139 8v-20zM807 639h-150v-21h150v21zM422 416l-152 102
l41 -47l103 -84zM807 575l-148 15l-12 -27l160 -8v20zM500 930l2 8l28 4l-26 12l4 15l-41 -2l6 -39l29 -31l24 -12l23 10l33 25l12 24l4 27l-45 -8l12 -21l-24 -27l-29 -2zM1206 639l-12 -6l-68 -55l80 -99v160zM750 932l-15 -23h-24l-11 15l23 16l-31 4v12l-47 9l6 -35
l17 -29l41 -18l26 -2l37 20l12 19l11 41l-62 4l15 -11zM887 688l8 62l-111 10l-6 -72h109zM877 1198l10 -12l39 22l16 -4l12 -49h27l12 12l-18 37l35 58l-31 18v10l-51 15v-41l-27 -11v-18l-18 -12zM1090 627l16 -13l16 4l41 31l27 27l22 37l-14 10h-29l-20 6l-29 14l-35 -6
q-4 -27 -7 -46t-5 -52zM778 438l-131 8v-104l131 -12v108zM422 678l-135 80v-15l-4 -26l2 -55v-99l131 -90l-2 123zM1047 678l-111 2l-2 -49v-13l-4 -63l39 -6l-17 -125l-98 6l-16 -12l104 -10l-4 -19h-100l-9 -10l109 -14l-12 -72l55 -2l25 162l8 73l-31 6l-2 17l41 2l10 6
l-57 33l4 10l61 -12l-61 30l10 11l43 -11l8 21zM195 831h-43l38 -28l3 -23l-41 15l36 -37l-8 -15l6 -198l23 -25v369l117 -66l14 21l-139 78v36l121 -69l88 -58l57 -28l6 20l-211 131l-26 15l-84 67l4 -159l39 -35v-11zM1262 952l-17 76l-39 102l-41 74l-47 58l-69 43h-23
l35 -39l51 -21l23 -22l6 -68l-51 27l-31 -60l24 -16v-39l31 6l-24 53l30 -10l21 -41l-11 -24l-16 -15h-47l-6 23l-25 4l2 -45h-28l28 -37l-14 -20l-43 10l-6 -56l84 13l16 35l45 -5l13 -57l-33 -27v-30l16 -13l37 25h47l12 23l-36 12l-11 18l19 86h14l29 -41zM733 1130h17
l20 46l23 16l-11 12l-6 17l2 43l-61 -21l-21 -16l-16 10l8 43l29 20l22 23l78 -4l25 27l-8 16h-101l-92 -27l-109 -53l-59 -47l-51 -70l59 25l27 -31l-35 -41l-20 -6l34 -6h11l73 49h66l37 -25l16 7l8 28l15 11l20 -9v-37zM1075 817l-8 14h-420l-135 -6l-14 -18l-13 -90
l-98 41l-22 -8l116 -56l2 -92l-10 -149v-187l37 8l4 82l84 -6l6 19l-90 12v33l98 -13l2 19l-96 14l2 45l88 -6l6 12l-92 19l6 192h152l22 21h-161l4 18h151l17 15h-168l4 45l239 8l287 -8v22zM1300 942l-6 -84l-16 -72l-25 -63l-6 -320l-43 -14l-102 143l-55 -14l-39 -287
l-66 9l-14 -9l-8 -192l61 -39l33 -29l-6 -30l-62 2l-49 37h-29l-16 16l14 156l-8 96l-125 2l-6 -107l-4 -114v-41l-31 -13l-16 13l-62 -21h-65l-2 23l22 22l103 43l-13 197l-200 -12l-301 286l-8 236l-27 20l-21 74v53l31 17l-6 159l188 -127l19 97l20 73l45 72l58 72l80 59
l159 60h45l-139 45l8 34h15l161 -40l-8 104l33 25h66l38 -11l60 -51l65 -16l66 -21l31 -26v-41l-41 -64l61 -57l57 -66l37 -69l31 -84z" />
    <glyph glyph-name="AE.sc" horiz-adv-x="1640" 
d="M848 475h-334l-291 -420l131 -12l-2 -43l-168 2l-157 -2l-4 43l124 12l684 983l107 -2l606 2l8 -272h-34l-99 217l-405 2v-459l207 2l67 168h35l-8 -194l8 -199h-35l-67 168l-207 2v-420l418 2l108 226h37l-27 -283l-618 4l-221 -4l-4 45l141 14v418zM848 524v453
l-307 -453h307z" />
    <glyph glyph-name="AEacute.002" horiz-adv-x="2000" 
d="M1047 664h-416l-369 -605l170 -20l-4 -41l-215 4l-197 -4l-6 41l162 18l864 1379l107 -4l762 4l10 -367h-41l-121 307l-518 2v-663l266 4l84 227h41l-10 -250l10 -260h-41l-84 226l-266 4v-611l537 4l133 318h43l-35 -379l-770 4l-273 -4l-6 41l183 20v605zM1047 715v649
l-385 -649h385zM1145 1530l112 211h185l-232 -211h-65z" />
    <glyph glyph-name="AEacute.sc" horiz-adv-x="1640" 
d="M903 1141l94 198h166l-205 -198h-55zM848 475h-334l-291 -420l131 -12l-2 -43l-168 2l-157 -2l-4 43l124 12l684 983l103 -2l610 2l8 -272h-34l-99 217l-405 2v-459l207 4l67 166h35l-8 -194l8 -197h-35l-67 166l-207 4v-422l418 2l108 226h37l-27 -283l-620 4l-219 -4
l-4 45l141 14v418zM848 524v453l-307 -453h307z" />
    <glyph glyph-name="Aacute.002" horiz-adv-x="1476" 
d="M918 563l-162 453l-68 239l-244 -692h474zM16 39l164 18l504 1352l98 45l518 -1397l160 -18l-4 -41l-262 4l-272 -4l-4 41l178 20l-156 445h-516l-156 -445l181 -20l-5 -41l-219 4l-202 -4zM705 1530l112 211h184l-233 -211h-63z" />
    <glyph glyph-name="Aacute.sc" horiz-adv-x="1216" 
d="M586 809l-27 94l-190 -495h370zM350 354l-121 -297l142 -16l-4 -43l-174 4l-156 -4l-4 45l123 12l397 955l102 47l408 -1002l123 -12l-4 -45l-211 4l-230 -4l-2 43l138 16l-119 297h-408zM590 1141l94 198h166l-205 -198h-55z" />
    <glyph glyph-name="Abreve.002" horiz-adv-x="1476" 
d="M918 563l-162 453l-68 239l-244 -692h474zM16 39l164 18l504 1352l98 45l518 -1397l160 -18l-4 -41l-262 4l-272 -4l-4 41l178 20l-156 445h-516l-156 -445l181 -20l-5 -41l-219 4l-202 -4zM731 1614q47 0 84 14t65.5 34.5t49 45.5t35.5 43l26 -20q-76 -151 -233 -218
q-184 0 -289 216l31 22q52 -87 118 -112t113 -25z" />
    <glyph glyph-name="Abreve.sc" horiz-adv-x="1216" 
d="M586 809l-27 94l-190 -495h370zM350 354l-121 -297l142 -16l-4 -43l-174 4l-156 -4l-4 45l123 12l397 955l102 47l408 -1002l123 -12l-4 -45l-211 4l-230 -4l-2 43l138 16l-119 297h-408zM602 1221q104 0 195 98l24 -23q-18 -47 -57 -89t-137 -83q-132 0 -179 71t-61 99
l27 25q84 -98 188 -98z" />
    <glyph glyph-name="Acircumflex.002" horiz-adv-x="1476" 
d="M918 563l-162 453l-68 239l-244 -692h474zM16 39l164 18l504 1352l98 45l518 -1397l160 -18l-4 -41l-262 4l-272 -4l-4 41l178 20l-156 445h-516l-156 -445l181 -20l-5 -41l-219 4l-202 -4zM455 1526l235 225h94l236 -225h-64l-206 125l-15 10l-10 -10l-207 -125h-63z
" />
    <glyph glyph-name="Acircumflex.sc" horiz-adv-x="1216" 
d="M586 809l-27 94l-190 -495h370zM350 354l-121 -297l142 -16l-4 -43l-174 4l-156 -4l-4 45l123 12l397 955l102 47l408 -1002l123 -12l-4 -45l-211 4l-230 -4l-2 43l138 16l-119 297h-408zM371 1141l192 202h82l193 -202h-56l-168 98l-10 16l-12 -16l-166 -98h-55z" />
    <glyph glyph-name="Adieresis.002" horiz-adv-x="1476" 
d="M918 563l-162 453l-68 239l-244 -692h474zM16 39l164 18l504 1352l98 45l518 -1397l160 -18l-4 -41l-262 4l-272 -4l-4 41l178 20l-156 445h-516l-156 -445l181 -20l-5 -41l-219 4l-202 -4zM987 1745l45 -8l8 -86l-16 -78l-111 -8l-45 8l-8 90l17 74zM549 1745l47 -8
l8 -86l-16 -78l-111 -8l-45 8l-8 90l14 74z" />
    <glyph glyph-name="Adieresis.sc" horiz-adv-x="1216" 
d="M586 809l-27 94l-190 -495h370zM350 354l-121 -297l142 -16l-4 -43l-174 4l-156 -4l-4 45l123 12l397 955l102 47l408 -1002l123 -12l-4 -45l-211 4l-230 -4l-2 43l138 16l-119 297h-408zM811 1311l41 -6l8 -78l-16 -68l-94 -8l-37 8l-8 80l14 66zM457 1311l39 -6l6 -78
l-15 -68l-94 -8l-37 8l-8 80l14 66z" />
    <glyph glyph-name="Agrave.002" horiz-adv-x="1476" 
d="M918 563l-162 453l-68 239l-244 -692h474zM16 39l164 18l504 1352l98 45l518 -1397l160 -18l-4 -41l-262 4l-272 -4l-4 41l178 20l-156 445h-516l-156 -445l181 -20l-5 -41l-219 4l-202 -4zM698 1530l-231 211h184l113 -211h-66z" />
    <glyph glyph-name="Agrave.sc" horiz-adv-x="1216" 
d="M586 809l-27 94l-190 -495h370zM350 354l-121 -297l142 -16l-4 -43l-174 4l-156 -4l-4 45l123 12l397 955l102 47l408 -1002l123 -12l-4 -45l-211 4l-230 -4l-2 43l138 16l-119 297h-408zM573 1141l-204 198h163l97 -198h-56z" />
    <glyph glyph-name="Amacron.002" horiz-adv-x="1476" 
d="M918 563l-162 453l-68 239l-244 -692h474zM16 39l164 18l504 1352l98 45l518 -1397l160 -18l-4 -41l-262 4l-272 -4l-4 41l178 20l-156 445h-516l-156 -445l181 -20l-5 -41l-219 4l-202 -4zM455 1690h573v-78h-573v78z" />
    <glyph glyph-name="Amacron.sc" horiz-adv-x="1216" 
d="M586 809l-27 94l-190 -495h370zM350 354l-121 -297l142 -16l-4 -43l-174 4l-156 -4l-4 45l123 12l397 955l102 47l408 -1002l123 -12l-4 -45l-211 4l-230 -4l-2 43l138 16l-119 297h-408zM379 1260h461v-82h-461v82z" />
    <glyph glyph-name="Aogonek.001" horiz-adv-x="1476" 
d="M1010 -197q0 -76 51 -106.5t137 -30.5v-31q-258 0 -286.5 71t-28.5 118v39l219 164l-162 477h-514l-158 -445l181 -20l-5 -41l-225 4l-196 -4l-7 41l164 18l504 1352l98 45l518 -1397l160 -18l-4 -41l-332 4l-114 -164v-35zM719 1128l-31 127l-244 -692h474z" />
    <glyph glyph-name="Aogonek.sc" horiz-adv-x="1216" 
d="M584 811l-25 92l-190 -495h370zM821 -221q0 -47 46 -76t126 -29v-36q-158 0 -223 36.5t-65 112.5v84l178 168l-125 315h-408l-121 -297l142 -16l-4 -43l-174 4l-156 -4l-4 45l123 12l397 955l102 47l408 -1002l123 -12l-4 -45l-275 4l-86 -166v-57z" />
    <glyph glyph-name="Aring.002" horiz-adv-x="1476" 
d="M918 563l-162 453l-68 239l-244 -692h474zM16 39l164 18l504 1352l98 45l518 -1397l160 -18l-4 -41l-262 4l-272 -4l-4 41l178 20l-156 445h-516l-156 -445l181 -20l-5 -41l-219 4l-202 -4zM637 1609q0 -40 26.5 -66.5t67.5 -26.5t68.5 26.5t27.5 66.5t-27.5 66.5
t-68.5 26.5t-67.5 -26.5t-26.5 -66.5zM851.5 1522q-41.5 -29 -120.5 -49q-103 0 -131.5 48t-28.5 83q0 60 39.5 87.5t120.5 53.5q106 0 134 -49t28 -97t-41.5 -77z" />
    <glyph glyph-name="Aring.sc" horiz-adv-x="1216" 
d="M586 809l-27 94l-190 -495h370zM350 354l-121 -297l142 -16l-4 -43l-174 4l-156 -4l-4 45l123 12l397 955l102 47l408 -1002l123 -12l-4 -45l-211 4l-230 -4l-2 43l138 16l-119 297h-408zM721 1140.5q-43 -31.5 -125 -53.5q-111 0 -138.5 54.5t-27.5 93.5q0 63 39 93.5
t129 60.5q111 0 138.5 -54.5t27.5 -108.5t-43 -85.5zM489 1237q0 -43 30 -70.5t78 -27.5t79 27.5t31 70.5t-31 71.5t-79 28.5t-78 -28.5t-30 -71.5z" />
    <glyph glyph-name="Aringacute.002" horiz-adv-x="1476" 
d="M918 563l-162 453l-68 239l-244 -692h474zM16 39l164 18l504 1352l98 45l518 -1397l160 -18l-4 -41l-262 4l-272 -4l-4 41l178 20l-156 445h-516l-156 -445l181 -20l-5 -41l-219 4l-202 -4zM635 1609q0 -40 27.5 -65.5t68.5 -25.5t68.5 25.5t27.5 65.5t-27.5 66.5
t-68.5 26.5t-68.5 -26.5t-27.5 -66.5zM893 1618q0 -41 -13.5 -63.5t-36 -38t-52 -25.5t-60.5 -21q-103 0 -131.5 50.5t-28.5 84.5t13.5 56t35 37.5t105.5 44.5h17q16 0 28 -4l41 65h104l-110 -75q35 -12 61.5 -41t26.5 -70z" />
    <glyph glyph-name="Aringacute.sc" horiz-adv-x="1216" 
d="M586 809l-27 94l-190 -495h370zM350 354l-121 -297l142 -16l-4 -43l-174 4l-156 -4l-4 45l123 12l397 955l102 47l408 -1002l123 -12l-4 -45l-211 4l-230 -4l-2 43l138 16l-119 297h-408zM480 1319.5q38 29.5 122 56.5l80 82h119l-154 -92q47 -12 82 -43t35 -79
q0 -76 -41.5 -105t-120.5 -49q-105 0 -132.5 50t-27.5 100t38 79.5zM498 1232q0 -40 28.5 -66.5t74.5 -26.5t76 26.5t30 66.5t-30 67.5t-76 27.5t-74.5 -27.5t-28.5 -67.5z" />
    <glyph glyph-name="Atilde.002" horiz-adv-x="1476" 
d="M918 563l-162 453l-68 239l-244 -692h474zM16 39l164 18l504 1352l98 45l518 -1397l160 -18l-4 -41l-262 4l-272 -4l-4 41l178 20l-156 445h-516l-156 -445l181 -20l-5 -41l-219 4l-202 -4zM510 1706l143 41l342 -117l72 123h29l-56 -168l-141 -39l-344 117l-72 -125h-28
z" />
    <glyph glyph-name="Atilde.sc" horiz-adv-x="1216" 
d="M586 809l-27 94l-190 -495h370zM350 354l-121 -297l142 -16l-4 -43l-174 4l-156 -4l-4 45l123 12l397 955l102 47l408 -1002l123 -12l-4 -45l-211 4l-230 -4l-2 43l138 16l-119 297h-408zM403 1300l107 29l293 -94l55 96h27l-43 -166l-107 -26l-291 96l-55 -98h-27z" />
    <glyph glyph-name="B.sc" horiz-adv-x="1058" 
d="M551 524h-176v-469l147 -10q154 0 222.5 71.5t68.5 178.5t-72.5 168t-189.5 61zM375 571h149q106 0 166 65.5t60 157.5t-52.5 144.5t-152.5 54.5l-170 -10v-412zM837 638.5q-87 -68.5 -216 -85.5q186 -4 276 -77t90 -177q0 -135 -114 -209.5t-318 -91.5l-250 4l-233 -4
l-4 45l139 14v926l-139 12l4 43l233 -2l301 2q149 0 233.5 -66.5t84.5 -165.5t-87 -167.5z" />
    <glyph glyph-name="C.sc" horiz-adv-x="1155" 
d="M1063 719h-51l-78 184q-96 101 -264 101q-279 0 -341.5 -178t-62.5 -286q0 -223 113.5 -363t320.5 -140q132 0 226 94l96 205h51l-22 -262q-147 -66 -394 -99q-238 0 -407.5 139t-169.5 384t161.5 388t444.5 177q221 0 377 -88v-256z" />
    <glyph glyph-name="Cacute.002" horiz-adv-x="1406" 
d="M84 696q0 339 199.5 536.5t541.5 235.5q145 0 273.5 -43t208.5 -94v-289h-60l-92 230q-135 135 -356 135t-364.5 -176t-143.5 -479t147.5 -510t415.5 -207q92 0 168 39t119 80l116 258h62l-29 -297q-250 -120 -489 -150q-139 0 -269.5 48t-229.5 140.5t-158.5 229.5
t-59.5 313zM758 1530l114 211h183l-232 -211h-65z" />
    <glyph glyph-name="Cacute.sc" horiz-adv-x="1155" 
d="M627 1141l94 198h164l-203 -198h-55zM1063 719h-51l-78 184q-96 101 -264 101q-279 0 -341.5 -178t-62.5 -286q0 -223 113.5 -363t320.5 -140q132 0 226 94l96 205h51l-22 -262q-147 -66 -394 -99q-238 0 -407.5 139t-169.5 384t161.5 388t444.5 177q221 0 377 -88v-256z
" />
    <glyph glyph-name="Ccaron.002" horiz-adv-x="1406" 
d="M84 696q0 339 199.5 536.5t541.5 235.5q145 0 273.5 -43t208.5 -94v-289h-60l-92 230q-135 135 -356 135t-364.5 -176t-143.5 -479t147.5 -510t415.5 -207q92 0 168 39t119 80l116 258h62l-29 -297q-250 -120 -489 -150q-139 0 -269.5 48t-229.5 140.5t-158.5 229.5
t-59.5 313zM788 1634l11 -10l12 10l209 127h61l-233 -227h-96l-234 227h62z" />
    <glyph glyph-name="Ccaron.sc" horiz-adv-x="1155" 
d="M479 1339l166 -100l10 -14l13 14l168 100h55l-193 -202h-84l-190 202h55zM1063 719h-51l-78 184q-96 101 -264 101q-279 0 -341.5 -178t-62.5 -286q0 -223 113.5 -363t320.5 -140q132 0 226 94l96 205h51l-22 -262q-147 -66 -394 -99q-238 0 -407.5 139t-169.5 384
t161.5 388t444.5 177q221 0 377 -88v-256z" />
    <glyph glyph-name="Ccedilla.001" horiz-adv-x="1406" 
d="M770 -74q145 -24 145 -112q0 -51 -42 -80.5t-117 -57.5l-123 -36h-88l49 65h164q59 28 59 78t-64.5 63t-93.5 13l103 108q-284 13 -481 208t-197 527q0 333 199.5 530.5t541.5 235.5q145 0 273.5 -43t208.5 -94v-289h-60l-92 230q-135 135 -356 135t-364.5 -176
t-143.5 -479t147.5 -510t415.5 -207q92 0 168 39t119 80l116 258h62l-29 -297q-250 -120 -485 -150z" />
    <glyph glyph-name="Ccedilla.sc" horiz-adv-x="1155" 
d="M651 -209q0 80 -119 86l78 100q-225 13 -377.5 151t-152.5 376q0 239 161.5 382t444.5 177q221 0 377 -88v-256h-51l-78 184q-96 101 -264 101q-279 0 -341.5 -178t-62.5 -286q0 -223 113.5 -363t320.5 -140q132 0 226 94l96 205h51l-22 -262q-150 -64 -371 -97l-35 -2
l-35 -45q53 -4 94 -31.5t41 -67.5q0 -63 -40 -97t-105 -60l-100 -36h-68l45 65h125q49 34 49 88z" />
    <glyph glyph-name="Ccircumflex.002" horiz-adv-x="1406" 
d="M84 696q0 339 199.5 536.5t541.5 235.5q145 0 273.5 -43t208.5 -94v-289h-60l-92 230q-135 135 -356 135t-364.5 -176t-143.5 -479t147.5 -510t415.5 -207q92 0 168 39t119 80l116 258h62l-29 -297q-250 -120 -489 -150q-139 0 -269.5 48t-229.5 140.5t-158.5 229.5
t-59.5 313zM532 1524l234 227h98l234 -227h-64l-207 127l-12 10l-12 -10l-207 -127h-64z" />
    <glyph glyph-name="Ccircumflex.sc" horiz-adv-x="1155" 
d="M438 1141l189 202h84l192 -202h-55l-166 98l-14 16l-9 -16l-167 -98h-54zM1063 719h-51l-78 184q-96 101 -264 101q-279 0 -341.5 -178t-62.5 -286q0 -223 113.5 -363t320.5 -140q132 0 226 94l96 205h51l-22 -262q-147 -66 -394 -99q-238 0 -407.5 139t-169.5 384
t161.5 388t444.5 177q221 0 377 -88v-256z" />
    <glyph glyph-name="Cdotaccent.002" horiz-adv-x="1406" 
d="M84 696q0 339 199.5 536.5t541.5 235.5q145 0 273.5 -43t208.5 -94v-289h-60l-92 230q-135 135 -356 135t-364.5 -176t-143.5 -479t147.5 -510t415.5 -207q92 0 168 39t119 80l116 258h62l-29 -297q-250 -120 -489 -150q-139 0 -269.5 48t-229.5 140.5t-158.5 229.5
t-59.5 313zM723 1741l125 8l45 -8l8 -94l-18 -84l-125 -11l-43 11l-10 98z" />
    <glyph glyph-name="Cdotaccent.sc" horiz-adv-x="1155" 
d="M592 1325l113 8l40 -10l9 -86l-17 -72l-112 -10l-41 10l-6 86zM1063 719h-51l-78 184q-96 101 -264 101q-279 0 -341.5 -178t-62.5 -286q0 -223 113.5 -363t320.5 -140q132 0 226 94l96 205h51l-22 -262q-147 -66 -394 -99q-238 0 -407.5 139t-169.5 384t161.5 388
t444.5 177q221 0 377 -88v-256z" />
    <glyph glyph-name="D.sc" horiz-adv-x="1224" 
d="M860 868.5q-103 126.5 -311 122.5l-168 -8v-926l201 -10q169 -4 275 135t106 349q0 211 -103 337.5zM164 1036h313q57 0 153 1t198 -31.5t210.5 -128.5t108.5 -330t-140.5 -381.5t-412.5 -167.5l-293 4l-229 -4l-4 45l145 14v926l-145 12l4 43q49 -2 92 -2z" />
    <glyph glyph-name="Dcaron.002" horiz-adv-x="1501" 
d="M1064 1206.5q-136 179.5 -402 179.5l-226 -12v-1306l269 -17q222 0 358.5 186.5t136.5 488.5q0 301 -136 480.5zM1227.5 219.5q-177.5 -197.5 -514.5 -221.5l-344 4l-303 -4l-5 41l191 20v1317l-191 19l5 41l303 -4l356 4q319 0 499.5 -182t180.5 -509
q0 -328 -177.5 -525.5zM692 1634l10 -10l220 137h63l-233 -227h-99l-231 227h61z" />
    <glyph glyph-name="Dcaron.sc" horiz-adv-x="1224" 
d="M815 1339l-190 -202h-84l-191 202h53l168 -100l11 -14l12 14l168 100h53zM998.5 166q-140.5 -148 -412.5 -168l-291 4l-232 -4l-4 45l146 14v926l-146 12l4 43l234 -2l297 2q255 0 400 -128.5t145 -362.5q0 -233 -140.5 -381zM851.5 869q-102.5 126 -310.5 122l-168 -8
v-926l200 -10q169 -4 275 134.5t106 349.5q0 212 -102.5 338z" />
    <glyph glyph-name="Dcroat.sc" horiz-adv-x="1224" 
d="M373 563h215v-51h-215v-455l200 -10q169 -4 275 134.5t106 348.5q0 333 -153.5 398t-259.5 63l-168 -8v-420zM205 563v420l-146 12l4 43l232 -2l299 2q255 0 400 -128.5t145 -362.5t-140.5 -381.5t-412.5 -167.5l-295 4l-228 -4l-4 45l146 14v455h-129v51h129z" />
    <glyph glyph-name="E.sc" horiz-adv-x="1040" 
d="M944 1038l8 -278h-32l-101 223l-444 2v-414l248 2l67 168h33l-8 -194l8 -199h-33l-67 168l-248 2v-465l456 2l109 230h37l-29 -287l-659 4l-217 -4l-4 45l139 14v926l-139 12l4 43l217 -2z" />
    <glyph glyph-name="Eacute.002" horiz-adv-x="1255" 
d="M61 39l183 20v1317l-183 19l5 41l282 -4l805 4l8 -365h-37l-123 305l-573 2v-602l326 4l84 228h39l-11 -250l11 -262h-39l-84 225l-326 4v-670l592 4l135 314h41l-37 -375l-811 4l-282 -4zM608 1530l113 211h184l-231 -211h-66z" />
    <glyph glyph-name="Eacute.sc" horiz-adv-x="1040" 
d="M944 1038l8 -278h-32l-101 223l-444 2v-414l248 2l67 168h33l-8 -194l8 -199h-33l-67 168l-248 2v-465l456 2l109 230h37l-29 -287l-657 4l-219 -4l-4 45l139 14v926l-139 12l4 43l221 -2zM518 1141l94 198h164l-203 -198h-55z" />
    <glyph glyph-name="Ebreve.002" horiz-adv-x="1255" 
d="M61 39l183 20v1317l-183 19l5 41l282 -4l805 4l8 -365h-37l-123 305l-573 2v-602l326 4l84 228h39l-11 -250l11 -262h-39l-84 225l-326 4v-670l592 4l135 314h41l-37 -375l-811 4l-282 -4zM913 1751l27 -20q-76 -151 -233 -218q-184 0 -289 216l31 22q52 -87 118 -112
t130.5 -25t115 36t100.5 101z" />
    <glyph glyph-name="Ebreve.sc" horiz-adv-x="1040" 
d="M944 1038l8 -278h-32l-101 223l-444 2v-414l248 2l67 168h33l-8 -194l8 -199h-33l-67 168l-248 2v-465l456 2l109 230h37l-29 -287l-657 4l-219 -4l-4 45l139 14v926l-139 12l4 43l219 -2zM371 1319q84 -98 186 -98t143 42t54 56l24 -23q-36 -82 -90.5 -116.5
t-103.5 -55.5q-132 0 -179 71t-61 99z" />
    <glyph glyph-name="Ecaron.002" horiz-adv-x="1255" 
d="M61 39l183 20v1317l-183 19l5 41l282 -4l805 4l8 -365h-37l-123 305l-573 2v-602l326 4l84 228h39l-11 -250l11 -262h-39l-84 225l-326 4v-670l592 4l135 314h41l-37 -375l-811 4l-282 -4zM676 1634l12 -10l12 10l207 127h64l-234 -227h-98l-233 227h63z" />
    <glyph glyph-name="Ecaron.sc" horiz-adv-x="1040" 
d="M944 1038l8 -278h-32l-101 223l-444 2v-414l248 2l67 168h33l-8 -194l8 -199h-33l-67 168l-248 2v-465l456 2l109 230h37l-29 -287l-659 4l-217 -4l-4 45l139 14v926l-139 12l4 43l219 -2zM395 1339l168 -100l10 -14l11 14l168 100h55l-193 -202h-84l-190 202h55z" />
    <glyph glyph-name="Ecircumflex.002" horiz-adv-x="1255" 
d="M61 39l183 20v1317l-183 19l5 41l282 -4l805 4l8 -365h-37l-123 305l-573 2v-602l326 4l84 228h39l-11 -250l11 -262h-39l-84 225l-326 4v-670l592 4l135 314h41l-37 -375l-811 4l-282 -4zM412 1524l233 227h96l234 -227h-62l-208 127l-13 10l-10 -10l-209 -127h-61z" />
    <glyph glyph-name="Ecircumflex.sc" horiz-adv-x="1040" 
d="M944 1038l8 -278h-32l-101 223l-444 2v-414l248 2l67 168h33l-8 -194l8 -199h-33l-67 168l-248 2v-465l456 2l109 230h37l-29 -287l-657 4l-219 -4l-4 45l139 14v926l-139 12l4 43l219 -2zM346 1141l191 202h84l190 -202h-53l-168 98l-15 16l-8 -16l-168 -98h-53z" />
    <glyph glyph-name="Edieresis.002" horiz-adv-x="1255" 
d="M61 39l183 20v1317l-183 19l5 41l282 -4l805 4l8 -365h-37l-123 305l-573 2v-602l326 4l84 228h39l-11 -250l11 -262h-39l-84 225l-326 4v-670l592 4l135 314h41l-37 -375l-811 4l-282 -4zM948 1745l47 -8l9 -86l-17 -78l-110 -8l-46 8l-10 90l19 74zM512 1745l45 -8
l10 -86l-18 -78l-111 -8l-45 8l-8 90l16 74z" />
    <glyph glyph-name="Edieresis.sc" horiz-adv-x="1040" 
d="M944 1038l8 -278h-32l-101 223l-444 2v-414l248 2l67 168h33l-8 -194l8 -199h-33l-67 168l-248 2v-465l456 2l109 230h37l-29 -287l-657 4l-219 -4l-4 45l139 14v926l-139 12l4 43l221 -2zM791 1311l36 -6l9 -78l-15 -68l-92 -8l-39 8l-8 80l12 66zM432 1311l39 -6
l10 -78l-16 -68l-94 -8l-39 8l-6 80l14 66z" />
    <glyph glyph-name="Edotaccent.002" horiz-adv-x="1255" 
d="M61 39l183 20v1317l-183 19l5 41l282 -4l805 4l8 -365h-37l-123 305l-573 2v-602l326 4l84 228h39l-11 -250l11 -262h-39l-84 225l-326 4v-670l592 4l135 314h41l-37 -375l-811 4l-282 -4zM606 1741l127 8l43 -8l10 -94l-18 -84l-127 -11l-41 11l-10 98z" />
    <glyph glyph-name="Edotaccent.sc" horiz-adv-x="1040" 
d="M944 1038l8 -278h-32l-101 223l-444 2v-414l248 2l67 168h33l-8 -194l8 -199h-33l-67 168l-248 2v-465l456 2l109 230h37l-29 -287l-659 4l-217 -4l-4 45l139 14v926l-139 12l4 43l221 -2zM502 1317l112 8l41 -10l9 -84l-17 -76l-112 -8l-39 8l-9 88z" />
    <glyph glyph-name="Egrave.002" horiz-adv-x="1255" 
d="M61 39l183 20v1317l-183 19l5 41l282 -4l805 4l8 -365h-37l-123 305l-573 2v-602l326 4l84 228h39l-11 -250l11 -262h-39l-84 225l-326 4v-670l592 4l135 314h41l-37 -375l-811 4l-282 -4zM688 1530l-231 211h182l113 -211h-64z" />
    <glyph glyph-name="Egrave.sc" horiz-adv-x="1040" 
d="M944 1038l8 -278h-32l-101 223l-444 2v-414l248 2l67 168h33l-8 -194l8 -199h-33l-67 168l-248 2v-465l456 2l109 230h37l-29 -287l-657 4l-219 -4l-4 45l139 14v926l-139 12l4 43l219 -2zM553 1141l-205 198h166l94 -198h-55z" />
    <glyph glyph-name="Emacron.002" horiz-adv-x="1255" 
d="M61 39l183 20v1317l-183 19l5 41l282 -4l805 4l8 -365h-37l-123 305l-573 2v-602l326 4l84 228h39l-11 -250l11 -262h-39l-84 225l-326 4v-670l592 4l135 314h41l-37 -375l-811 4l-282 -4zM403 1690h574v-78h-574v78z" />
    <glyph glyph-name="Emacron.sc" horiz-adv-x="1040" 
d="M944 1038l8 -278h-32l-101 223l-444 2v-414l248 2l67 168h33l-8 -194l8 -199h-33l-67 168l-248 2v-465l456 2l109 230h37l-29 -287l-657 4l-219 -4l-4 45l139 14v926l-139 12l4 43l221 -2zM336 1260h459v-82h-459v82z" />
    <glyph glyph-name="Eng.001" horiz-adv-x="1470" 
d="M831 -360v102l150 4l143 184l109 62h-72l-799 1229l-43 112v-1274l177 -20l-7 -41l-204 4l-219 -4l-5 41l183 20v1307l-178 29l4 41l192 -4l170 4l715 -1086l45 -96v1122l-180 19l6 41l205 -4l221 4l6 -41l-184 -19v-1384l-185 -352h-250z" />
    <glyph glyph-name="Eng.sc" horiz-adv-x="1228" 
d="M662 -348v139h129l127 160l71 43h-47l-631 852l-41 108v-897l140 -14l-7 -45l-159 4l-172 -4l-4 45l139 14v922l-135 16l4 43l147 -2l152 2l545 -700l49 -102v747l-138 12l3 43l161 -2l172 2l4 -43l-139 -12v-989l-188 -342h-182z" />
    <glyph glyph-name="Eogonek.001" horiz-adv-x="1257" 
d="M1085 -324q0 -32 11 -38q-235 0 -260 65.5t-25 108.5q-14 0 -21.5 18t-7.5 27l213 143l-653 2l-276 -4l-5 41l183 20v1317l-183 19l5 41l278 -4l809 4l8 -365h-37l-123 305l-573 2v-602l326 4l84 228h39l-11 -250l11 -262h-39l-84 225l-326 4v-670l592 4l135 314h41
l-37 -375l-137 2l-107 -164l-4 -29q0 -72 46 -101.5t128 -29.5z" />
    <glyph glyph-name="Eogonek.sc" horiz-adv-x="1040" 
d="M760 -221q0 -47 46 -76t124 -29v-36q-156 0 -220.5 37.5t-64.5 111.5v80l154 133l-510 2l-217 -4l-4 45l139 14v926l-139 12l4 43l219 -2l653 2l8 -278h-32l-101 223l-444 2v-414l248 2l67 168h33l-8 -194l8 -199h-33l-67 168l-248 2v-465l456 2l109 230h37l-29 -287
l-104 2l-84 -168v-53z" />
    <glyph glyph-name="Eth.sc" horiz-adv-x="1224" 
d="M373 563h215v-45h-215v-461l200 -10q170 -4 275.5 134.5t105.5 348.5q0 333 -153.5 398t-259.5 63l-168 -8v-420zM207 563v420l-148 12l4 43q47 -2 91 -2h313q59 0 155 1t198 -31.5t210.5 -128.5t108.5 -330t-140.5 -381.5t-412.5 -167.5l-291 4l-232 -4l-4 45l148 14
v461h-131v45h131z" />
    <glyph glyph-name="Euro.sc" horiz-adv-x="1144" 
d="M1051 721h-47l-78 194q-79 84 -226 84q-187 0 -249 -135t-70 -225h502l-31 -59h-477v-31q0 -47 6 -90h401l-32 -60h-361q46 -222 164.5 -267.5t222.5 -45.5t248 80l20 -43q-148 -102 -333 -146q-315 0 -404.5 157t-103.5 265h-101v60h97q-2 10 -2 13v46q0 43 4 62h-99v59
h107q68 350 508 424q203 0 334 -100v-242z" />
    <glyph glyph-name="Euro.tlf" 
d="M20 559v66h125q-2 18 -2 23v69q0 65 4 94h-127v63h136q43 258 207.5 403.5t420.5 190.5q154 0 258.5 -43t159.5 -88v-309h-53l-94 250q-108 133 -295 133q-154 0 -271.5 -145t-140.5 -392h651l-34 -63h-623v-53q0 -70 6 -133h529l-35 -66h-482q33 -204 153.5 -333.5
t306.5 -129.5t347 119l27 -49q-114 -92 -232 -137t-184 -60q-252 0 -421.5 153.5t-204.5 436.5h-132z" />
    <glyph glyph-name="Euro.tlf.sc" horiz-adv-x="1271" 
d="M1116 721h-47l-76 194q-79 84 -214 84q-134 0 -223 -93t-110 -267h502l-30 -59h-476v-50q0 -49 4 -71h402l-31 -60h-362q46 -221 164 -267t221 -46t250 80l22 -43q-147 -101 -336 -146q-316 0 -403.5 157t-102.5 265h-100v60h94q-2 10 -2 13v46q0 43 4 62h-96v59h104
q68 350 508 424q203 0 334 -100v-242z" />
    <glyph glyph-name="F.sc" horiz-adv-x="993" 
d="M72 -2l-4 45l139 14v926l-139 12l4 43l221 -2l651 2l8 -286h-34l-103 231l-440 2v-438l248 4l67 176h33l-8 -203l8 -205h-33l-67 175l-248 4v-441l166 -14l-2 -45l-246 4z" />
    <glyph glyph-name="G.sc" horiz-adv-x="1236" 
d="M643 -25q-237 0 -400 139t-163 384t157.5 388t444.5 177q125 0 225.5 -29.5t153.5 -60.5v-252h-47l-78 182q-35 41 -101.5 71t-161.5 30q-189 0 -298 -129t-109 -340q0 -212 111 -356t303 -144q78 0 135 21.5t86 45.5v316l-137 16l4 47l215 -4l184 4l4 -47l-104 -16v-342
q-134 -69 -424 -101z" />
    <glyph glyph-name="Gbreve.002" horiz-adv-x="1497" 
d="M788 -35q-297 0 -500.5 196t-203.5 536t198 537t539 234q219 0 335 -58t147 -79v-289h-54l-92 226q-139 139 -379 139q-92 0 -187 -48t-197.5 -184t-102.5 -434t145.5 -504t392.5 -206q104 0 182.5 42t116.5 85v436l-176 22l4 39l254 -4l230 4l4 -39l-131 -22v-483
q-303 -127 -525 -146zM815 1614q47 0 84 14t65.5 34.5t49 45.5t35.5 43l26 -20q-76 -151 -233 -218q-184 0 -289 216l31 22q52 -87 118 -112t113 -25z" />
    <glyph glyph-name="Gbreve.sc" horiz-adv-x="1236" 
d="M658.5 1221q113.5 0 197.5 98l25 -23q-25 -80 -84.5 -115.5t-110.5 -56.5q-131 0 -178 71t-62 99l29 25q70 -98 183.5 -98zM643 -25q-237 0 -400 139t-163 384t157.5 388t444.5 177q125 0 225.5 -29.5t153.5 -60.5v-252h-47l-78 182q-35 41 -101.5 71t-161.5 30
q-189 0 -298 -129t-109 -340q0 -212 111 -356t303 -144q78 0 135 21.5t86 45.5v316l-137 16l4 47l215 -4l184 4l4 -47l-104 -16v-342q-134 -69 -424 -101z" />
    <glyph glyph-name="Gcircumflex.002" horiz-adv-x="1497" 
d="M788 -35q-297 0 -500.5 196t-203.5 536t198 537t539 234q219 0 335 -58t147 -79v-289h-54l-92 226q-139 139 -379 139q-92 0 -187 -48t-197.5 -184t-102.5 -434t145.5 -504t392.5 -206q104 0 182.5 42t116.5 85v436l-176 22l4 39l254 -4l230 4l4 -39l-131 -22v-483
q-303 -127 -525 -146zM539 1524l233 227h96l234 -227h-62l-209 127l-12 10l-10 -10l-209 -127h-61z" />
    <glyph glyph-name="Gcircumflex.sc" horiz-adv-x="1236" 
d="M436 1141l193 202h82l192 -202h-55l-166 98l-14 16l-9 -16l-167 -98h-56zM643 -25q-237 0 -400 139t-163 384t157.5 388t444.5 177q125 0 225.5 -29.5t153.5 -60.5v-252h-47l-78 182q-35 41 -101.5 71t-161.5 30q-189 0 -298 -129t-109 -340q0 -212 111 -356t303 -144
q78 0 135 21.5t86 45.5v316l-137 16l4 47l215 -4l184 4l4 -47l-104 -16v-342q-134 -69 -424 -101z" />
    <glyph glyph-name="Gcommaaccent.001" horiz-adv-x="1497" 
d="M788 -35q-297 0 -500.5 196t-203.5 536t198 537t539 234q219 0 335 -58t147 -79v-289h-54l-92 226q-139 139 -379 139q-92 0 -187 -48t-197.5 -184t-102.5 -434t145.5 -504t392.5 -206q104 0 182.5 42t116.5 85v436l-176 22l4 39l254 -4l230 4l4 -39l-131 -22v-483
q-303 -127 -525 -146zM702 -104h177v-132l-142 -135l-35 17l76 118l-76 48v84z" />
    <glyph glyph-name="Gcommaaccent.sc" horiz-adv-x="1236" 
d="M575 -74h154v-119l-125 -167l-37 8l62 164l-54 49v65zM643 -25q-237 0 -400 139t-163 384t157.5 388t444.5 177q125 0 225.5 -29.5t153.5 -60.5v-252h-47l-78 182q-35 41 -101.5 71t-161.5 30q-189 0 -298 -129t-109 -340q0 -212 111 -356t303 -144q78 0 135 21.5
t86 45.5v316l-137 16l4 47l213 -4l186 4l4 -47l-104 -16v-342q-134 -69 -424 -101z" />
    <glyph glyph-name="Gdotaccent.002" horiz-adv-x="1497" 
d="M788 -35q-297 0 -500.5 196t-203.5 536t198 537t539 234q219 0 335 -58t147 -79v-289h-54l-92 226q-139 139 -379 139q-92 0 -187 -48t-197.5 -184t-102.5 -434t145.5 -504t392.5 -206q104 0 182.5 42t116.5 85v436l-176 22l4 39l254 -4l230 4l4 -39l-131 -22v-483
q-303 -127 -525 -146zM752 1741l125 8l45 -8l8 -94l-17 -84l-127 -11l-43 11l-10 98z" />
    <glyph glyph-name="Gdotaccent.sc" horiz-adv-x="1236" 
d="M602 1321l113 8l43 -10l6 -84l-16 -76l-111 -8l-41 8l-8 88zM643 -25q-237 0 -400 139t-163 384t157.5 388t444.5 177q125 0 225.5 -29.5t153.5 -60.5v-252h-47l-78 182q-35 41 -101.5 71t-161.5 30q-189 0 -298 -129t-109 -340q0 -212 111 -356t303 -144q78 0 135 21.5
t86 45.5v316l-137 16l4 47l215 -4l184 4l4 -47l-104 -16v-342q-134 -69 -424 -101z" />
    <glyph glyph-name="H.sc" horiz-adv-x="1265" 
d="M375 569h522v414l-139 12l4 43l219 -2l213 2l4 -43l-135 -12v-926l135 -14l-4 -45l-213 4l-219 -4l-4 45l139 14v453h-522v-453l135 -14l-4 -45l-215 4l-219 -4l-4 45l139 14v926l-139 12l4 43l219 -2l215 2l4 -43l-135 -12v-414z" />
    <glyph glyph-name="Hbar.sc" horiz-adv-x="1265" 
d="M897 569v140h-522v-140h522zM375 750h522v233l-139 12l4 43l219 -2l213 2l4 -43l-135 -12v-926l135 -14l-4 -45l-213 4l-219 -4l-4 45l139 14v453h-522v-453l135 -14l-4 -45l-215 4l-219 -4l-4 45l139 14v926l-139 12l4 43l219 -2l215 2l4 -43l-135 -12v-233z" />
    <glyph glyph-name="Hcircumflex.002" horiz-adv-x="1533" 
d="M428 774h684v602l-184 19l6 41l272 -4l262 4l7 -41l-179 -19v-1317l179 -20l-7 -41l-262 4l-272 -4l-6 41l184 20v656h-684v-656l178 -20l-6 -41l-264 4l-270 -4l-5 41l183 20v1317l-183 19l5 41l270 -4l264 4l6 -41l-178 -19v-602zM487 1524l234 227h96l234 -227h-62
l-209 127l-12 10l-10 -10l-209 -127h-62z" />
    <glyph glyph-name="Hcircumflex.sc" horiz-adv-x="1265" 
d="M375 569h522v414l-139 12l4 43l219 -2l213 2l4 -43l-135 -12v-926l135 -14l-4 -45l-213 4l-219 -4l-4 45l139 14v453h-522v-453l135 -14l-4 -45l-215 4l-219 -4l-4 45l139 14v926l-139 12l4 43l219 -2l215 2l4 -43l-135 -12v-414zM410 1141l190 202h84l190 -202h-55
l-166 98l-14 16l-8 -16l-168 -98h-53z" />
    <glyph glyph-name="I.sc" horiz-adv-x="581" 
d="M291 2l-219 -4l-4 45l141 14v926l-141 12l4 43l219 -2l219 2l4 -43l-139 -12v-926l139 -14l-4 -45z" />
    <glyph glyph-name="IJ.sc" horiz-adv-x="1009" 
d="M289 2l-217 -4l-4 45l141 14v926l-141 12l4 43l221 -2l174 2l4 -43l-96 -12v-926l135 -14l-4 -45zM813 199q0 -180 -90 -283l-160 -174h-121v168h176l11 33q18 59 18 204v836l-110 12l4 43l190 -2l213 2l4 -43l-135 -12v-784z" />
    <glyph glyph-name="Iacute.002" horiz-adv-x="677" 
d="M336 2l-270 -4l-5 43l183 18v1317l-183 19l5 41l270 -4l270 4l4 -41l-182 -19v-1317l182 -18l-4 -43zM274 1530l113 211h184l-233 -211h-64z" />
    <glyph glyph-name="Iacute.sc" horiz-adv-x="581" 
d="M291 2l-219 -4l-4 45l141 14v926l-141 12l4 43l219 -2l219 2l4 -43l-139 -12v-926l139 -14l-4 -45zM262 1141l94 198h166l-203 -198h-57z" />
    <glyph glyph-name="Ibreve.002" horiz-adv-x="677" 
d="M336 2l-270 -4l-5 43l183 18v1317l-183 19l5 41l270 -4l270 4l4 -41l-182 -19v-1317l182 -18l-4 -43zM567 1751l29 -20q-12 -20 -51.5 -89t-184.5 -129q-183 0 -288 216l30 22q52 -87 118.5 -112t131 -25t115 36t100.5 101z" />
    <glyph glyph-name="Ibreve.sc" horiz-adv-x="581" 
d="M291 2l-219 -4l-4 45l141 14v926l-141 12l4 43l219 -2l219 2l4 -43l-139 -12v-926l139 -14l-4 -45zM294 1223q111 0 189 96l25 -23q-18 -47 -56 -89t-137 -83q-133 0 -180 71t-61 99l26 25q83 -96 194 -96z" />
    <glyph glyph-name="Icircumflex.002" horiz-adv-x="677" 
d="M336 2l-270 -4l-5 43l183 18v1317l-183 19l5 41l270 -4l270 4l4 -41l-182 -19v-1317l182 -18l-4 -43zM53 1524l234 227h96l235 -227h-63l-207 127l-14 10l-10 -10l-209 -127h-62z" />
    <glyph glyph-name="Icircumflex.sc" horiz-adv-x="581" 
d="M291 2l-219 -4l-4 45l141 14v926l-141 12l4 43l219 -2l219 2l4 -43l-139 -12v-926l139 -14l-4 -45zM57 1141l193 202h84l190 -202h-55l-166 98l-12 16l-10 -16l-168 -98h-56z" />
    <glyph glyph-name="Idieresis.002" horiz-adv-x="677" 
d="M336 2l-270 -4l-5 43l183 18v1317l-183 19l5 41l270 -4l270 4l4 -41l-182 -19v-1317l182 -18l-4 -43zM602 1745l45 -8l8 -86l-16 -78l-111 -8l-45 8l-10 90l19 74zM156 1745l45 -8l10 -86l-18 -78l-111 -8l-43 8l-10 90l16 74z" />
    <glyph glyph-name="Idieresis.sc" horiz-adv-x="581" 
d="M291 2l-219 -4l-4 45l141 14v926l-141 12l4 43l219 -2l219 2l4 -43l-139 -12v-926l139 -14l-4 -45zM492 1311l36 -6l9 -78l-17 -68l-92 -8l-37 8l-6 80l12 66zM158 1311l39 -6l8 -78l-17 -68l-92 -8l-39 8l-6 80l12 66z" />
    <glyph glyph-name="Idotaccent.002" horiz-adv-x="677" 
d="M336 2l-270 -4l-5 43l183 18v1317l-183 19l5 41l270 -4l270 4l4 -41l-182 -19v-1317l182 -18l-4 -43zM252 1741l127 8l43 -8l10 -94l-18 -84l-127 -11l-41 11l-10 98z" />
    <glyph glyph-name="Idotaccent.sc" horiz-adv-x="581" 
d="M291 2l-219 -4l-4 45l141 14v926l-141 12l4 43l219 -2l219 2l4 -43l-139 -12v-926l139 -14l-4 -45zM219 1321l113 8l41 -10l8 -84l-16 -76l-113 -8l-39 8l-10 88z" />
    <glyph glyph-name="Igrave.002" horiz-adv-x="677" 
d="M336 2l-270 -4l-5 43l183 18v1317l-183 19l5 41l270 -4l270 4l4 -41l-182 -19v-1317l182 -18l-4 -43zM356 1530l-233 211h184l113 -211h-64z" />
    <glyph glyph-name="Igrave.sc" horiz-adv-x="581" 
d="M291 2l-219 -4l-4 45l141 14v926l-141 12l4 43l219 -2l219 2l4 -43l-139 -12v-926l139 -14l-4 -45zM299 1141l-203 198h164l94 -198h-55z" />
    <glyph glyph-name="Imacron.002" horiz-adv-x="677" 
d="M336 2l-270 -4l-5 43l183 18v1317l-183 19l5 41l270 -4l270 4l4 -41l-182 -19v-1317l182 -18l-4 -43zM53 1690h572v-78h-572v78z" />
    <glyph glyph-name="Imacron.sc" horiz-adv-x="581" 
d="M291 2l-219 -4l-4 45l141 14v926l-141 12l4 43l219 -2l219 2l4 -43l-139 -12v-926l139 -14l-4 -45zM59 1260h461v-82h-461v82z" />
    <glyph glyph-name="Iogonek.001" horiz-adv-x="671" 
d="M250 -190q0 -144 188 -144v-31q-256 0 -285.5 71t-29.5 118v37l199 141l-256 -4l-5 43l183 18v1317l-183 19l5 41l270 -4l270 4l4 -41l-182 -19v-1317l182 -18l-4 -43l-239 4l-117 -170v-22z" />
    <glyph glyph-name="Iogonek.sc" horiz-adv-x="575" 
d="M242 -221q0 -47 45 -76t125 -29v-36q-156 0 -221.5 36.5t-65.5 112.5v72l149 143l-202 -4l-4 45l141 14v926l-141 12l4 43l219 -2l215 2l4 -43l-135 -12v-926l135 -14l-4 -45l-187 4l-77 -170v-53z" />
    <glyph glyph-name="Itilde.002" horiz-adv-x="677" 
d="M338 2l-270 -4l-5 43l183 18v1317l-183 19l5 41l270 -4l270 4l4 -41l-182 -19v-1317l182 -18l-4 -43zM90 1706l141 41l344 -117l72 123h29l-55 -168l-144 -39l-342 117l-72 -125h-28z" />
    <glyph glyph-name="Itilde.sc" horiz-adv-x="581" 
d="M291 2l-219 -4l-4 45l141 14v926l-141 12l4 43l219 -2l219 2l4 -43l-139 -12v-926l139 -14l-4 -45zM82 1300l106 29l291 -94l58 96h24l-41 -166l-106 -26l-293 96l-55 -98h-25z" />
    <glyph glyph-name="J.sc" horiz-adv-x="598" 
d="M401 193q0 -186 -90 -287l-155 -164h-125v158h176l10 32q19 63 19 205v846l-170 12l4 43l247 -2l215 2l5 -43l-136 -12v-790z" />
    <glyph glyph-name="Jcircumflex.002" horiz-adv-x="669" 
d="M444 190q0 -123 -22.5 -196.5t-75.5 -134.5l-190 -217h-156v165h223l13 43q18 61 20 160t2 178v1188l-217 19l6 41l303 -4l266 4l5 -41l-177 -19v-1186zM57 1524l234 227h96l234 -227h-62l-209 127l-12 10l-10 -10l-209 -127h-62z" />
    <glyph glyph-name="Jcircumflex.sc" horiz-adv-x="598" 
d="M68 1141l190 202h82l192 -202h-55l-168 98l-12 16l-10 -16l-168 -98h-51zM389 193q0 -183 -92 -287l-156 -164h-125v158h177l10 32q18 59 18 205v846l-170 12l4 43l250 -2l215 2l4 -43l-135 -12v-790z" />
    <glyph glyph-name="K.sc" horiz-adv-x="1181" 
d="M68 43l139 14v926l-139 12l4 43l219 -2l205 2l4 -43l-125 -12v-434l35 22l491 412l-133 12l4 43l172 -2l152 2l4 -43l-133 -14l-504 -424l84 6l502 -508l94 -12l-4 -45l-152 4l-125 -4l-465 485l-22 41v-467l125 -14l-4 -45l-205 4l-219 -4z" />
    <glyph glyph-name="Kcommaaccent.001" horiz-adv-x="1411" 
d="M477 791l619 585l-168 19l6 41l209 -4l186 4l6 -41l-164 -23l-636 -610l90 6l643 -713l121 -16l-5 -41l-206 4l-121 -4l-598 682l-31 47v-668l164 -20l-4 -41l-252 4l-270 -4l-5 41l183 20v1317l-183 19l5 41l270 -4l252 4l4 -41l-164 -19v-622zM614 -80h177v-131
l-140 -154l-35 17l70 137l-72 47v84z" />
    <glyph glyph-name="Kcommaaccent.sc" horiz-adv-x="1181" 
d="M68 43l139 14v926l-139 12l4 43l219 -2l205 2l4 -43l-125 -12v-434l41 26l485 408l-133 12l4 43l170 -2l154 2l4 -43l-133 -14l-504 -424l84 6l502 -508l94 -12l-4 -45l-150 4l-127 -4l-463 483l-24 43v-467l125 -14l-4 -45l-205 4l-219 -4zM518 -74h156v-119l-127 -167
l-39 8l63 164l-53 49v65z" />
    <glyph glyph-name="L.sc" horiz-adv-x="968" 
d="M291 2l-219 -4l-4 45l139 14v926l-139 12l4 43l219 -2l219 2l2 -43l-137 -12v-928l413 2l113 236h39l-29 -295z" />
    <glyph glyph-name="Lacute.002" horiz-adv-x="1167" 
d="M344 2l-278 -4l-5 41l183 20v1317l-183 19l5 41l274 -4l266 4l4 -41l-182 -19v-1319l537 4l133 316h45l-35 -379zM297 1530l115 211h182l-232 -211h-65z" />
    <glyph glyph-name="Lacute.sc" horiz-adv-x="968" 
d="M289 2l-217 -4l-4 45l139 14v926l-139 12l4 43l219 -2l219 2l2 -43l-137 -12v-928l413 2l113 236h39l-29 -295zM360 1339h166l-202 -198h-56z" />
    <glyph glyph-name="Lcaron.sc" horiz-adv-x="974" 
d="M293 2l-221 -4l-4 45l139 14v926l-139 12l4 43l219 -2l219 2l2 -43l-137 -12v-928l413 2l113 236h39l-29 -295zM735 967l10 77l117 9l47 -9l9 -90l-13 -80l-125 -235l-35 14q4 10 44 98.5t40 116.5l-88 6z" />
    <glyph glyph-name="Lcommaaccent.001" horiz-adv-x="1167" 
d="M344 2l-278 -4l-5 41l183 20v1317l-183 19l5 41l274 -4l266 4l4 -41l-182 -19v-1319l537 4l133 316h45l-35 -379zM545 -86h176v-131l-143 -154l-33 17l69 137l-69 47v84z" />
    <glyph glyph-name="Lcommaaccent.sc" horiz-adv-x="968" 
d="M289 2l-217 -4l-4 45l139 14v926l-139 12l4 43l219 -2l219 2l2 -43l-137 -12v-928l413 2l113 236h39l-29 -295zM469 -74h156v-119l-127 -167l-39 8l63 164l-53 49v65z" />
    <glyph glyph-name="Ldot.sc" horiz-adv-x="968" 
d="M291 2l-219 -4l-4 45l139 14v926l-139 12l4 43l219 -2l219 2l2 -43l-137 -12v-928l413 2l113 236h39l-29 -295zM664 690l43 -10l6 -86l-17 -76l-108 -10l-43 10l-8 88l14 74z" />
    <glyph glyph-name="Lslash.sc" horiz-adv-x="968" 
d="M289 2l-217 -4l-4 45l139 14v435l-135 -64v61l135 64v430l-139 12l4 43l219 -2l219 2l2 -43l-137 -12v-352l166 80v-60l-166 -80v-516l413 2l113 236h39l-29 -295z" />
    <glyph glyph-name="M.sc" horiz-adv-x="1536" 
d="M1151 1038l143 -2l172 2l4 -43l-137 -12v-926l133 -14l-4 -45l-200 4l-224 -4l-4 45l133 14v766l11 142l-412 -971h-88l-361 833l-51 142v-912l133 -14l-6 -45l-155 4l-162 -4l-4 45l131 14v924l-135 14l4 43l155 -2l174 2l351 -772l22 -92z" />
    <glyph glyph-name="N.sc" horiz-adv-x="1228" 
d="M1032 -6h-90l-631 852l-41 108v-897l140 -14l-7 -45l-159 4l-172 -4l-4 45l139 14v922l-135 16l4 43l153 -2l146 2l547 -702l47 -100v747l-138 12l3 43l161 -2l172 2l4 -43l-139 -12v-989z" />
    <glyph glyph-name="Nacute.002" horiz-adv-x="1470" 
d="M1266 -8h-103l-796 1222l-48 113v-1268l181 -20l-6 -41l-203 4l-225 -4l-5 41l183 20v1307l-178 29l6 41l194 -4l164 4l717 -1088l45 -88v1116l-178 19l4 41l203 -4l223 4l6 -41l-184 -19v-1384zM707 1530l112 211h185l-232 -211h-65z" />
    <glyph glyph-name="Nacute.sc" horiz-adv-x="1228" 
d="M586 1141l94 198h164l-203 -198h-55zM1032 -6h-90l-631 854l-41 106v-897l140 -14l-7 -45l-157 4l-174 -4l-4 45l139 14v922l-135 16l4 43l153 -2l146 2l547 -700l47 -102v747l-138 12l3 43l163 -2l170 2l4 -43l-139 -12v-989z" />
    <glyph glyph-name="Ncaron.002" horiz-adv-x="1470" 
d="M1266 -8h-103l-796 1222l-48 113v-1268l181 -20l-6 -41l-203 4l-225 -4l-5 41l183 20v1307l-178 29l6 41l194 -4l164 4l717 -1088l45 -88v1116l-178 19l4 41l203 -4l223 4l6 -41l-184 -19v-1384zM745 1634l11 -10l12 10l209 127h61l-233 -227h-96l-234 227h62z" />
    <glyph glyph-name="Ncaron.sc" horiz-adv-x="1228" 
d="M457 1339l168 -100l10 -14l12 14l168 100h53l-190 -202h-84l-193 202h56zM1032 -6h-90l-631 854l-41 106v-897l140 -14l-7 -45l-157 4l-174 -4l-4 45l139 14v922l-135 16l4 43l153 -2l146 2l547 -700l47 -102v747l-138 12l3 43l163 -2l170 2l4 -43l-139 -12v-989z" />
    <glyph glyph-name="Ncommaaccent.001" horiz-adv-x="1470" 
d="M1266 -8h-103l-796 1222l-48 113v-1268l181 -20l-6 -41l-203 4l-225 -4l-5 41l183 20v1307l-178 29l6 41l194 -4l164 4l717 -1088l45 -88v1116l-178 19l4 41l203 -4l223 4l6 -41l-184 -19v-1384zM657 -80h177v-131l-142 -154l-35 17l70 137l-70 47v84z" />
    <glyph glyph-name="Ncommaaccent.sc" horiz-adv-x="1228" 
d="M547 -74h158v-119l-127 -167l-39 8l63 164l-55 49v65zM1032 -6h-90l-631 854l-41 106v-897l140 -14l-7 -45l-157 4l-174 -4l-4 45l139 14v922l-135 16l4 43l153 -2l146 2l547 -700l47 -102v747l-138 12l3 43l163 -2l170 2l4 -43l-139 -12v-989z" />
    <glyph glyph-name="Ntilde.002" horiz-adv-x="1470" 
d="M1266 -8h-103l-796 1222l-48 113v-1268l181 -20l-6 -41l-203 4l-225 -4l-5 41l183 20v1307l-178 29l6 41l194 -4l164 4l717 -1088l45 -88v1116l-178 19l4 41l203 -4l223 4l6 -41l-184 -19v-1384zM514 1706l141 41l344 -117l70 123h31l-56 -168l-143 -39l-342 117
l-72 -125h-30z" />
    <glyph glyph-name="Ntilde.sc" horiz-adv-x="1228" 
d="M434 1300l107 29l290 -94l56 96h26l-41 -166l-106 -26l-291 96l-55 -98h-27zM1032 -6h-90l-631 854l-41 106v-897l140 -14l-7 -45l-157 4l-174 -4l-4 45l139 14v922l-135 16l4 43l153 -2l146 2l547 -700l47 -102v747l-138 12l3 43l163 -2l170 2l4 -43l-139 -12v-989z" />
    <glyph glyph-name="O.sc" horiz-adv-x="1284" 
d="M80 507q0 233 140 370t437 186q242 0 394.5 -148.5t152.5 -381.5q0 -234 -140 -371t-437 -187q-242 0 -394.5 149.5t-152.5 382.5zM372 189q106 -148 285 -148t270 127.5t91 329.5t-108.5 350.5t-286.5 148.5t-267.5 -127.5t-89.5 -330.5q0 -202 106 -350z" />
    <glyph glyph-name="OE.sc" horiz-adv-x="1587" 
d="M217 870.5q137 132.5 447 186.5l217 -21l616 2l8 -272h-32l-103 217l-412 2v-414l211 2l68 168h35l-8 -194l8 -199h-35l-68 168l-211 2v-465l422 2l109 226h37l-29 -283l-663 4l-201 -22q-244 0 -398.5 145t-154.5 379t137 366.5zM384.5 186q118.5 -143 295.5 -143
l111 12v926l-175 16q-166 0 -258 -128.5t-92 -333.5q0 -206 118.5 -349z" />
    <glyph glyph-name="Oacute.002" horiz-adv-x="1564" 
d="M432.5 248q141.5 -209 386.5 -209q219 0 338 180t119 467t-141 498t-387 211q-217 0 -337 -179t-120 -469t141.5 -499zM84 700q0 660 719 768q297 0 488.5 -207t191.5 -529q0 -659 -721 -767q-150 0 -275 55.5t-264 206.5t-139 473zM702 1530l113 211h184l-231 -211h-66z
" />
    <glyph glyph-name="Oacute.sc" horiz-adv-x="1284" 
d="M594 1141l94 198h164l-203 -198h-55zM369.5 188.5q107.5 -147.5 286.5 -147.5t268.5 128.5t89.5 329.5t-108.5 349.5t-286.5 148.5t-267.5 -127.5t-89.5 -330.5t107.5 -350.5zM76 507q0 233 140 370t437 186q241 0 395 -148t154 -382t-141 -371t-438 -187
q-242 0 -394.5 149.5t-152.5 382.5z" />
    <glyph glyph-name="Obreve.002" horiz-adv-x="1564" 
d="M432.5 248q141.5 -209 386.5 -209q219 0 338 180t119 467t-141 498t-387 211q-217 0 -337 -179t-120 -469t141.5 -499zM84 700q0 660 719 768q297 0 488.5 -207t191.5 -529q0 -659 -721 -767q-150 0 -275 55.5t-264 206.5t-139 473zM809 1661q137 0 231 127l29 -25
q-33 -66 -82.5 -122t-150.5 -99q-187 0 -291 221l33 23q51 -76 117.5 -100.5t113.5 -24.5z" />
    <glyph glyph-name="Obreve.sc" horiz-adv-x="1284" 
d="M653 1225q111 0 191 94l24 -23q-36 -82 -90.5 -116.5t-103.5 -55.5q-159 0 -238 170l27 25q23 -27 67.5 -60.5t122.5 -33.5zM76 507q0 233 140 370t437 186q241 0 395 -148t154 -382t-141 -371t-438 -187q-242 0 -394.5 149.5t-152.5 382.5zM369.5 188.5
q107.5 -147.5 286.5 -147.5t268.5 128.5t89.5 329.5t-108.5 349.5t-286.5 148.5t-267.5 -127.5t-89.5 -330.5t107.5 -350.5z" />
    <glyph glyph-name="Ocircumflex.002" horiz-adv-x="1564" 
d="M432.5 248q141.5 -209 386.5 -209q219 0 338 180t119 467t-141 498t-387 211q-217 0 -337 -179t-120 -469t141.5 -499zM84 700q0 660 719 768q297 0 488.5 -207t191.5 -529q0 -659 -721 -767q-150 0 -275 55.5t-264 206.5t-139 473zM516 1524l234 227h98l233 -227h-63
l-207 127l-12 10l-219 -137h-64z" />
    <glyph glyph-name="Ocircumflex.sc" horiz-adv-x="1284" 
d="M410 1141l192 202h82l193 -202h-56l-168 98l-10 16l-12 -16l-166 -98h-55zM369.5 188.5q107.5 -147.5 286.5 -147.5t268.5 128.5t89.5 329.5t-108.5 349.5t-286.5 148.5t-267.5 -127.5t-89.5 -330.5t107.5 -350.5zM76 507q0 233 140 370t437 186q241 0 395 -148t154 -382
t-141 -371t-438 -187q-242 0 -394.5 149.5t-152.5 382.5z" />
    <glyph glyph-name="Odieresis.002" horiz-adv-x="1570" 
d="M434.5 248q141.5 -209 386.5 -209q219 0 338 180t119 467t-141 498t-387 211q-217 0 -337 -179t-120 -469t141.5 -499zM86 700q0 660 719 768q297 0 488.5 -207t191.5 -529q0 -659 -721 -767q-297 0 -487.5 206.5t-190.5 528.5zM1061 1745l45 -8l8 -86l-18 -78l-109 -8
l-45 8l-8 90l14 74zM623 1745l47 -8l8 -86l-19 -78l-108 -8l-45 8l-10 90l16 74z" />
    <glyph glyph-name="Odieresis.sc" horiz-adv-x="1284" 
d="M76 507q0 233 140 370t437 186q241 0 395 -148t154 -382t-141 -371t-438 -187q-242 0 -394.5 149.5t-152.5 382.5zM369.5 188.5q107.5 -147.5 286.5 -147.5t268.5 128.5t89.5 329.5t-108.5 349.5t-286.5 148.5t-267.5 -127.5t-89.5 -330.5t107.5 -350.5zM858 1311l39 -6
l8 -78l-16 -68l-92 -8l-37 8l-8 80l12 66zM502 1311l37 -6l10 -78l-14 -68l-95 -8l-39 8l-8 80l15 66z" />
    <glyph glyph-name="Ograve.002" horiz-adv-x="1564" 
d="M432.5 248q141.5 -209 386.5 -209q219 0 338 180t119 467t-141 498t-387 211q-217 0 -337 -179t-120 -469t141.5 -499zM84 700q0 660 719 768q297 0 488.5 -207t191.5 -529q0 -659 -721 -767q-150 0 -275 55.5t-264 206.5t-139 473zM784 1550l-231 252h184l113 -252h-66z
" />
    <glyph glyph-name="Ograve.sc" horiz-adv-x="1284" 
d="M643 1141l-205 198h166l94 -198h-55zM76 507q0 233 140 370t437 186q241 0 395 -148t154 -382t-141 -371t-438 -187q-242 0 -394.5 149.5t-152.5 382.5zM369.5 188.5q107.5 -147.5 286.5 -147.5t268.5 128.5t89.5 329.5t-108.5 349.5t-286.5 148.5t-267.5 -127.5
t-89.5 -330.5t107.5 -350.5z" />
    <glyph glyph-name="Ohungarumlaut.002" horiz-adv-x="1564" 
d="M432.5 248q141.5 -209 386.5 -209q219 0 338 180t119 467t-141 498t-387 211q-217 0 -337 -179t-120 -469t141.5 -499zM84 700q0 660 719 768q297 0 488.5 -207t191.5 -529q0 -659 -721 -767q-150 0 -275 55.5t-264 206.5t-139 473zM881 1540l135 201h198l-268 -201h-65z
M563 1540l133 201h199l-266 -201h-66z" />
    <glyph glyph-name="Ohungarumlaut.sc" horiz-adv-x="1284" 
d="M741 1141l109 198h174l-227 -198h-56zM485 1141l109 198h176l-227 -198h-58zM76 507q0 233 140 370t437 186q241 0 395 -148t154 -382t-141 -371t-438 -187q-242 0 -394.5 149.5t-152.5 382.5zM369.5 188.5q107.5 -147.5 286.5 -147.5t268.5 128.5t89.5 329.5
t-108.5 349.5t-286.5 148.5t-267.5 -127.5t-89.5 -330.5t107.5 -350.5z" />
    <glyph glyph-name="Omacron.002" horiz-adv-x="1564" 
d="M432.5 248q141.5 -209 386.5 -209q219 0 338 180t119 467t-141 498t-387 211q-217 0 -337 -179t-120 -469t141.5 -499zM84 700q0 660 719 768q297 0 488.5 -207t191.5 -529q0 -659 -721 -767q-150 0 -275 55.5t-264 206.5t-139 473zM512 1690h571v-78h-571v78z" />
    <glyph glyph-name="Omacron.sc" horiz-adv-x="1284" 
d="M403 1260h461v-82h-461v82zM369.5 188.5q107.5 -147.5 286.5 -147.5t268.5 128.5t89.5 329.5t-108.5 349.5t-286.5 148.5t-267.5 -127.5t-89.5 -330.5t107.5 -350.5zM76 507q0 233 140 370t437 186q241 0 395 -148t154 -382t-141 -371t-438 -187q-242 0 -394.5 149.5
t-152.5 382.5z" />
    <glyph glyph-name="Oslash.sc" horiz-adv-x="1284" 
d="M379 176q109 -135 282 -135t263 128.5t90 316.5q0 189 -86 329zM901 852q-112 145 -286 145t-263.5 -127.5t-89.5 -321t90 -333.5zM76 495q0 245 140 382t437 186q195 0 340 -102l88 100h60l-111 -129q172 -151 172 -392t-141 -378t-438 -187q-198 0 -332 97l-82 -95h-62
l107 123q-178 150 -178 395z" />
    <glyph glyph-name="Oslashacute.002" horiz-adv-x="1564" 
d="M705 1530l110 211h184l-231 -211h-63zM446 227q144 -188 368 -188t343 180t119 458t-119 472zM1126 1196q-143 199 -369 199t-346 -179t-120 -460t121 -480zM1483 745q0 -334 -177.5 -529.5t-543.5 -250.5q-233 0 -414 137l-102 -133h-72l131 170q-104 98 -162.5 239.5
t-58.5 309.5q0 334 176 529.5t543 250.5q244 0 422 -145l108 141h68l-137 -176q104 -98 161.5 -237.5t57.5 -305.5z" />
    <glyph glyph-name="Oslashacute.sc" horiz-adv-x="1284" 
d="M594 1141l94 198h164l-203 -198h-55zM379 176q109 -135 282 -135t263 128.5t90 316.5q0 189 -86 329zM901 852q-112 145 -286 145t-263.5 -127.5t-89.5 -321t90 -333.5zM76 495q0 245 140 382t437 186q195 0 340 -102l88 100h60l-111 -129q172 -151 172 -392t-141 -378
t-438 -187q-198 0 -332 97l-82 -95h-62l107 123q-178 150 -178 395z" />
    <glyph glyph-name="Otilde.002" horiz-adv-x="1564" 
d="M432.5 248q141.5 -209 386.5 -209q219 0 338 180t119 467t-141 498t-387 211q-217 0 -337 -179t-120 -469t141.5 -499zM84 700q0 660 719 768q297 0 488.5 -207t191.5 -529q0 -659 -721 -767q-150 0 -275 55.5t-264 206.5t-139 473zM549 1706l143 41l342 -117l72 123h29
l-56 -168l-141 -39l-344 117l-72 -125h-28z" />
    <glyph glyph-name="Otilde.sc" horiz-adv-x="1284" 
d="M446 1300l107 29l291 -94l55 96h27l-41 -166l-107 -26l-293 96l-55 -98h-27zM76 507q0 233 140 370t437 186q241 0 395 -148t154 -382t-141 -371t-438 -187q-242 0 -394.5 149.5t-152.5 382.5zM369.5 188.5q107.5 -147.5 286.5 -147.5t268.5 128.5t89.5 329.5
t-108.5 349.5t-286.5 148.5t-267.5 -127.5t-89.5 -330.5t107.5 -350.5z" />
    <glyph glyph-name="P.sc" horiz-adv-x="995" 
d="M375 510h135q117 0 189.5 68t72.5 176t-56.5 173.5t-185.5 65.5l-155 -10v-473zM952 770q0 -128 -104.5 -196.5t-294.5 -118.5h-178v-398l168 -14l-4 -45l-250 4l-217 -4l-4 45l139 14v926l-139 12l4 43l221 -2l307 2q247 0 299.5 -99t52.5 -169z" />
    <glyph glyph-name="Q.sc" horiz-adv-x="1284" 
d="M912 849.5q-106 147.5 -286 147.5t-270 -126t-90 -330t106 -352t288 -148q174 0 266 125.5t92 330.5t-106 352.5zM80 507q0 233 140 370t437 186q242 0 394.5 -148.5t152.5 -376.5t-128 -363.5t-396 -188.5l194 -39l195 -133l84 -19l-6 -43h-242l-280 223
q-240 0 -392.5 149.5t-152.5 382.5z" />
    <glyph glyph-name="R.sc" horiz-adv-x="1128" 
d="M375 537h102q137 0 213 63.5t76 171.5t-67.5 164.5t-168.5 56.5l-155 -10v-446zM948 782q0 -119 -107 -188t-278 -96l160 -58l289 -383l84 -14l-2 -45l-136 4l-116 -4l-332 465l-16 18h-119v-424l131 -14l-4 -45l-213 4l-217 -4l-4 45l139 14v926l-139 12l4 43l219 -2
l297 2q243 0 301.5 -95t58.5 -161z" />
    <glyph glyph-name="Racute.002" horiz-adv-x="1349" 
d="M428 725h137q184 0 282.5 95t98.5 247t-86 233.5t-223 85.5l-209 -12v-649zM1151 1079q0 -308 -475 -401l178 -66l375 -555l110 -20l-4 -39l-166 4l-129 -4l-424 641l-24 33h-164v-613l170 -20l-4 -41l-258 4l-270 -4l-5 41l183 20v1317l-183 19l5 41l270 -4l360 4
q312 0 383.5 -130t71.5 -227zM526 1530l113 211h184l-231 -211h-66z" />
    <glyph glyph-name="Racute.sc" horiz-adv-x="1128" 
d="M492 1141l92 198h166l-203 -198h-55zM948 782q0 -119 -107 -188t-278 -96l160 -58l289 -383l84 -14l-2 -45l-136 4l-116 -4l-330 463l-18 20h-119v-424l131 -14l-4 -45l-213 4l-217 -4l-4 45l139 14v926l-139 12l4 43l221 -2l295 2q243 0 301.5 -95t58.5 -161zM375 537
h102q137 0 213 63.5t76 171.5t-67.5 164.5t-168.5 56.5l-155 -10v-446z" />
    <glyph glyph-name="Rcaron.002" horiz-adv-x="1349" 
d="M428 725h137q184 0 282.5 95t98.5 247t-86 233.5t-223 85.5l-209 -12v-649zM1151 1079q0 -308 -475 -401l178 -66l375 -555l110 -20l-4 -39l-166 4l-129 -4l-424 641l-24 33h-164v-613l170 -20l-4 -41l-258 4l-270 -4l-5 41l183 20v1317l-183 19l5 41l270 -4l360 4
q312 0 383.5 -130t71.5 -227zM604 1634l10 -10l222 137h61l-233 -227h-97l-233 227h61z" />
    <glyph glyph-name="Rcaron.sc" horiz-adv-x="1128" 
d="M348 1339l168 -100l10 -14l13 14l166 100h55l-191 -202h-86l-188 202h53zM375 537h102q137 0 213 63.5t76 171.5t-67.5 164.5t-168.5 56.5l-155 -10v-446zM948 782q0 -119 -107 -188t-278 -96l160 -58l289 -383l84 -14l-2 -45l-142 4l-110 -4l-326 457l-22 26h-119v-424
l131 -14l-4 -45l-213 4l-217 -4l-4 45l139 14v926l-139 12l4 43l221 -2l295 2q243 0 301.5 -95t58.5 -161z" />
    <glyph glyph-name="Rcommaaccent.001" horiz-adv-x="1349" 
d="M428 725h137q184 0 282.5 95t98.5 247t-86 233.5t-223 85.5l-209 -12v-649zM1151 1079q0 -308 -475 -401l178 -66l375 -555l110 -20l-4 -39l-166 4l-129 -4l-424 641l-24 33h-164v-613l170 -20l-4 -41l-258 4l-270 -4l-5 41l183 20v1317l-183 19l5 41l270 -4l360 4
q312 0 383.5 -130t71.5 -227zM604 -80h176v-131l-141 -154l-35 17l70 137l-70 47v84z" />
    <glyph glyph-name="Rcommaaccent.sc" horiz-adv-x="1128" 
d="M520 -74h156v-119l-127 -167l-37 8l61 164l-53 49v65zM948 782q0 -119 -107 -188t-278 -96l160 -58l289 -383l84 -14l-2 -45l-136 4l-116 -4l-330 463l-18 20h-119v-424l131 -14l-4 -45l-213 4l-217 -4l-4 45l139 14v926l-139 12l4 43l223 -2l293 2q243 0 301.5 -95
t58.5 -161zM375 537h102q137 0 213 63.5t76 171.5t-67.5 164.5t-168.5 56.5l-155 -10v-446z" />
    <glyph glyph-name="S.sc" horiz-adv-x="919" 
d="M791 745h-46l-69 168q-88 88 -192 88t-158 -43t-54 -104t42 -98t110 -72l209 -113q106 -57 155.5 -117t49.5 -132q0 -136 -91.5 -217.5t-310.5 -129.5q-184 0 -334 95l-18 252h63l68 -156q119 -119 264 -119q92 0 144.5 45.5t52.5 115.5t-42 113.5t-122 84.5l-211 112
q-86 45 -137 98.5t-51 147.5q-4 214 372 299q170 0 306 -72v-246z" />
    <glyph glyph-name="Sacute.002" horiz-adv-x="1107" 
d="M958 1075h-53l-80 217q-107 107 -247 107t-213.5 -66.5t-73.5 -168.5t57.5 -161t153.5 -106l233 -115q139 -76 209 -157t70 -213q0 -233 -174.5 -323.5t-315.5 -123.5q-139 0 -235 35t-178 94l-23 293h76l80 -197q126 -145 336 -145q118 0 196 76t78 190t-60.5 185
t-172.5 127l-244 122q-127 62 -188.5 133.5t-61.5 190.5q0 231 180 306t281 93q210 0 370 -102v-291zM492 1530l112 211h182l-229 -211h-65z" />
    <glyph glyph-name="Sacute.sc" horiz-adv-x="919" 
d="M461 1141l94 198h164l-203 -198h-55zM791 745h-46l-69 168q-88 88 -192 88t-158 -43t-54 -104t42 -98t110 -72l209 -113q106 -57 155.5 -117t49.5 -132q0 -136 -91.5 -217.5t-310.5 -129.5q-184 0 -334 95l-18 252h63l68 -156q119 -119 264 -119q92 0 144.5 45.5
t52.5 115.5t-42 113.5t-122 84.5l-211 112q-86 45 -137 98.5t-51 147.5q-4 214 372 299q170 0 306 -72v-246z" />
    <glyph glyph-name="Scaron.002" horiz-adv-x="1107" 
d="M958 1075h-53l-80 217q-107 107 -247 107t-213.5 -66.5t-73.5 -168.5t57.5 -161t153.5 -106l233 -115q139 -76 209 -157t70 -213q0 -233 -174.5 -323.5t-315.5 -123.5q-139 0 -235 35t-178 94l-23 293h76l80 -197q126 -145 336 -145q118 0 196 76t78 190t-60.5 185
t-172.5 127l-244 122q-127 62 -188.5 133.5t-61.5 190.5q0 231 180 306t281 93q210 0 370 -102v-291zM582 1634l10 -10l12 10l209 127h61l-233 -227h-96l-234 227h62z" />
    <glyph glyph-name="Scaron.sc" horiz-adv-x="919" 
d="M313 1339l168 -100l11 -14l12 14l168 100h55l-192 -202h-84l-191 202h53zM791 745h-46l-69 168q-88 88 -192 88t-158 -43t-54 -104t42 -98t110 -72l209 -113q106 -57 155.5 -117t49.5 -132q0 -136 -91.5 -217.5t-310.5 -129.5q-184 0 -334 95l-18 252h63l68 -156
q119 -119 264 -119q92 0 144.5 45.5t52.5 115.5t-42 113.5t-122 84.5l-211 112q-86 45 -137 98.5t-51 147.5q-4 214 372 299q170 0 306 -72v-246z" />
    </font>
</defs>
</svg>
